<?xml version="1.0" encoding="UTF-8"?>
<svg version="1.1" xmlns="http://www.w3.org/2000/svg" width="4000" height="2250">
<path d="M0 0 C1.07190157 0.000093 1.07190157 0.000093 2.16545773 0.00018787 C11.18996766 0.00109141 20.21439559 0.01152561 29.23887253 0.03641891 C31.81026256 0.04333754 34.38165657 0.04891495 36.95305252 0.05308914 C40.51301159 0.05991024 44.07288207 0.0733403 47.6328125 0.08886719 C48.67248861 0.08997561 49.71216473 0.09108402 50.78334618 0.09222603 C65.71079399 0.18023331 65.71079399 0.18023331 69.9375 3.6875 C73.52864995 8.14923176 73.14170986 11.79382754 73.12995183 17.32726932 C73.13185108 18.28600095 73.13375032 19.24473259 73.13570711 20.2325167 C73.14091017 23.4883818 73.13890836 26.74420431 73.13701439 30.00007248 C73.1392685 32.35066792 73.14195923 34.70126298 73.14505023 37.05185747 C73.15079448 42.20105419 73.153386 47.35024291 73.15327708 52.49944243 C73.15312688 60.20805892 73.1586668 67.91666404 73.16532399 75.62527728 C73.17648818 88.7605104 73.18280434 101.89574198 73.18649673 115.03097916 C73.19024758 128.34986939 73.19611612 141.66875609 73.20457458 154.9876442 C73.20510568 155.82759717 73.20563677 156.66755015 73.20618396 157.53295625 C73.2083506 160.95373061 73.21052722 164.37450496 73.2127179 167.7952793 C73.23924169 209.29761158 73.25478839 250.79994576 73.26788078 292.30228415 C73.27212894 305.75735001 73.27669653 319.21241573 73.2814641 332.66748142 C73.30636948 403.11791347 73.32843728 473.56834591 73.34065448 544.0187814 C73.34155186 549.17727627 73.34246656 554.33577113 73.34338222 559.49426599 C73.34356383 560.51756659 73.34374544 561.5408672 73.34393256 562.59517692 C73.34577528 572.96296965 73.34764113 583.33076238 73.34953065 593.69855511 C73.3499087 595.77735761 73.35028499 597.85616011 73.35065953 599.93496262 C73.36269282 666.71633497 73.39238654 733.49768128 73.43407464 800.27904136 C73.46401398 848.25405638 73.49164744 896.22906608 73.50135231 944.20409012 C73.50155287 945.19019124 73.50175342 946.17629236 73.50196006 947.19227534 C73.50631013 968.83702677 73.5092562 990.48177817 73.51088657 1012.12652996 C73.51156295 1020.83495604 73.51241847 1029.54338211 73.51332474 1038.25180817 C73.51346588 1039.68147016 73.51346588 1039.68147016 73.51360988 1041.14001421 C73.51672511 1071.87236525 73.53525197 1102.60468321 73.56167471 1133.33702233 C73.58819238 1164.28167353 73.59898003 1195.22628778 73.58793872 1226.17094962 C73.58641709 1230.44288356 73.58507169 1234.71481753 73.58383179 1238.98675156 C73.58358206 1239.82420311 73.58333233 1240.66165467 73.58307503 1241.52448354 C73.57957407 1254.8084007 73.59291737 1268.09224597 73.61320952 1281.37614585 C73.63279555 1294.42446123 73.63468255 1307.47267803 73.61748323 1320.52099792 C73.60792647 1328.17985586 73.6121858 1335.83841117 73.63650558 1343.49723814 C73.65300591 1349.17011075 73.64367326 1354.84269875 73.62394121 1360.51555017 C73.62005341 1362.80596011 73.62468162 1365.09640303 73.63852822 1367.38677442 C73.65604029 1370.48218061 73.64305397 1373.57598438 73.62214315 1376.67133403 C73.64078253 1378.01107626 73.64078253 1378.01107626 73.65979846 1379.37788399 C73.59841313 1383.6442388 73.31540089 1386.40159154 70.58611605 1389.78616662 C67.21371223 1392.99910871 65.76377576 1393.36996088 61.25 1393.4609375 C59.76874634 1393.49997192 59.76874634 1393.49997192 58.25756836 1393.53979492 C57.1825708 1393.5679126 56.10757324 1393.59603027 55 1393.625 C2.01674159 1395.48077239 -47.21717832 1411.6951935 -86.6171875 1448.0546875 C-88.18512758 1449.49924869 -89.77346653 1450.9220283 -91.3828125 1452.3203125 C-131.14709799 1486.97022043 -156.51738182 1537.75881391 -161 1590.25 C-161.39948044 1596.70974659 -161.61913664 1603.17134216 -161.7890625 1609.640625 C-162.25004852 1624.66672596 -162.25004852 1624.66672596 -166 1629.25 C-169.60742278 1631.67514594 -172.92377337 1631.49902615 -177.18716431 1631.49723816 C-177.91195964 1631.49965257 -178.63675498 1631.50206699 -179.38351381 1631.50455457 C-181.81257087 1631.51019112 -184.2413649 1631.50152892 -186.67041016 1631.49291992 C-188.41157604 1631.4939928 -190.15274158 1631.49593156 -191.89390564 1631.49867249 C-196.62302631 1631.50352236 -201.35205271 1631.49586385 -206.08116198 1631.48571944 C-211.02500332 1631.47694342 -215.96884167 1631.47869629 -220.91268921 1631.4790802 C-229.21329326 1631.4781435 -237.51386076 1631.46945777 -245.81445312 1631.45581055 C-255.42115181 1631.44007463 -265.02781049 1631.4348128 -274.63452113 1631.4355461 C-283.86628121 1631.43615569 -293.09802823 1631.43105721 -302.32978439 1631.42275429 C-306.26356483 1631.41921722 -310.19734064 1631.41739044 -314.13112259 1631.41686058 C-318.75873093 1631.41585862 -323.38630547 1631.40977407 -328.01390266 1631.39969444 C-329.71592438 1631.3967652 -331.41794999 1631.39554493 -333.11997414 1631.39612198 C-335.43562009 1631.39661012 -337.75117032 1631.39098224 -340.06680298 1631.38371277 C-342.01413299 1631.381199 -342.01413299 1631.381199 -344.00080299 1631.37863445 C-347 1631.25 -347 1631.25 -349 1630.25 C-351.87807282 1630.15191827 -354.73196715 1630.11617194 -357.61034185 1630.12399215 C-358.51850452 1630.12251655 -359.4266672 1630.12104096 -360.36234995 1630.11952066 C-363.44584865 1630.11575204 -366.52929909 1630.11918654 -369.61279774 1630.12250805 C-371.83919939 1630.12127544 -374.06560084 1630.11960277 -376.29200187 1630.11752674 C-382.46440299 1630.11305485 -388.63678934 1630.11486394 -394.80919089 1630.11760005 C-400.81442078 1630.11927348 -406.81964702 1630.11622613 -412.82487595 1630.11327625 C-425.26526216 1630.10732418 -437.70564494 1630.10604846 -450.14603233 1630.10725212 C-462.76023345 1630.10844336 -475.37443156 1630.10742512 -487.9886322 1630.1036644 C-488.78415998 1630.10342769 -489.57968776 1630.10319098 -490.39932244 1630.10294709 C-494.45544767 1630.10172578 -498.51157288 1630.10045995 -502.56769809 1630.09917164 C-510.88524067 1630.09653933 -519.20278333 1630.09418576 -527.52032602 1630.09191763 C-528.35814962 1630.0916885 -529.19597322 1630.09145936 -530.05918542 1630.09122329 C-543.10761456 1630.08770125 -556.15604362 1630.08540878 -569.20447314 1630.08385694 C-570.52754942 1630.08369897 -570.52754942 1630.08369897 -571.87735452 1630.08353782 C-575.45972029 1630.08311328 -579.04208606 1630.08269533 -582.62445183 1630.08228201 C-626.37994134 1630.07722788 -670.13542256 1630.06257645 -713.89090808 1630.04359599 C-724.12350921 1630.03915849 -734.35611038 1630.03484003 -744.58871156 1630.03052729 C-746.46317708 1630.02973676 -748.3376426 1630.02894619 -750.21210812 1630.02815561 C-753.97265721 1630.02656977 -757.7332063 1630.02498517 -761.4937554 1630.02340112 C-765.2682718 1630.02181076 -769.04278819 1630.02021628 -772.81730459 1630.01861839 C-816.3714027 1630.0001861 -859.92550134 1629.98338196 -903.47960066 1629.96807931 C-906.4331007 1629.96704076 -909.38660073 1629.96599731 -912.34010076 1629.96495338 C-957.83500969 1629.94890782 -1003.32991765 1629.93586191 -1048.8248291 1629.92993164 C-1049.80347569 1629.92980355 -1050.78212228 1629.92967545 -1051.79042483 1629.92954348 C-1067.56981544 1629.92748737 -1083.34920606 1629.92558844 -1099.1285967 1629.92372333 C-1144.56527557 1629.91835196 -1190.00194976 1629.91057133 -1235.43862438 1629.88936329 C-1236.37251588 1629.88892861 -1237.30640738 1629.88849394 -1238.26859863 1629.88804609 C-1257.84680629 1629.87890206 -1277.42501342 1629.8689137 -1297.00322008 1629.85783185 C-1306.17080394 1629.85264525 -1315.33838789 1629.84764581 -1324.50597191 1629.84275246 C-1325.40860376 1629.84226729 -1326.31123561 1629.84178213 -1327.24121994 1629.84128226 C-1356.34777671 1629.82573095 -1385.45431655 1629.82334428 -1414.56087657 1629.8279826 C-1443.86753051 1629.83261006 -1473.17415304 1629.82508611 -1502.48079778 1629.80037887 C-1506.5262533 1629.79697271 -1510.57170891 1629.7937116 -1514.61716461 1629.79053879 C-1515.41022088 1629.78991185 -1516.20327716 1629.78928491 -1517.02036544 1629.78863897 C-1529.60196834 1629.77906619 -1542.18352991 1629.78298702 -1554.76513135 1629.79248165 C-1567.12245057 1629.80153432 -1579.47969591 1629.79647534 -1591.83700255 1629.77618354 C-1598.45334005 1629.76571425 -1605.06955002 1629.76215805 -1611.68589512 1629.77580877 C-1617.69533117 1629.78808763 -1623.70445618 1629.78224974 -1629.71386631 1629.76145798 C-1631.88360929 1629.7572166 -1634.05337804 1629.75979369 -1636.22310242 1629.76972724 C-1639.15365557 1629.78218675 -1642.08311196 1629.77030747 -1645.01361066 1629.75205535 C-1645.86115554 1629.76154974 -1646.70870041 1629.77104413 -1647.58192846 1629.78082623 C-1651.5896126 1629.72996553 -1653.5338346 1629.54631325 -1656.99914933 1627.34362154 C-1660.4277066 1623.75609676 -1660.17392244 1620.75295788 -1660.203125 1616.01953125 C-1660.21009399 1615.26302277 -1660.21706299 1614.50651428 -1660.22424316 1613.7270813 C-1660.24206554 1611.1721665 -1660.24800939 1608.61747517 -1660.25 1606.0625 C-1660.25100708 1605.16943146 -1660.25201416 1604.27636292 -1660.25305176 1603.35623169 C-1660.19586108 1526.80061561 -1651.38195981 1449.72009348 -1639.4630127 1374.19787598 C-1639.03655806 1371.48275526 -1638.61758245 1368.76663005 -1638.20214844 1366.04980469 C-1629.83448645 1311.54174298 -1617.34349664 1257.46745376 -1603 1204.25 C-1602.69990021 1203.13011688 -1602.69990021 1203.13011688 -1602.39373779 1201.98760986 C-1600.08105915 1193.36025949 -1597.60111041 1184.79446654 -1595 1176.25 C-1594.51670426 1174.65268744 -1594.03347318 1173.05535532 -1593.55029297 1171.45800781 C-1575.40835198 1111.61675831 -1554.31546108 1053.26969639 -1529.20117188 995.99481201 C-1528.07301801 993.41685431 -1526.95093957 990.83637631 -1525.83203125 988.25439453 C-1515.92374859 965.39252679 -1505.22789303 942.96133126 -1494.16894531 920.63476562 C-1492.34676928 916.95562638 -1490.54099305 913.26875771 -1488.7421875 909.578125 C-1483.2464073 898.35745292 -1477.26167173 887.47883064 -1471.0546875 876.63671875 C-1468.43937475 872.05549553 -1465.93723196 867.42785829 -1463.5 862.75 C-1449.81808666 836.62827275 -1434.36850466 811.46115619 -1418.50537109 786.61767578 C-1416.8744266 784.05249581 -1415.25878135 781.47805943 -1413.64453125 778.90234375 C-1406.74806572 767.9303877 -1399.58456563 757.21136621 -1392.09375 746.63671875 C-1389.71200803 743.27371614 -1387.39045404 739.88039397 -1385.125 736.4375 C-1378.6150159 726.57431288 -1371.77753521 716.93014292 -1365 707.25 C-1364.52272461 706.56615234 -1364.04544922 705.88230469 -1363.55371094 705.17773438 C-1356.88482637 695.63585888 -1349.83114228 686.40076514 -1342.75390625 677.16015625 C-1339.93511667 673.47939402 -1337.14255014 669.78188047 -1334.375 666.0625 C-1324.24855484 652.52848679 -1313.72375156 639.31347918 -1303 626.25 C-1302.1332666 625.19184082 -1302.1332666 625.19184082 -1301.24902344 624.11230469 C-1293.58209317 614.75370876 -1285.85141028 605.45433691 -1278 596.25 C-1277.50757813 595.67121094 -1277.01515625 595.09242188 -1276.5078125 594.49609375 C-1271.50963415 588.6225999 -1266.5031377 582.76768788 -1261.3125 577.0625 C-1258.22929506 573.67320071 -1255.3081003 570.19610515 -1252.4375 566.625 C-1249.12460674 562.52853546 -1245.64852163 558.7875269 -1241.875 555.1171875 C-1240.11754417 553.3670544 -1238.48988584 551.568842 -1236.875 549.6875 C-1232.38904151 544.482573 -1227.67440113 539.49440672 -1222.97021484 534.48754883 C-1220.59754435 531.95973313 -1218.23444931 529.42404546 -1215.88647461 526.87329102 C-1202.75498649 512.68020238 -1188.99702808 499.09467119 -1175.31591797 485.43554688 C-1171.69733622 481.82271069 -1168.08333153 478.20533419 -1164.47059631 474.58665276 C-1161.65671931 471.7691507 -1158.84045104 468.95404855 -1156.02346802 466.13965225 C-1154.68961453 464.8064601 -1153.35648749 463.47254068 -1152.0241394 462.13784409 C-1139.53222719 449.62870784 -1139.53222719 449.62870784 -1133.49890137 444.52871704 C-1131.37751194 442.71895365 -1129.44059449 440.75030509 -1127.5 438.75 C-1124.25743741 435.46896632 -1120.92952978 432.39540004 -1117.4296875 429.39453125 C-1114.05455732 426.41551764 -1110.78234907 423.33053736 -1107.5 420.25 C-1103.02068309 416.05019596 -1098.53144369 411.88304641 -1093.875 407.87890625 C-1091.61248819 405.91334911 -1089.40309317 403.89326691 -1087.1875 401.875 C-1082.81714316 397.92628555 -1078.29696921 394.2037279 -1073.71875 390.5 C-1071.07852271 388.31498431 -1068.5327028 386.05828609 -1066 383.75 C-1060.82825098 379.0439535 -1055.43939952 374.64130144 -1050 370.25 C-1044.77567149 366.00665894 -1039.57084616 361.74992447 -1034.46557617 357.36352539 C-1027.6523984 351.52291175 -1020.60276792 346.04886668 -1013.44921875 340.6328125 C-1009.72464555 337.81133982 -1006.03750702 334.9451806 -1002.35961914 332.06323242 C-993.88620388 325.42465918 -985.28436121 318.98516255 -976.59765625 312.62890625 C-972.97094007 309.97275179 -969.37619831 307.27779705 -965.79345703 304.56274414 C-958.72564827 299.2100593 -951.5356526 294.08686846 -944.20043945 289.10766602 C-941.0079072 286.93916049 -937.82691897 284.75476826 -934.6517334 282.56097412 C-900.94869117 259.29129225 -866.62748918 237.19960017 -831.34771729 216.40608215 C-827.90086222 214.37423923 -824.45949027 212.33398646 -821.02734375 210.27734375 C-810.19853806 203.80415253 -799.10861307 197.83683848 -787.99609375 191.8671875 C-784.30469428 189.87469809 -780.63032517 187.85221065 -776.95605469 185.82836914 C-733.67659003 162.03425637 -689.04966241 140.97941996 -643.36962891 122.22387695 C-640.80662534 121.17052632 -638.24508924 120.11365295 -635.68359375 119.05664062 C-610.49406014 108.67389703 -585.21114997 98.75347748 -559.47314453 89.81152344 C-555.92200827 88.57625423 -552.38109622 87.31479477 -548.84367371 86.04086304 C-507.58749908 71.20569267 -465.07174972 59.44279653 -422.53741455 48.88171387 C-419.99347324 48.2483751 -417.45147442 47.60766792 -414.90966797 46.96582031 C-358.41736798 32.76126845 -300.66062363 22.02048054 -242.89093018 14.62060547 C-240.12570497 14.26611487 -237.36138315 13.90523889 -234.59716797 13.54296875 C-222.08461087 11.91548617 -209.55346887 10.52126144 -197 9.25 C-195.82495911 9.13076172 -194.64991821 9.01152344 -193.43927002 8.88867188 C-172.31313869 6.75930362 -151.17020919 4.88380598 -130 3.25 C-128.77299377 3.15485107 -127.54598755 3.05970215 -126.28179932 2.96166992 C-84.24633836 -0.23043715 -42.12701801 -0.00900334 0 0 Z " fill="#F79220" transform="translate(2667,397.75)"/>
<path d="M0 0 C1.07190157 0.000093 1.07190157 0.000093 2.16545773 0.00018787 C11.18996766 0.00109141 20.21439559 0.01152561 29.23887253 0.03641891 C31.81026256 0.04333754 34.38165657 0.04891495 36.95305252 0.05308914 C40.51301159 0.05991024 44.07288207 0.0733403 47.6328125 0.08886719 C48.67248861 0.08997561 49.71216473 0.09108402 50.78334618 0.09222603 C65.71079399 0.18023331 65.71079399 0.18023331 69.9375 3.6875 C73.52864995 8.14923176 73.14170986 11.79382754 73.12995183 17.32726932 C73.13185108 18.28600095 73.13375032 19.24473259 73.13570711 20.2325167 C73.14091017 23.4883818 73.13890836 26.74420431 73.13701439 30.00007248 C73.1392685 32.35066792 73.14195923 34.70126298 73.14505023 37.05185747 C73.15079448 42.20105419 73.153386 47.35024291 73.15327708 52.49944243 C73.15312688 60.20805892 73.1586668 67.91666404 73.16532399 75.62527728 C73.17648818 88.7605104 73.18280434 101.89574198 73.18649673 115.03097916 C73.19024758 128.34986939 73.19611612 141.66875609 73.20457458 154.9876442 C73.20510568 155.82759717 73.20563677 156.66755015 73.20618396 157.53295625 C73.2083506 160.95373061 73.21052722 164.37450496 73.2127179 167.7952793 C73.23924169 209.29761158 73.25478839 250.79994576 73.26788078 292.30228415 C73.27212894 305.75735001 73.27669653 319.21241573 73.2814641 332.66748142 C73.30636948 403.11791347 73.32843728 473.56834591 73.34065448 544.0187814 C73.34155186 549.17727627 73.34246656 554.33577113 73.34338222 559.49426599 C73.34356383 560.51756659 73.34374544 561.5408672 73.34393256 562.59517692 C73.34577528 572.96296965 73.34764113 583.33076238 73.34953065 593.69855511 C73.3499087 595.77735761 73.35028499 597.85616011 73.35065953 599.93496262 C73.36269282 666.71633497 73.39238654 733.49768128 73.43407464 800.27904136 C73.46401398 848.25405638 73.49164744 896.22906608 73.50135231 944.20409012 C73.50155287 945.19019124 73.50175342 946.17629236 73.50196006 947.19227534 C73.50631013 968.83702677 73.5092562 990.48177817 73.51088657 1012.12652996 C73.51156295 1020.83495604 73.51241847 1029.54338211 73.51332474 1038.25180817 C73.51346588 1039.68147016 73.51346588 1039.68147016 73.51360988 1041.14001421 C73.51672511 1071.87236525 73.53525197 1102.60468321 73.56167471 1133.33702233 C73.58819238 1164.28167353 73.59898003 1195.22628778 73.58793872 1226.17094962 C73.58641709 1230.44288356 73.58507169 1234.71481753 73.58383179 1238.98675156 C73.58358206 1239.82420311 73.58333233 1240.66165467 73.58307503 1241.52448354 C73.57957407 1254.8084007 73.59291737 1268.09224597 73.61320952 1281.37614585 C73.63279555 1294.42446123 73.63468255 1307.47267803 73.61748323 1320.52099792 C73.60792647 1328.17985586 73.6121858 1335.83841117 73.63650558 1343.49723814 C73.65300591 1349.17011075 73.64367326 1354.84269875 73.62394121 1360.51555017 C73.62005341 1362.80596011 73.62468162 1365.09640303 73.63852822 1367.38677442 C73.65604029 1370.48218061 73.64305397 1373.57598438 73.62214315 1376.67133403 C73.64078253 1378.01107626 73.64078253 1378.01107626 73.65979846 1379.37788399 C73.59841313 1383.6442388 73.31540089 1386.40159154 70.58611605 1389.78616662 C67.21371223 1392.99910871 65.76377576 1393.36996088 61.25 1393.4609375 C59.76874634 1393.49997192 59.76874634 1393.49997192 58.25756836 1393.53979492 C57.1825708 1393.5679126 56.10757324 1393.59603027 55 1393.625 C2.01674159 1395.48077239 -47.21717832 1411.6951935 -86.6171875 1448.0546875 C-88.18512758 1449.49924869 -89.77346653 1450.9220283 -91.3828125 1452.3203125 C-131.14709799 1486.97022043 -156.51738182 1537.75881391 -161 1590.25 C-161.39948044 1596.70974659 -161.61913664 1603.17134216 -161.7890625 1609.640625 C-162.25004852 1624.66672596 -162.25004852 1624.66672596 -166 1629.25 C-169.60742278 1631.67514594 -172.92377337 1631.49902615 -177.18716431 1631.49723816 C-177.91195964 1631.49965257 -178.63675498 1631.50206699 -179.38351381 1631.50455457 C-181.81257087 1631.51019112 -184.2413649 1631.50152892 -186.67041016 1631.49291992 C-188.41157604 1631.4939928 -190.15274158 1631.49593156 -191.89390564 1631.49867249 C-196.62302631 1631.50352236 -201.35205271 1631.49586385 -206.08116198 1631.48571944 C-211.02500332 1631.47694342 -215.96884167 1631.47869629 -220.91268921 1631.4790802 C-229.21329326 1631.4781435 -237.51386076 1631.46945777 -245.81445312 1631.45581055 C-255.42115181 1631.44007463 -265.02781049 1631.4348128 -274.63452113 1631.4355461 C-283.86628121 1631.43615569 -293.09802823 1631.43105721 -302.32978439 1631.42275429 C-306.26356483 1631.41921722 -310.19734064 1631.41739044 -314.13112259 1631.41686058 C-318.75873093 1631.41585862 -323.38630547 1631.40977407 -328.01390266 1631.39969444 C-329.71592438 1631.3967652 -331.41794999 1631.39554493 -333.11997414 1631.39612198 C-335.43562009 1631.39661012 -337.75117032 1631.39098224 -340.06680298 1631.38371277 C-342.01413299 1631.381199 -342.01413299 1631.381199 -344.00080299 1631.37863445 C-347 1631.25 -347 1631.25 -349 1630.25 C-351.87807282 1630.15191827 -354.73196715 1630.11617194 -357.61034185 1630.12399215 C-358.51850452 1630.12251655 -359.4266672 1630.12104096 -360.36234995 1630.11952066 C-363.44584865 1630.11575204 -366.52929909 1630.11918654 -369.61279774 1630.12250805 C-371.83919939 1630.12127544 -374.06560084 1630.11960277 -376.29200187 1630.11752674 C-382.46440299 1630.11305485 -388.63678934 1630.11486394 -394.80919089 1630.11760005 C-400.81442078 1630.11927348 -406.81964702 1630.11622613 -412.82487595 1630.11327625 C-425.26526216 1630.10732418 -437.70564494 1630.10604846 -450.14603233 1630.10725212 C-462.76023345 1630.10844336 -475.37443156 1630.10742512 -487.9886322 1630.1036644 C-488.78415998 1630.10342769 -489.57968776 1630.10319098 -490.39932244 1630.10294709 C-494.45544767 1630.10172578 -498.51157288 1630.10045995 -502.56769809 1630.09917164 C-510.88524067 1630.09653933 -519.20278333 1630.09418576 -527.52032602 1630.09191763 C-528.35814962 1630.0916885 -529.19597322 1630.09145936 -530.05918542 1630.09122329 C-543.10761456 1630.08770125 -556.15604362 1630.08540878 -569.20447314 1630.08385694 C-570.52754942 1630.08369897 -570.52754942 1630.08369897 -571.87735452 1630.08353782 C-575.45972029 1630.08311328 -579.04208606 1630.08269533 -582.62445183 1630.08228201 C-626.37994134 1630.07722788 -670.13542256 1630.06257645 -713.89090808 1630.04359599 C-724.12350921 1630.03915849 -734.35611038 1630.03484003 -744.58871156 1630.03052729 C-746.46317708 1630.02973676 -748.3376426 1630.02894619 -750.21210812 1630.02815561 C-753.97265721 1630.02656977 -757.7332063 1630.02498517 -761.4937554 1630.02340112 C-765.2682718 1630.02181076 -769.04278819 1630.02021628 -772.81730459 1630.01861839 C-816.3714027 1630.0001861 -859.92550134 1629.98338196 -903.47960066 1629.96807931 C-906.4331007 1629.96704076 -909.38660073 1629.96599731 -912.34010076 1629.96495338 C-957.83500969 1629.94890782 -1003.32991765 1629.93586191 -1048.8248291 1629.92993164 C-1049.80347569 1629.92980355 -1050.78212228 1629.92967545 -1051.79042483 1629.92954348 C-1067.56981544 1629.92748737 -1083.34920606 1629.92558844 -1099.1285967 1629.92372333 C-1144.56527557 1629.91835196 -1190.00194976 1629.91057133 -1235.43862438 1629.88936329 C-1236.37251588 1629.88892861 -1237.30640738 1629.88849394 -1238.26859863 1629.88804609 C-1257.84680629 1629.87890206 -1277.42501342 1629.8689137 -1297.00322008 1629.85783185 C-1306.17080394 1629.85264525 -1315.33838789 1629.84764581 -1324.50597191 1629.84275246 C-1325.40860376 1629.84226729 -1326.31123561 1629.84178213 -1327.24121994 1629.84128226 C-1356.34777671 1629.82573095 -1385.45431655 1629.82334428 -1414.56087657 1629.8279826 C-1443.86753051 1629.83261006 -1473.17415304 1629.82508611 -1502.48079778 1629.80037887 C-1506.5262533 1629.79697271 -1510.57170891 1629.7937116 -1514.61716461 1629.79053879 C-1515.41022088 1629.78991185 -1516.20327716 1629.78928491 -1517.02036544 1629.78863897 C-1529.60196834 1629.77906619 -1542.18352991 1629.78298702 -1554.76513135 1629.79248165 C-1567.12245057 1629.80153432 -1579.47969591 1629.79647534 -1591.83700255 1629.77618354 C-1598.45334005 1629.76571425 -1605.06955002 1629.76215805 -1611.68589512 1629.77580877 C-1617.69533117 1629.78808763 -1623.70445618 1629.78224974 -1629.71386631 1629.76145798 C-1631.88360929 1629.7572166 -1634.05337804 1629.75979369 -1636.22310242 1629.76972724 C-1639.15365557 1629.78218675 -1642.08311196 1629.77030747 -1645.01361066 1629.75205535 C-1645.86115554 1629.76154974 -1646.70870041 1629.77104413 -1647.58192846 1629.78082623 C-1651.5896126 1629.72996553 -1653.5338346 1629.54631325 -1656.99914933 1627.34362154 C-1660.4277066 1623.75609676 -1660.17392244 1620.75295788 -1660.203125 1616.01953125 C-1660.21009399 1615.26302277 -1660.21706299 1614.50651428 -1660.22424316 1613.7270813 C-1660.24206554 1611.1721665 -1660.24800939 1608.61747517 -1660.25 1606.0625 C-1660.25100708 1605.16943146 -1660.25201416 1604.27636292 -1660.25305176 1603.35623169 C-1660.19586108 1526.80061561 -1651.38195981 1449.72009348 -1639.4630127 1374.19787598 C-1639.03655806 1371.48275526 -1638.61758245 1368.76663005 -1638.20214844 1366.04980469 C-1629.83448645 1311.54174298 -1617.34349664 1257.46745376 -1603 1204.25 C-1602.69990021 1203.13011688 -1602.69990021 1203.13011688 -1602.39373779 1201.98760986 C-1600.08105915 1193.36025949 -1597.60111041 1184.79446654 -1595 1176.25 C-1594.51670426 1174.65268744 -1594.03347318 1173.05535532 -1593.55029297 1171.45800781 C-1575.40835198 1111.61675831 -1554.31546108 1053.26969639 -1529.20117188 995.99481201 C-1528.07301801 993.41685431 -1526.95093957 990.83637631 -1525.83203125 988.25439453 C-1515.92374859 965.39252679 -1505.22789303 942.96133126 -1494.16894531 920.63476562 C-1492.34676928 916.95562638 -1490.54099305 913.26875771 -1488.7421875 909.578125 C-1483.2464073 898.35745292 -1477.26167173 887.47883064 -1471.0546875 876.63671875 C-1468.43937475 872.05549553 -1465.93723196 867.42785829 -1463.5 862.75 C-1449.81808666 836.62827275 -1434.36850466 811.46115619 -1418.50537109 786.61767578 C-1416.8744266 784.05249581 -1415.25878135 781.47805943 -1413.64453125 778.90234375 C-1406.74806572 767.9303877 -1399.58456563 757.21136621 -1392.09375 746.63671875 C-1389.71200803 743.27371614 -1387.39045404 739.88039397 -1385.125 736.4375 C-1378.6150159 726.57431288 -1371.77753521 716.93014292 -1365 707.25 C-1364.52272461 706.56615234 -1364.04544922 705.88230469 -1363.55371094 705.17773438 C-1356.88482637 695.63585888 -1349.83114228 686.40076514 -1342.75390625 677.16015625 C-1339.93511667 673.47939402 -1337.14255014 669.78188047 -1334.375 666.0625 C-1324.24855484 652.52848679 -1313.72375156 639.31347918 -1303 626.25 C-1302.1332666 625.19184082 -1302.1332666 625.19184082 -1301.24902344 624.11230469 C-1293.58209317 614.75370876 -1285.85141028 605.45433691 -1278 596.25 C-1277.50757813 595.67121094 -1277.01515625 595.09242188 -1276.5078125 594.49609375 C-1271.50963415 588.6225999 -1266.5031377 582.76768788 -1261.3125 577.0625 C-1258.22929506 573.67320071 -1255.3081003 570.19610515 -1252.4375 566.625 C-1249.12460674 562.52853546 -1245.64852163 558.7875269 -1241.875 555.1171875 C-1240.11754417 553.3670544 -1238.48988584 551.568842 -1236.875 549.6875 C-1232.38904151 544.482573 -1227.67440113 539.49440672 -1222.97021484 534.48754883 C-1220.59754435 531.95973313 -1218.23444931 529.42404546 -1215.88647461 526.87329102 C-1202.75498649 512.68020238 -1188.99702808 499.09467119 -1175.31591797 485.43554688 C-1171.69733622 481.82271069 -1168.08333153 478.20533419 -1164.47059631 474.58665276 C-1161.65671931 471.7691507 -1158.84045104 468.95404855 -1156.02346802 466.13965225 C-1154.68961453 464.8064601 -1153.35648749 463.47254068 -1152.0241394 462.13784409 C-1139.53222719 449.62870784 -1139.53222719 449.62870784 -1133.49890137 444.52871704 C-1131.37751194 442.71895365 -1129.44059449 440.75030509 -1127.5 438.75 C-1124.25743741 435.46896632 -1120.92952978 432.39540004 -1117.4296875 429.39453125 C-1114.05455732 426.41551764 -1110.78234907 423.33053736 -1107.5 420.25 C-1103.02068309 416.05019596 -1098.53144369 411.88304641 -1093.875 407.87890625 C-1091.61248819 405.91334911 -1089.40309317 403.89326691 -1087.1875 401.875 C-1082.81714316 397.92628555 -1078.29696921 394.2037279 -1073.71875 390.5 C-1071.07852271 388.31498431 -1068.5327028 386.05828609 -1066 383.75 C-1060.82825098 379.0439535 -1055.43939952 374.64130144 -1050 370.25 C-1044.77567149 366.00665894 -1039.57084616 361.74992447 -1034.46557617 357.36352539 C-1027.6523984 351.52291175 -1020.60276792 346.04886668 -1013.44921875 340.6328125 C-1009.72464555 337.81133982 -1006.03750702 334.9451806 -1002.35961914 332.06323242 C-993.88620388 325.42465918 -985.28436121 318.98516255 -976.59765625 312.62890625 C-972.97094007 309.97275179 -969.37619831 307.27779705 -965.79345703 304.56274414 C-958.72564827 299.2100593 -951.5356526 294.08686846 -944.20043945 289.10766602 C-941.0079072 286.93916049 -937.82691897 284.75476826 -934.6517334 282.56097412 C-900.94869117 259.29129225 -866.62748918 237.19960017 -831.34771729 216.40608215 C-827.90086222 214.37423923 -824.45949027 212.33398646 -821.02734375 210.27734375 C-810.19853806 203.80415253 -799.10861307 197.83683848 -787.99609375 191.8671875 C-784.30469428 189.87469809 -780.63032517 187.85221065 -776.95605469 185.82836914 C-733.67659003 162.03425637 -689.04966241 140.97941996 -643.36962891 122.22387695 C-640.80662534 121.17052632 -638.24508924 120.11365295 -635.68359375 119.05664062 C-610.49406014 108.67389703 -585.21114997 98.75347748 -559.47314453 89.81152344 C-555.92200827 88.57625423 -552.38109622 87.31479477 -548.84367371 86.04086304 C-507.58749908 71.20569267 -465.07174972 59.44279653 -422.53741455 48.88171387 C-419.99347324 48.2483751 -417.45147442 47.60766792 -414.90966797 46.96582031 C-358.41736798 32.76126845 -300.66062363 22.02048054 -242.89093018 14.62060547 C-240.12570497 14.26611487 -237.36138315 13.90523889 -234.59716797 13.54296875 C-222.08461087 11.91548617 -209.55346887 10.52126144 -197 9.25 C-195.82495911 9.13076172 -194.64991821 9.01152344 -193.43927002 8.88867188 C-172.31313869 6.75930362 -151.17020919 4.88380598 -130 3.25 C-128.77299377 3.15485107 -127.54598755 3.05970215 -126.28179932 2.96166992 C-84.24633836 -0.23043715 -42.12701801 -0.00900334 0 0 Z M-145 25.25 C-145.67969597 25.30637886 -146.35939194 25.36275772 -147.05968475 25.42084503 C-186.86085805 28.72920579 -226.70934946 32.67434234 -266.11328125 39.28125 C-272.72832254 40.38731638 -279.36312488 41.34779525 -286 42.3125 C-297.5662911 44.00478784 -309.08010961 45.85421932 -320.54223633 48.15869141 C-325.07278527 49.06663349 -329.60613599 49.95947935 -334.14065552 50.84735107 C-338.36078198 51.67494408 -342.57956306 52.50930762 -346.79833984 53.34375 C-348.99062828 53.77622257 -351.18332888 54.20661174 -353.37646484 54.63476562 C-368.22448303 57.53566378 -382.89094276 60.87271601 -397.54492188 64.62976074 C-402.40263295 65.85698976 -407.29507665 66.92223219 -412.1875 68 C-435.91277654 73.36900587 -459.42544756 79.92549288 -482.63232422 87.20410156 C-486.72934377 88.47651216 -490.83515685 89.71870551 -494.94140625 90.9609375 C-515.79108783 97.28058216 -536.48347669 103.91900573 -557 111.25 C-557.72364746 111.50783264 -558.44729492 111.76566528 -559.19287109 112.03131104 C-583.5964539 120.73298961 -607.63274274 130.1940951 -631.52349854 140.21356201 C-634.01177548 141.25492814 -636.50232175 142.29066958 -638.99365234 143.32470703 C-662.2277652 152.97316753 -685.08038404 163.25103253 -707.73291016 174.19433594 C-711.68104812 176.10014973 -715.64123445 177.97951676 -719.60546875 179.8515625 C-731.6612141 185.56231083 -743.48711504 191.54609623 -755.1484375 198.0234375 C-761.38461938 201.48316275 -767.68643822 204.81632583 -773.98831177 208.15405273 C-792.95033142 218.20759555 -811.5859175 228.76861807 -830.0625 239.6875 C-830.69589294 240.06057281 -831.32928589 240.43364563 -831.98187256 240.81802368 C-850.98412366 252.02516865 -869.44287454 264.11129688 -887.85424805 276.25683594 C-890.72299158 278.14840212 -893.59481426 280.03523137 -896.46679688 281.921875 C-904.67545413 287.32529573 -912.84957227 292.72558009 -920.74145508 298.58544922 C-924.41762881 301.29479443 -928.21344151 303.82358279 -932 306.375 C-949.1369584 318.02546953 -965.55855637 330.64686337 -982 343.25 C-983.24085789 344.19925474 -984.48174017 345.14847758 -985.72265625 346.09765625 C-997.29899065 354.96474504 -1008.75136739 363.97024002 -1020 373.25 C-1021.33441831 374.34531663 -1022.6690711 375.44034765 -1024.00390625 376.53515625 C-1032.20078062 383.26350503 -1040.35039442 390.0415198 -1048.42626953 396.91455078 C-1050.05997607 398.30089499 -1051.69917001 399.68050392 -1053.33984375 401.05859375 C-1059.230714 406.01117105 -1065.04008937 411.02795556 -1070.73828125 416.203125 C-1072.80673875 418.0750969 -1074.89560914 419.9186339 -1077 421.75 C-1080.90207014 425.14857722 -1084.74192981 428.61373993 -1088.58203125 432.08203125 C-1090.5990169 433.89047557 -1092.63491596 435.6698734 -1094.6875 437.4375 C-1099.20455679 441.37171076 -1103.56285862 445.47462388 -1107.93041992 449.57299805 C-1108.52443604 450.13027588 -1109.11845215 450.68755371 -1109.73046875 451.26171875 C-1110.38128418 451.87249268 -1111.03209961 452.4832666 -1111.70263672 453.11254883 C-1113.43049814 454.72013934 -1115.16819385 456.31716987 -1116.91064453 457.90893555 C-1124.99239247 465.29255436 -1132.78982148 472.91813268 -1140.5 480.6875 C-1141.6508004 481.84333922 -1142.80184147 482.99893887 -1143.953125 484.15429688 C-1146.05421377 486.26342803 -1148.15393176 488.37390173 -1150.25195312 490.48608398 C-1155.18394377 495.44655538 -1160.13987563 500.38286906 -1165.09542847 505.31977844 C-1168.48461431 508.69734048 -1171.87193377 512.07676879 -1175.25863457 515.4568224 C-1177.82034746 518.01332207 -1180.38298764 520.56887774 -1182.94775391 523.12231445 C-1185.44558951 525.60919437 -1187.94089264 528.0985907 -1190.43454361 530.58966637 C-1191.83020838 531.98262386 -1193.22840975 533.37303836 -1194.62667847 534.76338196 C-1199.12218849 539.2584991 -1203.48245762 543.80434159 -1207.61135864 548.63993835 C-1209.31313654 550.61306648 -1211.12605175 552.44067065 -1213 554.25 C-1216.17089998 557.37845964 -1219.1256996 560.61855352 -1222.02734375 563.99609375 C-1223.964626 566.20958258 -1225.95098784 568.37190571 -1227.95166016 570.52807617 C-1231.92493953 574.81144854 -1235.77644697 579.12945576 -1239.4375 583.6875 C-1242.80348706 587.87240341 -1246.33201537 591.8328801 -1250 595.75 C-1254.42091746 600.47635762 -1258.60066191 605.32364988 -1262.65625 610.37109375 C-1265.37940439 613.71603506 -1268.18269037 616.98439177 -1271 620.25 C-1276.09900875 626.1721242 -1281.07906182 632.17871264 -1286 638.25 C-1287.03080794 639.51077822 -1288.06208999 640.77116891 -1289.09375 642.03125 C-1294.95808684 649.20415786 -1300.73569672 656.42328081 -1306.3515625 663.79296875 C-1308.3049682 666.35371696 -1310.28351425 668.89330824 -1312.2734375 671.42578125 C-1319.88774976 681.12387626 -1327.23320761 690.97286082 -1334.39550781 701.00878906 C-1335.99199635 703.23882022 -1337.59928118 705.4605984 -1339.2109375 707.6796875 C-1350.71029276 723.51460814 -1361.8945416 739.56243352 -1372.9140625 755.734375 C-1374.87400267 758.60895391 -1376.84638145 761.47396832 -1378.8359375 764.328125 C-1385.87669127 774.44129881 -1392.49255608 784.78697012 -1399 795.25 C-1399.50225098 796.05501953 -1400.00450195 796.86003906 -1400.52197266 797.68945312 C-1403.75818779 802.87814682 -1406.9752421 808.0783246 -1410.17822266 813.28759766 C-1411.44703288 815.35081706 -1412.71768076 817.41290701 -1413.98974609 819.47412109 C-1424.47489176 836.48270244 -1434.45215086 853.69222808 -1444 871.25 C-1444.56702637 872.29172363 -1445.13405273 873.33344727 -1445.71826172 874.40673828 C-1448.44907696 879.42893633 -1451.17024776 884.45620453 -1453.8828125 889.48828125 C-1455.92170689 893.26690515 -1457.97853423 897.03469129 -1460.0546875 900.79296875 C-1471.23010633 921.04073001 -1481.32510304 941.72626923 -1490.98828125 962.734375 C-1493.06222655 967.23986463 -1495.17883782 971.71983221 -1497.34423828 976.18188477 C-1516.60627163 1015.99708254 -1533.52592718 1057.8135059 -1547.73828125 1099.6484375 C-1550.15604855 1106.75524045 -1552.70366104 1113.81347411 -1555.25 1120.875 C-1558.74605209 1130.60753874 -1562.00991143 1140.35177576 -1565 1150.25 C-1565.70110329 1152.48124841 -1566.40987332 1154.70996632 -1567.11962891 1156.93847656 C-1568.42427782 1161.03880172 -1569.71175415 1165.14449806 -1571 1169.25 C-1571.27070312 1170.10916016 -1571.54140625 1170.96832031 -1571.8203125 1171.85351562 C-1576.84774613 1187.86377741 -1581.25006083 1204.01700461 -1585.47991943 1220.2543335 C-1586.0085027 1222.28262679 -1586.53854753 1224.31053387 -1587.06884766 1226.33837891 C-1588.13347564 1230.41198767 -1589.19259529 1234.48701113 -1590.25 1238.5625 C-1590.72554321 1240.39167969 -1590.72554321 1240.39167969 -1591.21069336 1242.2578125 C-1596.76194458 1263.78075237 -1601.4087026 1285.50602019 -1606 1307.25 C-1606.25743988 1308.46768066 -1606.25743988 1308.46768066 -1606.52008057 1309.70996094 C-1611.69700098 1334.24911738 -1616.06384092 1358.85406793 -1619.83235168 1383.64822388 C-1620.61639519 1388.79878158 -1621.43751713 1393.94025683 -1622.30078125 1399.078125 C-1629.08432717 1440.18035799 -1633.04219612 1482.19378891 -1635.83135986 1523.74914551 C-1636.01927336 1526.53581486 -1636.21256944 1529.32209023 -1636.40576172 1532.10839844 C-1636.77800479 1537.51556493 -1637.13383398 1542.92364468 -1637.4798584 1548.33255005 C-1637.61399231 1550.4190579 -1637.75076838 1552.50539833 -1637.89074707 1554.59152222 C-1639.08228841 1572.541199 -1639 1590.19035028 -1639 1608.25 C-1214.29 1608.25 -789.58 1608.25 -352 1608.25 C-350.68 1597.69 -349.36 1587.13 -348 1576.25 C-347.07269665 1570.70472595 -346.13508153 1565.24374832 -345 1559.75 C-344.7429126 1558.46577148 -344.4858252 1557.18154297 -344.22094727 1555.85839844 C-342.40542102 1546.90870125 -340.37035167 1538.06770822 -338 1529.25 C-337.65088004 1527.83140698 -337.30467761 1526.41209371 -336.9609375 1524.9921875 C-325.71604767 1479.29142452 -305.23430178 1435.19723299 -279 1396.25 C-278.47905762 1395.47140625 -277.95811523 1394.6928125 -277.42138672 1393.890625 C-270.61307012 1383.73173501 -263.60671398 1373.82736526 -256 1364.25 C-255.32582031 1363.38246094 -254.65164063 1362.51492188 -253.95703125 1361.62109375 C-249.65302275 1356.13154998 -245.07943024 1350.95163527 -240.35546875 1345.8203125 C-238.44963986 1343.74065179 -236.58806941 1341.63901277 -234.75 1339.5 C-223.00500091 1326.02213219 -210.63543826 1312.51176474 -196.9765625 1300.9453125 C-194.49139806 1298.8137683 -192.09559854 1296.59316401 -189.6875 1294.375 C-184.27920528 1289.46037796 -178.75655235 1284.7513154 -173 1280.25 C-172.0097583 1279.4755957 -172.0097583 1279.4755957 -170.99951172 1278.68554688 C-141.38647802 1255.69205247 -109.42337165 1235.25811359 -75 1220.25 C-74.2776416 1219.92999023 -73.5552832 1219.60998047 -72.81103516 1219.28027344 C-37.55482648 1203.67892024 -1.91595529 1192.93370217 36 1186.25 C41.28 1185.26 46.56 1184.27 52 1183.25 C52 799.79 52 416.33 52 21.25 C-46.6750911 20.50840788 -46.6750911 20.50840788 -145 25.25 Z " fill="#010000" transform="translate(2667,397.75)"/>
<path d="M0 0 C4.2086202 8.4172404 -0.34667526 21.12121966 -2.125 29.9375 C-2.39852092 31.31840902 -2.67145989 32.69943342 -2.94384766 34.08056641 C-3.74614558 38.1386868 -4.5598784 42.194436 -5.375 46.25 C-5.78404471 48.29553482 -6.19291712 50.34110411 -6.6015625 52.38671875 C-7.17886812 55.27300191 -7.75685955 58.15914076 -8.33666992 61.04492188 C-12.67334313 82.65831403 -16.99929325 104.28328983 -20.86962891 125.9855957 C-22.43659321 134.714249 -24.12395443 143.41922266 -25.8125 152.125 C-26.02206833 153.20994247 -26.02206833 153.20994247 -26.23587036 154.31680298 C-27.8113543 162.46594179 -29.44105905 170.60102504 -31.15235901 178.72280884 C-34.09598732 192.69558519 -36.76654896 206.71123497 -39.375 220.75 C-41.94864349 234.60142971 -44.58736373 248.42734367 -47.5 262.21180725 C-49.97750032 274.00164817 -52.16953763 285.84433937 -54.375 297.6875 C-57.42449691 314.03685358 -60.56200399 330.36333891 -63.85507202 346.66549683 C-64.78735205 351.29975538 -65.69489135 355.93879472 -66.6015625 360.578125 C-67.90161112 365.06920204 -69.47418295 367.6494553 -73.375 370.25 C-77.35851523 370.68540748 -79.60522968 370.71052733 -83.078125 368.6328125 C-83.91859375 367.88773438 -84.7590625 367.14265625 -85.625 366.375 C-86.56859375 365.55257813 -87.5121875 364.73015625 -88.484375 363.8828125 C-89.91523438 362.57957031 -89.91523438 362.57957031 -91.375 361.25 C-92.74398437 360.00863281 -92.74398437 360.00863281 -94.140625 358.7421875 C-95.97559406 357.06974427 -97.80627937 355.39258982 -99.6328125 353.7109375 C-102.27515883 351.33960105 -104.98194167 349.09747003 -107.75 346.875 C-112.5464071 343.00781137 -117.0454146 338.90019284 -121.53857422 334.69189453 C-124.88581785 331.57460664 -128.30495906 328.61433518 -131.875 325.75 C-136.0416621 322.40698041 -139.97919812 318.89884863 -143.875 315.25 C-148.63588994 310.79125556 -153.5396782 306.6120217 -158.62890625 302.52734375 C-162.17178299 299.58922549 -165.52941772 296.46768822 -168.89697266 293.33349609 C-172.10816873 290.36269934 -175.40136841 287.55031679 -178.8125 284.8125 C-183.59121628 280.96889943 -188.06657687 276.88039836 -192.53881836 272.69165039 C-195.88599327 269.57446055 -199.30505023 266.61426202 -202.875 263.75 C-207.0416621 260.40698041 -210.97919812 256.89884863 -214.875 253.25 C-219.63588994 248.79125556 -224.5396782 244.6120217 -229.62890625 240.52734375 C-233.17178299 237.58922549 -236.52941772 234.46768822 -239.89697266 231.33349609 C-243.10816873 228.36269934 -246.40136841 225.55031679 -249.8125 222.8125 C-254.59121628 218.96889943 -259.06657687 214.88039836 -263.53881836 210.69165039 C-266.88599327 207.57446055 -270.30505023 204.61426202 -273.875 201.75 C-278.63608478 197.93005989 -283.08773025 193.86061181 -287.5390625 189.69140625 C-290.88616869 186.57431446 -294.30514141 183.61418887 -297.875 180.75 C-302.0416621 177.40698041 -305.97919812 173.89884863 -309.875 170.25 C-314.63588994 165.79125556 -319.5396782 161.6120217 -324.62890625 157.52734375 C-328.17178299 154.58922549 -331.52941772 151.46768822 -334.89697266 148.33349609 C-338.10816873 145.36269934 -341.40136841 142.55031679 -344.8125 139.8125 C-349.5866875 135.972542 -354.05941506 131.88942868 -358.52563477 127.70263672 C-362.83191945 123.68959776 -367.33434889 119.97786273 -371.921875 116.2890625 C-382.02629936 107.890162 -382.02629936 107.890162 -382.8125 101.9375 C-382.375 98.25 -382.375 98.25 -380.234375 95.9140625 C-374.90853638 91.77993221 -368.36222216 89.5205098 -362.1875 86.9375 C-360.82743472 86.36007064 -359.46773642 85.78177615 -358.10839844 85.20263672 C-355.42252273 84.06037189 -352.73427667 82.9240255 -350.04345703 81.79345703 C-346.96056221 80.49636792 -343.88291288 79.18832881 -340.80859375 77.87109375 C-333.22992006 74.63305864 -325.61045187 71.50801719 -317.9375 68.5 C-316.90931152 68.09515381 -316.90931152 68.09515381 -315.86035156 67.68212891 C-311.95809116 66.17100514 -308.03029658 64.79051285 -304.0546875 63.484375 C-298.71293989 61.72275725 -293.41820043 59.84928755 -288.12890625 57.9375 C-287.30421341 57.63962585 -286.47952057 57.34175171 -285.62983704 57.03485107 C-282.20542611 55.79670787 -278.78172225 54.55664109 -275.35913086 53.31347656 C-265.42891128 49.70936373 -255.5067235 46.25440839 -245.375 43.25 C-243.54346055 42.6822951 -241.71270681 42.11204805 -239.8828125 41.5390625 C-227.29292493 37.63476458 -214.64007778 34.13919139 -201.86669922 30.88916016 C-198.54885185 30.03807997 -195.2436027 29.14563317 -191.9375 28.25 C-173.50778988 23.33613459 -155.01016113 18.95653741 -136.3125 15.1875 C-135.25227631 14.97244812 -134.19205261 14.75739624 -133.09970093 14.53582764 C-115.58113581 10.98947168 -98.06975456 7.78972925 -80.375 5.25 C-79.17069336 5.07275391 -77.96638672 4.89550781 -76.72558594 4.71289062 C-61.95652396 2.55460512 -47.17516684 0.84049912 -32.3125 -0.5 C-31.60515717 -0.5651178 -30.89781433 -0.6302356 -30.16903687 -0.69732666 C-5.64538764 -2.92723803 -5.64538764 -2.92723803 0 0 Z " fill="#F35C27" transform="translate(2487.375,538.75)"/>
<path d="M0 0 C4.63684341 3.68569604 6.02695945 7.22574531 7.0625 12.875 C7.30154053 14.05412964 7.30154053 14.05412964 7.54541016 15.25708008 C8.95053314 22.33026784 10.15764512 29.44408389 11.35961914 36.55419922 C12.77617015 44.89542936 14.37246713 53.19796896 16 61.5 C17.70519417 70.21578642 19.38195584 78.93241562 20.875 87.6875 C22.8225622 99.09662326 24.87171521 110.4867842 26.9375 121.875 C27.11291321 122.84217957 27.28832642 123.80935913 27.46905518 124.80584717 C29.64988654 136.80959548 31.90405596 148.79022304 34.34960938 160.74316406 C35.84941138 168.11253018 37.15437398 175.50496013 38.41113281 182.91918945 C39.81771887 191.13709161 41.39762672 199.31855066 43 207.5 C44.70477582 216.21587427 46.38195392 224.93240437 47.875 233.6875 C49.8225622 245.09662326 51.87171521 256.4867842 53.9375 267.875 C54.11291321 268.84217957 54.28832642 269.80935913 54.46905518 270.80584717 C56.64935087 282.80664709 58.90402887 294.78406415 61.34741211 306.734375 C62.86365423 314.18864142 64.20577028 321.6644388 65.47045898 329.1652832 C66.37787943 334.52327472 67.35040084 339.86210675 68.39453125 345.1953125 C68.62978516 346.41041504 68.86503906 347.62551758 69.10742188 348.87744141 C69.56693016 351.23830844 70.03525395 353.59748202 70.51367188 355.95458984 C72.98981916 368.76654387 72.98981916 368.76654387 69.5 374.4375 C65.75500897 376.77811939 62.25040323 376.50560598 58 376 C53.37749384 374.79558566 48.92406258 373.19527556 44.4375 371.5625 C43.14424365 371.10314217 41.85061737 370.64482461 40.55664062 370.1875 C31.69533895 367.04005214 22.88972738 363.74169781 14.10131836 360.39672852 C6.28737402 357.43710722 -1.59194408 354.69688309 -9.5 352 C-18.45087813 348.94737479 -27.34784924 345.79897463 -36.1875 342.4375 C-44.16501109 339.40535966 -52.17601956 336.5151045 -60.25 333.75 C-70.3063171 330.30261546 -80.31830303 326.74738174 -90.3125 323.125 C-93.40357662 322.00501717 -96.49470948 320.88518988 -99.5859375 319.765625 C-100.4015062 319.47023834 -101.21707489 319.17485168 -102.05735779 318.87051392 C-113.17504745 314.84690575 -124.30685317 310.86258849 -135.4375 306.875 C-136.55465393 306.47472595 -137.67180786 306.0744519 -138.82281494 305.66204834 C-143.40741548 304.0193953 -147.99204283 302.37681718 -152.57675171 300.73446655 C-160.61947892 297.8533031 -168.66150461 294.97018864 -176.703125 292.0859375 C-197.38099377 284.66986697 -218.06082651 277.25948129 -238.75 269.875 C-267.6032915 259.57489895 -267.6032915 259.57489895 -279.82421875 255.14501953 C-282.85116293 254.05366281 -285.88182599 252.97339535 -288.91363525 251.8956604 C-291.68300544 250.90900695 -294.44934901 249.91404537 -297.21520996 248.91760254 C-298.55455726 248.43703165 -299.89511068 247.95980688 -301.23693848 247.48620605 C-303.10389397 246.82669079 -304.96611297 246.15381444 -306.828125 245.48046875 C-307.8996582 245.09785889 -308.97119141 244.71524902 -310.07519531 244.32104492 C-313.80285194 242.6373763 -317.12844663 240.74310673 -319 237 C-319.375 233.6875 -319.375 233.6875 -319 230 C-317.38073462 228.01509405 -315.92193799 226.64482135 -314 225 C-312.55479601 223.54930093 -311.11802578 222.09017519 -309.6875 220.625 C-306.32656792 217.26406792 -302.87967208 214.08528198 -299.2734375 210.9921875 C-296.41895314 208.49083522 -293.65076188 205.90024236 -290.875 203.3125 C-284.08560094 197.0060786 -277.07488386 190.98227641 -270 185 C-268.89443673 184.06261146 -267.78896636 183.12511336 -266.68359375 182.1875 C-264.5255187 180.35820052 -262.3651507 178.53165932 -260.203125 176.70703125 C-258.08394901 174.91809137 -255.96960777 173.12369807 -253.859375 171.32421875 C-241.44913727 160.75345829 -228.7727814 150.51560665 -215.91601562 140.49365234 C-213.79151261 138.83747122 -211.6692817 137.1783978 -209.546875 135.51953125 C-201.6746262 129.37388492 -193.77484928 123.27493547 -185.76025391 117.31542969 C-183.64020633 115.73112784 -181.52912756 114.13518947 -179.41796875 112.5390625 C-170.88002783 106.09246914 -162.31259341 99.71115562 -153.53556824 93.59274292 C-150.00547143 91.12705141 -146.49261281 88.64319796 -143.02026367 86.09667969 C-131.244523 77.46163725 -119.15399757 69.37018352 -106.9375 61.375 C-105.04338306 60.13056858 -103.14950215 58.88577784 -101.25585938 57.640625 C-69.75877325 36.94553414 -69.75877325 36.94553414 -56.9375 29.1875 C-55.98633301 28.60983887 -55.03516602 28.03217773 -54.05517578 27.43701172 C-45.86422865 22.48176303 -37.60682913 17.64257649 -29.31420898 12.85961914 C-24.50008749 10.07707207 -19.76200609 7.23892044 -15.11767578 4.18188477 C-9.84942648 0.73995129 -6.30156419 -1.46286312 0 0 Z " fill="#F35C27" transform="translate(1971,705)"/>
<path d="M0 0 C1.13888672 -0.09087891 1.13888672 -0.09087891 2.30078125 -0.18359375 C6.76388455 0.97783575 8.78758699 4.9697376 11.07495117 8.70043945 C12.62827457 11.38539902 14.13153129 14.09380361 15.625 16.8125 C16.77715141 18.88104142 17.93084756 20.94872304 19.0859375 23.015625 C19.97490723 24.60793945 19.97490723 24.60793945 20.88183594 26.23242188 C23.77985921 31.37645236 26.76312694 36.46970549 29.75 41.5625 C34.10467539 48.99737008 38.42556503 56.44906762 42.6875 63.9375 C46.97297027 71.46589339 51.31372854 78.96006976 55.6875 86.4375 C60.55838859 94.76480517 65.37583344 103.11994672 70.1484375 111.50390625 C73.95134049 118.17407737 77.81085296 124.80995714 81.6875 131.4375 C86.55838859 139.76480517 91.37583344 148.11994672 96.1484375 156.50390625 C99.95134049 163.17407737 103.81085296 169.80995714 107.6875 176.4375 C112.55838859 184.76480517 117.37583344 193.11994672 122.1484375 201.50390625 C125.95134049 208.17407737 129.81085296 214.80995714 133.6875 221.4375 C138.55838859 229.76480517 143.37583344 238.11994672 148.1484375 246.50390625 C152.53343192 254.19504726 156.99737763 261.83898446 161.46777344 269.48071289 C165.83120974 276.94788146 170.14937058 284.43958369 174.40332031 291.96972656 C176.74448956 296.10129508 179.13014169 300.18542016 181.65625 304.20703125 C182.12514648 304.96443604 182.59404297 305.72184082 183.07714844 306.50219727 C183.94893719 307.90266049 184.83634198 309.29359364 185.74316406 310.67163086 C188.32798367 314.85242131 189.47873058 318.41588564 189.20141602 323.37548828 C188.4853608 326.24855352 186.98787821 327.96190399 184.55615234 329.61425781 C181.04677032 331.16032995 177.76826995 330.95062037 174 330.8125 C173.17821259 330.78619759 172.35642517 330.75989517 171.50973511 330.73279572 C165.48847809 330.53653851 159.46843767 330.31740514 153.44845581 330.08551788 C139.8162017 329.56343062 126.18351932 329.15111971 112.54571533 328.80674744 C108.93196757 328.71545232 105.31827557 328.62215916 101.70458984 328.52844238 C94.03226894 328.32979586 86.35989003 328.13345614 78.6875 327.9375 C69.7738251 327.70984091 60.860179 327.48114829 51.94659424 327.24998474 C48.44277908 327.15961031 44.93892209 327.07102105 41.43505859 326.98254395 C29.21868239 326.66903333 17.00835365 326.27560017 4.79693604 325.80754089 C-6.28474784 325.3884978 -17.36832523 325.08668232 -28.45428467 324.80674744 C-32.06803243 324.71545232 -35.68172443 324.62215916 -39.29541016 324.52844238 C-46.96773106 324.32979586 -54.64010997 324.13345614 -62.3125 323.9375 C-71.2261749 323.70984091 -80.139821 323.48114829 -89.05340576 323.24998474 C-92.55722092 323.15961031 -96.06107791 323.07102105 -99.56494141 322.98254395 C-110.79465024 322.69426291 -122.01968667 322.35061244 -133.24487305 321.91943359 C-143.36739359 321.53076329 -153.48616461 321.23888557 -163.61429787 321.05307388 C-167.90124721 320.9724026 -172.18789725 320.87744643 -176.47460938 320.78515625 C-181.8464761 320.67011773 -187.21833316 320.55943587 -192.59057617 320.46337891 C-197.01810599 320.38383559 -201.44515019 320.29038193 -205.8721981 320.18755722 C-207.53899596 320.15138104 -209.20591243 320.12027506 -210.87290382 320.09451675 C-213.18505817 320.05817099 -215.49616898 320.00403118 -217.80786133 319.94580078 C-219.11652664 319.91994904 -220.42519196 319.89409729 -221.77351379 319.86746216 C-226.3906869 319.30650781 -229.78028533 317.86756702 -233.1875 314.6875 C-234.80245174 311.45759653 -234.57613074 309.01911188 -234.3125 305.4375 C-232.984375 302.61328125 -232.984375 302.61328125 -231.0625 299.75 C-230.31576934 298.60542935 -229.57110953 297.45950595 -228.828125 296.3125 C-228.42142578 295.69246094 -228.01472656 295.07242187 -227.59570312 294.43359375 C-225.23723348 290.76486319 -223.03944448 286.99942834 -220.8125 283.25 C-218.65015966 279.64322871 -216.48091828 276.04061941 -214.3125 272.4375 C-213.73000488 271.46651367 -213.14750977 270.49552734 -212.54736328 269.49511719 C-202.64993527 253.03736561 -192.14836019 237.08754348 -181.29071045 221.2537384 C-178.25280373 216.82162546 -175.23985623 212.37347445 -172.2421875 207.9140625 C-163.7508385 195.29237979 -155.11074286 182.82508965 -145.97314453 170.65869141 C-143.68569794 167.5991223 -141.43145034 164.51566733 -139.17480469 161.43334961 C-131.6495986 151.16391786 -123.95295336 141.02979287 -116.21142578 130.92285156 C-114.43449619 128.59717103 -112.66654046 126.26503447 -110.90234375 123.9296875 C-103.78199266 114.52153152 -96.40377476 105.36326769 -88.85498047 96.29589844 C-86.76137825 93.7735021 -84.69293884 91.23095419 -82.625 88.6875 C-78.93726619 84.17190758 -75.17888643 79.72006241 -71.40209961 75.27905273 C-68.45232186 71.80450276 -65.55560035 68.29265356 -62.6875 64.75 C-59.11490326 60.35735881 -55.37899996 56.15357895 -51.5625 51.97265625 C-49.22360579 49.33733969 -47.01534117 46.62472708 -44.8125 43.875 C-41.25183311 39.47069079 -37.46021941 35.48014982 -33.41015625 31.52734375 C-30.95729698 29.0836199 -28.7198558 26.50696609 -26.46875 23.87890625 C-22.83661481 19.76643434 -19.0544912 15.79196586 -15.28637695 11.80419922 C-12.75308443 9.11093506 -10.31444889 6.43995183 -8.01171875 3.54296875 C-5.56605824 0.5125986 -3.76406212 0.20876311 0 0 Z " fill="#F35C27" transform="translate(1559.3125,1030.5625)"/>
<path d="M0 0 C0 55.77 0 111.54 0 169 C-7.59 169.33 -15.18 169.66 -23 170 C-66.96854437 173.63649615 -111.18662928 191.51197666 -145 220 C-146.00804688 220.82371094 -147.01609375 221.64742187 -148.0546875 222.49609375 C-163.26097297 235.06578748 -177.40471086 249.01134817 -189 265 C-189.85491814 266.14884745 -190.71039429 267.29727984 -191.56640625 268.4453125 C-222.80564049 310.77441552 -233.77116406 358.33862501 -237 410 C-286.83 410 -336.66 410 -388 410 C-386.03304426 390.33044257 -383.93412649 371.29036149 -380 352 C-379.77973145 350.91799316 -379.55946289 349.83598633 -379.33251953 348.72119141 C-370.04819844 304.07958652 -353.29775033 261.16822728 -330 222 C-329.19127441 220.63633301 -329.19127441 220.63633301 -328.36621094 219.24511719 C-312.47739555 192.61725882 -293.51257919 168.22125115 -272.41796875 145.53125 C-270.95828442 143.95495177 -269.50934125 142.3693396 -268.0625 140.78125 C-259.51385784 131.41612528 -250.84388649 122.11016749 -241.16796875 113.890625 C-238.90164792 111.9142299 -236.71422197 109.86324383 -234.52612305 107.80102539 C-227.923219 101.59841569 -221.05219559 95.91435419 -213.85107422 90.42285156 C-211.98062022 88.98510348 -210.13174709 87.52292192 -208.28515625 86.0546875 C-189.1319997 70.94614793 -168.49501768 57.5204246 -147 46 C-146.1951416 45.56204102 -145.3902832 45.12408203 -144.56103516 44.67285156 C-106.24846476 23.99185904 -63.72821558 9.92512477 -21 2.125 C-19.824375 1.9094043 -18.64875 1.69380859 -17.4375 1.47167969 C-16.32375 1.27735352 -15.21 1.08302734 -14.0625 0.8828125 C-12.59490234 0.62588623 -12.59490234 0.62588623 -11.09765625 0.36376953 C-7.42171084 -0.06791069 -3.70120555 0 0 0 Z " fill="#F35C27" transform="translate(2721,1600)"/>
<path d="M0 0 C8.03286629 1.47269215 13.14421807 9.06358165 18.32421875 14.94140625 C20.96910118 17.93553241 23.66669718 20.87592528 26.375 23.8125 C29.93310616 27.68064104 33.43290824 31.59085566 36.875 35.5625 C39.29550075 38.30573418 41.77200642 40.99634568 44.25 43.6875 C47.85012756 47.59731595 51.39417605 51.54616468 54.875 55.5625 C57.29550075 58.30573418 59.77200642 60.99634568 62.25 63.6875 C65.28888018 66.98778923 68.31156045 70.29699283 71.25 73.6875 C74.61322638 77.56567013 78.08335671 81.34277811 81.55810547 85.12060547 C85.99223628 89.94334891 90.3751824 94.8109112 94.75 99.6875 C96.24971128 101.35442647 97.74971321 103.02109149 99.25 104.6875 C108.25 114.6875 117.25 124.6875 126.25 134.6875 C126.99507812 135.51507812 127.74015625 136.34265625 128.5078125 137.1953125 C129.98292618 138.83489879 131.45691652 140.47549655 132.9296875 142.1171875 C137.05097768 146.7078061 141.19873788 151.27197107 145.375 155.8125 C148.93253099 159.68117822 152.43289575 163.59084125 155.875 167.5625 C158.29550075 170.30573418 160.77200642 172.99634568 163.25 175.6875 C166.85012756 179.59731595 170.39417605 183.54616468 173.875 187.5625 C176.29550075 190.30573418 178.77200642 192.99634568 181.25 195.6875 C184.28888018 198.98778923 187.31156045 202.29699283 190.25 205.6875 C193.61322638 209.56567013 197.08335671 213.34277811 200.55810547 217.12060547 C204.99223628 221.94334891 209.3751824 226.8109112 213.75 231.6875 C215.24971128 233.35442647 216.74971321 235.02109149 218.25 236.6875 C227.25 246.6875 227.25 246.6875 229.484375 249.17578125 C231.02904116 250.88823011 232.58147376 252.59369771 234.140625 254.29296875 C245.37127335 266.58346305 245.37127335 266.58346305 246.3125 271.8125 C245.5883235 275.51384658 244.39978737 277.00475 241.75 279.6875 C239.21213497 280.63276662 237.04146765 281.27533976 234.42362213 281.80858994 C233.71510445 281.96865134 233.00658676 282.12871275 232.27659884 282.29362451 C230.10488028 282.77846584 227.92876037 283.23548966 225.75 283.6875 C223.91841984 284.08362071 223.91841984 284.08362071 222.04983807 284.48774385 C218.36234471 285.2695154 214.66898025 286.01427807 210.9720459 286.75006104 C209.56144243 287.03368154 208.15090519 287.31763164 206.74042749 287.60187697 C202.91616629 288.3715621 199.09098147 289.13656111 195.26560593 289.90068579 C191.12063333 290.72951554 186.97654852 291.56276345 182.83233643 292.39538574 C174.73649978 294.02116269 166.63982571 295.64273006 158.5428018 297.26258257 C151.96217824 298.5790887 145.38180009 299.89681451 138.80158997 301.21538544 C120.1225879 304.95821803 101.44294935 308.69785061 82.76247805 312.43334344 C81.7580478 312.63419753 80.75361754 312.83505161 79.71875 313.04199219 C78.71308749 313.24309199 77.70742497 313.44419178 76.67128783 313.65138552 C60.3420023 316.91691685 44.0142688 320.19013769 27.68721551 323.46680978 C10.9003677 326.83566626 -5.88761911 330.19879321 -22.67681265 333.55594039 C-32.0941378 335.43913991 -41.51097543 337.32470271 -50.92658997 339.21643829 C-58.93387336 340.82517312 -66.94219896 342.42858876 -74.95192915 344.02509859 C-79.03676059 344.83945101 -83.12105657 345.65627304 -87.20404816 346.47980499 C-90.94284876 347.23384911 -94.68300325 347.98075107 -98.4243533 348.72203872 C-100.4149596 349.11834883 -102.40405599 349.52221998 -104.39308405 349.92637658 C-120.11464055 353.02209966 -120.11464055 353.02209966 -125.25 349.8125 C-128.47924038 344.7668119 -127.76395246 339.58874533 -126.7399292 333.8081665 C-126.02066838 330.64771937 -125.22576222 327.51669731 -124.3984375 324.3828125 C-124.10192291 323.22361298 -123.80540833 322.06441345 -123.49990845 320.87008667 C-122.8715994 318.42301096 -122.2375691 315.97739788 -121.59814453 313.53320312 C-120.63772131 309.86113844 -119.69420009 306.18507712 -118.75390625 302.5078125 C-115.60717394 290.27520658 -112.30116842 278.11439033 -108.57788086 266.04418945 C-107.11667854 261.30209256 -105.77540883 256.52807767 -104.4375 251.75 C-95.39837876 219.91238467 -84.67464473 188.64055888 -73.30322266 157.56884766 C-72.6248687 155.71304483 -71.94980324 153.85603496 -71.27880859 151.99755859 C-55.25930721 107.65918417 -36.32848253 64.17868992 -15.8125 21.75 C-15.40718048 20.90649994 -15.00186096 20.06299988 -14.58425903 19.19393921 C-13.44203629 16.82370652 -12.28787873 14.45973575 -11.12890625 12.09765625 C-10.79431396 11.40187469 -10.45972168 10.70609314 -10.11499023 9.98922729 C-7.62711121 4.97904605 -5.67446385 1.20036735 0 0 Z " fill="#F35C27" transform="translate(1277.25,1456.3125)"/>
<path d="M0 0 C1.13888672 -0.09087891 1.13888672 -0.09087891 2.30078125 -0.18359375 C6.76388455 0.97783575 8.78758699 4.9697376 11.07495117 8.70043945 C12.62827457 11.38539902 14.13153129 14.09380361 15.625 16.8125 C16.77715141 18.88104142 17.93084756 20.94872304 19.0859375 23.015625 C19.97490723 24.60793945 19.97490723 24.60793945 20.88183594 26.23242188 C23.77985921 31.37645236 26.76312694 36.46970549 29.75 41.5625 C34.10467539 48.99737008 38.42556503 56.44906762 42.6875 63.9375 C46.97297027 71.46589339 51.31372854 78.96006976 55.6875 86.4375 C60.55838859 94.76480517 65.37583344 103.11994672 70.1484375 111.50390625 C73.95134049 118.17407737 77.81085296 124.80995714 81.6875 131.4375 C86.55838859 139.76480517 91.37583344 148.11994672 96.1484375 156.50390625 C99.95134049 163.17407737 103.81085296 169.80995714 107.6875 176.4375 C112.55838859 184.76480517 117.37583344 193.11994672 122.1484375 201.50390625 C125.95134049 208.17407737 129.81085296 214.80995714 133.6875 221.4375 C138.55838859 229.76480517 143.37583344 238.11994672 148.1484375 246.50390625 C152.53343192 254.19504726 156.99737763 261.83898446 161.46777344 269.48071289 C165.83120974 276.94788146 170.14937058 284.43958369 174.40332031 291.96972656 C176.74448956 296.10129508 179.13014169 300.18542016 181.65625 304.20703125 C182.12514648 304.96443604 182.59404297 305.72184082 183.07714844 306.50219727 C183.94893719 307.90266049 184.83634198 309.29359364 185.74316406 310.67163086 C188.32798367 314.85242131 189.47873058 318.41588564 189.20141602 323.37548828 C188.4853608 326.24855352 186.98787821 327.96190399 184.55615234 329.61425781 C181.04677032 331.16032995 177.76826995 330.95062037 174 330.8125 C173.17821259 330.78619759 172.35642517 330.75989517 171.50973511 330.73279572 C165.48847809 330.53653851 159.46843767 330.31740514 153.44845581 330.08551788 C139.8162017 329.56343062 126.18351932 329.15111971 112.54571533 328.80674744 C108.93196757 328.71545232 105.31827557 328.62215916 101.70458984 328.52844238 C94.03226894 328.32979586 86.35989003 328.13345614 78.6875 327.9375 C69.7738251 327.70984091 60.860179 327.48114829 51.94659424 327.24998474 C48.44277908 327.15961031 44.93892209 327.07102105 41.43505859 326.98254395 C29.21868239 326.66903333 17.00835365 326.27560017 4.79693604 325.80754089 C-6.28474784 325.3884978 -17.36832523 325.08668232 -28.45428467 324.80674744 C-32.06803243 324.71545232 -35.68172443 324.62215916 -39.29541016 324.52844238 C-46.96773106 324.32979586 -54.64010997 324.13345614 -62.3125 323.9375 C-71.2261749 323.70984091 -80.139821 323.48114829 -89.05340576 323.24998474 C-92.55722092 323.15961031 -96.06107791 323.07102105 -99.56494141 322.98254395 C-110.79465024 322.69426291 -122.01968667 322.35061244 -133.24487305 321.91943359 C-143.36739359 321.53076329 -153.48616461 321.23888557 -163.61429787 321.05307388 C-167.90124721 320.9724026 -172.18789725 320.87744643 -176.47460938 320.78515625 C-181.8464761 320.67011773 -187.21833316 320.55943587 -192.59057617 320.46337891 C-197.01810599 320.38383559 -201.44515019 320.29038193 -205.8721981 320.18755722 C-207.53899596 320.15138104 -209.20591243 320.12027506 -210.87290382 320.09451675 C-213.18505817 320.05817099 -215.49616898 320.00403118 -217.80786133 319.94580078 C-219.11652664 319.91994904 -220.42519196 319.89409729 -221.77351379 319.86746216 C-226.3906869 319.30650781 -229.78028533 317.86756702 -233.1875 314.6875 C-234.80245174 311.45759653 -234.57613074 309.01911188 -234.3125 305.4375 C-232.984375 302.61328125 -232.984375 302.61328125 -231.0625 299.75 C-230.31576934 298.60542935 -229.57110953 297.45950595 -228.828125 296.3125 C-228.42142578 295.69246094 -228.01472656 295.07242187 -227.59570312 294.43359375 C-225.23723348 290.76486319 -223.03944448 286.99942834 -220.8125 283.25 C-218.65015966 279.64322871 -216.48091828 276.04061941 -214.3125 272.4375 C-213.73000488 271.46651367 -213.14750977 270.49552734 -212.54736328 269.49511719 C-202.64993527 253.03736561 -192.14836019 237.08754348 -181.29071045 221.2537384 C-178.25280373 216.82162546 -175.23985623 212.37347445 -172.2421875 207.9140625 C-163.7508385 195.29237979 -155.11074286 182.82508965 -145.97314453 170.65869141 C-143.68569794 167.5991223 -141.43145034 164.51566733 -139.17480469 161.43334961 C-131.6495986 151.16391786 -123.95295336 141.02979287 -116.21142578 130.92285156 C-114.43449619 128.59717103 -112.66654046 126.26503447 -110.90234375 123.9296875 C-103.78199266 114.52153152 -96.40377476 105.36326769 -88.85498047 96.29589844 C-86.76137825 93.7735021 -84.69293884 91.23095419 -82.625 88.6875 C-78.93726619 84.17190758 -75.17888643 79.72006241 -71.40209961 75.27905273 C-68.45232186 71.80450276 -65.55560035 68.29265356 -62.6875 64.75 C-59.11490326 60.35735881 -55.37899996 56.15357895 -51.5625 51.97265625 C-49.22360579 49.33733969 -47.01534117 46.62472708 -44.8125 43.875 C-41.25183311 39.47069079 -37.46021941 35.48014982 -33.41015625 31.52734375 C-30.95729698 29.0836199 -28.7198558 26.50696609 -26.46875 23.87890625 C-22.83661481 19.76643434 -19.0544912 15.79196586 -15.28637695 11.80419922 C-12.75308443 9.11093506 -10.31444889 6.43995183 -8.01171875 3.54296875 C-5.56605824 0.5125986 -3.76406212 0.20876311 0 0 Z M-2.3125 24.4375 C-4.47053453 26.66240321 -6.58712949 28.90903432 -8.6875 31.1875 C-9.32091309 31.87126709 -9.95432617 32.55503418 -10.60693359 33.25952148 C-11.90132979 34.6580102 -13.1944602 36.05767153 -14.48632812 37.45849609 C-16.07540495 39.18056251 -17.66929392 40.8979449 -19.265625 42.61328125 C-25.61763757 49.47605507 -31.73020733 56.51599215 -37.78320312 63.64208984 C-39.3233792 65.4502723 -40.87122312 67.25157758 -42.421875 69.05078125 C-46.92547444 74.27817345 -51.40453903 79.51454085 -55.75 84.875 C-59.30106494 89.25443271 -62.97451728 93.50859803 -66.6875 97.75 C-72.29996695 104.18162758 -77.63299747 110.78232874 -82.84521484 117.54052734 C-84.41597394 119.57127579 -85.99797916 121.59288682 -87.58203125 123.61328125 C-94.39767564 132.3182389 -101.09138766 141.10501563 -107.69946289 149.96850586 C-111.89246824 155.58074918 -116.17096412 161.11727809 -120.5 166.625 C-126.5924132 174.39478717 -132.31578784 182.38125306 -137.94824219 190.48828125 C-139.60469067 192.854975 -141.29616955 195.19481973 -142.99121094 197.53393555 C-149.48459865 206.50938758 -155.57494054 215.75122153 -161.6875 224.98828125 C-163.09656417 227.11203902 -164.51349689 229.22999539 -165.9375 231.34375 C-176.82997132 247.52211095 -187.16309078 264.06954789 -197.375 280.68359375 C-199.20148263 283.65281404 -201.05062308 286.60396552 -202.9375 289.53515625 C-203.32309082 290.14029053 -203.70868164 290.7454248 -204.10595703 291.36889648 C-205.10288127 292.92999432 -206.10958959 294.48483252 -207.1171875 296.0390625 C-208.68882479 298.48549942 -208.68882479 298.48549942 -207.3125 301.4375 C-206.22213943 301.46026505 -205.13177887 301.48303009 -204.00837708 301.50648499 C-182.86073526 301.95178964 -161.71605418 302.45159117 -140.57421875 303.12109375 C-139.62770887 303.15106131 -138.681199 303.18102886 -137.706007 303.21190453 C-132.82192177 303.36701073 -127.93788257 303.52351932 -123.05386353 303.68069458 C-90.24683086 304.73557089 -57.4393471 305.70420324 -24.625 306.5 C0.16139268 307.10110692 24.94119318 307.79702382 49.72094727 308.62915039 C67.89521937 309.23883608 86.06775404 309.73496711 104.24829102 310.11132812 C115.174408 310.33996763 126.08809586 310.68365827 137.0078125 311.13085938 C145.90435431 311.48188722 154.78546351 311.54222984 163.6875 311.4375 C162.263294 307.62787936 160.50841117 304.19346032 158.484375 300.66796875 C157.84105225 299.54438965 157.19772949 298.42081055 156.53491211 297.26318359 C155.83590128 296.05038279 155.13676061 294.83765681 154.4375 293.625 C153.7127852 292.36290022 152.98825976 291.10069169 152.26391602 289.83837891 C147.18375437 280.99473637 142.05624397 272.17882033 136.90698242 263.37524414 C130.75126359 252.85005252 124.66471107 242.28528019 118.57861328 231.71972656 C115.45069852 226.29090058 112.31891552 220.86430719 109.1875 215.4375 C107.93748121 213.27084417 106.68748122 211.1041775 105.4375 208.9375 C104.81875 207.865 104.2 206.7925 103.5625 205.6875 C82.9375 169.9375 82.9375 169.9375 81.06225586 166.68701172 C79.81314482 164.52192929 78.56395871 162.35689018 77.31469727 160.19189453 C74.17547691 154.75134294 71.03759437 149.31002784 67.90234375 143.8671875 C61.85694841 133.37517906 55.79639781 122.89268324 49.6875 112.4375 C41.66482489 98.70694812 33.72891741 84.92672034 25.79199219 71.14648438 C22.05783383 64.66418575 18.32023362 58.18389772 14.57666016 51.70703125 C13.27843467 49.46021868 11.98113627 47.2128938 10.68505859 44.96484375 C8.73204674 41.57811425 6.77254586 38.19516386 4.8125 34.8125 C4.21107178 33.76819824 3.60964355 32.72389648 2.98999023 31.64794922 C2.16349976 30.22506592 2.16349976 30.22506592 1.3203125 28.7734375 C0.83449707 27.93345215 0.34868164 27.0934668 -0.15185547 26.22802734 C-0.53486816 25.63715332 -0.91788086 25.0462793 -1.3125 24.4375 C-1.6425 24.4375 -1.9725 24.4375 -2.3125 24.4375 Z " fill="#030100" transform="translate(1559.3125,1030.5625)"/>
<path d="M0 0 C4.63684341 3.68569604 6.02695945 7.22574531 7.0625 12.875 C7.30154053 14.05412964 7.30154053 14.05412964 7.54541016 15.25708008 C8.95053314 22.33026784 10.15764512 29.44408389 11.35961914 36.55419922 C12.77617015 44.89542936 14.37246713 53.19796896 16 61.5 C17.70519417 70.21578642 19.38195584 78.93241562 20.875 87.6875 C22.8225622 99.09662326 24.87171521 110.4867842 26.9375 121.875 C27.11291321 122.84217957 27.28832642 123.80935913 27.46905518 124.80584717 C29.64988654 136.80959548 31.90405596 148.79022304 34.34960938 160.74316406 C35.84941138 168.11253018 37.15437398 175.50496013 38.41113281 182.91918945 C39.81771887 191.13709161 41.39762672 199.31855066 43 207.5 C44.70477582 216.21587427 46.38195392 224.93240437 47.875 233.6875 C49.8225622 245.09662326 51.87171521 256.4867842 53.9375 267.875 C54.11291321 268.84217957 54.28832642 269.80935913 54.46905518 270.80584717 C56.64935087 282.80664709 58.90402887 294.78406415 61.34741211 306.734375 C62.86365423 314.18864142 64.20577028 321.6644388 65.47045898 329.1652832 C66.37787943 334.52327472 67.35040084 339.86210675 68.39453125 345.1953125 C68.62978516 346.41041504 68.86503906 347.62551758 69.10742188 348.87744141 C69.56693016 351.23830844 70.03525395 353.59748202 70.51367188 355.95458984 C72.98981916 368.76654387 72.98981916 368.76654387 69.5 374.4375 C65.75500897 376.77811939 62.25040323 376.50560598 58 376 C53.37749384 374.79558566 48.92406258 373.19527556 44.4375 371.5625 C43.14424365 371.10314217 41.85061737 370.64482461 40.55664062 370.1875 C31.69533895 367.04005214 22.88972738 363.74169781 14.10131836 360.39672852 C6.28737402 357.43710722 -1.59194408 354.69688309 -9.5 352 C-18.45087813 348.94737479 -27.34784924 345.79897463 -36.1875 342.4375 C-44.16501109 339.40535966 -52.17601956 336.5151045 -60.25 333.75 C-70.3063171 330.30261546 -80.31830303 326.74738174 -90.3125 323.125 C-93.40357662 322.00501717 -96.49470948 320.88518988 -99.5859375 319.765625 C-100.4015062 319.47023834 -101.21707489 319.17485168 -102.05735779 318.87051392 C-113.17504745 314.84690575 -124.30685317 310.86258849 -135.4375 306.875 C-136.55465393 306.47472595 -137.67180786 306.0744519 -138.82281494 305.66204834 C-143.40741548 304.0193953 -147.99204283 302.37681718 -152.57675171 300.73446655 C-160.61947892 297.8533031 -168.66150461 294.97018864 -176.703125 292.0859375 C-197.38099377 284.66986697 -218.06082651 277.25948129 -238.75 269.875 C-267.6032915 259.57489895 -267.6032915 259.57489895 -279.82421875 255.14501953 C-282.85116293 254.05366281 -285.88182599 252.97339535 -288.91363525 251.8956604 C-291.68300544 250.90900695 -294.44934901 249.91404537 -297.21520996 248.91760254 C-298.55455726 248.43703165 -299.89511068 247.95980688 -301.23693848 247.48620605 C-303.10389397 246.82669079 -304.96611297 246.15381444 -306.828125 245.48046875 C-307.8996582 245.09785889 -308.97119141 244.71524902 -310.07519531 244.32104492 C-313.80285194 242.6373763 -317.12844663 240.74310673 -319 237 C-319.375 233.6875 -319.375 233.6875 -319 230 C-317.38073462 228.01509405 -315.92193799 226.64482135 -314 225 C-312.55479601 223.54930093 -311.11802578 222.09017519 -309.6875 220.625 C-306.32656792 217.26406792 -302.87967208 214.08528198 -299.2734375 210.9921875 C-296.41895314 208.49083522 -293.65076188 205.90024236 -290.875 203.3125 C-284.08560094 197.0060786 -277.07488386 190.98227641 -270 185 C-268.89443673 184.06261146 -267.78896636 183.12511336 -266.68359375 182.1875 C-264.5255187 180.35820052 -262.3651507 178.53165932 -260.203125 176.70703125 C-258.08394901 174.91809137 -255.96960777 173.12369807 -253.859375 171.32421875 C-241.44913727 160.75345829 -228.7727814 150.51560665 -215.91601562 140.49365234 C-213.79151261 138.83747122 -211.6692817 137.1783978 -209.546875 135.51953125 C-201.6746262 129.37388492 -193.77484928 123.27493547 -185.76025391 117.31542969 C-183.64020633 115.73112784 -181.52912756 114.13518947 -179.41796875 112.5390625 C-170.88002783 106.09246914 -162.31259341 99.71115562 -153.53556824 93.59274292 C-150.00547143 91.12705141 -146.49261281 88.64319796 -143.02026367 86.09667969 C-131.244523 77.46163725 -119.15399757 69.37018352 -106.9375 61.375 C-105.04338306 60.13056858 -103.14950215 58.88577784 -101.25585938 57.640625 C-69.75877325 36.94553414 -69.75877325 36.94553414 -56.9375 29.1875 C-55.98633301 28.60983887 -55.03516602 28.03217773 -54.05517578 27.43701172 C-45.86422865 22.48176303 -37.60682913 17.64257649 -29.31420898 12.85961914 C-24.50008749 10.07707207 -19.76200609 7.23892044 -15.11767578 4.18188477 C-9.84942648 0.73995129 -6.30156419 -1.46286312 0 0 Z M-17.546875 27.0078125 C-18.6905957 27.65758057 -19.83431641 28.30734863 -21.01269531 28.97680664 C-22.25878265 29.69231564 -23.50454309 30.4083942 -24.75 31.125 C-25.69570862 31.66687454 -25.69570862 31.66687454 -26.66052246 32.21969604 C-37.73944882 38.57533322 -48.53941293 45.30160144 -59.26074219 52.24365234 C-63.09909531 54.70471405 -66.97569677 57.10223703 -70.85229492 59.50244141 C-89.9984622 71.36344642 -108.71728612 83.84721843 -127 97 C-127.71816895 97.51626953 -128.43633789 98.03253906 -129.17626953 98.56445312 C-132.9441385 101.27567163 -136.70675448 103.99399345 -140.46484375 106.71875 C-143.46991389 108.89673068 -146.48302478 111.06275732 -149.50390625 113.21875 C-157.94184067 119.25199678 -166.22937757 125.43363196 -174.38842773 131.83959961 C-179.22629235 135.63577081 -184.11977526 139.3417976 -189.0625 143 C-195.46784449 147.7562548 -201.6445238 152.75048003 -207.77661133 157.8527832 C-212.21158434 161.54068447 -216.69528623 165.14877394 -221.25 168.6875 C-227.43818173 173.50618769 -233.43407611 178.52466049 -239.39111328 183.625 C-242.0850577 185.92732094 -244.79318645 188.21283801 -247.5 190.5 C-250.77610649 193.27030604 -254.05077176 196.0422588 -257.3203125 198.8203125 C-258.42178076 199.75531936 -259.52334267 200.69021592 -260.625 201.625 C-261.16278076 202.08173096 -261.70056152 202.53846191 -262.25463867 203.0090332 C-265.73315887 205.95434572 -269.26028644 208.83103034 -272.8125 211.6875 C-276.86765031 214.98230962 -280.57864311 218.45536875 -284.20703125 222.2109375 C-285.89550839 223.89573604 -287.63640628 225.38933787 -289.5 226.875 C-290.325 227.57625 -291.15 228.2775 -292 229 C-292 229.66 -292 230.32 -292 231 C-262.48378872 241.63701482 -232.95458765 252.23753679 -203.4055481 262.78302002 C-192.49094811 266.67839822 -181.5803131 270.58414911 -170.67944336 274.51782227 C-161.60179104 277.7903585 -152.51297776 281.03142037 -143.42443848 284.27355957 C-120.52219339 292.44425037 -97.6213618 300.62175948 -74.796875 309.0078125 C-74.13343079 309.25152588 -73.46998657 309.49523926 -72.78643799 309.74633789 C-69.720174 310.8733112 -66.65482979 312.00264673 -63.59082031 313.13574219 C-56.05427586 315.91375521 -48.48736494 318.59314534 -40.90344238 321.23858643 C-31.0887573 324.66267187 -21.29394621 328.14212182 -11.5 331.625 C-10.54185394 331.96539307 -9.58370789 332.30578613 -8.5965271 332.65649414 C1.89804928 336.38521744 12.3865057 340.12957651 22.85546875 343.9296875 C23.69832428 344.2354068 24.54117981 344.5411261 25.40957642 344.85610962 C29.37763683 346.29605503 33.3442107 347.73990254 37.30859375 349.18994141 C38.70960366 349.69963158 40.11064348 350.20923953 41.51171875 350.71875 C42.72303467 351.16154297 43.93435059 351.60433594 45.18237305 352.06054688 C47.82120008 353.10543391 47.82120008 353.10543391 50 353 C50.27959158 346.75615005 49.21255777 341.03561752 47.98828125 334.92578125 C47.77967468 333.85646362 47.57106812 332.787146 47.35614014 331.6854248 C46.91063734 329.40477748 46.46226442 327.12468923 46.01126099 324.84512329 C44.8434049 318.94096479 43.69651066 313.03272817 42.546875 307.125 C42.32197891 305.97240189 42.09708282 304.81980377 41.8653717 303.63227844 C39.21007332 289.99939862 36.79341447 276.3290451 34.41748047 262.64501953 C31.96570271 248.63511562 29.38768125 234.64809785 26.81152344 220.66064453 C26.26884898 217.71335519 25.72791084 214.76575517 25.18847656 211.81787109 C24.52628907 208.19918551 23.8611569 204.58105236 23.19400024 200.96327972 C22.94428048 199.60657587 22.69552437 198.24969419 22.44784546 196.89261627 C21.03115604 189.13553293 19.47144348 181.44072486 17.63977051 173.77038574 C16.75829288 169.95334037 16.10210499 166.11924242 15.5 162.25 C15.24928955 160.701727 14.99797274 159.15355208 14.74609375 157.60546875 C14.62218262 156.8376709 14.49827148 156.06987305 14.37060547 155.27880859 C12.96123461 146.61275615 11.45389389 137.97371471 9.59375 129.39216614 C7.92158345 121.66584028 6.44878032 113.94112529 5.1875 106.13671875 C3.12044561 93.55343361 0.87764872 81.00491053 -1.40942383 68.45996094 C-2.06821512 64.84362773 -2.72271854 61.22653502 -3.37695312 57.609375 C-5.41764932 46.36809052 -7.46058559 35.14156833 -10 24 C-13.02784615 24 -14.92626916 25.51828756 -17.546875 27.0078125 Z " fill="#030100" transform="translate(1971,705)"/>
<path d="M0 0 C4.2086202 8.4172404 -0.34667526 21.12121966 -2.125 29.9375 C-2.39852092 31.31840902 -2.67145989 32.69943342 -2.94384766 34.08056641 C-3.74614558 38.1386868 -4.5598784 42.194436 -5.375 46.25 C-5.78404471 48.29553482 -6.19291712 50.34110411 -6.6015625 52.38671875 C-7.17886812 55.27300191 -7.75685955 58.15914076 -8.33666992 61.04492188 C-12.67334313 82.65831403 -16.99929325 104.28328983 -20.86962891 125.9855957 C-22.43659321 134.714249 -24.12395443 143.41922266 -25.8125 152.125 C-26.02206833 153.20994247 -26.02206833 153.20994247 -26.23587036 154.31680298 C-27.8113543 162.46594179 -29.44105905 170.60102504 -31.15235901 178.72280884 C-34.09598732 192.69558519 -36.76654896 206.71123497 -39.375 220.75 C-41.94864349 234.60142971 -44.58736373 248.42734367 -47.5 262.21180725 C-49.97750032 274.00164817 -52.16953763 285.84433937 -54.375 297.6875 C-57.42449691 314.03685358 -60.56200399 330.36333891 -63.85507202 346.66549683 C-64.78735205 351.29975538 -65.69489135 355.93879472 -66.6015625 360.578125 C-67.90161112 365.06920204 -69.47418295 367.6494553 -73.375 370.25 C-77.35851523 370.68540748 -79.60522968 370.71052733 -83.078125 368.6328125 C-83.91859375 367.88773438 -84.7590625 367.14265625 -85.625 366.375 C-86.56859375 365.55257813 -87.5121875 364.73015625 -88.484375 363.8828125 C-89.91523438 362.57957031 -89.91523438 362.57957031 -91.375 361.25 C-92.74398437 360.00863281 -92.74398437 360.00863281 -94.140625 358.7421875 C-95.97559406 357.06974427 -97.80627937 355.39258982 -99.6328125 353.7109375 C-102.27515883 351.33960105 -104.98194167 349.09747003 -107.75 346.875 C-112.5464071 343.00781137 -117.0454146 338.90019284 -121.53857422 334.69189453 C-124.88581785 331.57460664 -128.30495906 328.61433518 -131.875 325.75 C-136.0416621 322.40698041 -139.97919812 318.89884863 -143.875 315.25 C-148.63588994 310.79125556 -153.5396782 306.6120217 -158.62890625 302.52734375 C-162.17178299 299.58922549 -165.52941772 296.46768822 -168.89697266 293.33349609 C-172.10816873 290.36269934 -175.40136841 287.55031679 -178.8125 284.8125 C-183.59121628 280.96889943 -188.06657687 276.88039836 -192.53881836 272.69165039 C-195.88599327 269.57446055 -199.30505023 266.61426202 -202.875 263.75 C-207.0416621 260.40698041 -210.97919812 256.89884863 -214.875 253.25 C-219.63588994 248.79125556 -224.5396782 244.6120217 -229.62890625 240.52734375 C-233.17178299 237.58922549 -236.52941772 234.46768822 -239.89697266 231.33349609 C-243.10816873 228.36269934 -246.40136841 225.55031679 -249.8125 222.8125 C-254.59121628 218.96889943 -259.06657687 214.88039836 -263.53881836 210.69165039 C-266.88599327 207.57446055 -270.30505023 204.61426202 -273.875 201.75 C-278.63608478 197.93005989 -283.08773025 193.86061181 -287.5390625 189.69140625 C-290.88616869 186.57431446 -294.30514141 183.61418887 -297.875 180.75 C-302.0416621 177.40698041 -305.97919812 173.89884863 -309.875 170.25 C-314.63588994 165.79125556 -319.5396782 161.6120217 -324.62890625 157.52734375 C-328.17178299 154.58922549 -331.52941772 151.46768822 -334.89697266 148.33349609 C-338.10816873 145.36269934 -341.40136841 142.55031679 -344.8125 139.8125 C-349.5866875 135.972542 -354.05941506 131.88942868 -358.52563477 127.70263672 C-362.83191945 123.68959776 -367.33434889 119.97786273 -371.921875 116.2890625 C-382.02629936 107.890162 -382.02629936 107.890162 -382.8125 101.9375 C-382.375 98.25 -382.375 98.25 -380.234375 95.9140625 C-374.90853638 91.77993221 -368.36222216 89.5205098 -362.1875 86.9375 C-360.82743472 86.36007064 -359.46773642 85.78177615 -358.10839844 85.20263672 C-355.42252273 84.06037189 -352.73427667 82.9240255 -350.04345703 81.79345703 C-346.96056221 80.49636792 -343.88291288 79.18832881 -340.80859375 77.87109375 C-333.22992006 74.63305864 -325.61045187 71.50801719 -317.9375 68.5 C-316.90931152 68.09515381 -316.90931152 68.09515381 -315.86035156 67.68212891 C-311.95809116 66.17100514 -308.03029658 64.79051285 -304.0546875 63.484375 C-298.71293989 61.72275725 -293.41820043 59.84928755 -288.12890625 57.9375 C-287.30421341 57.63962585 -286.47952057 57.34175171 -285.62983704 57.03485107 C-282.20542611 55.79670787 -278.78172225 54.55664109 -275.35913086 53.31347656 C-265.42891128 49.70936373 -255.5067235 46.25440839 -245.375 43.25 C-243.54346055 42.6822951 -241.71270681 42.11204805 -239.8828125 41.5390625 C-227.29292493 37.63476458 -214.64007778 34.13919139 -201.86669922 30.88916016 C-198.54885185 30.03807997 -195.2436027 29.14563317 -191.9375 28.25 C-173.50778988 23.33613459 -155.01016113 18.95653741 -136.3125 15.1875 C-135.25227631 14.97244812 -134.19205261 14.75739624 -133.09970093 14.53582764 C-115.58113581 10.98947168 -98.06975456 7.78972925 -80.375 5.25 C-79.17069336 5.07275391 -77.96638672 4.89550781 -76.72558594 4.71289062 C-61.95652396 2.55460512 -47.17516684 0.84049912 -32.3125 -0.5 C-31.60515717 -0.5651178 -30.89781433 -0.6302356 -30.16903687 -0.69732666 C-5.64538764 -2.92723803 -5.64538764 -2.92723803 0 0 Z M-30.7265625 17.984375 C-31.81043243 18.10107796 -31.81043243 18.10107796 -32.91619873 18.22013855 C-35.27788066 18.47646037 -37.63900453 18.73743288 -40 19 C-40.81043762 19.08992218 -41.62087524 19.17984436 -42.45587158 19.27249146 C-55.73394979 20.75556092 -68.93584788 22.52694052 -82.11865234 24.71142578 C-85.59428586 25.28626815 -89.07235516 25.84466257 -92.55078125 26.40234375 C-119.38843985 30.74380721 -145.92329569 35.91569659 -172.30224609 42.4921875 C-175.61734066 43.30976684 -178.93907972 44.09018889 -182.26879883 44.84570312 C-188.41295 46.26353386 -194.50569856 47.79151402 -200.578125 49.48828125 C-201.35159775 49.70407333 -202.1250705 49.91986542 -202.92198181 50.14219666 C-212.28896186 52.76948821 -221.6207591 55.5126955 -230.9375 58.3125 C-231.8631073 58.59046417 -232.7887146 58.86842834 -233.74237061 59.15481567 C-250.44643991 64.1919459 -266.82400056 69.89814289 -283.14697266 76.04589844 C-287.13874751 77.53488903 -291.15725321 78.93220166 -295.1875 80.3125 C-315.29076522 87.30824743 -334.94321423 95.58424317 -354.375 104.25 C-354.375 105.24 -354.375 106.23 -354.375 107.25 C-352.31732598 109.22356471 -350.2682839 111.01847001 -348.0625 112.8125 C-346.76701358 113.89177172 -345.47275645 114.9725206 -344.1796875 116.0546875 C-343.53354492 116.59319336 -342.88740234 117.13169922 -342.22167969 117.68652344 C-339.64352182 119.86930014 -337.16789659 122.14403185 -334.6875 124.4375 C-331.21363691 127.62736844 -327.67589975 130.67048894 -324 133.625 C-319.2043951 137.49154184 -314.70621333 141.59851983 -310.21362305 145.8059082 C-306.00088877 149.72892724 -301.61095547 153.36903719 -297.12109375 156.97265625 C-293.57821701 159.91077451 -290.22058228 163.03231178 -286.85302734 166.16650391 C-283.64183127 169.13730066 -280.34863159 171.94968321 -276.9375 174.6875 C-272.15878372 178.53110057 -267.68342313 182.61960164 -263.21118164 186.80834961 C-259.86400673 189.92553945 -256.44494977 192.88573798 -252.875 195.75 C-248.11391522 199.56994011 -243.66226975 203.63938819 -239.2109375 207.80859375 C-235.86383131 210.92568554 -232.44485859 213.88581113 -228.875 216.75 C-224.7083379 220.09301959 -220.77080188 223.60115137 -216.875 227.25 C-212.11411006 231.70874444 -207.2103218 235.8879783 -202.12109375 239.97265625 C-198.57821701 242.91077451 -195.22058228 246.03231178 -191.85302734 249.16650391 C-188.64183127 252.13730066 -185.34863159 254.94968321 -181.9375 257.6875 C-177.15878372 261.53110057 -172.68342313 265.61960164 -168.21118164 269.80834961 C-164.86400673 272.92553945 -161.44494977 275.88573798 -157.875 278.75 C-153.7083379 282.09301959 -149.77080188 285.60115137 -145.875 289.25 C-141.11411006 293.70874444 -136.2103218 297.8879783 -131.12109375 301.97265625 C-127.57821701 304.91077451 -124.22058228 308.03231178 -120.85302734 311.16650391 C-117.64183127 314.13730066 -114.34863159 316.94968321 -110.9375 319.6875 C-106.69862342 323.09942811 -102.66824104 326.67015758 -98.6875 330.375 C-98.13868164 330.88571045 -97.58986328 331.3964209 -97.02441406 331.92260742 C-95.9640568 332.91017311 -94.90383062 333.89787956 -93.84375 334.88574219 C-91.80840931 336.77628138 -89.75751341 338.647488 -87.6875 340.5 C-87.08550781 341.04140625 -86.48351563 341.5828125 -85.86328125 342.140625 C-84.41712161 343.4492135 -84.41712161 343.4492135 -82.375 343.25 C-80.33164372 334.70378864 -78.55061761 326.14827002 -77 317.5 C-74.15084652 301.87107433 -71.14773809 286.26987657 -67.75 270.75 C-66.70502637 265.95896142 -65.81421194 261.15232487 -64.984375 256.3203125 C-63.66602317 248.75468567 -62.20545904 241.22452086 -60.67211914 233.69924927 C-57.63143764 218.75765868 -54.73238934 203.79008816 -51.875 188.8125 C-51.48602865 186.77522289 -51.09703125 184.73795076 -50.70800781 182.70068359 C-50.13377399 179.69318691 -49.55956077 176.68568631 -48.98547363 173.67816162 C-47.33484582 165.03326533 -45.67631671 156.38995371 -44 147.75 C-43.79941986 146.71554245 -43.79941986 146.71554245 -43.5947876 145.66018677 C-41.65925302 135.69271582 -39.67413815 125.73552038 -37.671875 115.78125 C-37.31452271 114.00416405 -37.31452271 114.00416405 -36.94995117 112.19117737 C-36.70929932 110.99443893 -36.46864746 109.7977005 -36.22070312 108.56469727 C-35.73044825 106.12646896 -35.24021389 103.68823654 -34.75 101.25 C-34.38781372 99.44920486 -34.38781372 99.44920486 -34.01831055 97.61203003 C-31.17917381 83.48066532 -28.39741145 69.35221695 -25.95581055 55.14624023 C-24.48674371 46.64708077 -22.75243006 38.21432848 -20.89697266 29.79125977 C-20.69765137 28.87143311 -20.49833008 27.95160645 -20.29296875 27.00390625 C-20.11531982 26.20283447 -19.9376709 25.4017627 -19.75463867 24.57641602 C-19.34999434 22.09676594 -19.30967832 19.75807456 -19.375 17.25 C-23.21123157 17.25 -26.92182527 17.56854861 -30.7265625 17.984375 Z " fill="#030100" transform="translate(2487.375,538.75)"/>
<path d="M0 0 C8.03286629 1.47269215 13.14421807 9.06358165 18.32421875 14.94140625 C20.96910118 17.93553241 23.66669718 20.87592528 26.375 23.8125 C29.93310616 27.68064104 33.43290824 31.59085566 36.875 35.5625 C39.29550075 38.30573418 41.77200642 40.99634568 44.25 43.6875 C47.85012756 47.59731595 51.39417605 51.54616468 54.875 55.5625 C57.29550075 58.30573418 59.77200642 60.99634568 62.25 63.6875 C65.28888018 66.98778923 68.31156045 70.29699283 71.25 73.6875 C74.61322638 77.56567013 78.08335671 81.34277811 81.55810547 85.12060547 C85.99223628 89.94334891 90.3751824 94.8109112 94.75 99.6875 C96.24971128 101.35442647 97.74971321 103.02109149 99.25 104.6875 C108.25 114.6875 117.25 124.6875 126.25 134.6875 C126.99507812 135.51507812 127.74015625 136.34265625 128.5078125 137.1953125 C129.98292618 138.83489879 131.45691652 140.47549655 132.9296875 142.1171875 C137.05097768 146.7078061 141.19873788 151.27197107 145.375 155.8125 C148.93253099 159.68117822 152.43289575 163.59084125 155.875 167.5625 C158.29550075 170.30573418 160.77200642 172.99634568 163.25 175.6875 C166.85012756 179.59731595 170.39417605 183.54616468 173.875 187.5625 C176.29550075 190.30573418 178.77200642 192.99634568 181.25 195.6875 C184.28888018 198.98778923 187.31156045 202.29699283 190.25 205.6875 C193.61322638 209.56567013 197.08335671 213.34277811 200.55810547 217.12060547 C204.99223628 221.94334891 209.3751824 226.8109112 213.75 231.6875 C215.24971128 233.35442647 216.74971321 235.02109149 218.25 236.6875 C227.25 246.6875 227.25 246.6875 229.484375 249.17578125 C231.02904116 250.88823011 232.58147376 252.59369771 234.140625 254.29296875 C245.37127335 266.58346305 245.37127335 266.58346305 246.3125 271.8125 C245.5883235 275.51384658 244.39978737 277.00475 241.75 279.6875 C239.21213497 280.63276662 237.04146765 281.27533976 234.42362213 281.80858994 C233.71510445 281.96865134 233.00658676 282.12871275 232.27659884 282.29362451 C230.10488028 282.77846584 227.92876037 283.23548966 225.75 283.6875 C223.91841984 284.08362071 223.91841984 284.08362071 222.04983807 284.48774385 C218.36234471 285.2695154 214.66898025 286.01427807 210.9720459 286.75006104 C209.56144243 287.03368154 208.15090519 287.31763164 206.74042749 287.60187697 C202.91616629 288.3715621 199.09098147 289.13656111 195.26560593 289.90068579 C191.12063333 290.72951554 186.97654852 291.56276345 182.83233643 292.39538574 C174.73649978 294.02116269 166.63982571 295.64273006 158.5428018 297.26258257 C151.96217824 298.5790887 145.38180009 299.89681451 138.80158997 301.21538544 C120.1225879 304.95821803 101.44294935 308.69785061 82.76247805 312.43334344 C81.7580478 312.63419753 80.75361754 312.83505161 79.71875 313.04199219 C78.71308749 313.24309199 77.70742497 313.44419178 76.67128783 313.65138552 C60.3420023 316.91691685 44.0142688 320.19013769 27.68721551 323.46680978 C10.9003677 326.83566626 -5.88761911 330.19879321 -22.67681265 333.55594039 C-32.0941378 335.43913991 -41.51097543 337.32470271 -50.92658997 339.21643829 C-58.93387336 340.82517312 -66.94219896 342.42858876 -74.95192915 344.02509859 C-79.03676059 344.83945101 -83.12105657 345.65627304 -87.20404816 346.47980499 C-90.94284876 347.23384911 -94.68300325 347.98075107 -98.4243533 348.72203872 C-100.4149596 349.11834883 -102.40405599 349.52221998 -104.39308405 349.92637658 C-120.11464055 353.02209966 -120.11464055 353.02209966 -125.25 349.8125 C-128.47924038 344.7668119 -127.76395246 339.58874533 -126.7399292 333.8081665 C-126.02066838 330.64771937 -125.22576222 327.51669731 -124.3984375 324.3828125 C-124.10192291 323.22361298 -123.80540833 322.06441345 -123.49990845 320.87008667 C-122.8715994 318.42301096 -122.2375691 315.97739788 -121.59814453 313.53320312 C-120.63772131 309.86113844 -119.69420009 306.18507712 -118.75390625 302.5078125 C-115.60717394 290.27520658 -112.30116842 278.11439033 -108.57788086 266.04418945 C-107.11667854 261.30209256 -105.77540883 256.52807767 -104.4375 251.75 C-95.39837876 219.91238467 -84.67464473 188.64055888 -73.30322266 157.56884766 C-72.6248687 155.71304483 -71.94980324 153.85603496 -71.27880859 151.99755859 C-55.25930721 107.65918417 -36.32848253 64.17868992 -15.8125 21.75 C-15.40718048 20.90649994 -15.00186096 20.06299988 -14.58425903 19.19393921 C-13.44203629 16.82370652 -12.28787873 14.45973575 -11.12890625 12.09765625 C-10.79431396 11.40187469 -10.45972168 10.70609314 -10.11499023 9.98922729 C-7.62711121 4.97904605 -5.67446385 1.20036735 0 0 Z M2.75 26.6875 C-7.010338 45.96280437 -16.17675433 65.45300415 -24.6875 85.3125 C-25.09897278 86.2699411 -25.51044556 87.2273822 -25.93438721 88.21383667 C-37.48576522 115.09720096 -48.31721647 142.16544109 -58.25 169.6875 C-58.5447522 170.50410095 -58.83950439 171.3207019 -59.14318848 172.16204834 C-66.98931661 193.94243843 -74.38483472 215.84742628 -81.3125 237.9375 C-81.62024353 238.91431732 -81.92798706 239.89113464 -82.24505615 240.89755249 C-86.16798326 253.38440612 -89.68966333 265.92806258 -92.93481445 278.60742188 C-94.41797922 284.38693057 -96.08005185 290.1033079 -97.8125 295.8125 C-103.63408668 312.97013773 -103.63408668 312.97013773 -106.25 330.6875 C-97.4229846 329.39896752 -88.67700733 327.86073943 -79.93135071 326.10668945 C-78.65575309 325.85321149 -77.38015546 325.59973352 -76.06590337 325.33857441 C-72.5641335 324.64262211 -69.06307536 323.94314889 -65.5621382 323.24302149 C-61.77196897 322.4856932 -57.98114456 321.73165704 -54.19041443 320.97714233 C-45.92622401 319.33155318 -37.66288708 317.6817069 -29.39972329 316.03097153 C-24.23929874 315.00009392 -19.07869291 313.97012586 -13.91805077 312.94033813 C0.37869764 310.08733122 14.6752539 307.23336638 28.97102642 304.37547302 C29.88352622 304.19305449 30.79602601 304.01063596 31.73617731 303.82268959 C33.5857979 303.45292701 35.43541841 303.08316405 37.28503885 302.71340072 C38.20313179 302.52986325 39.12122473 302.34632578 40.06713867 302.15722656 C40.98635311 301.97346407 41.90556755 301.78970158 42.85263697 301.60037053 C57.78698622 298.6150025 72.72274819 295.63676699 87.6591325 292.66159928 C103.00401681 289.60496293 118.34774889 286.54259993 133.69032127 283.47437954 C142.30119096 281.75250623 150.91253743 280.03310219 159.52515221 278.31997681 C166.84770075 276.86342421 174.16918217 275.40165085 181.48930409 273.9329493 C185.22549545 273.18348712 188.96214855 272.43656248 192.70016861 271.69626999 C196.74452691 270.89523519 200.78642221 270.08241058 204.82817078 269.26831055 C206.01967151 269.03426167 207.21117224 268.8002128 208.43877906 268.55907154 C209.5145967 268.34035232 210.59041434 268.12163309 211.69883251 267.89628601 C212.63273255 267.70978831 213.56663258 267.52329062 214.52883261 267.33114147 C216.93024183 266.82883169 216.93024183 266.82883169 218.75 264.6875 C218.32589844 264.275 217.90179687 263.8625 217.46484375 263.4375 C213.74544688 259.77532462 210.2386954 256.00734071 206.83203125 252.0546875 C204.18954221 249.05028158 201.47178686 246.11997611 198.75 243.1875 C194.96348747 239.10467692 191.23232266 234.98979491 187.58984375 230.77734375 C185.18329844 228.04379441 182.71696804 225.36635994 180.25 222.6875 C176.64984677 218.77770819 173.10582336 214.82883464 169.625 210.8125 C167.20449925 208.06926582 164.72799358 205.37865432 162.25 202.6875 C159.21111982 199.38721077 156.18843955 196.07800717 153.25 192.6875 C149.88677362 188.80932987 146.41664329 185.03222189 142.94189453 181.25439453 C138.50776372 176.43165109 134.1248176 171.5640888 129.75 166.6875 C128.25028872 165.02057353 126.75028679 163.35390851 125.25 161.6875 C116.25 151.6875 107.25 141.6875 98.25 131.6875 C97.50492188 130.85992188 96.75984375 130.03234375 95.9921875 129.1796875 C94.51707382 127.54010121 93.04308348 125.89950345 91.5703125 124.2578125 C87.44902232 119.6671939 83.30126212 115.10302893 79.125 110.5625 C75.56746901 106.69382178 72.06710425 102.78415875 68.625 98.8125 C66.20449925 96.06926582 63.72799358 93.37865432 61.25 90.6875 C57.64987244 86.77768405 54.10582395 82.82883532 50.625 78.8125 C48.20449925 76.06926582 45.72799358 73.37865432 43.25 70.6875 C40.21111982 67.38721077 37.18843955 64.07800717 34.25 60.6875 C31.34914438 57.34249424 28.37175605 54.0714466 25.375 50.8125 C18.49569274 43.33131213 11.66229136 35.81624867 5.0625 28.0859375 C4.629375 27.62445312 4.19625 27.16296875 3.75 26.6875 C3.42 26.6875 3.09 26.6875 2.75 26.6875 Z " fill="#030100" transform="translate(1277.25,1456.3125)"/>
</svg>
