<?xml version="1.0" encoding="UTF-8"?>
<svg version="1.1" xmlns="http://www.w3.org/2000/svg" width="4000" height="2250">
<path d="M0 0 C1.61665358 -0.00432138 1.61665358 -0.00432138 3.26596684 -0.00873006 C4.46283639 -0.00681186 5.65970594 -0.00489366 6.89284427 -0.00291733 C8.16141473 -0.00481657 9.42998518 -0.00671581 10.73699716 -0.0086726 C14.29157512 -0.0138473 17.84612849 -0.01272543 21.40070861 -0.01065899 C25.2696179 -0.00950265 29.13852088 -0.01412116 33.00742779 -0.01801572 C39.82549731 -0.02406635 46.64356028 -0.02635146 53.46163236 -0.02624258 C63.6686037 -0.02609242 73.87556645 -0.03163114 84.08253534 -0.03828948 C101.47453306 -0.04945531 118.86652961 -0.05577027 136.25853039 -0.05946223 C153.89423522 -0.06321274 171.52993738 -0.06908081 189.1656406 -0.07754008 C190.83377122 -0.07833672 190.83377122 -0.07833672 192.53560143 -0.07914945 C197.06463962 -0.08131608 201.5936778 -0.0834927 206.12271597 -0.08568339 C261.07387498 -0.11220869 316.02503542 -0.12775402 370.97619904 -0.14084628 C388.79061398 -0.14509422 406.60502881 -0.14966181 424.41944362 -0.15442959 C517.00702453 -0.17915235 609.59460583 -0.20122627 702.18218931 -0.21335203 C709.69339563 -0.21433605 717.20460195 -0.21534045 724.71580826 -0.21634771 C725.39309159 -0.21643849 726.07037491 -0.21652926 726.76818198 -0.21662279 C740.49094996 -0.21846268 754.21371794 -0.22032295 767.93648591 -0.22221211 C771.37649585 -0.22268562 774.81650579 -0.22315742 778.25651573 -0.22362502 C843.23461567 -0.23246154 908.21270981 -0.24562108 973.19080425 -0.27457682 C974.21700748 -0.27503381 974.21700748 -0.27503381 975.26394208 -0.27550004 C998.01515875 -0.28564286 1020.76637517 -0.29631395 1043.51759157 -0.30704014 C1064.07420147 -0.31673016 1084.63081142 -0.32629639 1105.18742157 -0.33543459 C1106.20034378 -0.33588515 1106.20034378 -0.33588515 1107.23372907 -0.33634481 C1149.51443976 -0.35512069 1191.79514809 -0.36785717 1234.07586266 -0.3743178 C1235.38132372 -0.37451836 1236.68678479 -0.37471891 1238.03180528 -0.37492555 C1266.6856748 -0.3792755 1295.3395443 -0.38222165 1323.9934141 -0.38385206 C1335.52166594 -0.38452845 1347.04991777 -0.38538397 1358.5781696 -0.38629023 C1359.83990374 -0.38638433 1361.10163787 -0.38647842 1362.40160638 -0.38657537 C1403.09361298 -0.38969123 1443.7855946 -0.40822178 1484.47759219 -0.4346402 C1525.44715948 -0.46115127 1566.41669887 -0.4719486 1607.38627419 -0.46090421 C1613.04067432 -0.45938255 1618.69507448 -0.45803717 1624.34947468 -0.45679728 C1626.01218875 -0.45642269 1626.01218875 -0.45642269 1627.708493 -0.45604053 C1645.29973173 -0.45253797 1662.89091621 -0.46588984 1680.4821419 -0.48617501 C1697.75645444 -0.50574893 1715.03069252 -0.50765893 1732.30500845 -0.49044873 C1742.44757657 -0.48088319 1752.58991627 -0.48517677 1762.73246108 -0.50947108 C1769.45525425 -0.52422307 1776.17787998 -0.52108111 1782.90066462 -0.50294051 C1786.72027158 -0.493148 1790.53942982 -0.49135798 1794.35900629 -0.51149371 C1798.45317107 -0.53290726 1802.54626027 -0.51606447 1806.64042671 -0.49510864 C1807.83012403 -0.50753489 1809.01982136 -0.51996114 1810.24557012 -0.53276395 C1818.1730109 -0.44604793 1818.1730109 -0.44604793 1822.16179877 2.47841845 C1825.37348434 7.22308326 1825.09590512 11.564541 1825.08230973 17.09125724 C1825.0847859 18.49273111 1825.0847859 18.49273111 1825.08731209 19.92251758 C1825.09166515 23.08913063 1825.08882702 26.2556978 1825.086087 29.4223121 C1825.08773531 31.71097211 1825.08982097 33.99963184 1825.0923071 36.28829109 C1825.09790067 42.62889854 1825.09719645 48.96949255 1825.09552951 55.31010169 C1825.09438915 61.48033149 1825.09890285 67.65055852 1825.10279353 73.82078677 C1825.11067804 86.60196766 1825.11375614 99.38314576 1825.11423947 112.1643289 C1825.11474133 125.12319831 1825.11738285 138.08206459 1825.12264706 151.04093298 C1825.12297719 151.85834684 1825.12330733 152.6757607 1825.12364746 153.51794467 C1825.12499741 156.84695474 1825.12636007 160.1759648 1825.12773957 163.50497486 C1825.14405544 202.94854746 1825.15042972 242.39211947 1825.15518744 281.83569487 C1825.15756911 301.4693842 1825.16127226 321.10307319 1825.16522454 340.73676226 C1825.17788966 403.68744106 1825.18867391 466.63811984 1825.19206499 529.58879989 C1825.19222723 532.5984435 1825.19239279 535.60808712 1825.19255938 538.61773073 C1825.19289318 544.65380538 1825.19322366 550.68988003 1825.19355394 556.72595467 C1825.19394084 563.79301099 1825.19433045 570.8600673 1825.194725 577.92712361 C1825.19483742 579.94978662 1825.19494884 581.97244963 1825.19505925 583.99511265 C1825.19860974 648.97512777 1825.21369211 713.95513185 1825.236997 778.93514276 C1825.25373288 825.61799617 1825.26921124 872.30084749 1825.27373196 918.98370393 C1825.27387219 920.42302062 1825.27387219 920.42302062 1825.27401525 921.89141441 C1825.27603406 942.95324388 1825.2771903 964.01507332 1825.27754383 985.07690288 C1825.27768001 992.61276431 1825.27788901 1000.14862573 1825.27813709 1007.68448715 C1825.27819865 1009.55929882 1825.27825697 1011.43411048 1825.27831204 1013.30892215 C1825.27923275 1043.21250828 1825.28921173 1073.11608289 1825.30376952 1103.01966523 C1825.31836905 1133.12936918 1825.32343757 1163.23905898 1825.31534998 1193.34876585 C1825.31423453 1197.50548816 1825.31322389 1201.6622105 1825.31227566 1205.81893285 C1825.31208569 1206.63379751 1825.31189572 1207.44866216 1825.3117 1208.28821969 C1825.30896173 1221.21336691 1825.31632308 1234.13848804 1825.32784903 1247.06362959 C1825.33896214 1259.7597763 1825.33944894 1272.45588597 1825.32847884 1285.15203323 C1825.32289992 1291.94917359 1825.32248701 1298.74621741 1825.33498756 1305.54335153 C1825.34624916 1311.71795297 1825.34388803 1317.89238835 1825.33032049 1324.06698379 C1825.32787021 1326.29541508 1825.33052711 1328.52385884 1825.33871697 1330.75227643 C1825.34906423 1333.7639776 1825.34110801 1336.77508523 1825.32840539 1339.78676429 C1825.33951814 1341.08974076 1825.33951814 1341.08974076 1825.35085538 1342.41903998 C1825.30657132 1347.38318853 1824.75562506 1350.84980819 1821.95465923 1355.12703451 C1818.63809741 1357.33807572 1817.64009473 1357.37746184 1813.78201662 1357.37921285 C1812.70130608 1357.38455227 1811.62059554 1357.38989169 1810.50713619 1357.39539291 C1808.71460629 1357.3889295 1808.71460629 1357.3889295 1806.88586367 1357.38233551 C1805.6153207 1357.38563706 1804.34477774 1357.38893862 1803.03573347 1357.39234023 C1799.48025658 1357.40128747 1795.92488315 1357.3976658 1792.36940332 1357.39213666 C1788.49779768 1357.38830766 1784.62621273 1357.39604574 1780.7546127 1357.40233024 C1773.93334998 1357.41178189 1767.11211629 1357.41372037 1760.2908481 1357.41087355 C1750.07911378 1357.40664304 1739.86740966 1357.41384127 1729.65568 1357.4233031 C1712.25518853 1357.43907602 1694.85470525 1357.4452285 1677.45420719 1357.44619497 C1659.81085697 1357.44719854 1642.16751594 1357.45248008 1624.52416874 1357.46301015 C1623.41144303 1357.46367042 1622.29871733 1357.46433069 1621.15227266 1357.46501096 C1616.62060736 1357.46771085 1612.08894207 1357.47043617 1607.55727681 1357.47319517 C1553.85880266 1357.50583036 1500.16033026 1357.51857583 1446.46184788 1357.52809091 C1419.7342201 1357.53285381 1393.00659332 1357.54026001 1366.2789663 1357.54816511 C1279.90715165 1357.57369707 1193.53533726 1357.59518504 1107.16351902 1357.60200771 C1103.74888548 1357.60227887 1100.33425195 1357.60255693 1096.91961842 1357.60283479 C1091.44506018 1357.60327975 1085.97050194 1357.60372248 1080.49594371 1357.60416255 C1079.47834847 1357.60424437 1079.47834847 1357.60424437 1078.44019575 1357.60432783 C1077.06909728 1357.60443806 1075.69799882 1357.60454828 1074.32690035 1357.60465849 C1064.70890005 1357.60543173 1055.09089975 1357.60620762 1045.47289944 1357.60699675 C1042.03136006 1357.60727897 1038.58982069 1357.60755912 1035.14828131 1357.60783455 C970.14011125 1357.6130437 905.13195074 1357.62370904 840.12378765 1357.65559896 C839.43931438 1357.65593455 838.7548411 1357.65627013 838.04962621 1357.65661589 C816.66347812 1357.66711738 795.27733037 1357.67826606 773.89118267 1357.68953451 C751.9478673 1357.70109618 730.00455188 1357.71255715 708.06123615 1357.72344717 C707.38561528 1357.72378278 706.70999441 1357.7241184 706.01390017 1357.72446418 C663.7120205 1357.74544488 621.41014464 1357.75916094 579.10825993 1357.76517995 C577.80215005 1357.76536693 576.49604017 1357.7655539 575.1503512 1357.76574654 C546.48229092 1357.76978404 517.81423074 1357.77209662 489.1461702 1357.77280371 C478.88899403 1357.77307607 468.63181787 1357.77349406 458.37464171 1357.77399021 C455.82278787 1357.77411333 453.27093404 1357.77422997 450.7190802 1357.77434011 C410.00756516 1357.77618194 369.29608394 1357.79614472 328.58458004 1357.82525508 C287.59601809 1357.85444638 246.6074977 1357.864596 205.6189272 1357.848416 C199.96193548 1357.84618506 194.3049437 1357.84416379 188.64795185 1357.84226736 C187.53896839 1357.84188742 186.42998492 1357.84150749 185.2873959 1357.84111604 C167.68810578 1357.83563682 150.08889222 1357.85037071 132.48961877 1357.87341409 C115.2074322 1357.8956256 97.92535446 1357.89662889 80.64316631 1357.87467372 C70.49596506 1357.86242883 60.34909114 1357.8668072 50.20192034 1357.89517767 C43.47606456 1357.91236064 36.75045142 1357.90807019 30.02461097 1357.88578024 C26.20321145 1357.87373257 22.38245688 1357.87128679 18.56109844 1357.89514997 C14.46493233 1357.92052527 10.37031763 1357.89999453 6.27415312 1357.87452682 C5.08391468 1357.88934381 3.89367623 1357.90416081 2.66736996 1357.9194268 C-6.17932073 1357.80266429 -6.17932073 1357.80266429 -9.27620944 1354.6655423 C-11.53722211 1350.14320366 -11.74007367 1346.75209594 -11.67093592 1341.7634175 C-11.67782327 1340.82236539 -11.68471063 1339.88131328 -11.69180669 1338.91174444 C-11.7088678 1335.73986892 -11.69014106 1332.56920462 -11.67175316 1329.39735063 C-11.67666307 1327.09806461 -11.68376487 1324.7987824 -11.69286712 1322.49950915 C-11.711603 1316.14327911 -11.69896713 1309.78743009 -11.68147718 1303.43121056 C-11.66688748 1297.24167147 -11.68073341 1291.05216097 -11.69146894 1284.86262463 C-11.71285352 1272.04477179 -11.71045161 1259.22702097 -11.69520115 1246.4091638 C-11.67982883 1233.41606146 -11.67529557 1220.42302309 -11.68405269 1207.42991384 C-11.68459808 1206.60987366 -11.68514346 1205.78983348 -11.68570537 1204.9449436 C-11.6879633 1201.6051612 -11.69029986 1198.26537888 -11.69273583 1194.92559661 C-11.71542729 1163.80270427 -11.71358654 1132.67985829 -11.6962521 1101.55696424 C-11.67956431 1071.56052551 -11.67144875 1041.56410792 -11.67548107 1011.56766447 C-11.67572143 1009.68534289 -11.67596062 1007.80302132 -11.67619865 1005.92069975 C-11.67716739 998.3568197 -11.6781898 990.79293967 -11.67928375 983.22905964 C-11.68231269 962.08376674 -11.68363548 940.9384739 -11.68365311 919.79318079 C-11.68365437 918.83020367 -11.68365564 917.86722656 -11.68365694 916.87506833 C-11.68357681 886.18158781 -11.6760214 855.48811384 -11.66324638 824.79463609 C-11.6628327 823.79883611 -11.66241901 822.80303612 -11.66199279 821.77706038 C-11.65524886 805.60495734 -11.64809533 789.43285448 -11.64091355 773.26075163 C-11.61245387 709.11403524 -11.6064877 644.96735881 -11.62175678 580.82063802 C-11.62271621 576.76699591 -11.62367322 572.71335379 -11.62462949 568.65971167 C-11.62486596 567.65746921 -11.62510243 566.65522674 -11.62534606 565.62261329 C-11.62795879 554.523572 -11.63049136 543.42453069 -11.63292717 532.32548936 C-11.63314698 531.33021028 -11.6333668 530.33493119 -11.63359327 529.30949213 C-11.64031378 498.6476922 -11.64203682 467.98589554 -11.63816665 437.32409509 C-11.6380452 436.36183472 -11.63792374 435.39957435 -11.6377986 434.40815458 C-11.63507076 413.28713947 -11.63100794 392.16612475 -11.62575295 371.04511012 C-11.6238745 363.48822599 -11.62204807 355.93134185 -11.62022741 348.37445771 C-11.61954316 345.55593445 -11.61884162 342.73741119 -11.6181399 339.91888794 C-11.61308184 319.28960527 -11.61076515 298.66032702 -11.61557435 278.03104409 C-11.61579103 277.10065601 -11.61600771 276.17026793 -11.61623095 275.21168628 C-11.61733983 270.52697553 -11.61849881 265.8422648 -11.61967936 261.15755407 C-11.62819826 227.33138296 -11.6240487 193.50525577 -11.59691226 159.67909302 C-11.5942975 156.35031342 -11.59174406 153.02153379 -11.58923839 149.69275411 C-11.58861724 148.87578934 -11.58799609 148.05882456 -11.58735611 147.21710327 C-11.57785693 134.25584125 -11.58177001 121.2946192 -11.59118124 108.33335857 C-11.60013846 95.60352838 -11.59488934 82.8737707 -11.57428885 70.14395328 C-11.56364618 63.328119 -11.55987526 56.51245193 -11.5732674 49.69661726 C-11.58529681 43.5062278 -11.57919284 37.31614168 -11.5581073 31.12577887 C-11.55375609 28.89054005 -11.55622331 26.65527588 -11.56604172 24.42005438 C-11.57834011 21.40142988 -11.56630662 18.38387228 -11.54788809 15.36530235 C-11.55733292 14.49185988 -11.56677776 13.61841742 -11.5765088 12.718507 C-11.5261626 8.65222504 -11.36243262 6.62849957 -9.13893156 3.11214277 C-5.98082679 0.11767992 -4.24992727 0.00180244 0 0 Z " fill="#F79220" transform="translate(949.0453407652676,421.87296549230814)"/>
<path d="M0 0 C1.61665358 -0.00432138 1.61665358 -0.00432138 3.26596684 -0.00873006 C4.46283639 -0.00681186 5.65970594 -0.00489366 6.89284427 -0.00291733 C8.16141473 -0.00481657 9.42998518 -0.00671581 10.73699716 -0.0086726 C14.29157512 -0.0138473 17.84612849 -0.01272543 21.40070861 -0.01065899 C25.2696179 -0.00950265 29.13852088 -0.01412116 33.00742779 -0.01801572 C39.82549731 -0.02406635 46.64356028 -0.02635146 53.46163236 -0.02624258 C63.6686037 -0.02609242 73.87556645 -0.03163114 84.08253534 -0.03828948 C101.47453306 -0.04945531 118.86652961 -0.05577027 136.25853039 -0.05946223 C153.89423522 -0.06321274 171.52993738 -0.06908081 189.1656406 -0.07754008 C190.83377122 -0.07833672 190.83377122 -0.07833672 192.53560143 -0.07914945 C197.06463962 -0.08131608 201.5936778 -0.0834927 206.12271597 -0.08568339 C261.07387498 -0.11220869 316.02503542 -0.12775402 370.97619904 -0.14084628 C388.79061398 -0.14509422 406.60502881 -0.14966181 424.41944362 -0.15442959 C517.00702453 -0.17915235 609.59460583 -0.20122627 702.18218931 -0.21335203 C709.69339563 -0.21433605 717.20460195 -0.21534045 724.71580826 -0.21634771 C725.39309159 -0.21643849 726.07037491 -0.21652926 726.76818198 -0.21662279 C740.49094996 -0.21846268 754.21371794 -0.22032295 767.93648591 -0.22221211 C771.37649585 -0.22268562 774.81650579 -0.22315742 778.25651573 -0.22362502 C843.23461567 -0.23246154 908.21270981 -0.24562108 973.19080425 -0.27457682 C974.21700748 -0.27503381 974.21700748 -0.27503381 975.26394208 -0.27550004 C998.01515875 -0.28564286 1020.76637517 -0.29631395 1043.51759157 -0.30704014 C1064.07420147 -0.31673016 1084.63081142 -0.32629639 1105.18742157 -0.33543459 C1106.20034378 -0.33588515 1106.20034378 -0.33588515 1107.23372907 -0.33634481 C1149.51443976 -0.35512069 1191.79514809 -0.36785717 1234.07586266 -0.3743178 C1235.38132372 -0.37451836 1236.68678479 -0.37471891 1238.03180528 -0.37492555 C1266.6856748 -0.3792755 1295.3395443 -0.38222165 1323.9934141 -0.38385206 C1335.52166594 -0.38452845 1347.04991777 -0.38538397 1358.5781696 -0.38629023 C1359.83990374 -0.38638433 1361.10163787 -0.38647842 1362.40160638 -0.38657537 C1403.09361298 -0.38969123 1443.7855946 -0.40822178 1484.47759219 -0.4346402 C1525.44715948 -0.46115127 1566.41669887 -0.4719486 1607.38627419 -0.46090421 C1613.04067432 -0.45938255 1618.69507448 -0.45803717 1624.34947468 -0.45679728 C1626.01218875 -0.45642269 1626.01218875 -0.45642269 1627.708493 -0.45604053 C1645.29973173 -0.45253797 1662.89091621 -0.46588984 1680.4821419 -0.48617501 C1697.75645444 -0.50574893 1715.03069252 -0.50765893 1732.30500845 -0.49044873 C1742.44757657 -0.48088319 1752.58991627 -0.48517677 1762.73246108 -0.50947108 C1769.45525425 -0.52422307 1776.17787998 -0.52108111 1782.90066462 -0.50294051 C1786.72027158 -0.493148 1790.53942982 -0.49135798 1794.35900629 -0.51149371 C1798.45317107 -0.53290726 1802.54626027 -0.51606447 1806.64042671 -0.49510864 C1807.83012403 -0.50753489 1809.01982136 -0.51996114 1810.24557012 -0.53276395 C1818.1730109 -0.44604793 1818.1730109 -0.44604793 1822.16179877 2.47841845 C1825.37348434 7.22308326 1825.09590512 11.564541 1825.08230973 17.09125724 C1825.0847859 18.49273111 1825.0847859 18.49273111 1825.08731209 19.92251758 C1825.09166515 23.08913063 1825.08882702 26.2556978 1825.086087 29.4223121 C1825.08773531 31.71097211 1825.08982097 33.99963184 1825.0923071 36.28829109 C1825.09790067 42.62889854 1825.09719645 48.96949255 1825.09552951 55.31010169 C1825.09438915 61.48033149 1825.09890285 67.65055852 1825.10279353 73.82078677 C1825.11067804 86.60196766 1825.11375614 99.38314576 1825.11423947 112.1643289 C1825.11474133 125.12319831 1825.11738285 138.08206459 1825.12264706 151.04093298 C1825.12297719 151.85834684 1825.12330733 152.6757607 1825.12364746 153.51794467 C1825.12499741 156.84695474 1825.12636007 160.1759648 1825.12773957 163.50497486 C1825.14405544 202.94854746 1825.15042972 242.39211947 1825.15518744 281.83569487 C1825.15756911 301.4693842 1825.16127226 321.10307319 1825.16522454 340.73676226 C1825.17788966 403.68744106 1825.18867391 466.63811984 1825.19206499 529.58879989 C1825.19222723 532.5984435 1825.19239279 535.60808712 1825.19255938 538.61773073 C1825.19289318 544.65380538 1825.19322366 550.68988003 1825.19355394 556.72595467 C1825.19394084 563.79301099 1825.19433045 570.8600673 1825.194725 577.92712361 C1825.19483742 579.94978662 1825.19494884 581.97244963 1825.19505925 583.99511265 C1825.19860974 648.97512777 1825.21369211 713.95513185 1825.236997 778.93514276 C1825.25373288 825.61799617 1825.26921124 872.30084749 1825.27373196 918.98370393 C1825.27387219 920.42302062 1825.27387219 920.42302062 1825.27401525 921.89141441 C1825.27603406 942.95324388 1825.2771903 964.01507332 1825.27754383 985.07690288 C1825.27768001 992.61276431 1825.27788901 1000.14862573 1825.27813709 1007.68448715 C1825.27819865 1009.55929882 1825.27825697 1011.43411048 1825.27831204 1013.30892215 C1825.27923275 1043.21250828 1825.28921173 1073.11608289 1825.30376952 1103.01966523 C1825.31836905 1133.12936918 1825.32343757 1163.23905898 1825.31534998 1193.34876585 C1825.31423453 1197.50548816 1825.31322389 1201.6622105 1825.31227566 1205.81893285 C1825.31208569 1206.63379751 1825.31189572 1207.44866216 1825.3117 1208.28821969 C1825.30896173 1221.21336691 1825.31632308 1234.13848804 1825.32784903 1247.06362959 C1825.33896214 1259.7597763 1825.33944894 1272.45588597 1825.32847884 1285.15203323 C1825.32289992 1291.94917359 1825.32248701 1298.74621741 1825.33498756 1305.54335153 C1825.34624916 1311.71795297 1825.34388803 1317.89238835 1825.33032049 1324.06698379 C1825.32787021 1326.29541508 1825.33052711 1328.52385884 1825.33871697 1330.75227643 C1825.34906423 1333.7639776 1825.34110801 1336.77508523 1825.32840539 1339.78676429 C1825.33951814 1341.08974076 1825.33951814 1341.08974076 1825.35085538 1342.41903998 C1825.30657132 1347.38318853 1824.75562506 1350.84980819 1821.95465923 1355.12703451 C1818.63809741 1357.33807572 1817.64009473 1357.37746184 1813.78201662 1357.37921285 C1812.70130608 1357.38455227 1811.62059554 1357.38989169 1810.50713619 1357.39539291 C1808.71460629 1357.3889295 1808.71460629 1357.3889295 1806.88586367 1357.38233551 C1805.6153207 1357.38563706 1804.34477774 1357.38893862 1803.03573347 1357.39234023 C1799.48025658 1357.40128747 1795.92488315 1357.3976658 1792.36940332 1357.39213666 C1788.49779768 1357.38830766 1784.62621273 1357.39604574 1780.7546127 1357.40233024 C1773.93334998 1357.41178189 1767.11211629 1357.41372037 1760.2908481 1357.41087355 C1750.07911378 1357.40664304 1739.86740966 1357.41384127 1729.65568 1357.4233031 C1712.25518853 1357.43907602 1694.85470525 1357.4452285 1677.45420719 1357.44619497 C1659.81085697 1357.44719854 1642.16751594 1357.45248008 1624.52416874 1357.46301015 C1623.41144303 1357.46367042 1622.29871733 1357.46433069 1621.15227266 1357.46501096 C1616.62060736 1357.46771085 1612.08894207 1357.47043617 1607.55727681 1357.47319517 C1553.85880266 1357.50583036 1500.16033026 1357.51857583 1446.46184788 1357.52809091 C1419.7342201 1357.53285381 1393.00659332 1357.54026001 1366.2789663 1357.54816511 C1279.90715165 1357.57369707 1193.53533726 1357.59518504 1107.16351902 1357.60200771 C1103.74888548 1357.60227887 1100.33425195 1357.60255693 1096.91961842 1357.60283479 C1091.44506018 1357.60327975 1085.97050194 1357.60372248 1080.49594371 1357.60416255 C1079.47834847 1357.60424437 1079.47834847 1357.60424437 1078.44019575 1357.60432783 C1077.06909728 1357.60443806 1075.69799882 1357.60454828 1074.32690035 1357.60465849 C1064.70890005 1357.60543173 1055.09089975 1357.60620762 1045.47289944 1357.60699675 C1042.03136006 1357.60727897 1038.58982069 1357.60755912 1035.14828131 1357.60783455 C970.14011125 1357.6130437 905.13195074 1357.62370904 840.12378765 1357.65559896 C839.43931438 1357.65593455 838.7548411 1357.65627013 838.04962621 1357.65661589 C816.66347812 1357.66711738 795.27733037 1357.67826606 773.89118267 1357.68953451 C751.9478673 1357.70109618 730.00455188 1357.71255715 708.06123615 1357.72344717 C707.38561528 1357.72378278 706.70999441 1357.7241184 706.01390017 1357.72446418 C663.7120205 1357.74544488 621.41014464 1357.75916094 579.10825993 1357.76517995 C577.80215005 1357.76536693 576.49604017 1357.7655539 575.1503512 1357.76574654 C546.48229092 1357.76978404 517.81423074 1357.77209662 489.1461702 1357.77280371 C478.88899403 1357.77307607 468.63181787 1357.77349406 458.37464171 1357.77399021 C455.82278787 1357.77411333 453.27093404 1357.77422997 450.7190802 1357.77434011 C410.00756516 1357.77618194 369.29608394 1357.79614472 328.58458004 1357.82525508 C287.59601809 1357.85444638 246.6074977 1357.864596 205.6189272 1357.848416 C199.96193548 1357.84618506 194.3049437 1357.84416379 188.64795185 1357.84226736 C187.53896839 1357.84188742 186.42998492 1357.84150749 185.2873959 1357.84111604 C167.68810578 1357.83563682 150.08889222 1357.85037071 132.48961877 1357.87341409 C115.2074322 1357.8956256 97.92535446 1357.89662889 80.64316631 1357.87467372 C70.49596506 1357.86242883 60.34909114 1357.8668072 50.20192034 1357.89517767 C43.47606456 1357.91236064 36.75045142 1357.90807019 30.02461097 1357.88578024 C26.20321145 1357.87373257 22.38245688 1357.87128679 18.56109844 1357.89514997 C14.46493233 1357.92052527 10.37031763 1357.89999453 6.27415312 1357.87452682 C5.08391468 1357.88934381 3.89367623 1357.90416081 2.66736996 1357.9194268 C-6.17932073 1357.80266429 -6.17932073 1357.80266429 -9.27620944 1354.6655423 C-11.53722211 1350.14320366 -11.74007367 1346.75209594 -11.67093592 1341.7634175 C-11.67782327 1340.82236539 -11.68471063 1339.88131328 -11.69180669 1338.91174444 C-11.7088678 1335.73986892 -11.69014106 1332.56920462 -11.67175316 1329.39735063 C-11.67666307 1327.09806461 -11.68376487 1324.7987824 -11.69286712 1322.49950915 C-11.711603 1316.14327911 -11.69896713 1309.78743009 -11.68147718 1303.43121056 C-11.66688748 1297.24167147 -11.68073341 1291.05216097 -11.69146894 1284.86262463 C-11.71285352 1272.04477179 -11.71045161 1259.22702097 -11.69520115 1246.4091638 C-11.67982883 1233.41606146 -11.67529557 1220.42302309 -11.68405269 1207.42991384 C-11.68459808 1206.60987366 -11.68514346 1205.78983348 -11.68570537 1204.9449436 C-11.6879633 1201.6051612 -11.69029986 1198.26537888 -11.69273583 1194.92559661 C-11.71542729 1163.80270427 -11.71358654 1132.67985829 -11.6962521 1101.55696424 C-11.67956431 1071.56052551 -11.67144875 1041.56410792 -11.67548107 1011.56766447 C-11.67572143 1009.68534289 -11.67596062 1007.80302132 -11.67619865 1005.92069975 C-11.67716739 998.3568197 -11.6781898 990.79293967 -11.67928375 983.22905964 C-11.68231269 962.08376674 -11.68363548 940.9384739 -11.68365311 919.79318079 C-11.68365437 918.83020367 -11.68365564 917.86722656 -11.68365694 916.87506833 C-11.68357681 886.18158781 -11.6760214 855.48811384 -11.66324638 824.79463609 C-11.6628327 823.79883611 -11.66241901 822.80303612 -11.66199279 821.77706038 C-11.65524886 805.60495734 -11.64809533 789.43285448 -11.64091355 773.26075163 C-11.61245387 709.11403524 -11.6064877 644.96735881 -11.62175678 580.82063802 C-11.62271621 576.76699591 -11.62367322 572.71335379 -11.62462949 568.65971167 C-11.62486596 567.65746921 -11.62510243 566.65522674 -11.62534606 565.62261329 C-11.62795879 554.523572 -11.63049136 543.42453069 -11.63292717 532.32548936 C-11.63314698 531.33021028 -11.6333668 530.33493119 -11.63359327 529.30949213 C-11.64031378 498.6476922 -11.64203682 467.98589554 -11.63816665 437.32409509 C-11.6380452 436.36183472 -11.63792374 435.39957435 -11.6377986 434.40815458 C-11.63507076 413.28713947 -11.63100794 392.16612475 -11.62575295 371.04511012 C-11.6238745 363.48822599 -11.62204807 355.93134185 -11.62022741 348.37445771 C-11.61954316 345.55593445 -11.61884162 342.73741119 -11.6181399 339.91888794 C-11.61308184 319.28960527 -11.61076515 298.66032702 -11.61557435 278.03104409 C-11.61579103 277.10065601 -11.61600771 276.17026793 -11.61623095 275.21168628 C-11.61733983 270.52697553 -11.61849881 265.8422648 -11.61967936 261.15755407 C-11.62819826 227.33138296 -11.6240487 193.50525577 -11.59691226 159.67909302 C-11.5942975 156.35031342 -11.59174406 153.02153379 -11.58923839 149.69275411 C-11.58861724 148.87578934 -11.58799609 148.05882456 -11.58735611 147.21710327 C-11.57785693 134.25584125 -11.58177001 121.2946192 -11.59118124 108.33335857 C-11.60013846 95.60352838 -11.59488934 82.8737707 -11.57428885 70.14395328 C-11.56364618 63.328119 -11.55987526 56.51245193 -11.5732674 49.69661726 C-11.58529681 43.5062278 -11.57919284 37.31614168 -11.5581073 31.12577887 C-11.55375609 28.89054005 -11.55622331 26.65527588 -11.56604172 24.42005438 C-11.57834011 21.40142988 -11.56630662 18.38387228 -11.54788809 15.36530235 C-11.55733292 14.49185988 -11.56677776 13.61841742 -11.5765088 12.718507 C-11.5261626 8.65222504 -11.36243262 6.62849957 -9.13893156 3.11214277 C-5.98082679 0.11767992 -4.24992727 0.00180244 0 0 Z M8.95465923 21.12703451 C8.95465923 399.63703451 8.95465923 778.14703451 8.95465923 1168.12703451 C601.30465923 1168.12703451 1193.65465923 1168.12703451 1803.95465923 1168.12703451 C1803.95465923 789.61703451 1803.95465923 411.10703451 1803.95465923 21.12703451 C1211.60465923 21.12703451 619.25465923 21.12703451 8.95465923 21.12703451 Z " fill="#F35C27" transform="translate(949.0453407652676,421.87296549230814)"/>
<path d="M0 0 C1.61665358 -0.00432138 1.61665358 -0.00432138 3.26596684 -0.00873006 C4.46283639 -0.00681186 5.65970594 -0.00489366 6.89284427 -0.00291733 C8.16141473 -0.00481657 9.42998518 -0.00671581 10.73699716 -0.0086726 C14.29157512 -0.0138473 17.84612849 -0.01272543 21.40070861 -0.01065899 C25.2696179 -0.00950265 29.13852088 -0.01412116 33.00742779 -0.01801572 C39.82549731 -0.02406635 46.64356028 -0.02635146 53.46163236 -0.02624258 C63.6686037 -0.02609242 73.87556645 -0.03163114 84.08253534 -0.03828948 C101.47453306 -0.04945531 118.86652961 -0.05577027 136.25853039 -0.05946223 C153.89423522 -0.06321274 171.52993738 -0.06908081 189.1656406 -0.07754008 C190.83377122 -0.07833672 190.83377122 -0.07833672 192.53560143 -0.07914945 C197.06463962 -0.08131608 201.5936778 -0.0834927 206.12271597 -0.08568339 C261.07387498 -0.11220869 316.02503542 -0.12775402 370.97619904 -0.14084628 C388.79061398 -0.14509422 406.60502881 -0.14966181 424.41944362 -0.15442959 C517.00702453 -0.17915235 609.59460583 -0.20122627 702.18218931 -0.21335203 C709.69339563 -0.21433605 717.20460195 -0.21534045 724.71580826 -0.21634771 C725.39309159 -0.21643849 726.07037491 -0.21652926 726.76818198 -0.21662279 C740.49094996 -0.21846268 754.21371794 -0.22032295 767.93648591 -0.22221211 C771.37649585 -0.22268562 774.81650579 -0.22315742 778.25651573 -0.22362502 C843.23461567 -0.23246154 908.21270981 -0.24562108 973.19080425 -0.27457682 C974.21700748 -0.27503381 974.21700748 -0.27503381 975.26394208 -0.27550004 C998.01515875 -0.28564286 1020.76637517 -0.29631395 1043.51759157 -0.30704014 C1064.07420147 -0.31673016 1084.63081142 -0.32629639 1105.18742157 -0.33543459 C1106.20034378 -0.33588515 1106.20034378 -0.33588515 1107.23372907 -0.33634481 C1149.51443976 -0.35512069 1191.79514809 -0.36785717 1234.07586266 -0.3743178 C1235.38132372 -0.37451836 1236.68678479 -0.37471891 1238.03180528 -0.37492555 C1266.6856748 -0.3792755 1295.3395443 -0.38222165 1323.9934141 -0.38385206 C1335.52166594 -0.38452845 1347.04991777 -0.38538397 1358.5781696 -0.38629023 C1359.83990374 -0.38638433 1361.10163787 -0.38647842 1362.40160638 -0.38657537 C1403.09361298 -0.38969123 1443.7855946 -0.40822178 1484.47759219 -0.4346402 C1525.44715948 -0.46115127 1566.41669887 -0.4719486 1607.38627419 -0.46090421 C1613.04067432 -0.45938255 1618.69507448 -0.45803717 1624.34947468 -0.45679728 C1626.01218875 -0.45642269 1626.01218875 -0.45642269 1627.708493 -0.45604053 C1645.29973173 -0.45253797 1662.89091621 -0.46588984 1680.4821419 -0.48617501 C1697.75645444 -0.50574893 1715.03069252 -0.50765893 1732.30500845 -0.49044873 C1742.44757657 -0.48088319 1752.58991627 -0.48517677 1762.73246108 -0.50947108 C1769.45525425 -0.52422307 1776.17787998 -0.52108111 1782.90066462 -0.50294051 C1786.72027158 -0.493148 1790.53942982 -0.49135798 1794.35900629 -0.51149371 C1798.45317107 -0.53290726 1802.54626027 -0.51606447 1806.64042671 -0.49510864 C1807.83012403 -0.50753489 1809.01982136 -0.51996114 1810.24557012 -0.53276395 C1818.1730109 -0.44604793 1818.1730109 -0.44604793 1822.16179877 2.47841845 C1825.37348434 7.22308326 1825.09590512 11.564541 1825.08230973 17.09125724 C1825.0847859 18.49273111 1825.0847859 18.49273111 1825.08731209 19.92251758 C1825.09166515 23.08913063 1825.08882702 26.2556978 1825.086087 29.4223121 C1825.08773531 31.71097211 1825.08982097 33.99963184 1825.0923071 36.28829109 C1825.09790067 42.62889854 1825.09719645 48.96949255 1825.09552951 55.31010169 C1825.09438915 61.48033149 1825.09890285 67.65055852 1825.10279353 73.82078677 C1825.11067804 86.60196766 1825.11375614 99.38314576 1825.11423947 112.1643289 C1825.11474133 125.12319831 1825.11738285 138.08206459 1825.12264706 151.04093298 C1825.12297719 151.85834684 1825.12330733 152.6757607 1825.12364746 153.51794467 C1825.12499741 156.84695474 1825.12636007 160.1759648 1825.12773957 163.50497486 C1825.14405544 202.94854746 1825.15042972 242.39211947 1825.15518744 281.83569487 C1825.15756911 301.4693842 1825.16127226 321.10307319 1825.16522454 340.73676226 C1825.17788966 403.68744106 1825.18867391 466.63811984 1825.19206499 529.58879989 C1825.19222723 532.5984435 1825.19239279 535.60808712 1825.19255938 538.61773073 C1825.19289318 544.65380538 1825.19322366 550.68988003 1825.19355394 556.72595467 C1825.19394084 563.79301099 1825.19433045 570.8600673 1825.194725 577.92712361 C1825.19483742 579.94978662 1825.19494884 581.97244963 1825.19505925 583.99511265 C1825.19860974 648.97512777 1825.21369211 713.95513185 1825.236997 778.93514276 C1825.25373288 825.61799617 1825.26921124 872.30084749 1825.27373196 918.98370393 C1825.27387219 920.42302062 1825.27387219 920.42302062 1825.27401525 921.89141441 C1825.27603406 942.95324388 1825.2771903 964.01507332 1825.27754383 985.07690288 C1825.27768001 992.61276431 1825.27788901 1000.14862573 1825.27813709 1007.68448715 C1825.27819865 1009.55929882 1825.27825697 1011.43411048 1825.27831204 1013.30892215 C1825.27923275 1043.21250828 1825.28921173 1073.11608289 1825.30376952 1103.01966523 C1825.31836905 1133.12936918 1825.32343757 1163.23905898 1825.31534998 1193.34876585 C1825.31423453 1197.50548816 1825.31322389 1201.6622105 1825.31227566 1205.81893285 C1825.31208569 1206.63379751 1825.31189572 1207.44866216 1825.3117 1208.28821969 C1825.30896173 1221.21336691 1825.31632308 1234.13848804 1825.32784903 1247.06362959 C1825.33896214 1259.7597763 1825.33944894 1272.45588597 1825.32847884 1285.15203323 C1825.32289992 1291.94917359 1825.32248701 1298.74621741 1825.33498756 1305.54335153 C1825.34624916 1311.71795297 1825.34388803 1317.89238835 1825.33032049 1324.06698379 C1825.32787021 1326.29541508 1825.33052711 1328.52385884 1825.33871697 1330.75227643 C1825.34906423 1333.7639776 1825.34110801 1336.77508523 1825.32840539 1339.78676429 C1825.33951814 1341.08974076 1825.33951814 1341.08974076 1825.35085538 1342.41903998 C1825.30657132 1347.38318853 1824.75562506 1350.84980819 1821.95465923 1355.12703451 C1818.63809741 1357.33807572 1817.64009473 1357.37746184 1813.78201662 1357.37921285 C1812.70130608 1357.38455227 1811.62059554 1357.38989169 1810.50713619 1357.39539291 C1808.71460629 1357.3889295 1808.71460629 1357.3889295 1806.88586367 1357.38233551 C1805.6153207 1357.38563706 1804.34477774 1357.38893862 1803.03573347 1357.39234023 C1799.48025658 1357.40128747 1795.92488315 1357.3976658 1792.36940332 1357.39213666 C1788.49779768 1357.38830766 1784.62621273 1357.39604574 1780.7546127 1357.40233024 C1773.93334998 1357.41178189 1767.11211629 1357.41372037 1760.2908481 1357.41087355 C1750.07911378 1357.40664304 1739.86740966 1357.41384127 1729.65568 1357.4233031 C1712.25518853 1357.43907602 1694.85470525 1357.4452285 1677.45420719 1357.44619497 C1659.81085697 1357.44719854 1642.16751594 1357.45248008 1624.52416874 1357.46301015 C1623.41144303 1357.46367042 1622.29871733 1357.46433069 1621.15227266 1357.46501096 C1616.62060736 1357.46771085 1612.08894207 1357.47043617 1607.55727681 1357.47319517 C1553.85880266 1357.50583036 1500.16033026 1357.51857583 1446.46184788 1357.52809091 C1419.7342201 1357.53285381 1393.00659332 1357.54026001 1366.2789663 1357.54816511 C1279.90715165 1357.57369707 1193.53533726 1357.59518504 1107.16351902 1357.60200771 C1103.74888548 1357.60227887 1100.33425195 1357.60255693 1096.91961842 1357.60283479 C1091.44506018 1357.60327975 1085.97050194 1357.60372248 1080.49594371 1357.60416255 C1079.47834847 1357.60424437 1079.47834847 1357.60424437 1078.44019575 1357.60432783 C1077.06909728 1357.60443806 1075.69799882 1357.60454828 1074.32690035 1357.60465849 C1064.70890005 1357.60543173 1055.09089975 1357.60620762 1045.47289944 1357.60699675 C1042.03136006 1357.60727897 1038.58982069 1357.60755912 1035.14828131 1357.60783455 C970.14011125 1357.6130437 905.13195074 1357.62370904 840.12378765 1357.65559896 C839.43931438 1357.65593455 838.7548411 1357.65627013 838.04962621 1357.65661589 C816.66347812 1357.66711738 795.27733037 1357.67826606 773.89118267 1357.68953451 C751.9478673 1357.70109618 730.00455188 1357.71255715 708.06123615 1357.72344717 C707.38561528 1357.72378278 706.70999441 1357.7241184 706.01390017 1357.72446418 C663.7120205 1357.74544488 621.41014464 1357.75916094 579.10825993 1357.76517995 C577.80215005 1357.76536693 576.49604017 1357.7655539 575.1503512 1357.76574654 C546.48229092 1357.76978404 517.81423074 1357.77209662 489.1461702 1357.77280371 C478.88899403 1357.77307607 468.63181787 1357.77349406 458.37464171 1357.77399021 C455.82278787 1357.77411333 453.27093404 1357.77422997 450.7190802 1357.77434011 C410.00756516 1357.77618194 369.29608394 1357.79614472 328.58458004 1357.82525508 C287.59601809 1357.85444638 246.6074977 1357.864596 205.6189272 1357.848416 C199.96193548 1357.84618506 194.3049437 1357.84416379 188.64795185 1357.84226736 C187.53896839 1357.84188742 186.42998492 1357.84150749 185.2873959 1357.84111604 C167.68810578 1357.83563682 150.08889222 1357.85037071 132.48961877 1357.87341409 C115.2074322 1357.8956256 97.92535446 1357.89662889 80.64316631 1357.87467372 C70.49596506 1357.86242883 60.34909114 1357.8668072 50.20192034 1357.89517767 C43.47606456 1357.91236064 36.75045142 1357.90807019 30.02461097 1357.88578024 C26.20321145 1357.87373257 22.38245688 1357.87128679 18.56109844 1357.89514997 C14.46493233 1357.92052527 10.37031763 1357.89999453 6.27415312 1357.87452682 C5.08391468 1357.88934381 3.89367623 1357.90416081 2.66736996 1357.9194268 C-6.17932073 1357.80266429 -6.17932073 1357.80266429 -9.27620944 1354.6655423 C-11.53722211 1350.14320366 -11.74007367 1346.75209594 -11.67093592 1341.7634175 C-11.67782327 1340.82236539 -11.68471063 1339.88131328 -11.69180669 1338.91174444 C-11.7088678 1335.73986892 -11.69014106 1332.56920462 -11.67175316 1329.39735063 C-11.67666307 1327.09806461 -11.68376487 1324.7987824 -11.69286712 1322.49950915 C-11.711603 1316.14327911 -11.69896713 1309.78743009 -11.68147718 1303.43121056 C-11.66688748 1297.24167147 -11.68073341 1291.05216097 -11.69146894 1284.86262463 C-11.71285352 1272.04477179 -11.71045161 1259.22702097 -11.69520115 1246.4091638 C-11.67982883 1233.41606146 -11.67529557 1220.42302309 -11.68405269 1207.42991384 C-11.68459808 1206.60987366 -11.68514346 1205.78983348 -11.68570537 1204.9449436 C-11.6879633 1201.6051612 -11.69029986 1198.26537888 -11.69273583 1194.92559661 C-11.71542729 1163.80270427 -11.71358654 1132.67985829 -11.6962521 1101.55696424 C-11.67956431 1071.56052551 -11.67144875 1041.56410792 -11.67548107 1011.56766447 C-11.67572143 1009.68534289 -11.67596062 1007.80302132 -11.67619865 1005.92069975 C-11.67716739 998.3568197 -11.6781898 990.79293967 -11.67928375 983.22905964 C-11.68231269 962.08376674 -11.68363548 940.9384739 -11.68365311 919.79318079 C-11.68365437 918.83020367 -11.68365564 917.86722656 -11.68365694 916.87506833 C-11.68357681 886.18158781 -11.6760214 855.48811384 -11.66324638 824.79463609 C-11.6628327 823.79883611 -11.66241901 822.80303612 -11.66199279 821.77706038 C-11.65524886 805.60495734 -11.64809533 789.43285448 -11.64091355 773.26075163 C-11.61245387 709.11403524 -11.6064877 644.96735881 -11.62175678 580.82063802 C-11.62271621 576.76699591 -11.62367322 572.71335379 -11.62462949 568.65971167 C-11.62486596 567.65746921 -11.62510243 566.65522674 -11.62534606 565.62261329 C-11.62795879 554.523572 -11.63049136 543.42453069 -11.63292717 532.32548936 C-11.63314698 531.33021028 -11.6333668 530.33493119 -11.63359327 529.30949213 C-11.64031378 498.6476922 -11.64203682 467.98589554 -11.63816665 437.32409509 C-11.6380452 436.36183472 -11.63792374 435.39957435 -11.6377986 434.40815458 C-11.63507076 413.28713947 -11.63100794 392.16612475 -11.62575295 371.04511012 C-11.6238745 363.48822599 -11.62204807 355.93134185 -11.62022741 348.37445771 C-11.61954316 345.55593445 -11.61884162 342.73741119 -11.6181399 339.91888794 C-11.61308184 319.28960527 -11.61076515 298.66032702 -11.61557435 278.03104409 C-11.61579103 277.10065601 -11.61600771 276.17026793 -11.61623095 275.21168628 C-11.61733983 270.52697553 -11.61849881 265.8422648 -11.61967936 261.15755407 C-11.62819826 227.33138296 -11.6240487 193.50525577 -11.59691226 159.67909302 C-11.5942975 156.35031342 -11.59174406 153.02153379 -11.58923839 149.69275411 C-11.58861724 148.87578934 -11.58799609 148.05882456 -11.58735611 147.21710327 C-11.57785693 134.25584125 -11.58177001 121.2946192 -11.59118124 108.33335857 C-11.60013846 95.60352838 -11.59488934 82.8737707 -11.57428885 70.14395328 C-11.56364618 63.328119 -11.55987526 56.51245193 -11.5732674 49.69661726 C-11.58529681 43.5062278 -11.57919284 37.31614168 -11.5581073 31.12577887 C-11.55375609 28.89054005 -11.55622331 26.65527588 -11.56604172 24.42005438 C-11.57834011 21.40142988 -11.56630662 18.38387228 -11.54788809 15.36530235 C-11.55733292 14.49185988 -11.56677776 13.61841742 -11.5765088 12.718507 C-11.5261626 8.65222504 -11.36243262 6.62849957 -9.13893156 3.11214277 C-5.98082679 0.11767992 -4.24992727 0.00180244 0 0 Z M8.95465923 21.12703451 C8.95465923 399.63703451 8.95465923 778.14703451 8.95465923 1168.12703451 C601.30465923 1168.12703451 1193.65465923 1168.12703451 1803.95465923 1168.12703451 C1803.95465923 789.61703451 1803.95465923 411.10703451 1803.95465923 21.12703451 C1211.60465923 21.12703451 619.25465923 21.12703451 8.95465923 21.12703451 Z M9.95465923 1187.12703451 C9.95465923 1236.29703451 9.95465923 1285.46703451 9.95465923 1336.12703451 C601.97465923 1336.12703451 1193.99465923 1336.12703451 1803.95465923 1336.12703451 C1803.95465923 1286.95703451 1803.95465923 1237.78703451 1803.95465923 1187.12703451 C1211.93465923 1187.12703451 619.91465923 1187.12703451 9.95465923 1187.12703451 Z " fill="#040200" transform="translate(949.0453407652676,421.87296549230814)"/>
<path d="M0 0 C6.55005295 -0.02378353 13.09981502 -0.05538964 19.64970589 -0.10797024 C25.79070962 -0.15668538 31.93134126 -0.1812133 38.07253075 -0.18726063 C40.35598584 -0.1935812 42.63943474 -0.20851676 44.92277336 -0.23243046 C48.06643395 -0.26383727 51.20862922 -0.2642455 54.35240364 -0.2568655 C55.73384969 -0.28147775 55.73384969 -0.28147775 57.14320374 -0.30658722 C61.66446145 -0.26226346 63.49884666 -0.14594196 67.16194344 2.73617649 C69.65840606 6.07391584 69.9745109 7.68635897 69.73130989 11.74362278 C68.37522952 17.28741348 64.90731721 21.79934697 61.72447395 26.45163059 C60.9800183 27.5710819 60.23743672 28.69178167 59.49669075 29.81369114 C57.38615711 32.99958407 55.24367271 36.1632919 53.09947395 39.32663059 C52.15328944 40.74575636 51.20890908 42.16608912 50.2674427 43.58834934 C48.71181469 45.93640188 47.14766544 48.27832338 45.57603645 50.61569309 C40.88959937 57.60894549 36.34273281 64.69525894 31.76402473 71.75924778 C29.08724918 75.88787373 26.40601012 80.01359562 23.72447395 84.13913059 C23.1936219 84.95599339 22.66276985 85.77285618 22.11583138 86.61447239 C17.31392508 94.00141328 12.50028 101.38067715 7.68589973 108.75949192 C3.65102348 114.94460758 -0.37759321 121.13374092 -4.40052605 127.32663059 C-12.18947564 139.31616046 -20.00376736 151.28914161 -27.81654167 163.26315403 C-34.88221423 174.09261436 -41.94292402 184.92521584 -48.98695183 195.76876926 C-53.75381351 203.10514239 -58.53379439 210.43292554 -63.31458855 217.76022434 C-67.34928885 223.94510444 -71.37775305 230.13398697 -75.40052605 236.32663059 C-83.18947564 248.31616046 -91.00376736 260.28914161 -98.81654167 272.26315403 C-100.08891361 274.21330122 -101.36121207 276.16349635 -102.6334362 278.11373997 C-103.88811912 280.03704747 -105.1429998 281.96022597 -106.39808464 283.88327122 C-109.43549072 288.53897398 -112.46713079 293.19824569 -115.48646355 297.86569309 C-132.98520461 324.90785692 -132.98520461 324.90785692 -137.20521355 325.83053684 C-138.47751823 325.85954075 -138.47751823 325.85954075 -139.77552605 325.88913059 C-141.04009636 325.95293919 -141.04009636 325.95293919 -142.33021355 326.01803684 C-146.16911733 324.98538339 -147.83359654 322.53278408 -149.90052605 319.32663059 C-151.77034603 315.99587817 -153.43599845 312.58215258 -155.08802605 309.13913059 C-156.06418258 307.14480407 -157.04207583 305.15132676 -158.0216198 303.15866184 C-158.50743523 302.16817844 -158.99325066 301.17769505 -159.49378777 300.157197 C-161.47332308 296.17407787 -163.55417751 292.24915492 -165.65052605 288.32663059 C-170.0474128 280.06600312 -174.23329217 271.70450299 -178.40052605 263.32663059 C-182.87228569 254.33663853 -187.39862274 245.38638697 -192.1231823 236.52584934 C-196.16120127 228.9147149 -199.98213204 221.19604155 -203.81782341 213.48178196 C-207.41006196 206.26081351 -211.04315693 199.06860735 -214.83802605 191.95163059 C-219.17454233 183.81702454 -223.29541177 175.57947411 -227.40052605 167.32663059 C-231.48492034 159.11547355 -235.58364347 150.91895623 -239.90052605 142.82663059 C-244.56573441 134.08134169 -248.97536434 125.2124742 -253.38929558 116.33883762 C-257.14553247 108.79094522 -260.93202433 101.26588974 -264.90052605 93.82663059 C-269.56361305 85.08531835 -273.97144028 76.22058167 -278.3832531 67.35092258 C-282.2658423 59.54886649 -286.18871028 51.77436642 -290.27552605 44.07663059 C-291.05159312 42.60528983 -291.82763537 41.13393596 -292.60365105 39.66256809 C-293.79024246 37.41542218 -294.98365141 35.17276693 -296.19154167 32.93698215 C-297.48663719 30.53386047 -298.75763426 28.11919116 -300.02552605 25.70163059 C-300.41659538 24.99103489 -300.80766472 24.28043919 -301.21058464 23.54831028 C-303.47306855 19.17575376 -304.38043632 15.39635496 -304.62269402 10.48922825 C-303.41534321 6.87370648 -301.21097367 4.98515795 -297.90052605 3.32663059 C-293.24143295 2.53841837 -288.61342273 2.54841757 -283.89613152 2.53170872 C-282.50500393 2.50967447 -281.11390803 2.48555159 -279.7228508 2.45945072 C-276.13962943 2.3982076 -272.55679732 2.36607727 -268.97315311 2.34251881 C-265.79185563 2.31813182 -262.61093899 2.27038249 -259.42988396 2.22482395 C-251.94366219 2.12771774 -244.45754849 2.08494155 -236.97083855 2.04538059 C-234.18868732 2.02799592 -231.40654546 2.00928551 -228.624403 1.99055576 C-222.7755588 1.95171312 -216.92670452 1.91530465 -211.07783318 1.88079929 C-196.49046339 1.79455138 -181.90317175 1.69624561 -167.31589079 1.59621024 C-165.02628428 1.58054203 -162.73667678 1.56502447 -160.44706917 1.54951763 C-138.92093246 1.4030119 -117.39704739 1.18551267 -95.87275696 0.86460209 C-63.9175127 0.3891335 -31.95846986 0.11559256 0 0 Z " fill="#F35C27" transform="translate(2197.900526046753,503.6733694076538)"/>
<path d="M0 0 C6.55005295 -0.02378353 13.09981502 -0.05538964 19.64970589 -0.10797024 C25.79070962 -0.15668538 31.93134126 -0.1812133 38.07253075 -0.18726063 C40.35598584 -0.1935812 42.63943474 -0.20851676 44.92277336 -0.23243046 C48.06643395 -0.26383727 51.20862922 -0.2642455 54.35240364 -0.2568655 C55.73384969 -0.28147775 55.73384969 -0.28147775 57.14320374 -0.30658722 C61.66446145 -0.26226346 63.49884666 -0.14594196 67.16194344 2.73617649 C69.65840606 6.07391584 69.9745109 7.68635897 69.73130989 11.74362278 C68.37522952 17.28741348 64.90731721 21.79934697 61.72447395 26.45163059 C60.9800183 27.5710819 60.23743672 28.69178167 59.49669075 29.81369114 C57.38615711 32.99958407 55.24367271 36.1632919 53.09947395 39.32663059 C52.15328944 40.74575636 51.20890908 42.16608912 50.2674427 43.58834934 C48.71181469 45.93640188 47.14766544 48.27832338 45.57603645 50.61569309 C40.88959937 57.60894549 36.34273281 64.69525894 31.76402473 71.75924778 C29.08724918 75.88787373 26.40601012 80.01359562 23.72447395 84.13913059 C23.1936219 84.95599339 22.66276985 85.77285618 22.11583138 86.61447239 C17.31392508 94.00141328 12.50028 101.38067715 7.68589973 108.75949192 C3.65102348 114.94460758 -0.37759321 121.13374092 -4.40052605 127.32663059 C-12.18947564 139.31616046 -20.00376736 151.28914161 -27.81654167 163.26315403 C-34.88221423 174.09261436 -41.94292402 184.92521584 -48.98695183 195.76876926 C-53.75381351 203.10514239 -58.53379439 210.43292554 -63.31458855 217.76022434 C-67.34928885 223.94510444 -71.37775305 230.13398697 -75.40052605 236.32663059 C-83.18947564 248.31616046 -91.00376736 260.28914161 -98.81654167 272.26315403 C-100.08891361 274.21330122 -101.36121207 276.16349635 -102.6334362 278.11373997 C-103.88811912 280.03704747 -105.1429998 281.96022597 -106.39808464 283.88327122 C-109.43549072 288.53897398 -112.46713079 293.19824569 -115.48646355 297.86569309 C-132.98520461 324.90785692 -132.98520461 324.90785692 -137.20521355 325.83053684 C-138.47751823 325.85954075 -138.47751823 325.85954075 -139.77552605 325.88913059 C-141.04009636 325.95293919 -141.04009636 325.95293919 -142.33021355 326.01803684 C-146.16911733 324.98538339 -147.83359654 322.53278408 -149.90052605 319.32663059 C-151.77034603 315.99587817 -153.43599845 312.58215258 -155.08802605 309.13913059 C-156.06418258 307.14480407 -157.04207583 305.15132676 -158.0216198 303.15866184 C-158.50743523 302.16817844 -158.99325066 301.17769505 -159.49378777 300.157197 C-161.47332308 296.17407787 -163.55417751 292.24915492 -165.65052605 288.32663059 C-170.0474128 280.06600312 -174.23329217 271.70450299 -178.40052605 263.32663059 C-182.87228569 254.33663853 -187.39862274 245.38638697 -192.1231823 236.52584934 C-196.16120127 228.9147149 -199.98213204 221.19604155 -203.81782341 213.48178196 C-207.41006196 206.26081351 -211.04315693 199.06860735 -214.83802605 191.95163059 C-219.17454233 183.81702454 -223.29541177 175.57947411 -227.40052605 167.32663059 C-231.48492034 159.11547355 -235.58364347 150.91895623 -239.90052605 142.82663059 C-244.56573441 134.08134169 -248.97536434 125.2124742 -253.38929558 116.33883762 C-257.14553247 108.79094522 -260.93202433 101.26588974 -264.90052605 93.82663059 C-269.56361305 85.08531835 -273.97144028 76.22058167 -278.3832531 67.35092258 C-282.2658423 59.54886649 -286.18871028 51.77436642 -290.27552605 44.07663059 C-291.05159312 42.60528983 -291.82763537 41.13393596 -292.60365105 39.66256809 C-293.79024246 37.41542218 -294.98365141 35.17276693 -296.19154167 32.93698215 C-297.48663719 30.53386047 -298.75763426 28.11919116 -300.02552605 25.70163059 C-300.41659538 24.99103489 -300.80766472 24.28043919 -301.21058464 23.54831028 C-303.47306855 19.17575376 -304.38043632 15.39635496 -304.62269402 10.48922825 C-303.41534321 6.87370648 -301.21097367 4.98515795 -297.90052605 3.32663059 C-293.24143295 2.53841837 -288.61342273 2.54841757 -283.89613152 2.53170872 C-282.50500393 2.50967447 -281.11390803 2.48555159 -279.7228508 2.45945072 C-276.13962943 2.3982076 -272.55679732 2.36607727 -268.97315311 2.34251881 C-265.79185563 2.31813182 -262.61093899 2.27038249 -259.42988396 2.22482395 C-251.94366219 2.12771774 -244.45754849 2.08494155 -236.97083855 2.04538059 C-234.18868732 2.02799592 -231.40654546 2.00928551 -228.624403 1.99055576 C-222.7755588 1.95171312 -216.92670452 1.91530465 -211.07783318 1.88079929 C-196.49046339 1.79455138 -181.90317175 1.69624561 -167.31589079 1.59621024 C-165.02628428 1.58054203 -162.73667678 1.56502447 -160.44706917 1.54951763 C-138.92093246 1.4030119 -117.39704739 1.18551267 -95.87275696 0.86460209 C-63.9175127 0.3891335 -31.95846986 0.11559256 0 0 Z " fill="#F35C27" transform="translate(1312.900526046753,503.6733694076538)"/>
<path d="M0 0 C10.77613997 -0.08787627 21.55220981 -0.15755261 32.32861519 -0.20309544 C37.81443522 -0.22663219 43.29990009 -0.25816817 48.78552246 -0.31106567 C53.82193961 -0.359305 58.85790891 -0.38424217 63.89454842 -0.39035606 C65.71826285 -0.39663229 67.54197147 -0.41143989 69.36553764 -0.43552589 C71.83776933 -0.46689586 74.30814216 -0.46736248 76.78051758 -0.45996094 C77.84725897 -0.48457319 77.84725897 -0.48457319 78.93555069 -0.50968266 C84.52047056 -0.43957725 86.82722683 1.28928616 90.59423828 5.12353516 C91.99669888 9.48353626 90.85312449 13.49491172 89.15283203 17.62353516 C88.46591929 18.80215943 87.75735536 19.96833641 87.03173828 21.12353516 C86.63752686 21.78740234 86.24331543 22.45126953 85.8371582 23.13525391 C84.94249621 24.63539082 84.03833252 26.12988793 83.12646484 27.61962891 C81.44929307 30.36039909 79.79769698 33.11559061 78.14892578 35.87353516 C75.60033509 40.13324037 73.04293202 44.38749336 70.48095703 48.63916016 C66.84441213 54.68895842 63.26825896 60.77205962 59.71923828 66.87353516 C59.15301758 67.84685791 58.58679687 68.82018066 58.00341797 69.82299805 C56.82406209 71.85098312 55.64486637 73.87906134 54.46582031 75.90722656 C51.03847765 81.79710554 47.60015682 87.68054211 44.15673828 93.56103516 C43.79875153 94.17244354 43.44076477 94.78385193 43.07192993 95.41378784 C37.46050808 104.99208695 31.77009666 114.52072434 26.04321289 124.03051758 C20.08795296 133.93386798 14.27355644 143.9169057 8.46582031 153.90722656 C5.03847765 159.79710554 1.60015682 165.68054211 -1.84326172 171.56103516 C-2.20124847 172.17244354 -2.55923523 172.78385193 -2.92807007 173.41378784 C-8.53949192 182.99208695 -14.22990334 192.52072434 -19.95678711 202.03051758 C-25.91204704 211.93386798 -31.72644356 221.9169057 -37.53417969 231.90722656 C-40.96152235 237.79710554 -44.39984318 243.68054211 -47.84326172 249.56103516 C-48.20124847 250.17244354 -48.55923523 250.78385193 -48.92807007 251.41378784 C-54.53103303 260.97764823 -60.20911436 270.49424843 -65.93261719 279.98657227 C-70.93417077 288.29595022 -75.82845886 296.66515037 -80.66430664 305.07202148 C-89.97500656 321.16969838 -89.97500656 321.16969838 -94.40576172 324.12353516 C-98.48601308 324.66243628 -100.65361049 324.59522321 -104.17138672 322.38916016 C-109.03581973 318.09139836 -111.76220849 312.04983364 -114.84326172 306.43603516 C-115.54560891 305.17828306 -116.24932748 303.92129589 -116.9543457 302.66503906 C-118.4032046 300.08187576 -119.84701646 297.49599086 -121.28759766 294.90820312 C-124.45288532 289.23623685 -127.71174648 283.61845579 -130.96826172 277.99853516 C-132.20809456 275.85284598 -133.44767768 273.70701248 -134.68701172 271.56103516 C-135.29931641 270.50142578 -135.91162109 269.44181641 -136.54248047 268.35009766 C-138.42611222 265.08829508 -140.30698493 261.82491672 -142.18701172 258.56103516 C-148.23323484 248.066146 -154.29539653 237.58122977 -160.40576172 227.12353516 C-167.15277366 215.57624 -173.83915489 203.99451488 -180.51464844 192.40576172 C-183.64256318 186.97693577 -186.77429903 181.55031509 -189.90576172 176.12353516 C-193.66940091 169.60120241 -197.43220794 163.07839753 -201.19091797 156.55322266 C-207.23631331 146.06121422 -213.29686391 135.5787184 -219.40576172 125.12353516 C-227.42843683 111.39298327 -235.36434431 97.6127555 -243.30126953 83.83251953 C-249.45399172 73.15172382 -255.60773414 62.47196005 -261.82885742 51.83081055 C-263.56290944 48.86298304 -265.29111748 45.89180762 -267.01904297 42.92041016 C-269.30239038 38.99778727 -271.61610907 35.09516023 -273.94873047 31.20166016 C-275.0596654 29.32160416 -276.17035326 27.44140214 -277.28076172 25.56103516 C-277.79920654 24.71049561 -278.31765137 23.85995605 -278.85180664 22.98364258 C-281.65115266 18.20393117 -283.21381423 14.83040602 -282.40576172 9.12353516 C-280.61013767 6.37024495 -279.3532125 4.59726055 -276.40576172 3.12353516 C-274.21299206 2.97231692 -272.01576656 2.88454252 -269.81860352 2.82470703 C-269.13853304 2.80527039 -268.45846256 2.78583374 -267.75778389 2.76580811 C-265.47779102 2.70261745 -263.19768966 2.64708143 -260.91748047 2.59228516 C-260.12021734 2.57174576 -259.32295422 2.55120636 -258.5015316 2.53004456 C-239.39046308 2.03772309 -220.2767181 1.82790332 -201.16056824 1.65101242 C-198.15110441 1.622908 -195.14165269 1.59373139 -192.13220215 1.5642395 C-178.6768366 1.43251117 -165.2214076 1.30898108 -151.76593018 1.18927002 C-145.47525052 1.13327544 -139.18458399 1.07591718 -132.89391899 1.01830292 C-101.68545598 0.73308879 -70.47693552 0.47709013 -39.26779175 0.27862549 C-38.60242979 0.27439213 -37.93706784 0.27015878 -37.2515434 0.26579714 C-33.91429769 0.24458043 -30.57705168 0.22341434 -27.23980522 0.20231628 C-18.15978679 0.14397224 -9.07989953 0.07441869 0 0 Z " fill="#F35C27" transform="translate(2608.40576171875,502.87646484375)"/>
<path d="M0 0 C10.77613997 -0.08787627 21.55220981 -0.15755261 32.32861519 -0.20309544 C37.81443522 -0.22663219 43.29990009 -0.25816817 48.78552246 -0.31106567 C53.82193961 -0.359305 58.85790891 -0.38424217 63.89454842 -0.39035606 C65.71826285 -0.39663229 67.54197147 -0.41143989 69.36553764 -0.43552589 C71.83776933 -0.46689586 74.30814216 -0.46736248 76.78051758 -0.45996094 C77.84725897 -0.48457319 77.84725897 -0.48457319 78.93555069 -0.50968266 C84.52047056 -0.43957725 86.82722683 1.28928616 90.59423828 5.12353516 C91.99669888 9.48353626 90.85312449 13.49491172 89.15283203 17.62353516 C88.46591929 18.80215943 87.75735536 19.96833641 87.03173828 21.12353516 C86.63752686 21.78740234 86.24331543 22.45126953 85.8371582 23.13525391 C84.94249621 24.63539082 84.03833252 26.12988793 83.12646484 27.61962891 C81.44929307 30.36039909 79.79769698 33.11559061 78.14892578 35.87353516 C75.60033509 40.13324037 73.04293202 44.38749336 70.48095703 48.63916016 C66.84441213 54.68895842 63.26825896 60.77205962 59.71923828 66.87353516 C59.15301758 67.84685791 58.58679687 68.82018066 58.00341797 69.82299805 C56.82406209 71.85098312 55.64486637 73.87906134 54.46582031 75.90722656 C51.03847765 81.79710554 47.60015682 87.68054211 44.15673828 93.56103516 C43.79875153 94.17244354 43.44076477 94.78385193 43.07192993 95.41378784 C37.46050808 104.99208695 31.77009666 114.52072434 26.04321289 124.03051758 C20.08795296 133.93386798 14.27355644 143.9169057 8.46582031 153.90722656 C5.03847765 159.79710554 1.60015682 165.68054211 -1.84326172 171.56103516 C-2.20124847 172.17244354 -2.55923523 172.78385193 -2.92807007 173.41378784 C-8.53949192 182.99208695 -14.22990334 192.52072434 -19.95678711 202.03051758 C-25.91204704 211.93386798 -31.72644356 221.9169057 -37.53417969 231.90722656 C-40.96152235 237.79710554 -44.39984318 243.68054211 -47.84326172 249.56103516 C-48.20124847 250.17244354 -48.55923523 250.78385193 -48.92807007 251.41378784 C-54.53103303 260.97764823 -60.20911436 270.49424843 -65.93261719 279.98657227 C-70.93417077 288.29595022 -75.82845886 296.66515037 -80.66430664 305.07202148 C-89.97500656 321.16969838 -89.97500656 321.16969838 -94.40576172 324.12353516 C-98.48601308 324.66243628 -100.65361049 324.59522321 -104.17138672 322.38916016 C-109.03581973 318.09139836 -111.76220849 312.04983364 -114.84326172 306.43603516 C-115.54560891 305.17828306 -116.24932748 303.92129589 -116.9543457 302.66503906 C-118.4032046 300.08187576 -119.84701646 297.49599086 -121.28759766 294.90820312 C-124.45288532 289.23623685 -127.71174648 283.61845579 -130.96826172 277.99853516 C-132.20809456 275.85284598 -133.44767768 273.70701248 -134.68701172 271.56103516 C-135.29931641 270.50142578 -135.91162109 269.44181641 -136.54248047 268.35009766 C-138.42611222 265.08829508 -140.30698493 261.82491672 -142.18701172 258.56103516 C-148.23323484 248.066146 -154.29539653 237.58122977 -160.40576172 227.12353516 C-167.15277366 215.57624 -173.83915489 203.99451488 -180.51464844 192.40576172 C-183.64256318 186.97693577 -186.77429903 181.55031509 -189.90576172 176.12353516 C-193.66940091 169.60120241 -197.43220794 163.07839753 -201.19091797 156.55322266 C-207.23631331 146.06121422 -213.29686391 135.5787184 -219.40576172 125.12353516 C-227.42843683 111.39298327 -235.36434431 97.6127555 -243.30126953 83.83251953 C-249.45399172 73.15172382 -255.60773414 62.47196005 -261.82885742 51.83081055 C-263.56290944 48.86298304 -265.29111748 45.89180762 -267.01904297 42.92041016 C-269.30239038 38.99778727 -271.61610907 35.09516023 -273.94873047 31.20166016 C-275.0596654 29.32160416 -276.17035326 27.44140214 -277.28076172 25.56103516 C-277.79920654 24.71049561 -278.31765137 23.85995605 -278.85180664 22.98364258 C-281.65115266 18.20393117 -283.21381423 14.83040602 -282.40576172 9.12353516 C-280.61013767 6.37024495 -279.3532125 4.59726055 -276.40576172 3.12353516 C-274.21299206 2.97231692 -272.01576656 2.88454252 -269.81860352 2.82470703 C-269.13853304 2.80527039 -268.45846256 2.78583374 -267.75778389 2.76580811 C-265.47779102 2.70261745 -263.19768966 2.64708143 -260.91748047 2.59228516 C-260.12021734 2.57174576 -259.32295422 2.55120636 -258.5015316 2.53004456 C-239.39046308 2.03772309 -220.2767181 1.82790332 -201.16056824 1.65101242 C-198.15110441 1.622908 -195.14165269 1.59373139 -192.13220215 1.5642395 C-178.6768366 1.43251117 -165.2214076 1.30898108 -151.76593018 1.18927002 C-145.47525052 1.13327544 -139.18458399 1.07591718 -132.89391899 1.01830292 C-101.68545598 0.73308879 -70.47693552 0.47709013 -39.26779175 0.27862549 C-38.60242979 0.27439213 -37.93706784 0.27015878 -37.2515434 0.26579714 C-33.91429769 0.24458043 -30.57705168 0.22341434 -27.23980522 0.20231628 C-18.15978679 0.14397224 -9.07989953 0.07441869 0 0 Z " fill="#F35C27" transform="translate(1738.40576171875,502.87646484375)"/>
<path d="M0 0 C6.55005295 -0.02378353 13.09981502 -0.05538964 19.64970589 -0.10797024 C25.79070962 -0.15668538 31.93134126 -0.1812133 38.07253075 -0.18726063 C40.35598584 -0.1935812 42.63943474 -0.20851676 44.92277336 -0.23243046 C48.06643395 -0.26383727 51.20862922 -0.2642455 54.35240364 -0.2568655 C55.73384969 -0.28147775 55.73384969 -0.28147775 57.14320374 -0.30658722 C61.66446145 -0.26226346 63.49884666 -0.14594196 67.16194344 2.73617649 C69.65840606 6.07391584 69.9745109 7.68635897 69.73130989 11.74362278 C68.37522952 17.28741348 64.90731721 21.79934697 61.72447395 26.45163059 C60.9800183 27.5710819 60.23743672 28.69178167 59.49669075 29.81369114 C57.38615711 32.99958407 55.24367271 36.1632919 53.09947395 39.32663059 C52.15328944 40.74575636 51.20890908 42.16608912 50.2674427 43.58834934 C48.71181469 45.93640188 47.14766544 48.27832338 45.57603645 50.61569309 C40.88959937 57.60894549 36.34273281 64.69525894 31.76402473 71.75924778 C29.08724918 75.88787373 26.40601012 80.01359562 23.72447395 84.13913059 C23.1936219 84.95599339 22.66276985 85.77285618 22.11583138 86.61447239 C17.31392508 94.00141328 12.50028 101.38067715 7.68589973 108.75949192 C3.65102348 114.94460758 -0.37759321 121.13374092 -4.40052605 127.32663059 C-12.18947564 139.31616046 -20.00376736 151.28914161 -27.81654167 163.26315403 C-34.88221423 174.09261436 -41.94292402 184.92521584 -48.98695183 195.76876926 C-53.75381351 203.10514239 -58.53379439 210.43292554 -63.31458855 217.76022434 C-67.34928885 223.94510444 -71.37775305 230.13398697 -75.40052605 236.32663059 C-83.18947564 248.31616046 -91.00376736 260.28914161 -98.81654167 272.26315403 C-100.08891361 274.21330122 -101.36121207 276.16349635 -102.6334362 278.11373997 C-103.88811912 280.03704747 -105.1429998 281.96022597 -106.39808464 283.88327122 C-109.43549072 288.53897398 -112.46713079 293.19824569 -115.48646355 297.86569309 C-132.98520461 324.90785692 -132.98520461 324.90785692 -137.20521355 325.83053684 C-138.47751823 325.85954075 -138.47751823 325.85954075 -139.77552605 325.88913059 C-141.04009636 325.95293919 -141.04009636 325.95293919 -142.33021355 326.01803684 C-146.16911733 324.98538339 -147.83359654 322.53278408 -149.90052605 319.32663059 C-151.77034603 315.99587817 -153.43599845 312.58215258 -155.08802605 309.13913059 C-156.06418258 307.14480407 -157.04207583 305.15132676 -158.0216198 303.15866184 C-158.50743523 302.16817844 -158.99325066 301.17769505 -159.49378777 300.157197 C-161.47332308 296.17407787 -163.55417751 292.24915492 -165.65052605 288.32663059 C-170.0474128 280.06600312 -174.23329217 271.70450299 -178.40052605 263.32663059 C-182.87228569 254.33663853 -187.39862274 245.38638697 -192.1231823 236.52584934 C-196.16120127 228.9147149 -199.98213204 221.19604155 -203.81782341 213.48178196 C-207.41006196 206.26081351 -211.04315693 199.06860735 -214.83802605 191.95163059 C-219.17454233 183.81702454 -223.29541177 175.57947411 -227.40052605 167.32663059 C-231.48492034 159.11547355 -235.58364347 150.91895623 -239.90052605 142.82663059 C-244.56573441 134.08134169 -248.97536434 125.2124742 -253.38929558 116.33883762 C-257.14553247 108.79094522 -260.93202433 101.26588974 -264.90052605 93.82663059 C-269.56361305 85.08531835 -273.97144028 76.22058167 -278.3832531 67.35092258 C-282.2658423 59.54886649 -286.18871028 51.77436642 -290.27552605 44.07663059 C-291.05159312 42.60528983 -291.82763537 41.13393596 -292.60365105 39.66256809 C-293.79024246 37.41542218 -294.98365141 35.17276693 -296.19154167 32.93698215 C-297.48663719 30.53386047 -298.75763426 28.11919116 -300.02552605 25.70163059 C-300.41659538 24.99103489 -300.80766472 24.28043919 -301.21058464 23.54831028 C-303.47306855 19.17575376 -304.38043632 15.39635496 -304.62269402 10.48922825 C-303.41534321 6.87370648 -301.21097367 4.98515795 -297.90052605 3.32663059 C-293.24143295 2.53841837 -288.61342273 2.54841757 -283.89613152 2.53170872 C-282.50500393 2.50967447 -281.11390803 2.48555159 -279.7228508 2.45945072 C-276.13962943 2.3982076 -272.55679732 2.36607727 -268.97315311 2.34251881 C-265.79185563 2.31813182 -262.61093899 2.27038249 -259.42988396 2.22482395 C-251.94366219 2.12771774 -244.45754849 2.08494155 -236.97083855 2.04538059 C-234.18868732 2.02799592 -231.40654546 2.00928551 -228.624403 1.99055576 C-222.7755588 1.95171312 -216.92670452 1.91530465 -211.07783318 1.88079929 C-196.49046339 1.79455138 -181.90317175 1.69624561 -167.31589079 1.59621024 C-165.02628428 1.58054203 -162.73667678 1.56502447 -160.44706917 1.54951763 C-138.92093246 1.4030119 -117.39704739 1.18551267 -95.87275696 0.86460209 C-63.9175127 0.3891335 -31.95846986 0.11559256 0 0 Z M-26.11320496 20.69319439 C-34.89492383 20.81463765 -43.67678267 20.92551058 -52.45863152 21.03707981 C-53.85767281 21.05493516 -53.85767281 21.05493516 -55.28497756 21.07315123 C-79.4493296 21.38063244 -103.61432233 21.62273804 -127.7794323 21.86178684 C-129.99720956 21.88378213 -132.21498682 21.90577894 -134.43276405 21.92777729 C-146.70733926 22.04938566 -158.98192689 22.16970007 -171.25652063 22.28942144 C-182.82269527 22.40227781 -194.3888579 22.51634343 -205.95502007 22.63046944 C-229.6035097 22.86378959 -253.25201275 23.09572224 -276.90052605 23.32663059 C-275.69522913 26.36701167 -274.45757548 29.33830088 -272.99622917 32.26461887 C-272.62824211 33.00374516 -272.26025505 33.74287144 -271.88111687 34.50439548 C-271.4853344 35.2939362 -271.08955193 36.08347691 -270.68177605 36.89694309 C-270.26440178 37.73264835 -269.84702751 38.56835361 -269.41700554 39.42938328 C-268.53033489 41.20340447 -267.64265567 42.97692188 -266.75404167 44.74997044 C-265.43012543 47.39254929 -264.11038641 50.03718123 -262.79115105 52.68209934 C-258.11648011 62.03472677 -253.3484125 71.32931885 -248.45496941 80.56933689 C-244.97023404 87.16053271 -241.61486352 93.80970764 -238.30872917 100.4919138 C-233.93768648 109.32212503 -229.53833335 118.13270708 -224.90052605 126.82663059 C-220.23567124 135.57125673 -215.82634185 144.43943578 -211.4127636 153.3124094 C-207.26874793 161.63956315 -203.05440669 169.9195632 -198.6778698 178.12741184 C-194.63985083 185.73854628 -190.81892006 193.45721963 -186.98322868 201.17147923 C-183.39099014 208.39244768 -179.75789516 215.58465383 -175.96302605 222.70163059 C-171.2812823 231.48382775 -166.85183662 240.38791395 -162.42008781 249.29776096 C-158.11760999 257.94368104 -153.74180294 266.54275967 -149.20765495 275.0700388 C-145.65093462 281.7633884 -142.25022832 288.52740048 -138.90052605 295.32663059 C-136.11522636 291.92960441 -133.58127254 288.46135246 -131.1622448 284.79538059 C-130.46534538 283.74092747 -129.76844597 282.68647434 -129.05042839 281.60006809 C-128.34096062 280.51983372 -127.63149284 279.43959934 -126.90052605 278.32663059 C-126.23101921 277.30827122 -125.56151237 276.28991184 -124.87171745 275.24069309 C-122.81483663 272.10525876 -120.76309243 268.96652428 -118.71302605 265.82663059 C-117.96581237 264.68298185 -117.21857895 263.53934601 -116.47132683 262.39572239 C-111.54013251 254.84684921 -106.62079147 247.29030727 -101.70985222 239.72824192 C-97.65552948 233.48555277 -93.59240402 227.24864719 -89.52552605 221.01413059 C-88.90178093 220.05788792 -88.27803581 219.10164524 -87.63538933 218.11642551 C-84.42498508 213.195154 -81.21376436 208.27441608 -78.00208855 203.35397434 C-72.49573635 194.91646295 -66.99084058 186.47829732 -61.52552605 178.01413059 C-55.83518186 169.20313623 -50.08915287 160.42860449 -44.34641838 151.65171909 C-43.98271141 151.09584614 -43.61900444 150.53997318 -43.24427605 149.96725559 C-42.88016624 149.41077839 -42.51605644 148.85430119 -42.14091301 148.28096104 C-33.34282156 134.83293285 -24.57202145 121.36710462 -15.81800652 107.8903513 C-11.64528339 101.46798059 -7.46140006 95.05293579 -3.27552605 88.63913059 C0.98797146 82.1061091 5.24303765 75.56796293 9.47447395 69.01413059 C13.85090576 62.23874717 18.25412723 55.48094903 22.66642952 48.72888279 C23.74843023 47.07311346 24.82996655 45.41704069 25.91148567 43.76095676 C26.59613899 42.71399632 27.28079231 41.66703587 27.9861927 40.58834934 C28.65827766 39.56016087 29.33036263 38.53197239 30.0228138 37.47262669 C31.46830413 35.2828091 32.92371962 33.10413724 34.39879036 30.93454075 C35.49779671 29.31298069 35.49779671 29.31298069 36.6190052 27.65866184 C37.62024422 26.19456882 37.62024422 26.19456882 38.64171028 24.70089817 C40.27388454 22.50691318 40.27388454 22.50691318 40.09947395 20.32663059 C18.02490424 20.2691004 -4.04080112 20.38745172 -26.11320496 20.69319439 Z " fill="#020100" transform="translate(2197.900526046753,503.6733694076538)"/>
<path d="M0 0 C6.55005295 -0.02378353 13.09981502 -0.05538964 19.64970589 -0.10797024 C25.79070962 -0.15668538 31.93134126 -0.1812133 38.07253075 -0.18726063 C40.35598584 -0.1935812 42.63943474 -0.20851676 44.92277336 -0.23243046 C48.06643395 -0.26383727 51.20862922 -0.2642455 54.35240364 -0.2568655 C55.73384969 -0.28147775 55.73384969 -0.28147775 57.14320374 -0.30658722 C61.66446145 -0.26226346 63.49884666 -0.14594196 67.16194344 2.73617649 C69.65840606 6.07391584 69.9745109 7.68635897 69.73130989 11.74362278 C68.37522952 17.28741348 64.90731721 21.79934697 61.72447395 26.45163059 C60.9800183 27.5710819 60.23743672 28.69178167 59.49669075 29.81369114 C57.38615711 32.99958407 55.24367271 36.1632919 53.09947395 39.32663059 C52.15328944 40.74575636 51.20890908 42.16608912 50.2674427 43.58834934 C48.71181469 45.93640188 47.14766544 48.27832338 45.57603645 50.61569309 C40.88959937 57.60894549 36.34273281 64.69525894 31.76402473 71.75924778 C29.08724918 75.88787373 26.40601012 80.01359562 23.72447395 84.13913059 C23.1936219 84.95599339 22.66276985 85.77285618 22.11583138 86.61447239 C17.31392508 94.00141328 12.50028 101.38067715 7.68589973 108.75949192 C3.65102348 114.94460758 -0.37759321 121.13374092 -4.40052605 127.32663059 C-12.18947564 139.31616046 -20.00376736 151.28914161 -27.81654167 163.26315403 C-34.88221423 174.09261436 -41.94292402 184.92521584 -48.98695183 195.76876926 C-53.75381351 203.10514239 -58.53379439 210.43292554 -63.31458855 217.76022434 C-67.34928885 223.94510444 -71.37775305 230.13398697 -75.40052605 236.32663059 C-83.18947564 248.31616046 -91.00376736 260.28914161 -98.81654167 272.26315403 C-100.08891361 274.21330122 -101.36121207 276.16349635 -102.6334362 278.11373997 C-103.88811912 280.03704747 -105.1429998 281.96022597 -106.39808464 283.88327122 C-109.43549072 288.53897398 -112.46713079 293.19824569 -115.48646355 297.86569309 C-132.98520461 324.90785692 -132.98520461 324.90785692 -137.20521355 325.83053684 C-138.47751823 325.85954075 -138.47751823 325.85954075 -139.77552605 325.88913059 C-141.04009636 325.95293919 -141.04009636 325.95293919 -142.33021355 326.01803684 C-146.16911733 324.98538339 -147.83359654 322.53278408 -149.90052605 319.32663059 C-151.77034603 315.99587817 -153.43599845 312.58215258 -155.08802605 309.13913059 C-156.06418258 307.14480407 -157.04207583 305.15132676 -158.0216198 303.15866184 C-158.50743523 302.16817844 -158.99325066 301.17769505 -159.49378777 300.157197 C-161.47332308 296.17407787 -163.55417751 292.24915492 -165.65052605 288.32663059 C-170.0474128 280.06600312 -174.23329217 271.70450299 -178.40052605 263.32663059 C-182.87228569 254.33663853 -187.39862274 245.38638697 -192.1231823 236.52584934 C-196.16120127 228.9147149 -199.98213204 221.19604155 -203.81782341 213.48178196 C-207.41006196 206.26081351 -211.04315693 199.06860735 -214.83802605 191.95163059 C-219.17454233 183.81702454 -223.29541177 175.57947411 -227.40052605 167.32663059 C-231.48492034 159.11547355 -235.58364347 150.91895623 -239.90052605 142.82663059 C-244.56573441 134.08134169 -248.97536434 125.2124742 -253.38929558 116.33883762 C-257.14553247 108.79094522 -260.93202433 101.26588974 -264.90052605 93.82663059 C-269.56361305 85.08531835 -273.97144028 76.22058167 -278.3832531 67.35092258 C-282.2658423 59.54886649 -286.18871028 51.77436642 -290.27552605 44.07663059 C-291.05159312 42.60528983 -291.82763537 41.13393596 -292.60365105 39.66256809 C-293.79024246 37.41542218 -294.98365141 35.17276693 -296.19154167 32.93698215 C-297.48663719 30.53386047 -298.75763426 28.11919116 -300.02552605 25.70163059 C-300.41659538 24.99103489 -300.80766472 24.28043919 -301.21058464 23.54831028 C-303.47306855 19.17575376 -304.38043632 15.39635496 -304.62269402 10.48922825 C-303.41534321 6.87370648 -301.21097367 4.98515795 -297.90052605 3.32663059 C-293.24143295 2.53841837 -288.61342273 2.54841757 -283.89613152 2.53170872 C-282.50500393 2.50967447 -281.11390803 2.48555159 -279.7228508 2.45945072 C-276.13962943 2.3982076 -272.55679732 2.36607727 -268.97315311 2.34251881 C-265.79185563 2.31813182 -262.61093899 2.27038249 -259.42988396 2.22482395 C-251.94366219 2.12771774 -244.45754849 2.08494155 -236.97083855 2.04538059 C-234.18868732 2.02799592 -231.40654546 2.00928551 -228.624403 1.99055576 C-222.7755588 1.95171312 -216.92670452 1.91530465 -211.07783318 1.88079929 C-196.49046339 1.79455138 -181.90317175 1.69624561 -167.31589079 1.59621024 C-165.02628428 1.58054203 -162.73667678 1.56502447 -160.44706917 1.54951763 C-138.92093246 1.4030119 -117.39704739 1.18551267 -95.87275696 0.86460209 C-63.9175127 0.3891335 -31.95846986 0.11559256 0 0 Z M-26.11320496 20.69319439 C-34.89492383 20.81463765 -43.67678267 20.92551058 -52.45863152 21.03707981 C-53.85767281 21.05493516 -53.85767281 21.05493516 -55.28497756 21.07315123 C-79.4493296 21.38063244 -103.61432233 21.62273804 -127.7794323 21.86178684 C-129.99720956 21.88378213 -132.21498682 21.90577894 -134.43276405 21.92777729 C-146.70733926 22.04938566 -158.98192689 22.16970007 -171.25652063 22.28942144 C-182.82269527 22.40227781 -194.3888579 22.51634343 -205.95502007 22.63046944 C-229.6035097 22.86378959 -253.25201275 23.09572224 -276.90052605 23.32663059 C-275.69522913 26.36701167 -274.45757548 29.33830088 -272.99622917 32.26461887 C-272.62824211 33.00374516 -272.26025505 33.74287144 -271.88111687 34.50439548 C-271.4853344 35.2939362 -271.08955193 36.08347691 -270.68177605 36.89694309 C-270.26440178 37.73264835 -269.84702751 38.56835361 -269.41700554 39.42938328 C-268.53033489 41.20340447 -267.64265567 42.97692188 -266.75404167 44.74997044 C-265.43012543 47.39254929 -264.11038641 50.03718123 -262.79115105 52.68209934 C-258.11648011 62.03472677 -253.3484125 71.32931885 -248.45496941 80.56933689 C-244.97023404 87.16053271 -241.61486352 93.80970764 -238.30872917 100.4919138 C-233.93768648 109.32212503 -229.53833335 118.13270708 -224.90052605 126.82663059 C-220.23567124 135.57125673 -215.82634185 144.43943578 -211.4127636 153.3124094 C-207.26874793 161.63956315 -203.05440669 169.9195632 -198.6778698 178.12741184 C-194.63985083 185.73854628 -190.81892006 193.45721963 -186.98322868 201.17147923 C-183.39099014 208.39244768 -179.75789516 215.58465383 -175.96302605 222.70163059 C-171.2812823 231.48382775 -166.85183662 240.38791395 -162.42008781 249.29776096 C-158.11760999 257.94368104 -153.74180294 266.54275967 -149.20765495 275.0700388 C-145.65093462 281.7633884 -142.25022832 288.52740048 -138.90052605 295.32663059 C-136.11522636 291.92960441 -133.58127254 288.46135246 -131.1622448 284.79538059 C-130.46534538 283.74092747 -129.76844597 282.68647434 -129.05042839 281.60006809 C-128.34096062 280.51983372 -127.63149284 279.43959934 -126.90052605 278.32663059 C-126.23101921 277.30827122 -125.56151237 276.28991184 -124.87171745 275.24069309 C-122.81483663 272.10525876 -120.76309243 268.96652428 -118.71302605 265.82663059 C-117.96581237 264.68298185 -117.21857895 263.53934601 -116.47132683 262.39572239 C-111.54013251 254.84684921 -106.62079147 247.29030727 -101.70985222 239.72824192 C-97.65552948 233.48555277 -93.59240402 227.24864719 -89.52552605 221.01413059 C-88.90178093 220.05788792 -88.27803581 219.10164524 -87.63538933 218.11642551 C-84.42498508 213.195154 -81.21376436 208.27441608 -78.00208855 203.35397434 C-72.49573635 194.91646295 -66.99084058 186.47829732 -61.52552605 178.01413059 C-55.83518186 169.20313623 -50.08915287 160.42860449 -44.34641838 151.65171909 C-43.98271141 151.09584614 -43.61900444 150.53997318 -43.24427605 149.96725559 C-42.88016624 149.41077839 -42.51605644 148.85430119 -42.14091301 148.28096104 C-33.34282156 134.83293285 -24.57202145 121.36710462 -15.81800652 107.8903513 C-11.64528339 101.46798059 -7.46140006 95.05293579 -3.27552605 88.63913059 C0.98797146 82.1061091 5.24303765 75.56796293 9.47447395 69.01413059 C13.85090576 62.23874717 18.25412723 55.48094903 22.66642952 48.72888279 C23.74843023 47.07311346 24.82996655 45.41704069 25.91148567 43.76095676 C26.59613899 42.71399632 27.28079231 41.66703587 27.9861927 40.58834934 C28.65827766 39.56016087 29.33036263 38.53197239 30.0228138 37.47262669 C31.46830413 35.2828091 32.92371962 33.10413724 34.39879036 30.93454075 C35.49779671 29.31298069 35.49779671 29.31298069 36.6190052 27.65866184 C37.62024422 26.19456882 37.62024422 26.19456882 38.64171028 24.70089817 C40.27388454 22.50691318 40.27388454 22.50691318 40.09947395 20.32663059 C18.02490424 20.2691004 -4.04080112 20.38745172 -26.11320496 20.69319439 Z " fill="#020100" transform="translate(1312.900526046753,503.6733694076538)"/>
<path d="M0 0 C10.77613997 -0.08787627 21.55220981 -0.15755261 32.32861519 -0.20309544 C37.81443522 -0.22663219 43.29990009 -0.25816817 48.78552246 -0.31106567 C53.82193961 -0.359305 58.85790891 -0.38424217 63.89454842 -0.39035606 C65.71826285 -0.39663229 67.54197147 -0.41143989 69.36553764 -0.43552589 C71.83776933 -0.46689586 74.30814216 -0.46736248 76.78051758 -0.45996094 C77.84725897 -0.48457319 77.84725897 -0.48457319 78.93555069 -0.50968266 C84.52047056 -0.43957725 86.82722683 1.28928616 90.59423828 5.12353516 C91.99669888 9.48353626 90.85312449 13.49491172 89.15283203 17.62353516 C88.46591929 18.80215943 87.75735536 19.96833641 87.03173828 21.12353516 C86.63752686 21.78740234 86.24331543 22.45126953 85.8371582 23.13525391 C84.94249621 24.63539082 84.03833252 26.12988793 83.12646484 27.61962891 C81.44929307 30.36039909 79.79769698 33.11559061 78.14892578 35.87353516 C75.60033509 40.13324037 73.04293202 44.38749336 70.48095703 48.63916016 C66.84441213 54.68895842 63.26825896 60.77205962 59.71923828 66.87353516 C59.15301758 67.84685791 58.58679687 68.82018066 58.00341797 69.82299805 C56.82406209 71.85098312 55.64486637 73.87906134 54.46582031 75.90722656 C51.03847765 81.79710554 47.60015682 87.68054211 44.15673828 93.56103516 C43.79875153 94.17244354 43.44076477 94.78385193 43.07192993 95.41378784 C37.46050808 104.99208695 31.77009666 114.52072434 26.04321289 124.03051758 C20.08795296 133.93386798 14.27355644 143.9169057 8.46582031 153.90722656 C5.03847765 159.79710554 1.60015682 165.68054211 -1.84326172 171.56103516 C-2.20124847 172.17244354 -2.55923523 172.78385193 -2.92807007 173.41378784 C-8.53949192 182.99208695 -14.22990334 192.52072434 -19.95678711 202.03051758 C-25.91204704 211.93386798 -31.72644356 221.9169057 -37.53417969 231.90722656 C-40.96152235 237.79710554 -44.39984318 243.68054211 -47.84326172 249.56103516 C-48.20124847 250.17244354 -48.55923523 250.78385193 -48.92807007 251.41378784 C-54.53103303 260.97764823 -60.20911436 270.49424843 -65.93261719 279.98657227 C-70.93417077 288.29595022 -75.82845886 296.66515037 -80.66430664 305.07202148 C-89.97500656 321.16969838 -89.97500656 321.16969838 -94.40576172 324.12353516 C-98.48601308 324.66243628 -100.65361049 324.59522321 -104.17138672 322.38916016 C-109.03581973 318.09139836 -111.76220849 312.04983364 -114.84326172 306.43603516 C-115.54560891 305.17828306 -116.24932748 303.92129589 -116.9543457 302.66503906 C-118.4032046 300.08187576 -119.84701646 297.49599086 -121.28759766 294.90820312 C-124.45288532 289.23623685 -127.71174648 283.61845579 -130.96826172 277.99853516 C-132.20809456 275.85284598 -133.44767768 273.70701248 -134.68701172 271.56103516 C-135.29931641 270.50142578 -135.91162109 269.44181641 -136.54248047 268.35009766 C-138.42611222 265.08829508 -140.30698493 261.82491672 -142.18701172 258.56103516 C-148.23323484 248.066146 -154.29539653 237.58122977 -160.40576172 227.12353516 C-167.15277366 215.57624 -173.83915489 203.99451488 -180.51464844 192.40576172 C-183.64256318 186.97693577 -186.77429903 181.55031509 -189.90576172 176.12353516 C-193.66940091 169.60120241 -197.43220794 163.07839753 -201.19091797 156.55322266 C-207.23631331 146.06121422 -213.29686391 135.5787184 -219.40576172 125.12353516 C-227.42843683 111.39298327 -235.36434431 97.6127555 -243.30126953 83.83251953 C-249.45399172 73.15172382 -255.60773414 62.47196005 -261.82885742 51.83081055 C-263.56290944 48.86298304 -265.29111748 45.89180762 -267.01904297 42.92041016 C-269.30239038 38.99778727 -271.61610907 35.09516023 -273.94873047 31.20166016 C-275.0596654 29.32160416 -276.17035326 27.44140214 -277.28076172 25.56103516 C-277.79920654 24.71049561 -278.31765137 23.85995605 -278.85180664 22.98364258 C-281.65115266 18.20393117 -283.21381423 14.83040602 -282.40576172 9.12353516 C-280.61013767 6.37024495 -279.3532125 4.59726055 -276.40576172 3.12353516 C-274.21299206 2.97231692 -272.01576656 2.88454252 -269.81860352 2.82470703 C-269.13853304 2.80527039 -268.45846256 2.78583374 -267.75778389 2.76580811 C-265.47779102 2.70261745 -263.19768966 2.64708143 -260.91748047 2.59228516 C-260.12021734 2.57174576 -259.32295422 2.55120636 -258.5015316 2.53004456 C-239.39046308 2.03772309 -220.2767181 1.82790332 -201.16056824 1.65101242 C-198.15110441 1.622908 -195.14165269 1.59373139 -192.13220215 1.5642395 C-178.6768366 1.43251117 -165.2214076 1.30898108 -151.76593018 1.18927002 C-145.47525052 1.13327544 -139.18458399 1.07591718 -132.89391899 1.01830292 C-101.68545598 0.73308879 -70.47693552 0.47709013 -39.26779175 0.27862549 C-38.60242979 0.27439213 -37.93706784 0.27015878 -37.2515434 0.26579714 C-33.91429769 0.24458043 -30.57705168 0.22341434 -27.23980522 0.20231628 C-18.15978679 0.14397224 -9.07989953 0.07441869 0 0 Z M-175.71826172 22.12353516 C-177.19663694 22.1414563 -177.19663694 22.1414563 -178.70487833 22.15973949 C-203.93870324 22.46592678 -229.17232878 22.78659709 -254.40576172 23.12353516 C-253.45157939 25.04682987 -252.4956826 26.96927406 -251.5390625 28.89135742 C-251.00693146 29.96200943 -250.47480042 31.03266144 -249.92654419 32.13575745 C-248.1839444 35.55932453 -246.30052165 38.79377644 -244.28076172 42.06103516 C-240.58834042 48.10492061 -237.03272863 54.2174223 -233.53076172 60.37353516 C-228.31261253 69.54109084 -223.04561488 78.67889522 -217.75146484 87.80273438 C-216.42089456 90.09743704 -215.09259556 92.3934376 -213.76513672 94.68994141 C-208.74870592 103.36708562 -203.71109801 112.0314963 -198.65576172 120.68603516 C-190.55187201 134.56364041 -182.53099879 148.48878558 -174.51025391 162.41455078 C-167.77554027 174.10565244 -161.02763405 185.78822653 -154.21826172 197.43603516 C-149.34051799 205.78026147 -144.51487449 214.15223854 -139.72875977 222.54931641 C-134.66446509 231.43268407 -129.54369677 240.28259895 -124.40576172 249.12353516 C-123.86161621 250.06100586 -123.3174707 250.99847656 -122.75683594 251.96435547 C-114.75126631 265.75210198 -106.65232401 279.47847374 -98.40576172 293.12353516 C-95.59566809 290.4383237 -93.92192342 287.72586208 -92.03076172 284.31103516 C-88.45249587 277.92421677 -84.76392603 271.60850841 -81.03076172 265.31103516 C-79.89793875 263.39828094 -78.76512619 261.48552056 -77.63232422 259.57275391 C-77.08350586 258.64640137 -76.5346875 257.72004883 -75.96923828 256.765625 C-73.77400388 253.05593938 -71.58901754 249.34027897 -69.40576172 245.62353516 C-65.0238963 238.1668183 -60.62383247 230.72092165 -56.22216797 223.27587891 C-52.9434017 217.72897785 -49.67039559 212.17876459 -46.40576172 206.62353516 C-42.02373791 199.16691103 -37.62383278 191.72092217 -33.22216797 184.27587891 C-29.9434017 178.72897785 -26.67039559 173.17876459 -23.40576172 167.62353516 C-19.02373791 160.16691103 -14.62383278 152.72092217 -10.22216797 145.27587891 C-6.9434017 139.72897785 -3.67039559 134.17876459 -0.40576172 128.62353516 C3.97626209 121.16691103 8.37616722 113.72092217 12.77783203 106.27587891 C16.0565983 100.72897785 19.32960441 95.17876459 22.59423828 89.62353516 C26.41756793 83.11760701 30.25386429 76.6194158 34.09423828 70.12353516 C41.71456822 57.23597673 41.71456822 57.23597673 49.30126953 44.32861328 C50.22943324 42.74568756 51.15932429 41.16377419 52.09033203 39.58251953 C53.63763622 36.95287413 55.17899726 34.3198225 56.71923828 31.68603516 C57.20537598 30.86208252 57.69151367 30.03812988 58.19238281 29.18920898 C58.63694824 28.42632568 59.08151367 27.66344238 59.53955078 26.87744141 C59.93674316 26.20011963 60.33393555 25.52279785 60.74316406 24.82495117 C61.74336081 23.14248589 61.74336081 23.14248589 61.59423828 21.12353516 C41.74010486 21.05879297 21.8859597 21.02046803 2.03173828 20.99853516 C1.26899739 20.99766655 0.50625649 20.99679794 -0.27959776 20.99590302 C-58.76470185 20.93118062 -117.23776128 21.41341349 -175.71826172 22.12353516 Z " fill="#020100" transform="translate(2608.40576171875,502.87646484375)"/>
<path d="M0 0 C10.77613997 -0.08787627 21.55220981 -0.15755261 32.32861519 -0.20309544 C37.81443522 -0.22663219 43.29990009 -0.25816817 48.78552246 -0.31106567 C53.82193961 -0.359305 58.85790891 -0.38424217 63.89454842 -0.39035606 C65.71826285 -0.39663229 67.54197147 -0.41143989 69.36553764 -0.43552589 C71.83776933 -0.46689586 74.30814216 -0.46736248 76.78051758 -0.45996094 C77.84725897 -0.48457319 77.84725897 -0.48457319 78.93555069 -0.50968266 C84.52047056 -0.43957725 86.82722683 1.28928616 90.59423828 5.12353516 C91.99669888 9.48353626 90.85312449 13.49491172 89.15283203 17.62353516 C88.46591929 18.80215943 87.75735536 19.96833641 87.03173828 21.12353516 C86.63752686 21.78740234 86.24331543 22.45126953 85.8371582 23.13525391 C84.94249621 24.63539082 84.03833252 26.12988793 83.12646484 27.61962891 C81.44929307 30.36039909 79.79769698 33.11559061 78.14892578 35.87353516 C75.60033509 40.13324037 73.04293202 44.38749336 70.48095703 48.63916016 C66.84441213 54.68895842 63.26825896 60.77205962 59.71923828 66.87353516 C59.15301758 67.84685791 58.58679687 68.82018066 58.00341797 69.82299805 C56.82406209 71.85098312 55.64486637 73.87906134 54.46582031 75.90722656 C51.03847765 81.79710554 47.60015682 87.68054211 44.15673828 93.56103516 C43.79875153 94.17244354 43.44076477 94.78385193 43.07192993 95.41378784 C37.46050808 104.99208695 31.77009666 114.52072434 26.04321289 124.03051758 C20.08795296 133.93386798 14.27355644 143.9169057 8.46582031 153.90722656 C5.03847765 159.79710554 1.60015682 165.68054211 -1.84326172 171.56103516 C-2.20124847 172.17244354 -2.55923523 172.78385193 -2.92807007 173.41378784 C-8.53949192 182.99208695 -14.22990334 192.52072434 -19.95678711 202.03051758 C-25.91204704 211.93386798 -31.72644356 221.9169057 -37.53417969 231.90722656 C-40.96152235 237.79710554 -44.39984318 243.68054211 -47.84326172 249.56103516 C-48.20124847 250.17244354 -48.55923523 250.78385193 -48.92807007 251.41378784 C-54.53103303 260.97764823 -60.20911436 270.49424843 -65.93261719 279.98657227 C-70.93417077 288.29595022 -75.82845886 296.66515037 -80.66430664 305.07202148 C-89.97500656 321.16969838 -89.97500656 321.16969838 -94.40576172 324.12353516 C-98.48601308 324.66243628 -100.65361049 324.59522321 -104.17138672 322.38916016 C-109.03581973 318.09139836 -111.76220849 312.04983364 -114.84326172 306.43603516 C-115.54560891 305.17828306 -116.24932748 303.92129589 -116.9543457 302.66503906 C-118.4032046 300.08187576 -119.84701646 297.49599086 -121.28759766 294.90820312 C-124.45288532 289.23623685 -127.71174648 283.61845579 -130.96826172 277.99853516 C-132.20809456 275.85284598 -133.44767768 273.70701248 -134.68701172 271.56103516 C-135.29931641 270.50142578 -135.91162109 269.44181641 -136.54248047 268.35009766 C-138.42611222 265.08829508 -140.30698493 261.82491672 -142.18701172 258.56103516 C-148.23323484 248.066146 -154.29539653 237.58122977 -160.40576172 227.12353516 C-167.15277366 215.57624 -173.83915489 203.99451488 -180.51464844 192.40576172 C-183.64256318 186.97693577 -186.77429903 181.55031509 -189.90576172 176.12353516 C-193.66940091 169.60120241 -197.43220794 163.07839753 -201.19091797 156.55322266 C-207.23631331 146.06121422 -213.29686391 135.5787184 -219.40576172 125.12353516 C-227.42843683 111.39298327 -235.36434431 97.6127555 -243.30126953 83.83251953 C-249.45399172 73.15172382 -255.60773414 62.47196005 -261.82885742 51.83081055 C-263.56290944 48.86298304 -265.29111748 45.89180762 -267.01904297 42.92041016 C-269.30239038 38.99778727 -271.61610907 35.09516023 -273.94873047 31.20166016 C-275.0596654 29.32160416 -276.17035326 27.44140214 -277.28076172 25.56103516 C-277.79920654 24.71049561 -278.31765137 23.85995605 -278.85180664 22.98364258 C-281.65115266 18.20393117 -283.21381423 14.83040602 -282.40576172 9.12353516 C-280.61013767 6.37024495 -279.3532125 4.59726055 -276.40576172 3.12353516 C-274.21299206 2.97231692 -272.01576656 2.88454252 -269.81860352 2.82470703 C-269.13853304 2.80527039 -268.45846256 2.78583374 -267.75778389 2.76580811 C-265.47779102 2.70261745 -263.19768966 2.64708143 -260.91748047 2.59228516 C-260.12021734 2.57174576 -259.32295422 2.55120636 -258.5015316 2.53004456 C-239.39046308 2.03772309 -220.2767181 1.82790332 -201.16056824 1.65101242 C-198.15110441 1.622908 -195.14165269 1.59373139 -192.13220215 1.5642395 C-178.6768366 1.43251117 -165.2214076 1.30898108 -151.76593018 1.18927002 C-145.47525052 1.13327544 -139.18458399 1.07591718 -132.89391899 1.01830292 C-101.68545598 0.73308879 -70.47693552 0.47709013 -39.26779175 0.27862549 C-38.60242979 0.27439213 -37.93706784 0.27015878 -37.2515434 0.26579714 C-33.91429769 0.24458043 -30.57705168 0.22341434 -27.23980522 0.20231628 C-18.15978679 0.14397224 -9.07989953 0.07441869 0 0 Z M-175.71826172 22.12353516 C-177.19663694 22.1414563 -177.19663694 22.1414563 -178.70487833 22.15973949 C-203.93870324 22.46592678 -229.17232878 22.78659709 -254.40576172 23.12353516 C-253.45157939 25.04682987 -252.4956826 26.96927406 -251.5390625 28.89135742 C-251.00693146 29.96200943 -250.47480042 31.03266144 -249.92654419 32.13575745 C-248.1839444 35.55932453 -246.30052165 38.79377644 -244.28076172 42.06103516 C-240.58834042 48.10492061 -237.03272863 54.2174223 -233.53076172 60.37353516 C-228.31261253 69.54109084 -223.04561488 78.67889522 -217.75146484 87.80273438 C-216.42089456 90.09743704 -215.09259556 92.3934376 -213.76513672 94.68994141 C-208.74870592 103.36708562 -203.71109801 112.0314963 -198.65576172 120.68603516 C-190.55187201 134.56364041 -182.53099879 148.48878558 -174.51025391 162.41455078 C-167.77554027 174.10565244 -161.02763405 185.78822653 -154.21826172 197.43603516 C-149.34051799 205.78026147 -144.51487449 214.15223854 -139.72875977 222.54931641 C-134.66446509 231.43268407 -129.54369677 240.28259895 -124.40576172 249.12353516 C-123.86161621 250.06100586 -123.3174707 250.99847656 -122.75683594 251.96435547 C-114.75126631 265.75210198 -106.65232401 279.47847374 -98.40576172 293.12353516 C-95.59566809 290.4383237 -93.92192342 287.72586208 -92.03076172 284.31103516 C-88.45249587 277.92421677 -84.76392603 271.60850841 -81.03076172 265.31103516 C-79.89793875 263.39828094 -78.76512619 261.48552056 -77.63232422 259.57275391 C-77.08350586 258.64640137 -76.5346875 257.72004883 -75.96923828 256.765625 C-73.77400388 253.05593938 -71.58901754 249.34027897 -69.40576172 245.62353516 C-65.0238963 238.1668183 -60.62383247 230.72092165 -56.22216797 223.27587891 C-52.9434017 217.72897785 -49.67039559 212.17876459 -46.40576172 206.62353516 C-42.02373791 199.16691103 -37.62383278 191.72092217 -33.22216797 184.27587891 C-29.9434017 178.72897785 -26.67039559 173.17876459 -23.40576172 167.62353516 C-19.02373791 160.16691103 -14.62383278 152.72092217 -10.22216797 145.27587891 C-6.9434017 139.72897785 -3.67039559 134.17876459 -0.40576172 128.62353516 C3.97626209 121.16691103 8.37616722 113.72092217 12.77783203 106.27587891 C16.0565983 100.72897785 19.32960441 95.17876459 22.59423828 89.62353516 C26.41756793 83.11760701 30.25386429 76.6194158 34.09423828 70.12353516 C41.71456822 57.23597673 41.71456822 57.23597673 49.30126953 44.32861328 C50.22943324 42.74568756 51.15932429 41.16377419 52.09033203 39.58251953 C53.63763622 36.95287413 55.17899726 34.3198225 56.71923828 31.68603516 C57.20537598 30.86208252 57.69151367 30.03812988 58.19238281 29.18920898 C58.63694824 28.42632568 59.08151367 27.66344238 59.53955078 26.87744141 C59.93674316 26.20011963 60.33393555 25.52279785 60.74316406 24.82495117 C61.74336081 23.14248589 61.74336081 23.14248589 61.59423828 21.12353516 C41.74010486 21.05879297 21.8859597 21.02046803 2.03173828 20.99853516 C1.26899739 20.99766655 0.50625649 20.99679794 -0.27959776 20.99590302 C-58.76470185 20.93118062 -117.23776128 21.41341349 -175.71826172 22.12353516 Z " fill="#020100" transform="translate(1738.40576171875,502.87646484375)"/>
</svg>
