<?xml version="1.0" encoding="UTF-8"?>
<svg version="1.1" xmlns="http://www.w3.org/2000/svg" width="4000" height="2250">
<path d="M0 0 C1.03491057 -0.00420695 2.06982114 -0.0084139 3.13609263 -0.01274834 C6.6336439 -0.02325848 10.13080335 -0.01224216 13.6283493 -0.00147593 C16.16010983 -0.004603 18.69186902 -0.009045 21.22362518 -0.01468903 C26.76085904 -0.02397841 32.29797264 -0.02386291 37.83520603 -0.0156384 C46.12462937 -0.00338149 54.41398065 -0.0083776 62.70340559 -0.01678632 C76.82935692 -0.03060524 90.95527589 -0.03012713 105.08123016 -0.02194369 C119.40187486 -0.01369792 133.72249825 -0.01194246 148.04314423 -0.01815569 C148.94671761 -0.01854321 149.85029099 -0.01893073 150.78124539 -0.01932999 C154.46119043 -0.02092975 158.14113544 -0.02257587 161.82108044 -0.02428082 C196.12016273 -0.04016073 230.41923074 -0.04121968 264.71831512 -0.03283846 C265.73528375 -0.03259008 266.75225238 -0.03234169 267.80003823 -0.03208578 C268.81862569 -0.03183699 269.83721315 -0.0315882 270.88666689 -0.03133187 C301.8896334 -0.0237693 332.89259399 -0.0218049 363.89556122 -0.0253998 C365.96980021 -0.02563224 368.04403921 -0.02586371 370.11827821 -0.02609421 C378.45330134 -0.02702557 386.78832448 -0.02798157 395.12334761 -0.02897351 C418.42473809 -0.03172484 441.7261286 -0.03343642 465.02751923 -0.03433192 C466.08870398 -0.03437286 467.14988873 -0.03441379 468.24323059 -0.03445597 C502.06887002 -0.03568422 535.89450739 -0.03230096 569.72014618 -0.02578318 C570.81762268 -0.02557243 571.91509918 -0.02536169 573.04583254 -0.02514455 C590.86934473 -0.02170951 608.69285688 -0.01805121 626.51636903 -0.01437403 C697.21121289 0.00019553 767.9060397 -0.0004807 838.60088348 -0.01506579 C856.4152959 -0.01872921 874.22970832 -0.0223623 892.04412079 -0.02578318 C893.14094504 -0.02599453 894.2377693 -0.02620587 895.36783066 -0.02642362 C929.15746996 -0.03288992 962.94710784 -0.03563542 996.73674774 -0.03433192 C997.79715814 -0.03429116 998.85756854 -0.03425041 999.95011259 -0.03420842 C1023.22539898 -0.03327108 1046.50068522 -0.03137035 1069.77597146 -0.02860041 C1078.10364649 -0.02761294 1086.43132152 -0.0266737 1094.75899655 -0.02574828 C1096.83079976 -0.02551611 1098.90260297 -0.02527992 1100.97440618 -0.02503969 C1131.97101619 -0.02145548 1162.96761955 -0.02451489 1193.96422873 -0.03208578 C1195.48968167 -0.03245836 1195.48968167 -0.03245836 1197.04595184 -0.03283846 C1198.06105328 -0.03308651 1199.07615472 -0.03333456 1200.1220168 -0.03359012 C1234.3199588 -0.04185524 1268.51788363 -0.03884042 1302.71582317 -0.02299623 C1306.38425634 -0.02133909 1310.05268953 -0.01972898 1313.72112274 -0.01815569 C1314.62144894 -0.01776507 1315.52177514 -0.01737445 1316.44938395 -0.016972 C1330.73463689 -0.01104309 1345.01986857 -0.01518699 1359.3051196 -0.02346271 C1373.33448294 -0.03137739 1387.36381022 -0.02865171 1401.39316896 -0.01442045 C1409.62933487 -0.00638549 1417.86540218 -0.00663197 1426.10156349 -0.01886524 C1432.19943602 -0.02701422 1438.29718276 -0.01969036 1444.39505005 -0.00609642 C1446.85897261 -0.00305313 1449.32290764 -0.00512975 1451.78682041 -0.01271423 C1455.1128259 -0.02223288 1458.43828737 -0.01352023 1461.76426697 0 C1463.21008442 -0.01075834 1463.21008442 -0.01075834 1464.6851103 -0.02173402 C1470.66189346 0.02815882 1474.01297593 0.91676959 1478.63213348 4.87604749 C1481.33421963 8.11855086 1481.03126439 11.65458034 1481.09307098 15.67682874 C1481.13210541 17.5909657 1481.13210541 17.5909657 1481.17192841 19.5437721 C1481.18517151 20.21971418 1481.19841461 20.89565626 1481.21205902 21.59208143 C1482.30920827 72.62177803 1498.32019526 119.49859051 1531.88213348 158.37604749 C1532.55115692 159.1559303 1533.22018036 159.93581312 1533.90947723 160.73932874 C1544.84143179 173.17773514 1556.49496707 184.6140023 1569.88213348 194.37604749 C1570.92756317 195.14303968 1571.97299286 195.91003187 1573.05010223 196.70026624 C1597.60512344 214.17856084 1624.42031684 226.0290265 1653.88213348 232.37604749 C1654.58531708 232.53057386 1655.28850067 232.68510023 1656.01299286 232.84430921 C1663.8264764 234.5060764 1671.57215392 235.41197361 1679.55010223 235.82526624 C1680.23212204 235.86208005 1680.91414185 235.89889387 1681.61682892 235.93682325 C1685.04266417 236.11804818 1688.46612122 236.27143839 1691.89507294 236.37873304 C1699.62715272 236.7331017 1706.62291152 237.43282694 1712.88213348 242.37604749 C1715.98768741 246.48384144 1716.27734959 249.92797577 1716.12319124 254.90853274 C1716.1110598 255.68422562 1716.09892836 256.45991851 1716.0864293 257.25911724 C1716.03703702 259.96551031 1715.96119857 262.67036367 1715.88213348 265.37604749 C1715.8559364 266.38031334 1715.82973932 267.38457919 1715.80274838 268.41927734 C1715.61553011 275.55138161 1715.39114992 282.68200672 1715.15706286 289.81270918 C1714.92296866 296.95481047 1714.70498557 304.09742306 1714.4853977 311.23998225 C1714.4621913 311.99329373 1714.4389849 312.74660521 1714.41507528 313.52274431 C1712.74722572 367.72490771 1711.47975567 421.90345183 1711.3766098 476.13270032 C1711.3752755 476.81603688 1711.37394121 477.49937343 1711.37256648 478.20341715 C1711.34007774 495.30668592 1711.34133145 512.40989787 1711.35685409 529.51318356 C1711.36733535 541.08595491 1711.36754633 552.65868746 1711.35988808 564.23146093 C1711.35936433 565.0299436 1711.35884058 565.82842626 1711.35830096 566.65110537 C1711.35558545 570.72768754 1711.3527264 574.80426959 1711.34981359 578.88085162 C1711.32937355 607.85030837 1711.32706299 636.81974053 1711.33514786 665.78920209 C1711.34303516 694.35139985 1711.34145031 722.91357523 1711.32831955 751.47577131 C1711.32770504 752.82199295 1711.32770504 752.82199295 1711.32707812 754.19541099 C1711.3229029 763.3121172 1711.31853473 772.42882332 1711.31403885 781.54552938 C1711.30445496 800.98823007 1711.29615019 820.43093127 1711.28842354 839.87363279 C1711.28805428 840.79922795 1711.28768502 841.7248231 1711.28730457 842.6784666 C1711.26994886 886.39688865 1711.26540694 930.11531003 1711.26314259 973.83373511 C1711.26299282 976.72202334 1711.26283926 979.61031158 1711.26268444 982.49859981 C1711.26247779 986.35402631 1711.26227194 990.20945282 1711.262067 994.06487932 C1711.26160408 1002.75957291 1711.26113597 1011.4542665 1711.2606517 1020.14896009 C1711.26054416 1022.08448321 1711.26043763 1024.02000634 1711.26033209 1025.95552946 C1711.25787853 1070.75777735 1711.25058875 1115.56002387 1711.24114665 1160.36227079 C1711.2405321 1163.28192006 1711.2399228 1166.20156933 1711.23931427 1169.1212186 C1711.23012081 1213.09064733 1711.21853553 1257.06007461 1711.20225716 1301.02950132 C1711.20156982 1302.89327118 1711.20088249 1304.75704104 1711.20019516 1306.62081089 C1711.19406418 1323.21119096 1711.18782836 1339.80157099 1711.18107827 1356.39195082 C1711.17665739 1367.26481076 1711.1723745 1378.13767075 1711.16831589 1389.01053083 C1711.16798299 1389.9014406 1711.16765009 1390.79235037 1711.16730711 1391.7102574 C1711.1563692 1421.26169041 1711.15438555 1450.81311706 1711.15699539 1480.36455173 C1711.15866172 1499.28448235 1711.15943346 1518.2044107 1711.15434861 1537.12434089 C1711.15412826 1537.94447132 1711.15390792 1538.76460174 1711.15368089 1539.60958461 C1711.15144634 1547.74510312 1711.14885959 1555.88062145 1711.14580803 1564.0161397 C1711.14432669 1567.98302069 1711.14292585 1571.9499017 1711.14157677 1575.91678274 C1711.14131057 1576.6943473 1711.14104437 1577.47191187 1711.1407701 1578.27303899 C1711.13674395 1590.60907757 1711.13951392 1602.94510512 1711.14511479 1615.28114269 C1711.15048467 1627.39119335 1711.14886352 1639.50122584 1711.13968089 1651.6112744 C1711.13507288 1658.09323834 1711.13374231 1664.57515996 1711.14113955 1671.05712226 C1711.14780383 1676.94164302 1711.14543758 1682.82608531 1711.13558753 1688.71060096 C1711.13366759 1690.83594871 1711.13516527 1692.96130271 1711.14033425 1695.08664504 C1711.14683448 1697.95455266 1711.14119265 1700.82218042 1711.13233984 1703.69007552 C1711.1395864 1704.9380156 1711.1395864 1704.9380156 1711.14697936 1706.2111666 C1711.12232053 1710.06357587 1711.08433706 1713.11618029 1708.88213348 1716.37604749 C1708.22213348 1716.37604749 1707.56213348 1716.37604749 1706.88213348 1716.37604749 C1706.88213348 1717.03604749 1706.88213348 1717.69604749 1706.88213348 1718.37604749 C1701.26746649 1720.75183925 1696.06867695 1720.65880263 1690.08306122 1720.63483655 C1689.00354691 1720.63834119 1687.92403259 1720.64184583 1686.81180573 1720.64545667 C1683.22971446 1720.65427518 1679.64782068 1720.64840825 1676.06572723 1720.64167249 C1673.53651645 1720.64302289 1671.00730592 1720.64496654 1668.47809601 1720.64747083 C1663.14749725 1720.65042537 1657.81696752 1720.64632262 1652.48638153 1720.63678968 C1645.79689718 1720.62495918 1639.10755116 1720.63200273 1632.41806221 1720.64366758 C1600.85038406 1720.69041364 1569.39946478 1720.18865663 1537.88213348 1718.37604749 C1536.51096158 1718.29943204 1535.13977692 1718.22304433 1533.76857758 1718.14692152 C1525.8849419 1717.70275154 1518.00801396 1717.19050997 1510.13213348 1716.62604749 C1508.39470886 1716.50349088 1508.39470886 1716.50349088 1506.62218475 1716.37845838 C1478.96970747 1714.40819902 1451.41948603 1711.55316058 1423.88213348 1708.37604749 C1422.95286041 1708.26947828 1422.02358734 1708.16290906 1421.06615448 1708.05311048 C1323.43506302 1696.82069863 1226.61728965 1675.88814118 1063.88213348 1623.37604749 C1063.15095306 1623.10725782 1062.41977264 1622.83846815 1061.66643524 1622.56153333 C994.64116465 1597.88403097 928.18573667 1569.04515789 865.62822723 1534.52839124 C861.65880429 1532.34051493 857.67132279 1530.19132136 853.66728973 1528.06745374 C838.84346894 1520.19602968 824.35394784 1511.88851756 809.97686005 1503.23639905 C807.12470574 1501.52186641 804.26673522 1499.81767605 801.40557098 1498.11823499 C790.96232456 1491.90582176 780.64680268 1485.51151299 770.40068817 1478.97956312 C767.71274096 1477.26819851 765.02040698 1475.56388555 762.32744598 1473.86042249 C752.87464337 1467.87418797 743.46026622 1461.8442293 734.17900848 1455.59479749 C731.13342493 1453.54516306 728.07175296 1451.52203979 725.00713348 1449.50104749 C717.93237658 1444.78454289 711.01114625 1439.85391872 704.07891083 1434.93171155 C701.95129923 1433.42502772 699.81830965 1431.92636179 697.68291473 1430.43073499 C686.95786482 1422.91240218 676.39261375 1415.19106896 665.88213348 1407.37604749 C664.83992645 1406.60260999 664.83992645 1406.60260999 663.77666473 1405.81354749 C654.46066282 1398.8941186 645.26852604 1391.82538613 636.12432098 1384.68073499 C633.57776082 1382.69226285 631.0245046 1380.71423512 628.45244598 1378.75885999 C620.05660922 1372.37299911 611.9228205 1365.70067885 603.80498505 1358.9668678 C601.25863003 1356.86020843 598.69590961 1354.77395139 596.13213348 1352.68854749 C590.54734127 1348.12454056 585.04823598 1343.46251338 579.55254364 1338.79206312 C577.87837507 1337.37286147 576.19941873 1335.95953978 574.51885223 1334.54792249 C568.69697448 1329.65263968 562.9756747 1324.68221896 557.35088348 1319.55964124 C554.714223 1317.22753173 552.00089783 1315.01835813 549.25713348 1312.81354749 C545.16359584 1309.50302127 541.42465561 1306.02990089 537.75713348 1302.25885999 C535.34078136 1299.83243973 532.77101303 1297.623119 530.17900848 1295.38776624 C524.97714169 1290.83170944 519.94303695 1286.08733172 514.88213348 1281.37604749 C514.23566864 1280.77615003 513.5892038 1280.17625257 512.92314911 1279.5581764 C503.79846898 1271.08243085 494.8549896 1262.45851583 486.12163544 1253.57868421 C482.13220861 1249.5409815 478.04738393 1245.71176885 473.74614716 1242.00861585 C470.99069129 1239.59529124 468.39821998 1237.03818368 465.81963348 1234.43854749 C465.34203583 1233.96481702 464.86443817 1233.49108655 464.37236786 1233.00300062 C461.70681732 1230.33033245 459.18258245 1227.58520982 456.72978973 1224.71589124 C451.90786471 1219.15152078 446.61990466 1214.04360278 441.38213348 1208.87604749 C429.47352334 1197.12708038 429.47352334 1197.12708038 424.35088348 1191.06354749 C422.7703984 1189.24767102 421.10086314 1187.56092908 419.38213348 1185.87604749 C417.08887312 1183.61806806 414.9178532 1181.31608245 412.81963348 1178.87604749 C409.28379064 1174.77094197 405.58878111 1170.82609508 401.88213348 1166.87604749 C397.68236451 1162.39669515 393.51518178 1157.90749338 389.51103973 1153.25104749 C387.54548259 1150.98853568 385.52540039 1148.77914067 383.50713348 1146.56354749 C379.6550805 1142.29645849 376.012755 1137.89501499 372.39775848 1133.42682874 C369.45288193 1129.85548001 366.4249015 1126.36395957 363.38213348 1122.87604749 C358.86838617 1117.69828472 354.45160404 1112.46091664 350.12822723 1107.12214124 C347.56322204 1103.98614359 344.94523698 1100.8987772 342.31963348 1097.81354749 C337.7359395 1092.41382598 333.25557603 1086.94841653 328.88213348 1081.37604749 C328.39937958 1080.76197034 327.91662567 1080.1478932 327.41924286 1079.51520765 C320.03970875 1070.11678648 312.78327667 1060.63352428 305.63652802 1051.0569557 C301.7087155 1045.79705391 297.74156247 1040.56991247 293.74492645 1035.36213148 C286.78563737 1026.28721189 280.022803 1017.11446924 273.50713348 1007.71637952 C271.68089018 1005.08621602 269.84430341 1002.46343338 268.00713348 999.84089124 C259.80816707 988.12081831 251.73938517 976.32775156 243.88213348 964.37604749 C243.0105661 963.05419446 243.0105661 963.05419446 242.1213913 961.70563734 C233.13829789 948.07033169 224.39559483 934.30887079 215.88213348 920.37604749 C215.22986786 919.31257093 214.57760223 918.24909437 213.90557098 917.15339124 C199.41979123 893.52583663 185.50246086 869.63117814 172.40557098 845.20075452 C170.96530586 842.53026294 169.5068929 839.87093587 168.03838348 837.21589124 C154.30755613 812.37437025 141.32649358 787.13115608 129.64141083 761.2613014 C128.04351184 757.72476575 126.42523106 754.19779812 124.80521393 750.67135084 C103.64059531 704.5548418 84.83708521 657.42152438 68.29228973 609.45563734 C67.39667938 606.85920791 66.49215441 604.26656873 65.58135223 601.6753639 C44.49192801 541.63090026 27.81191805 478.97660468 15.86846161 416.49762952 C14.9601127 411.75466404 14.01771548 407.01883227 13.07205963 402.2831825 C7.18221329 372.75806189 2.00244124 343.20048422 -2.11786652 313.37604749 C-2.24679291 312.44927198 -2.3757193 311.52249647 -2.50855255 310.56763685 C-9.78779646 258.08514465 -14.41340963 205.21182343 -16.97498226 152.2959913 C-17.06512367 150.45388606 -17.15718518 148.61187284 -17.25195408 146.76999986 C-18.07502039 130.75868533 -18.2963829 114.77784894 -18.32099152 98.74714124 C-18.32381889 97.48491302 -18.32664627 96.2226848 -18.32955933 94.92220724 C-18.34287612 88.95179823 -18.35284391 82.98141107 -18.35676122 77.01098996 C-18.36127853 70.17182387 -18.37905009 63.33285396 -18.40776181 56.49374753 C-18.43198189 50.51415841 -18.43970415 44.53466266 -18.44143677 38.55501974 C-18.44445889 36.02845203 -18.4524725 33.50188508 -18.46562195 30.97534978 C-18.48264782 27.46089287 -18.48081343 23.94692521 -18.47431183 20.43244398 C-18.48352661 19.39611326 -18.49274139 18.35978254 -18.50223541 17.29204786 C-18.47126984 11.95723382 -18.33784267 7.86632296 -15.11786652 3.37604749 C-10.45765005 -0.46726776 -5.74702015 -0.04276362 0 0 Z " fill="#F79220" transform="translate(1052.1178665161133,194.62395250797272)"/>
<path d="M0 0 C1.03491057 -0.00420695 2.06982114 -0.0084139 3.13609263 -0.01274834 C6.6336439 -0.02325848 10.13080335 -0.01224216 13.6283493 -0.00147593 C16.16010983 -0.004603 18.69186902 -0.009045 21.22362518 -0.01468903 C26.76085904 -0.02397841 32.29797264 -0.02386291 37.83520603 -0.0156384 C46.12462937 -0.00338149 54.41398065 -0.0083776 62.70340559 -0.01678632 C76.82935692 -0.03060524 90.95527589 -0.03012713 105.08123016 -0.02194369 C119.40187486 -0.01369792 133.72249825 -0.01194246 148.04314423 -0.01815569 C148.94671761 -0.01854321 149.85029099 -0.01893073 150.78124539 -0.01932999 C154.46119043 -0.02092975 158.14113544 -0.02257587 161.82108044 -0.02428082 C196.12016273 -0.04016073 230.41923074 -0.04121968 264.71831512 -0.03283846 C265.73528375 -0.03259008 266.75225238 -0.03234169 267.80003823 -0.03208578 C268.81862569 -0.03183699 269.83721315 -0.0315882 270.88666689 -0.03133187 C301.8896334 -0.0237693 332.89259399 -0.0218049 363.89556122 -0.0253998 C365.96980021 -0.02563224 368.04403921 -0.02586371 370.11827821 -0.02609421 C378.45330134 -0.02702557 386.78832448 -0.02798157 395.12334761 -0.02897351 C418.42473809 -0.03172484 441.7261286 -0.03343642 465.02751923 -0.03433192 C466.08870398 -0.03437286 467.14988873 -0.03441379 468.24323059 -0.03445597 C502.06887002 -0.03568422 535.89450739 -0.03230096 569.72014618 -0.02578318 C570.81762268 -0.02557243 571.91509918 -0.02536169 573.04583254 -0.02514455 C590.86934473 -0.02170951 608.69285688 -0.01805121 626.51636903 -0.01437403 C697.21121289 0.00019553 767.9060397 -0.0004807 838.60088348 -0.01506579 C856.4152959 -0.01872921 874.22970832 -0.0223623 892.04412079 -0.02578318 C893.14094504 -0.02599453 894.2377693 -0.02620587 895.36783066 -0.02642362 C929.15746996 -0.03288992 962.94710784 -0.03563542 996.73674774 -0.03433192 C997.79715814 -0.03429116 998.85756854 -0.03425041 999.95011259 -0.03420842 C1023.22539898 -0.03327108 1046.50068522 -0.03137035 1069.77597146 -0.02860041 C1078.10364649 -0.02761294 1086.43132152 -0.0266737 1094.75899655 -0.02574828 C1096.83079976 -0.02551611 1098.90260297 -0.02527992 1100.97440618 -0.02503969 C1131.97101619 -0.02145548 1162.96761955 -0.02451489 1193.96422873 -0.03208578 C1195.48968167 -0.03245836 1195.48968167 -0.03245836 1197.04595184 -0.03283846 C1198.06105328 -0.03308651 1199.07615472 -0.03333456 1200.1220168 -0.03359012 C1234.3199588 -0.04185524 1268.51788363 -0.03884042 1302.71582317 -0.02299623 C1306.38425634 -0.02133909 1310.05268953 -0.01972898 1313.72112274 -0.01815569 C1314.62144894 -0.01776507 1315.52177514 -0.01737445 1316.44938395 -0.016972 C1330.73463689 -0.01104309 1345.01986857 -0.01518699 1359.3051196 -0.02346271 C1373.33448294 -0.03137739 1387.36381022 -0.02865171 1401.39316896 -0.01442045 C1409.62933487 -0.00638549 1417.86540218 -0.00663197 1426.10156349 -0.01886524 C1432.19943602 -0.02701422 1438.29718276 -0.01969036 1444.39505005 -0.00609642 C1446.85897261 -0.00305313 1449.32290764 -0.00512975 1451.78682041 -0.01271423 C1455.1128259 -0.02223288 1458.43828737 -0.01352023 1461.76426697 0 C1463.21008442 -0.01075834 1463.21008442 -0.01075834 1464.6851103 -0.02173402 C1470.66189346 0.02815882 1474.01297593 0.91676959 1478.63213348 4.87604749 C1481.33421963 8.11855086 1481.03126439 11.65458034 1481.09307098 15.67682874 C1481.13210541 17.5909657 1481.13210541 17.5909657 1481.17192841 19.5437721 C1481.18517151 20.21971418 1481.19841461 20.89565626 1481.21205902 21.59208143 C1482.30920827 72.62177803 1498.32019526 119.49859051 1531.88213348 158.37604749 C1532.55115692 159.1559303 1533.22018036 159.93581312 1533.90947723 160.73932874 C1544.84143179 173.17773514 1556.49496707 184.6140023 1569.88213348 194.37604749 C1570.92756317 195.14303968 1571.97299286 195.91003187 1573.05010223 196.70026624 C1597.60512344 214.17856084 1624.42031684 226.0290265 1653.88213348 232.37604749 C1654.58531708 232.53057386 1655.28850067 232.68510023 1656.01299286 232.84430921 C1663.8264764 234.5060764 1671.57215392 235.41197361 1679.55010223 235.82526624 C1680.23212204 235.86208005 1680.91414185 235.89889387 1681.61682892 235.93682325 C1685.04266417 236.11804818 1688.46612122 236.27143839 1691.89507294 236.37873304 C1699.62715272 236.7331017 1706.62291152 237.43282694 1712.88213348 242.37604749 C1715.98768741 246.48384144 1716.27734959 249.92797577 1716.12319124 254.90853274 C1716.1110598 255.68422562 1716.09892836 256.45991851 1716.0864293 257.25911724 C1716.03703702 259.96551031 1715.96119857 262.67036367 1715.88213348 265.37604749 C1715.8559364 266.38031334 1715.82973932 267.38457919 1715.80274838 268.41927734 C1715.61553011 275.55138161 1715.39114992 282.68200672 1715.15706286 289.81270918 C1714.92296866 296.95481047 1714.70498557 304.09742306 1714.4853977 311.23998225 C1714.4621913 311.99329373 1714.4389849 312.74660521 1714.41507528 313.52274431 C1712.74722572 367.72490771 1711.47975567 421.90345183 1711.3766098 476.13270032 C1711.3752755 476.81603688 1711.37394121 477.49937343 1711.37256648 478.20341715 C1711.34007774 495.30668592 1711.34133145 512.40989787 1711.35685409 529.51318356 C1711.36733535 541.08595491 1711.36754633 552.65868746 1711.35988808 564.23146093 C1711.35936433 565.0299436 1711.35884058 565.82842626 1711.35830096 566.65110537 C1711.35558545 570.72768754 1711.3527264 574.80426959 1711.34981359 578.88085162 C1711.32937355 607.85030837 1711.32706299 636.81974053 1711.33514786 665.78920209 C1711.34303516 694.35139985 1711.34145031 722.91357523 1711.32831955 751.47577131 C1711.32770504 752.82199295 1711.32770504 752.82199295 1711.32707812 754.19541099 C1711.3229029 763.3121172 1711.31853473 772.42882332 1711.31403885 781.54552938 C1711.30445496 800.98823007 1711.29615019 820.43093127 1711.28842354 839.87363279 C1711.28805428 840.79922795 1711.28768502 841.7248231 1711.28730457 842.6784666 C1711.26994886 886.39688865 1711.26540694 930.11531003 1711.26314259 973.83373511 C1711.26299282 976.72202334 1711.26283926 979.61031158 1711.26268444 982.49859981 C1711.26247779 986.35402631 1711.26227194 990.20945282 1711.262067 994.06487932 C1711.26160408 1002.75957291 1711.26113597 1011.4542665 1711.2606517 1020.14896009 C1711.26054416 1022.08448321 1711.26043763 1024.02000634 1711.26033209 1025.95552946 C1711.25787853 1070.75777735 1711.25058875 1115.56002387 1711.24114665 1160.36227079 C1711.2405321 1163.28192006 1711.2399228 1166.20156933 1711.23931427 1169.1212186 C1711.23012081 1213.09064733 1711.21853553 1257.06007461 1711.20225716 1301.02950132 C1711.20156982 1302.89327118 1711.20088249 1304.75704104 1711.20019516 1306.62081089 C1711.19406418 1323.21119096 1711.18782836 1339.80157099 1711.18107827 1356.39195082 C1711.17665739 1367.26481076 1711.1723745 1378.13767075 1711.16831589 1389.01053083 C1711.16798299 1389.9014406 1711.16765009 1390.79235037 1711.16730711 1391.7102574 C1711.1563692 1421.26169041 1711.15438555 1450.81311706 1711.15699539 1480.36455173 C1711.15866172 1499.28448235 1711.15943346 1518.2044107 1711.15434861 1537.12434089 C1711.15412826 1537.94447132 1711.15390792 1538.76460174 1711.15368089 1539.60958461 C1711.15144634 1547.74510312 1711.14885959 1555.88062145 1711.14580803 1564.0161397 C1711.14432669 1567.98302069 1711.14292585 1571.9499017 1711.14157677 1575.91678274 C1711.14131057 1576.6943473 1711.14104437 1577.47191187 1711.1407701 1578.27303899 C1711.13674395 1590.60907757 1711.13951392 1602.94510512 1711.14511479 1615.28114269 C1711.15048467 1627.39119335 1711.14886352 1639.50122584 1711.13968089 1651.6112744 C1711.13507288 1658.09323834 1711.13374231 1664.57515996 1711.14113955 1671.05712226 C1711.14780383 1676.94164302 1711.14543758 1682.82608531 1711.13558753 1688.71060096 C1711.13366759 1690.83594871 1711.13516527 1692.96130271 1711.14033425 1695.08664504 C1711.14683448 1697.95455266 1711.14119265 1700.82218042 1711.13233984 1703.69007552 C1711.1395864 1704.9380156 1711.1395864 1704.9380156 1711.14697936 1706.2111666 C1711.12232053 1710.06357587 1711.08433706 1713.11618029 1708.88213348 1716.37604749 C1708.22213348 1716.37604749 1707.56213348 1716.37604749 1706.88213348 1716.37604749 C1706.88213348 1717.03604749 1706.88213348 1717.69604749 1706.88213348 1718.37604749 C1701.26746649 1720.75183925 1696.06867695 1720.65880263 1690.08306122 1720.63483655 C1689.00354691 1720.63834119 1687.92403259 1720.64184583 1686.81180573 1720.64545667 C1683.22971446 1720.65427518 1679.64782068 1720.64840825 1676.06572723 1720.64167249 C1673.53651645 1720.64302289 1671.00730592 1720.64496654 1668.47809601 1720.64747083 C1663.14749725 1720.65042537 1657.81696752 1720.64632262 1652.48638153 1720.63678968 C1645.79689718 1720.62495918 1639.10755116 1720.63200273 1632.41806221 1720.64366758 C1600.85038406 1720.69041364 1569.39946478 1720.18865663 1537.88213348 1718.37604749 C1536.51096158 1718.29943204 1535.13977692 1718.22304433 1533.76857758 1718.14692152 C1525.8849419 1717.70275154 1518.00801396 1717.19050997 1510.13213348 1716.62604749 C1508.39470886 1716.50349088 1508.39470886 1716.50349088 1506.62218475 1716.37845838 C1478.96970747 1714.40819902 1451.41948603 1711.55316058 1423.88213348 1708.37604749 C1422.95286041 1708.26947828 1422.02358734 1708.16290906 1421.06615448 1708.05311048 C1323.43506302 1696.82069863 1226.61728965 1675.88814118 1063.88213348 1623.37604749 C1063.15095306 1623.10725782 1062.41977264 1622.83846815 1061.66643524 1622.56153333 C994.64116465 1597.88403097 928.18573667 1569.04515789 865.62822723 1534.52839124 C861.65880429 1532.34051493 857.67132279 1530.19132136 853.66728973 1528.06745374 C838.84346894 1520.19602968 824.35394784 1511.88851756 809.97686005 1503.23639905 C807.12470574 1501.52186641 804.26673522 1499.81767605 801.40557098 1498.11823499 C790.96232456 1491.90582176 780.64680268 1485.51151299 770.40068817 1478.97956312 C767.71274096 1477.26819851 765.02040698 1475.56388555 762.32744598 1473.86042249 C752.87464337 1467.87418797 743.46026622 1461.8442293 734.17900848 1455.59479749 C731.13342493 1453.54516306 728.07175296 1451.52203979 725.00713348 1449.50104749 C717.93237658 1444.78454289 711.01114625 1439.85391872 704.07891083 1434.93171155 C701.95129923 1433.42502772 699.81830965 1431.92636179 697.68291473 1430.43073499 C686.95786482 1422.91240218 676.39261375 1415.19106896 665.88213348 1407.37604749 C664.83992645 1406.60260999 664.83992645 1406.60260999 663.77666473 1405.81354749 C654.46066282 1398.8941186 645.26852604 1391.82538613 636.12432098 1384.68073499 C633.57776082 1382.69226285 631.0245046 1380.71423512 628.45244598 1378.75885999 C620.05660922 1372.37299911 611.9228205 1365.70067885 603.80498505 1358.9668678 C601.25863003 1356.86020843 598.69590961 1354.77395139 596.13213348 1352.68854749 C590.54734127 1348.12454056 585.04823598 1343.46251338 579.55254364 1338.79206312 C577.87837507 1337.37286147 576.19941873 1335.95953978 574.51885223 1334.54792249 C568.69697448 1329.65263968 562.9756747 1324.68221896 557.35088348 1319.55964124 C554.714223 1317.22753173 552.00089783 1315.01835813 549.25713348 1312.81354749 C545.16359584 1309.50302127 541.42465561 1306.02990089 537.75713348 1302.25885999 C535.34078136 1299.83243973 532.77101303 1297.623119 530.17900848 1295.38776624 C524.97714169 1290.83170944 519.94303695 1286.08733172 514.88213348 1281.37604749 C514.23566864 1280.77615003 513.5892038 1280.17625257 512.92314911 1279.5581764 C503.79846898 1271.08243085 494.8549896 1262.45851583 486.12163544 1253.57868421 C482.13220861 1249.5409815 478.04738393 1245.71176885 473.74614716 1242.00861585 C470.99069129 1239.59529124 468.39821998 1237.03818368 465.81963348 1234.43854749 C465.34203583 1233.96481702 464.86443817 1233.49108655 464.37236786 1233.00300062 C461.70681732 1230.33033245 459.18258245 1227.58520982 456.72978973 1224.71589124 C451.90786471 1219.15152078 446.61990466 1214.04360278 441.38213348 1208.87604749 C429.47352334 1197.12708038 429.47352334 1197.12708038 424.35088348 1191.06354749 C422.7703984 1189.24767102 421.10086314 1187.56092908 419.38213348 1185.87604749 C417.08887312 1183.61806806 414.9178532 1181.31608245 412.81963348 1178.87604749 C409.28379064 1174.77094197 405.58878111 1170.82609508 401.88213348 1166.87604749 C397.68236451 1162.39669515 393.51518178 1157.90749338 389.51103973 1153.25104749 C387.54548259 1150.98853568 385.52540039 1148.77914067 383.50713348 1146.56354749 C379.6550805 1142.29645849 376.012755 1137.89501499 372.39775848 1133.42682874 C369.45288193 1129.85548001 366.4249015 1126.36395957 363.38213348 1122.87604749 C358.86838617 1117.69828472 354.45160404 1112.46091664 350.12822723 1107.12214124 C347.56322204 1103.98614359 344.94523698 1100.8987772 342.31963348 1097.81354749 C337.7359395 1092.41382598 333.25557603 1086.94841653 328.88213348 1081.37604749 C328.39937958 1080.76197034 327.91662567 1080.1478932 327.41924286 1079.51520765 C320.03970875 1070.11678648 312.78327667 1060.63352428 305.63652802 1051.0569557 C301.7087155 1045.79705391 297.74156247 1040.56991247 293.74492645 1035.36213148 C286.78563737 1026.28721189 280.022803 1017.11446924 273.50713348 1007.71637952 C271.68089018 1005.08621602 269.84430341 1002.46343338 268.00713348 999.84089124 C259.80816707 988.12081831 251.73938517 976.32775156 243.88213348 964.37604749 C243.0105661 963.05419446 243.0105661 963.05419446 242.1213913 961.70563734 C233.13829789 948.07033169 224.39559483 934.30887079 215.88213348 920.37604749 C215.22986786 919.31257093 214.57760223 918.24909437 213.90557098 917.15339124 C199.41979123 893.52583663 185.50246086 869.63117814 172.40557098 845.20075452 C170.96530586 842.53026294 169.5068929 839.87093587 168.03838348 837.21589124 C154.30755613 812.37437025 141.32649358 787.13115608 129.64141083 761.2613014 C128.04351184 757.72476575 126.42523106 754.19779812 124.80521393 750.67135084 C103.64059531 704.5548418 84.83708521 657.42152438 68.29228973 609.45563734 C67.39667938 606.85920791 66.49215441 604.26656873 65.58135223 601.6753639 C44.49192801 541.63090026 27.81191805 478.97660468 15.86846161 416.49762952 C14.9601127 411.75466404 14.01771548 407.01883227 13.07205963 402.2831825 C7.18221329 372.75806189 2.00244124 343.20048422 -2.11786652 313.37604749 C-2.24679291 312.44927198 -2.3757193 311.52249647 -2.50855255 310.56763685 C-9.78779646 258.08514465 -14.41340963 205.21182343 -16.97498226 152.2959913 C-17.06512367 150.45388606 -17.15718518 148.61187284 -17.25195408 146.76999986 C-18.07502039 130.75868533 -18.2963829 114.77784894 -18.32099152 98.74714124 C-18.32381889 97.48491302 -18.32664627 96.2226848 -18.32955933 94.92220724 C-18.34287612 88.95179823 -18.35284391 82.98141107 -18.35676122 77.01098996 C-18.36127853 70.17182387 -18.37905009 63.33285396 -18.40776181 56.49374753 C-18.43198189 50.51415841 -18.43970415 44.53466266 -18.44143677 38.55501974 C-18.44445889 36.02845203 -18.4524725 33.50188508 -18.46562195 30.97534978 C-18.48264782 27.46089287 -18.48081343 23.94692521 -18.47431183 20.43244398 C-18.48352661 19.39611326 -18.49274139 18.35978254 -18.50223541 17.29204786 C-18.47126984 11.95723382 -18.33784267 7.86632296 -15.11786652 3.37604749 C-10.45765005 -0.46726776 -5.74702015 -0.04276362 0 0 Z M2.88213348 21.37604749 C1.90511366 101.16334193 1.90511366 101.16334193 5.27812958 180.98395765 C5.37285553 182.14558424 5.46758148 183.30721082 5.56517792 184.50403821 C5.72207092 186.42068281 5.72207092 186.42068281 5.88213348 188.37604749 C6.00238674 189.87372617 6.12234679 191.3714284 6.2420578 192.86915052 C7.2064286 204.9166438 8.21602796 216.95995053 9.25713348 229.00104749 C9.32809864 229.82492334 9.3990638 230.64879919 9.47217941 231.49764097 C11.11678839 250.53862545 13.04024393 269.52078901 15.47978973 288.47760999 C15.58445431 289.29163911 15.68911888 290.10566823 15.79695511 290.94436491 C17.26323579 302.2726898 18.96609734 313.54031059 20.93462372 324.79328382 C21.76817431 329.59424248 22.47275625 334.40584581 23.14992523 339.23104322 C25.41539362 355.26449487 28.33793468 371.14337887 31.40850067 387.03742445 C32.11701127 390.70496682 32.81594103 394.3742593 33.51230335 398.04412496 C36.74299957 415.04829907 40.25200896 431.94699303 44.26787567 448.78666151 C45.07182704 452.17569518 45.8411714 455.57145428 46.60478973 458.96979749 C49.18755744 470.3802477 51.95547437 481.68153993 55.19536591 492.92341077 C56.0902833 496.11940799 56.93553113 499.32769597 57.78447723 502.53620374 C61.23608418 515.55281855 65.07026664 528.46133685 68.88213348 541.37604749 C69.13150665 542.22187391 69.38087982 543.06770032 69.63780975 543.93915784 C75.89942079 565.16028079 82.22407087 586.26477967 90.00225067 606.98835218 C91.25375378 610.38449546 92.38430956 613.81013548 93.50713348 617.25104749 C96.40330198 626.04681849 99.61059658 634.71414009 102.88213348 643.37604749 C103.49073212 644.99180677 103.49073212 644.99180677 104.11162567 646.64020765 C116.22608262 678.68504421 129.5459668 710.26202877 143.88213348 741.37604749 C144.18143768 742.02579542 144.48074188 742.67554334 144.78911591 743.3449806 C157.56583381 771.0448316 170.67826474 798.65889097 185.61260223 825.27057874 C187.64099968 828.89862707 189.50079649 832.57603281 191.31963348 836.31354749 C201.48542766 856.98561698 213.97367544 876.66625359 225.88213348 896.37604749 C226.38728485 897.21377698 226.89243622 898.05150648 227.4128952 898.91462171 C251.47876221 938.79215437 277.32326999 977.68279598 305.15117645 1015.04352796 C306.93740967 1017.4505339 308.71031552 1019.86685512 310.47978973 1022.28620374 C317.02053699 1031.22442701 323.6636898 1040.0520036 330.56426239 1048.71540296 C331.90081582 1050.39958904 333.2270087 1052.0914276 334.55010223 1053.78620374 C341.06621829 1062.13088792 347.70757827 1070.3681868 354.40557098 1078.56745374 C355.71260889 1080.16840229 357.01636704 1081.77202725 358.31963348 1083.37604749 C362.74800938 1088.81662359 367.24799013 1094.19060745 371.79228973 1099.53425062 C374.74218758 1103.00885018 377.63896068 1106.52080443 380.50713348 1110.06354749 C384.08613471 1114.46406324 387.83005648 1118.67437271 391.65166473 1122.86432874 C393.877327 1125.37063493 395.97734909 1127.94529142 398.06963348 1130.56354749 C402.9779712 1136.6364293 408.31713948 1142.27123787 413.67119598 1147.95026624 C415.96178536 1150.38262912 418.20554116 1152.84037268 420.38213348 1155.37604749 C424.26171086 1159.88104792 428.34734367 1164.19320314 432.4128952 1168.52961195 C435.30157106 1171.61099339 438.18452231 1174.6962677 441.03447723 1177.81354749 C446.86496031 1184.19046049 452.81633296 1190.38563442 458.99541473 1196.42682874 C461.12074598 1198.54672728 463.09297661 1200.75482282 465.04521942 1203.0347389 C468.90858117 1207.46706542 472.99736086 1211.63568848 477.15947723 1215.78620374 C478.31474663 1216.94290823 478.31474663 1216.94290823 479.4933548 1218.12298048 C481.11154722 1219.74184902 482.73098561 1221.359473 484.35161591 1222.97590101 C486.8128058 1225.43173467 489.26861157 1227.89286114 491.72393036 1230.35456312 C493.30629215 1231.93626403 494.88896416 1233.51765466 496.47197723 1235.09870374 C497.55828682 1236.18804967 497.55828682 1236.18804967 498.66654205 1237.29940259 C502.67764507 1241.2923798 506.77693482 1245.11649978 511.07990265 1248.79400098 C514.77596773 1252.03850593 518.15692334 1255.61144899 521.59307098 1259.12604749 C525.21215625 1262.79426062 528.95546496 1266.23659556 532.8557663 1269.60358655 C536.23973627 1272.56354101 539.49143778 1275.66195164 542.75713348 1278.75104749 C550.40010609 1285.94121436 558.02017835 1293.09965478 566.19463348 1299.68854749 C570.41612247 1303.10027272 574.42284695 1306.66924566 578.38213348 1310.37604749 C583.10853842 1314.79691966 587.9557781 1318.97670517 593.00322723 1323.03229749 C596.34817137 1325.75545418 599.61646363 1328.55880588 602.88213348 1331.37604749 C611.55293486 1338.83876638 620.41015408 1346.04311418 629.42266083 1353.0882057 C632.43382715 1355.44379995 635.43289683 1357.81183799 638.40557098 1360.21589124 C646.16372496 1366.48927676 654.0494549 1372.55912061 662.04985809 1378.52082288 C667.36422255 1382.4815617 672.64509519 1386.4818053 677.9026413 1390.51764905 C687.01096488 1397.5048105 696.22133459 1404.28685739 705.65605927 1410.82575452 C707.94795023 1412.4218839 710.22628366 1414.03602164 712.50322723 1415.65339124 C725.81993424 1425.06821538 739.39769135 1434.07934402 753.00713348 1443.06354749 C754.39238724 1443.97981412 754.39238724 1443.97981412 755.80562592 1444.91459119 C773.88133328 1456.86168289 792.23367902 1468.34403048 810.88213348 1479.37604749 C811.88180145 1479.96869398 812.88146942 1480.56134046 813.91143036 1481.17194593 C837.88986802 1495.36988671 862.09795867 1509.06285859 886.87773895 1521.82526624 C890.1035284 1523.49032512 893.32334103 1525.16655406 896.54228973 1526.84479749 C970.97495976 1565.62866476 1048.73280437 1598.69374237 1128.98564911 1623.46930921 C1132.23586942 1624.48678378 1135.47324863 1625.53996555 1138.71025848 1626.59870374 C1158.22458009 1632.97540987 1177.84623923 1638.71913242 1197.78740692 1643.60578382 C1203.09905649 1644.91118014 1208.36953391 1646.32347766 1213.63213348 1647.81354749 C1236.82665549 1654.32665893 1260.31952183 1659.40797567 1283.88213348 1664.37604749 C1284.64832001 1664.53800611 1285.41450653 1664.69996473 1286.20391083 1664.86683118 C1303.29145967 1668.47831904 1320.3791479 1672.01536693 1337.61797333 1674.83844984 C1340.67807675 1675.34243994 1343.73596741 1675.85857389 1346.79360199 1676.37729871 C1398.3733802 1685.10600314 1450.38936465 1691.60114394 1502.59307098 1695.02448499 C1508.18046528 1695.39237927 1513.7656055 1695.79000866 1519.35088348 1696.18854749 C1522.25733565 1696.39396259 1525.16383503 1696.5986902 1528.07036591 1696.80298841 C1529.89350553 1696.93140918 1531.71658888 1697.06063228 1533.53960419 1697.19080579 C1585.68257586 1700.89544212 1637.40146632 1699.37604749 1689.88213348 1699.37604749 C1689.88213348 1275.65604749 1689.88213348 851.93604749 1689.88213348 415.37604749 C1679.98213348 413.06604749 1670.08213348 410.75604749 1659.88213348 408.37604749 C1580.11473401 389.0384961 1506.27078541 357.35890156 1442.88213348 304.37604749 C1442.36602509 303.94630628 1441.84991669 303.51656507 1441.31816864 303.0738014 C1424.95849745 289.41061826 1408.61391217 274.81834585 1394.78057098 258.55573499 C1392.76258339 256.23878628 1390.67951269 253.99465394 1388.58184052 251.75007093 C1382.74136644 245.49487792 1377.1899167 239.09476042 1371.88213348 232.37604749 C1371.36393036 231.72507093 1370.84572723 231.07409437 1370.31182098 230.40339124 C1362.05231694 220.01301058 1354.21413197 209.44016004 1346.88213348 198.37604749 C1346.20803436 197.36574476 1346.20803436 197.36574476 1345.52031708 196.33503187 C1309.88692497 142.79014043 1287.63924513 84.79727318 1277.88213348 21.37604749 C857.13213348 21.37604749 436.38213348 21.37604749 2.88213348 21.37604749 Z " fill="#000000" transform="translate(1052.1178665161133,194.62395250797272)"/>
<path d="M0 0 C4.07216438 0.30167209 7.70654212 1.37384046 11.5859375 2.6171875 C12.26013229 2.83175095 12.93432709 3.04631439 13.62895203 3.26737976 C15.21857332 3.77380712 16.80754533 4.28227493 18.39602661 4.79226685 C21.54682868 5.80273769 24.69990986 6.80589505 27.85327148 7.80834961 C33.06134279 9.46449103 38.26876879 11.12263494 43.47558594 12.78271484 C69.4543631 21.06479523 95.44349944 29.31099245 121.46801758 37.44848633 C140.70653531 43.46470731 159.90879012 49.59253971 179.10552979 55.74057007 C200.56453411 62.61252752 222.02658856 69.47495808 243.48980713 76.33374023 C246.68043583 77.35335649 249.87098497 78.37322109 253.0614624 79.39331055 C256.86793127 80.61033773 260.67456512 81.82684755 264.48131561 83.04299355 C265.88225603 83.49064086 267.2831428 83.93845609 268.68396759 84.38646507 C276.64406122 86.93209043 284.61161915 89.45179571 292.58986855 91.93989086 C297.74254814 93.54693745 302.88915763 95.17194153 308.03125 96.8125 C308.92847778 97.09834961 309.82570557 97.38419922 310.75012207 97.67871094 C313.89606877 98.68115792 317.04178648 99.68432152 320.1875 100.6875 C322.12329256 101.30458671 324.05908549 101.92167226 325.99488831 102.53872681 C336.32136386 105.83041472 346.64740563 109.12346275 356.97344971 112.41650391 C357.72680603 112.65675293 358.48016235 112.89700195 359.25634766 113.14453125 C360.38341377 113.50397575 360.38341377 113.50397575 361.5332489 113.87068176 C363.04054938 114.35132809 364.54788358 114.83186867 366.05525208 115.31230164 C369.72386117 116.48167813 373.39194272 117.65265174 377.05883789 118.82739258 C383.39505694 120.85543951 389.73389786 122.86515223 396.1015625 124.79296875 C397.12761597 125.10717773 398.15366943 125.42138672 399.21081543 125.74511719 C401.06088163 126.30976457 402.9139625 126.86467904 404.77062988 127.40722656 C409.18964117 128.764118 412.27914946 129.8748402 415.1875 133.6875 C416.53006782 137.25046846 416.33313496 140.07776226 415.1875 143.6875 C411.64272311 148.21629775 407.52893425 151.93698711 403.1875 155.6875 C402.48753906 156.31269531 401.78757812 156.93789063 401.06640625 157.58203125 C399.84161608 158.66458772 398.6069315 159.73603876 397.36328125 160.796875 C394.49962383 163.28522363 391.72008715 165.85918041 388.9375 168.4375 C388.1036377 169.20960815 388.1036377 169.20960815 387.25292969 169.99731445 C386.12147548 171.04513235 384.99012817 172.09306569 383.85888672 173.14111328 C377.69438635 178.84458178 371.50242125 184.51798997 365.25 190.125 C360.79463196 194.12267373 356.39666481 198.17950885 352.00415039 202.24584961 C347.96300116 205.98276882 343.88039404 209.67049106 339.78125 213.34375 C336.72858348 216.1021836 333.70665705 218.8925031 330.6875 221.6875 C326.0870846 225.94635323 321.4501635 230.15991842 316.78125 234.34375 C313.72858348 237.1021836 310.70665705 239.8925031 307.6875 242.6875 C303.0870846 246.94635323 298.4501635 251.15991842 293.78125 255.34375 C290.72858348 258.1021836 287.70665705 260.8925031 284.6875 263.6875 C280.0870846 267.94635323 275.4501635 272.15991842 270.78125 276.34375 C267.72858348 279.1021836 264.70665705 281.8925031 261.6875 284.6875 C257.0870846 288.94635323 252.4501635 293.15991842 247.78125 297.34375 C244.72858319 300.10218387 241.70667344 302.89252044 238.6875 305.6875 C234.06130193 309.96977279 229.40071325 314.20957859 224.70703125 318.41796875 C219.83539755 322.80621554 215.01537676 327.25123809 210.1875 331.6875 C198.91089154 342.04940257 198.91089154 342.04940257 193.25 347.125 C188.79463196 351.12267373 184.39666481 355.17950885 180.00415039 359.24584961 C175.96300116 362.98276882 171.88039404 366.67049106 167.78125 370.34375 C164.72858348 373.1021836 161.70665705 375.8925031 158.6875 378.6875 C154.0870846 382.94635323 149.4501635 387.15991842 144.78125 391.34375 C141.72858348 394.1021836 138.70665705 396.8925031 135.6875 399.6875 C131.09652273 403.93761585 126.47071442 408.14422929 121.80859375 412.31640625 C119.78755596 414.1446774 117.78176612 415.9851756 115.78515625 417.83984375 C115.19927734 418.38382813 114.61339844 418.9278125 114.00976562 419.48828125 C112.85959193 420.55803215 111.71108036 421.62957366 110.56445312 422.703125 C103.81687393 428.97878761 103.81687393 428.97878761 98.25 429.0625 C97.39535156 429.09085938 96.54070312 429.11921875 95.66015625 429.1484375 C92.3403339 428.52957646 91.3917843 427.22042594 89.1875 424.6875 C87.67041016 422.00317383 87.67041016 422.00317383 86.2265625 418.89453125 C85.68 417.72446533 85.1334375 416.55439941 84.5703125 415.34887695 C83.98367113 414.06623967 83.39775512 412.78327041 82.8125 411.5 C82.1927656 410.15516567 81.57297275 408.81035826 80.953125 407.46557617 C74.02081489 392.35323346 67.5210492 377.05897858 61.1875 361.6875 C60.75084015 360.6285553 60.75084015 360.6285553 60.30535889 359.54821777 C44.62445182 321.46493219 30.28237498 282.76340682 19.77490234 242.90039062 C19.12043816 240.43486137 18.4447923 237.97553667 17.76953125 235.515625 C13.84400552 221.03770642 10.74770841 206.43463049 7.81054688 191.72753906 C7.29052687 189.19020007 6.73006984 186.67020638 6.140625 184.1484375 C5.07830021 179.45221433 4.38198155 174.71140268 3.67431641 169.95068359 C3.23878896 167.03129548 2.7738281 164.11922576 2.29296875 161.20703125 C-4.63966785 118.52292703 -8.92646428 75.43271377 -9.28427124 32.17752075 C-9.30295402 29.99179662 -9.32890789 27.80612144 -9.36245728 25.62057495 C-9.40385514 22.5732992 -9.4105416 19.5279821 -9.40625 16.48046875 C-9.42249924 15.57621155 -9.43874847 14.67195435 -9.45549011 13.74029541 C-9.40928563 9.48541925 -9.1672842 6.55090535 -6.51367188 3.1184082 C-3.8125 0.6875 -3.8125 0.6875 0 0 Z " fill="#F35C27" transform="translate(1205.8125,363.3125)"/>
<path d="M0 0 C2.55998579 3.83997868 2.48027861 5.41578044 2 10 C0.73589434 13.50198567 -0.92056904 16.77163934 -2.609375 20.0859375 C-3.32619446 21.5339122 -3.32619446 21.5339122 -4.05749512 23.01113892 C-5.60913166 26.13884254 -7.17953085 29.25671671 -8.75 32.375 C-9.82538643 34.53571581 -10.89927581 36.69717734 -11.97167969 38.859375 C-14.06175922 43.07135054 -16.15738776 47.28047924 -18.2578125 51.48730469 C-21.31916997 57.62841472 -24.30645377 63.80149686 -27.25 70 C-32.23347218 80.44516566 -37.30096328 90.84863287 -42.375 101.25 C-47.97963757 112.73982208 -53.57446171 124.23392991 -59.125 135.75 C-64.1901091 146.25891795 -69.27577028 156.75760539 -74.375 167.25 C-74.73240265 167.9854303 -75.0898053 168.7208606 -75.45803833 169.47857666 C-75.8155014 170.21412781 -76.17296448 170.94967896 -76.54125977 171.70751953 C-77.26318706 173.19303217 -77.98511088 174.67854649 -78.70703125 176.1640625 C-79.06459 176.89980499 -79.42214874 177.63554749 -79.7905426 178.39358521 C-83.55240223 186.13518901 -87.30804348 193.87980379 -91.0625 201.625 C-91.39054626 202.30171753 -91.71859253 202.97843506 -92.05657959 203.67565918 C-93.70983183 207.08614561 -95.36299686 210.4966743 -97.01611328 213.90722656 C-100.00988151 220.08356752 -103.00447234 226.25950963 -105.99899292 232.43548584 C-107.66602819 235.87364127 -109.33301149 239.3118219 -111 242.75 C-111.66666642 244.12500012 -112.33333308 245.50000012 -113 246.875 C-113.33 247.555625 -113.66 248.23625 -114 248.9375 C-115 251 -116 253.0625 -117 255.125 C-117.32998993 255.80560486 -117.65997986 256.48620972 -117.99996948 257.18743896 C-118.66673588 258.56264338 -119.33350427 259.93784683 -120.00027466 261.31304932 C-121.66543184 264.74741378 -123.33055449 268.18179498 -124.99560547 271.61621094 C-128.01358719 277.84116158 -131.03183166 284.06598417 -134.05134583 290.29019165 C-140.12258351 302.80505639 -146.19367903 315.31993204 -152.23632812 327.84863281 C-154.22278819 331.96637522 -156.21264123 336.08247439 -158.20217896 340.19873047 C-160.25847184 344.45633419 -162.30402266 348.71900723 -164.34638977 352.98330688 C-165.88966833 356.20242619 -167.43830071 359.41895328 -168.98782349 362.6350708 C-169.7390662 364.19739274 -170.48803247 365.76081159 -171.23458862 367.32537842 C-172.27806475 369.51149345 -173.32954846 371.69358756 -174.3828125 373.875 C-174.68954391 374.52264313 -174.99627533 375.17028625 -175.31230164 375.83755493 C-179.83601129 385.14620809 -179.83601129 385.14620809 -184.1484375 386.84765625 C-188.11539258 387.23043262 -190.43531763 387.25975389 -194.125 385.5625 C-197.03814472 382.96600144 -199.50998899 380.25580956 -202.015625 377.2734375 C-204.23766117 374.72771889 -206.59263061 372.37089409 -209 370 C-212.45931825 366.57693209 -215.72917746 363.09041397 -218.890625 359.39453125 C-221.85545159 356.02890403 -224.93065534 352.77018769 -228 349.5 C-232.19982156 345.0207008 -236.36695454 340.5314426 -240.37109375 335.875 C-242.33665089 333.61248819 -244.35673309 331.40309317 -246.375 329.1875 C-249.50422827 325.72469918 -252.50500349 322.19320997 -255.4375 318.5625 C-258.51336588 314.75912497 -261.68753166 311.09917348 -265 307.5 C-269.41645603 302.69066905 -273.56948658 297.72291433 -277.66748047 292.64160156 C-279.76446017 290.05822093 -281.88812739 287.4970117 -284.00854492 284.93286133 C-295.73335368 270.74535083 -307.07684148 256.35429613 -318.06787109 241.58935547 C-319.98202038 239.02409551 -321.90523618 236.4659281 -323.83203125 233.91015625 C-329.85012907 225.92516792 -335.83149714 217.9173793 -341.6875 209.8125 C-342.14914551 209.1736084 -342.61079102 208.5347168 -343.08642578 207.87646484 C-344.73126924 205.58923648 -346.36609537 203.29505828 -348 201 C-348.40317444 200.43599487 -348.80634888 199.87198975 -349.22174072 199.29089355 C-357.09328119 188.27038129 -364.7091743 177.09324831 -372.20898438 165.81689453 C-373.99525714 163.13212851 -375.78644336 160.45068981 -377.578125 157.76953125 C-385.23367509 146.29103142 -392.69372502 134.70363111 -400 123 C-400.7312599 121.83201707 -401.46254052 120.66404711 -402.19384766 119.49609375 C-411.4501598 104.66745852 -420.41351903 89.6863232 -429.02783203 74.47558594 C-430.41573705 72.02965677 -431.80915467 69.58763161 -433.21044922 67.14941406 C-435.10350766 63.85407416 -436.98027608 60.54991493 -438.84667969 57.2394104 C-439.56643329 55.96798128 -440.29111207 54.69932608 -441.02099609 53.4336853 C-442.03754813 51.66794455 -443.03439934 49.89237761 -444.02734375 48.11328125 C-444.60218506 47.10048096 -445.17702637 46.08768066 -445.76928711 45.04418945 C-447.22104248 41.45324763 -447.34424713 38.84138798 -447 35 C-444.7967576 31.45907471 -442.82577516 29.56258398 -439 28 C-436.40365601 27.59658813 -436.40365601 27.59658813 -433.40771484 27.37744141 C-432.27157745 27.29024338 -431.13544006 27.20304535 -429.96487427 27.11320496 C-428.10667557 26.98369194 -428.10667557 26.98369194 -426.2109375 26.8515625 C-424.25908035 26.70567436 -424.25908035 26.70567436 -422.26779175 26.55683899 C-418.71319056 26.29151897 -415.15789639 26.03687706 -411.60237122 25.78428268 C-408.61471699 25.57063101 -405.62754612 25.35061531 -402.6403656 25.13045406 C-380.45014007 23.49501499 -358.25275809 21.95789869 -336.05371094 20.44750977 C-314.62686901 18.98839012 -293.21003639 17.4072748 -271.79348755 15.80508423 C-258.59313554 14.8183063 -245.39151559 13.84884782 -232.18988037 12.87942505 C-227.84677823 12.5604801 -223.50370972 12.24107861 -219.16064453 11.92163086 C-206.37507024 10.98135526 -193.58941003 10.04231048 -180.80329895 9.10935974 C-174.03546243 8.61553246 -167.26771543 8.12048365 -160.5 7.625 C-159.49161009 7.5512081 -159.49161009 7.5512081 -158.46284866 7.47592545 C-139.26055512 6.07035947 -120.06110421 4.62943921 -100.86328125 3.1640625 C-99.82646587 3.08495762 -98.7896505 3.00585274 -97.72141647 2.92435074 C-87.3846299 2.13559834 -77.04795609 1.34541687 -66.7116518 0.55036736 C-62.85220186 0.25375493 -58.99266332 -0.04169359 -55.13310814 -0.33693314 C-53.34400399 -0.47408753 -51.55494078 -0.61177732 -49.76592445 -0.75007248 C-4.847393 -4.22192294 -4.847393 -4.22192294 0 0 Z " fill="#F35C27" transform="translate(1828,890)"/>
<path d="M0 0 C3.37495058 0.02428022 5.14420406 0.59958588 7.75 2.75 C10.3125 5.375 10.3125 5.375 11.3125 7.375 C11.15256805 17.58181959 9.54756681 27.73149073 8.0625 37.8125 C7.83976468 39.35048133 7.61719297 40.88848636 7.39477539 42.42651367 C5.76156133 53.64553725 3.96267682 64.83318674 2.11816406 76.01928711 C0.48568476 86.02495011 -0.87304934 96.05256305 -2.16821289 106.10668945 C-3.50799884 116.36587082 -5.14286844 126.56289296 -6.83203125 136.76953125 C-8.28190804 145.62000614 -9.54153172 154.48038008 -10.6875 163.375 C-11.93506706 173.03306156 -13.33867014 182.64397447 -14.9375 192.25 C-17.3495174 206.80190333 -19.43537152 221.39516845 -21.5 236 C-24.1771621 254.9315653 -26.9345458 273.84789177 -29.8125 292.75 C-32.32698278 309.26953546 -34.77196016 325.79573251 -37.10690308 342.34158325 C-39.36851177 358.34978393 -41.78055689 374.33340253 -44.24047852 390.31225586 C-44.44806038 391.66562798 -44.44806038 391.66562798 -44.65983582 393.04634094 C-44.93392965 394.82692641 -45.21059166 396.60711862 -45.48994446 398.3868866 C-46.20518527 402.99105463 -46.84577777 407.59192599 -47.38525391 412.22021484 C-47.50270462 413.17494186 -47.62015533 414.12966888 -47.74116516 415.11332703 C-47.96208681 416.93106749 -48.16611727 418.75097235 -48.35002136 420.5728302 C-49.03733447 426.08770694 -50.16818738 428.75641305 -54.6875 432.375 C-55.0175 432.705 -55.3475 433.035 -55.6875 433.375 C-64.78854381 435.09724614 -71.18626339 430.91075636 -78.6875 426.3125 C-79.91089995 425.58441522 -81.13561642 424.85853849 -82.36157227 424.13476562 C-84.88903172 422.63966614 -87.40978234 421.1340943 -89.92626953 419.62060547 C-94.67019042 416.77615118 -99.47174655 414.03580113 -104.27392578 411.29125977 C-113.20303438 406.18528764 -122.10116276 401.04370689 -130.80371094 395.55859375 C-133.1688005 394.07259658 -135.54156501 392.59914074 -137.9140625 391.125 C-197.04020849 354.34574383 -254.42531185 314.91531387 -309.03710938 271.67822266 C-310.77599802 270.30511799 -312.52011691 268.93889727 -314.265625 267.57421875 C-321.48191161 261.93028817 -328.61586431 256.19993251 -335.6875 250.375 C-337.47907706 248.91655659 -339.27074502 247.45822483 -341.0625 246 C-353.38511682 235.91468098 -365.46696092 225.52431436 -377.484375 215.078125 C-378.11714355 214.52825928 -378.74991211 213.97839355 -379.40185547 213.41186523 C-380.66752868 212.31099153 -381.93219142 211.20895492 -383.19580078 210.10571289 C-386.15516294 207.5307491 -389.13252046 204.99441297 -392.1953125 202.54296875 C-393.01781494 201.87998779 -393.01781494 201.87998779 -393.85693359 201.20361328 C-395.32971852 200.02383839 -396.81291094 198.8570884 -398.296875 197.69140625 C-401.99195589 194.11104193 -403.65962653 190.96378767 -403.75 185.8125 C-402.24478051 180.94267225 -399.05437518 178.67908616 -394.72409058 176.29321289 C-392.48069617 175.20636268 -390.2169401 174.18767163 -387.93359375 173.1875 C-386.66678017 172.61877419 -386.66678017 172.61877419 -385.37437439 172.03855896 C-382.62851557 170.80834458 -379.87688942 169.59165644 -377.125 168.375 C-375.20548973 167.51790865 -373.28638475 166.65990906 -371.36767578 165.80102539 C-367.55091323 164.09418514 -363.73195013 162.39244536 -359.91064453 160.69580078 C-355.5597461 158.76391044 -351.21331795 156.82239369 -346.87109375 154.87109375 C-342.31925137 152.8259562 -337.76598285 150.78408801 -333.2109375 148.74609375 C-324.03045327 144.63574626 -314.85938163 140.50449835 -305.6875 136.375 C-293.05573711 130.68809579 -280.42009335 125.01010195 -267.77734375 119.34765625 C-257.4086868 114.70203453 -247.04782028 110.03917708 -236.6875 105.375 C-224.05568746 99.68820568 -211.42009364 94.01010208 -198.77734375 88.34765625 C-188.4086868 83.70203453 -178.04782028 79.03917708 -167.6875 74.375 C-155.05568746 68.68820568 -142.42009364 63.01010208 -129.77734375 57.34765625 C-119.40868669 52.70203448 -109.04783988 48.03913374 -98.6875 43.375 C-83.52885804 36.55091733 -68.36412642 29.74070801 -53.19238281 22.94580078 C-49.4685813 21.27688612 -45.7459026 19.60548623 -42.0234375 17.93359375 C-40.10257171 17.07112242 -38.18166215 16.20874874 -36.26071167 15.34646606 C-35.01517173 14.78736294 -33.7696673 14.22818069 -32.52420044 13.66891479 C-24.13037636 9.90080864 -15.71877957 6.17993292 -7.265625 2.546875 C-2.14164847 0.21779476 -2.14164847 0.21779476 0 0 Z " fill="#F35C27" transform="translate(2145.6875,1186.625)"/>
<path d="M0 0 C3.48919127 0.10150375 4.45697248 0.56398318 7.625 2.5 C12.10429237 7.51254146 12.5773818 13.83801832 13.5625 20.3125 C14.7676525 27.89598621 16.21491759 35.41428512 17.75 42.9375 C19.20616319 50.08808126 20.6041895 57.23038524 21.75 64.4375 C23.07487871 72.76324581 24.73729265 81.01055473 26.4140625 89.27172852 C27.73087315 95.77992634 28.96492444 102.29177909 30.0859375 108.83618164 C31.21774881 115.38732558 32.48409658 121.9111163 33.75 128.4375 C35.26324215 136.24349288 36.73549743 144.05102577 38.0859375 151.88671875 C39.40532794 159.46588384 40.885286 167.01447409 42.36132812 174.56445312 C43.96036612 182.78587356 45.42842451 191.0266297 46.87133789 199.27648926 C52.10106306 229.1223386 57.66767687 258.90588414 63.24110413 288.6890564 C64.67504973 296.3540067 66.10269919 304.02009109 67.5234375 311.6875 C67.69760696 312.62685394 67.87177643 313.56620789 68.05122375 314.5340271 C69.39850013 321.80052089 69.39850013 321.80052089 70.04782104 325.31231689 C71.67340391 334.10133554 73.32366863 342.8833637 75.07421875 351.6484375 C75.2179744 352.37240723 75.36173004 353.09637695 75.50984192 353.84228516 C76.17072579 357.16972464 76.83920142 360.49487245 77.5246582 363.81738281 C80.72713368 379.83539239 80.72713368 379.83539239 78.20751953 384.27392578 C76.45064613 386.46728147 74.77752301 388.1737385 72.25 389.4375 C40.16748869 390.41732936 7.23223256 385.98200714 -24.5 382 C-25.65762848 381.85487976 -26.81525696 381.70975952 -28.00796509 381.5602417 C-51.06816138 378.64953466 -74.11210304 375.54439563 -96.9375 371.125 C-97.70117889 370.97887268 -98.46485779 370.83274536 -99.25167847 370.68218994 C-128.36818195 365.10703128 -157.27787282 358.68185474 -185.73095703 350.32373047 C-187.84814638 349.70223626 -189.96640666 349.08438415 -192.08544922 348.46923828 C-220.06827343 340.33447168 -247.57091872 330.95827346 -274.75 320.4375 C-275.56694336 320.12280762 -276.38388672 319.80811523 -277.22558594 319.48388672 C-288.49030658 315.12564956 -299.59749521 310.40642666 -310.6875 305.625 C-311.35042053 305.34023804 -312.01334106 305.05547607 -312.6963501 304.76208496 C-314.60010468 303.94303807 -316.5015536 303.1188684 -318.40234375 302.29296875 C-319.50570068 301.81496826 -320.60905762 301.33696777 -321.74584961 300.84448242 C-329.11192839 297.39460741 -329.11192839 297.39460741 -331.75 293.4375 C-332.50618111 290.29500964 -332.48438034 287.58557795 -331.75 284.4375 C-329.5492331 281.21910829 -326.75218391 278.89815074 -323.75 276.4375 C-322.8940625 275.72851562 -322.038125 275.01953125 -321.15625 274.2890625 C-319.31346651 272.77988636 -317.46292065 271.28014803 -315.60546875 269.7890625 C-312.73191458 267.42260612 -309.98717383 264.95991697 -307.25 262.4375 C-302.80272888 258.34398909 -298.20282537 254.51307501 -293.5 250.71875 C-290.66900422 248.37031032 -287.95616402 245.92840098 -285.25 243.4375 C-280.80272888 239.34398909 -276.20282537 235.51307501 -271.5 231.71875 C-268.66900422 229.37031032 -265.95616402 226.92840098 -263.25 224.4375 C-258.80272888 220.34398909 -254.20282537 216.51307501 -249.5 212.71875 C-246.66900422 210.37031032 -243.95616402 207.92840098 -241.25 205.4375 C-236.80272888 201.34398909 -232.20282537 197.51307501 -227.5 193.71875 C-224.66900422 191.37031032 -221.95616402 188.92840098 -219.25 186.4375 C-214.80272888 182.34398909 -210.20282537 178.51307501 -205.5 174.71875 C-202.66900422 172.37031032 -199.95616402 169.92840098 -197.25 167.4375 C-192.80272888 163.34398909 -188.20282537 159.51307501 -183.5 155.71875 C-180.66900422 153.37031032 -177.95616402 150.92840098 -175.25 148.4375 C-170.7801488 144.32371091 -166.15955107 140.46662703 -161.43359375 136.65234375 C-158.80291443 134.48117173 -156.27057576 132.23508643 -153.75 129.9375 C-150.35401318 126.84194804 -146.88828469 123.88598793 -143.3125 121 C-138.538597 117.13924863 -134.01611572 113.06312925 -129.5 108.90625 C-125.93815771 105.70868704 -122.22434167 102.72361657 -118.5 99.71875 C-115.66900422 97.37031032 -112.95616402 94.92840098 -110.25 92.4375 C-105.80272888 88.34398909 -101.20282537 84.51307501 -96.5 80.71875 C-93.66900422 78.37031032 -90.95616402 75.92840098 -88.25 73.4375 C-83.80272888 69.34398909 -79.20282537 65.51307501 -74.5 61.71875 C-71.66900422 59.37031032 -68.95616402 56.92840098 -66.25 54.4375 C-61.80272888 50.34398909 -57.20282537 46.51307501 -52.5 42.71875 C-49.66900422 40.37031032 -46.95616402 37.92840098 -44.25 35.4375 C-39.80272888 31.34398909 -35.20282537 27.51307501 -30.5 23.71875 C-26.72440544 20.58672269 -23.14296964 17.25980297 -19.53515625 13.9375 C-15.78586056 10.57207329 -11.89165354 7.40496912 -7.96484375 4.25 C-3.23221692 0.37709197 -3.23221692 0.37709197 0 0 Z " fill="#F35C27" transform="translate(2509.75,1373.5625)"/>
<path d="M0 0 C15.67622727 -0.0236489 31.35244952 -0.04113269 47.02869034 -0.05181217 C54.31193907 -0.05690868 61.59517645 -0.06384667 68.87841797 -0.07543945 C131.57583034 -0.17333106 131.57583034 -0.17333106 161 1 C161.04752411 1.81658081 161.09504822 2.63316162 161.14401245 3.4744873 C163.03606523 35.63554194 168.27674667 66.55015346 182 96 C182.45560303 96.98154053 182.45560303 96.98154053 182.92041016 97.98291016 C193.24184344 119.93533196 206.30793404 140.33395031 223 158 C224.17229678 159.34929564 225.33915821 160.70333672 226.5 162.0625 C266.52955873 207.91622086 322.59283453 230.48329411 381.69311523 237.6940918 C383.61039429 237.92866089 383.61039429 237.92866089 385.56640625 238.16796875 C386.71052979 238.30485107 387.85465332 238.4417334 389.03344727 238.58276367 C391.43434636 238.92044259 393.66166605 239.38928941 396 240 C395.63061529 255.84733877 395.25697863 271.69457131 394.87835789 287.54169178 C394.70263338 294.90071445 394.52827085 302.25976456 394.35717773 309.61889648 C394.20795164 316.03732297 394.05610577 322.45568137 393.90118736 328.87397307 C393.81934163 332.26856486 393.73875806 335.66317548 393.66131783 339.05787086 C393.57395114 342.85873981 393.48195489 346.65947132 393.38891602 350.46020508 C393.36445908 351.57079788 393.34000214 352.68139069 393.31480408 353.82563782 C393.14345053 360.58564203 392.70179625 367.27419613 392 374 C313.183179 359.17825269 236.66705743 330.49199751 173 281 C171.75537693 280.04405129 170.51058492 279.08832249 169.265625 278.1328125 C163.02959496 273.31835224 157.01110885 268.3625944 151.20703125 263.02734375 C149.27170715 261.24958586 147.30596984 259.52423748 145.3125 257.8125 C132.94137127 247.01906583 120.59349426 235.71530262 109.93359375 223.21484375 C107.90144038 220.88710443 105.80701121 218.62923248 103.69750977 216.37182617 C97.85795892 210.11704255 92.30826632 203.71709529 87 197 C86.47647949 196.34370605 85.95295898 195.68741211 85.41357422 195.01123047 C77.89682511 185.5765753 70.73864587 176.03772828 64.21972656 165.88623047 C62.96394246 163.94423928 61.68388657 162.02012098 60.3984375 160.09765625 C30.79345271 115.5477699 -0.42969725 54.85801556 0 0 Z " fill="#F35C27" transform="translate(2351,216)"/>
<path d="M0 0 C3.37495058 0.02428022 5.14420406 0.59958588 7.75 2.75 C10.3125 5.375 10.3125 5.375 11.3125 7.375 C11.15256805 17.58181959 9.54756681 27.73149073 8.0625 37.8125 C7.83976468 39.35048133 7.61719297 40.88848636 7.39477539 42.42651367 C5.76156133 53.64553725 3.96267682 64.83318674 2.11816406 76.01928711 C0.48568476 86.02495011 -0.87304934 96.05256305 -2.16821289 106.10668945 C-3.50799884 116.36587082 -5.14286844 126.56289296 -6.83203125 136.76953125 C-8.28190804 145.62000614 -9.54153172 154.48038008 -10.6875 163.375 C-11.93506706 173.03306156 -13.33867014 182.64397447 -14.9375 192.25 C-17.3495174 206.80190333 -19.43537152 221.39516845 -21.5 236 C-24.1771621 254.9315653 -26.9345458 273.84789177 -29.8125 292.75 C-32.32698278 309.26953546 -34.77196016 325.79573251 -37.10690308 342.34158325 C-39.36851177 358.34978393 -41.78055689 374.33340253 -44.24047852 390.31225586 C-44.44806038 391.66562798 -44.44806038 391.66562798 -44.65983582 393.04634094 C-44.93392965 394.82692641 -45.21059166 396.60711862 -45.48994446 398.3868866 C-46.20518527 402.99105463 -46.84577777 407.59192599 -47.38525391 412.22021484 C-47.50270462 413.17494186 -47.62015533 414.12966888 -47.74116516 415.11332703 C-47.96208681 416.93106749 -48.16611727 418.75097235 -48.35002136 420.5728302 C-49.03733447 426.08770694 -50.16818738 428.75641305 -54.6875 432.375 C-55.0175 432.705 -55.3475 433.035 -55.6875 433.375 C-64.78854381 435.09724614 -71.18626339 430.91075636 -78.6875 426.3125 C-79.91089995 425.58441522 -81.13561642 424.85853849 -82.36157227 424.13476562 C-84.88903172 422.63966614 -87.40978234 421.1340943 -89.92626953 419.62060547 C-94.67019042 416.77615118 -99.47174655 414.03580113 -104.27392578 411.29125977 C-113.20303438 406.18528764 -122.10116276 401.04370689 -130.80371094 395.55859375 C-133.1688005 394.07259658 -135.54156501 392.59914074 -137.9140625 391.125 C-197.04020849 354.34574383 -254.42531185 314.91531387 -309.03710938 271.67822266 C-310.77599802 270.30511799 -312.52011691 268.93889727 -314.265625 267.57421875 C-321.48191161 261.93028817 -328.61586431 256.19993251 -335.6875 250.375 C-337.47907706 248.91655659 -339.27074502 247.45822483 -341.0625 246 C-353.38511682 235.91468098 -365.46696092 225.52431436 -377.484375 215.078125 C-378.11714355 214.52825928 -378.74991211 213.97839355 -379.40185547 213.41186523 C-380.66752868 212.31099153 -381.93219142 211.20895492 -383.19580078 210.10571289 C-386.15516294 207.5307491 -389.13252046 204.99441297 -392.1953125 202.54296875 C-393.01781494 201.87998779 -393.01781494 201.87998779 -393.85693359 201.20361328 C-395.32971852 200.02383839 -396.81291094 198.8570884 -398.296875 197.69140625 C-401.99195589 194.11104193 -403.65962653 190.96378767 -403.75 185.8125 C-402.24478051 180.94267225 -399.05437518 178.67908616 -394.72409058 176.29321289 C-392.48069617 175.20636268 -390.2169401 174.18767163 -387.93359375 173.1875 C-386.66678017 172.61877419 -386.66678017 172.61877419 -385.37437439 172.03855896 C-382.62851557 170.80834458 -379.87688942 169.59165644 -377.125 168.375 C-375.20548973 167.51790865 -373.28638475 166.65990906 -371.36767578 165.80102539 C-367.55091323 164.09418514 -363.73195013 162.39244536 -359.91064453 160.69580078 C-355.5597461 158.76391044 -351.21331795 156.82239369 -346.87109375 154.87109375 C-342.31925137 152.8259562 -337.76598285 150.78408801 -333.2109375 148.74609375 C-324.03045327 144.63574626 -314.85938163 140.50449835 -305.6875 136.375 C-293.05573711 130.68809579 -280.42009335 125.01010195 -267.77734375 119.34765625 C-257.4086868 114.70203453 -247.04782028 110.03917708 -236.6875 105.375 C-224.05568746 99.68820568 -211.42009364 94.01010208 -198.77734375 88.34765625 C-188.4086868 83.70203453 -178.04782028 79.03917708 -167.6875 74.375 C-155.05568746 68.68820568 -142.42009364 63.01010208 -129.77734375 57.34765625 C-119.40868669 52.70203448 -109.04783988 48.03913374 -98.6875 43.375 C-83.52885804 36.55091733 -68.36412642 29.74070801 -53.19238281 22.94580078 C-49.4685813 21.27688612 -45.7459026 19.60548623 -42.0234375 17.93359375 C-40.10257171 17.07112242 -38.18166215 16.20874874 -36.26071167 15.34646606 C-35.01517173 14.78736294 -33.7696673 14.22818069 -32.52420044 13.66891479 C-24.13037636 9.90080864 -15.71877957 6.17993292 -7.265625 2.546875 C-2.14164847 0.21779476 -2.14164847 0.21779476 0 0 Z M-22.6171875 31.41796875 C-23.31028519 31.73746994 -24.00338287 32.05697113 -24.71748352 32.38615417 C-26.21589341 33.07756098 -27.71313026 33.77151441 -29.20932007 34.4677124 C-32.40014031 35.9522017 -35.59669945 37.42412737 -38.79307556 38.89660645 C-40.42377296 39.64788062 -42.05419319 40.39975668 -43.68434143 41.15222168 C-50.72611474 44.40089716 -57.79360675 47.58849991 -64.875 50.75 C-67.2227067 51.7993663 -69.57036129 52.84884919 -71.91796875 53.8984375 C-72.52213623 54.16846085 -73.12630371 54.43848419 -73.7487793 54.71669006 C-81.5322253 58.19700127 -89.30545567 61.70003545 -97.07974243 65.20074463 C-110.58034961 71.27997557 -124.08486984 77.35022521 -137.59765625 83.40234375 C-147.9663132 88.04796547 -158.32717972 92.71082292 -168.6875 97.375 C-181.31931254 103.06179432 -193.95490636 108.73989792 -206.59765625 114.40234375 C-216.9663132 119.04796547 -227.32717972 123.71082292 -237.6875 128.375 C-250.31931254 134.06179432 -262.95490636 139.73989792 -275.59765625 145.40234375 C-285.96631342 150.04796557 -296.32714048 154.7109097 -306.6875 159.375 C-329.00089329 169.41957547 -351.31535007 179.46177158 -373.6875 189.375 C-372.17816744 193.1652902 -370.00548482 194.96177989 -366.8125 197.4375 C-362.58958584 200.79375073 -358.56587185 204.25587089 -354.625 207.9375 C-350.40876204 211.85415787 -346.08751306 215.55088976 -341.55859375 219.1015625 C-337.85063747 222.0376585 -334.20835592 225.04987168 -330.5625 228.0625 C-328.33617295 229.89778197 -326.10928616 231.73238302 -323.88232422 233.56689453 C-322.45912886 234.73932889 -321.03625727 235.91215642 -319.61376953 237.08544922 C-311.66103565 243.63600575 -303.61219445 249.99993327 -295.33569336 256.13720703 C-291.53832552 258.96030259 -287.82793256 261.8494686 -284.1875 264.875 C-277.22492061 270.64606655 -269.95420412 275.99629267 -262.6875 281.375 C-261.9337207 281.93380859 -261.17994141 282.49261719 -260.40332031 283.06835938 C-236.22976697 300.97844285 -211.73734302 318.39071916 -186.79589844 335.21704102 C-184.05385034 337.06833984 -181.31596881 338.92569416 -178.578125 340.78320312 C-168.08963584 347.87687637 -157.4809757 354.68746015 -146.62380981 361.20233154 C-143.49596468 363.09661793 -140.40430217 365.04763532 -137.3125 367 C-118.11912856 379.03815992 -98.68669281 390.69603626 -79.05615234 402.00634766 C-77.54677355 402.87849541 -76.04140982 403.75765591 -74.54150391 404.64599609 C-71.33274193 406.69816436 -71.33274193 406.69816436 -67.6875 407.375 C-67.56221924 406.44679443 -67.43693848 405.51858887 -67.30786133 404.56225586 C-65.09063527 388.17821023 -62.82562439 371.81227712 -60.125 355.5 C-58.26132969 344.23801396 -56.66506091 332.96412958 -55.20678711 321.64306641 C-53.86692562 311.38397688 -52.23211847 301.18702794 -50.54296875 290.98046875 C-49.09309413 282.13000709 -47.83309534 273.26966298 -46.6875 264.375 C-45.20527277 252.86665038 -43.43742455 241.42757438 -41.54296875 229.98046875 C-40.09309196 221.12999386 -38.83346828 212.26961992 -37.6875 203.375 C-36.4399324 193.71693423 -35.03622452 184.10604486 -33.4375 174.5 C-31.03025471 159.96835423 -28.94000928 145.39633398 -26.875 130.8125 C-24.07866977 111.0745466 -21.23491413 91.3447103 -18.3125 71.625 C-18.14342133 70.48110809 -17.97434265 69.33721619 -17.80014038 68.15866089 C-17.31860664 64.90245067 -16.83542219 61.64649032 -16.3515625 58.390625 C-16.21229843 57.44919144 -16.07303436 56.50775787 -15.92955017 55.53779602 C-15.05666056 49.6865174 -14.10015068 43.85506575 -13.07870483 38.027771 C-12.5948775 34.74692421 -12.5371592 31.68249751 -12.6875 28.375 C-16.50641154 28.375 -19.23154943 29.82961241 -22.6171875 31.41796875 Z " fill="#020100" transform="translate(2145.6875,1186.625)"/>
<path d="M0 0 C4.07216438 0.30167209 7.70654212 1.37384046 11.5859375 2.6171875 C12.26013229 2.83175095 12.93432709 3.04631439 13.62895203 3.26737976 C15.21857332 3.77380712 16.80754533 4.28227493 18.39602661 4.79226685 C21.54682868 5.80273769 24.69990986 6.80589505 27.85327148 7.80834961 C33.06134279 9.46449103 38.26876879 11.12263494 43.47558594 12.78271484 C69.4543631 21.06479523 95.44349944 29.31099245 121.46801758 37.44848633 C140.70653531 43.46470731 159.90879012 49.59253971 179.10552979 55.74057007 C200.56453411 62.61252752 222.02658856 69.47495808 243.48980713 76.33374023 C246.68043583 77.35335649 249.87098497 78.37322109 253.0614624 79.39331055 C256.86793127 80.61033773 260.67456512 81.82684755 264.48131561 83.04299355 C265.88225603 83.49064086 267.2831428 83.93845609 268.68396759 84.38646507 C276.64406122 86.93209043 284.61161915 89.45179571 292.58986855 91.93989086 C297.74254814 93.54693745 302.88915763 95.17194153 308.03125 96.8125 C308.92847778 97.09834961 309.82570557 97.38419922 310.75012207 97.67871094 C313.89606877 98.68115792 317.04178648 99.68432152 320.1875 100.6875 C322.12329256 101.30458671 324.05908549 101.92167226 325.99488831 102.53872681 C336.32136386 105.83041472 346.64740563 109.12346275 356.97344971 112.41650391 C357.72680603 112.65675293 358.48016235 112.89700195 359.25634766 113.14453125 C360.38341377 113.50397575 360.38341377 113.50397575 361.5332489 113.87068176 C363.04054938 114.35132809 364.54788358 114.83186867 366.05525208 115.31230164 C369.72386117 116.48167813 373.39194272 117.65265174 377.05883789 118.82739258 C383.39505694 120.85543951 389.73389786 122.86515223 396.1015625 124.79296875 C397.12761597 125.10717773 398.15366943 125.42138672 399.21081543 125.74511719 C401.06088163 126.30976457 402.9139625 126.86467904 404.77062988 127.40722656 C409.18964117 128.764118 412.27914946 129.8748402 415.1875 133.6875 C416.53006782 137.25046846 416.33313496 140.07776226 415.1875 143.6875 C411.64272311 148.21629775 407.52893425 151.93698711 403.1875 155.6875 C402.48753906 156.31269531 401.78757812 156.93789063 401.06640625 157.58203125 C399.84161608 158.66458772 398.6069315 159.73603876 397.36328125 160.796875 C394.49962383 163.28522363 391.72008715 165.85918041 388.9375 168.4375 C388.1036377 169.20960815 388.1036377 169.20960815 387.25292969 169.99731445 C386.12147548 171.04513235 384.99012817 172.09306569 383.85888672 173.14111328 C377.69438635 178.84458178 371.50242125 184.51798997 365.25 190.125 C360.79463196 194.12267373 356.39666481 198.17950885 352.00415039 202.24584961 C347.96300116 205.98276882 343.88039404 209.67049106 339.78125 213.34375 C336.72858348 216.1021836 333.70665705 218.8925031 330.6875 221.6875 C326.0870846 225.94635323 321.4501635 230.15991842 316.78125 234.34375 C313.72858348 237.1021836 310.70665705 239.8925031 307.6875 242.6875 C303.0870846 246.94635323 298.4501635 251.15991842 293.78125 255.34375 C290.72858348 258.1021836 287.70665705 260.8925031 284.6875 263.6875 C280.0870846 267.94635323 275.4501635 272.15991842 270.78125 276.34375 C267.72858348 279.1021836 264.70665705 281.8925031 261.6875 284.6875 C257.0870846 288.94635323 252.4501635 293.15991842 247.78125 297.34375 C244.72858319 300.10218387 241.70667344 302.89252044 238.6875 305.6875 C234.06130193 309.96977279 229.40071325 314.20957859 224.70703125 318.41796875 C219.83539755 322.80621554 215.01537676 327.25123809 210.1875 331.6875 C198.91089154 342.04940257 198.91089154 342.04940257 193.25 347.125 C188.79463196 351.12267373 184.39666481 355.17950885 180.00415039 359.24584961 C175.96300116 362.98276882 171.88039404 366.67049106 167.78125 370.34375 C164.72858348 373.1021836 161.70665705 375.8925031 158.6875 378.6875 C154.0870846 382.94635323 149.4501635 387.15991842 144.78125 391.34375 C141.72858348 394.1021836 138.70665705 396.8925031 135.6875 399.6875 C131.09652273 403.93761585 126.47071442 408.14422929 121.80859375 412.31640625 C119.78755596 414.1446774 117.78176612 415.9851756 115.78515625 417.83984375 C115.19927734 418.38382813 114.61339844 418.9278125 114.00976562 419.48828125 C112.85959193 420.55803215 111.71108036 421.62957366 110.56445312 422.703125 C103.81687393 428.97878761 103.81687393 428.97878761 98.25 429.0625 C97.39535156 429.09085938 96.54070312 429.11921875 95.66015625 429.1484375 C92.3403339 428.52957646 91.3917843 427.22042594 89.1875 424.6875 C87.67041016 422.00317383 87.67041016 422.00317383 86.2265625 418.89453125 C85.68 417.72446533 85.1334375 416.55439941 84.5703125 415.34887695 C83.98367113 414.06623967 83.39775512 412.78327041 82.8125 411.5 C82.1927656 410.15516567 81.57297275 408.81035826 80.953125 407.46557617 C74.02081489 392.35323346 67.5210492 377.05897858 61.1875 361.6875 C60.75084015 360.6285553 60.75084015 360.6285553 60.30535889 359.54821777 C44.62445182 321.46493219 30.28237498 282.76340682 19.77490234 242.90039062 C19.12043816 240.43486137 18.4447923 237.97553667 17.76953125 235.515625 C13.84400552 221.03770642 10.74770841 206.43463049 7.81054688 191.72753906 C7.29052687 189.19020007 6.73006984 186.67020638 6.140625 184.1484375 C5.07830021 179.45221433 4.38198155 174.71140268 3.67431641 169.95068359 C3.23878896 167.03129548 2.7738281 164.11922576 2.29296875 161.20703125 C-4.63966785 118.52292703 -8.92646428 75.43271377 -9.28427124 32.17752075 C-9.30295402 29.99179662 -9.32890789 27.80612144 -9.36245728 25.62057495 C-9.40385514 22.5732992 -9.4105416 19.5279821 -9.40625 16.48046875 C-9.42249924 15.57621155 -9.43874847 14.67195435 -9.45549011 13.74029541 C-9.40928563 9.48541925 -9.1672842 6.55090535 -6.51367188 3.1184082 C-3.8125 0.6875 -3.8125 0.6875 0 0 Z M11.1875 24.6875 C11.07892132 35.62981836 11.37168022 46.51071923 11.9375 57.4375 C11.98006927 58.2654306 12.02263855 59.09336121 12.0664978 59.94638062 C14.25792133 101.63380514 19.44048547 142.67996977 27.1875 183.6875 C27.41018555 184.88793945 27.63287109 186.08837891 27.86230469 187.32519531 C41.6491041 261.27610951 68.54563194 334.02980983 101.1875 401.6875 C104.29909151 400.2969672 106.49183009 398.66412583 108.9453125 396.30859375 C109.99972534 395.30445435 109.99972534 395.30445435 111.07543945 394.2800293 C111.81366943 393.56886963 112.55189941 392.85770996 113.3125 392.125 C114.84950657 390.66066667 116.38726233 389.19711929 117.92578125 387.734375 C118.66393066 387.03119141 119.40208008 386.32800781 120.16259766 385.60351562 C123.32343121 382.61265215 126.56105418 379.71226641 129.80859375 376.81640625 C132.57968494 374.3365299 135.32324394 371.8273921 138.0625 369.3125 C138.81503052 368.62184448 138.81503052 368.62184448 139.58276367 367.91723633 C141.11801472 366.50769271 142.65283424 365.09768083 144.1875 363.6875 C155.46410846 353.32559743 155.46410846 353.32559743 161.125 348.25 C165.58036804 344.25232627 169.97833519 340.19549115 174.37084961 336.12915039 C178.41199884 332.39223118 182.49460596 328.70450894 186.59375 325.03125 C189.64641652 322.2728164 192.66834295 319.4824969 195.6875 316.6875 C200.2879154 312.42864677 204.9248365 308.21508158 209.59375 304.03125 C212.64641652 301.2728164 215.66834295 298.4824969 218.6875 295.6875 C223.2879154 291.42864677 227.9248365 287.21508158 232.59375 283.03125 C235.64641652 280.2728164 238.66834295 277.4824969 241.6875 274.6875 C246.2879154 270.42864677 250.9248365 266.21508158 255.59375 262.03125 C258.64641652 259.2728164 261.66834295 256.4824969 264.6875 253.6875 C269.2879154 249.42864677 273.9248365 245.21508158 278.59375 241.03125 C281.64641652 238.2728164 284.66834295 235.4824969 287.6875 232.6875 C292.2879154 228.42864677 296.9248365 224.21508158 301.59375 220.03125 C304.64641652 217.2728164 307.66834295 214.4824969 310.6875 211.6875 C315.2879154 207.42864677 319.9248365 203.21508158 324.59375 199.03125 C327.64641652 196.2728164 330.66834295 193.4824969 333.6875 190.6875 C338.2879154 186.42864677 342.9248365 182.21508158 347.59375 178.03125 C350.64641681 175.27281613 353.66832656 172.48247956 356.6875 169.6875 C361.29814153 165.41962724 365.94226643 161.19321592 370.62109375 157 C375.5077853 152.59677108 380.34486526 148.13906286 385.1875 143.6875 C382.20623457 141.69998971 379.85761874 140.82168392 376.46044922 139.75146484 C375.28006073 139.3770224 374.09967224 139.00257996 372.8835144 138.61679077 C371.5864301 138.21059425 370.2893204 137.80447882 368.9921875 137.3984375 C367.64375484 136.9724849 366.29546016 136.54609531 364.94729614 136.11929321 C361.37761074 134.99042606 357.80617367 133.86720475 354.23431396 132.74523926 C350.69950668 131.63402451 347.1661774 130.51813472 343.6328125 129.40234375 C339.46641087 128.08688184 335.29991661 126.77172074 331.13275146 125.4586792 C319.75757827 121.87372075 308.39731142 118.24314992 297.04022217 114.60131836 C281.353969 109.57650862 265.64636592 104.6192896 249.93734741 99.66622925 C227.44696253 92.57354986 204.96662142 85.44965026 182.49449158 78.29935455 C180.41429305 77.63750179 178.33404413 76.97580763 176.25378418 76.31414795 C162.47757433 71.93205034 148.70573072 67.53697399 134.9453125 63.10546875 C121.27227339 58.7033811 107.5759193 54.37689019 93.875 50.0625 C79.32614448 45.47953943 64.78022711 40.88883735 50.2578125 36.22265625 C49.16706924 35.87259521 48.07632599 35.52253418 46.95252991 35.16186523 C41.81065821 33.5113573 36.6701836 31.85672342 31.53198242 30.19482422 C29.70497064 29.60757538 27.87790667 29.0204889 26.05078125 28.43359375 C24.82665024 28.03491844 24.82665024 28.03491844 23.57778931 27.62818909 C19.46029915 26.31040752 15.48939065 25.26500703 11.1875 24.6875 Z " fill="#020100" transform="translate(1205.8125,363.3125)"/>
<path d="M0 0 C2.55998579 3.83997868 2.48027861 5.41578044 2 10 C0.73589434 13.50198567 -0.92056904 16.77163934 -2.609375 20.0859375 C-3.32619446 21.5339122 -3.32619446 21.5339122 -4.05749512 23.01113892 C-5.60913166 26.13884254 -7.17953085 29.25671671 -8.75 32.375 C-9.82538643 34.53571581 -10.89927581 36.69717734 -11.97167969 38.859375 C-14.06175922 43.07135054 -16.15738776 47.28047924 -18.2578125 51.48730469 C-21.31916997 57.62841472 -24.30645377 63.80149686 -27.25 70 C-32.23347218 80.44516566 -37.30096328 90.84863287 -42.375 101.25 C-47.97963757 112.73982208 -53.57446171 124.23392991 -59.125 135.75 C-64.1901091 146.25891795 -69.27577028 156.75760539 -74.375 167.25 C-74.73240265 167.9854303 -75.0898053 168.7208606 -75.45803833 169.47857666 C-75.8155014 170.21412781 -76.17296448 170.94967896 -76.54125977 171.70751953 C-77.26318706 173.19303217 -77.98511088 174.67854649 -78.70703125 176.1640625 C-79.06459 176.89980499 -79.42214874 177.63554749 -79.7905426 178.39358521 C-83.55240223 186.13518901 -87.30804348 193.87980379 -91.0625 201.625 C-91.39054626 202.30171753 -91.71859253 202.97843506 -92.05657959 203.67565918 C-93.70983183 207.08614561 -95.36299686 210.4966743 -97.01611328 213.90722656 C-100.00988151 220.08356752 -103.00447234 226.25950963 -105.99899292 232.43548584 C-107.66602819 235.87364127 -109.33301149 239.3118219 -111 242.75 C-111.66666642 244.12500012 -112.33333308 245.50000012 -113 246.875 C-113.33 247.555625 -113.66 248.23625 -114 248.9375 C-115 251 -116 253.0625 -117 255.125 C-117.32998993 255.80560486 -117.65997986 256.48620972 -117.99996948 257.18743896 C-118.66673588 258.56264338 -119.33350427 259.93784683 -120.00027466 261.31304932 C-121.66543184 264.74741378 -123.33055449 268.18179498 -124.99560547 271.61621094 C-128.01358719 277.84116158 -131.03183166 284.06598417 -134.05134583 290.29019165 C-140.12258351 302.80505639 -146.19367903 315.31993204 -152.23632812 327.84863281 C-154.22278819 331.96637522 -156.21264123 336.08247439 -158.20217896 340.19873047 C-160.25847184 344.45633419 -162.30402266 348.71900723 -164.34638977 352.98330688 C-165.88966833 356.20242619 -167.43830071 359.41895328 -168.98782349 362.6350708 C-169.7390662 364.19739274 -170.48803247 365.76081159 -171.23458862 367.32537842 C-172.27806475 369.51149345 -173.32954846 371.69358756 -174.3828125 373.875 C-174.68954391 374.52264313 -174.99627533 375.17028625 -175.31230164 375.83755493 C-179.83601129 385.14620809 -179.83601129 385.14620809 -184.1484375 386.84765625 C-188.11539258 387.23043262 -190.43531763 387.25975389 -194.125 385.5625 C-197.03814472 382.96600144 -199.50998899 380.25580956 -202.015625 377.2734375 C-204.23766117 374.72771889 -206.59263061 372.37089409 -209 370 C-212.45931825 366.57693209 -215.72917746 363.09041397 -218.890625 359.39453125 C-221.85545159 356.02890403 -224.93065534 352.77018769 -228 349.5 C-232.19982156 345.0207008 -236.36695454 340.5314426 -240.37109375 335.875 C-242.33665089 333.61248819 -244.35673309 331.40309317 -246.375 329.1875 C-249.50422827 325.72469918 -252.50500349 322.19320997 -255.4375 318.5625 C-258.51336588 314.75912497 -261.68753166 311.09917348 -265 307.5 C-269.41645603 302.69066905 -273.56948658 297.72291433 -277.66748047 292.64160156 C-279.76446017 290.05822093 -281.88812739 287.4970117 -284.00854492 284.93286133 C-295.73335368 270.74535083 -307.07684148 256.35429613 -318.06787109 241.58935547 C-319.98202038 239.02409551 -321.90523618 236.4659281 -323.83203125 233.91015625 C-329.85012907 225.92516792 -335.83149714 217.9173793 -341.6875 209.8125 C-342.14914551 209.1736084 -342.61079102 208.5347168 -343.08642578 207.87646484 C-344.73126924 205.58923648 -346.36609537 203.29505828 -348 201 C-348.40317444 200.43599487 -348.80634888 199.87198975 -349.22174072 199.29089355 C-357.09328119 188.27038129 -364.7091743 177.09324831 -372.20898438 165.81689453 C-373.99525714 163.13212851 -375.78644336 160.45068981 -377.578125 157.76953125 C-385.23367509 146.29103142 -392.69372502 134.70363111 -400 123 C-400.7312599 121.83201707 -401.46254052 120.66404711 -402.19384766 119.49609375 C-411.4501598 104.66745852 -420.41351903 89.6863232 -429.02783203 74.47558594 C-430.41573705 72.02965677 -431.80915467 69.58763161 -433.21044922 67.14941406 C-435.10350766 63.85407416 -436.98027608 60.54991493 -438.84667969 57.2394104 C-439.56643329 55.96798128 -440.29111207 54.69932608 -441.02099609 53.4336853 C-442.03754813 51.66794455 -443.03439934 49.89237761 -444.02734375 48.11328125 C-444.60218506 47.10048096 -445.17702637 46.08768066 -445.76928711 45.04418945 C-447.22104248 41.45324763 -447.34424713 38.84138798 -447 35 C-444.7967576 31.45907471 -442.82577516 29.56258398 -439 28 C-436.40365601 27.59658813 -436.40365601 27.59658813 -433.40771484 27.37744141 C-432.27157745 27.29024338 -431.13544006 27.20304535 -429.96487427 27.11320496 C-428.10667557 26.98369194 -428.10667557 26.98369194 -426.2109375 26.8515625 C-424.25908035 26.70567436 -424.25908035 26.70567436 -422.26779175 26.55683899 C-418.71319056 26.29151897 -415.15789639 26.03687706 -411.60237122 25.78428268 C-408.61471699 25.57063101 -405.62754612 25.35061531 -402.6403656 25.13045406 C-380.45014007 23.49501499 -358.25275809 21.95789869 -336.05371094 20.44750977 C-314.62686901 18.98839012 -293.21003639 17.4072748 -271.79348755 15.80508423 C-258.59313554 14.8183063 -245.39151559 13.84884782 -232.18988037 12.87942505 C-227.84677823 12.5604801 -223.50370972 12.24107861 -219.16064453 11.92163086 C-206.37507024 10.98135526 -193.58941003 10.04231048 -180.80329895 9.10935974 C-174.03546243 8.61553246 -167.26771543 8.12048365 -160.5 7.625 C-159.49161009 7.5512081 -159.49161009 7.5512081 -158.46284866 7.47592545 C-139.26055512 6.07035947 -120.06110421 4.62943921 -100.86328125 3.1640625 C-99.82646587 3.08495762 -98.7896505 3.00585274 -97.72141647 2.92435074 C-87.3846299 2.13559834 -77.04795609 1.34541687 -66.7116518 0.55036736 C-62.85220186 0.25375493 -58.99266332 -0.04169359 -55.13310814 -0.33693314 C-53.34400399 -0.47408753 -51.55494078 -0.61177732 -49.76592445 -0.75007248 C-4.847393 -4.22192294 -4.847393 -4.22192294 0 0 Z M-52.57421875 20.171875 C-54.31947528 20.29569929 -56.0647506 20.41925901 -57.81004333 20.54257202 C-62.47114736 20.87275983 -67.13195393 21.20697813 -71.79270172 21.5421524 C-75.67104606 21.82061897 -79.54954633 22.09687884 -83.42804718 22.37315559 C-95.6192091 23.2417031 -107.80975843 24.11863646 -120 25 C-120.7523568 25.05437729 -121.50471359 25.10875458 -122.27986908 25.16477966 C-143.71454482 26.71451628 -165.14711879 28.29031313 -186.5703125 29.9921875 C-187.61506744 30.07518097 -188.65982239 30.15817444 -189.73623657 30.24368286 C-196.06641501 30.74681409 -196.06641501 30.74681409 -202.39654541 31.25054932 C-220.82014951 32.71381778 -239.25338763 34.00162603 -257.69265747 35.25 C-274.69927073 36.4033057 -291.69584223 37.64411763 -308.6875 39 C-345.43784114 41.93113937 -382.20752236 44.65062959 -419 47 C-419 50.46014068 -418.21530556 51.82435548 -416.578125 54.83984375 C-415.79115234 56.2952356 -415.79115234 56.2952356 -414.98828125 57.7800293 C-414.41464844 58.82199463 -413.84101562 59.86395996 -413.25 60.9375 C-412.66089844 62.01491455 -412.07179688 63.0923291 -411.46484375 64.20239258 C-405.90600876 74.29861176 -400.04130936 84.18672516 -394 94 C-393.4740625 94.8569043 -392.948125 95.71380859 -392.40625 96.59667969 C-389.14690682 101.90290605 -385.86770722 107.19640611 -382.57177734 112.47998047 C-381.56271004 114.09781097 -380.55509564 115.71654909 -379.54931641 117.33642578 C-363.98957831 142.38235804 -347.44086625 166.85569584 -330.109375 190.70703125 C-328.22824201 193.29730338 -326.35937523 195.89470993 -324.515625 198.51171875 C-318.1550549 207.53756948 -311.47897585 216.30832776 -304.765625 225.07421875 C-301.87952059 228.84282152 -299.02166072 232.6297337 -296.1875 236.4375 C-288.4027192 246.84686404 -280.26332084 256.9680907 -272 267 C-270.54155659 268.79157706 -269.08322483 270.58324502 -267.625 272.375 C-263.82998124 277.01629471 -259.96965811 281.59807719 -256.08422852 286.16357422 C-253.19152743 289.56906544 -250.3620374 293.01703122 -247.5625 296.5 C-243.18899497 301.87854748 -238.51181721 306.93452931 -233.78515625 312 C-231.02403653 314.96144168 -228.34945349 317.98985638 -225.69921875 321.05078125 C-222.93692615 324.21948011 -220.11414295 327.33333163 -217.296875 330.453125 C-215.84444159 332.0636464 -214.39599324 333.67777857 -212.953125 335.296875 C-205.78026884 343.33263115 -198.38541638 351.16020885 -191 359 C-188.34975453 355.73965477 -186.58511584 352.33305068 -184.76953125 348.55078125 C-184.46238693 347.9142009 -184.15524261 347.27762054 -183.83879089 346.62174988 C-182.82604949 344.52055533 -181.81933981 342.41652794 -180.8125 340.3125 C-180.09746312 338.82660247 -179.38196037 337.34092905 -178.66601562 335.85546875 C-177.17869263 332.76860705 -175.69338126 329.68078958 -174.20947266 326.59228516 C-171.1514829 320.23143246 -168.06920983 313.88239131 -164.98690796 307.53329468 C-163.32343591 304.10609679 -161.66181886 300.67799973 -160 297.25 C-159.33334207 295.87499577 -158.6666754 294.49999576 -158 293.125 C-157.67 292.444375 -157.34 291.76375 -157 291.0625 C-129.33333333 234 -101.66666667 176.9375 -74 119.875 C-73.67001007 119.19439514 -73.34002014 118.51379028 -73.00003052 117.81256104 C-72.33326412 116.43735662 -71.66649573 115.06215317 -70.99972534 113.68695068 C-69.33456816 110.25258622 -67.66944551 106.81820502 -66.00439453 103.38378906 C-62.98647931 97.15897557 -59.96830378 90.93428894 -56.94885254 84.71022034 C-55.25739991 81.22356192 -53.56616988 77.73679557 -51.875 74.25 C-51.54576538 73.5712381 -51.21653076 72.8924762 -50.87731934 72.19314575 C-47.25247022 64.7193209 -43.63235545 57.24325102 -40.0234375 49.76171875 C-39.70305511 49.09759979 -39.38267273 48.43348083 -39.05258179 47.74923706 C-37.53914799 44.61160209 -36.02657981 41.47355568 -34.51513672 38.33496094 C-33.97904785 37.22282227 -33.44295898 36.11068359 -32.890625 34.96484375 C-32.39369141 33.93343262 -31.89675781 32.90202148 -31.38476562 31.83935547 C-30.15421387 29.31620369 -28.88957302 26.81458601 -27.609375 24.31640625 C-25.85447151 21.31449191 -25.85447151 21.31449191 -26 19 C-34.8906337 18.80857029 -43.71417825 19.53160756 -52.57421875 20.171875 Z " fill="#020100" transform="translate(1828,890)"/>
<path d="M0 0 C3.48919127 0.10150375 4.45697248 0.56398318 7.625 2.5 C12.10429237 7.51254146 12.5773818 13.83801832 13.5625 20.3125 C14.7676525 27.89598621 16.21491759 35.41428512 17.75 42.9375 C19.20616319 50.08808126 20.6041895 57.23038524 21.75 64.4375 C23.07487871 72.76324581 24.73729265 81.01055473 26.4140625 89.27172852 C27.73087315 95.77992634 28.96492444 102.29177909 30.0859375 108.83618164 C31.21774881 115.38732558 32.48409658 121.9111163 33.75 128.4375 C35.26324215 136.24349288 36.73549743 144.05102577 38.0859375 151.88671875 C39.40532794 159.46588384 40.885286 167.01447409 42.36132812 174.56445312 C43.96036612 182.78587356 45.42842451 191.0266297 46.87133789 199.27648926 C52.10106306 229.1223386 57.66767687 258.90588414 63.24110413 288.6890564 C64.67504973 296.3540067 66.10269919 304.02009109 67.5234375 311.6875 C67.69760696 312.62685394 67.87177643 313.56620789 68.05122375 314.5340271 C69.39850013 321.80052089 69.39850013 321.80052089 70.04782104 325.31231689 C71.67340391 334.10133554 73.32366863 342.8833637 75.07421875 351.6484375 C75.2179744 352.37240723 75.36173004 353.09637695 75.50984192 353.84228516 C76.17072579 357.16972464 76.83920142 360.49487245 77.5246582 363.81738281 C80.72713368 379.83539239 80.72713368 379.83539239 78.20751953 384.27392578 C76.45064613 386.46728147 74.77752301 388.1737385 72.25 389.4375 C40.16748869 390.41732936 7.23223256 385.98200714 -24.5 382 C-25.65762848 381.85487976 -26.81525696 381.70975952 -28.00796509 381.5602417 C-51.06816138 378.64953466 -74.11210304 375.54439563 -96.9375 371.125 C-97.70117889 370.97887268 -98.46485779 370.83274536 -99.25167847 370.68218994 C-128.36818195 365.10703128 -157.27787282 358.68185474 -185.73095703 350.32373047 C-187.84814638 349.70223626 -189.96640666 349.08438415 -192.08544922 348.46923828 C-220.06827343 340.33447168 -247.57091872 330.95827346 -274.75 320.4375 C-275.56694336 320.12280762 -276.38388672 319.80811523 -277.22558594 319.48388672 C-288.49030658 315.12564956 -299.59749521 310.40642666 -310.6875 305.625 C-311.35042053 305.34023804 -312.01334106 305.05547607 -312.6963501 304.76208496 C-314.60010468 303.94303807 -316.5015536 303.1188684 -318.40234375 302.29296875 C-319.50570068 301.81496826 -320.60905762 301.33696777 -321.74584961 300.84448242 C-329.11192839 297.39460741 -329.11192839 297.39460741 -331.75 293.4375 C-332.50618111 290.29500964 -332.48438034 287.58557795 -331.75 284.4375 C-329.5492331 281.21910829 -326.75218391 278.89815074 -323.75 276.4375 C-322.8940625 275.72851562 -322.038125 275.01953125 -321.15625 274.2890625 C-319.31346651 272.77988636 -317.46292065 271.28014803 -315.60546875 269.7890625 C-312.73191458 267.42260612 -309.98717383 264.95991697 -307.25 262.4375 C-302.80272888 258.34398909 -298.20282537 254.51307501 -293.5 250.71875 C-290.66900422 248.37031032 -287.95616402 245.92840098 -285.25 243.4375 C-280.80272888 239.34398909 -276.20282537 235.51307501 -271.5 231.71875 C-268.66900422 229.37031032 -265.95616402 226.92840098 -263.25 224.4375 C-258.80272888 220.34398909 -254.20282537 216.51307501 -249.5 212.71875 C-246.66900422 210.37031032 -243.95616402 207.92840098 -241.25 205.4375 C-236.80272888 201.34398909 -232.20282537 197.51307501 -227.5 193.71875 C-224.66900422 191.37031032 -221.95616402 188.92840098 -219.25 186.4375 C-214.80272888 182.34398909 -210.20282537 178.51307501 -205.5 174.71875 C-202.66900422 172.37031032 -199.95616402 169.92840098 -197.25 167.4375 C-192.80272888 163.34398909 -188.20282537 159.51307501 -183.5 155.71875 C-180.66900422 153.37031032 -177.95616402 150.92840098 -175.25 148.4375 C-170.7801488 144.32371091 -166.15955107 140.46662703 -161.43359375 136.65234375 C-158.80291443 134.48117173 -156.27057576 132.23508643 -153.75 129.9375 C-150.35401318 126.84194804 -146.88828469 123.88598793 -143.3125 121 C-138.538597 117.13924863 -134.01611572 113.06312925 -129.5 108.90625 C-125.93815771 105.70868704 -122.22434167 102.72361657 -118.5 99.71875 C-115.66900422 97.37031032 -112.95616402 94.92840098 -110.25 92.4375 C-105.80272888 88.34398909 -101.20282537 84.51307501 -96.5 80.71875 C-93.66900422 78.37031032 -90.95616402 75.92840098 -88.25 73.4375 C-83.80272888 69.34398909 -79.20282537 65.51307501 -74.5 61.71875 C-71.66900422 59.37031032 -68.95616402 56.92840098 -66.25 54.4375 C-61.80272888 50.34398909 -57.20282537 46.51307501 -52.5 42.71875 C-49.66900422 40.37031032 -46.95616402 37.92840098 -44.25 35.4375 C-39.80272888 31.34398909 -35.20282537 27.51307501 -30.5 23.71875 C-26.72440544 20.58672269 -23.14296964 17.25980297 -19.53515625 13.9375 C-15.78586056 10.57207329 -11.89165354 7.40496912 -7.96484375 4.25 C-3.23221692 0.37709197 -3.23221692 0.37709197 0 0 Z M-13.375 36.125 C-14.75125743 37.32557202 -16.12756077 38.52609141 -17.50390625 39.7265625 C-18.21047363 40.3443457 -18.91704102 40.96212891 -19.64501953 41.59863281 C-22.86029101 44.40742715 -26.08591337 47.20421913 -29.3125 50 C-29.9327002 50.53778076 -30.55290039 51.07556152 -31.19189453 51.62963867 C-35.9396904 55.74361183 -40.70715262 59.83418932 -45.48071289 63.91821289 C-49.75158809 67.57476358 -54.0041534 71.25193006 -58.25 74.9375 C-63.64254979 79.6184556 -69.05446436 84.27585664 -74.48046875 88.91796875 C-78.75138843 92.5746438 -83.00406669 96.25185479 -87.25 99.9375 C-92.06924518 104.12080355 -96.90089536 108.28884439 -101.75 112.4375 C-109.1122941 118.73751579 -116.43272422 125.08530541 -123.75 131.4375 C-131.64068588 138.28747718 -139.54085299 145.12525898 -147.48071289 151.91821289 C-151.75158809 155.57476358 -156.0041534 159.25193006 -160.25 162.9375 C-165.64254979 167.6184556 -171.05446436 172.27585664 -176.48046875 176.91796875 C-180.75138843 180.5746438 -185.00406669 184.25185479 -189.25 187.9375 C-194.06924518 192.12080355 -198.90089536 196.28884439 -203.75 200.4375 C-211.1122941 206.73751579 -218.43272422 213.08530541 -225.75 219.4375 C-233.64068588 226.28747718 -241.54085299 233.12525898 -249.48071289 239.91821289 C-253.75158809 243.57476358 -258.0041534 247.25193006 -262.25 250.9375 C-267.06924649 255.12080468 -271.90103385 259.28868126 -276.75 263.4375 C-281.79982771 267.76138792 -286.84336737 272.09244492 -291.875 276.4375 C-292.50277344 276.97761719 -293.13054688 277.51773438 -293.77734375 278.07421875 C-296.8841728 280.76138897 -299.89260678 283.48059558 -302.75 286.4375 C-273.8239937 299.79090767 -243.66826649 311.51934631 -213.15478516 320.70898438 C-210.56083192 321.49480736 -207.97370199 322.30091396 -205.38671875 323.109375 C-192.1140487 327.23525434 -178.75329325 330.96508391 -165.3112793 334.49804688 C-162.66745464 335.19547865 -160.02617845 335.90041242 -157.38598633 336.61132812 C-146.29358898 339.58526308 -135.16590803 342.2777789 -123.9375 344.6875 C-123.06426086 344.87526001 -122.19102173 345.06302002 -121.2913208 345.25646973 C-66.18592126 357.0167759 -6.88258078 368.04454405 49.75 367.5 C51.62171875 367.48646484 51.62171875 367.48646484 53.53125 367.47265625 C54.4284375 367.46105469 55.325625 367.44945312 56.25 367.4375 C55.76315577 358.73297221 54.43449754 350.29602414 52.75540161 341.75360107 C52.29466267 339.40923895 51.84165057 337.06348764 51.39038086 334.71728516 C50.89161629 332.12516151 50.39225482 329.53316317 49.89064026 326.94158936 C47.87663659 316.53612547 45.91447242 306.12092409 43.9519043 295.70565796 C43.31152784 292.30734098 42.67046407 288.9091542 42.02929688 285.51098633 C39.27466192 270.9060813 36.53440105 256.2985409 33.8125 241.6875 C33.65105499 240.82219666 33.48960999 239.95689331 33.32327271 239.06536865 C31.74252586 230.58927219 30.18350305 222.11074909 28.69921875 213.6171875 C27.39529195 206.16276269 25.96548558 198.7369197 24.5 191.3125 C21.75512102 177.27971143 19.1995348 163.2162648 16.69824219 149.13818359 C14.33089179 135.81675795 11.86375871 122.51927175 9.2590332 109.24194336 C6.03118862 92.77009292 3.01081356 76.26373605 0.05395508 59.74121094 C-1.70810955 49.93029367 -3.56641001 40.1651433 -5.75 30.4375 C-8.26108385 30.4375 -11.45404906 34.43871271 -13.375 36.125 Z " fill="#030100" transform="translate(2509.75,1373.5625)"/>
</svg>
