<?xml version="1.0" encoding="UTF-8"?>
<svg version="1.1" xmlns="http://www.w3.org/2000/svg" width="4000" height="2250">
<path d="M0 0 C1.1937751 0.01456993 1.1937751 0.01456993 2.41166687 0.0294342 C5.13801051 0.0693146 7.86381362 0.12228177 10.58984375 0.1796875 C12.03248596 0.20985458 12.03248596 0.20985458 13.50427246 0.2406311 C63.9823861 1.39769767 114.50399291 5.84650581 164.62994385 11.71734619 C167.29868537 12.02806504 169.96813504 12.33112392 172.63818359 12.63037109 C223.47532059 18.3534785 274.06805535 27.26460457 323.96038818 38.48168945 C327.6828425 39.31261893 331.41156579 40.113419 335.140625 40.9140625 C406.09311011 56.29858193 475.74510233 78.54184407 543.56286621 104.30847168 C545.40881425 105.00966352 547.25564692 105.70852522 549.10253906 106.40722656 C571.53307211 114.92835923 593.52812577 124.48766832 615.52734375 134.0546875 C616.22484741 134.3575769 616.92235107 134.66046631 617.64099121 134.97253418 C634.08522398 142.11567953 650.28214852 149.69553849 666.40136719 157.54248047 C670.22506877 159.39221552 674.06649164 161.2025105 677.91040039 163.00976562 C687.64523924 167.59428531 697.19775631 172.4512889 706.68115234 177.53369141 C709.35616159 178.96320827 712.03579088 180.38374565 714.71716309 181.80128479 C730.79836251 190.30324984 746.77591843 198.95172277 762.52734375 208.0546875 C763.64431641 208.70018555 764.76128906 209.34568359 765.91210938 210.01074219 C811.76757222 236.55630806 856.47311651 265.23585691 899.30664062 296.44287109 C901.50387372 298.03765264 903.70926102 299.62037625 905.91796875 301.19921875 C917.63486772 309.5849188 929.10150146 318.27775951 940.52734375 327.0546875 C941.76933646 328.00546284 943.01150126 328.95601346 944.25390625 329.90625 C960.44171587 342.30124048 976.4280606 354.95383113 991.94995117 368.17626953 C995.23343957 370.97118301 998.55178012 373.71568162 1001.90234375 376.4296875 C1007.02579694 380.59716108 1012.00571794 384.91652633 1016.97998047 389.25952148 C1020.60439101 392.41580585 1024.27201604 395.4912783 1028.02734375 398.4921875 C1033.99091871 403.31474961 1039.51696126 408.57833245 1045.09375 413.8359375 C1047.57128185 416.1689855 1050.07500217 418.45652605 1052.65234375 420.6796875 C1058.41530429 425.65116848 1063.95610687 430.87084967 1069.52734375 436.0546875 C1070.51226807 436.96976074 1070.51226807 436.96976074 1071.51708984 437.90332031 C1078.84548354 444.71759364 1086.14838469 451.53008787 1093.12109375 458.7109375 C1095.06205273 460.60148196 1097.02747508 462.35642099 1099.08374023 464.11547852 C1103.93766052 468.35095226 1108.48308951 472.86657613 1113.03125 477.42578125 C1113.91336655 478.30694107 1114.79548309 479.18810089 1115.70433044 480.09596252 C1118.02967184 482.420455 1120.35257993 484.74734657 1122.67468262 487.07507324 C1124.08879199 488.49113428 1125.50483496 489.90523071 1126.92163086 491.31860352 C1129.66921095 494.05997006 1132.41326481 496.80481784 1135.15625 499.55078125 C1135.99184952 500.38435654 1136.82744904 501.21793182 1137.68836975 502.07676697 C1141.95653532 506.36186637 1146.07968314 510.70992168 1150.00511169 515.31227112 C1152.53298202 518.20578703 1155.27868101 520.8729022 1158.02734375 523.5546875 C1162.12558366 527.55321354 1165.98450196 531.66917983 1169.72851562 536.00195312 C1172.73845035 539.43674291 1175.88698012 542.7394995 1179.02734375 546.0546875 C1183.43597746 550.7087503 1187.75745216 555.41386365 1191.95996094 560.25537109 C1193.90703329 562.49056163 1195.90228844 564.67938753 1197.90234375 566.8671875 C1201.03157202 570.32998832 1204.03234724 573.86147753 1206.96484375 577.4921875 C1210.04070963 581.29556253 1213.21487541 584.95551402 1216.52734375 588.5546875 C1220.56689193 592.94847298 1224.37413994 597.47307574 1228.12109375 602.1171875 C1230.82513875 605.41822944 1233.60867236 608.64214365 1236.40234375 611.8671875 C1241.861265 618.1913681 1247.04820413 624.69722361 1252.1640625 631.30029297 C1253.99800378 633.66037571 1255.84887002 636.00691922 1257.69970703 638.35375977 C1262.85731188 644.89632734 1267.96533704 651.47604644 1273.02685547 658.09326172 C1274.11627323 659.51733954 1275.20655636 660.94075549 1276.29736328 662.36376953 C1289.53765564 679.64176223 1302.5420776 697.06384 1315.01757812 714.90332031 C1316.51751563 717.04068275 1318.02885593 719.16953678 1319.54296875 721.296875 C1340.55458886 750.92209492 1360.52922531 781.37824265 1379.06835938 812.60888672 C1380.51679407 815.03700231 1381.9802578 817.45534923 1383.44921875 819.87109375 C1395.22528557 839.26742802 1406.14108897 859.15694351 1416.93505859 879.11279297 C1418.03738717 881.14944727 1419.14203494 883.18484739 1420.24853516 885.21923828 C1435.02089667 912.39348462 1448.89710769 939.97188838 1461.66333008 968.14953613 C1462.56286725 970.13301688 1463.46583822 972.11491111 1464.36914062 974.09667969 C1502.32939915 1057.49834907 1531.99016444 1144.2302438 1597.27600098 1474.63287354 C1597.5033817 1476.82380112 1597.73474649 1479.01425703 1597.96777344 1481.20458984 C1600.03127463 1500.86389685 1601.27260023 1520.58093151 1602.51813889 1540.30544662 C1602.60659705 1541.70559298 1602.69532808 1543.10572213 1602.78435135 1544.50583267 C1604.23364456 1567.30052036 1605.36161239 1590.09072507 1605.77734375 1612.9296875 C1605.80240494 1614.26699417 1605.80240494 1614.26699417 1605.82797241 1615.63131714 C1605.8832952 1620.23993263 1605.62547451 1623.38437944 1602.52734375 1627.0546875 C1599.73898808 1628.72912577 1597.67640177 1629.30480867 1594.44014314 1629.3059205 C1593.62783189 1629.31104872 1592.81552064 1629.31617693 1591.97859389 1629.32146054 C1591.08933935 1629.31691533 1590.20008481 1629.31237011 1589.28388315 1629.30768716 C1588.33149867 1629.31074026 1587.37911418 1629.31379335 1586.39786956 1629.31693897 C1583.17565456 1629.32479246 1579.9536243 1629.31828545 1576.73140812 1629.31195641 C1574.40034893 1629.31464724 1572.06929061 1629.31821361 1569.73823395 1629.32258087 C1563.96416473 1629.33108896 1558.19014852 1629.33021676 1552.41607617 1629.3255268 C1545.45489734 1629.32040029 1538.49374155 1629.3268997 1531.53256595 1629.3337664 C1518.52183315 1629.34625576 1505.51111364 1629.3491754 1492.50037575 1629.34693146 C1479.30971602 1629.34468511 1466.11906758 1629.3467418 1452.92840958 1629.35407639 C1452.09622796 1629.35453569 1451.26404635 1629.354995 1450.40664711 1629.35546822 C1447.01747133 1629.35735143 1443.62829556 1629.3592628 1440.23911981 1629.3612106 C1404.85443983 1629.38151697 1369.46976618 1629.38762321 1334.08508105 1629.38879482 C1330.27445893 1629.38892432 1326.46383681 1629.38906019 1322.65321469 1629.38920164 C1321.70764566 1629.38923565 1320.76207663 1629.38926966 1319.78785399 1629.3893047 C1298.85009389 1629.39012102 1277.91233501 1629.39449891 1256.97457555 1629.39951333 C1248.35783626 1629.40156998 1239.74109695 1629.40355003 1231.12435764 1629.40554583 C1229.69632235 1629.4058776 1229.69632235 1629.4058776 1228.23943787 1629.40621607 C1173.67168534 1629.41886716 1119.10393361 1629.42711398 1064.53617954 1629.42619896 C1062.49333702 1629.4261674 1060.4504945 1629.42613593 1058.40765197 1629.42610454 C1049.1840097 1629.42595777 1039.96036744 1629.42578143 1030.73672517 1629.42559677 C1026.62351194 1629.42551453 1022.51029871 1629.42543423 1018.39708548 1629.42535415 C1016.33834656 1629.42531336 1014.27960765 1629.42527132 1012.22086874 1629.42522803 C947.10581402 1629.42386721 881.99078105 1629.4385066 816.87573242 1629.46630859 C800.46797218 1629.47331033 784.06021193 1629.48024911 767.65245152 1629.48683739 C766.64223341 1629.48724314 765.6320153 1629.48764888 764.59118452 1629.48806693 C733.46907661 1629.50049152 702.34697048 1629.508027 671.22486019 1629.51055336 C669.75979027 1629.51067321 669.75979027 1629.51067321 668.26512297 1629.51079549 C646.82679272 1629.51250181 625.38846257 1629.5130245 603.95013226 1629.51245473 C596.27965928 1629.51226176 588.60918629 1629.51215767 580.9387133 1629.51209727 C579.03041143 1629.51208145 577.12210955 1629.51206104 575.21380768 1629.51203603 C544.7735256 1629.511683 514.33326211 1629.52309483 483.89298536 1629.54034366 C453.24498608 1629.55762196 422.59701256 1629.56204458 391.94901046 1629.54882102 C387.71856668 1629.54699629 383.48812286 1629.54530977 379.25767899 1629.54370499 C378.42835865 1629.54338481 377.59903832 1629.54306464 376.74458706 1629.54273476 C363.58705257 1629.53801973 350.42956249 1629.54676464 337.27203634 1629.56104736 C324.34950837 1629.57479554 311.42704631 1629.57437992 298.50451984 1629.55866309 C291.58542161 1629.55063937 284.66646768 1629.54898147 277.74738056 1629.56557779 C271.46327157 1629.58004106 265.17945435 1629.57637547 258.89535876 1629.55773006 C256.62618332 1629.55426357 254.35698556 1629.55762089 252.08783275 1629.56833247 C249.02357824 1629.58183805 245.96036626 1629.57100538 242.89615351 1629.55378282 C242.00928971 1629.56358206 241.12242591 1629.5733813 240.20868745 1629.58347748 C236.1118738 1629.53509228 234.04755978 1629.38271125 230.50429314 1627.14849404 C227.10838826 1623.55185778 227.33243819 1620.95756316 227.1328125 1616.08203125 C227.06707083 1614.62284289 227.00038062 1613.16369703 226.93286133 1611.70458984 C226.89802643 1610.93604675 226.86319153 1610.16750366 226.82730103 1609.37567139 C225.3006495 1577.0189448 219.63480754 1546.45123513 205.52734375 1517.0546875 C205.16382813 1516.29720215 204.8003125 1515.5397168 204.42578125 1514.75927734 C197.01367248 1499.57845204 187.57660453 1485.82539108 176.52734375 1473.0546875 C175.85703125 1472.27351563 175.18671875 1471.49234375 174.49609375 1470.6875 C164.44894103 1459.25324038 153.66543777 1448.26574795 141.52734375 1439.0546875 C140.96047852 1438.6220459 140.39361328 1438.1894043 139.80957031 1437.74365234 C104.25258155 1410.72147508 61.47132324 1394.74226494 16.62890625 1393.84375 C15.93960526 1393.8293689 15.25030426 1393.81498779 14.54011536 1393.8001709 C11.68418879 1393.7428496 8.8284723 1393.68786464 5.97216797 1393.65332031 C3.85727931 1393.62568716 1.74340205 1393.57990212 -0.37109375 1393.53125 C-1.61552246 1393.51143066 -2.85995117 1393.49161133 -4.14208984 1393.47119141 C-7.73273002 1393.02216398 -9.61039316 1392.23005871 -12.47265625 1390.0546875 C-14.49783774 1387.01691527 -14.72276257 1386.4551397 -14.72436192 1383.05317051 C-14.72959574 1382.23448889 -14.73482955 1381.41580726 -14.74022197 1380.5723171 C-14.73579489 1379.67078301 -14.73136781 1378.76924893 -14.72680658 1377.84039563 C-14.73157257 1376.39829776 -14.73157257 1376.39829776 -14.73643484 1374.9270666 C-14.74472125 1371.6680962 -14.73862051 1368.40930592 -14.73271847 1365.15033245 C-14.73571191 1362.79515986 -14.7395806 1360.43998825 -14.7442508 1358.08481839 C-14.75243078 1352.9286856 -14.75432198 1347.77258871 -14.75081652 1342.61645224 C-14.74560138 1334.89747174 -14.75183319 1327.17852979 -14.76033 1319.45955372 C-14.7744614 1306.30628479 -14.77899682 1293.15302785 -14.77835846 1279.99975204 C-14.77773734 1266.66354076 -14.78140621 1253.32734116 -14.79033852 1239.99113274 C-14.7908983 1239.14993118 -14.79145809 1238.30872963 -14.79203484 1237.44203712 C-14.79432639 1234.01615166 -14.79664473 1230.59026623 -14.79899814 1227.16438081 C-14.8235321 1191.39110925 -14.83366722 1155.61784245 -14.83852529 1119.84456345 C-14.83904898 1115.99169148 -14.83957481 1112.13881952 -14.84010196 1108.28594756 C-14.84023102 1107.32989678 -14.84036008 1106.373846 -14.84049305 1105.38882399 C-14.84339634 1084.2206604 -14.84955351 1063.05249816 -14.85619927 1041.88433547 C-14.85892266 1033.17321229 -14.86155368 1024.46208909 -14.86418492 1015.75096589 C-14.86447583 1014.78851633 -14.86476674 1013.82606676 -14.86506647 1012.83445205 C-14.88169369 957.66636714 -14.89354752 902.49828287 -14.89597988 847.33019543 C-14.89607451 845.2647431 -14.89616952 843.19929078 -14.89626491 841.13383846 C-14.89669267 831.80808395 -14.89709805 822.48232943 -14.89750327 813.15657492 C-14.89768487 808.99781659 -14.89786976 804.83905826 -14.89805534 800.68029992 C-14.89814736 798.59876421 -14.89823776 796.51722849 -14.89832653 794.43569277 C-14.90114144 728.60449436 -14.92287301 662.77332656 -14.9597168 596.94213867 C-14.98718126 547.86004615 -15.01307279 498.77795947 -15.0196619 449.69585896 C-15.01979534 448.70839308 -15.01992878 447.72092721 -15.02006626 446.70353813 C-15.02293824 425.02888239 -15.02435581 403.35422677 -15.02442447 381.67957085 C-15.02446416 373.92445066 -15.02462111 366.16933048 -15.02483899 358.4142103 C-15.02489264 356.48484911 -15.02494075 354.55548791 -15.02498332 352.62612671 C-15.02572754 321.85195008 -15.04141215 291.07780357 -15.06459462 260.30363636 C-15.087834 229.31752095 -15.09511247 198.33144437 -15.08041375 167.3453225 C-15.07838595 163.06769688 -15.07653204 158.79007119 -15.07478142 154.51244545 C-15.07425634 153.25459537 -15.07425634 153.25459537 -15.07372064 151.97133418 C-15.06862521 138.66972352 -15.08035793 125.36818256 -15.09902597 112.06658625 C-15.11701447 99.00093269 -15.11729061 85.93537984 -15.09846365 72.86972632 C-15.08794999 65.20070721 -15.09124218 57.53198831 -15.11458241 49.86299584 C-15.13035636 44.18261772 -15.12029791 38.50252713 -15.09983878 32.82217481 C-15.09565618 30.52872834 -15.09998808 28.23524786 -15.11353647 25.9418376 C-15.13064486 22.84234558 -15.11725979 19.74445745 -15.09595007 16.64502686 C-15.10825818 15.750665 -15.1205663 14.85630315 -15.13324739 13.93483941 C-15.07135944 9.665944 -14.78969238 6.90451939 -12.05870039 3.51779129 C-8.048903 -0.30138063 -5.29382323 -0.07935975 0 0 Z " fill="#F79220" transform="translate(945.47265625,397.9453125)"/>
<path d="M0 0 C1.1937751 0.01456993 1.1937751 0.01456993 2.41166687 0.0294342 C5.13801051 0.0693146 7.86381362 0.12228177 10.58984375 0.1796875 C12.03248596 0.20985458 12.03248596 0.20985458 13.50427246 0.2406311 C63.9823861 1.39769767 114.50399291 5.84650581 164.62994385 11.71734619 C167.29868537 12.02806504 169.96813504 12.33112392 172.63818359 12.63037109 C223.47532059 18.3534785 274.06805535 27.26460457 323.96038818 38.48168945 C327.6828425 39.31261893 331.41156579 40.113419 335.140625 40.9140625 C406.09311011 56.29858193 475.74510233 78.54184407 543.56286621 104.30847168 C545.40881425 105.00966352 547.25564692 105.70852522 549.10253906 106.40722656 C571.53307211 114.92835923 593.52812577 124.48766832 615.52734375 134.0546875 C616.22484741 134.3575769 616.92235107 134.66046631 617.64099121 134.97253418 C634.08522398 142.11567953 650.28214852 149.69553849 666.40136719 157.54248047 C670.22506877 159.39221552 674.06649164 161.2025105 677.91040039 163.00976562 C687.64523924 167.59428531 697.19775631 172.4512889 706.68115234 177.53369141 C709.35616159 178.96320827 712.03579088 180.38374565 714.71716309 181.80128479 C730.79836251 190.30324984 746.77591843 198.95172277 762.52734375 208.0546875 C763.64431641 208.70018555 764.76128906 209.34568359 765.91210938 210.01074219 C811.76757222 236.55630806 856.47311651 265.23585691 899.30664062 296.44287109 C901.50387372 298.03765264 903.70926102 299.62037625 905.91796875 301.19921875 C917.63486772 309.5849188 929.10150146 318.27775951 940.52734375 327.0546875 C941.76933646 328.00546284 943.01150126 328.95601346 944.25390625 329.90625 C960.44171587 342.30124048 976.4280606 354.95383113 991.94995117 368.17626953 C995.23343957 370.97118301 998.55178012 373.71568162 1001.90234375 376.4296875 C1007.02579694 380.59716108 1012.00571794 384.91652633 1016.97998047 389.25952148 C1020.60439101 392.41580585 1024.27201604 395.4912783 1028.02734375 398.4921875 C1033.99091871 403.31474961 1039.51696126 408.57833245 1045.09375 413.8359375 C1047.57128185 416.1689855 1050.07500217 418.45652605 1052.65234375 420.6796875 C1058.41530429 425.65116848 1063.95610687 430.87084967 1069.52734375 436.0546875 C1070.51226807 436.96976074 1070.51226807 436.96976074 1071.51708984 437.90332031 C1078.84548354 444.71759364 1086.14838469 451.53008787 1093.12109375 458.7109375 C1095.06205273 460.60148196 1097.02747508 462.35642099 1099.08374023 464.11547852 C1103.93766052 468.35095226 1108.48308951 472.86657613 1113.03125 477.42578125 C1113.91336655 478.30694107 1114.79548309 479.18810089 1115.70433044 480.09596252 C1118.02967184 482.420455 1120.35257993 484.74734657 1122.67468262 487.07507324 C1124.08879199 488.49113428 1125.50483496 489.90523071 1126.92163086 491.31860352 C1129.66921095 494.05997006 1132.41326481 496.80481784 1135.15625 499.55078125 C1135.99184952 500.38435654 1136.82744904 501.21793182 1137.68836975 502.07676697 C1141.95653532 506.36186637 1146.07968314 510.70992168 1150.00511169 515.31227112 C1152.53298202 518.20578703 1155.27868101 520.8729022 1158.02734375 523.5546875 C1162.12558366 527.55321354 1165.98450196 531.66917983 1169.72851562 536.00195312 C1172.73845035 539.43674291 1175.88698012 542.7394995 1179.02734375 546.0546875 C1183.43597746 550.7087503 1187.75745216 555.41386365 1191.95996094 560.25537109 C1193.90703329 562.49056163 1195.90228844 564.67938753 1197.90234375 566.8671875 C1201.03157202 570.32998832 1204.03234724 573.86147753 1206.96484375 577.4921875 C1210.04070963 581.29556253 1213.21487541 584.95551402 1216.52734375 588.5546875 C1220.56689193 592.94847298 1224.37413994 597.47307574 1228.12109375 602.1171875 C1230.82513875 605.41822944 1233.60867236 608.64214365 1236.40234375 611.8671875 C1241.861265 618.1913681 1247.04820413 624.69722361 1252.1640625 631.30029297 C1253.99800378 633.66037571 1255.84887002 636.00691922 1257.69970703 638.35375977 C1262.85731188 644.89632734 1267.96533704 651.47604644 1273.02685547 658.09326172 C1274.11627323 659.51733954 1275.20655636 660.94075549 1276.29736328 662.36376953 C1289.53765564 679.64176223 1302.5420776 697.06384 1315.01757812 714.90332031 C1316.51751563 717.04068275 1318.02885593 719.16953678 1319.54296875 721.296875 C1340.55458886 750.92209492 1360.52922531 781.37824265 1379.06835938 812.60888672 C1380.51679407 815.03700231 1381.9802578 817.45534923 1383.44921875 819.87109375 C1395.22528557 839.26742802 1406.14108897 859.15694351 1416.93505859 879.11279297 C1418.03738717 881.14944727 1419.14203494 883.18484739 1420.24853516 885.21923828 C1435.02089667 912.39348462 1448.89710769 939.97188838 1461.66333008 968.14953613 C1462.56286725 970.13301688 1463.46583822 972.11491111 1464.36914062 974.09667969 C1502.32939915 1057.49834907 1531.99016444 1144.2302438 1597.27600098 1474.63287354 C1597.5033817 1476.82380112 1597.73474649 1479.01425703 1597.96777344 1481.20458984 C1600.03127463 1500.86389685 1601.27260023 1520.58093151 1602.51813889 1540.30544662 C1602.60659705 1541.70559298 1602.69532808 1543.10572213 1602.78435135 1544.50583267 C1604.23364456 1567.30052036 1605.36161239 1590.09072507 1605.77734375 1612.9296875 C1605.80240494 1614.26699417 1605.80240494 1614.26699417 1605.82797241 1615.63131714 C1605.8832952 1620.23993263 1605.62547451 1623.38437944 1602.52734375 1627.0546875 C1599.73898808 1628.72912577 1597.67640177 1629.30480867 1594.44014314 1629.3059205 C1593.62783189 1629.31104872 1592.81552064 1629.31617693 1591.97859389 1629.32146054 C1591.08933935 1629.31691533 1590.20008481 1629.31237011 1589.28388315 1629.30768716 C1588.33149867 1629.31074026 1587.37911418 1629.31379335 1586.39786956 1629.31693897 C1583.17565456 1629.32479246 1579.9536243 1629.31828545 1576.73140812 1629.31195641 C1574.40034893 1629.31464724 1572.06929061 1629.31821361 1569.73823395 1629.32258087 C1563.96416473 1629.33108896 1558.19014852 1629.33021676 1552.41607617 1629.3255268 C1545.45489734 1629.32040029 1538.49374155 1629.3268997 1531.53256595 1629.3337664 C1518.52183315 1629.34625576 1505.51111364 1629.3491754 1492.50037575 1629.34693146 C1479.30971602 1629.34468511 1466.11906758 1629.3467418 1452.92840958 1629.35407639 C1452.09622796 1629.35453569 1451.26404635 1629.354995 1450.40664711 1629.35546822 C1447.01747133 1629.35735143 1443.62829556 1629.3592628 1440.23911981 1629.3612106 C1404.85443983 1629.38151697 1369.46976618 1629.38762321 1334.08508105 1629.38879482 C1330.27445893 1629.38892432 1326.46383681 1629.38906019 1322.65321469 1629.38920164 C1321.70764566 1629.38923565 1320.76207663 1629.38926966 1319.78785399 1629.3893047 C1298.85009389 1629.39012102 1277.91233501 1629.39449891 1256.97457555 1629.39951333 C1248.35783626 1629.40156998 1239.74109695 1629.40355003 1231.12435764 1629.40554583 C1229.69632235 1629.4058776 1229.69632235 1629.4058776 1228.23943787 1629.40621607 C1173.67168534 1629.41886716 1119.10393361 1629.42711398 1064.53617954 1629.42619896 C1062.49333702 1629.4261674 1060.4504945 1629.42613593 1058.40765197 1629.42610454 C1049.1840097 1629.42595777 1039.96036744 1629.42578143 1030.73672517 1629.42559677 C1026.62351194 1629.42551453 1022.51029871 1629.42543423 1018.39708548 1629.42535415 C1016.33834656 1629.42531336 1014.27960765 1629.42527132 1012.22086874 1629.42522803 C947.10581402 1629.42386721 881.99078105 1629.4385066 816.87573242 1629.46630859 C800.46797218 1629.47331033 784.06021193 1629.48024911 767.65245152 1629.48683739 C766.64223341 1629.48724314 765.6320153 1629.48764888 764.59118452 1629.48806693 C733.46907661 1629.50049152 702.34697048 1629.508027 671.22486019 1629.51055336 C669.75979027 1629.51067321 669.75979027 1629.51067321 668.26512297 1629.51079549 C646.82679272 1629.51250181 625.38846257 1629.5130245 603.95013226 1629.51245473 C596.27965928 1629.51226176 588.60918629 1629.51215767 580.9387133 1629.51209727 C579.03041143 1629.51208145 577.12210955 1629.51206104 575.21380768 1629.51203603 C544.7735256 1629.511683 514.33326211 1629.52309483 483.89298536 1629.54034366 C453.24498608 1629.55762196 422.59701256 1629.56204458 391.94901046 1629.54882102 C387.71856668 1629.54699629 383.48812286 1629.54530977 379.25767899 1629.54370499 C378.42835865 1629.54338481 377.59903832 1629.54306464 376.74458706 1629.54273476 C363.58705257 1629.53801973 350.42956249 1629.54676464 337.27203634 1629.56104736 C324.34950837 1629.57479554 311.42704631 1629.57437992 298.50451984 1629.55866309 C291.58542161 1629.55063937 284.66646768 1629.54898147 277.74738056 1629.56557779 C271.46327157 1629.58004106 265.17945435 1629.57637547 258.89535876 1629.55773006 C256.62618332 1629.55426357 254.35698556 1629.55762089 252.08783275 1629.56833247 C249.02357824 1629.58183805 245.96036626 1629.57100538 242.89615351 1629.55378282 C242.00928971 1629.56358206 241.12242591 1629.5733813 240.20868745 1629.58347748 C236.1118738 1629.53509228 234.04755978 1629.38271125 230.50429314 1627.14849404 C227.10838826 1623.55185778 227.33243819 1620.95756316 227.1328125 1616.08203125 C227.06707083 1614.62284289 227.00038062 1613.16369703 226.93286133 1611.70458984 C226.89802643 1610.93604675 226.86319153 1610.16750366 226.82730103 1609.37567139 C225.3006495 1577.0189448 219.63480754 1546.45123513 205.52734375 1517.0546875 C205.16382813 1516.29720215 204.8003125 1515.5397168 204.42578125 1514.75927734 C197.01367248 1499.57845204 187.57660453 1485.82539108 176.52734375 1473.0546875 C175.85703125 1472.27351563 175.18671875 1471.49234375 174.49609375 1470.6875 C164.44894103 1459.25324038 153.66543777 1448.26574795 141.52734375 1439.0546875 C140.96047852 1438.6220459 140.39361328 1438.1894043 139.80957031 1437.74365234 C104.25258155 1410.72147508 61.47132324 1394.74226494 16.62890625 1393.84375 C15.93960526 1393.8293689 15.25030426 1393.81498779 14.54011536 1393.8001709 C11.68418879 1393.7428496 8.8284723 1393.68786464 5.97216797 1393.65332031 C3.85727931 1393.62568716 1.74340205 1393.57990212 -0.37109375 1393.53125 C-1.61552246 1393.51143066 -2.85995117 1393.49161133 -4.14208984 1393.47119141 C-7.73273002 1393.02216398 -9.61039316 1392.23005871 -12.47265625 1390.0546875 C-14.49783774 1387.01691527 -14.72276257 1386.4551397 -14.72436192 1383.05317051 C-14.72959574 1382.23448889 -14.73482955 1381.41580726 -14.74022197 1380.5723171 C-14.73579489 1379.67078301 -14.73136781 1378.76924893 -14.72680658 1377.84039563 C-14.73157257 1376.39829776 -14.73157257 1376.39829776 -14.73643484 1374.9270666 C-14.74472125 1371.6680962 -14.73862051 1368.40930592 -14.73271847 1365.15033245 C-14.73571191 1362.79515986 -14.7395806 1360.43998825 -14.7442508 1358.08481839 C-14.75243078 1352.9286856 -14.75432198 1347.77258871 -14.75081652 1342.61645224 C-14.74560138 1334.89747174 -14.75183319 1327.17852979 -14.76033 1319.45955372 C-14.7744614 1306.30628479 -14.77899682 1293.15302785 -14.77835846 1279.99975204 C-14.77773734 1266.66354076 -14.78140621 1253.32734116 -14.79033852 1239.99113274 C-14.7908983 1239.14993118 -14.79145809 1238.30872963 -14.79203484 1237.44203712 C-14.79432639 1234.01615166 -14.79664473 1230.59026623 -14.79899814 1227.16438081 C-14.8235321 1191.39110925 -14.83366722 1155.61784245 -14.83852529 1119.84456345 C-14.83904898 1115.99169148 -14.83957481 1112.13881952 -14.84010196 1108.28594756 C-14.84023102 1107.32989678 -14.84036008 1106.373846 -14.84049305 1105.38882399 C-14.84339634 1084.2206604 -14.84955351 1063.05249816 -14.85619927 1041.88433547 C-14.85892266 1033.17321229 -14.86155368 1024.46208909 -14.86418492 1015.75096589 C-14.86447583 1014.78851633 -14.86476674 1013.82606676 -14.86506647 1012.83445205 C-14.88169369 957.66636714 -14.89354752 902.49828287 -14.89597988 847.33019543 C-14.89607451 845.2647431 -14.89616952 843.19929078 -14.89626491 841.13383846 C-14.89669267 831.80808395 -14.89709805 822.48232943 -14.89750327 813.15657492 C-14.89768487 808.99781659 -14.89786976 804.83905826 -14.89805534 800.68029992 C-14.89814736 798.59876421 -14.89823776 796.51722849 -14.89832653 794.43569277 C-14.90114144 728.60449436 -14.92287301 662.77332656 -14.9597168 596.94213867 C-14.98718126 547.86004615 -15.01307279 498.77795947 -15.0196619 449.69585896 C-15.01979534 448.70839308 -15.01992878 447.72092721 -15.02006626 446.70353813 C-15.02293824 425.02888239 -15.02435581 403.35422677 -15.02442447 381.67957085 C-15.02446416 373.92445066 -15.02462111 366.16933048 -15.02483899 358.4142103 C-15.02489264 356.48484911 -15.02494075 354.55548791 -15.02498332 352.62612671 C-15.02572754 321.85195008 -15.04141215 291.07780357 -15.06459462 260.30363636 C-15.087834 229.31752095 -15.09511247 198.33144437 -15.08041375 167.3453225 C-15.07838595 163.06769688 -15.07653204 158.79007119 -15.07478142 154.51244545 C-15.07425634 153.25459537 -15.07425634 153.25459537 -15.07372064 151.97133418 C-15.06862521 138.66972352 -15.08035793 125.36818256 -15.09902597 112.06658625 C-15.11701447 99.00093269 -15.11729061 85.93537984 -15.09846365 72.86972632 C-15.08794999 65.20070721 -15.09124218 57.53198831 -15.11458241 49.86299584 C-15.13035636 44.18261772 -15.12029791 38.50252713 -15.09983878 32.82217481 C-15.09565618 30.52872834 -15.09998808 28.23524786 -15.11353647 25.9418376 C-15.13064486 22.84234558 -15.11725979 19.74445745 -15.09595007 16.64502686 C-15.10825818 15.750665 -15.1205663 14.85630315 -15.13324739 13.93483941 C-15.07135944 9.665944 -14.78969238 6.90451939 -12.05870039 3.51779129 C-8.048903 -0.30138063 -5.29382323 -0.07935975 0 0 Z M6.52734375 22.0546875 C6.52734375 411.7846875 6.52734375 801.5146875 6.52734375 1203.0546875 C20.38734375 1204.5396875 20.38734375 1204.5396875 34.52734375 1206.0546875 C62.39044222 1209.56064029 89.89297977 1215.73655096 116.41357422 1224.97851562 C119.37976333 1226.00368119 122.35713922 1226.98152816 125.34375 1227.9453125 C169.72418594 1242.47539818 211.82845788 1266.34622779 248.52734375 1295.0546875 C249.34589844 1295.69277344 250.16445312 1296.33085938 251.0078125 1296.98828125 C260.765868 1304.69854132 270.21790924 1312.81095716 279.52734375 1321.0546875 C280.20313477 1321.64636719 280.87892578 1322.23804688 281.57519531 1322.84765625 C288.69584248 1329.15407952 295.45371412 1335.79489212 302.17749023 1342.51953125 C304.08493315 1344.42478254 306.00025842 1346.32186363 307.91601562 1348.21875 C314.92393003 1355.19489097 321.39129249 1362.29251412 327.52734375 1370.0546875 C328.99265747 1371.78025084 330.48100838 1373.48262801 331.97412109 1375.18408203 C338.95020394 1383.14285227 345.33078006 1391.4797786 351.52734375 1400.0546875 C352.09243652 1400.83650391 352.6575293 1401.61832031 353.23974609 1402.42382812 C361.55128615 1413.9833188 369.3465728 1425.76008123 376.52734375 1438.0546875 C376.92791992 1438.74014648 377.32849609 1439.42560547 377.74121094 1440.13183594 C383.02592712 1449.23304954 387.91455344 1458.5024895 392.50927734 1467.96972656 C393.53787031 1470.07624549 394.58841167 1472.17082077 395.640625 1474.265625 C402.66246013 1488.44602303 408.11867862 1503.20401193 413.52734375 1518.0546875 C413.8109375 1518.82264648 414.09453125 1519.59060547 414.38671875 1520.38183594 C421.01113055 1538.42415753 425.01807904 1557.46639819 429.27734375 1576.1796875 C429.55884277 1577.41009766 429.8403418 1578.64050781 430.13037109 1579.90820312 C432.22768515 1589.26795173 433.85572597 1598.58218673 435.52734375 1608.0546875 C814.36734375 1608.0546875 1193.20734375 1608.0546875 1583.52734375 1608.0546875 C1583.64145659 1578.08426877 1583.64145659 1578.08426877 1582.33984375 1548.2421875 C1582.20598934 1546.24341802 1582.07228726 1544.24463834 1581.9387207 1542.24584961 C1578.45941674 1491.35140175 1573.13093809 1440.72921361 1565.40234375 1390.3046875 C1565.23826019 1389.23238892 1565.07417664 1388.16009033 1564.90512085 1387.05529785 C1562.97772554 1374.53490696 1560.84677499 1362.07513292 1558.40649414 1349.64428711 C1557.54614427 1345.23197293 1556.80100225 1340.80569289 1556.08984375 1336.3671875 C1547.08095739 1281.50524038 1533.18741958 1227.2073575 1517.11999512 1174.02154541 C1516.55652945 1172.15154735 1515.99928498 1170.27967806 1515.44238281 1168.40771484 C1504.42989312 1131.42679511 1491.54301184 1094.99609248 1477.52734375 1059.0546875 C1477.14707031 1058.07226074 1476.76679688 1057.08983398 1476.375 1056.07763672 C1469.84524023 1039.23555692 1462.67607182 1022.64128109 1455.52734375 1006.0546875 C1455.22183594 1005.34465576 1454.91632813 1004.63462402 1454.6015625 1003.90307617 C1435.6386732 959.86983508 1414.67187131 916.2729503 1390.75390625 874.69921875 C1388.45394133 870.69937195 1386.20645241 866.67469158 1383.98828125 862.62890625 C1374.94948382 846.14335866 1365.42094428 830.03665759 1355.52734375 814.0546875 C1354.8720166 812.99588379 1354.21668945 811.93708008 1353.54150391 810.84619141 C1349.23238301 803.89736643 1344.88648826 796.97220693 1340.52734375 790.0546875 C1339.90666016 789.0661377 1339.28597656 788.07758789 1338.64648438 787.05908203 C1330.04675025 773.30571925 1330.04675025 773.30571925 1320.69921875 760.05859375 C1317.59652946 755.76728429 1314.69865976 751.34574875 1311.77734375 746.9296875 C1301.73093773 731.7759131 1291.13408635 717.07142431 1280.30957031 702.46630859 C1278.53877144 700.07015089 1276.77763203 697.66720506 1275.01953125 695.26171875 C1264.45283001 680.81686832 1253.54671631 666.67172208 1242.21508789 652.81835938 C1238.72125845 648.5435563 1235.29356303 644.22368857 1231.90234375 639.8671875 C1227.45477102 634.1629197 1222.83372327 628.62855285 1218.13671875 623.12890625 C1215.7646534 620.34735662 1213.45241663 617.52120089 1211.15234375 614.6796875 C1202.99494627 604.66899936 1194.44744466 594.9900996 1185.7265625 585.46875 C1183.20642455 582.7024174 1180.74543487 579.88923044 1178.2890625 577.06640625 C1167.91167593 565.21639719 1157.1653315 553.68343093 1146.39575195 542.19018555 C1143.99875528 539.63079164 1141.60907272 537.06501019 1139.22729492 534.49145508 C1127.76775268 522.15845963 1115.88462073 510.25759926 1103.97021484 498.3671875 C1101.0780353 495.48076579 1098.19045527 492.58979044 1095.30412292 489.69752312 C1093.04612604 487.43589565 1090.78573225 485.17667581 1088.52462769 482.91815567 C1087.4587196 481.85290677 1086.39353177 480.7869366 1085.32913208 479.72018051 C1080.07678002 474.45872743 1074.8061512 469.26721559 1069.13989258 464.447052 C1066.81103033 462.43618258 1064.6728381 460.25816818 1062.52734375 458.0546875 C1059.10427584 454.59536925 1055.61775772 451.32551004 1051.921875 448.1640625 C1048.55624778 445.19923591 1045.29753144 442.12403216 1042.02734375 439.0546875 C1037.54804455 434.85486594 1033.05878635 430.68773296 1028.40234375 426.68359375 C1026.13983194 424.71803661 1023.93043692 422.69795441 1021.71484375 420.6796875 C1018.25204293 417.55045923 1014.72055372 414.54968401 1011.08984375 411.6171875 C1007.28646872 408.54132162 1003.62651723 405.36715584 1000.02734375 402.0546875 C995.61094231 397.99485105 991.06570853 394.16144929 986.3984375 390.39453125 C983.29747224 387.86735003 980.25572275 385.27838971 977.21484375 382.6796875 C972.22710694 378.43142242 967.13612578 374.34100288 961.96508789 370.31860352 C957.47173299 366.81760058 953.05648603 363.22948363 948.65234375 359.6171875 C942.00986812 354.18367783 935.21070473 348.99656438 928.3203125 343.8828125 C924.89454593 341.33908832 921.52019845 338.73709956 918.15234375 336.1171875 C911.599896 331.04108814 904.88064402 326.2033741 898.14453125 321.375 C895.25930018 319.30659234 892.38859451 317.22140222 889.53515625 315.109375 C878.05780138 306.65061467 866.21239056 298.76982154 854.31420898 290.92016602 C847.41615386 286.36236985 840.62707073 281.72573637 833.97045898 276.81762695 C830.26113344 274.14099662 826.41421986 271.71306289 822.52734375 269.3046875 C820.86577835 268.26579621 819.20432308 267.22672879 817.54296875 266.1875 C816.70830078 265.66704102 815.87363281 265.14658203 815.01367188 264.61035156 C812.63158542 263.11991019 810.25755676 261.61763152 807.88671875 260.109375 C788.72337021 247.92006854 769.31904264 236.19517677 749.52734375 225.0546875 C748.07787354 224.23532715 748.07787354 224.23532715 746.59912109 223.39941406 C731.64064212 214.94472645 716.58223742 206.68998861 701.42236328 198.60205078 C698.91013448 197.25928588 696.40332922 195.90715877 693.8984375 194.55078125 C668.7647745 181.02644981 642.78019113 169.06605996 616.7097168 157.47753906 C613.87511167 156.21017591 611.05382753 154.91777796 608.234375 153.6171875 C600.64173209 150.15854797 592.92115269 146.999383 585.21484375 143.8046875 C583.59008743 143.13045359 581.96533157 142.45621856 580.34057617 141.78198242 C577.92625783 140.78041248 575.51177049 139.7792582 573.09681702 138.77922058 C568.87327011 137.03003892 564.65435439 135.27070087 560.44140625 133.49609375 C545.52470239 127.24855842 530.32530926 121.79439478 515.10473633 116.34155273 C512.11475925 115.26599352 509.13280815 114.17180695 506.15234375 113.0703125 C497.62354369 109.9635117 488.97794123 107.18670452 480.36010742 104.33911133 C478.03389943 103.56985047 475.70817581 102.7991541 473.3828125 102.02734375 C472.62643997 101.77638443 471.87006744 101.52542511 471.09077454 101.26686096 C466.38579653 99.69762095 461.71355222 98.05769944 457.05078125 96.3671875 C451.41040716 94.3335611 445.74528026 92.57780304 439.96484375 90.9921875 C438.13381425 90.48023964 436.30308299 89.96722382 434.47265625 89.453125 C433.18149902 89.09105957 433.18149902 89.09105957 431.86425781 88.72167969 C429.00549978 87.90574499 426.1722155 87.0201507 423.33984375 86.1171875 C415.81237921 83.76424463 408.18278093 81.78575418 400.56298828 79.75756836 C394.7213188 78.19866109 388.89958777 76.59883764 383.10205078 74.88330078 C341.63836059 62.66215585 298.82853816 54.06527204 256.26367188 46.70166016 C252.51121123 46.05189404 248.76136259 45.38846716 245.01171875 44.72265625 C222.1672375 40.69163151 199.2616662 37.28141153 176.23144531 34.50830078 C172.70649287 34.07662654 169.18368114 33.63069252 165.66105652 33.18054199 C144.10608954 30.42891729 122.57825517 28.06123235 100.90722656 26.45800781 C96.94988505 26.16424117 92.99385856 25.85617584 89.03808594 25.54199219 C83.01744348 25.0638166 76.99581117 24.60015467 70.97341919 24.14456177 C68.61201217 23.96430033 66.25088475 23.78032394 63.8901062 23.5920105 C44.66320317 22.06757006 25.91563116 22.0546875 6.52734375 22.0546875 Z " fill="#020100" transform="translate(945.47265625,397.9453125)"/>
<path d="M0 0 C4.58344975 1.70546967 5.8465925 4.34516232 7.91345215 8.62490845 C9.89371394 12.95357473 11.69361157 17.35195575 13.484375 21.76171875 C13.90366272 22.78820023 14.32295044 23.8146817 14.75494385 24.87226868 C15.6405627 27.04256086 16.52462767 29.2134877 17.40722656 31.38500977 C18.72826269 34.63403809 20.05512311 37.88063887 21.3828125 41.12695312 C26.77757944 54.3484207 32.00105695 67.62380577 37 81 C37.41926758 82.12124268 37.83853516 83.24248535 38.27050781 84.39770508 C45.31976411 103.43492794 51.67457665 122.71319567 58 142 C58.4017041 143.22444824 58.8034082 144.44889648 59.21728516 145.71044922 C63.52588368 158.89291119 67.56210957 172.1257418 71.29101562 185.48339844 C71.98710452 187.95422637 72.70103026 190.41910343 73.421875 192.8828125 C77.41997749 206.58479784 80.98829178 220.38986923 84.51283264 234.21925354 C85.56226852 238.32506436 86.64346692 242.4209569 87.75 246.51171875 C95.44721274 275.11976681 101.22083157 304.22623418 106.7109375 333.328125 C107.58601279 337.93813777 108.5299176 342.52734643 109.5234375 347.11328125 C110.87767912 353.36999962 112.11919977 359.63671538 113.25 365.9375 C113.435625 366.91267578 113.62125 367.88785156 113.8125 368.89257812 C114.77025494 374.25092676 115.31347444 378.68288689 114 384 C112.10888889 386.3181362 110.66171969 387.66914015 108 389 C99.39880366 389.66589907 91.42127821 387.49503721 83.125 385.5 C81.57194059 385.13437601 80.01863105 384.76981306 78.46508789 384.40625 C75.24187609 383.65115089 72.01978062 382.89152365 68.79833984 382.12890625 C64.24166502 381.05315388 59.67905686 380.00512228 55.11328125 378.96875 C54.03572571 378.72414284 54.03572571 378.72414284 52.93640137 378.47459412 C51.49198236 378.14687008 50.04754476 377.81922799 48.60308838 377.4916687 C36.30462688 374.69946283 24.02303936 371.83920943 11.75 368.9375 C-1.51830635 365.8006447 -14.80637622 362.76429917 -28.109375 359.77734375 C-33.56015356 358.55262621 -39.00786204 357.31540521 -44.453125 356.06640625 C-45.16768356 355.90251404 -45.88224213 355.73862183 -46.61845398 355.56976318 C-48.07550831 355.23548739 -49.53255478 354.9011773 -50.98959351 354.5668335 C-63.08839879 351.79063133 -75.19610155 349.06060096 -87.31744385 346.38446045 C-99.16886414 343.76791311 -110.99460081 341.08174917 -122.78833008 338.21386719 C-139.17083749 334.24218825 -155.63768161 330.62338863 -172.09765625 326.98828125 C-175.19017383 326.30500228 -178.28262588 325.62142796 -181.375 324.9375 C-182.14142822 324.76801849 -182.90785645 324.59853699 -183.69750977 324.42391968 C-194.08631094 322.12379734 -204.44615569 319.73008198 -214.78515625 317.21411133 C-222.79742873 315.27053381 -230.83115197 313.43315785 -238.875 311.625 C-240.15109131 311.33778076 -241.42718262 311.05056152 -242.74194336 310.75463867 C-247.59128304 309.66367968 -252.44083344 308.57365802 -257.29101562 307.4864502 C-262.04782904 306.42015746 -266.80361336 305.34946052 -271.5581665 304.27313232 C-273.08361986 303.92869067 -274.6094503 303.58591414 -276.13568115 303.24493408 C-297.19881588 298.5375962 -297.19881588 298.5375962 -301.5625 294.8125 C-303.44379448 291.13170645 -303.89282001 287.9979374 -303 284 C-300.54915574 280.24714472 -297.69788876 277.71123982 -294.3125 274.81640625 C-290.00708799 271.06638845 -285.99635575 267.07440958 -282 263 C-277.48024688 258.39197045 -272.89067773 253.98982203 -268 249.77734375 C-264.51028722 246.67613415 -261.2678338 243.33165868 -258 240 C-253.48024688 235.39197045 -248.89067773 230.98982203 -244 226.77734375 C-240.51028722 223.67613415 -237.2678338 220.33165868 -234 217 C-230.11716293 213.04132627 -226.23659338 209.14941662 -222.03125 205.53125 C-217.62796818 201.73857952 -213.57013076 197.64426794 -209.5 193.5 C-204.8066805 188.72119198 -200.06008022 184.12844906 -194.98242188 179.75976562 C-191.49728173 176.66605994 -188.26192574 173.32563522 -185 170 C-180.48024688 165.39197045 -175.89067773 160.98982203 -171 156.77734375 C-167.51028722 153.67613415 -164.2678338 150.33165868 -161 147 C-156.48024688 142.39197045 -151.89067773 137.98982203 -147 133.77734375 C-143.51028722 130.67613415 -140.2678338 127.33165868 -137 124 C-132.48024688 119.39197045 -127.89067773 114.98982203 -123 110.77734375 C-119.51028722 107.67613415 -116.2678338 104.33165868 -113 101 C-108.48024688 96.39197045 -103.89067773 91.98982203 -99 87.77734375 C-95.51028722 84.67613415 -92.2678338 81.33165868 -89 78 C-85.11716293 74.04132627 -81.23659338 70.14941662 -77.03125 66.53125 C-72.62796818 62.73857952 -68.57013076 58.64426794 -64.5 54.5 C-59.8066805 49.72119198 -55.06008022 45.12844906 -49.98242188 40.75976562 C-46.49728173 37.66605994 -43.26192574 34.32563522 -40 31 C-35.46726809 26.37873817 -30.86478722 21.96107043 -25.95947266 17.73681641 C-22.72166466 14.8669228 -19.7122592 11.77866445 -16.6875 8.6875 C-15.4854529 7.45990461 -14.28111473 6.23454735 -13.07421875 5.01171875 C-12.55432373 4.48022217 -12.03442871 3.94872559 -11.4987793 3.40112305 C-7.66755949 -0.18046524 -5.11268519 -0.44074872 0 0 Z " fill="#F35C27" transform="translate(2299,1451)"/>
<path d="M0 0 C6.41989612 1.74763839 11.06234608 8.46732555 15.203125 13.3515625 C17.40545351 15.91944144 19.69159254 18.39933284 21.984375 20.88671875 C26.12863465 25.42596835 30.03515898 30.10880171 33.89453125 34.890625 C36.06570327 37.52130432 38.31178857 40.05364299 40.609375 42.57421875 C44.43108363 46.77150909 48.02411689 51.11132106 51.59375 55.5234375 C54.53863154 59.09479229 57.56675762 62.5861692 60.609375 66.07421875 C65.89848348 72.14622452 71.04601662 78.31208513 76.109375 84.57421875 C77.10344422 85.78705083 78.09828811 86.99924823 79.09375 88.2109375 C86.47165839 97.20986019 93.60937153 106.36778332 100.63964844 115.64013672 C102.72052432 118.37845877 104.82085048 121.10131908 106.921875 123.82421875 C108.15893695 125.43340502 109.39595857 127.04262244 110.63232422 128.65234375 C111.72161689 130.06968456 112.81194006 131.48623351 113.90283203 132.90234375 C122.40289529 143.94501622 130.72119119 155.07016551 138.67382812 166.51367188 C141.13486577 170.04618169 143.62392605 173.55886541 146.109375 177.07421875 C147.10683487 178.48823608 148.10423074 179.90229856 149.1015625 181.31640625 C151.12225942 184.17960873 153.14887309 187.03849701 155.1796875 189.89453125 C169.29876418 209.77332692 182.46512757 230.26485063 195.43359375 250.90820312 C196.61189492 252.78277317 197.79171969 254.65638595 198.97265625 256.52929688 C212.57845545 278.11043929 212.57845545 278.11043929 217.9921875 287.8671875 C219.73961473 290.98352179 221.60154455 294.02138769 223.4765625 297.0625 C224.3735083 298.53275635 224.3735083 298.53275635 225.28857422 300.03271484 C226.47841975 301.97941573 227.68011296 303.91893771 228.89501953 305.85009766 C232.02001301 310.99622201 234.08363139 314.50868705 233.109375 320.57421875 C230.90910952 324.1103597 228.96976094 326.09331341 225.109375 327.57421875 C222.18337223 327.98688194 219.32041471 328.29184228 216.37890625 328.5234375 C215.43441116 328.60341476 214.48991608 328.68339203 213.51679993 328.76579285 C198.49704832 330.00084992 183.45513919 330.9781877 168.41992188 332.00292969 C158.76770244 332.66099003 149.11617259 333.3290166 139.46484375 334 C138.01501665 334.1007678 138.01501665 334.1007678 136.53590012 334.20357132 C119.22003546 335.40916604 101.91370683 336.71284598 84.609375 338.07421875 C56.20133355 340.30773288 27.77900337 342.30793237 -0.65023136 344.25166798 C-19.77514309 345.55989171 -38.89062665 346.94100014 -57.99902344 348.47242737 C-73.63083283 349.72387251 -89.27018572 350.86114851 -104.91186523 351.98144531 C-109.28351557 352.29479701 -113.65505423 352.60970282 -118.02658272 352.92474937 C-121.58788057 353.18139363 -125.14921666 353.43746886 -128.71066284 353.69204712 C-135.34970114 354.16756285 -141.98750855 354.65508964 -148.62353516 355.17138672 C-149.8402742 355.26508041 -151.05701324 355.35877411 -152.31062317 355.45530701 C-154.55576606 355.62902207 -156.80065935 355.8060133 -159.04521179 355.98719788 C-178.43233478 357.48052705 -178.43233478 357.48052705 -182.515625 354.63671875 C-185.59985492 350.65968543 -186.11275044 347.55942044 -185.890625 342.57421875 C-184.95256076 339.52371702 -183.45220514 336.935533 -181.828125 334.19921875 C-180.89256493 332.5258374 -179.95909205 330.851288 -179.02734375 329.17578125 C-178.51993652 328.27762695 -178.0125293 327.37947266 -177.48974609 326.45410156 C-174.58578404 321.22430974 -171.8772064 315.89290636 -169.140625 310.57421875 C-167.94327388 308.26142587 -166.74534988 305.9489295 -165.546875 303.63671875 C-164.32805214 301.2825898 -163.10930246 298.92842297 -161.890625 296.57421875 C-159.4746835 291.90717611 -157.0581431 287.24044492 -154.640625 282.57421875 C-154.05748535 281.44846436 -153.4743457 280.32270996 -152.87353516 279.1628418 C-149.44786589 272.55633243 -145.99488349 265.96513727 -142.515625 259.38671875 C-139.61397279 253.8982326 -136.7722324 248.38696192 -134.015625 242.82421875 C-128.11832517 230.92366145 -121.91545512 219.1759774 -115.70214844 207.43798828 C-108.97330021 194.71312904 -102.41626736 181.90426021 -95.890625 169.07421875 C-89.81221652 157.12348217 -83.71797938 145.18503816 -77.45233154 133.33117676 C-73.66219403 126.15779901 -69.94555904 118.9478869 -66.24478149 111.72808838 C-64.30482869 107.94383729 -62.36134845 104.16139833 -60.41796875 100.37890625 C-59.83730904 99.24858475 -59.83730904 99.24858475 -59.24491882 98.09542847 C-54.06405185 88.01430908 -48.83724533 77.95705733 -43.61474609 67.89746094 C-41.2033842 63.24956259 -38.79618827 58.59951411 -36.39086914 53.94848633 C-35.14847707 51.54628578 -33.90401896 49.14517289 -32.65795898 46.74487305 C-29.62746998 40.90200085 -26.61821575 35.04990539 -23.65945435 29.1703186 C-22.21773127 26.30760887 -20.76744936 23.44927413 -19.31658936 20.59118652 C-18.6225518 19.21794421 -17.93272432 17.84256503 -17.24737549 16.46496582 C-16.29267203 14.54662161 -15.32370314 12.63611537 -14.3515625 10.7265625 C-13.80290527 9.63335693 -13.25424805 8.54015137 -12.68896484 7.41381836 C-9.52127205 2.41199446 -6.15047737 -0.33527038 0 0 Z " fill="#F35C27" transform="translate(1999.890625,997.42578125)"/>
<path d="M0 0 C3.10766602 1.33837891 3.10766602 1.33837891 6.25390625 3.2265625 C6.82785126 3.56575211 7.40179626 3.90494171 7.99313354 4.25440979 C9.8590727 5.36289642 11.71065727 6.49314806 13.5625 7.625 C14.86473093 8.40633037 16.16755391 9.18667476 17.47094727 9.96606445 C27.87747999 16.21442978 38.14138371 22.68692531 48.33203125 29.28076172 C52.0713848 31.69040005 55.83126409 34.06718147 59.59008789 36.44628906 C69.14972812 42.50190271 78.63369 48.64977343 88 55 C88.82467773 55.55800293 89.64935547 56.11600586 90.49902344 56.69091797 C102.76100721 64.99436071 114.95410403 73.38576738 127 82 C127.7317041 82.52303711 128.4634082 83.04607422 129.21728516 83.58496094 C149.96294908 98.43833889 170.29025115 113.855336 190.31152344 129.67041016 C191.9976361 130.99813855 193.68926782 132.318487 195.3828125 133.63671875 C207.64560096 143.19391342 219.63017188 153.08868317 231.46679688 163.16796875 C234.7928033 165.99612012 238.163404 168.76035772 241.5625 171.5 C246.04284472 175.14149933 250.28912796 178.97484613 254.51098633 182.9074707 C257.82164038 185.97316966 261.22882611 188.86180659 264.75 191.6875 C268.80679691 194.95272678 272.49711904 198.38690668 276.125 202.1171875 C278.52856298 204.53076533 281.08230391 206.72972273 283.6640625 208.94921875 C287.2638576 212.10957398 290.75664971 215.38428902 294.26538086 218.64501953 C297.20833556 221.37204504 300.17571959 224.04513995 303.25 226.625 C306.8226591 229.71047831 306.8226591 229.71047831 307.2734375 232.98828125 C307.30695313 233.75527344 307.34046875 234.52226563 307.375 235.3125 C307.42398437 236.07175781 307.47296875 236.83101562 307.5234375 237.61328125 C306.74176023 241.17749628 304.69182722 242.60406532 302 245 C299.223526 246.48768616 299.223526 246.48768616 296.17211914 247.71118164 C295.02770859 248.17729355 293.88329803 248.64340546 292.70420837 249.12364197 C291.46046274 249.61524597 290.21660888 250.10657626 288.97265625 250.59765625 C287.66679685 251.12398482 286.36138954 251.65143629 285.05641174 252.1799469 C281.69115815 253.53940325 278.3201228 254.88384643 274.94730377 256.22440338 C271.96644199 257.41165847 268.99096586 258.61220835 266.01513672 259.81201172 C260.11660661 262.18624271 254.21164277 264.54409139 248.30453491 266.8968811 C241.26857729 269.69929201 234.23601937 272.51022528 227.203125 275.3203125 C226.44726797 275.62227098 225.69141094 275.92422947 224.91264915 276.23533821 C205.46264124 284.00613842 186.0310343 291.82266789 166.59997177 299.64069366 C163.67732663 300.81659316 160.75463939 301.99238795 157.8319397 303.16815186 C141.8893371 309.58170761 125.94737375 315.99685167 110.0055542 322.41235352 C25.92563042 356.24872652 25.92563042 356.24872652 -14.25330353 372.32590866 C-16.54507459 373.24302672 -18.83672835 374.16043737 -21.12835693 375.07791138 C-24.64943639 376.48749774 -28.17089213 377.89613955 -31.69268227 379.30394936 C-33.57390817 380.05613469 -35.45482832 380.8090846 -37.33573914 381.5620575 C-38.44383438 382.00467422 -39.55192963 382.44729095 -40.69360352 382.90332031 C-41.65299332 383.28691711 -42.61238312 383.67051392 -43.60084534 384.06573486 C-48.01363392 385.78413784 -51.24123609 386.64525612 -56 386 C-58.76415067 384.07475095 -60.63631949 382.08201787 -62 379 C-62.53154154 372.53643782 -61.6185572 366.18418902 -60.64453125 359.80859375 C-60.50287537 358.84354416 -60.36121948 357.87849457 -60.215271 356.88420105 C-59.91114277 354.81371895 -59.60437564 352.74362305 -59.29519653 350.67388916 C-58.46755676 345.12472068 -57.66298286 339.57222352 -56.859375 334.01953125 C-56.69736099 332.90141052 -56.53534698 331.78328979 -56.36842346 330.63128662 C-54.97827283 320.9764139 -53.73681675 311.30815454 -52.5625 301.625 C-50.53871487 285.00092761 -48.32477631 268.40573501 -46.0625 251.8125 C-45.89004761 250.54661041 -45.71759521 249.28072083 -45.53991699 247.97647095 C-44.85077581 242.91815691 -44.16134652 237.8598823 -43.47137451 232.80168152 C-41.90389949 221.30722809 -40.34899245 209.81113706 -38.8125 198.3125 C-38.69077423 197.401586 -38.56904846 196.490672 -38.44363403 195.55215454 C-36.73059479 182.70929792 -35.09149176 169.85844178 -33.5 157 C-30.38438642 131.82802194 -26.98173783 106.69537571 -23.59227371 81.55906773 C-22.78139264 75.5452006 -21.97140015 69.53121403 -21.16175461 63.51718044 C-20.56290211 59.06987589 -19.96259412 54.62277109 -19.36104965 50.17582989 C-18.98218728 47.37274637 -18.60470301 44.56947802 -18.22731781 41.7661953 C-17.95665595 39.76053998 -17.68386224 37.75518228 -17.41094971 35.74983215 C-16.67907885 30.32368571 -15.96348764 24.90486226 -15.43164062 19.45507812 C-15.31281525 18.26836517 -15.31281525 18.26836517 -15.19158936 17.05767822 C-15.00465743 15.10273916 -14.84030484 13.14567294 -14.67871094 11.18847656 C-12.90887977 2.87408985 -8.3090756 -0.73291207 0 0 Z " fill="#F35C27" transform="translate(1600,671)"/>
<path d="M0 0 C8.72778075 0.67136775 17.17169158 1.4621915 25.79980469 2.69091797 C28.25313034 3.03555959 30.70843271 3.36359816 33.1640625 3.69140625 C42.91529527 5.01151107 52.45659248 6.55727085 62 9 C63.12019531 9.26296875 64.24039063 9.5259375 65.39453125 9.796875 C93.07553088 16.4055325 120.07436429 25.27184371 146 37 C146.96534668 37.4340918 147.93069336 37.86818359 148.92529297 38.31542969 C178.96193926 51.93698297 207.2415573 69.39324584 233 90 C233.84046875 90.66 234.6809375 91.32 235.546875 92 C251.96714567 104.9688762 267.22465453 119.04436102 281.98632812 133.85595703 C283.89078505 135.76582994 285.80060819 137.67022149 287.7109375 139.57421875 C293.68382869 145.54318274 299.59565349 151.50263958 305 158 C305.54172852 158.6403418 306.08345703 159.28068359 306.64160156 159.94042969 C331.21829362 189.11009611 352.33245594 220.59263046 368.99365234 254.93408203 C370.03173317 257.06514461 371.08804363 259.18660492 372.14453125 261.30859375 C381.55164802 280.43169912 389.15915239 300.50536273 395 321 C395.3705249 322.2988916 395.3705249 322.2988916 395.74853516 323.62402344 C399.77524046 337.9508318 402.81748788 352.40057371 405.46289062 367.04101562 C405.82787213 369.05173193 406.20190069 371.06082268 406.58398438 373.06835938 C406.76767578 374.04095703 406.95136719 375.01355469 407.140625 376.015625 C407.30594727 376.87961914 407.47126953 377.74361328 407.64160156 378.63378906 C408 381 408 381 408 385 C353.22 385 298.44 385 242 385 C240.35 370.48 238.7 355.96 237 341 C234.96128408 332.06101481 232.94628908 323.60524079 230 315 C229.6488916 313.9598877 229.2977832 312.91977539 228.93603516 311.84814453 C224.62825522 299.28680303 219.62511413 287.49859893 213 276 C211.99724328 274.10562332 210.99706451 272.20987882 210 270.3125 C195.92153496 244.69120744 175.00218672 220.9366082 152 203 C150.9333603 202.13339698 149.86832866 201.26481197 148.8046875 200.39453125 C122.64949173 179.15217387 92.86385065 164.79805364 60.26708984 156.59057617 C58.38881921 156.10128728 56.5289637 155.54192172 54.67578125 154.96484375 C49.18021042 153.52232941 43.61881898 152.74945022 38 151.9375 C36.88882813 151.76412109 35.77765625 151.59074219 34.6328125 151.41210938 C22.98668684 149.71966016 11.960062 149.5200027 0 149 C0 99.83 0 50.66 0 0 Z " fill="#F35C27" transform="translate(952,1621)"/>
<path d="M0 0 C0.92324066 0.22533417 1.84648132 0.45066833 2.79769897 0.68283081 C5.77392769 1.4127667 8.74638476 2.1568451 11.71875 2.90234375 C13.76573966 3.40912987 15.81277758 3.9157211 17.85986328 4.42211914 C31.00870168 7.69367489 44.04150424 11.22048165 57.00097656 15.18017578 C60.13520409 16.11243941 63.2988612 16.91346737 66.46875 17.71484375 C74.60678003 19.84837596 82.57991922 22.47492002 90.57861328 25.07641602 C97.24540175 27.24401402 103.91902029 29.38042585 110.6171875 31.44921875 C177.94163331 52.26491846 243.21524501 78.93185806 306.78125 109.27734375 C307.79807861 109.76146729 308.81490723 110.24559082 309.86254883 110.74438477 C312.65931327 112.08798115 315.44306112 113.45327326 318.21875 114.83984375 C319.08999512 115.27441895 319.96124023 115.70899414 320.85888672 116.15673828 C322.0714917 116.79071533 322.0714917 116.79071533 323.30859375 117.4375 C324.01749756 117.80496338 324.72640137 118.17242676 325.45678711 118.55102539 C327.58152076 120.10519872 328.28736449 121.39653353 329.21875 123.83984375 C329.72592657 128.60730355 329.05812792 131.01357526 326.21875 134.83984375 C323.51842702 137.17328127 320.62985592 139.21639922 317.71875 141.27734375 C315.98685248 142.52847048 314.25508517 143.77977748 312.5234375 145.03125 C311.63881836 145.66562988 310.75419922 146.30000977 309.84277344 146.95361328 C305.82124736 149.84441254 301.83101855 152.77705557 297.84375 155.71484375 C296.6832312 156.56792114 296.6832312 156.56792114 295.49926758 157.43823242 C288.50342491 162.59552081 281.60362767 167.8752667 274.70361328 173.15966797 C269.40428534 177.20723265 264.05127567 181.14744979 258.59545898 184.98022461 C253.28416608 188.73725733 248.13067156 192.69363268 242.96875 196.65234375 C236.45347973 201.64831638 229.89861262 206.56605826 223.21875 211.33984375 C216.62394369 216.05367488 210.15052862 220.90600484 203.71875 225.83984375 C197.28696368 230.77368857 190.81341151 235.6258031 184.21875 240.33984375 C177.6489699 245.03776664 171.19285895 249.8658005 164.78125 254.77734375 C154.25156977 262.84349067 143.58632408 270.71295896 132.88476562 278.54882812 C122.74123909 285.98063495 112.68697068 293.51387718 102.70361328 301.15966797 C97.40428534 305.20723265 92.05127567 309.14744979 86.59545898 312.98022461 C81.28416163 316.73726048 76.13074916 320.69372693 70.96875 324.65234375 C62.14595901 331.41537012 53.20205723 337.98253356 44.15917969 344.44726562 C40.48154148 347.08657719 36.83567661 349.76938532 33.1875 352.44921875 C29.69672177 354.91492718 27.50110358 355.17571462 23.21875 354.83984375 C19.72468231 353.17222053 18.39204319 352.09978353 16.21875 348.83984375 C15.7394104 346.59535217 15.7394104 346.59535217 15.41259766 343.92993164 C15.28535309 342.92374283 15.15810852 341.91755402 15.02700806 340.88087463 C14.89692352 339.785811 14.76683899 338.69074738 14.6328125 337.5625 C14.42040421 335.8520475 14.42040421 335.8520475 14.20370483 334.10704041 C13.74237238 330.37307658 13.29284942 326.63779702 12.84375 322.90234375 C12.52651941 320.31179041 12.20880858 317.72129584 11.890625 315.13085938 C10.16707245 301.0319338 8.51708962 286.92657755 7.00006104 272.8039856 C5.42087188 258.12654791 3.56968013 243.48515953 1.71875 228.83984375 C-0.21784123 213.51674234 -2.13413727 198.19698288 -3.78125 182.83984375 C-5.50171279 166.81565695 -7.51946338 150.8327574 -9.54434204 134.84451294 C-12.31833148 112.90508407 -14.867547 90.94464378 -17.35107422 68.97094727 C-19.12776969 53.25427342 -19.12776969 53.25427342 -21.109375 37.5625 C-21.25600334 36.45949806 -21.25600334 36.45949806 -21.40559387 35.33421326 C-21.82730249 32.18656919 -22.26183411 29.04138835 -22.71557617 25.89819336 C-25.43254977 6.2901184 -25.43254977 6.2901184 -21.88452148 1.02539062 C-16.13017206 -4.95405639 -7.15949777 -1.80370141 0 0 Z " fill="#F35C27" transform="translate(1142.78125,510.16015625)"/>
<path d="M0 0 C4.58344975 1.70546967 5.8465925 4.34516232 7.91345215 8.62490845 C9.89371394 12.95357473 11.69361157 17.35195575 13.484375 21.76171875 C13.90366272 22.78820023 14.32295044 23.8146817 14.75494385 24.87226868 C15.6405627 27.04256086 16.52462767 29.2134877 17.40722656 31.38500977 C18.72826269 34.63403809 20.05512311 37.88063887 21.3828125 41.12695312 C26.77757944 54.3484207 32.00105695 67.62380577 37 81 C37.41926758 82.12124268 37.83853516 83.24248535 38.27050781 84.39770508 C45.31976411 103.43492794 51.67457665 122.71319567 58 142 C58.4017041 143.22444824 58.8034082 144.44889648 59.21728516 145.71044922 C63.52588368 158.89291119 67.56210957 172.1257418 71.29101562 185.48339844 C71.98710452 187.95422637 72.70103026 190.41910343 73.421875 192.8828125 C77.41997749 206.58479784 80.98829178 220.38986923 84.51283264 234.21925354 C85.56226852 238.32506436 86.64346692 242.4209569 87.75 246.51171875 C95.44721274 275.11976681 101.22083157 304.22623418 106.7109375 333.328125 C107.58601279 337.93813777 108.5299176 342.52734643 109.5234375 347.11328125 C110.87767912 353.36999962 112.11919977 359.63671538 113.25 365.9375 C113.435625 366.91267578 113.62125 367.88785156 113.8125 368.89257812 C114.77025494 374.25092676 115.31347444 378.68288689 114 384 C112.10888889 386.3181362 110.66171969 387.66914015 108 389 C99.39880366 389.66589907 91.42127821 387.49503721 83.125 385.5 C81.57194059 385.13437601 80.01863105 384.76981306 78.46508789 384.40625 C75.24187609 383.65115089 72.01978062 382.89152365 68.79833984 382.12890625 C64.24166502 381.05315388 59.67905686 380.00512228 55.11328125 378.96875 C54.03572571 378.72414284 54.03572571 378.72414284 52.93640137 378.47459412 C51.49198236 378.14687008 50.04754476 377.81922799 48.60308838 377.4916687 C36.30462688 374.69946283 24.02303936 371.83920943 11.75 368.9375 C-1.51830635 365.8006447 -14.80637622 362.76429917 -28.109375 359.77734375 C-33.56015356 358.55262621 -39.00786204 357.31540521 -44.453125 356.06640625 C-45.16768356 355.90251404 -45.88224213 355.73862183 -46.61845398 355.56976318 C-48.07550831 355.23548739 -49.53255478 354.9011773 -50.98959351 354.5668335 C-63.08839879 351.79063133 -75.19610155 349.06060096 -87.31744385 346.38446045 C-99.16886414 343.76791311 -110.99460081 341.08174917 -122.78833008 338.21386719 C-139.17083749 334.24218825 -155.63768161 330.62338863 -172.09765625 326.98828125 C-175.19017383 326.30500228 -178.28262588 325.62142796 -181.375 324.9375 C-182.14142822 324.76801849 -182.90785645 324.59853699 -183.69750977 324.42391968 C-194.08631094 322.12379734 -204.44615569 319.73008198 -214.78515625 317.21411133 C-222.79742873 315.27053381 -230.83115197 313.43315785 -238.875 311.625 C-240.15109131 311.33778076 -241.42718262 311.05056152 -242.74194336 310.75463867 C-247.59128304 309.66367968 -252.44083344 308.57365802 -257.29101562 307.4864502 C-262.04782904 306.42015746 -266.80361336 305.34946052 -271.5581665 304.27313232 C-273.08361986 303.92869067 -274.6094503 303.58591414 -276.13568115 303.24493408 C-297.19881588 298.5375962 -297.19881588 298.5375962 -301.5625 294.8125 C-303.44379448 291.13170645 -303.89282001 287.9979374 -303 284 C-300.54915574 280.24714472 -297.69788876 277.71123982 -294.3125 274.81640625 C-290.00708799 271.06638845 -285.99635575 267.07440958 -282 263 C-277.48024688 258.39197045 -272.89067773 253.98982203 -268 249.77734375 C-264.51028722 246.67613415 -261.2678338 243.33165868 -258 240 C-253.48024688 235.39197045 -248.89067773 230.98982203 -244 226.77734375 C-240.51028722 223.67613415 -237.2678338 220.33165868 -234 217 C-230.11716293 213.04132627 -226.23659338 209.14941662 -222.03125 205.53125 C-217.62796818 201.73857952 -213.57013076 197.64426794 -209.5 193.5 C-204.8066805 188.72119198 -200.06008022 184.12844906 -194.98242188 179.75976562 C-191.49728173 176.66605994 -188.26192574 173.32563522 -185 170 C-180.48024688 165.39197045 -175.89067773 160.98982203 -171 156.77734375 C-167.51028722 153.67613415 -164.2678338 150.33165868 -161 147 C-156.48024688 142.39197045 -151.89067773 137.98982203 -147 133.77734375 C-143.51028722 130.67613415 -140.2678338 127.33165868 -137 124 C-132.48024688 119.39197045 -127.89067773 114.98982203 -123 110.77734375 C-119.51028722 107.67613415 -116.2678338 104.33165868 -113 101 C-108.48024688 96.39197045 -103.89067773 91.98982203 -99 87.77734375 C-95.51028722 84.67613415 -92.2678338 81.33165868 -89 78 C-85.11716293 74.04132627 -81.23659338 70.14941662 -77.03125 66.53125 C-72.62796818 62.73857952 -68.57013076 58.64426794 -64.5 54.5 C-59.8066805 49.72119198 -55.06008022 45.12844906 -49.98242188 40.75976562 C-46.49728173 37.66605994 -43.26192574 34.32563522 -40 31 C-35.46726809 26.37873817 -30.86478722 21.96107043 -25.95947266 17.73681641 C-22.72166466 14.8669228 -19.7122592 11.77866445 -16.6875 8.6875 C-15.4854529 7.45990461 -14.28111473 6.23454735 -13.07421875 5.01171875 C-12.55432373 4.48022217 -12.03442871 3.94872559 -11.4987793 3.40112305 C-7.66755949 -0.18046524 -5.11268519 -0.44074872 0 0 Z M-9.6640625 30.50390625 C-10.63472656 31.52291016 -10.63472656 31.52291016 -11.625 32.5625 C-14.22886944 35.28859188 -16.91881749 37.81985792 -19.7734375 40.27734375 C-24.05594733 43.99054575 -28.03270839 47.95522223 -32 52 C-36.51975312 56.60802955 -41.10932227 61.01017797 -46 65.22265625 C-49.48971278 68.32386585 -52.7321662 71.66834132 -56 75 C-59.88283707 78.95867373 -63.76340662 82.85058338 -67.96875 86.46875 C-72.37203182 90.26142048 -76.42986924 94.35573206 -80.5 98.5 C-85.1933195 103.27880802 -89.93991978 107.87155094 -95.01757812 112.24023438 C-98.50271827 115.33394006 -101.73807426 118.67436478 -105 122 C-109.51975312 126.60802955 -114.10932227 131.01017797 -119 135.22265625 C-122.48971278 138.32386585 -125.7321662 141.66834132 -129 145 C-133.51975312 149.60802955 -138.10932227 154.01017797 -143 158.22265625 C-146.48971278 161.32386585 -149.7321662 164.66834132 -153 168 C-157.51975312 172.60802955 -162.10932227 177.01017797 -167 181.22265625 C-170.48971278 184.32386585 -173.7321662 187.66834132 -177 191 C-181.51975312 195.60802955 -186.10932227 200.01017797 -191 204.22265625 C-194.48971278 207.32386585 -197.7321662 210.66834132 -201 214 C-204.88283707 217.95867373 -208.76340662 221.85058338 -212.96875 225.46875 C-217.37203182 229.26142048 -221.42986924 233.35573206 -225.5 237.5 C-230.1933195 242.27880802 -234.93991978 246.87155094 -240.01757812 251.24023438 C-243.50271827 254.33394006 -246.73807426 257.67436478 -250 261 C-253.92817408 265.00489623 -257.85214056 268.9232585 -262.125 272.5625 C-265.84129554 275.74999459 -268.90579342 279.20959694 -272 283 C-258.45597631 286.33234791 -244.88401507 289.49665211 -231.25 292.4375 C-220.8802763 294.67443567 -210.55360315 297.03405553 -200.25 299.5625 C-189.70967407 302.14892942 -179.13968187 304.50146789 -168.51855469 306.73071289 C-158.91556192 308.76304607 -149.38754629 311.05493237 -139.85546875 313.39453125 C-131.5979892 315.40790167 -123.31791823 317.25426408 -115 319 C-105.45616177 321.00302778 -95.97068596 323.17562507 -86.5 325.5 C-75.89669305 328.10095847 -65.2661754 330.48303769 -54.58325195 332.73266602 C-44.82734706 334.79689971 -35.11936171 337.04039097 -25.41333008 339.32641602 C-16.53675391 341.41512302 -7.64815605 343.4428517 1.25 345.4375 C11.44849836 347.72523643 21.62862968 350.07998063 31.79827881 352.49267578 C43.35607687 355.23365034 54.92391429 357.92000328 66.52444458 360.47485352 C67.90546052 360.77902172 69.28622654 361.08432722 70.66671753 361.39086914 C77.42752906 362.88945374 84.10469044 364.31394275 91 365 C91.35845506 358.32556685 90.00749242 352.15692744 88.65625 345.640625 C88.41149933 344.43511993 88.16674866 343.22961487 87.9145813 341.98757935 C87.25372414 338.74352991 86.58646601 335.5009463 85.91529083 332.25902557 C85.49895674 330.24495311 85.08510446 328.23038631 84.67205811 326.21563721 C80.40485025 305.40762967 75.91662919 284.66446034 71 264 C70.45126521 261.65768267 69.90307247 259.31523827 69.35546875 256.97265625 C66.74763576 245.88082511 63.98035342 234.85792598 60.83251953 223.90722656 C59.999463 220.99812474 59.17564586 218.08648326 58.35348511 215.17428589 C40.4628058 151.82116388 19.69235036 89.63042132 -6 29 C-8.12652316 28.77649907 -8.12652316 28.77649907 -9.6640625 30.50390625 Z " fill="#030100" transform="translate(2299,1451)"/>
<path d="M0 0 C6.41989612 1.74763839 11.06234608 8.46732555 15.203125 13.3515625 C17.40545351 15.91944144 19.69159254 18.39933284 21.984375 20.88671875 C26.12863465 25.42596835 30.03515898 30.10880171 33.89453125 34.890625 C36.06570327 37.52130432 38.31178857 40.05364299 40.609375 42.57421875 C44.43108363 46.77150909 48.02411689 51.11132106 51.59375 55.5234375 C54.53863154 59.09479229 57.56675762 62.5861692 60.609375 66.07421875 C65.89848348 72.14622452 71.04601662 78.31208513 76.109375 84.57421875 C77.10344422 85.78705083 78.09828811 86.99924823 79.09375 88.2109375 C86.47165839 97.20986019 93.60937153 106.36778332 100.63964844 115.64013672 C102.72052432 118.37845877 104.82085048 121.10131908 106.921875 123.82421875 C108.15893695 125.43340502 109.39595857 127.04262244 110.63232422 128.65234375 C111.72161689 130.06968456 112.81194006 131.48623351 113.90283203 132.90234375 C122.40289529 143.94501622 130.72119119 155.07016551 138.67382812 166.51367188 C141.13486577 170.04618169 143.62392605 173.55886541 146.109375 177.07421875 C147.10683487 178.48823608 148.10423074 179.90229856 149.1015625 181.31640625 C151.12225942 184.17960873 153.14887309 187.03849701 155.1796875 189.89453125 C169.29876418 209.77332692 182.46512757 230.26485063 195.43359375 250.90820312 C196.61189492 252.78277317 197.79171969 254.65638595 198.97265625 256.52929688 C212.57845545 278.11043929 212.57845545 278.11043929 217.9921875 287.8671875 C219.73961473 290.98352179 221.60154455 294.02138769 223.4765625 297.0625 C224.3735083 298.53275635 224.3735083 298.53275635 225.28857422 300.03271484 C226.47841975 301.97941573 227.68011296 303.91893771 228.89501953 305.85009766 C232.02001301 310.99622201 234.08363139 314.50868705 233.109375 320.57421875 C230.90910952 324.1103597 228.96976094 326.09331341 225.109375 327.57421875 C222.18337223 327.98688194 219.32041471 328.29184228 216.37890625 328.5234375 C215.43441116 328.60341476 214.48991608 328.68339203 213.51679993 328.76579285 C198.49704832 330.00084992 183.45513919 330.9781877 168.41992188 332.00292969 C158.76770244 332.66099003 149.11617259 333.3290166 139.46484375 334 C138.01501665 334.1007678 138.01501665 334.1007678 136.53590012 334.20357132 C119.22003546 335.40916604 101.91370683 336.71284598 84.609375 338.07421875 C56.20133355 340.30773288 27.77900337 342.30793237 -0.65023136 344.25166798 C-19.77514309 345.55989171 -38.89062665 346.94100014 -57.99902344 348.47242737 C-73.63083283 349.72387251 -89.27018572 350.86114851 -104.91186523 351.98144531 C-109.28351557 352.29479701 -113.65505423 352.60970282 -118.02658272 352.92474937 C-121.58788057 353.18139363 -125.14921666 353.43746886 -128.71066284 353.69204712 C-135.34970114 354.16756285 -141.98750855 354.65508964 -148.62353516 355.17138672 C-149.8402742 355.26508041 -151.05701324 355.35877411 -152.31062317 355.45530701 C-154.55576606 355.62902207 -156.80065935 355.8060133 -159.04521179 355.98719788 C-178.43233478 357.48052705 -178.43233478 357.48052705 -182.515625 354.63671875 C-185.59985492 350.65968543 -186.11275044 347.55942044 -185.890625 342.57421875 C-184.95256076 339.52371702 -183.45220514 336.935533 -181.828125 334.19921875 C-180.89256493 332.5258374 -179.95909205 330.851288 -179.02734375 329.17578125 C-178.51993652 328.27762695 -178.0125293 327.37947266 -177.48974609 326.45410156 C-174.58578404 321.22430974 -171.8772064 315.89290636 -169.140625 310.57421875 C-167.94327388 308.26142587 -166.74534988 305.9489295 -165.546875 303.63671875 C-164.32805214 301.2825898 -163.10930246 298.92842297 -161.890625 296.57421875 C-159.4746835 291.90717611 -157.0581431 287.24044492 -154.640625 282.57421875 C-154.05748535 281.44846436 -153.4743457 280.32270996 -152.87353516 279.1628418 C-149.44786589 272.55633243 -145.99488349 265.96513727 -142.515625 259.38671875 C-139.61397279 253.8982326 -136.7722324 248.38696192 -134.015625 242.82421875 C-128.11832517 230.92366145 -121.91545512 219.1759774 -115.70214844 207.43798828 C-108.97330021 194.71312904 -102.41626736 181.90426021 -95.890625 169.07421875 C-89.81221652 157.12348217 -83.71797938 145.18503816 -77.45233154 133.33117676 C-73.66219403 126.15779901 -69.94555904 118.9478869 -66.24478149 111.72808838 C-64.30482869 107.94383729 -62.36134845 104.16139833 -60.41796875 100.37890625 C-59.83730904 99.24858475 -59.83730904 99.24858475 -59.24491882 98.09542847 C-54.06405185 88.01430908 -48.83724533 77.95705733 -43.61474609 67.89746094 C-41.2033842 63.24956259 -38.79618827 58.59951411 -36.39086914 53.94848633 C-35.14847707 51.54628578 -33.90401896 49.14517289 -32.65795898 46.74487305 C-29.62746998 40.90200085 -26.61821575 35.04990539 -23.65945435 29.1703186 C-22.21773127 26.30760887 -20.76744936 23.44927413 -19.31658936 20.59118652 C-18.6225518 19.21794421 -17.93272432 17.84256503 -17.24737549 16.46496582 C-16.29267203 14.54662161 -15.32370314 12.63611537 -14.3515625 10.7265625 C-13.80290527 9.63335693 -13.25424805 8.54015137 -12.68896484 7.41381836 C-9.52127205 2.41199446 -6.15047737 -0.33527038 0 0 Z M0.109375 28.57421875 C-7.97352962 43.8646904 -15.94276002 59.21322032 -23.890625 74.57421875 C-24.50715697 75.76562732 -25.12369343 76.95703357 -25.74023438 78.1484375 C-29.1788335 84.79353612 -32.61604824 91.43935006 -36.05253601 98.08554077 C-39.18578964 104.1452546 -42.31991712 110.20451627 -45.45413208 116.26373291 C-47.01633296 119.28387594 -48.57847605 122.30404886 -50.140625 125.32421875 C-50.76562472 126.53255223 -51.39062472 127.74088556 -52.015625 128.94921875 C-52.325 129.54734375 -52.634375 130.14546875 -52.953125 130.76171875 C-58.890625 142.24088542 -64.828125 153.72005208 -70.765625 165.19921875 C-71.07501007 165.79736389 -71.38439514 166.39550903 -71.70315552 167.01177979 C-72.32805158 168.21991081 -72.95294985 169.4280407 -73.57785034 170.63616943 C-75.14195878 173.66008865 -76.70602855 176.68402785 -78.27001953 179.70800781 C-81.36926745 185.70030998 -84.46914293 191.69228582 -87.5703125 197.68359375 C-94.21142987 210.51520284 -100.83981098 223.35325589 -107.453125 236.19921875 C-113.75604922 248.44210496 -120.08229373 260.67259997 -126.42578125 272.89453125 C-128.83306798 277.53328007 -131.23659598 282.17394853 -133.63671875 286.81640625 C-133.95152695 287.42530701 -134.26633514 288.03420776 -134.59068298 288.66156006 C-135.85776082 291.11254838 -137.12472572 293.56359483 -138.39120483 296.01489258 C-141.82372897 302.65847317 -145.26426236 309.297662 -148.7265625 315.92578125 C-149.63619751 317.66867432 -149.63619751 317.66867432 -150.56420898 319.44677734 C-151.7181964 321.65636376 -152.87389008 323.86506011 -154.03149414 326.07275391 C-154.54059326 327.04776855 -155.04969238 328.0227832 -155.57421875 329.02734375 C-156.02337646 329.88489258 -156.47253418 330.74244141 -156.93530273 331.62597656 C-157.96400321 333.36221987 -157.96400321 333.36221987 -157.890625 334.57421875 C-144.81980096 334.17352753 -131.79805467 333.38862563 -118.765625 332.32421875 C-101.96246611 330.95666914 -85.15284073 329.69346899 -68.33800125 328.47848129 C-66.1921098 328.32342281 -64.04623444 328.16814301 -61.90036011 328.0128479 C-42.34916556 326.59884558 -22.79607643 325.21213586 -3.2421875 323.8359375 C-1.10086057 323.6852065 1.04046634 323.53447509 3.18179321 323.38374329 C4.24742933 323.30873565 5.31306545 323.23372801 6.41099358 323.15644741 C11.83129103 322.77492301 17.25158551 322.39335636 22.671875 322.01171875 C23.75215218 321.93566532 24.83242935 321.85961189 25.9454422 321.78125381 C51.89535596 319.95387311 77.8423617 318.11058246 103.77661133 316.07104492 C124.96487345 314.40803933 146.16235059 312.87066339 167.359375 311.32421875 C168.30200825 311.25542889 169.24464149 311.18663902 170.21583939 311.11576462 C181.84690338 310.26700703 193.47807691 309.4197623 205.109375 308.57421875 C203.72955784 304.27693775 202.15017127 300.6323013 199.8359375 296.75 C199.18222168 295.64873779 198.52850586 294.54747559 197.85498047 293.4128418 C197.14846383 292.23725592 196.44158717 291.06188634 195.734375 289.88671875 C195.00518716 288.66653243 194.27618506 287.44623509 193.54736328 286.22583008 C188.03846528 277.02441841 182.38216894 267.92290363 176.59130859 258.89648438 C175.069093 256.5110948 173.56597193 254.11452884 172.06640625 251.71484375 C157.93452503 229.17604049 143.00241583 207.04746554 127.46191406 185.45507812 C125.99177343 183.41068039 124.53106571 181.35970793 123.0703125 179.30859375 C114.66173978 167.54226557 105.91971679 156.04149369 97.109375 144.57421875 C96.19381823 143.37905345 95.27842882 142.1837599 94.36328125 140.98828125 C92.39325034 138.41980088 90.41893965 135.85476585 88.43896484 133.29394531 C87.47245068 132.04383041 86.50673636 130.79309698 85.54150391 129.54199219 C74.96919656 115.84584079 64.20787279 102.32650857 52.98925781 89.15283203 C50.17527584 85.84655738 47.40853814 82.50718718 44.671875 79.13671875 C40.75633307 74.32779114 36.74263918 69.61152803 32.69604492 64.91308594 C29.72835896 61.46686238 26.78216358 58.00442098 23.85766602 54.52148438 C19.14014325 48.90574528 14.30867086 43.43099673 9.34375 38.03125 C7.36256599 35.85264031 5.44286116 33.63933088 3.546875 31.38671875 C2.3403125 29.99453125 2.3403125 29.99453125 1.109375 28.57421875 C0.779375 28.57421875 0.449375 28.57421875 0.109375 28.57421875 Z " fill="#020100" transform="translate(1999.890625,997.42578125)"/>
<path d="M0 0 C3.10766602 1.33837891 3.10766602 1.33837891 6.25390625 3.2265625 C6.82785126 3.56575211 7.40179626 3.90494171 7.99313354 4.25440979 C9.8590727 5.36289642 11.71065727 6.49314806 13.5625 7.625 C14.86473093 8.40633037 16.16755391 9.18667476 17.47094727 9.96606445 C27.87747999 16.21442978 38.14138371 22.68692531 48.33203125 29.28076172 C52.0713848 31.69040005 55.83126409 34.06718147 59.59008789 36.44628906 C69.14972812 42.50190271 78.63369 48.64977343 88 55 C88.82467773 55.55800293 89.64935547 56.11600586 90.49902344 56.69091797 C102.76100721 64.99436071 114.95410403 73.38576738 127 82 C127.7317041 82.52303711 128.4634082 83.04607422 129.21728516 83.58496094 C149.96294908 98.43833889 170.29025115 113.855336 190.31152344 129.67041016 C191.9976361 130.99813855 193.68926782 132.318487 195.3828125 133.63671875 C207.64560096 143.19391342 219.63017188 153.08868317 231.46679688 163.16796875 C234.7928033 165.99612012 238.163404 168.76035772 241.5625 171.5 C246.04284472 175.14149933 250.28912796 178.97484613 254.51098633 182.9074707 C257.82164038 185.97316966 261.22882611 188.86180659 264.75 191.6875 C268.80679691 194.95272678 272.49711904 198.38690668 276.125 202.1171875 C278.52856298 204.53076533 281.08230391 206.72972273 283.6640625 208.94921875 C287.2638576 212.10957398 290.75664971 215.38428902 294.26538086 218.64501953 C297.20833556 221.37204504 300.17571959 224.04513995 303.25 226.625 C306.8226591 229.71047831 306.8226591 229.71047831 307.2734375 232.98828125 C307.30695313 233.75527344 307.34046875 234.52226563 307.375 235.3125 C307.42398437 236.07175781 307.47296875 236.83101562 307.5234375 237.61328125 C306.74176023 241.17749628 304.69182722 242.60406532 302 245 C299.223526 246.48768616 299.223526 246.48768616 296.17211914 247.71118164 C295.02770859 248.17729355 293.88329803 248.64340546 292.70420837 249.12364197 C291.46046274 249.61524597 290.21660888 250.10657626 288.97265625 250.59765625 C287.66679685 251.12398482 286.36138954 251.65143629 285.05641174 252.1799469 C281.69115815 253.53940325 278.3201228 254.88384643 274.94730377 256.22440338 C271.96644199 257.41165847 268.99096586 258.61220835 266.01513672 259.81201172 C260.11660661 262.18624271 254.21164277 264.54409139 248.30453491 266.8968811 C241.26857729 269.69929201 234.23601937 272.51022528 227.203125 275.3203125 C226.44726797 275.62227098 225.69141094 275.92422947 224.91264915 276.23533821 C205.46264124 284.00613842 186.0310343 291.82266789 166.59997177 299.64069366 C163.67732663 300.81659316 160.75463939 301.99238795 157.8319397 303.16815186 C141.8893371 309.58170761 125.94737375 315.99685167 110.0055542 322.41235352 C25.92563042 356.24872652 25.92563042 356.24872652 -14.25330353 372.32590866 C-16.54507459 373.24302672 -18.83672835 374.16043737 -21.12835693 375.07791138 C-24.64943639 376.48749774 -28.17089213 377.89613955 -31.69268227 379.30394936 C-33.57390817 380.05613469 -35.45482832 380.8090846 -37.33573914 381.5620575 C-38.44383438 382.00467422 -39.55192963 382.44729095 -40.69360352 382.90332031 C-41.65299332 383.28691711 -42.61238312 383.67051392 -43.60084534 384.06573486 C-48.01363392 385.78413784 -51.24123609 386.64525612 -56 386 C-58.76415067 384.07475095 -60.63631949 382.08201787 -62 379 C-62.53154154 372.53643782 -61.6185572 366.18418902 -60.64453125 359.80859375 C-60.50287537 358.84354416 -60.36121948 357.87849457 -60.215271 356.88420105 C-59.91114277 354.81371895 -59.60437564 352.74362305 -59.29519653 350.67388916 C-58.46755676 345.12472068 -57.66298286 339.57222352 -56.859375 334.01953125 C-56.69736099 332.90141052 -56.53534698 331.78328979 -56.36842346 330.63128662 C-54.97827283 320.9764139 -53.73681675 311.30815454 -52.5625 301.625 C-50.53871487 285.00092761 -48.32477631 268.40573501 -46.0625 251.8125 C-45.89004761 250.54661041 -45.71759521 249.28072083 -45.53991699 247.97647095 C-44.85077581 242.91815691 -44.16134652 237.8598823 -43.47137451 232.80168152 C-41.90389949 221.30722809 -40.34899245 209.81113706 -38.8125 198.3125 C-38.69077423 197.401586 -38.56904846 196.490672 -38.44363403 195.55215454 C-36.73059479 182.70929792 -35.09149176 169.85844178 -33.5 157 C-30.38438642 131.82802194 -26.98173783 106.69537571 -23.59227371 81.55906773 C-22.78139264 75.5452006 -21.97140015 69.53121403 -21.16175461 63.51718044 C-20.56290211 59.06987589 -19.96259412 54.62277109 -19.36104965 50.17582989 C-18.98218728 47.37274637 -18.60470301 44.56947802 -18.22731781 41.7661953 C-17.95665595 39.76053998 -17.68386224 37.75518228 -17.41094971 35.74983215 C-16.67907885 30.32368571 -15.96348764 24.90486226 -15.43164062 19.45507812 C-15.31281525 18.26836517 -15.31281525 18.26836517 -15.19158936 17.05767822 C-15.00465743 15.10273916 -14.84030484 13.14567294 -14.67871094 11.18847656 C-12.90887977 2.87408985 -8.3090756 -0.73291207 0 0 Z M5 28 C3.25275533 35.06561221 2.29982414 42.09152407 1.48318481 49.3196106 C-0.09910295 63.26656299 -1.96398132 77.16613322 -3.9375 91.0625 C-5.91084602 104.98661751 -7.78401601 118.91678881 -9.5 132.875 C-11.26021634 147.17678001 -13.09209018 161.4671247 -15 175.75 C-15.12713379 176.70230499 -15.25426758 177.65460999 -15.38525391 178.63577271 C-16.65697028 188.14769009 -17.94294409 197.65736042 -19.28125 207.16015625 C-19.38288956 207.88204132 -19.48452911 208.60392639 -19.58924866 209.34768677 C-19.79216106 210.78814898 -19.99508759 212.2286092 -20.19802856 213.66906738 C-20.29767914 214.37640015 -20.39732971 215.08373291 -20.5 215.8125 C-20.59940887 216.51741577 -20.69881775 217.22233154 -20.80123901 217.9486084 C-22.84679552 232.49671703 -24.65232239 247.07292749 -26.45162964 261.65322876 C-28.01795816 274.33480601 -29.65989051 286.99276628 -31.52490234 299.63427734 C-33.05433423 310.11336291 -34.3761133 320.61684 -35.6875 331.125 C-35.79627472 331.99374756 -35.90504944 332.86249512 -36.01712036 333.75756836 C-37.10929104 342.49659506 -38.18397447 351.22996739 -39 360 C-22.95744805 354.01233837 -7.09165128 347.62192164 8.75 341.125 C28.56419 333.00242124 48.42441583 325.00181318 68.3125 317.0625 C74.32182332 314.66328294 80.3309764 312.26364006 86.33984375 309.86328125 C87.11631256 309.55311821 87.89278137 309.24295517 88.69277954 308.92339325 C108.6257891 300.95976928 128.53721021 292.94251278 148.44959641 284.92749786 C180.2027458 272.14660649 211.96718491 259.39445488 243.75 246.6875 C244.63254204 246.33465439 245.51508408 245.98180878 246.42436981 245.61827087 C256.94896433 241.41063973 267.47414728 237.20448262 278 233 C276.91681133 229.75043399 276.29783983 229.16607364 273.75 227.0625 C269.95679764 223.85286724 266.31430516 220.51879813 262.6875 217.125 C257.83947058 212.61066611 252.84694401 208.35972027 247.6796875 204.2109375 C244.86746685 201.8906505 242.18202737 199.46928866 239.5 197 C235.11105254 192.96489979 230.59137234 189.16169696 225.953125 185.41796875 C222.56641218 182.64498564 219.25058257 179.79760291 215.9375 176.9375 C211.27359584 172.91922281 206.56293443 168.9873944 201.73046875 165.171875 C199.61495235 163.48914665 197.51620175 161.79160237 195.42578125 160.078125 C187.81516826 153.84271818 180.12295335 147.74780405 172.2824707 141.80371094 C167.66674891 138.29751231 163.1281265 134.71175233 158.625 131.0625 C149.97099584 124.07592956 140.99750834 117.53449304 132 111 C131.23220215 110.44135254 130.4644043 109.88270508 129.67333984 109.30712891 C124.46282905 105.51857685 119.23753509 101.75109535 114 98 C112.99283936 97.27828613 112.99283936 97.27828613 111.96533203 96.54199219 C93.99115075 83.6900782 75.71204691 71.258119 57.09863281 59.35107422 C54.86725417 57.91453986 52.64752691 56.46125066 50.4296875 55.00390625 C41.27863609 48.99664337 32.05967966 43.10372689 22.75460815 37.33798218 C21.59200764 36.61708695 20.43047226 35.8944709 19.27005005 35.17007446 C17.64177404 34.15477296 16.00847785 33.14753613 14.375 32.140625 C12.96347656 31.26712402 12.96347656 31.26712402 11.5234375 30.37597656 C9.28900621 29.15758891 7.48582733 28.45369266 5 28 Z " fill="#020100" transform="translate(1600,671)"/>
<path d="M0 0 C0.92324066 0.22533417 1.84648132 0.45066833 2.79769897 0.68283081 C5.77392769 1.4127667 8.74638476 2.1568451 11.71875 2.90234375 C13.76573966 3.40912987 15.81277758 3.9157211 17.85986328 4.42211914 C31.00870168 7.69367489 44.04150424 11.22048165 57.00097656 15.18017578 C60.13520409 16.11243941 63.2988612 16.91346737 66.46875 17.71484375 C74.60678003 19.84837596 82.57991922 22.47492002 90.57861328 25.07641602 C97.24540175 27.24401402 103.91902029 29.38042585 110.6171875 31.44921875 C177.94163331 52.26491846 243.21524501 78.93185806 306.78125 109.27734375 C307.79807861 109.76146729 308.81490723 110.24559082 309.86254883 110.74438477 C312.65931327 112.08798115 315.44306112 113.45327326 318.21875 114.83984375 C319.08999512 115.27441895 319.96124023 115.70899414 320.85888672 116.15673828 C322.0714917 116.79071533 322.0714917 116.79071533 323.30859375 117.4375 C324.01749756 117.80496338 324.72640137 118.17242676 325.45678711 118.55102539 C327.58152076 120.10519872 328.28736449 121.39653353 329.21875 123.83984375 C329.72592657 128.60730355 329.05812792 131.01357526 326.21875 134.83984375 C323.51842702 137.17328127 320.62985592 139.21639922 317.71875 141.27734375 C315.98685248 142.52847048 314.25508517 143.77977748 312.5234375 145.03125 C311.63881836 145.66562988 310.75419922 146.30000977 309.84277344 146.95361328 C305.82124736 149.84441254 301.83101855 152.77705557 297.84375 155.71484375 C296.6832312 156.56792114 296.6832312 156.56792114 295.49926758 157.43823242 C288.50342491 162.59552081 281.60362767 167.8752667 274.70361328 173.15966797 C269.40428534 177.20723265 264.05127567 181.14744979 258.59545898 184.98022461 C253.28416608 188.73725733 248.13067156 192.69363268 242.96875 196.65234375 C236.45347973 201.64831638 229.89861262 206.56605826 223.21875 211.33984375 C216.62394369 216.05367488 210.15052862 220.90600484 203.71875 225.83984375 C197.28696368 230.77368857 190.81341151 235.6258031 184.21875 240.33984375 C177.6489699 245.03776664 171.19285895 249.8658005 164.78125 254.77734375 C154.25156977 262.84349067 143.58632408 270.71295896 132.88476562 278.54882812 C122.74123909 285.98063495 112.68697068 293.51387718 102.70361328 301.15966797 C97.40428534 305.20723265 92.05127567 309.14744979 86.59545898 312.98022461 C81.28416163 316.73726048 76.13074916 320.69372693 70.96875 324.65234375 C62.14595901 331.41537012 53.20205723 337.98253356 44.15917969 344.44726562 C40.48154148 347.08657719 36.83567661 349.76938532 33.1875 352.44921875 C29.69672177 354.91492718 27.50110358 355.17571462 23.21875 354.83984375 C19.72468231 353.17222053 18.39204319 352.09978353 16.21875 348.83984375 C15.7394104 346.59535217 15.7394104 346.59535217 15.41259766 343.92993164 C15.28535309 342.92374283 15.15810852 341.91755402 15.02700806 340.88087463 C14.89692352 339.785811 14.76683899 338.69074738 14.6328125 337.5625 C14.42040421 335.8520475 14.42040421 335.8520475 14.20370483 334.10704041 C13.74237238 330.37307658 13.29284942 326.63779702 12.84375 322.90234375 C12.52651941 320.31179041 12.20880858 317.72129584 11.890625 315.13085938 C10.16707245 301.0319338 8.51708962 286.92657755 7.00006104 272.8039856 C5.42087188 258.12654791 3.56968013 243.48515953 1.71875 228.83984375 C-0.21784123 213.51674234 -2.13413727 198.19698288 -3.78125 182.83984375 C-5.50171279 166.81565695 -7.51946338 150.8327574 -9.54434204 134.84451294 C-12.31833148 112.90508407 -14.867547 90.94464378 -17.35107422 68.97094727 C-19.12776969 53.25427342 -19.12776969 53.25427342 -21.109375 37.5625 C-21.25600334 36.45949806 -21.25600334 36.45949806 -21.40559387 35.33421326 C-21.82730249 32.18656919 -22.26183411 29.04138835 -22.71557617 25.89819336 C-25.43254977 6.2901184 -25.43254977 6.2901184 -21.88452148 1.02539062 C-16.13017206 -4.95405639 -7.15949777 -1.80370141 0 0 Z M-1.78125 21.83984375 C0.26101817 40.55803705 2.36023461 59.26843374 4.59375 77.96484375 C4.69724762 78.83134552 4.80074524 79.69784729 4.90737915 80.59060669 C6.02051024 89.90090556 7.14214461 99.21017267 8.26753235 108.51899719 C8.87721846 113.56333194 9.48566263 118.60781605 10.09375 123.65234375 C10.21714752 124.67512421 10.34054504 125.69790466 10.46768188 126.75167847 C12.8060148 146.15607779 15.02346715 165.57357717 17.23233032 184.99307251 C19.0600939 201.03807371 20.96401591 217.06674641 23.0763855 233.07672119 C25.31013334 250.0406112 27.20320763 267.04179732 29.07641602 284.04882812 C30.58522369 297.67750204 32.29509073 311.26341119 34.21875 324.83984375 C37.85463701 323.53466379 40.62787209 321.97550912 43.66796875 319.6015625 C44.50650391 318.95316406 45.34503906 318.30476563 46.20898438 317.63671875 C47.54413086 316.59257813 47.54413086 316.59257813 48.90625 315.52734375 C55.60244911 310.35363911 62.32877142 305.25281301 69.21875 300.33984375 C75.81408859 295.62678521 82.28700038 290.77366041 88.71875 285.83984375 C95.15053632 280.90599893 101.62408849 276.0538844 108.21875 271.33984375 C114.7885301 266.64192086 121.24464105 261.813887 127.65625 256.90234375 C138.18593023 248.83619683 148.85117592 240.96672854 159.55273438 233.13085938 C169.69626091 225.69905255 179.75052932 218.16581032 189.73388672 210.52001953 C195.03321466 206.47245485 200.38622433 202.53223771 205.84204102 198.69946289 C211.15333392 194.94243017 216.30682844 190.98605482 221.46875 187.02734375 C227.98402027 182.03137112 234.53888738 177.11362924 241.21875 172.33984375 C248.72226557 166.97648604 256.0588545 161.41525604 263.37597656 155.80102539 C269.17424283 151.36437567 275.03578542 147.03197757 280.96875 142.77734375 C287.94890532 137.7730662 287.94890532 137.7730662 294.84375 132.65234375 C295.51664063 132.14316406 296.18953125 131.63398437 296.8828125 131.109375 C297.54410156 130.48095703 297.54410156 130.48095703 298.21875 129.83984375 C298.21875 129.17984375 298.21875 128.51984375 298.21875 127.83984375 C269.32045053 114.04686733 240.20294704 101.0901565 210.48144531 89.15283203 C207.21080889 87.83664805 203.94494149 86.50916123 200.6796875 85.1796875 C189.64496742 80.70287303 178.58026734 76.45021797 167.3125 72.59765625 C162.77112875 71.04319156 158.2623121 69.4076929 153.75415039 67.75976562 C122.0141559 56.17988828 89.81285486 45.83068529 57.28417969 36.70410156 C54.37593581 35.88416023 51.47029974 35.05541646 48.56529236 34.22409058 C29.31239934 28.71407448 29.31239934 28.71407448 9.90625 23.77734375 C9.05353516 23.57359131 8.20082031 23.36983887 7.32226562 23.15991211 C4.22623665 22.44238996 1.40777419 21.83984375 -1.78125 21.83984375 Z " fill="#020100" transform="translate(1142.78125,510.16015625)"/>
</svg>
