<?xml version="1.0" encoding="UTF-8"?>
<svg version="1.1" xmlns="http://www.w3.org/2000/svg" width="4000" height="2250">
<path d="M0 0 C0.66816982 -0.0024575 1.33633965 -0.004915 2.02475704 -0.00744697 C4.28199423 -0.01325211 6.53895141 -0.00466779 8.79617709 0.00378269 C10.42719529 0.00263793 12.05821307 0.00062941 13.68922927 -0.00217056 C18.19240053 -0.00725769 22.69547559 0.00035996 27.19863595 0.01010785 C32.05970678 0.01858366 36.9207736 0.01585051 41.78184992 0.01471883 C51.37901944 0.01450054 60.97614414 0.02585668 70.5733 0.04127248 C78.52133257 0.05385998 86.4693598 0.06214292 94.41740018 0.06782681 C197.70795479 0.14398833 300.9966483 0.63526028 404.28559516 1.18358558 C422.68668551 1.28118876 441.08778833 1.37619179 459.48890036 1.46960396 C460.49065461 1.47469089 460.49065461 1.47469089 461.51264631 1.47988059 C467.62086638 1.51089809 473.72908656 1.54189302 479.83730688 1.57285993 C494.99228695 1.64969322 510.14726531 1.72686019 525.30224246 1.80426639 C525.99053094 1.8077817 526.67881942 1.81129702 527.38796513 1.81491885 C560.40049789 1.98355548 593.41301013 2.15608498 626.42552108 2.32893127 C672.01632618 2.56763098 717.60714469 2.8034968 763.19798201 3.03596252 C764.62160819 3.04322225 766.04523437 3.05048207 767.46886054 3.05774197 C774.57246366 3.09396676 781.6760668 3.13018561 788.77966996 3.16640169 C789.48148975 3.16997977 790.18330954 3.17355786 790.90639659 3.17724437 C794.4464658 3.19529242 797.98653502 3.21333904 801.52660426 3.23138327 C851.13187455 3.48423462 900.73713273 3.73944621 950.34238885 3.99506107 C959.51183107 4.04230425 968.68127371 4.08946571 977.85071653 4.13659304 C993.0778161 4.21486578 1008.30491473 4.29332037 1023.53201216 4.37200683 C1025.37695333 4.38153983 1025.37695333 4.38153983 1027.25916604 4.39126541 C1054.57000379 4.53244983 1081.88082917 4.67561076 1109.19162196 4.82526058 C1110.30941141 4.83138421 1111.42720086 4.83750785 1112.57886272 4.84381705 C1123.59721012 4.90421801 1134.61555579 4.96492592 1145.63389913 5.02606348 C1169.32731524 5.15741432 1193.02074208 5.28118431 1216.71426549 5.39157013 C1231.49737303 5.46060125 1246.28043861 5.53600755 1261.0634856 5.6169792 C1270.20570322 5.66679918 1279.34790854 5.71103407 1288.49019072 5.74716663 C1294.50370814 5.77144434 1300.51716176 5.80269856 1306.53061327 5.83987074 C1309.93263317 5.8606874 1313.33458921 5.87832311 1316.73666294 5.88722207 C1320.3709033 5.89833456 1324.00486938 5.92140881 1327.63902682 5.94769138 C1329.2218188 5.94812871 1329.2218188 5.94812871 1330.83658637 5.94857487 C1332.27620196 5.96273276 1332.27620196 5.96273276 1333.7449007 5.97717667 C1334.57082836 5.98116 1335.39675602 5.98514334 1336.2477118 5.98924739 C1339.77558705 6.39626635 1341.86100797 7.54757732 1344.21501082 10.17887634 C1346.15513599 14.85849174 1345.88732922 19.33066753 1345.84373397 24.3477301 C1345.84575568 25.47977371 1345.84777739 26.61181732 1345.84986037 27.77816528 C1345.85283581 31.57283211 1345.83416969 35.36707782 1345.81541365 39.16169494 C1345.81105781 41.87022179 1345.81108611 44.57874486 1345.81083602 47.28727478 C1345.80740517 53.86247393 1345.78748803 60.43752599 1345.76189178 67.01267225 C1345.7415752 72.33903611 1345.72817829 77.665378 1345.71946639 82.99177307 C1345.71821824 83.74820107 1345.71697009 84.50462906 1345.71568412 85.28397912 C1345.71443471 86.04261372 1345.7131853 86.80124832 1345.71189803 87.58287185 C1345.61043683 149.13937437 1345.10970521 210.69443777 1344.48728865 272.24763244 C1345.26423583 272.39371948 1346.041183 272.53980652 1346.84167403 272.69032043 C1351.50988461 273.67370244 1355.64433936 275.94011406 1359.92478865 277.99763244 C1360.93742781 278.48425354 1361.95006697 278.97087463 1362.99339217 279.47224182 C1405.19856415 300.11852916 1445.14439466 331.26869335 1475.48728865 367.24763244 C1476.34193709 368.21314026 1477.19658553 369.17864807 1478.0771324 370.17341369 C1534.20727116 433.81525226 1562.81074047 516.69074508 1562.67478865 601.12263244 C1562.67385207 601.88452881 1562.67291548 602.64642517 1562.67195052 603.4314093 C1562.52985923 657.21751359 1551.54554636 710.95570137 1527.48728865 759.24763244 C1527.06979354 760.09357971 1526.65229842 760.93952698 1526.22215194 761.81110901 C1512.8377838 788.7285015 1495.3295723 813.44645728 1475.73728865 836.18513244 C1474.95913802 837.08932922 1474.95913802 837.08932922 1474.16526717 838.0117926 C1470.92936875 841.72302945 1467.54413212 845.22862711 1464.04051131 848.68732971 C1462.27383037 850.46206374 1460.64848085 852.32089692 1459.04978865 854.24763244 C1456.21506772 857.52566877 1453.21656781 860.3415097 1449.9130699 863.13825744 C1447.36306374 865.35565411 1444.90264441 867.6501073 1442.4418785 869.96540588 C1436.33820328 875.70256737 1430.1764441 881.19260625 1423.48728865 886.24763244 C1422.85290877 886.73280334 1422.21852889 887.21797424 1421.56492537 887.71784729 C1396.97585541 906.47184303 1370.75655764 921.73901094 1342.48728865 934.24763244 C1341.50952849 969.12974635 1341.34912504 1004.01377414 1341.30561751 1038.90749115 C1341.29985219 1042.39667996 1341.29016099 1045.88583651 1341.27928084 1049.37501281 C1341.21255091 1072.06449573 1341.25515879 1094.66276255 1342.76281661 1117.30805725 C1343.69158692 1131.35360738 1343.79847062 1145.36316497 1343.73728865 1159.43513244 C1343.73418685 1160.729039 1343.73108504 1162.02294555 1343.72788924 1163.3560614 C1343.67368871 1182.73587695 1343.31625507 1201.9466278 1341.48728865 1221.24763244 C1341.36178004 1222.65512482 1341.2369707 1224.06267969 1341.11277694 1225.47028869 C1333.23738066 1313.59647805 1308.39286374 1399.74185507 1234.65428084 1529.55231994 C1233.40268599 1531.3705364 1232.16704313 1533.19898196 1230.93260115 1535.02888244 C1220.29258814 1550.73964836 1209.00941125 1565.91477383 1196.90672225 1580.52839416 C1194.91508836 1582.94068963 1192.95410447 1585.37758611 1190.98728865 1587.81013244 C1182.44375963 1598.22792743 1173.5372621 1608.31997738 1164.34666365 1618.16950744 C1162.56460345 1620.07970513 1160.80905466 1622.0046291 1159.06541365 1623.95075744 C1152.70135654 1631.04445168 1146.02837235 1637.81471825 1139.29978865 1644.56013244 C1138.82615889 1645.0363504 1138.35252913 1645.51256836 1137.86454695 1646.00321716 C1132.80153648 1651.0880349 1127.69851526 1656.05836874 1122.25022811 1660.72981018 C1119.6600751 1662.95983112 1117.17577404 1665.29304326 1114.67478865 1667.62263244 C1110.02690324 1671.91638625 1105.24312518 1675.98295085 1100.3115074 1679.95075744 C1097.82502141 1681.97296182 1095.38443066 1684.03925123 1092.95530623 1686.12971252 C1085.44207314 1692.58130563 1077.64624512 1698.62080481 1069.72752303 1704.56501526 C1068.25235107 1705.67300187 1066.77962372 1706.78425191 1065.30955428 1707.89899963 C1037.92123308 1728.65478647 1008.76271985 1747.00749294 978.48728865 1763.24763244 C977.13643172 1763.97732239 977.13643172 1763.97732239 975.75828475 1764.72175354 C893.45992669 1809.00656754 801.13711387 1831.94693733 665.41892928 1838.56569046 C663.13059848 1838.560023 660.84227519 1838.55721932 658.55393904 1838.55460876 C621.1460078 1838.49269144 584.48227175 1835.80612244 547.48728865 1830.24763244 C546.21707869 1830.05975158 544.94686873 1829.87187073 543.63816756 1829.67829651 C460.61833703 1817.15332006 380.88588454 1786.02563515 309.48728865 1742.24763244 C308.58236678 1741.6944635 307.6774449 1741.14129455 306.74510115 1740.57136291 C295.3368101 1733.56904749 284.32006914 1726.10737092 273.48728865 1718.24763244 C272.71884627 1717.69317444 271.95040389 1717.13871643 271.15867537 1716.56745666 C260.55117755 1708.90227927 250.24670911 1700.95593824 240.15916365 1692.61970276 C237.93890809 1690.79758881 235.68269633 1689.02276381 233.42478865 1687.24763244 C222.53715731 1678.54481007 212.22660841 1669.18746881 202.08885115 1659.63044494 C199.85148141 1657.52140018 197.60098936 1655.43016415 195.32322615 1653.36481994 C188.58057439 1647.24589546 182.06109912 1640.9259882 175.61228865 1634.49763244 C174.81532576 1633.70526184 174.01836287 1632.91289123 173.19724959 1632.0965094 C169.01068622 1627.89896574 164.98925812 1623.62151291 161.12254256 1619.12800354 C158.53508771 1616.15270088 155.8174509 1613.30297698 153.11228865 1610.43513244 C148.46215455 1605.46578691 144.03761928 1600.38867072 139.78416365 1595.07185119 C137.639779 1592.43513333 135.43516018 1589.87015046 133.20042342 1587.31062073 C126.72790696 1579.88416161 120.78667398 1572.15179665 114.9521324 1564.21833557 C113.57932981 1562.37145848 112.18144202 1560.54830496 110.76853865 1558.73200744 C90.77513084 1532.89431811 73.1888681 1504.65577971 57.87205428 1475.84089416 C56.58843204 1473.43704447 55.28406734 1471.04600983 53.97166365 1468.65778869 C29.67029828 1424.05809524 12.09020662 1374.60266836 0.48728865 1325.24763244 C0.18484236 1323.97565002 -0.11760392 1322.7036676 -0.42921525 1321.39314026 C-6.99503417 1293.51204681 -11.67094335 1265.33927415 -14.82521135 1236.87263244 C-14.90661363 1236.13830993 -14.98801591 1235.40398742 -15.07188493 1234.64741272 C-17.67862965 1210.81028136 -18.60798408 1186.83702803 -18.56739885 1162.86481994 C-18.56682418 1162.20496597 -18.56624952 1161.545112 -18.56565744 1160.86526245 C-18.54097638 1135.38306493 -18.31260926 1109.90078637 -18.12387145 1084.41937047 C-18.08603215 1079.2851497 -18.05017771 1074.15091775 -18.01539689 1069.01667541 C-17.73080432 1027.08940184 -17.2291431 985.16981452 -16.51271135 943.24763244 C-17.27044815 943.04327764 -18.02818496 942.83892284 -18.80888349 942.62837547 C-19.80156767 942.35943285 -20.79425185 942.09049022 -21.81701738 941.81339782 C-22.80162918 941.54716802 -23.78624099 941.28093822 -24.80068952 941.00664085 C-67.30332429 929.11150903 -109.93642346 901.76134444 -141.95802385 871.62653869 C-144.00347582 869.72182883 -146.07807201 867.89308124 -148.1963051 866.07185119 C-153.15147024 861.75174057 -157.80532061 857.14691884 -162.45021135 852.49763244 C-163.33829484 851.60874328 -164.22637834 850.71985412 -165.14137346 849.80402893 C-170.23853848 844.65887066 -175.09208414 839.5119292 -179.5322426 833.78669494 C-181.40721005 831.38289052 -183.37243568 829.08134887 -185.37550431 826.7840094 C-225.57236232 780.45362871 -249.9199732 721.38817986 -259.82521135 661.31013244 C-259.97248674 660.42656067 -260.11976213 659.54298889 -260.27150041 658.63264221 C-263.10663736 640.10631697 -263.89418029 621.46259185 -263.82521135 602.74763244 C-263.82247712 601.19006225 -263.82247712 601.19006225 -263.81968766 599.601026 C-263.59791839 524.08389335 -241.72915819 446.58442179 -193.51271135 387.24763244 C-192.86302385 386.41876526 -192.21333635 385.58989807 -191.54396135 384.73591369 C-189.56263692 382.21459716 -187.5470922 379.72634558 -185.51271135 377.24763244 C-184.89154435 376.4889386 -184.89154435 376.4889386 -184.25782853 375.7149176 C-177.488527 367.49505145 -170.29632372 359.84542056 -162.6806801 352.40144104 C-161.69454728 351.43585266 -161.69454728 351.43585266 -160.6884926 350.45075744 C-159.8054445 349.59465881 -159.8054445 349.59465881 -158.90455705 348.72126526 C-157.40789944 347.27886907 -157.40789944 347.27886907 -156.51271135 345.24763244 C-155.85271135 345.24763244 -155.19271135 345.24763244 -154.51271135 345.24763244 C-154.51271135 344.58763244 -154.51271135 343.92763244 -154.51271135 343.24763244 C-153.2197426 341.94294494 -153.2197426 341.94294494 -151.32521135 340.37263244 C-148.17976941 337.71110465 -145.14826129 334.97006948 -142.16481096 332.12800354 C-134.10801352 324.49811366 -125.44928395 317.81020865 -116.51271135 311.24763244 C-115.82161271 310.73700256 -115.13051408 310.22637268 -114.41847306 309.70026916 C-88.83045898 290.8857308 -46.43057707 260.24763244 -13.51271135 260.24763244 C-13.51340529 259.58162521 -13.51409923 258.91561798 -13.5148142 258.22942871 C-13.56228814 210.02824286 -13.49050096 161.82760303 -13.27699167 113.62684387 C-13.23145947 103.28918605 -13.19197734 92.95157132 -13.1662758 82.61384338 C-13.14333009 73.38557726 -13.11007356 64.15741861 -13.06400979 54.92923778 C-13.04023535 50.1021769 -13.0213979 45.2752204 -13.01509744 40.44810241 C-13.00907223 35.96887556 -12.98916738 31.48992804 -12.95843583 27.01080459 C-12.9496495 25.37492696 -12.94593426 23.73901291 -12.94770318 22.10311264 C-12.94935584 19.87093357 -12.93266527 17.63960658 -12.91143876 15.40754455 C-12.9068298 14.16186203 -12.90222083 12.9161795 -12.8974722 11.63274902 C-12.46882829 7.86155035 -11.50842047 5.46162734 -9.51271135 2.24763244 C-5.90287024 -0.1589283 -4.29400242 -0.00168526 0 0 Z " fill="#F79220" transform="translate(1197.5127113461494,192.75236755609512)"/>
<path d="M0 0 C1.45841309 0.20882813 1.45841309 0.20882813 2.94628906 0.421875 C44.34768889 6.43377575 84.02974558 20.7127284 120 42 C120.6501709 42.37769531 121.3003418 42.75539063 121.97021484 43.14453125 C139.22746097 53.21594488 155.04479063 65.78990326 170 79 C170.91910156 79.80824219 171.83820312 80.61648438 172.78515625 81.44921875 C186.06924573 93.38114507 199.028514 105.890669 210 120 C211.60101074 121.87769548 213.20536873 123.75254045 214.8125 125.625 C235.64772453 150.67228381 252.10589022 179.73744771 264 210 C264.44786865 211.11544189 264.44786865 211.11544189 264.90478516 212.25341797 C274.31455943 235.80605733 280.00722817 260.55825906 283.125 285.6875 C283.29514978 287.01112217 283.46572223 288.33469008 283.63671875 289.65820312 C285.36985441 303.33905748 286.2080886 316.7815105 286.1875 330.5625 C286.18656342 331.37535461 286.18562683 332.18820923 286.18466187 333.0256958 C285.95946984 423.76587955 252.83303765 502.8941575 181.625 578.5 C177.89134344 582.17077392 173.9819 585.6024744 170 589 C169.10023438 589.78890625 168.20046875 590.5778125 167.2734375 591.390625 C157.94545528 599.50771237 148.06271199 606.82323896 138 614 C137.36900391 614.4522998 136.73800781 614.90459961 136.08789062 615.37060547 C107.17028033 635.91944009 74.63804141 650.06267229 40.5300293 659.31030273 C38.78139568 659.78698805 37.03560023 660.27416396 35.29223633 660.76977539 C26.06668035 663.3683977 16.76896121 664.96008066 7.31201172 666.46630859 C5.10847387 666.82138258 2.9068976 667.18885723 0.70751953 667.56884766 C-39.72807534 674.49713807 -82.96577501 672.79519477 -123 664 C-124.11439453 663.75765625 -125.22878906 663.5153125 -126.37695312 663.265625 C-150.33291976 657.9737818 -172.92497085 650.7231999 -195 640 C-195.94536621 639.54560547 -196.89073242 639.09121094 -197.86474609 638.62304688 C-220.41475841 627.68122866 -241.80324622 614.16179142 -261 598 C-261.55333008 597.53996582 -262.10666016 597.07993164 -262.67675781 596.60595703 C-278.04313723 583.81791615 -293.00398405 570.21298338 -306 555 C-306.89238203 553.98232945 -307.78568697 552.96546778 -308.6796875 551.94921875 C-340.30894006 515.81271917 -362.40091564 473.97442305 -376 428 C-376.39010254 426.71416016 -376.39010254 426.71416016 -376.78808594 425.40234375 C-389.1978256 384.16276506 -392.00297539 336.15922251 -386.30761719 293.39013672 C-385.97776295 290.82722166 -385.70916837 288.26191792 -385.4453125 285.69140625 C-381.88291309 252.84936676 -372.4381958 220.6810577 -358 191 C-357.49170654 189.94014893 -357.49170654 189.94014893 -356.97314453 188.85888672 C-345.11347622 164.18452557 -330.55016631 142.0314288 -313 121 C-312.23429687 120.04738281 -311.46859375 119.09476563 -310.6796875 118.11328125 C-303.62200376 109.47102488 -295.8026736 101.58619842 -287.9375 93.6875 C-287.38305206 93.12787567 -286.82860413 92.56825134 -286.25735474 91.9916687 C-279.16119747 84.84338869 -271.89972971 78.26166968 -264 72 C-262.96037621 71.12530152 -261.92524534 70.24517696 -260.8984375 69.35546875 C-215.31534057 30.19352015 -156.35331225 6.33932564 -97 -1 C-95.82848389 -1.15662109 -95.82848389 -1.15662109 -94.63330078 -1.31640625 C-63.77862364 -5.31807995 -30.72052096 -4.67508092 0 0 Z " fill="#F79220" transform="translate(2453,461)"/>
<path d="M0 0 C0.93408691 0.24121582 1.86817383 0.48243164 2.83056641 0.73095703 C15.99525301 4.16923005 28.51518551 8.60345673 41 14 C41.93183105 14.39815918 42.86366211 14.79631836 43.82373047 15.20654297 C76.7032595 29.36369356 106.51160076 48.82946284 132.86328125 73.046875 C134.76912347 74.78896113 136.71503302 76.45954813 138.6875 78.125 C148.10648627 86.33297375 156.96236319 95.4431615 165 105 C165.86496094 105.97582031 166.72992187 106.95164062 167.62109375 107.95703125 C229.05435336 177.53106488 250.44274333 266.57325632 245.79785156 357.55175781 C245.27889051 365.10900577 244.28099259 372.53732619 243 380 C242.80132324 381.21236328 242.60264648 382.42472656 242.39794922 383.67382812 C239.35628055 401.89194246 235.03665172 419.52624636 229 437 C228.68836914 437.90862793 228.37673828 438.81725586 228.05566406 439.75341797 C214.25585622 479.36397753 192.24520505 514.3904775 165 546 C164.40832031 546.69351563 163.81664062 547.38703125 163.20703125 548.1015625 C147.83111179 565.94522212 147.83111179 565.94522212 139.06640625 573.24609375 C136.94441404 575.04717976 134.9153876 576.93249182 132.88623047 578.83691406 C115.74330372 594.86651988 96.25731506 608.23056942 76 620 C75.16903809 620.4846875 74.33807617 620.969375 73.48193359 621.46875 C54.01617197 632.71970385 33.6249807 641.80486068 12 648 C10.70132537 648.41498258 9.40447135 648.83570021 8.109375 649.26171875 C-67.84348113 674.19909008 -160.22298286 667.91555584 -232 633 C-232.70656738 632.6611377 -233.41313477 632.32227539 -234.14111328 631.97314453 C-270.97736049 614.26789693 -302.84425193 590.10187789 -331.79208374 561.38314819 C-333.20743571 559.97970612 -334.6267301 558.58024342 -336.04614258 557.1809082 C-342.13599146 551.09871332 -347.64676676 544.73413759 -353 538 C-354.00049437 536.79143821 -355.00392667 535.58529564 -356.01171875 534.3828125 C-405.08328914 475.01914481 -427.08805305 401.54534781 -427.1875 325.5 C-427.18876892 324.56142151 -427.19003784 323.62284302 -427.19134521 322.65582275 C-427.18351769 271.57449549 -416.95473801 221.79972552 -394 176 C-393.5786377 175.14776855 -393.15727539 174.29553711 -392.72314453 173.41748047 C-382.50174018 152.85892763 -369.64888038 133.67123302 -355 116 C-354.20335937 115.02933594 -353.40671875 114.05867187 -352.5859375 113.05859375 C-340.89899677 98.94776 -328.33454251 84.96740443 -314.390625 73.0546875 C-312.50503152 71.43406304 -310.64723262 69.79297657 -308.796875 68.1328125 C-258.771869 23.5424871 -192.04062737 -5.89515306 -124.9375 -10.125 C-124.28092407 -10.16669312 -123.62434814 -10.20838623 -122.94787598 -10.25134277 C-81.37294081 -12.8254193 -40.3974193 -10.55463355 0 0 Z " fill="#F79220" transform="translate(1382,469)"/>
<path d="M0 0 C0.66816982 -0.0024575 1.33633965 -0.004915 2.02475704 -0.00744697 C4.28199423 -0.01325211 6.53895141 -0.00466779 8.79617709 0.00378269 C10.42719529 0.00263793 12.05821307 0.00062941 13.68922927 -0.00217056 C18.19240053 -0.00725769 22.69547559 0.00035996 27.19863595 0.01010785 C32.05970678 0.01858366 36.9207736 0.01585051 41.78184992 0.01471883 C51.37901944 0.01450054 60.97614414 0.02585668 70.5733 0.04127248 C78.52133257 0.05385998 86.4693598 0.06214292 94.41740018 0.06782681 C197.70795479 0.14398833 300.9966483 0.63526028 404.28559516 1.18358558 C422.68668551 1.28118876 441.08778833 1.37619179 459.48890036 1.46960396 C460.49065461 1.47469089 460.49065461 1.47469089 461.51264631 1.47988059 C467.62086638 1.51089809 473.72908656 1.54189302 479.83730688 1.57285993 C494.99228695 1.64969322 510.14726531 1.72686019 525.30224246 1.80426639 C525.99053094 1.8077817 526.67881942 1.81129702 527.38796513 1.81491885 C560.40049789 1.98355548 593.41301013 2.15608498 626.42552108 2.32893127 C672.01632618 2.56763098 717.60714469 2.8034968 763.19798201 3.03596252 C764.62160819 3.04322225 766.04523437 3.05048207 767.46886054 3.05774197 C774.57246366 3.09396676 781.6760668 3.13018561 788.77966996 3.16640169 C789.48148975 3.16997977 790.18330954 3.17355786 790.90639659 3.17724437 C794.4464658 3.19529242 797.98653502 3.21333904 801.52660426 3.23138327 C851.13187455 3.48423462 900.73713273 3.73944621 950.34238885 3.99506107 C959.51183107 4.04230425 968.68127371 4.08946571 977.85071653 4.13659304 C993.0778161 4.21486578 1008.30491473 4.29332037 1023.53201216 4.37200683 C1025.37695333 4.38153983 1025.37695333 4.38153983 1027.25916604 4.39126541 C1054.57000379 4.53244983 1081.88082917 4.67561076 1109.19162196 4.82526058 C1110.30941141 4.83138421 1111.42720086 4.83750785 1112.57886272 4.84381705 C1123.59721012 4.90421801 1134.61555579 4.96492592 1145.63389913 5.02606348 C1169.32731524 5.15741432 1193.02074208 5.28118431 1216.71426549 5.39157013 C1231.49737303 5.46060125 1246.28043861 5.53600755 1261.0634856 5.6169792 C1270.20570322 5.66679918 1279.34790854 5.71103407 1288.49019072 5.74716663 C1294.50370814 5.77144434 1300.51716176 5.80269856 1306.53061327 5.83987074 C1309.93263317 5.8606874 1313.33458921 5.87832311 1316.73666294 5.88722207 C1320.3709033 5.89833456 1324.00486938 5.92140881 1327.63902682 5.94769138 C1329.2218188 5.94812871 1329.2218188 5.94812871 1330.83658637 5.94857487 C1332.27620196 5.96273276 1332.27620196 5.96273276 1333.7449007 5.97717667 C1334.57082836 5.98116 1335.39675602 5.98514334 1336.2477118 5.98924739 C1339.77558705 6.39626635 1341.86100797 7.54757732 1344.21501082 10.17887634 C1346.15513599 14.85849174 1345.88732922 19.33066753 1345.84373397 24.3477301 C1345.84575568 25.47977371 1345.84777739 26.61181732 1345.84986037 27.77816528 C1345.85283581 31.57283211 1345.83416969 35.36707782 1345.81541365 39.16169494 C1345.81105781 41.87022179 1345.81108611 44.57874486 1345.81083602 47.28727478 C1345.80740517 53.86247393 1345.78748803 60.43752599 1345.76189178 67.01267225 C1345.7415752 72.33903611 1345.72817829 77.665378 1345.71946639 82.99177307 C1345.71821824 83.74820107 1345.71697009 84.50462906 1345.71568412 85.28397912 C1345.71443471 86.04261372 1345.7131853 86.80124832 1345.71189803 87.58287185 C1345.61043683 149.13937437 1345.10970521 210.69443777 1344.48728865 272.24763244 C1345.26423583 272.39371948 1346.041183 272.53980652 1346.84167403 272.69032043 C1351.50988461 273.67370244 1355.64433936 275.94011406 1359.92478865 277.99763244 C1360.93742781 278.48425354 1361.95006697 278.97087463 1362.99339217 279.47224182 C1405.19856415 300.11852916 1445.14439466 331.26869335 1475.48728865 367.24763244 C1476.34193709 368.21314026 1477.19658553 369.17864807 1478.0771324 370.17341369 C1534.20727116 433.81525226 1562.81074047 516.69074508 1562.67478865 601.12263244 C1562.67385207 601.88452881 1562.67291548 602.64642517 1562.67195052 603.4314093 C1562.52985923 657.21751359 1551.54554636 710.95570137 1527.48728865 759.24763244 C1527.06979354 760.09357971 1526.65229842 760.93952698 1526.22215194 761.81110901 C1512.8377838 788.7285015 1495.3295723 813.44645728 1475.73728865 836.18513244 C1474.95913802 837.08932922 1474.95913802 837.08932922 1474.16526717 838.0117926 C1470.92936875 841.72302945 1467.54413212 845.22862711 1464.04051131 848.68732971 C1462.27383037 850.46206374 1460.64848085 852.32089692 1459.04978865 854.24763244 C1456.21506772 857.52566877 1453.21656781 860.3415097 1449.9130699 863.13825744 C1447.36306374 865.35565411 1444.90264441 867.6501073 1442.4418785 869.96540588 C1436.33820328 875.70256737 1430.1764441 881.19260625 1423.48728865 886.24763244 C1422.85290877 886.73280334 1422.21852889 887.21797424 1421.56492537 887.71784729 C1396.97585541 906.47184303 1370.75655764 921.73901094 1342.48728865 934.24763244 C1341.50952849 969.12974635 1341.34912504 1004.01377414 1341.30561751 1038.90749115 C1341.29985219 1042.39667996 1341.29016099 1045.88583651 1341.27928084 1049.37501281 C1341.21255091 1072.06449573 1341.25515879 1094.66276255 1342.76281661 1117.30805725 C1343.69158692 1131.35360738 1343.79847062 1145.36316497 1343.73728865 1159.43513244 C1343.73418685 1160.729039 1343.73108504 1162.02294555 1343.72788924 1163.3560614 C1343.67368871 1182.73587695 1343.31625507 1201.9466278 1341.48728865 1221.24763244 C1341.36178004 1222.65512482 1341.2369707 1224.06267969 1341.11277694 1225.47028869 C1333.23738066 1313.59647805 1308.39286374 1399.74185507 1234.65428084 1529.55231994 C1233.40268599 1531.3705364 1232.16704313 1533.19898196 1230.93260115 1535.02888244 C1220.29258814 1550.73964836 1209.00941125 1565.91477383 1196.90672225 1580.52839416 C1194.91508836 1582.94068963 1192.95410447 1585.37758611 1190.98728865 1587.81013244 C1182.44375963 1598.22792743 1173.5372621 1608.31997738 1164.34666365 1618.16950744 C1162.56460345 1620.07970513 1160.80905466 1622.0046291 1159.06541365 1623.95075744 C1152.70135654 1631.04445168 1146.02837235 1637.81471825 1139.29978865 1644.56013244 C1138.82615889 1645.0363504 1138.35252913 1645.51256836 1137.86454695 1646.00321716 C1132.80153648 1651.0880349 1127.69851526 1656.05836874 1122.25022811 1660.72981018 C1119.6600751 1662.95983112 1117.17577404 1665.29304326 1114.67478865 1667.62263244 C1110.02690324 1671.91638625 1105.24312518 1675.98295085 1100.3115074 1679.95075744 C1097.82502141 1681.97296182 1095.38443066 1684.03925123 1092.95530623 1686.12971252 C1085.44207314 1692.58130563 1077.64624512 1698.62080481 1069.72752303 1704.56501526 C1068.25235107 1705.67300187 1066.77962372 1706.78425191 1065.30955428 1707.89899963 C1037.92123308 1728.65478647 1008.76271985 1747.00749294 978.48728865 1763.24763244 C977.13643172 1763.97732239 977.13643172 1763.97732239 975.75828475 1764.72175354 C893.45992669 1809.00656754 801.13711387 1831.94693733 665.41892928 1838.56569046 C663.13059848 1838.560023 660.84227519 1838.55721932 658.55393904 1838.55460876 C621.1460078 1838.49269144 584.48227175 1835.80612244 547.48728865 1830.24763244 C546.21707869 1830.05975158 544.94686873 1829.87187073 543.63816756 1829.67829651 C460.61833703 1817.15332006 380.88588454 1786.02563515 309.48728865 1742.24763244 C308.58236678 1741.6944635 307.6774449 1741.14129455 306.74510115 1740.57136291 C295.3368101 1733.56904749 284.32006914 1726.10737092 273.48728865 1718.24763244 C272.71884627 1717.69317444 271.95040389 1717.13871643 271.15867537 1716.56745666 C260.55117755 1708.90227927 250.24670911 1700.95593824 240.15916365 1692.61970276 C237.93890809 1690.79758881 235.68269633 1689.02276381 233.42478865 1687.24763244 C222.53715731 1678.54481007 212.22660841 1669.18746881 202.08885115 1659.63044494 C199.85148141 1657.52140018 197.60098936 1655.43016415 195.32322615 1653.36481994 C188.58057439 1647.24589546 182.06109912 1640.9259882 175.61228865 1634.49763244 C174.81532576 1633.70526184 174.01836287 1632.91289123 173.19724959 1632.0965094 C169.01068622 1627.89896574 164.98925812 1623.62151291 161.12254256 1619.12800354 C158.53508771 1616.15270088 155.8174509 1613.30297698 153.11228865 1610.43513244 C148.46215455 1605.46578691 144.03761928 1600.38867072 139.78416365 1595.07185119 C137.639779 1592.43513333 135.43516018 1589.87015046 133.20042342 1587.31062073 C126.72790696 1579.88416161 120.78667398 1572.15179665 114.9521324 1564.21833557 C113.57932981 1562.37145848 112.18144202 1560.54830496 110.76853865 1558.73200744 C90.77513084 1532.89431811 73.1888681 1504.65577971 57.87205428 1475.84089416 C56.58843204 1473.43704447 55.28406734 1471.04600983 53.97166365 1468.65778869 C29.67029828 1424.05809524 12.09020662 1374.60266836 0.48728865 1325.24763244 C0.18484236 1323.97565002 -0.11760392 1322.7036676 -0.42921525 1321.39314026 C-6.99503417 1293.51204681 -11.67094335 1265.33927415 -14.82521135 1236.87263244 C-14.90661363 1236.13830993 -14.98801591 1235.40398742 -15.07188493 1234.64741272 C-17.67862965 1210.81028136 -18.60798408 1186.83702803 -18.56739885 1162.86481994 C-18.56682418 1162.20496597 -18.56624952 1161.545112 -18.56565744 1160.86526245 C-18.54097638 1135.38306493 -18.31260926 1109.90078637 -18.12387145 1084.41937047 C-18.08603215 1079.2851497 -18.05017771 1074.15091775 -18.01539689 1069.01667541 C-17.73080432 1027.08940184 -17.2291431 985.16981452 -16.51271135 943.24763244 C-17.27044815 943.04327764 -18.02818496 942.83892284 -18.80888349 942.62837547 C-19.80156767 942.35943285 -20.79425185 942.09049022 -21.81701738 941.81339782 C-22.80162918 941.54716802 -23.78624099 941.28093822 -24.80068952 941.00664085 C-67.30332429 929.11150903 -109.93642346 901.76134444 -141.95802385 871.62653869 C-144.00347582 869.72182883 -146.07807201 867.89308124 -148.1963051 866.07185119 C-153.15147024 861.75174057 -157.80532061 857.14691884 -162.45021135 852.49763244 C-163.33829484 851.60874328 -164.22637834 850.71985412 -165.14137346 849.80402893 C-170.23853848 844.65887066 -175.09208414 839.5119292 -179.5322426 833.78669494 C-181.40721005 831.38289052 -183.37243568 829.08134887 -185.37550431 826.7840094 C-225.57236232 780.45362871 -249.9199732 721.38817986 -259.82521135 661.31013244 C-259.97248674 660.42656067 -260.11976213 659.54298889 -260.27150041 658.63264221 C-263.10663736 640.10631697 -263.89418029 621.46259185 -263.82521135 602.74763244 C-263.82247712 601.19006225 -263.82247712 601.19006225 -263.81968766 599.601026 C-263.59791839 524.08389335 -241.72915819 446.58442179 -193.51271135 387.24763244 C-192.86302385 386.41876526 -192.21333635 385.58989807 -191.54396135 384.73591369 C-189.56263692 382.21459716 -187.5470922 379.72634558 -185.51271135 377.24763244 C-184.89154435 376.4889386 -184.89154435 376.4889386 -184.25782853 375.7149176 C-177.488527 367.49505145 -170.29632372 359.84542056 -162.6806801 352.40144104 C-161.69454728 351.43585266 -161.69454728 351.43585266 -160.6884926 350.45075744 C-159.8054445 349.59465881 -159.8054445 349.59465881 -158.90455705 348.72126526 C-157.40789944 347.27886907 -157.40789944 347.27886907 -156.51271135 345.24763244 C-155.85271135 345.24763244 -155.19271135 345.24763244 -154.51271135 345.24763244 C-154.51271135 344.58763244 -154.51271135 343.92763244 -154.51271135 343.24763244 C-153.2197426 341.94294494 -153.2197426 341.94294494 -151.32521135 340.37263244 C-148.17976941 337.71110465 -145.14826129 334.97006948 -142.16481096 332.12800354 C-134.10801352 324.49811366 -125.44928395 317.81020865 -116.51271135 311.24763244 C-115.82161271 310.73700256 -115.13051408 310.22637268 -114.41847306 309.70026916 C-88.83045898 290.8857308 -46.43057707 260.24763244 -13.51271135 260.24763244 C-13.51340529 259.58162521 -13.51409923 258.91561798 -13.5148142 258.22942871 C-13.56228814 210.02824286 -13.49050096 161.82760303 -13.27699167 113.62684387 C-13.23145947 103.28918605 -13.19197734 92.95157132 -13.1662758 82.61384338 C-13.14333009 73.38557726 -13.11007356 64.15741861 -13.06400979 54.92923778 C-13.04023535 50.1021769 -13.0213979 45.2752204 -13.01509744 40.44810241 C-13.00907223 35.96887556 -12.98916738 31.48992804 -12.95843583 27.01080459 C-12.9496495 25.37492696 -12.94593426 23.73901291 -12.94770318 22.10311264 C-12.94935584 19.87093357 -12.93266527 17.63960658 -12.91143876 15.40754455 C-12.9068298 14.16186203 -12.90222083 12.9161795 -12.8974722 11.63274902 C-12.46882829 7.86155035 -11.50842047 5.46162734 -9.51271135 2.24763244 C-5.90287024 -0.1589283 -4.29400242 -0.00168526 0 0 Z M8.48728865 21.24763244 C8.48137592 22.20732682 8.47546319 23.16702119 8.46937129 24.15579721 C8.41290077 33.32117574 8.35641311 42.48655417 8.29990979 51.65193249 C8.27088043 56.36085622 8.24185656 61.06977997 8.21284646 65.77870381 C7.97958535 103.64054339 7.97958535 103.64054339 7.86076659 122.42771918 C7.8071551 130.92106347 7.75593074 139.4144218 7.70603865 147.90778869 C7.70079491 148.79753427 7.69555117 149.68727984 7.69014853 150.6039874 C7.48764516 185.15217279 7.42246712 219.6989115 7.48728865 254.24763244 C9.36893534 253.9354631 11.25051363 253.62288149 13.13206404 253.31013244 C14.17987548 253.13610901 15.22768691 252.96208557 16.3072502 252.78278869 C19.26444884 252.28513329 22.21807794 251.77064347 25.1708824 251.24763244 C27.08885115 250.91429911 29.0068199 250.58096578 30.92478865 250.24763244 C31.8393785 250.08263244 32.75396834 249.91763244 33.69627303 249.74763244 C52.93006533 246.44525094 72.14074016 245.89641649 91.61473006 245.93195862 C94.35610816 245.93658452 97.09704194 245.92966909 99.83836287 245.9114508 C124.06031656 245.75210536 147.45049089 247.76253126 171.16892928 252.76228088 C173.24487799 253.19688345 175.32672982 253.60306231 177.40916365 254.00544494 C200.32685082 258.82283633 223.34244461 267.27841362 244.48728865 277.24763244 C245.19014998 277.57827698 245.89301131 277.90892151 246.61717147 278.24958557 C251.29786133 280.47595626 255.90612704 282.82375512 260.48728865 285.24763244 C261.54762313 285.80571594 261.54762313 285.80571594 262.6293785 286.37507385 C287.47974562 299.5485643 310.40915939 316.20524574 331.17478865 335.15388244 C333.14384456 336.93667631 335.14619068 338.65881691 337.17478865 340.37263244 C346.59190067 348.57897292 355.45791841 357.68634287 363.48728865 367.24763244 C364.37110341 368.25815033 365.25669507 369.26711541 366.14353865 370.27497619 C376.89509465 382.5521266 386.70628342 395.48331411 395.48728865 409.24763244 C396.43474959 410.73069885 396.43474959 410.73069885 397.40135115 412.24372619 C415.19861802 440.64135718 429.81387602 471.20652356 437.89109725 503.84626526 C438.5663342 506.56601574 439.27224887 509.27720113 439.9755699 511.98981994 C450.51901324 553.41283194 454.73347566 599.29943761 448.8036949 641.87751526 C448.44462347 644.56722627 448.15165604 647.26048698 447.86228865 649.95856994 C445.18175863 674.28560729 439.10655884 697.02040273 431.48728865 720.24763244 C431.20740096 721.11178772 430.92751326 721.97594299 430.63914412 722.86628479 C416.95428169 764.84805494 392.42643748 802.91400548 363.73728865 836.18513244 C363.2186827 836.7876886 362.70007674 837.39024475 362.16575545 838.01106018 C358.91669435 841.7377575 355.52684586 845.26761882 351.98802108 848.72053283 C350.33639224 850.34155778 350.33639224 850.34155778 348.54978865 852.74763244 C346.13614211 855.67326461 343.42965326 857.97877734 340.54978865 860.43513244 C338.66159978 862.09444993 336.91735501 863.81304431 335.17478865 865.62263244 C331.09919812 869.75317476 326.62499145 873.34029892 322.09422225 876.9571051 C320.38833424 878.32710267 318.6971363 879.71394648 317.0068199 881.10310119 C308.16175717 888.33428236 299.03490538 894.97547547 289.48728865 901.24763244 C288.7499449 901.73231994 288.01260115 902.21700744 287.25291365 902.71638244 C260.36716212 920.27442426 232.27709612 933.95653353 201.48728865 943.24763244 C200.49777205 943.55152893 199.50825545 943.85542541 198.4887535 944.16853088 C184.84048699 948.30249749 171.09928817 951.21952796 157.04978865 953.56013244 C155.94576705 953.74506256 155.94576705 953.74506256 154.81944197 953.93372864 C135.41246898 957.14579377 116.35305461 958.65831773 96.67478865 958.62263244 C95.05011672 958.62231521 95.05011672 958.62231521 93.39262313 958.62199157 C65.40310195 958.56787853 37.77624181 956.39126111 10.54148787 949.64314026 C8.18130004 949.1215899 8.18130004 949.1215899 4.48728865 949.24763244 C3.37825069 998.62563777 3.29923379 1047.99792559 3.30217844 1097.38634175 C3.30182446 1106.09908481 3.2901698 1114.81178786 3.27624226 1123.52451831 C3.2630628 1132.08663817 3.25780587 1140.64874044 3.25844133 1149.21087033 C3.25869194 1154.25794324 3.256086 1159.3049669 3.24526328 1164.35202926 C3.18980466 1192.08481961 3.71047243 1219.624109 7.17478865 1247.18513244 C7.25587874 1247.83932159 7.33696883 1248.49351074 7.42051619 1249.1675238 C12.3818046 1288.7976553 21.53277528 1327.18333506 33.48728865 1365.24763244 C33.89261824 1366.54845764 33.89261824 1366.54845764 34.30613631 1367.87556213 C41.66178011 1391.32137006 51.23871469 1413.94027444 61.48728865 1436.24763244 C62.13697615 1437.66882385 62.13697615 1437.66882385 62.79978865 1439.11872619 C69.0964136 1452.8335624 76.12143703 1466.08016824 83.48728865 1479.24763244 C84.1931954 1480.52357588 84.89894493 1481.79960633 85.60447615 1483.07575744 C106.81331055 1520.91724619 133.24955274 1557.1554042 162.56541365 1589.14606994 C164.30471955 1591.04799387 165.99491996 1592.98082976 167.67478865 1594.93513244 C177.78928404 1606.47516073 188.52706798 1617.39037119 199.36228865 1628.24763244 C199.94973861 1628.83767059 200.53718856 1629.42770874 201.14244002 1630.03562683 C206.87595979 1635.78904215 212.58928494 1641.50661201 218.77439803 1646.77985901 C221.52986072 1649.1410109 224.15349381 1651.64079189 226.79978865 1654.12263244 C231.53881166 1658.52666969 236.38125488 1662.73165033 241.4286949 1666.78278869 C243.76725551 1668.66737585 246.08374227 1670.5698376 248.3896324 1672.49372619 C257.87003862 1680.39461316 267.53260703 1687.9550314 277.48728865 1695.24763244 C278.56430037 1696.04233948 278.56430037 1696.04233948 279.6630699 1696.85310119 C309.12326203 1718.57418856 340.78212182 1737.25199755 373.64988631 1753.33405823 C375.42470889 1754.21651718 377.18108807 1755.13577415 378.9365074 1756.05622619 C407.50803817 1771.01477205 438.63823663 1782.09047789 469.48728865 1791.24763244 C470.36191756 1791.51108459 471.23654647 1791.77453674 472.13767928 1792.04597229 C504.05366087 1801.59296539 536.51675934 1807.74270472 569.48728865 1812.24763244 C570.7112535 1812.4163385 571.93521834 1812.58504455 573.19627303 1812.75886291 C602.05846097 1816.64480097 631.10051643 1817.61083456 660.18821639 1817.56330627 C663.25737601 1817.55867719 666.32613891 1817.56562327 669.39524764 1817.58381408 C698.96967333 1817.75698248 728.22738412 1815.80877695 757.54978865 1811.87263244 C758.34806075 1811.76780548 759.14633284 1811.66297851 759.968795 1811.55497497 C806.52518997 1805.42353379 852.44735254 1793.53203809 896.48728865 1777.24763244 C897.98074813 1776.70211731 897.98074813 1776.70211731 899.5043785 1776.14558166 C965.11754706 1751.98805128 1027.35385432 1714.23779564 1080.4130699 1668.85310119 C1083.1842802 1666.48899057 1086.01656055 1664.20919287 1088.86228865 1661.93513244 C1094.13554952 1657.65012544 1099.08110805 1653.05459232 1104.01023787 1648.38313049 C1107.03047868 1645.52294852 1110.0769036 1642.72044854 1113.23240584 1640.00959533 C1117.40037847 1636.37198734 1121.33652644 1632.54320857 1125.2411949 1628.62653869 C1126.29801718 1627.5711515 1126.29801718 1627.5711515 1127.37618941 1626.49444336 C1128.85382232 1625.01748596 1130.33021322 1623.53928502 1131.80540389 1622.0598883 C1134.04395347 1619.81598159 1136.28779338 1617.5774654 1138.53221053 1615.33942932 C1139.97719269 1613.89378626 1141.42186457 1612.44783299 1142.8661949 1611.00153869 C1143.52680419 1610.34295364 1144.18741347 1609.68436859 1144.86804122 1609.00582641 C1148.73325344 1605.12140703 1152.41814509 1601.12827837 1155.99584883 1596.97718567 C1157.90959622 1594.75790204 1159.88510667 1592.59791197 1161.86228865 1590.43513244 C1165.7065711 1586.17017936 1169.38255771 1581.79902395 1172.9911949 1577.33356994 C1174.79927021 1575.09823428 1176.61841629 1572.87575039 1178.4521324 1570.66169494 C1186.86191082 1560.47190498 1194.75337918 1549.95699607 1202.48728865 1539.24763244 C1202.99082869 1538.55621155 1203.49436873 1537.86479065 1204.01316756 1537.1524176 C1237.6676178 1490.89019001 1264.6865364 1439.56179075 1284.1918785 1385.81550354 C1285.03813892 1383.48469882 1285.89229805 1381.15674269 1286.75535506 1378.8321051 C1298.32105649 1347.6187002 1306.44052902 1315.17550161 1312.11274904 1282.39809984 C1312.48720562 1280.24810917 1312.86907964 1278.09953918 1313.25218314 1275.95107406 C1317.35426916 1252.7865473 1319.38755711 1230.33585147 1319.32925457 1206.82486242 C1319.32555373 1202.56204195 1319.35686692 1198.29944137 1319.38400191 1194.03672546 C1319.42628889 1186.79748203 1319.45001437 1179.55839849 1319.46110457 1172.31904358 C1319.47941012 1161.28803729 1319.5545244 1150.25778579 1319.64012069 1139.22712463 C1319.66823349 1135.52837612 1319.69598565 1131.82962501 1319.72352523 1128.13087219 C1319.73036704 1127.2129449 1319.73720885 1126.29501761 1319.74425799 1125.34927434 C1319.85370839 1110.42962399 1319.92646055 1095.50974018 1320.0047031 1080.58990067 C1320.03966503 1073.94796851 1320.07672732 1067.30605036 1320.1149742 1060.66413635 C1320.46376302 1000.9563111 1320.46376302 1000.9563111 1320.48728865 941.24763244 C1319.73772902 941.45268402 1318.98816939 941.65773559 1318.21589583 941.86900085 C1317.22957167 942.13848541 1316.24324752 942.40796997 1315.22703475 942.68562073 C1314.25060012 942.9525473 1313.27416548 943.21947387 1312.26814193 943.49448913 C1306.79617211 944.9764722 1301.29271171 946.32971996 1295.78709334 947.67976135 C1293.35407665 948.28052534 1290.92476369 948.89517354 1288.49510115 949.50935119 C1276.56403325 952.48708255 1264.69949847 954.79440017 1252.48728865 956.24763244 C1251.65600447 956.35204651 1250.82472029 956.45646057 1249.96824569 956.56403869 C1234.27093461 958.44831231 1218.52416247 958.45692593 1202.73728865 958.49763244 C1201.6974684 958.50289947 1200.65764815 958.5081665 1199.58631819 958.51359314 C1181.02219416 958.58619712 1162.80957383 957.39238603 1144.48728865 954.31013244 C1143.42896834 954.13610901 1142.37064803 953.96208557 1141.2802574 953.78278869 C1134.98123284 952.72647878 1128.73663952 951.5610461 1122.5380699 950.00935119 C1120.29546817 949.44941862 1118.04056994 948.93816574 1115.7802574 948.45466369 C1067.99403929 938.18453895 1023.55241658 914.47292185 985.48728865 884.24763244 C984.5540074 883.50899963 983.62072615 882.77036682 982.65916365 882.00935119 C976.63756815 877.16626795 970.920119 872.05681164 965.26072615 866.80231994 C963.0165183 864.73512004 960.74543007 862.72728165 958.42478865 860.74763244 C951.29917881 854.55725889 944.59455148 847.76081457 938.4755699 840.57575744 C936.86683402 838.69205099 935.2379032 836.8336503 933.5927574 834.98200744 C916.48032031 815.63638825 902.44850845 794.54337334 889.48728865 772.24763244 C889.11362166 771.60922424 888.73995467 770.97081604 888.35496444 770.31306213 C872.04156933 742.15312783 861.29731428 709.85858714 855.04392928 678.06062073 C854.57838573 675.70799232 854.08353484 673.36639604 853.56541365 671.02497619 C848.93418529 648.9321266 847.98339074 626.24401691 848.09617537 603.74348205 C848.11235972 599.91833543 848.09614707 596.0942334 848.0771324 592.26911682 C848.06452396 576.70031191 849.15787862 561.63475051 851.48728865 546.24763244 C851.84195716 543.76589868 852.19243849 541.28360219 852.54243392 538.80120605 C856.81931392 509.67080139 865.83775753 482.20697033 877.48728865 455.24763244 C878.02289412 454.00626526 878.02289412 454.00626526 878.5693199 452.73981994 C886.34114075 434.96681132 896.28153897 418.06520556 907.48728865 402.24763244 C908.0104869 401.50803283 908.53368514 400.76843323 909.07273787 400.00642151 C916.55034317 389.50540351 924.38304851 379.46368191 933.01267928 369.88532776 C934.34251216 368.40842064 935.65799502 366.91862301 936.97166365 365.42731994 C942.78564926 358.92824687 948.89231023 352.71610735 955.03272933 346.52695984 C956.44337959 345.10441185 957.85004376 343.67791456 959.25657576 342.25129455 C965.35637431 336.14386104 971.73845041 330.62153832 978.48728865 325.24763244 C979.79288167 324.16330276 981.09535934 323.07520205 982.39353865 321.98200744 C1032.55355382 280.15109541 1095.60016447 254.55383989 1160.40013045 247.84260315 C1163.26689924 247.54319885 1165.73849775 247.16389608 1168.48728865 246.24763244 C1170.51548218 246.1384431 1172.5470586 246.08867816 1174.57810897 246.07063049 C1176.46979811 246.05137764 1176.46979811 246.05137764 1178.3997032 246.03173584 C1179.78826925 246.02354594 1181.17683989 246.01610661 1182.56541365 246.00935119 C1183.27418402 246.00527567 1183.98295439 246.00120014 1184.71320266 245.99700111 C1188.49661895 245.97608317 1192.27999886 245.96183088 1196.06346053 245.95246643 C1199.12942827 245.94376853 1202.1949184 245.92330309 1205.26072615 245.89094299 C1243.69117057 245.49429527 1280.18860895 250.95664431 1316.95139998 262.47907776 C1319.12070242 263.13653073 1321.28688206 263.70758154 1323.48728865 264.24763244 C1323.66509852 247.43523832 1323.83065634 230.62273717 1323.98728865 213.81013244 C1324.00510453 211.89885811 1324.00510453 211.89885811 1324.02328032 209.94897217 C1324.31994497 177.83373397 1324.5313341 145.71977655 1324.5536949 113.60310119 C1324.55461575 112.3216604 1324.5555366 111.04021961 1324.55648535 109.71994728 C1324.56690578 90.73508777 1324.54092247 71.75025055 1324.51791304 52.76540893 C1324.51494252 50.2807143 1324.51197703 47.79601966 1324.50901669 45.31132501 C1324.50183203 39.29009409 1324.49458549 33.26886324 1324.48728865 27.24763244 C1243.96727527 26.60212455 1163.44675384 26.0981463 1082.92527694 25.67512268 C1081.76274598 25.66901284 1080.60021502 25.662903 1079.40245585 25.65660801 C1044.55662989 25.47356329 1009.71078298 25.29464309 974.86493111 25.11660937 C961.6073795 25.04885422 948.34982972 24.98074033 935.09228009 24.91259768 C889.9900275 24.68078155 844.88777193 24.44955392 799.78550489 24.22056616 C797.65298013 24.20973909 795.52045538 24.19891094 793.38793063 24.18808245 C790.54023542 24.17362247 787.69254021 24.15916274 784.844845 24.14470333 C778.42154691 24.1120884 771.99824883 24.07947268 765.57495076 24.04685394 C764.14484177 24.03959173 762.71473277 24.03232985 761.28462378 24.02506828 C715.49962215 23.79258803 669.71464034 23.5564937 623.92967065 23.31781006 C590.81121868 23.14516088 557.69276461 22.97298726 524.57429236 22.80426639 C523.88484511 22.80075384 523.19539787 22.7972413 522.48505828 22.79362231 C507.30797715 22.71630966 492.13089463 22.63927269 476.95381083 22.56248819 C471.51563287 22.53497204 466.07745503 22.50743264 460.63927725 22.47988059 C459.28776238 22.4730333 457.9362475 22.46618702 456.58473261 22.45934178 C437.49908604 22.3626633 418.4134509 22.26394938 399.32782489 22.16328446 C368.39158658 22.00012999 337.45532941 21.84128571 306.51902694 21.69074768 C305.34423522 21.68502273 304.16944351 21.67929779 302.95905204 21.67339936 C204.80164624 21.19613487 106.64564566 21.12107292 8.48728865 21.24763244 Z M1.74558944 276.60163635 C-0.55496828 277.25972021 -2.86289651 277.88520324 -5.1728676 278.50935119 C-35.80493966 286.99884682 -65.45273094 301.06609103 -91.51271135 319.24763244 C-92.45292131 319.89707824 -92.45292131 319.89707824 -93.41212541 320.55964416 C-101.01615725 325.8274502 -108.38908165 331.34237393 -115.51271135 337.24763244 C-116.48337541 338.04427307 -117.45403947 338.84091369 -118.4541176 339.66169494 C-132.56495135 351.34863567 -146.54530691 363.91308993 -158.45802385 377.85700744 C-160.07864831 379.74260093 -161.71973477 381.60039982 -163.37989885 383.45075744 C-171.80365644 392.90331188 -179.3439486 402.81495004 -186.51271135 413.24763244 C-186.98950334 413.9408258 -187.46629533 414.63401916 -187.95753556 415.34821838 C-215.95542316 456.44837259 -233.33283819 503.52471651 -240.26271135 552.68513244 C-240.43625139 553.9064386 -240.43625139 553.9064386 -240.61329728 555.1524176 C-242.62643333 570.60583732 -242.72124503 586.18971989 -242.70021135 601.74763244 C-242.69894243 602.7179541 -242.6976735 603.68827575 -242.69636613 604.6880011 C-242.61616236 636.93455841 -239.85504594 669.49101649 -229.51271135 700.24763244 C-228.98290666 702.06907776 -228.98290666 702.06907776 -228.44239885 703.92731994 C-216.54993987 744.5945398 -195.2318457 781.58673423 -168.51271135 814.24763244 C-168.07539689 814.78936096 -167.63808244 815.33108948 -167.18751603 815.88923401 C-159.49917717 825.34964806 -150.97805335 833.99061256 -142.38771135 842.62263244 C-141.8348546 843.18075622 -141.28199785 843.73888 -140.71238786 844.31391662 C-133.64657668 851.43169866 -126.39541083 858.02494789 -118.51271135 864.24763244 C-117.26904653 865.2716098 -116.02780823 866.29854829 -114.7900551 867.32966369 C-94.96153374 883.62851588 -72.70385504 897.28821093 -49.51271135 908.24763244 C-48.40669572 908.77872619 -47.3006801 909.30981994 -46.16114885 909.85700744 C-11.71765401 926.11500744 23.89873553 933.66366255 61.48728865 938.24763244 C62.20704879 938.33868255 62.92680892 938.42973266 63.66837996 938.52354187 C68.87470235 939.15127094 74.00305307 939.42018389 79.24510115 939.45075744 C80.46534232 939.46114296 80.46534232 939.46114296 81.71023482 939.47173828 C84.34430217 939.4889981 86.97816728 939.49533498 89.61228865 939.49763244 C90.96971678 939.49964157 90.96971678 939.49964157 92.35456771 939.50169128 C109.23973819 939.49630064 125.73266474 938.396375 142.48728865 936.24763244 C143.4431285 936.13016662 144.39896834 936.0127008 145.38377303 935.89167541 C168.79183724 932.96353628 192.78478921 927.65101097 214.48728865 918.24763244 C215.90444901 917.66493333 217.32251528 917.08443533 218.7411949 916.50544494 C229.2363091 912.1975567 239.45408541 907.54253083 249.48728865 902.24763244 C250.18112654 901.88476135 250.87496444 901.52189026 251.58982772 901.14802307 C269.26968524 891.83946193 285.93123597 880.78246829 301.48728865 868.24763244 C302.40252303 867.52446838 303.3177574 866.80130432 304.26072615 866.05622619 C310.52011343 861.04333581 316.42453218 855.71098367 322.27635115 850.23591369 C324.3331187 848.31226024 326.40724049 846.41304827 328.51072615 844.54060119 C333.20571716 840.35369825 337.64604211 836.17064793 341.6943199 831.35310119 C343.80522595 828.87428124 346.02014907 826.50684063 348.23728865 824.12263244 C354.01954474 817.77177326 359.28549367 811.0774 364.48728865 804.24763244 C364.93185408 803.67061584 365.37641951 803.09359924 365.83445662 802.49909729 C387.06849955 774.85682657 404.59168305 742.78806935 414.82029647 709.40095276 C415.29511594 707.86804361 415.78284192 706.33910681 416.27928084 704.81306213 C420.43193799 692.03310586 423.46485574 679.21366638 425.79978865 665.99763244 C425.92280349 665.31099518 426.04581832 664.62435791 426.17256087 663.91691345 C429.55409016 644.83030673 430.82122758 626.00092313 430.74803084 606.62067932 C430.73730051 603.25135575 430.7480007 599.88256511 430.76072615 596.51325744 C430.76918488 583.29837008 430.10794852 570.36101875 428.48728865 557.24763244 C428.37223983 556.230401 428.257191 555.21316955 428.13865584 554.16511291 C424.01299312 518.62784089 413.49902828 484.19455686 397.48728865 452.24763244 C396.8552452 450.96928528 396.8552452 450.96928528 396.21043319 449.66511291 C385.98965534 429.10782018 373.13825035 409.91576807 358.48728865 392.24763244 C357.67904647 391.26536682 356.87080428 390.28310119 356.0380699 389.27106994 C343.02284492 373.58704697 328.95261894 358.53763566 313.48728865 345.24763244 C312.85709822 344.70542053 312.22690779 344.16320862 311.57762069 343.60456604 C295.95269829 330.26779528 279.34856982 318.40164845 261.48728865 308.24763244 C260.75639022 307.82417541 260.02549178 307.40071838 259.2724449 306.96442932 C246.09247926 299.34373371 232.55091062 293.05786285 218.48728865 287.24763244 C217.33228865 286.75649963 216.17728865 286.26536682 214.98728865 285.75935119 C192.37138447 276.52652861 167.82765233 271.14306885 143.67478865 267.99763244 C142.42431746 267.83432434 141.17384627 267.67101623 139.88548201 267.5027594 C124.90473793 265.66239965 109.94500545 265.03517377 94.86228865 265.06013244 C93.74442977 265.06153732 93.74442977 265.06153732 92.60398787 265.06297058 C61.63826082 265.14608411 31.60831691 267.9980021 1.74558944 276.60163635 Z M1129.48728865 272.24763244 C1128.07818221 272.55459045 1128.07818221 272.55459045 1126.64060897 272.86774963 C1101.77191535 278.41901958 1078.34395714 287.04245386 1055.48728865 298.24763244 C1054.59735213 298.67769592 1053.70741561 299.1077594 1052.79051131 299.5508551 C1033.04447774 309.1614966 1014.46860835 321.32017405 997.48728865 335.24763244 C996.96167342 335.67850158 996.43605819 336.10937073 995.89451522 336.55329651 C983.97104906 346.37303684 972.76594145 356.87515843 961.79978865 367.74763244 C960.92064803 368.61372131 960.0415074 369.47981018 959.13572615 370.37214416 C953.89618346 375.60479272 949.07875203 381.02092451 944.45042342 386.8008551 C942.90259047 388.73001588 941.33293537 390.61121122 939.6943199 392.46247619 C922.19405749 412.36081698 908.76934284 435.35589682 897.48728865 459.24763244 C896.93645613 460.40513 896.93645613 460.40513 896.37449569 461.58601135 C890.86592843 473.23368625 886.20129802 484.91099515 882.48728865 497.24763244 C882.23350447 498.08439514 881.97972029 498.92115783 881.71824569 499.78327698 C876.57052639 516.89458878 872.67962594 533.78103565 870.29978865 551.49763244 C870.04914656 553.36246277 870.04914656 553.36246277 869.793441 555.26496643 C867.92129495 569.81892565 867.27888778 584.2186202 867.29978865 598.87263244 C867.30072524 599.72590118 867.30166182 600.57916992 867.30262679 601.45829529 C867.37824683 633.45302426 869.95463712 665.53543216 879.48728865 696.24763244 C879.85064315 697.43163635 880.21399764 698.61564026 880.58836287 699.83552307 C895.3404128 747.55731879 918.88762495 789.81374864 952.9365074 826.47810119 C954.98282375 828.69990562 956.96793288 830.94796982 958.92478865 833.24763244 C966.12483981 841.53807596 974.11727173 849.15514442 982.48728865 856.24763244 C983.50137984 857.13573465 984.51429656 858.02517885 985.52635115 858.91560119 C999.31375787 870.98729482 1013.90853461 881.60603489 1029.48728865 891.24763244 C1030.16340194 891.66754455 1030.83951522 892.08745666 1031.53611678 892.52009338 C1071.38942091 917.08798683 1115.95903834 932.12309661 1162.48728865 937.24763244 C1163.31921736 937.34914612 1164.15114608 937.45065979 1165.00828475 937.55524963 C1199.22858712 941.65418628 1233.59555025 939.94161459 1267.48728865 934.24763244 C1268.55495467 934.07183655 1269.62262069 933.89604065 1270.72264022 933.7149176 C1306.85202531 927.61038319 1341.99630339 913.77336066 1373.48728865 895.24763244 C1374.18080428 894.84222229 1374.8743199 894.43681213 1375.58885115 894.01911682 C1392.00051365 884.34003787 1407.18055399 872.80210134 1421.48728865 860.24763244 C1422.55076522 859.3330426 1422.55076522 859.3330426 1423.63572615 858.39997619 C1435.62185253 848.05276914 1447.19351846 837.29739873 1457.48728865 825.24763244 C1458.37967068 824.22996189 1459.27297563 823.21310023 1460.16697615 822.19685119 C1477.84104296 802.00167805 1492.80769375 779.88979378 1505.48728865 756.24763244 C1505.98228865 755.32724182 1506.47728865 754.40685119 1506.98728865 753.45856994 C1516.52619524 735.42407468 1522.9283774 716.54658808 1528.91502303 697.10572571 C1529.41010952 695.49822591 1529.91105103 693.89253156 1530.4130699 692.28718323 C1554.83589213 612.99128927 1542.47372376 518.87432233 1505.00779647 446.11091369 C1484.14032779 406.81520517 1453.64599377 368.5750372 1418.48728865 341.24763244 C1416.63018319 339.66774707 1414.77619536 338.08419214 1412.92478865 336.49763244 C1366.06339021 297.5369331 1307.6763388 274.64464451 1247.48728865 267.24763244 C1246.77951277 267.16042938 1246.0717369 267.07322632 1245.34251326 266.98338073 C1231.91542106 265.37198081 1218.62865 264.88484584 1205.11228865 264.93513244 C1204.11415145 264.93662292 1203.11601424 264.9381134 1202.08763045 264.93964905 C1177.56808125 265.00511528 1153.48770282 267.00975704 1129.48728865 272.24763244 Z " fill="#020100" transform="translate(1197.5127113461494,192.75236755609512)"/>
<path d="M0 0 C1.28132813 0.19464844 2.56265625 0.38929688 3.8828125 0.58984375 C42.54202833 7.08428458 78.40045962 24.4410318 108 50 C108.79148437 50.680625 109.58296875 51.36125 110.3984375 52.0625 C121.48742548 61.82368036 132.03329827 72.240131 141 84 C141.42877441 84.55768066 141.85754883 85.11536133 142.29931641 85.68994141 C164.82482845 115.11933512 178.78984341 148.47630897 185 185 C185.13132324 185.75845215 185.26264648 186.5169043 185.39794922 187.29833984 C190.25976646 216.89882882 187.51654481 249.13062985 180 278 C179.70351562 279.18078125 179.40703125 280.3615625 179.1015625 281.578125 C174.95100392 297.11611352 168.64625155 311.88015072 161 326 C160.63036133 326.68416992 160.26072266 327.36833984 159.87988281 328.07324219 C141.01494368 362.52851205 112.65691909 389.94555256 80.0625 411.375 C79.19206055 411.95266113 78.32162109 412.53032227 77.42480469 413.12548828 C76.6155957 413.64868652 75.80638672 414.17188477 74.97265625 414.7109375 C74.25343994 415.17806152 73.53422363 415.64518555 72.79321289 416.12646484 C72.20145264 416.41473145 71.60969238 416.70299805 71 417 C70.34 416.67 69.68 416.34 69 416 C69.80050781 415.10474609 69.80050781 415.10474609 70.6171875 414.19140625 C94.92636666 385.88677377 101.22506452 352.34372056 98.79785156 315.97070312 C96.13475861 289.74174991 82.81944048 266.86583249 65 248 C63.98873047 246.89205078 63.98873047 246.89205078 62.95703125 245.76171875 C52.17557527 234.3734266 39.2530283 226.30956776 25 220 C23.88753906 219.50628906 22.77507812 219.01257813 21.62890625 218.50390625 C-5.40199263 207.35407403 -41.8193947 206.97957413 -69.00292969 218.12353516 C-80.904945 223.34703577 -92.06741197 229.57859411 -102 238 C-102.52255371 238.44037598 -103.04510742 238.88075195 -103.58349609 239.33447266 C-126.8924971 259.20206171 -143.71243646 287.66706744 -146.82128906 318.46044922 C-147.18117315 323.57453982 -147.18452573 328.68783582 -147.1875 333.8125 C-147.19974609 334.91142578 -147.21199219 336.01035156 -147.22460938 337.14257812 C-147.27293329 364.47780763 -137.12231998 392.46370303 -119 413 C-117.93652344 414.24330078 -117.93652344 414.24330078 -116.8515625 415.51171875 C-112.26962663 420.76084879 -107.40774551 425.50370194 -102.1640625 430.08984375 C-100.37130383 431.6722607 -98.66556179 433.28608319 -97 435 C-105.27846349 432.95941681 -113.10333635 430.20085437 -121 427 C-122.61841797 426.37158203 -122.61841797 426.37158203 -124.26953125 425.73046875 C-156.20042187 412.83172714 -186.29263082 388.63492169 -207.7265625 361.82421875 C-209.17004604 360.03102528 -210.64131143 358.25957681 -212.1484375 356.51953125 C-249.1603894 313.4279988 -261.57672622 254.24354358 -257.5390625 198.84375 C-252.30018697 138.89557132 -222.8753821 86.42941379 -177.1640625 47.6640625 C-173.86731836 44.97955762 -170.46567517 42.46103392 -167 40 C-166.35579102 39.53803223 -165.71158203 39.07606445 -165.04785156 38.60009766 C-117.48463129 4.66377414 -57.89714918 -9.56927933 0 0 Z " fill="#FEFEFE" transform="translate(1323,579)"/>
<path d="M0 0 C0.91009827 -0.00367584 1.82019653 -0.00735168 2.75787354 -0.01113892 C13.15986227 -0.03306425 23.12813248 0.33305036 33.375 2.3125 C34.3326123 2.47339111 35.29022461 2.63428223 36.27685547 2.80004883 C78.55992574 9.90443413 116.45477141 27.49319967 147.7109375 56.8359375 C149.88660937 58.8584829 152.09664473 60.78418264 154.375 62.6875 C187.72772415 91.84534544 210.65282846 136.14044301 218.375 179.3125 C218.49994843 179.99977173 218.62489685 180.68704346 218.75363159 181.3951416 C221.10102535 194.58210027 221.90625627 207.43113699 221.8125 220.8125 C221.80879395 221.76850098 221.80508789 222.72450195 221.80126953 223.70947266 C221.45571253 286.65320312 196.70689959 340.42020559 152.51660156 384.47583008 C145.8506801 391.00337475 138.91955269 396.84103994 131.375 402.3125 C130.22615255 403.16741814 129.07772016 404.02289429 127.9296875 404.87890625 C121.83822515 409.37147686 115.58256399 413.55133676 109.125 417.5 C108.48054932 417.89912598 107.83609863 418.29825195 107.17211914 418.70947266 C105.610522 419.64285556 103.99623077 420.48703041 102.375 421.3125 C101.715 420.9825 101.055 420.6525 100.375 420.3125 C100.92027344 419.75304687 101.46554687 419.19359375 102.02734375 418.6171875 C116.04949359 403.70816664 126.63238939 384.26499817 131.375 364.3125 C131.67148438 363.10464844 131.96796875 361.89679688 132.2734375 360.65234375 C139.23233446 329.28294106 133.01855679 295.73073253 116.25048828 268.48535156 C98.64387085 241.14699514 71.28191425 220.56051359 39.375 213.3125 C29.92892385 211.41697424 20.68055078 210.95907717 11.0625 211 C10.3814621 211.00182281 9.70042419 211.00364563 8.99874878 211.00552368 C-1.19573537 211.05141986 -10.74940323 211.56557162 -20.625 214.3125 C-21.25792969 214.47347168 -21.89085938 214.63444336 -22.54296875 214.80029297 C-42.75089403 219.96641532 -59.58738917 231.06389961 -74.625 245.3125 C-75.5221875 246.14523437 -76.419375 246.97796875 -77.34375 247.8359375 C-98.18079632 267.79501838 -111.32935949 295.90722026 -112.09375 324.9140625 C-112.14203996 327.92251858 -112.14240073 330.92876663 -112.125 333.9375 C-112.12390228 334.7228714 -112.12280457 335.5082428 -112.12167358 336.31741333 C-112.07017895 349.19254381 -110.8278821 361.06092308 -106.625 373.3125 C-106.21765625 374.54226563 -105.8103125 375.77203125 -105.390625 377.0390625 C-104.25140909 380.19779752 -102.99609997 383.24817416 -101.625 386.3125 C-101.19703125 387.28960938 -100.7690625 388.26671875 -100.328125 389.2734375 C-91.2732161 408.65501218 -76.64884461 423.74608216 -59.625 436.3125 C-62.72336688 437.31205672 -64.51091496 437.31208491 -67.58203125 436.265625 C-68.35305176 436.00362305 -69.12407227 435.74162109 -69.91845703 435.47167969 C-70.74974121 435.17165039 -71.58102539 434.87162109 -72.4375 434.5625 C-73.75016846 434.09312012 -73.75016846 434.09312012 -75.08935547 433.61425781 C-97.75896184 425.25071372 -118.9230911 413.60970241 -137.625 398.3125 C-138.60984375 397.53132813 -139.5946875 396.75015625 -140.609375 395.9453125 C-155.88163842 383.50268165 -170.12339675 369.32911501 -181.625 353.3125 C-182.39714844 352.26191406 -183.16929687 351.21132813 -183.96484375 350.12890625 C-218.19874074 302.31848943 -230.14295956 240.43843698 -220.65234375 182.67578125 C-220.3205637 180.88601035 -219.97789161 179.09822825 -219.625 177.3125 C-219.43695801 176.3539209 -219.24891602 175.3953418 -219.05517578 174.40771484 C-211.57412532 137.96660749 -194.30215798 104.95645265 -169.625 77.3125 C-169.15626465 76.78205078 -168.6875293 76.25160156 -168.20458984 75.70507812 C-143.21767516 47.53032356 -112.20029288 25.11960544 -76.625 12.3125 C-75.19800781 11.78269531 -75.19800781 11.78269531 -73.7421875 11.2421875 C-49.59579287 2.70014817 -25.46243798 0.04982487 0 0 Z " fill="#FEFEFE" transform="translate(2398.625,576.6875)"/>
<path d="M0 0 C2.87545645 0.01077776 5.7502939 -0.00000991 8.62573242 -0.01269531 C66.57563324 -0.05971725 122.44914194 22.02679649 164.6237793 61.85839844 C166.73727276 63.84585789 168.88735977 65.71915211 171.1159668 67.57324219 C181.75801991 76.8464005 190.75374975 87.98974055 199.1784668 99.26074219 C199.78948242 100.07542969 200.40049805 100.89011719 201.0300293 101.72949219 C202.81537017 104.20020088 204.50859077 106.71032228 206.1784668 109.26074219 C206.7653125 110.15575439 206.7653125 110.15575439 207.36401367 111.06884766 C227.48617932 142.0615216 239.73314206 176.02018353 243.88476562 212.71386719 C244.12857562 214.82810315 244.40941037 216.93803076 244.69970703 219.04638672 C245.21589834 223.17531567 245.35578219 227.28227088 245.3815918 231.44042969 C245.38856079 232.20242172 245.39552979 232.96441376 245.40270996 233.74949646 C245.42006644 236.21163491 245.42643575 238.673545 245.4284668 241.13574219 C245.42947388 241.97922211 245.43048096 242.82270203 245.43151855 243.69174194 C245.38545131 300.91064646 225.69828355 355.75446117 188.1784668 399.26074219 C187.55584961 399.99421875 186.93323242 400.72769531 186.29174805 401.48339844 C174.20906455 415.32269997 161.11927638 428.52784499 146.1784668 439.26074219 C145.13819336 440.02257812 144.09791992 440.78441406 143.02612305 441.56933594 C120.44802876 457.67262445 95.02037453 470.11666521 68.1784668 477.26074219 C67.05182617 477.5765625 65.92518555 477.89238281 64.7644043 478.21777344 C53.71243998 481.22048577 42.53632662 482.88215321 31.1784668 484.26074219 C30.46207031 484.35863037 29.74567383 484.45651855 29.00756836 484.55737305 C20.81301195 485.55716601 12.5653027 485.4468081 4.32299805 485.44604492 C1.71215065 485.4482142 -0.89826115 485.4663722 -3.5090332 485.48535156 C-56.75558463 485.66724151 -106.18886846 467.01413959 -147.8215332 434.26074219 C-149.36647461 433.05611328 -149.36647461 433.05611328 -150.94262695 431.82714844 C-158.41439462 425.75451542 -165.24644498 419.04197946 -172.0715332 412.26074219 C-172.99466309 411.34695801 -173.91779297 410.43317383 -174.86889648 409.49169922 C-191.06953034 393.21540226 -204.33021859 374.64654735 -214.8215332 354.26074219 C-215.22968262 353.49020508 -215.63783203 352.71966797 -216.05834961 351.92578125 C-227.9379159 329.37175489 -235.70948067 304.54849841 -238.8215332 279.26074219 C-238.93432617 278.41447266 -239.04711914 277.56820313 -239.16333008 276.69628906 C-242.46857345 251.21266706 -242.18448894 224.57603189 -237.8215332 199.26074219 C-237.67167969 198.37757324 -237.52182617 197.4944043 -237.36743164 196.58447266 C-236.354241 190.76884442 -235.17184045 185.00728349 -233.8215332 179.26074219 C-233.65991699 178.57061035 -233.49830078 177.88047852 -233.33178711 177.16943359 C-224.80266571 142.16184575 -205.54429133 109.03338744 -181.13012695 82.75292969 C-179.102127 80.56365055 -177.13942138 78.33774224 -175.1965332 76.07324219 C-169.24992374 69.24926412 -162.74635422 63.07846016 -155.8215332 57.26074219 C-155.28560547 56.80570313 -154.74967773 56.35066406 -154.19750977 55.88183594 C-126.89748162 32.78976237 -95.05972204 14.8980659 -60.04467773 6.78710938 C-57.88478338 6.27571774 -55.74283042 5.71774741 -53.59887695 5.14355469 C-36.04475601 0.54038109 -18.06962662 -0.08024772 0 0 Z M-78.8215332 34.26074219 C-79.90519165 34.71670776 -79.90519165 34.71670776 -81.01074219 35.18188477 C-104.79640841 45.27980504 -125.55712782 57.95417119 -144.8215332 75.26074219 C-145.42594238 75.8034375 -146.03035156 76.34613281 -146.65307617 76.90527344 C-164.27817506 92.83573773 -180.19303995 110.40005972 -191.8215332 131.26074219 C-192.45140137 132.38125977 -192.45140137 132.38125977 -193.09399414 133.52441406 C-222.54689321 186.41003127 -227.88817586 249.52282417 -211.59350586 307.58056641 C-205.62048653 328.31801301 -196.40573262 348.68427353 -183.8215332 366.26074219 C-183.10610352 367.26621094 -182.39067383 368.27167969 -181.65356445 369.30761719 C-179.43328341 372.34134633 -177.15047248 375.30971563 -174.8215332 378.26074219 C-173.6787793 379.71287109 -173.6787793 379.71287109 -172.51293945 381.19433594 C-160.00896931 396.50731029 -145.80792986 410.6175885 -129.8215332 422.26074219 C-128.9759082 422.92460938 -128.1302832 423.58847656 -127.2590332 424.27246094 C-110.28075769 437.35103879 -90.10995575 447.08720031 -70.0090332 454.32324219 C-68.7269397 454.79080933 -68.7269397 454.79080933 -67.41894531 455.26782227 C-66.21637085 455.68390747 -66.21637085 455.68390747 -64.98950195 456.10839844 C-64.28075928 456.355979 -63.5720166 456.60355957 -62.84179688 456.85864258 C-60.51680231 457.32139376 -59.05289182 456.99450685 -56.8215332 456.26074219 C-57.73032227 455.55111328 -57.73032227 455.55111328 -58.6574707 454.82714844 C-85.43403643 433.69425887 -100.34236034 410.35905003 -107.8215332 377.26074219 C-108.00184082 376.5138916 -108.18214844 375.76704102 -108.36791992 374.99755859 C-108.95242146 371.47104499 -109.0034589 367.9893528 -109.0246582 364.42480469 C-109.03035828 363.66839691 -109.03605835 362.91198914 -109.04193115 362.13265991 C-109.05135569 360.53067407 -109.05790499 358.92866906 -109.06176758 357.32666016 C-109.07136407 354.92801756 -109.10236413 352.53027377 -109.1340332 350.13183594 C-109.34959616 318.89419755 -97.14757791 291.76770794 -75.8215332 269.26074219 C-74.98879883 268.36355469 -74.15606445 267.46636719 -73.2980957 266.54199219 C-58.10844044 250.68417027 -39.083992 239.66837873 -17.8215332 234.26074219 C-16.6768457 233.94234375 -15.5321582 233.62394531 -14.3527832 233.29589844 C3.93303551 228.98283033 27.14994641 229.09856281 45.1784668 234.26074219 C45.87617188 234.45410156 46.57387695 234.64746094 47.29272461 234.84667969 C64.52311348 239.72022486 79.53740358 247.69815083 93.1784668 259.26074219 C93.68716309 259.68581055 94.19585938 260.11087891 94.7199707 260.54882812 C117.41209702 279.66631521 131.5467001 306.080612 136.1784668 335.26074219 C136.45110352 336.57945312 136.45110352 336.57945312 136.72924805 337.92480469 C140.89479835 368.85854344 132.90327371 400.89595497 114.9675293 426.40527344 C113.0917548 428.7446014 111.15233575 431.00428943 109.1784668 433.26074219 C107.99797582 434.79184907 106.83028024 436.33294696 105.6784668 437.88574219 C105.1937793 438.53800781 104.7090918 439.19027344 104.2097168 439.86230469 C103.8694043 440.32378906 103.5290918 440.78527344 103.1784668 441.26074219 C116.47461389 436.40301613 128.18451129 426.94686133 139.1784668 418.26074219 C140.00096924 417.61613037 140.00096924 417.61613037 140.84008789 416.95849609 C156.29616133 404.73506547 170.82137627 390.39573132 182.1784668 374.26074219 C182.6636377 373.57157715 183.14880859 372.88241211 183.64868164 372.17236328 C218.22239651 322.55136168 232.57344253 261.82320867 222.01538086 201.828125 C221.45074711 198.95925234 220.83221066 196.110548 220.1784668 193.26074219 C219.96416016 192.31199219 219.74985352 191.36324219 219.52905273 190.38574219 C208.86934351 144.70570731 182.17178147 102.36041469 146.1784668 72.26074219 C145.63641602 71.80634766 145.09436523 71.35195313 144.53588867 70.88378906 C108.43151422 40.80341562 61.36909071 20.32142715 13.82299805 20.05761719 C12.96712097 20.05051224 12.1112439 20.04340729 11.22943115 20.03608704 C-19.84645024 19.83675636 -49.82461834 21.80287643 -78.8215332 34.26074219 Z " fill="#030201" transform="translate(2395.821533203125,556.7392578125)"/>
<path d="M0 0 C1.72695602 0.00081573 1.72695602 0.00081573 3.48880005 0.00164795 C20.11747637 0.03779756 36.27265023 0.36780128 52.5 4.375 C53.88106934 4.71241211 53.88106934 4.71241211 55.29003906 5.05664062 C61.43570853 6.60639958 67.47728114 8.40413083 73.5 10.375 C74.63405273 10.74262451 74.63405273 10.74262451 75.79101562 11.11767578 C110.69082119 22.56965325 141.13653505 41.90901471 167.5 67.375 C168.12084473 67.97393066 168.74168945 68.57286133 169.38134766 69.18994141 C177.27980455 76.85114803 184.8582538 84.57581583 191.5 93.375 C191.98146484 94.00712402 192.46292969 94.63924805 192.95898438 95.29052734 C225.1473843 137.78277853 241.9314805 187.28766821 241.81567383 240.58447266 C241.8125183 243.60746544 241.83605983 246.62947119 241.86132812 249.65234375 C242.04333372 306.1257523 219.80613861 361.6050903 181.58203125 403.109375 C179.6755956 405.18392036 177.8323439 407.29765931 176 409.4375 C169.65782671 416.68154197 162.83424571 423.10891337 155.31640625 429.12109375 C153.45264501 430.61261974 151.60577932 432.12552955 149.77734375 433.66015625 C107.80143189 468.87160461 53.87838361 485.58332366 -0.3125 485.625 C-1.22285004 485.62600708 -2.13320007 485.62701416 -3.07113647 485.62805176 C-17.09970949 485.61756944 -30.68109281 484.9492179 -44.5 482.375 C-46.20572417 482.08200219 -47.91145338 481.78903363 -49.6171875 481.49609375 C-84.37064352 475.26632355 -116.32126131 460.51261014 -144.5 439.375 C-145.09973633 438.93220703 -145.69947266 438.48941406 -146.31738281 438.03320312 C-163.13682487 425.57088673 -178.45651382 410.71587948 -191.5 394.375 C-192.36499989 393.32348966 -193.23090715 392.2727252 -194.09765625 391.22265625 C-234.0106867 342.36035336 -249.42311353 278.54627093 -243.1875 216.44140625 C-238.22330117 170.9436375 -222.27503196 129.18251864 -193.5 93.375 C-193.07831543 92.84745117 -192.65663086 92.31990234 -192.22216797 91.77636719 C-185.60513406 83.57716261 -178.36002952 76.03415065 -170.9375 68.5625 C-170.07535889 67.69109375 -169.21321777 66.8196875 -168.32495117 65.921875 C-154.42450501 52.0885426 -138.47916383 40.1730121 -121.5 30.375 C-120.41074219 29.74207031 -119.32148437 29.10914063 -118.19921875 28.45703125 C-81.48068667 7.71415386 -41.71786161 -0.07409457 0 0 Z M-64.5 28.375 C-65.2621582 28.60058594 -66.02431641 28.82617188 -66.80957031 29.05859375 C-110.96646172 42.37903649 -152.04904556 71.14394843 -179.5 108.375 C-179.88768555 108.8915918 -180.27537109 109.40818359 -180.67480469 109.94042969 C-217.43718349 159.06183389 -229.67420502 219.03655853 -221.20751953 279.46240234 C-215.10932425 320.20715867 -196.85533257 357.7681795 -169.5 388.375 C-168.79762207 389.16197266 -168.79762207 389.16197266 -168.08105469 389.96484375 C-160.0043213 398.97202563 -151.81301799 407.50294696 -142.35546875 415.08203125 C-140.46561313 416.59960341 -138.59271325 418.13855816 -136.73828125 419.69921875 C-116.67320312 436.55846414 -90.07291608 451.05801051 -64.5 457.375 C-63.84 457.045 -63.18 456.715 -62.5 456.375 C-63.35722656 455.66214844 -64.21445313 454.94929688 -65.09765625 454.21484375 C-90.21417595 433.23235253 -108.99479468 405.31943269 -112.32348633 371.92993164 C-112.6771888 366.81029628 -112.68452271 361.69237131 -112.6875 356.5625 C-112.69974609 355.46357422 -112.71199219 354.36464844 -112.72460938 353.23242188 C-112.73784684 345.74443173 -111.93807484 338.71660443 -110.5 331.375 C-110.21769531 329.71791016 -110.21769531 329.71791016 -109.9296875 328.02734375 C-103.76555045 297.85779974 -83.66025502 270.55739244 -58.5 253.3125 C-29.93177136 234.46035067 4.17632698 228.71870068 37.6953125 235.53125 C38.95085937 235.8096875 40.20640625 236.088125 41.5 236.375 C42.50804687 236.5915625 43.51609375 236.808125 44.5546875 237.03125 C63.61284011 241.67149585 80.25415931 252.20027516 94.5 265.375 C95.01691406 265.84808594 95.53382813 266.32117188 96.06640625 266.80859375 C111.27819429 280.87663833 122.56100589 298.31096946 128.9375 318.0625 C129.17243164 318.78526123 129.40736328 319.50802246 129.64941406 320.25268555 C133.1201743 331.81802994 133.85330145 343.70308846 133.81567383 355.70629883 C133.81250681 357.80798012 133.83612078 359.90825581 133.86132812 362.00976562 C133.98287037 387.68514438 124.18841196 412.2376354 108.5 432.375 C107.49253173 433.76545258 106.49141472 435.1605558 105.5 436.5625 C104.84 437.490625 104.18 438.41875 103.5 439.375 C106.99414867 438.07948608 109.98469713 436.55927836 113.08984375 434.50390625 C113.94940674 433.93551025 114.80896973 433.36711426 115.69458008 432.78149414 C117.05232544 431.86871704 117.05232544 431.86871704 118.4375 430.9375 C119.37682373 430.30642334 120.31614746 429.67534668 121.28393555 429.02514648 C150.01304362 409.5482441 173.47519562 385.04894889 191.5 355.375 C191.84514648 354.81103516 192.19029297 354.24707031 192.54589844 353.66601562 C219.48973576 309.29090702 227.70598491 253.12916658 218.5 202.375 C218.32839355 201.42189941 218.15678711 200.46879883 217.97998047 199.48681641 C211.54335783 164.89931693 196.79135361 132.62827141 174.5 105.375 C173.83991943 104.56047363 173.83991943 104.56047363 173.16650391 103.72949219 C160.86530577 88.64436184 147.21470589 74.88340446 131.5 63.375 C130.36032863 62.51738995 129.22100752 61.65931424 128.08203125 60.80078125 C116.73295558 52.35652852 104.55374918 45.72386755 91.8125 39.625 C91.07749268 39.27236084 90.34248535 38.91972168 89.58520508 38.55639648 C78.53789391 33.38172475 67.3505877 29.55858609 55.5 26.6875 C54.33210938 26.39294922 53.16421875 26.09839844 51.9609375 25.79492188 C34.69262421 21.53527697 17.60533736 20.13920526 -0.125 20.125 C-1.270186 20.12398788 -1.270186 20.12398788 -2.43850708 20.12295532 C-23.63498222 20.15247188 -44.13619785 22.29932705 -64.5 28.375 Z " fill="#020201" transform="translate(1288.5,556.625)"/>
<path d="M0 0 C2.08236793 -0.00963279 4.16371517 -0.04069945 6.24584961 -0.07226562 C30.9738402 -0.2675391 53.23699953 8.60035356 71.54858398 25.24023438 C72.06807617 25.71058105 72.58756836 26.18092773 73.12280273 26.66552734 C92.17118384 44.13596951 105.22070228 67.55506667 106.68920898 93.74853516 C107.16840738 107.45121318 106.49458389 120.08257816 102.54858398 133.24023438 C102.18635742 134.47 101.82413086 135.69976563 101.45092773 136.96679688 C93.03138139 162.71063011 73.43303996 184.02562527 49.61108398 196.49023438 C22.7598826 209.21107912 -5.37207581 211.03815836 -33.5168457 201.54345703 C-59.4346187 192.26271368 -80.37119987 170.90572191 -92.47094727 146.59960938 C-102.91004689 124.43950261 -104.76694644 93.49926211 -96.45141602 70.24023438 C-86.9341773 44.5424728 -68.17638969 21.35255638 -43.23364258 9.15576172 C-28.8531216 2.650876 -15.77922272 0.0439074 0 0 Z " fill="#F79220" transform="translate(1296.451416015625,809.759765625)"/>
<path d="M0 0 C2.35256179 -0.00434096 4.70319253 -0.04065425 7.05541992 -0.07861328 C20.56612561 -0.18064543 33.3045411 1.94766011 45.5065918 8.05810547 C46.55991699 8.5729248 46.55991699 8.5729248 47.63452148 9.09814453 C73.84578519 22.28118357 92.86119108 44.7553967 102.20825195 72.43896484 C110.5172255 98.71418414 106.67648993 128.75043042 94.1315918 152.93310547 C80.70728145 177.78734895 58.61633241 195.16912581 31.8815918 203.74560547 C29.87456919 204.33639342 27.85123292 204.87303879 25.8190918 205.37060547 C24.74208008 205.63442017 24.74208008 205.63442017 23.64331055 205.90356445 C-2.28364926 211.72522306 -30.18146231 205.97910018 -52.58325195 192.11279297 C-56.6340123 189.39604242 -60.45090953 186.51200506 -64.1809082 183.37060547 C-65.36426758 182.40574219 -65.36426758 182.40574219 -66.5715332 181.42138672 C-85.96097884 164.92816331 -98.08068269 141.5280426 -100.9074707 116.30029297 C-101.41662798 108.98297553 -101.41042993 101.69903541 -101.1809082 94.37060547 C-101.15125977 93.36126953 -101.12161133 92.35193359 -101.09106445 91.31201172 C-99.70775443 68.60548372 -88.66212416 48.50844722 -73.1809082 32.37060547 C-72.35977539 31.47470703 -71.53864258 30.57880859 -70.69262695 29.65576172 C-58.16902587 16.42712828 -42.03882977 6.36610225 -24.1809082 2.37060547 C-22.94856445 2.02255859 -21.7162207 1.67451172 -20.4465332 1.31591797 C-13.72698374 -0.16136554 -6.84663045 -0.00140805 0 0 Z " fill="#F79220" transform="translate(2407.180908203125,807.62939453125)"/>
</svg>
