<?xml version="1.0" encoding="UTF-8"?>
<svg version="1.1" xmlns="http://www.w3.org/2000/svg" width="4000" height="2250">
<path d="M0 0 C1.06749481 0.00215515 2.13498962 0.0043103 3.23483276 0.00653076 C57.47539958 0.18142696 110.17089121 11.27035633 159 35.3125 C159.85174805 35.73144531 160.70349609 36.15039062 161.58105469 36.58203125 C179.22823346 45.36033573 195.62098003 55.83771793 211.18603516 67.91162109 C212.89816595 69.23385615 214.62322279 70.53631333 216.35546875 71.83203125 C229.80988824 81.93520437 242.17886822 93.14886903 254.02734375 105.07910156 C255.88838841 106.95096625 257.76003428 108.81175727 259.6328125 110.671875 C266.54793409 117.579021 272.96487607 124.61415294 279 132.3125 C280.0004738 133.5327702 281.0039712 134.75057357 282.01171875 135.96484375 C294.83236519 151.62461578 305.97321119 168.13592616 315.67431641 185.89599609 C316.86977377 188.07511893 318.09162422 190.23628973 319.32421875 192.39453125 C324.3444429 201.34042802 328.39050534 210.65923234 332.3125 220.125 C332.81652344 221.34123047 333.32054687 222.55746094 333.83984375 223.81054688 C336.09946145 229.35386036 338.20412493 234.86482432 340.08830261 240.54716492 C340.44680392 241.62703517 340.80530523 242.70690542 341.17467022 243.81949902 C341.44702905 244.64218934 341.71938787 245.46487967 342 246.3125 C343.96734384 246.30696924 343.96734384 246.30696924 345.97443199 246.30132675 C377.31193807 246.2141507 408.64941143 246.14846862 439.98701098 246.10823868 C443.86845675 246.10323758 447.74990226 246.09806012 451.63134766 246.09277344 C452.7901337 246.09119957 452.7901337 246.09119957 453.97232957 246.08959392 C466.3791266 246.0723253 478.78584729 246.04086506 491.19259946 246.00388882 C503.98227784 245.96609749 516.77191707 245.94418492 529.56164896 245.93614602 C536.72050657 245.93121381 543.87920547 245.91953765 551.03800583 245.88957977 C582.91717847 245.76018969 614.34340982 246.30957832 646 250.3125 C646.78885637 250.41097386 647.57771274 250.50944773 648.39047384 250.61090565 C670.83497817 253.41660643 692.94166323 257.30239276 715 262.3125 C715.71524841 262.47407593 716.43049683 262.63565186 717.16741943 262.80212402 C789.68376716 279.2438508 858.64550131 308.85424541 921 349.3125 C921.65226562 349.73450684 922.30453125 350.15651367 922.9765625 350.59130859 C933.57456186 357.47401137 943.81910651 364.83018366 954 372.3125 C955.03906494 373.07481934 955.03906494 373.07481934 956.09912109 373.85253906 C965.70115304 380.91657886 975.02230061 388.27915533 984.22363281 395.85644531 C985.80432998 397.15211297 987.39742145 398.43262633 988.9921875 399.7109375 C995.24232082 404.72916049 1001.13466306 410.05181761 1006.98828125 415.51953125 C1009.40653176 417.7748045 1011.86854061 419.96760265 1014.375 422.125 C1017.60164419 424.907297 1020.59813957 427.86312848 1023.5546875 430.9296875 C1024.97109777 432.42104485 1024.97109777 432.42104485 1027 433.3125 C1027 433.9725 1027 434.6325 1027 435.3125 C1027.58031982 435.56757324 1028.16063965 435.82264648 1028.75854492 436.08544922 C1031.23265718 437.43986466 1032.87721002 438.94662266 1034.86328125 440.9453125 C1035.58580078 441.66976563 1036.30832031 442.39421875 1037.05273438 443.140625 C1037.79845703 443.89859375 1038.54417969 444.6565625 1039.3125 445.4375 C1040.04662109 446.17226563 1040.78074219 446.90703125 1041.53710938 447.6640625 C1045.68571785 451.84580094 1049.65064862 456.13259958 1053.49682617 460.59326172 C1055.24614886 462.59403001 1057.0884024 464.46681956 1059 466.3125 C1062.2177599 469.48702704 1065.22437296 472.77446715 1068.16796875 476.203125 C1070.15311587 478.48879546 1072.2003983 480.70951378 1074.25 482.9375 C1078.34152276 487.46665593 1082.11355036 492.18842752 1085.84936523 497.00952148 C1088.75309266 500.75079484 1091.73786509 504.39612466 1094.8125 508 C1101.62649964 516.12064617 1107.80012672 524.7193254 1114 533.3125 C1114.53447754 534.05226074 1115.06895508 534.79202148 1115.61962891 535.55419922 C1167.50729774 607.59779338 1203.05906503 689.63723121 1235 864.3125 C1235.05951843 864.98063721 1235.11903687 865.64877441 1235.18035889 866.3371582 C1238.74659328 906.63897241 1238.62473763 948.01982971 1235 988.3125 C1234.93683594 989.02464661 1234.87367187 989.73679321 1234.80859375 990.47052002 C1228.53031127 1060.59916613 1212.87683716 1129.51535037 1185 1194.3125 C1184.6376123 1195.16424805 1184.27522461 1196.01599609 1183.90185547 1196.89355469 C1167.68814764 1234.82026679 1147.46014569 1271.40525818 1124 1305.3125 C1123.5771875 1305.92544922 1123.154375 1306.53839844 1122.71875 1307.16992188 C1111.64853546 1323.17560706 1099.80044322 1338.51014807 1087.44873047 1353.54345703 C1086.13621968 1355.14616232 1084.83501751 1356.75811218 1083.53515625 1358.37109375 C1078.98118228 1364.01353953 1074.23977621 1369.42816965 1069.33203125 1374.765625 C1067.37594748 1376.90191749 1065.45812303 1379.06030657 1063.5625 1381.25 C1054.81821407 1391.28199496 1045.64232007 1400.83210206 1036.21948242 1410.22338867 C1034.30074495 1412.13672194 1032.38747246 1414.05540504 1030.47460938 1415.97460938 C1024.48384941 1421.96861726 1018.46821932 1427.82987671 1012 1433.3125 C1010.22429779 1434.93217817 1008.45291693 1436.55661718 1006.6875 1438.1875 C1002.20337072 1442.27687787 997.59732762 1446.15869021 992.875 1449.96875 C990.30624533 1452.06284348 987.77927658 1454.19463341 985.26196289 1456.34960938 C978.91584392 1461.77859348 972.42266017 1466.95963851 965.75390625 1471.98828125 C963.89393043 1473.39258371 962.04071191 1474.80553609 960.1875 1476.21875 C940.03177663 1491.53104237 918.87277108 1505.57306745 897 1518.3125 C895.87102295 1518.97451416 895.87102295 1518.97451416 894.71923828 1519.64990234 C818.18294736 1564.43553136 733.22925202 1591.74296173 608 1606.3125 C606.79384033 1606.40748779 605.58768066 1606.50247559 604.3449707 1606.6003418 C590.67347145 1607.57594831 576.97610802 1607.49979505 563.27709961 1607.49780273 C559.70577936 1607.49770248 556.13466408 1607.51124366 552.56339169 1607.52857494 C549.71496318 1607.54004162 546.86657849 1607.54171164 544.01812935 1607.54119301 C542.09613159 1607.54285521 540.17414743 1607.55347096 538.25218201 1607.56474304 C530.25195456 1607.54527141 522.33055747 1607.15180912 514.34925175 1606.59028149 C495.29836731 1605.25398796 476.33726816 1605.0449153 457.2448101 1605.10971212 C452.81803944 1605.12249598 448.39126382 1605.12341115 443.96447754 1605.12576294 C435.63922323 1605.13189863 427.31402351 1605.14819828 418.9887929 1605.16846192 C409.48642557 1605.19107239 399.98405519 1605.20187654 390.48166752 1605.21185279 C370.98774777 1605.23257482 351.49387832 1605.26759093 332 1605.3125 C331.80183685 1605.91822845 331.60367371 1606.52395691 331.39950562 1607.14804077 C331.13537872 1607.9491629 330.87125183 1608.75028503 330.59912109 1609.57568359 C330.33908295 1610.36703705 330.0790448 1611.1583905 329.81112671 1611.97372437 C322.186114 1633.95943108 308.51762446 1654.57587335 295 1673.3125 C294.57203125 1673.90627441 294.1440625 1674.50004883 293.703125 1675.11181641 C288.41056624 1682.40412038 282.77225957 1689.3971252 277 1696.3125 C276.22269531 1697.27671875 275.44539063 1698.2409375 274.64453125 1699.234375 C267.7362465 1707.67476028 260.12552019 1715.40279451 252.4375 1723.125 C251.90697021 1723.66070618 251.37644043 1724.19641235 250.82983398 1724.74835205 C243.88787151 1731.74361946 236.72859239 1738.17751437 229 1744.3125 C227.9723462 1745.17576474 226.9489423 1746.04417022 225.93359375 1746.921875 C155.85498183 1807.0205907 62.40901464 1832.34965206 -28.7671814 1825.65356445 C-73.51378779 1822.11062202 -116.6915407 1811.15930437 -157 1791.3125 C-157.85174805 1790.89355469 -158.70349609 1790.47460938 -159.58105469 1790.04296875 C-187.51488834 1776.14773369 -213.54382094 1757.98058775 -236.375 1736.7265625 C-238.4689565 1734.80087036 -240.59083962 1732.93727102 -242.74609375 1731.08203125 C-247.38136963 1727.0393487 -251.72591378 1722.73365536 -256.0625 1718.375 C-256.82626953 1717.61509766 -257.59003906 1716.85519531 -258.37695312 1716.07226562 C-263.12504521 1711.3160502 -267.65080934 1706.43519368 -272 1701.3125 C-272.54309814 1700.67610596 -273.08619629 1700.03971191 -273.64575195 1699.3840332 C-295.56369705 1673.52600289 -313.59798638 1645.49592843 -327.60389709 1614.59838867 C-328.05295945 1613.60836349 -328.50202181 1612.61833832 -328.96469212 1611.59831238 C-329.30634372 1610.84399429 -329.64799532 1610.08967621 -330 1609.3125 C-330.54613754 1609.31401888 -331.09227508 1609.31553776 -331.65496224 1609.31710267 C-364.01324779 1609.40658722 -396.37150063 1609.47523215 -428.72988136 1609.51676132 C-432.61394781 1609.52176423 -436.498014 1609.52694151 -440.38208008 1609.53222656 C-441.54196659 1609.53380043 -441.54196659 1609.53380043 -442.72528515 1609.53540608 C-455.25084128 1609.55281811 -467.77632408 1609.58436017 -480.30183669 1609.62111118 C-493.15122727 1609.65849845 -506.0005794 1609.68073116 -518.85002214 1609.68885398 C-526.78081739 1609.69434637 -534.71140539 1609.71170235 -542.64213685 1609.74416587 C-548.72029635 1609.76778087 -554.79827703 1609.77032546 -560.87648773 1609.76493073 C-563.37225179 1609.76603376 -565.8680235 1609.77402456 -568.36374092 1609.7893219 C-571.76481434 1609.809151 -575.16499275 1609.80446428 -578.56608582 1609.79351807 C-580.05587292 1609.81099512 -580.05587292 1609.81099512 -581.57575673 1609.82882524 C-585.91639913 1609.79092627 -588.32836782 1609.72662931 -592.08961964 1607.40743637 C-595.08073911 1604.12735398 -595.13656318 1602.21761107 -595.19478029 1597.86074698 C-595.21260681 1596.68763744 -595.23043334 1595.51452791 -595.24880006 1594.30586959 C-595.26340311 1592.99794527 -595.27800616 1591.69002094 -595.29305172 1590.34246254 C-595.31190144 1588.93691769 -595.3310794 1587.5313772 -595.35055552 1586.12584089 C-595.40325211 1582.19704657 -595.44873953 1578.26819701 -595.49248199 1574.33929387 C-595.52129574 1571.7822654 -595.55177068 1569.22526141 -595.58266675 1566.66825731 C-596.1834737 1516.58193222 -596.37099215 1466.49180884 -596.60328528 1416.40272719 C-596.65129261 1406.06305446 -596.70092123 1395.72339031 -596.75151634 1385.38372993 C-596.75520468 1384.62980858 -596.75889302 1383.87588722 -596.76269312 1383.09911976 C-596.78151932 1379.25216104 -596.80036722 1375.40520242 -596.81922253 1371.55824384 C-596.95433019 1343.98351667 -597.08646413 1316.40877594 -597.21690559 1288.83402634 C-597.34586673 1261.57374781 -597.47609269 1234.3134758 -597.60796928 1207.05321121 C-597.61209171 1206.20093004 -597.61621414 1205.34864886 -597.62046149 1204.47054099 C-597.65812569 1196.68378166 -597.69580353 1188.89702239 -597.73349839 1181.11026321 C-597.82714309 1161.76551421 -597.92058539 1142.42076423 -598.01388454 1123.07601357 C-598.01812996 1122.1957926 -598.02237537 1121.31557163 -598.02674943 1120.40867729 C-598.23242988 1077.76008949 -598.43575206 1035.11149048 -598.63891602 992.46289062 C-598.92127568 933.1897698 -599.20534182 873.91665751 -599.49145508 814.64355469 C-599.50037716 812.79510787 -599.50929919 810.94666105 -599.51822117 809.09821424 C-599.56271428 799.880252 -599.60721096 790.66228978 -599.65170934 781.44432757 C-599.65829788 780.07949081 -599.65829788 780.07949081 -599.66501951 778.68708159 C-599.68716402 774.09980886 -599.70930939 769.51253614 -599.73145619 764.92526342 C-600.01360031 706.48399279 -600.29458599 648.04271659 -600.57520913 589.60143863 C-600.57927371 588.75497054 -600.58333828 587.90850244 -600.58752603 587.0363838 C-600.62104157 580.05657768 -600.62104157 580.05657768 -600.6367111 576.79323168 C-600.69411033 564.83944601 -600.75155501 552.88566055 -600.8090345 540.93187526 C-600.98559049 504.21341276 -601.1617374 467.49494837 -601.33653194 430.77647744 C-601.3509816 427.74139061 -601.36543266 424.70630378 -601.37988472 421.67121696 C-601.38520394 420.55402889 -601.38520394 420.55402889 -601.39063061 419.41427136 C-601.44658233 407.66499795 -601.50297262 395.91572669 -601.55954577 384.16645626 C-601.61527667 372.5898805 -601.67050274 361.01330243 -601.72524147 349.43672193 C-601.75447877 343.25594719 -601.78391757 337.0751736 -601.81394983 330.89440267 C-601.81955839 329.73564964 -601.82516696 328.57689661 -601.83094547 327.38302985 C-601.84195319 325.11009442 -601.85301896 322.83715927 -601.86414641 320.56422442 C-601.88958131 315.28925894 -601.912801 310.01430449 -601.93031529 304.73930635 C-601.9368674 302.80223532 -601.9434599 300.86516442 -601.95009625 298.92809367 C-601.95475596 297.54913058 -601.95475596 297.54913058 -601.95950981 296.14230964 C-601.97896487 291.21766816 -602.01886931 286.29407243 -602.08911471 281.36989226 C-602.11771943 279.32439935 -602.14059812 277.27893232 -602.16133761 275.2333462 C-602.18675878 272.90695469 -602.22337136 270.58063818 -602.2749739 268.25468012 C-602.32160074 262.85816262 -602.18305825 258.91363736 -599 254.3125 C-593.91998042 250.92582028 -588.87277439 251.16202165 -582.91894531 251.15428162 C-582.10929542 251.14934364 -581.29964552 251.14440566 -580.46546078 251.13931805 C-577.75301754 251.12396658 -575.04059798 251.11558727 -572.328125 251.10717773 C-570.38071995 251.09759401 -568.43331697 251.08758363 -566.48591614 251.07717896 C-561.18378638 251.05009448 -555.88164778 251.02908262 -550.57948685 251.00917697 C-544.98844095 250.98720695 -539.39742132 250.95984306 -533.80639648 250.93312073 C-524.37403555 250.88879663 -514.94166478 250.84806346 -505.50927734 250.80981445 C-492.37224355 250.75653349 -479.23524644 250.6966209 -466.09824753 250.63541877 C-456.86381828 250.59266844 -447.62938134 250.55161391 -438.39494324 250.5108273 C-436.19447305 250.50109848 -433.99400308 250.49132282 -431.79353333 250.48149753 C-401.52883983 250.34660379 -371.26499594 250.28619661 -341 250.3125 C-340.85201965 249.21617249 -340.70403931 248.11984497 -340.55157471 246.99029541 C-336.51506712 220.07562931 -319.41399893 191.84385622 -305 169.3125 C-304.29359375 168.20132813 -303.5871875 167.09015625 -302.859375 165.9453125 C-293.44539665 151.51819933 -283.00153719 137.637431 -271.37109375 124.9296875 C-270.0962761 123.52255764 -268.82707919 122.10967717 -267.59521484 120.66479492 C-262.47435812 114.67490189 -256.96410875 109.09047704 -251.39501953 103.5222168 C-249.76172552 101.88674118 -248.1366153 100.24342292 -246.51171875 98.59960938 C-239.99566282 92.04905182 -233.23999226 86.06841263 -226 80.3125 C-224.8862012 79.36628387 -223.77814777 78.41319892 -222.6796875 77.44921875 C-214.22999674 70.0704498 -205.30035875 63.5765053 -196 57.3125 C-194.93797363 56.59175293 -194.93797363 56.59175293 -193.85449219 55.85644531 C-164.64709307 36.20299269 -131.94804373 21.48898395 -98 12.3125 C-97.16436523 12.08369141 -96.32873047 11.85488281 -95.46777344 11.61914062 C-84.29162661 8.61238238 -72.97520479 6.50704699 -61.5625 4.625 C-60.35013672 4.42245605 -59.13777344 4.21991211 -57.88867188 4.01123047 C-38.64076738 0.96339139 -19.47068868 -0.07135405 0 0 Z M3 330.3125 C4 332.3125 4 332.3125 4 332.3125 Z M2 333.3125 C3 337.3125 3 337.3125 3 337.3125 Z M1 338.3125 C2 342.3125 2 342.3125 2 342.3125 Z M0 342.3125 C-0.76262664 347.03867412 -1.11892423 351.55454713 -1.09765625 356.33984375 C-1.09443359 357.62568359 -1.09121094 358.91152344 -1.08789062 360.23632812 C-1.07953802 361.57421945 -1.07107311 362.91211007 -1.0625 364.25 C-1.05747659 365.61523274 -1.05291517 366.98046726 -1.04882812 368.34570312 C-1.03708851 371.66801457 -1.02066679 374.99023408 -1 378.3125 C-0.67 378.3125 -0.34 378.3125 0 378.3125 C0.33 366.4325 0.66 354.5525 1 342.3125 C0.67 342.3125 0.34 342.3125 0 342.3125 Z M0 378.3125 C0 380.6225 0 382.9325 0 385.3125 C0.33 385.3125 0.66 385.3125 1 385.3125 C1 383.0025 1 380.6925 1 378.3125 C0.67 378.3125 0.34 378.3125 0 378.3125 Z M1 385.3125 C1 386.9625 1 388.6125 1 390.3125 C1.33 390.3125 1.66 390.3125 2 390.3125 C2 388.6625 2 387.0125 2 385.3125 C1.67 385.3125 1.34 385.3125 1 385.3125 Z M2 391.3125 C3 394.3125 3 394.3125 3 394.3125 Z M3 395.3125 C4 398.3125 4 398.3125 4 398.3125 Z M4 399.3125 C5 401.3125 5 401.3125 5 401.3125 Z M3 1444.3125 C4 1446.3125 4 1446.3125 4 1446.3125 Z M2 1448.3125 C3 1451.3125 3 1451.3125 3 1451.3125 Z M1 1453.3125 C1 1454.9625 1 1456.6125 1 1458.3125 C1.33 1458.3125 1.66 1458.3125 2 1458.3125 C2 1456.6625 2 1455.0125 2 1453.3125 C1.67 1453.3125 1.34 1453.3125 1 1453.3125 Z M0 1459.3125 C0 1462.6125 0 1465.9125 0 1469.3125 C0.33 1469.3125 0.66 1469.3125 1 1469.3125 C1 1466.0125 1 1462.7125 1 1459.3125 C0.67 1459.3125 0.34 1459.3125 0 1459.3125 Z M-1 1470.3125 C-1 1473.9425 -1 1477.5725 -1 1481.3125 C-0.67 1481.3125 -0.34 1481.3125 0 1481.3125 C0 1477.6825 0 1474.0525 0 1470.3125 C-0.33 1470.3125 -0.66 1470.3125 -1 1470.3125 Z M0 1482.3125 C0 1485.6125 0 1488.9125 0 1492.3125 C0.33 1492.3125 0.66 1492.3125 1 1492.3125 C1 1489.0125 1 1485.7125 1 1482.3125 C0.67 1482.3125 0.34 1482.3125 0 1482.3125 Z M1 1494.3125 C2 1498.3125 2 1498.3125 2 1498.3125 Z M2 1500.3125 C3 1503.3125 3 1503.3125 3 1503.3125 Z M3 1505.3125 C4 1507.3125 4 1507.3125 4 1507.3125 Z " fill="#F79220" transform="translate(1590,216.6875)"/>
<path d="M0 0 C0.9271582 0.24476074 1.85431641 0.48952148 2.80957031 0.74169922 C48.28430614 12.82225802 92.54350746 36.86571188 127 69 C128.26617356 70.10950705 129.53689849 71.21384529 130.8125 72.3125 C146.10608254 85.71346355 160.45746778 99.95231568 173 116 C174.06439532 117.32348706 175.12956424 118.64635216 176.1953125 119.96875 C189.18651752 136.21953352 200.43803033 153.52072829 210 172 C210.4729248 172.91313965 210.94584961 173.8262793 211.43310547 174.76708984 C223.76662584 198.86822549 233.38527166 224.43737162 238.5625 251.0625 C238.77229492 252.12742676 238.98208984 253.19235352 239.19824219 254.28955078 C242.61736778 272.00947212 245.12586623 289.76426462 245.203125 307.83203125 C245.21018463 308.93406891 245.21724426 310.03610657 245.22451782 311.17153931 C245.45714971 358.19169084 245.45714971 358.19169084 242 380 C241.80132324 381.25635254 241.60264648 382.51270508 241.39794922 383.80712891 C238.44365017 401.98971694 234.01608084 419.58579102 228 437 C227.68836914 437.90862793 227.37673828 438.81725586 227.05566406 439.75341797 C213.25719831 479.36012523 190.91681636 515.79760218 163 547 C162.33677734 547.74934814 161.67355469 548.49869629 160.99023438 549.27075195 C155.54578433 555.38502205 149.91644225 561.27664364 144.125 567.0625 C143.24585938 567.94083496 142.36671875 568.81916992 141.4609375 569.72412109 C135.56062442 575.56879143 129.56572 580.91519161 123 586 C121.12210881 587.60078117 119.24728283 589.20516285 117.375 590.8125 C76.30563332 625.07243801 25.6762121 647.59711257 -26.6875 657.3125 C-27.97970459 657.55508545 -29.27190918 657.7976709 -30.60327148 658.04760742 C-50.31372837 661.53070334 -70.01429902 662.38082878 -90 662.3125 C-91.11318604 662.31067719 -92.22637207 662.30885437 -93.37329102 662.30697632 C-111.08457084 662.25831373 -128.46227333 661.66669186 -146 659 C-147.13646973 658.82839355 -148.27293945 658.65678711 -149.44384766 658.47998047 C-221.20450101 647.21926373 -282.88004841 611.01374072 -333.8125 560.3125 C-334.51793945 559.6117334 -335.22337891 558.9109668 -335.95019531 558.18896484 C-340.50326113 553.62193257 -344.82000354 548.90984672 -349 544 C-349.54938232 543.35732178 -350.09876465 542.71464355 -350.66479492 542.05249023 C-388.27288078 497.74942367 -413.51576016 444.78787192 -423.6875 387.5625 C-423.89020508 386.43287842 -424.09291016 385.30325684 -424.30175781 384.1394043 C-427.54918634 364.99773775 -428.3771035 345.9523987 -428.3125 326.5625 C-428.31067719 325.42347229 -428.30885437 324.28444458 -428.30697632 323.11090088 C-428.10315333 247.28476487 -404.75084669 173.25583113 -355 115 C-353.75996216 113.51149536 -353.75996216 113.51149536 -352.49487305 111.99291992 C-345.21989156 103.30605301 -337.48976348 95.17823222 -329.4543457 87.19360352 C-327.42877518 85.17882165 -325.41421616 83.15346725 -323.40039062 81.12695312 C-316.24094288 73.95978733 -309.00606805 67.22320062 -301 61 C-299.80702614 60.03579048 -298.61540549 59.06990169 -297.42578125 58.1015625 C-269.66553877 36.01875983 -239.12988118 19.61609242 -206 7 C-205.2584668 6.71543945 -204.51693359 6.43087891 -203.75292969 6.13769531 C-191.54802808 1.53054702 -178.70072585 -1.14457703 -166 -4 C-165.12150391 -4.20012695 -164.24300781 -4.40025391 -163.33789062 -4.60644531 C-157.58400942 -5.90095523 -151.81340668 -7.00824918 -146 -8 C-144.72914551 -8.22647217 -144.72914551 -8.22647217 -143.43261719 -8.45751953 C-96.87493448 -16.38241338 -45.43162796 -12.430735 0 0 Z M-89 298 C-88 300 -88 300 -88 300 Z M-90 301 C-89 305 -89 305 -89 305 Z M-91 306 C-90 310 -90 310 -90 310 Z M-92 310 C-92.76262664 314.72617412 -93.11892423 319.24204713 -93.09765625 324.02734375 C-93.09443359 325.31318359 -93.09121094 326.59902344 -93.08789062 327.92382812 C-93.07953802 329.26171945 -93.07107311 330.59961007 -93.0625 331.9375 C-93.05747659 333.30273274 -93.05291517 334.66796726 -93.04882812 336.03320312 C-93.03708851 339.35551457 -93.02066679 342.67773408 -93 346 C-92.67 346 -92.34 346 -92 346 C-91.67 334.12 -91.34 322.24 -91 310 C-91.33 310 -91.66 310 -92 310 Z M-92 346 C-92 348.31 -92 350.62 -92 353 C-91.67 353 -91.34 353 -91 353 C-91 350.69 -91 348.38 -91 346 C-91.33 346 -91.66 346 -92 346 Z M-91 353 C-91 354.65 -91 356.3 -91 358 C-90.67 358 -90.34 358 -90 358 C-90 356.35 -90 354.7 -90 353 C-90.33 353 -90.66 353 -91 353 Z M-90 359 C-89 362 -89 362 -89 362 Z M-89 363 C-88 366 -88 366 -88 366 Z M-88 367 C-87 369 -87 369 -87 369 Z " fill="#F79220" transform="translate(1682,249)"/>
<path d="M0 0 C2.85486406 0.01606009 5.70940278 0.00588768 8.5642767 -0.00373173 C25.54622185 -0.04932701 42.14681668 0.79128503 58.94989014 3.44952393 C59.94966385 3.60357697 60.94943756 3.75763 61.97950745 3.91635132 C121.88400901 13.18646474 177.78834666 40.06426627 222.94989014 80.44952393 C224.03910767 81.40955322 224.03910767 81.40955322 225.15032959 82.38897705 C231.45769038 87.98992853 237.50175492 93.81514276 243.46380615 99.77813721 C245.0091208 101.32125923 246.5622946 102.85616698 248.11590576 104.39093018 C254.51258945 110.7517934 260.34241528 117.370433 265.94989014 124.44952393 C266.92618594 125.62357947 267.90606629 126.79467439 268.89129639 127.96124268 C282.53771539 144.37631507 294.11619269 162.52437976 303.94989014 181.44952393 C304.29954834 182.11322998 304.64920654 182.77693604 305.00946045 183.46075439 C321.24257269 214.38277936 331.61382158 247.32732859 336.82489014 281.82452393 C336.92843811 282.5062265 337.03198608 283.18792908 337.13867188 283.89028931 C339.65311654 300.68705414 340.16208625 317.19494193 340.19012451 334.14874268 C340.19975474 337.65029355 340.23082811 341.15123689 340.26239014 344.65264893 C340.46418436 387.74755732 331.79919874 432.06231345 313.94989014 471.44952393 C313.53626221 472.36733643 313.12263428 473.28514893 312.69647217 474.23077393 C304.8224706 491.53804226 295.80019232 507.82757834 284.94989014 523.44952393 C283.83033936 525.07567627 283.83033936 525.07567627 282.68817139 526.73468018 C273.24837178 540.29450675 262.74158235 552.88890602 251.4039917 564.89385986 C249.92910139 566.47176467 248.47935504 568.06947051 247.03582764 569.67608643 C242.60649692 574.60185332 238.17497042 579.36264125 233.08660889 583.62530518 C230.94330332 585.4551474 228.88649083 587.36267448 226.83172607 589.29083252 C210.24736247 604.79500912 191.41240499 617.83040256 171.94989014 629.44952393 C171.32856201 629.82141846 170.70723389 630.19331299 170.06707764 630.57647705 C151.34385944 641.68114726 131.6281129 650.66918436 110.94989014 657.44952393 C110.03223877 657.75342041 109.1145874 658.05731689 108.16912842 658.37042236 C47.30102619 678.1977861 -26.51698004 680.80132432 -87.95733643 662.07745361 C-90.03050553 661.45540614 -92.11102093 660.8729171 -94.19854736 660.30108643 C-122.67296362 652.42297479 -150.43122619 639.78494376 -175.05010986 623.44952393 C-175.81968018 622.94598389 -176.58925049 622.44244385 -177.38214111 621.92364502 C-188.15994918 614.8479879 -198.38202328 607.29083884 -208.23272705 598.97442627 C-209.89841953 597.57680197 -211.58257319 596.20697313 -213.27667236 594.84405518 C-221.62106879 588.03167767 -229.23395582 580.47741713 -236.86260986 572.88702393 C-237.39876923 572.35613159 -237.93492859 571.82523926 -238.48733521 571.27825928 C-245.482258 564.33650995 -251.91363698 557.17625349 -258.05010986 549.44952393 C-258.92491861 548.40999292 -259.80504284 547.37486452 -260.69464111 546.34796143 C-271.05242107 534.2918788 -280.02318465 521.15603221 -288.05010986 507.44952393 C-288.38542725 506.88572021 -288.72074463 506.3219165 -289.06622314 505.74102783 C-305.09023728 478.70655674 -316.87884609 450.02621159 -324.05010986 419.44952393 C-324.24443604 418.63757568 -324.43876221 417.82562744 -324.63897705 416.98907471 C-330.51700647 392.32289367 -333.40268966 367.95019603 -333.25592041 342.58770752 C-333.23759298 339.32151469 -333.23541222 336.05560683 -333.23565674 332.78936768 C-333.20849323 315.38957471 -332.50709953 298.3999917 -329.80010986 281.19952393 C-329.68895844 280.48452728 -329.57780701 279.76953064 -329.46328735 279.03286743 C-321.20796988 226.25521339 -299.96756493 176.57075285 -267.05010986 134.44952393 C-265.95376221 133.03219971 -265.95376221 133.03219971 -264.83526611 131.58624268 C-260.89081772 126.56390541 -256.7324071 121.77725134 -252.42120361 117.06671143 C-251.13527923 115.64732207 -249.85535881 114.22191812 -248.61016846 112.7666626 C-243.75555882 107.1019844 -238.57288116 101.78613225 -233.29962158 96.51373291 C-231.81117749 95.02310777 -230.3309371 93.52465375 -228.85089111 92.0256958 C-222.57708754 85.71560153 -216.01866741 79.99696633 -209.05010986 74.44952393 C-207.23502956 72.89002208 -205.42194661 71.32818581 -203.61260986 69.76202393 C-176.30261724 47.07965521 -144.46033818 30.24529774 -111.17364502 18.22491455 C-109.43909948 17.59156014 -107.71713395 16.92384328 -105.99932861 16.24639893 C-90.75684959 10.27267464 -74.1051609 7.3725485 -58.05010986 4.44952393 C-57.11319305 4.27662338 -56.17627625 4.10372284 -55.21096802 3.92558289 C-36.72403209 0.60204645 -18.70517119 -0.14930743 0 0 Z M5.94989014 312.44952393 C6.94989014 314.44952393 6.94989014 314.44952393 6.94989014 314.44952393 Z M4.94989014 316.44952393 C5.94989014 319.44952393 5.94989014 319.44952393 5.94989014 319.44952393 Z M3.94989014 321.44952393 C3.94989014 323.09952393 3.94989014 324.74952393 3.94989014 326.44952393 C4.27989014 326.44952393 4.60989014 326.44952393 4.94989014 326.44952393 C4.94989014 324.79952393 4.94989014 323.14952393 4.94989014 321.44952393 C4.61989014 321.44952393 4.28989014 321.44952393 3.94989014 321.44952393 Z M2.94989014 327.44952393 C2.94989014 330.74952393 2.94989014 334.04952393 2.94989014 337.44952393 C3.27989014 337.44952393 3.60989014 337.44952393 3.94989014 337.44952393 C3.94989014 334.14952393 3.94989014 330.84952393 3.94989014 327.44952393 C3.61989014 327.44952393 3.28989014 327.44952393 2.94989014 327.44952393 Z M1.94989014 338.44952393 C1.94989014 342.07952393 1.94989014 345.70952393 1.94989014 349.44952393 C2.27989014 349.44952393 2.60989014 349.44952393 2.94989014 349.44952393 C2.94989014 345.81952393 2.94989014 342.18952393 2.94989014 338.44952393 C2.61989014 338.44952393 2.28989014 338.44952393 1.94989014 338.44952393 Z M2.94989014 350.44952393 C2.94989014 353.74952393 2.94989014 357.04952393 2.94989014 360.44952393 C3.27989014 360.44952393 3.60989014 360.44952393 3.94989014 360.44952393 C3.94989014 357.14952393 3.94989014 353.84952393 3.94989014 350.44952393 C3.61989014 350.44952393 3.28989014 350.44952393 2.94989014 350.44952393 Z M3.94989014 362.44952393 C4.94989014 366.44952393 4.94989014 366.44952393 4.94989014 366.44952393 Z M4.94989014 368.44952393 C5.94989014 371.44952393 5.94989014 371.44952393 5.94989014 371.44952393 Z M5.94989014 373.44952393 C6.94989014 375.44952393 6.94989014 375.44952393 6.94989014 375.44952393 Z " fill="#F79220" transform="translate(1587.0501098632813,1348.5504760742188)"/>
<path d="M0 0 C1.06749481 0.00215515 2.13498962 0.0043103 3.23483276 0.00653076 C57.47539958 0.18142696 110.17089121 11.27035633 159 35.3125 C159.85174805 35.73144531 160.70349609 36.15039062 161.58105469 36.58203125 C179.22823346 45.36033573 195.62098003 55.83771793 211.18603516 67.91162109 C212.89816595 69.23385615 214.62322279 70.53631333 216.35546875 71.83203125 C229.80988824 81.93520437 242.17886822 93.14886903 254.02734375 105.07910156 C255.88838841 106.95096625 257.76003428 108.81175727 259.6328125 110.671875 C266.54793409 117.579021 272.96487607 124.61415294 279 132.3125 C280.0004738 133.5327702 281.0039712 134.75057357 282.01171875 135.96484375 C294.83236519 151.62461578 305.97321119 168.13592616 315.67431641 185.89599609 C316.86977377 188.07511893 318.09162422 190.23628973 319.32421875 192.39453125 C324.3444429 201.34042802 328.39050534 210.65923234 332.3125 220.125 C332.81652344 221.34123047 333.32054687 222.55746094 333.83984375 223.81054688 C336.09946145 229.35386036 338.20412493 234.86482432 340.08830261 240.54716492 C340.44680392 241.62703517 340.80530523 242.70690542 341.17467022 243.81949902 C341.44702905 244.64218934 341.71938787 245.46487967 342 246.3125 C343.96734384 246.30696924 343.96734384 246.30696924 345.97443199 246.30132675 C377.31193807 246.2141507 408.64941143 246.14846862 439.98701098 246.10823868 C443.86845675 246.10323758 447.74990226 246.09806012 451.63134766 246.09277344 C452.7901337 246.09119957 452.7901337 246.09119957 453.97232957 246.08959392 C466.3791266 246.0723253 478.78584729 246.04086506 491.19259946 246.00388882 C503.98227784 245.96609749 516.77191707 245.94418492 529.56164896 245.93614602 C536.72050657 245.93121381 543.87920547 245.91953765 551.03800583 245.88957977 C582.91717847 245.76018969 614.34340982 246.30957832 646 250.3125 C646.78885637 250.41097386 647.57771274 250.50944773 648.39047384 250.61090565 C670.83497817 253.41660643 692.94166323 257.30239276 715 262.3125 C715.71524841 262.47407593 716.43049683 262.63565186 717.16741943 262.80212402 C789.68376716 279.2438508 858.64550131 308.85424541 921 349.3125 C921.65226562 349.73450684 922.30453125 350.15651367 922.9765625 350.59130859 C933.57456186 357.47401137 943.81910651 364.83018366 954 372.3125 C955.03906494 373.07481934 955.03906494 373.07481934 956.09912109 373.85253906 C965.70115304 380.91657886 975.02230061 388.27915533 984.22363281 395.85644531 C985.80432998 397.15211297 987.39742145 398.43262633 988.9921875 399.7109375 C995.24232082 404.72916049 1001.13466306 410.05181761 1006.98828125 415.51953125 C1009.40653176 417.7748045 1011.86854061 419.96760265 1014.375 422.125 C1017.60164419 424.907297 1020.59813957 427.86312848 1023.5546875 430.9296875 C1024.97109777 432.42104485 1024.97109777 432.42104485 1027 433.3125 C1027 433.9725 1027 434.6325 1027 435.3125 C1027.58031982 435.56757324 1028.16063965 435.82264648 1028.75854492 436.08544922 C1031.23265718 437.43986466 1032.87721002 438.94662266 1034.86328125 440.9453125 C1035.58580078 441.66976563 1036.30832031 442.39421875 1037.05273438 443.140625 C1037.79845703 443.89859375 1038.54417969 444.6565625 1039.3125 445.4375 C1040.04662109 446.17226563 1040.78074219 446.90703125 1041.53710938 447.6640625 C1045.68571785 451.84580094 1049.65064862 456.13259958 1053.49682617 460.59326172 C1055.24614886 462.59403001 1057.0884024 464.46681956 1059 466.3125 C1062.2177599 469.48702704 1065.22437296 472.77446715 1068.16796875 476.203125 C1070.15311587 478.48879546 1072.2003983 480.70951378 1074.25 482.9375 C1078.34152276 487.46665593 1082.11355036 492.18842752 1085.84936523 497.00952148 C1088.75309266 500.75079484 1091.73786509 504.39612466 1094.8125 508 C1101.62649964 516.12064617 1107.80012672 524.7193254 1114 533.3125 C1114.53447754 534.05226074 1115.06895508 534.79202148 1115.61962891 535.55419922 C1167.50729774 607.59779338 1203.05906503 689.63723121 1235 864.3125 C1235.05951843 864.98063721 1235.11903687 865.64877441 1235.18035889 866.3371582 C1238.74659328 906.63897241 1238.62473763 948.01982971 1235 988.3125 C1234.93683594 989.02464661 1234.87367187 989.73679321 1234.80859375 990.47052002 C1228.53031127 1060.59916613 1212.87683716 1129.51535037 1185 1194.3125 C1184.6376123 1195.16424805 1184.27522461 1196.01599609 1183.90185547 1196.89355469 C1167.68814764 1234.82026679 1147.46014569 1271.40525818 1124 1305.3125 C1123.5771875 1305.92544922 1123.154375 1306.53839844 1122.71875 1307.16992188 C1111.64853546 1323.17560706 1099.80044322 1338.51014807 1087.44873047 1353.54345703 C1086.13621968 1355.14616232 1084.83501751 1356.75811218 1083.53515625 1358.37109375 C1078.98118228 1364.01353953 1074.23977621 1369.42816965 1069.33203125 1374.765625 C1067.37594748 1376.90191749 1065.45812303 1379.06030657 1063.5625 1381.25 C1054.81821407 1391.28199496 1045.64232007 1400.83210206 1036.21948242 1410.22338867 C1034.30074495 1412.13672194 1032.38747246 1414.05540504 1030.47460938 1415.97460938 C1024.48384941 1421.96861726 1018.46821932 1427.82987671 1012 1433.3125 C1010.22429779 1434.93217817 1008.45291693 1436.55661718 1006.6875 1438.1875 C1002.20337072 1442.27687787 997.59732762 1446.15869021 992.875 1449.96875 C990.30624533 1452.06284348 987.77927658 1454.19463341 985.26196289 1456.34960938 C978.91584392 1461.77859348 972.42266017 1466.95963851 965.75390625 1471.98828125 C963.89393043 1473.39258371 962.04071191 1474.80553609 960.1875 1476.21875 C940.03177663 1491.53104237 918.87277108 1505.57306745 897 1518.3125 C895.87102295 1518.97451416 895.87102295 1518.97451416 894.71923828 1519.64990234 C818.18294736 1564.43553136 733.22925202 1591.74296173 608 1606.3125 C606.79384033 1606.40748779 605.58768066 1606.50247559 604.3449707 1606.6003418 C590.67347145 1607.57594831 576.97610802 1607.49979505 563.27709961 1607.49780273 C559.70577936 1607.49770248 556.13466408 1607.51124366 552.56339169 1607.52857494 C549.71496318 1607.54004162 546.86657849 1607.54171164 544.01812935 1607.54119301 C542.09613159 1607.54285521 540.17414743 1607.55347096 538.25218201 1607.56474304 C530.25195456 1607.54527141 522.33055747 1607.15180912 514.34925175 1606.59028149 C495.29836731 1605.25398796 476.33726816 1605.0449153 457.2448101 1605.10971212 C452.81803944 1605.12249598 448.39126382 1605.12341115 443.96447754 1605.12576294 C435.63922323 1605.13189863 427.31402351 1605.14819828 418.9887929 1605.16846192 C409.48642557 1605.19107239 399.98405519 1605.20187654 390.48166752 1605.21185279 C370.98774777 1605.23257482 351.49387832 1605.26759093 332 1605.3125 C331.80183685 1605.91822845 331.60367371 1606.52395691 331.39950562 1607.14804077 C331.13537872 1607.9491629 330.87125183 1608.75028503 330.59912109 1609.57568359 C330.33908295 1610.36703705 330.0790448 1611.1583905 329.81112671 1611.97372437 C322.186114 1633.95943108 308.51762446 1654.57587335 295 1673.3125 C294.57203125 1673.90627441 294.1440625 1674.50004883 293.703125 1675.11181641 C288.41056624 1682.40412038 282.77225957 1689.3971252 277 1696.3125 C276.22269531 1697.27671875 275.44539063 1698.2409375 274.64453125 1699.234375 C267.7362465 1707.67476028 260.12552019 1715.40279451 252.4375 1723.125 C251.90697021 1723.66070618 251.37644043 1724.19641235 250.82983398 1724.74835205 C243.88787151 1731.74361946 236.72859239 1738.17751437 229 1744.3125 C227.9723462 1745.17576474 226.9489423 1746.04417022 225.93359375 1746.921875 C155.85498183 1807.0205907 62.40901464 1832.34965206 -28.7671814 1825.65356445 C-73.51378779 1822.11062202 -116.6915407 1811.15930437 -157 1791.3125 C-157.85174805 1790.89355469 -158.70349609 1790.47460938 -159.58105469 1790.04296875 C-187.51488834 1776.14773369 -213.54382094 1757.98058775 -236.375 1736.7265625 C-238.4689565 1734.80087036 -240.59083962 1732.93727102 -242.74609375 1731.08203125 C-247.38136963 1727.0393487 -251.72591378 1722.73365536 -256.0625 1718.375 C-256.82626953 1717.61509766 -257.59003906 1716.85519531 -258.37695312 1716.07226562 C-263.12504521 1711.3160502 -267.65080934 1706.43519368 -272 1701.3125 C-272.54309814 1700.67610596 -273.08619629 1700.03971191 -273.64575195 1699.3840332 C-295.56369705 1673.52600289 -313.59798638 1645.49592843 -327.60389709 1614.59838867 C-328.05295945 1613.60836349 -328.50202181 1612.61833832 -328.96469212 1611.59831238 C-329.30634372 1610.84399429 -329.64799532 1610.08967621 -330 1609.3125 C-330.54613754 1609.31401888 -331.09227508 1609.31553776 -331.65496224 1609.31710267 C-364.01324779 1609.40658722 -396.37150063 1609.47523215 -428.72988136 1609.51676132 C-432.61394781 1609.52176423 -436.498014 1609.52694151 -440.38208008 1609.53222656 C-441.54196659 1609.53380043 -441.54196659 1609.53380043 -442.72528515 1609.53540608 C-455.25084128 1609.55281811 -467.77632408 1609.58436017 -480.30183669 1609.62111118 C-493.15122727 1609.65849845 -506.0005794 1609.68073116 -518.85002214 1609.68885398 C-526.78081739 1609.69434637 -534.71140539 1609.71170235 -542.64213685 1609.74416587 C-548.72029635 1609.76778087 -554.79827703 1609.77032546 -560.87648773 1609.76493073 C-563.37225179 1609.76603376 -565.8680235 1609.77402456 -568.36374092 1609.7893219 C-571.76481434 1609.809151 -575.16499275 1609.80446428 -578.56608582 1609.79351807 C-580.05587292 1609.81099512 -580.05587292 1609.81099512 -581.57575673 1609.82882524 C-585.91639913 1609.79092627 -588.32836782 1609.72662931 -592.08961964 1607.40743637 C-595.08073911 1604.12735398 -595.13656318 1602.21761107 -595.19478029 1597.86074698 C-595.21260681 1596.68763744 -595.23043334 1595.51452791 -595.24880006 1594.30586959 C-595.26340311 1592.99794527 -595.27800616 1591.69002094 -595.29305172 1590.34246254 C-595.31190144 1588.93691769 -595.3310794 1587.5313772 -595.35055552 1586.12584089 C-595.40325211 1582.19704657 -595.44873953 1578.26819701 -595.49248199 1574.33929387 C-595.52129574 1571.7822654 -595.55177068 1569.22526141 -595.58266675 1566.66825731 C-596.1834737 1516.58193222 -596.37099215 1466.49180884 -596.60328528 1416.40272719 C-596.65129261 1406.06305446 -596.70092123 1395.72339031 -596.75151634 1385.38372993 C-596.75520468 1384.62980858 -596.75889302 1383.87588722 -596.76269312 1383.09911976 C-596.78151932 1379.25216104 -596.80036722 1375.40520242 -596.81922253 1371.55824384 C-596.95433019 1343.98351667 -597.08646413 1316.40877594 -597.21690559 1288.83402634 C-597.34586673 1261.57374781 -597.47609269 1234.3134758 -597.60796928 1207.05321121 C-597.61209171 1206.20093004 -597.61621414 1205.34864886 -597.62046149 1204.47054099 C-597.65812569 1196.68378166 -597.69580353 1188.89702239 -597.73349839 1181.11026321 C-597.82714309 1161.76551421 -597.92058539 1142.42076423 -598.01388454 1123.07601357 C-598.01812996 1122.1957926 -598.02237537 1121.31557163 -598.02674943 1120.40867729 C-598.23242988 1077.76008949 -598.43575206 1035.11149048 -598.63891602 992.46289062 C-598.92127568 933.1897698 -599.20534182 873.91665751 -599.49145508 814.64355469 C-599.50037716 812.79510787 -599.50929919 810.94666105 -599.51822117 809.09821424 C-599.56271428 799.880252 -599.60721096 790.66228978 -599.65170934 781.44432757 C-599.65829788 780.07949081 -599.65829788 780.07949081 -599.66501951 778.68708159 C-599.68716402 774.09980886 -599.70930939 769.51253614 -599.73145619 764.92526342 C-600.01360031 706.48399279 -600.29458599 648.04271659 -600.57520913 589.60143863 C-600.57927371 588.75497054 -600.58333828 587.90850244 -600.58752603 587.0363838 C-600.62104157 580.05657768 -600.62104157 580.05657768 -600.6367111 576.79323168 C-600.69411033 564.83944601 -600.75155501 552.88566055 -600.8090345 540.93187526 C-600.98559049 504.21341276 -601.1617374 467.49494837 -601.33653194 430.77647744 C-601.3509816 427.74139061 -601.36543266 424.70630378 -601.37988472 421.67121696 C-601.38520394 420.55402889 -601.38520394 420.55402889 -601.39063061 419.41427136 C-601.44658233 407.66499795 -601.50297262 395.91572669 -601.55954577 384.16645626 C-601.61527667 372.5898805 -601.67050274 361.01330243 -601.72524147 349.43672193 C-601.75447877 343.25594719 -601.78391757 337.0751736 -601.81394983 330.89440267 C-601.81955839 329.73564964 -601.82516696 328.57689661 -601.83094547 327.38302985 C-601.84195319 325.11009442 -601.85301896 322.83715927 -601.86414641 320.56422442 C-601.88958131 315.28925894 -601.912801 310.01430449 -601.93031529 304.73930635 C-601.9368674 302.80223532 -601.9434599 300.86516442 -601.95009625 298.92809367 C-601.95475596 297.54913058 -601.95475596 297.54913058 -601.95950981 296.14230964 C-601.97896487 291.21766816 -602.01886931 286.29407243 -602.08911471 281.36989226 C-602.11771943 279.32439935 -602.14059812 277.27893232 -602.16133761 275.2333462 C-602.18675878 272.90695469 -602.22337136 270.58063818 -602.2749739 268.25468012 C-602.32160074 262.85816262 -602.18305825 258.91363736 -599 254.3125 C-593.91998042 250.92582028 -588.87277439 251.16202165 -582.91894531 251.15428162 C-582.10929542 251.14934364 -581.29964552 251.14440566 -580.46546078 251.13931805 C-577.75301754 251.12396658 -575.04059798 251.11558727 -572.328125 251.10717773 C-570.38071995 251.09759401 -568.43331697 251.08758363 -566.48591614 251.07717896 C-561.18378638 251.05009448 -555.88164778 251.02908262 -550.57948685 251.00917697 C-544.98844095 250.98720695 -539.39742132 250.95984306 -533.80639648 250.93312073 C-524.37403555 250.88879663 -514.94166478 250.84806346 -505.50927734 250.80981445 C-492.37224355 250.75653349 -479.23524644 250.6966209 -466.09824753 250.63541877 C-456.86381828 250.59266844 -447.62938134 250.55161391 -438.39494324 250.5108273 C-436.19447305 250.50109848 -433.99400308 250.49132282 -431.79353333 250.48149753 C-401.52883983 250.34660379 -371.26499594 250.28619661 -341 250.3125 C-340.85201965 249.21617249 -340.70403931 248.11984497 -340.55157471 246.99029541 C-336.51506712 220.07562931 -319.41399893 191.84385622 -305 169.3125 C-304.29359375 168.20132813 -303.5871875 167.09015625 -302.859375 165.9453125 C-293.44539665 151.51819933 -283.00153719 137.637431 -271.37109375 124.9296875 C-270.0962761 123.52255764 -268.82707919 122.10967717 -267.59521484 120.66479492 C-262.47435812 114.67490189 -256.96410875 109.09047704 -251.39501953 103.5222168 C-249.76172552 101.88674118 -248.1366153 100.24342292 -246.51171875 98.59960938 C-239.99566282 92.04905182 -233.23999226 86.06841263 -226 80.3125 C-224.8862012 79.36628387 -223.77814777 78.41319892 -222.6796875 77.44921875 C-214.22999674 70.0704498 -205.30035875 63.5765053 -196 57.3125 C-194.93797363 56.59175293 -194.93797363 56.59175293 -193.85449219 55.85644531 C-164.64709307 36.20299269 -131.94804373 21.48898395 -98 12.3125 C-97.16436523 12.08369141 -96.32873047 11.85488281 -95.46777344 11.61914062 C-84.29162661 8.61238238 -72.97520479 6.50704699 -61.5625 4.625 C-60.35013672 4.42245605 -59.13777344 4.21991211 -57.88867188 4.01123047 C-38.64076738 0.96339139 -19.47068868 -0.07135405 0 0 Z M-76.76367188 28.73095703 C-79.33093598 29.39855781 -81.90702599 30.02483455 -84.484375 30.65234375 C-143.67708154 45.29209226 -195.04136203 76.8210976 -237.80639648 119.8581543 C-239.82117835 121.88372482 -241.84653275 123.89828384 -243.87304688 125.91210938 C-251.04109195 133.07254511 -257.7678705 140.31237846 -264 148.3125 C-264.92801287 149.44775234 -265.85856451 150.58093994 -266.79296875 151.7109375 C-322.95499473 221.52409215 -344.33668176 311.25460193 -334.875 399.625 C-334.34759722 403.87281835 -333.70294013 408.09043823 -333 412.3125 C-332.80132324 413.54049316 -332.60264648 414.76848633 -332.39794922 416.03369141 C-329.3735574 434.23667889 -325.03036273 451.85695053 -319 469.3125 C-318.68836914 470.22112793 -318.37673828 471.12975586 -318.05566406 472.06591797 C-299.07279723 526.55377646 -262.35080175 580.45597782 -216.578125 616.29296875 C-213.79423539 618.47368228 -211.12313649 620.76209825 -208.4375 623.0625 C-180.36243568 646.36264928 -148.21041039 663.86891236 -114 676.3125 C-113.21705566 676.59963867 -112.43411133 676.88677734 -111.62744141 677.18261719 C-90.04213822 685.00864664 -67.77641006 689.64806756 -45 692.3125 C-44.26490204 692.39970306 -43.52980408 692.48690613 -42.77243042 692.57675171 C-28.14968926 694.26912364 -13.64930322 694.67493498 1.0625 694.625 C2.18140625 694.62317719 3.3003125 694.62135437 4.453125 694.61947632 C21.48055264 694.5728562 38.15947702 694.03556926 55 691.3125 C56.65781494 691.05509033 56.65781494 691.05509033 58.34912109 690.79248047 C104.2692074 683.50698826 151.52216044 666.39372182 189 638.3125 C190.4389329 637.27311614 191.87917925 636.23554961 193.3203125 635.19921875 C203.28757333 627.99567599 212.83722914 620.51289179 222 612.3125 C223.41539062 611.06339844 223.41539062 611.06339844 224.859375 609.7890625 C238.10296449 597.89909956 251.13352612 585.43689249 262 571.3125 C262.95646739 570.13024247 263.91636007 568.95075121 264.87890625 567.7734375 C271.32105094 559.87654938 277.38694314 551.8271248 283 543.3125 C283.43747559 542.65926758 283.87495117 542.00603516 284.32568359 541.33300781 C298.72234223 519.74552593 310.09304888 496.66243831 319 472.3125 C319.30373535 471.48427734 319.6074707 470.65605469 319.92041016 469.80273438 C325.78725452 453.56854515 329.66306995 436.97919739 332.6875 420 C332.88996338 418.88778076 333.09242676 417.77556152 333.30102539 416.62963867 C336.56765583 397.49690659 337.35284069 378.25847255 337.31567383 358.87939453 C337.31250841 355.44661788 337.33612028 352.01470288 337.36132812 348.58203125 C337.56442373 276.90495382 312.40866658 208.23989086 268 152.3125 C266.89205078 150.91257812 266.89205078 150.91257812 265.76171875 149.484375 C260.96304681 143.51799781 255.90972891 137.84190842 250.703125 132.234375 C248.18786683 129.51556992 245.71374701 126.76543031 243.25 124 C237.87888926 118.0278591 232.30448644 112.48639141 226.21484375 107.25 C223.69939336 105.04953546 221.26114948 102.7745075 218.8125 100.5 C198.06072451 81.62698608 173.43044016 65.11157068 148 53.3125 C147.23075195 52.9505957 146.46150391 52.58869141 145.66894531 52.21582031 C126.00308087 42.99228613 105.98358311 35.92354534 85 30.3125 C84.11489746 30.07257324 83.22979492 29.83264648 82.31787109 29.58544922 C32.68953312 16.48296859 -27.08137351 15.72172962 -76.76367188 28.73095703 Z M347 267.3125 C347.31657491 268.90822554 347.63386137 270.50380993 347.95144653 272.09933472 C348.21636493 273.43216901 348.21636493 273.43216901 348.48663521 274.79192924 C349.10217798 277.81418387 349.79812141 280.81521954 350.4921875 283.8203125 C352.13498018 291.45981508 353.06235783 299.10849564 353.88037109 306.87060547 C354.12410829 309.17905458 354.37951628 311.48598508 354.63671875 313.79296875 C356.38381684 329.7152866 357.20788249 345.54741904 357.1875 361.5625 C357.18709213 362.78022598 357.18709213 362.78022598 357.18667603 364.02255249 C357.16919246 375.4074279 356.86280598 386.61556583 355.31640625 397.91015625 C354.960363 400.61344756 354.66585576 403.32018707 354.375 406.03125 C351.69112321 430.36113384 345.5997966 453.07720273 338 476.3125 C337.73074707 477.15538574 337.46149414 477.99827148 337.18408203 478.86669922 C325.86069132 514.25132373 306.06343127 547.3911699 283 576.3125 C282.28457031 577.22902344 281.56914063 578.14554688 280.83203125 579.08984375 C278.91859535 581.52404983 276.96721048 583.92158264 275 586.3125 C274.2265625 587.2715625 273.453125 588.230625 272.65625 589.21875 C266.02998285 597.28497491 258.79494888 604.73171818 251.4375 612.125 C250.95489716 612.61277924 250.47229431 613.10055847 249.97506714 613.6031189 C244.06680314 619.56127975 237.97174101 625.1369414 231.41381836 630.38012695 C229.49447892 631.91664679 227.62527833 633.47649304 225.78515625 635.10546875 C187.66173954 668.63438474 141.29624643 689.45303437 93 703.3125 C92.03852051 703.59762451 91.07704102 703.88274902 90.08642578 704.17651367 C82.57103258 706.34343129 74.96597778 707.63465266 67.25 708.875 C65.99445312 709.08318359 64.73890625 709.29136719 63.4453125 709.50585938 C42.73770337 712.89688982 22.5824145 714.54836851 1.625 714.5625 C0.06897064 714.56401062 0.06897064 714.56401062 -1.51849365 714.56555176 C-26.41558015 714.54926569 -50.63220094 712.67103845 -75 707.3125 C-76.78763872 706.93822036 -78.57540241 706.56453717 -80.36328125 706.19140625 C-100.9359921 701.80399996 -120.65185894 695.54558095 -140 687.3125 C-141.13381104 686.83925293 -141.13381104 686.83925293 -142.29052734 686.35644531 C-158.6113748 679.52808295 -174.32545703 671.21199327 -189 661.3125 C-190.02577148 660.62849121 -190.02577148 660.62849121 -191.07226562 659.93066406 C-201.73513809 652.81160221 -212.0982677 645.460398 -222 637.3125 C-222.54317871 636.86696777 -223.08635742 636.42143555 -223.64599609 635.96240234 C-235.07866957 626.54307249 -245.87714515 616.50930589 -256.375 606.0625 C-257.02895752 605.41321533 -257.68291504 604.76393066 -258.35668945 604.0949707 C-262.77265338 599.66438251 -266.94140154 595.07153775 -271 590.3125 C-271.55010742 589.66909668 -272.10021484 589.02569336 -272.66699219 588.36279297 C-308.4878084 546.15671046 -333.61522583 496.99541588 -347 443.3125 C-347.20173828 442.51473145 -347.40347656 441.71696289 -347.61132812 440.89501953 C-351.46623732 425.31084393 -353.22095859 409.2430575 -355 393.3125 C-355.10820068 392.35037598 -355.21640137 391.38825195 -355.32788086 390.39697266 C-356.26806543 380.80725776 -356.19927043 371.18853079 -356.1875 361.5625 C-356.18689575 360.65077026 -356.1862915 359.73904053 -356.18566895 358.79968262 C-356.16005624 344.54715175 -355.75176794 330.47128491 -354 316.3125 C-353.8551416 315.12672363 -353.7102832 313.94094727 -353.56103516 312.71923828 C-352.05825861 300.67098391 -350.51089086 288.76026699 -347.58374023 276.96362305 C-346.89248247 274.27663486 -346.89248247 274.27663486 -347 271.3125 C-399.67731819 271.16768466 -452.34882298 271.37343957 -505.02448237 271.76238376 C-513.33983622 271.82371575 -521.65520364 271.88310907 -529.97057223 271.94240285 C-546.98039653 272.06373375 -563.99020373 272.1872994 -581 272.3125 C-580.82015997 310.52846019 -580.6401863 348.74441975 -580.46011758 386.96037887 C-580.45285784 388.5011146 -580.44559815 390.04185033 -580.43833851 391.58258606 C-580.05833329 472.23224692 -579.67746429 552.88190362 -579.29459482 633.53155093 C-579.28172025 636.2435437 -579.26884627 638.95553648 -579.25597245 641.66752926 C-579.08949987 676.73637254 -578.92296369 711.80521553 -578.75627136 746.87405777 C-578.64817347 769.61590807 -578.54012046 792.35775857 -578.43212891 815.09960938 C-578.42541999 816.51237026 -578.42541999 816.51237026 -578.41857555 817.95367176 C-578.1280193 879.13982621 -577.83998812 940.32599218 -577.55361725 1001.51216635 C-577.35840622 1043.22101631 -577.16287835 1084.92986465 -576.96507263 1126.63870239 C-576.96091531 1127.5153536 -576.95675799 1128.39200481 -576.95247469 1129.29522121 C-576.86535827 1147.66430181 -576.77809616 1166.0333817 -576.69064983 1184.40246073 C-576.64974843 1192.99432021 -576.6088779 1201.58617984 -576.56802368 1210.17803955 C-576.56400295 1211.02348935 -576.55998222 1211.86893915 -576.55583965 1212.74000864 C-576.42703004 1239.82817725 -576.30041964 1266.91635559 -576.17500177 1294.00454011 C-576.04849862 1321.32509286 -575.91978938 1348.64563428 -575.7881252 1375.96616267 C-575.76982382 1379.76385678 -575.7515473 1383.561551 -575.7332859 1387.3592453 C-575.72970686 1388.1033724 -575.72612781 1388.84749951 -575.7224403 1389.61417592 C-575.66994185 1400.54164792 -575.61938535 1411.46912767 -575.56998253 1422.39661407 C-575.22543604 1505.35929757 -575.22543604 1505.35929757 -574 1588.3125 C-550.31812003 1588.34262519 -550.31812003 1588.34262519 -526.63623047 1588.36328125 C-525.84603571 1588.36381248 -525.05584095 1588.36434372 -524.24170089 1588.36489105 C-518.36946749 1588.36874303 -512.49723389 1588.37201289 -506.625 1588.375 C-505.79560063 1588.3754343 -504.96620127 1588.37586861 -504.11166859 1588.37631607 C-460.69692812 1588.39843763 -417.28708566 1588.35871872 -373.875 1587.8125 C-372.9237751 1587.80054218 -371.9725502 1587.78858437 -370.99250031 1587.77626419 C-359.99477048 1587.63672205 -348.99727861 1587.4840072 -338 1587.3125 C-339.01062121 1581.89230902 -340.06021331 1576.64022755 -341.9375 1571.44140625 C-361.67256962 1514.14574812 -360.97454844 1445.74474913 -347.61914062 1387.05761719 C-347.02224992 1384.41115068 -346.4680533 1381.75889125 -345.921875 1379.1015625 C-334.56530319 1325.71496606 -305.97799597 1274.97616992 -269.3359375 1234.89453125 C-268.06349746 1233.48803817 -266.7972297 1232.07541738 -265.56445312 1230.6340332 C-260.70839082 1224.96790196 -255.52421792 1219.65055471 -250.24951172 1214.37670898 C-248.76106763 1212.88608385 -247.28082723 1211.38762983 -245.80078125 1209.88867188 C-239.52632173 1203.57784867 -232.96230766 1197.86841589 -226 1192.3125 C-224.88637998 1191.36607347 -223.77831983 1190.41300282 -222.6796875 1189.44921875 C-214.22999674 1182.0704498 -205.30035875 1175.5765053 -196 1169.3125 C-195.29198242 1168.83200195 -194.58396484 1168.35150391 -193.85449219 1167.85644531 C-171.19698032 1152.61036557 -146.52802831 1140.86960332 -121 1131.3125 C-120.15405273 1130.99458496 -119.30810547 1130.67666992 -118.43652344 1130.34912109 C-101.73744428 1124.17802391 -84.31370434 1120.87553045 -66.87530518 1117.52197266 C-64.89324519 1117.14053886 -62.91217519 1116.75397168 -60.93115234 1116.3671875 C-41.98801667 1112.81069368 -23.36646639 1111.93952153 -4.09765625 1111.94189453 C-0.16621755 1111.93754559 3.76407279 1111.90116679 7.6953125 1111.86328125 C25.45157462 1111.78411484 42.49287553 1113.42214679 60 1116.3125 C61.68863694 1116.57738954 63.37742187 1116.84133878 65.06640625 1117.10400391 C69.24604578 1117.7694911 73.40661592 1118.51245531 77.5625 1119.3125 C78.29272369 1119.4525647 79.02294739 1119.59262939 79.77529907 1119.73693848 C133.2529573 1130.19755553 185.27889134 1155.92037391 226.22070312 1191.80419922 C227.56221526 1192.94139214 228.93038169 1194.04724987 230.31054688 1195.13720703 C237.95943635 1201.20313097 244.85185238 1207.85743007 251.72558594 1214.77734375 C253.62215939 1216.68464332 255.52920305 1218.58100059 257.4375 1220.4765625 C264.41973338 1227.45130914 270.88765434 1234.55529277 277 1242.3125 C278.55950185 1244.1275803 280.12133812 1245.94066326 281.6875 1247.75 C293.18996049 1261.55652478 303.00377093 1276.78169658 312 1292.3125 C312.48178711 1293.13911133 312.96357422 1293.96572266 313.45996094 1294.81738281 C335.00834383 1332.09594502 348.26001574 1373.70108905 354 1416.3125 C354.14953125 1417.38467773 354.2990625 1418.45685547 354.453125 1419.56152344 C361.57393582 1472.49186076 357.26654563 1528.02854976 340.69921875 1578.84375 C339.86374569 1581.36593347 339.86374569 1581.36593347 340 1584.3125 C361.00530685 1584.32788978 382.01059667 1584.32380017 403.01590443 1584.31386471 C406.08989521 1584.31245889 409.16388603 1584.31122435 412.23787689 1584.31000519 C441.21689124 1584.29793769 470.19572847 1584.25927311 499.17464256 1584.18040657 C512.16503257 1584.14562601 525.15531259 1584.12036503 538.14575195 1584.11694336 C549.69145201 1584.11387965 561.23696879 1584.09313862 572.78259808 1584.05197543 C578.82410239 1584.03099621 584.86534818 1584.01786424 590.90688896 1584.02634621 C617.71644678 1584.05776147 643.60053636 1583.24405359 670 1578.3125 C671.20996077 1578.08923853 672.41992153 1577.86597706 673.66654778 1577.63595009 C679.84385759 1576.48415796 685.99755505 1575.25566809 692.13964844 1573.92871094 C694.98858024 1573.31496018 697.84122296 1572.72206287 700.6953125 1572.1328125 C752.44628053 1561.33559169 803.97197409 1543.8176808 850.93457031 1519.38427734 C853.2394458 1518.18824858 855.55331338 1517.01055128 857.8671875 1515.83203125 C900.77896833 1493.82754127 940.77465387 1466.4648504 977.42822266 1435.18359375 C980.65404176 1432.43260082 983.93243836 1429.76408287 987.25 1427.125 C997.54417958 1418.75058666 1007.07840072 1409.36520062 1016.34692383 1399.88110352 C1018 1398.3125 1018 1398.3125 1020 1397.3125 C1020 1396.6525 1020 1395.9925 1020 1395.3125 C1020.82951172 1394.98958984 1020.82951172 1394.98958984 1021.67578125 1394.66015625 C1024.7634852 1392.8698069 1026.86274498 1390.4033423 1029.1875 1387.75 C1030.16365171 1386.6586218 1031.14153768 1385.56879244 1032.12109375 1384.48046875 C1032.60562012 1383.94212402 1033.09014648 1383.4037793 1033.58935547 1382.84912109 C1035.57631572 1380.68471683 1037.65481472 1378.62174729 1039.75 1376.5625 C1043.71432321 1372.64005345 1047.37398329 1368.54630618 1051 1364.3125 C1051.94304775 1363.23223177 1052.88715241 1362.15288574 1053.83203125 1361.07421875 C1067.59847403 1345.33414584 1080.61101312 1329.16018821 1093 1312.3125 C1093.57669434 1311.53197266 1094.15338867 1310.75144531 1094.74755859 1309.94726562 C1113.1182386 1285.045374 1128.99868429 1258.55878086 1143.45898438 1231.21386719 C1144.95017858 1228.40630192 1146.46463677 1225.61250613 1147.984375 1222.8203125 C1160.86927808 1198.93376632 1171.19612477 1174.02924367 1179.94775391 1148.36035156 C1180.89399164 1145.61955529 1181.87727755 1142.89770338 1182.88671875 1140.1796875 C1187.85697668 1126.70095212 1191.46400936 1112.89880572 1195.04174805 1098.99926758 C1195.86745663 1095.82244586 1196.71463297 1092.6528897 1197.57241821 1089.48468018 C1202.67944327 1070.57825398 1205.72106431 1051.33546563 1208.6875 1032 C1208.83788727 1031.02811737 1208.98827454 1030.05623474 1209.14321899 1029.05490112 C1217.98638265 971.64000594 1218.21523951 913.09178257 1213 855.3125 C1212.93727905 854.60689941 1212.87455811 853.90129883 1212.80993652 853.17431641 C1209.52054811 816.34905055 1203.34795011 779.00725834 1192.66992188 743.53857422 C1191.91831548 741.04107163 1191.18631342 738.53812527 1190.453125 736.03515625 C1170.50496857 668.58249861 1139.38825494 604.25215502 1098 547.3125 C1097.44844238 546.5484082 1096.89688477 545.78431641 1096.32861328 544.99707031 C1088.23825684 533.80065601 1079.84911749 522.9190291 1071 512.3125 C1070.26305908 511.42691406 1070.26305908 511.42691406 1069.51123047 510.5234375 C1064.14302159 504.08519573 1058.6662928 497.75852248 1053.02734375 491.5546875 C1051.26032801 489.60041576 1049.53086471 487.62190263 1047.8125 485.625 C1038.48694217 474.9702337 1028.62147615 464.83431868 1018.625 454.8125 C1017.6980835 453.88099121 1016.77116699 452.94948242 1015.81616211 451.98974609 C1011.28029327 447.46407572 1006.6954883 443.07125601 1001.83203125 438.89941406 C998.86886883 436.33270887 996.03875406 433.62698954 993.1875 430.9375 C988.19589254 426.26691984 983.09756213 421.81632523 977.7578125 417.54296875 C975.27270804 415.53306132 972.84201925 413.47106793 970.42163086 411.3840332 C963.25903394 405.22339568 955.80099689 399.53177601 948.19482422 393.93212891 C945.88507942 392.22769653 943.58468314 390.51115721 941.28515625 388.79296875 C923.00777529 375.17311581 903.96038332 362.98278945 884.37890625 351.33203125 C882.37775395 350.13596681 880.38282797 348.92920368 878.40234375 347.69921875 C872.30491458 343.92268082 865.96781164 340.7103849 859.53515625 337.5546875 C856.43915152 336.03472009 853.3683414 334.47445824 850.30859375 332.8828125 C825.75899006 320.2008465 800.03521641 309.53528779 774 300.3125 C773.30680664 300.0635498 772.61361328 299.81459961 771.89941406 299.55810547 C761.37758282 295.79878181 750.62093082 292.95285496 739.83203125 290.07861328 C737.12043095 289.34507865 734.41892027 288.58302599 731.71875 287.80859375 C710.24135609 281.68304828 688.44397877 277.54400968 666.40087891 274.08126831 C664.53142454 273.78722888 662.66255411 273.48944024 660.79443359 273.18704224 C623.83868675 267.24912007 586.96444719 266.8824504 549.62199412 267.00188515 C542.57824211 267.0238027 535.53450758 267.0278777 528.49072633 267.0312738 C515.9383669 267.03777358 503.38606733 267.05755462 490.83374023 267.08618164 C478.67000621 267.11389287 466.50628869 267.13504183 454.3425293 267.14770508 C453.5875792 267.14849325 452.8326291 267.14928142 452.05480172 267.15009347 C448.26589306 267.15400975 444.47698428 267.15780059 440.68807542 267.16152918 C409.45867348 267.19242249 378.22934599 267.24530604 347 267.3125 Z M-68 1137.3125 C-69.16031738 1137.55838867 -70.32063477 1137.80427734 -71.51611328 1138.05761719 C-84.2054136 1140.77561096 -96.73481212 1144.06173805 -109 1148.3125 C-110.0842627 1148.6849585 -110.0842627 1148.6849585 -111.19042969 1149.06494141 C-151.10495177 1162.90886241 -187.50284774 1184.14237141 -219 1212.3125 C-219.92039062 1213.12203125 -220.84078125 1213.9315625 -221.7890625 1214.765625 C-228.6898385 1220.94716519 -235.25091945 1227.46219125 -241.8125 1234 C-242.708479 1234.89130615 -243.60445801 1235.7826123 -244.52758789 1236.70092773 C-249.55813162 1241.74367355 -254.40406234 1246.87071046 -259 1252.3125 C-259.50523193 1252.90571045 -260.01046387 1253.4989209 -260.53100586 1254.11010742 C-273.91933989 1269.95836583 -285.71561134 1286.81034525 -295.72070312 1304.98876953 C-296.56081426 1306.51475766 -297.40825985 1308.0367353 -298.26367188 1309.55419922 C-306.16756038 1323.58945833 -312.23585171 1338.28767058 -318 1353.3125 C-318.42321533 1354.40957275 -318.42321533 1354.40957275 -318.85498047 1355.52880859 C-320.44691551 1359.73235671 -321.78528698 1363.98770278 -323 1368.3125 C-323.26232422 1369.2391748 -323.52464844 1370.16584961 -323.79492188 1371.12060547 C-327.6856471 1385.12591649 -330.69136537 1399.14206425 -332.875 1413.5 C-333.03005005 1414.502659 -333.03005005 1414.502659 -333.18823242 1415.52557373 C-335.98999906 1433.89277347 -336.23979408 1452.20792365 -336.25 1470.75 C-336.25067474 1471.85777802 -336.25134949 1472.96555603 -336.25204468 1474.10690308 C-336.23633302 1490.36611858 -335.88627414 1506.2678886 -333 1522.3125 C-332.71866211 1523.89224609 -332.71866211 1523.89224609 -332.43164062 1525.50390625 C-331.09956295 1532.80662336 -329.59009778 1540.06216704 -328 1547.3125 C-327.74283203 1548.52437988 -327.74283203 1548.52437988 -327.48046875 1549.76074219 C-316.70773747 1600.49329988 -290.42535856 1649.76929683 -255.265625 1687.8359375 C-254.01718222 1689.2006146 -252.77662882 1690.57321438 -251.57324219 1691.9777832 C-246.71409495 1697.64848056 -241.5280929 1702.97057094 -236.24951172 1708.24829102 C-234.76106763 1709.73891615 -233.28082723 1711.23737017 -231.80078125 1712.73632812 C-225.52741687 1719.04658011 -218.97615113 1724.77472358 -212 1730.3125 C-210.64761142 1731.4320672 -209.29831447 1732.55538682 -207.953125 1733.68359375 C-199.32868291 1740.85067276 -190.47951045 1747.32599451 -181 1753.3125 C-179.38351562 1754.34117187 -179.38351562 1754.34117187 -177.734375 1755.390625 C-174.51268077 1757.4061677 -171.26705311 1759.37137371 -168 1761.3125 C-167.1339917 1761.82780273 -167.1339917 1761.82780273 -166.25048828 1762.35351562 C-134.26024857 1781.24545746 -99.53154977 1793.82053324 -63 1800.3125 C-62.20400391 1800.45429687 -61.40800781 1800.59609375 -60.58789062 1800.7421875 C-5.46157772 1810.31366853 54.03876861 1807.22437022 107.14404297 1789.27099609 C109.764853 1788.39141837 112.3951268 1787.55792748 115.03515625 1786.73828125 C136.35209047 1779.93643223 157.17514902 1769.33500345 176 1757.3125 C177.05445313 1756.63960937 178.10890625 1755.96671875 179.1953125 1755.2734375 C182.16213055 1753.32912593 185.086115 1751.33517017 188 1749.3125 C189.0725 1748.57773438 190.145 1747.84296875 191.25 1747.0859375 C204.32246437 1738.02133647 216.53642739 1727.82243046 228.15625 1716.96875 C230.1412809 1715.11460026 232.13509822 1713.28235074 234.15625 1711.46875 C239.08698964 1707.03571234 243.85485016 1702.60017915 248.1171875 1697.50390625 C250.04228487 1695.26328463 252.06070281 1693.12815906 254.09741211 1690.98925781 C275.05933252 1668.83803234 293.09761605 1641.93824725 306 1614.3125 C306.49862549 1613.24926514 306.49862549 1613.24926514 307.00732422 1612.16455078 C327.29324125 1568.57264961 337.68860059 1521.45109991 337.33618164 1473.37841797 C337.31236173 1469.91740879 337.31568749 1466.45716571 337.32226562 1462.99609375 C337.30585151 1449.64975938 336.67795347 1436.55311308 335 1423.3125 C334.84877686 1422.07854492 334.69755371 1420.84458984 334.54174805 1419.57324219 C326.99700637 1361.08988367 303.80345851 1307.40976116 267 1261.3125 C266.27554688 1260.3946875 265.55109375 1259.476875 264.8046875 1258.53125 C255.87753151 1247.39630274 245.99792434 1237.21161851 235.95489502 1227.09216309 C234.95998785 1226.08921214 233.96656535 1225.08478577 232.97479248 1224.07873535 C226.33277881 1217.35131108 219.40709957 1211.18989634 212 1205.3125 C210.79133483 1204.31213052 209.58518463 1203.30870577 208.3828125 1202.30078125 C178.43773357 1177.54739074 143.70148143 1159.62904697 107 1147.3125 C106.24138672 1147.05243164 105.48277344 1146.79236328 104.70117188 1146.52441406 C76.90641591 1137.0267747 47.00344529 1132.28561076 17.68359375 1132.0390625 C16.67735458 1132.02964378 16.67735458 1132.02964378 15.65078735 1132.02003479 C10.57972098 1131.97393824 5.50875276 1131.95015735 0.4375 1131.9375 C-0.30568859 1131.93549339 -1.04887718 1131.93348679 -1.81458664 1131.93141937 C-24.26183597 1131.8844942 -45.98477631 1132.41881758 -68 1137.3125 Z " fill="#020100" transform="translate(1590,216.6875)"/>
<path d="M0 0 C2.98336153 0.01071662 5.9661195 0.00004041 8.94946289 -0.01269531 C24.18519546 -0.02481414 39.33628166 0.64140761 54.17797852 4.38574219 C55.03794434 4.5989209 55.89791016 4.81209961 56.78393555 5.03173828 C82.79097175 11.69793644 107.07477619 21.72258129 129.05297852 37.26074219 C130.64625977 38.38416016 130.64625977 38.38416016 132.27172852 39.53027344 C150.32028498 52.71046928 167.6407988 68.3261512 181.05297852 86.26074219 C182.22666992 87.81921875 182.22666992 87.81921875 183.42407227 89.40917969 C192.47100445 101.63764597 200.48518063 114.53476724 207.05297852 128.26074219 C207.41464111 129.01315186 207.77630371 129.76556152 208.14892578 130.54077148 C210.66687316 135.97272771 212.46347325 141.49276474 214.05297852 147.26074219 C213.39297852 147.26074219 212.73297852 147.26074219 212.05297852 147.26074219 C212.05297852 146.60074219 212.05297852 145.94074219 212.05297852 145.26074219 C211.48063477 145.01324219 210.90829102 144.76574219 210.31860352 144.51074219 C207.70263314 143.06744819 205.93778864 141.35076609 203.80297852 139.26074219 C181.79079366 119.09913925 153.96500616 110.83525921 124.61547852 111.01074219 C123.32577148 111.00300781 122.03606445 110.99527344 120.70727539 110.98730469 C108.6865962 111.01138216 96.59878054 111.79959729 85.17797852 115.82324219 C84.43531738 116.07936279 83.69265625 116.3354834 82.92749023 116.59936523 C65.20118504 122.98794809 50.69998814 133.40418968 37.05297852 146.26074219 C36.38911133 146.86015625 35.72524414 147.45957031 35.04125977 148.07714844 C13.241654 168.55020618 0.48466371 198.64275469 -0.94702148 228.26074219 C-0.98827148 229.09347656 -1.02952148 229.92621094 -1.07202148 230.78417969 C-1.88422399 264.59210901 12.0857926 295.42237252 34.76635742 319.89746094 C56.0775073 342.24227856 86.02690346 356.53613862 117.04125977 357.46386719 C145.95119253 357.89140082 171.83051542 351.40905092 196.05297852 335.26074219 C194.40615297 340.39436504 191.32294799 344.39522194 188.17797852 348.69824219 C187.5942749 349.49810547 187.01057129 350.29796875 186.40917969 351.12207031 C172.47022658 370.01646733 156.15107521 387.51079749 137.05297852 401.26074219 C135.98821289 402.03546875 134.92344727 402.81019531 133.82641602 403.60839844 C109.13112446 421.12342882 82.54649198 433.3547709 53.05297852 440.26074219 C52.1807666 440.4739209 51.30855469 440.68709961 50.40991211 440.90673828 C34.86222333 444.55158594 19.31320782 444.62763855 3.42797852 444.63574219 C2.38627502 444.63773621 1.34457153 444.63973022 0.27130127 444.64178467 C-11.63101408 444.63920745 -23.19808048 444.32312302 -34.94702148 442.26074219 C-35.91462402 442.09461426 -36.88222656 441.92848633 -37.87915039 441.75732422 C-73.34186171 435.26556792 -106.12239534 420.19141607 -133.94702148 397.26074219 C-134.50164062 396.80763672 -135.05625977 396.35453125 -135.62768555 395.88769531 C-148.64496458 385.19519231 -160.6157891 373.59502018 -170.94702148 360.26074219 C-171.74495117 359.26816406 -172.54288086 358.27558594 -173.36499023 357.25292969 C-183.70401332 344.2918949 -191.95155067 330.2704041 -198.94702148 315.26074219 C-199.48069336 314.1225 -200.01436523 312.98425781 -200.56420898 311.81152344 C-206.49493997 298.58261312 -210.53863823 284.82385946 -213.69702148 270.69824219 C-213.89561768 269.82627197 -214.09421387 268.95430176 -214.29882812 268.0559082 C-217.48222343 253.12326203 -218.3023469 238.11100625 -218.19702148 222.88574219 C-218.19391968 222.08024933 -218.19081787 221.27475647 -218.18762207 220.44485474 C-218.13292072 208.29619485 -217.85528622 196.2817469 -215.94702148 184.26074219 C-215.76961426 183.09212646 -215.76961426 183.09212646 -215.58862305 181.89990234 C-211.3751175 155.19828511 -201.13367573 129.22147176 -186.94702148 106.26074219 C-186.34631836 105.28363281 -185.74561523 104.30652344 -185.12670898 103.29980469 C-176.26654766 89.47202154 -165.29393524 77.08475113 -153.94702148 65.26074219 C-153.09366211 64.36613281 -152.24030273 63.47152344 -151.36108398 62.54980469 C-145.58501634 56.62796877 -139.44764459 51.36837463 -132.94702148 46.26074219 C-131.94928711 45.45765625 -130.95155273 44.65457031 -129.92358398 43.82714844 C-106.65386336 25.27391909 -79.8305337 12.99302434 -51.13452148 5.57324219 C-49.99587646 5.27506592 -48.85723145 4.97688965 -47.68408203 4.66967773 C-31.80284927 0.71259734 -16.29666652 -0.06942137 0 0 Z " fill="#FEFEFE" transform="translate(1590.947021484375,1458.7392578125)"/>
<path d="M0 0 C0.69802734 0.35932617 1.39605469 0.71865234 2.11523438 1.08886719 C18.84155324 9.80633523 33.94608021 20.44173472 48 33 C48.54640137 33.4846875 49.09280273 33.969375 49.65576172 34.46875 C74.27283919 56.39500746 94.65145941 83.99820926 107.625 114.375 C107.98029785 115.20225586 108.3355957 116.02951172 108.70166016 116.88183594 C109.01925293 117.65043945 109.3368457 118.41904297 109.6640625 119.2109375 C109.94717285 119.89462402 110.2302832 120.57831055 110.52197266 121.28271484 C111 123 111 123 110 125 C109.28457031 124.31035156 108.56914063 123.62070312 107.83203125 122.91015625 C100.67031512 116.11442935 93.30122396 110.35596647 85 105 C84.1234375 104.43410156 83.246875 103.86820312 82.34375 103.28515625 C62.98712074 91.24851812 42.4177549 87.55744223 19.875 87.625 C18.79532959 87.62631424 18.79532959 87.62631424 17.69384766 87.62765503 C-11.39791402 87.74398665 -36.94895962 96.75800935 -59 116 C-60.43085937 117.21429688 -60.43085937 117.21429688 -61.890625 118.453125 C-84.17593268 137.76490098 -100.87579589 166.43795543 -104 196 C-105.60388891 229.66772018 -99.38104454 259.26439822 -78 286 C-77.56703613 286.5451123 -77.13407227 287.09022461 -76.68798828 287.65185547 C-58.19516252 310.72765789 -34.01498339 326.01039243 -5 332 C-4.00484375 332.22558594 -3.0096875 332.45117188 -1.984375 332.68359375 C13.15949748 335.61923748 30.97703516 335.48214417 46 332 C47.75376953 331.61521484 47.75376953 331.61521484 49.54296875 331.22265625 C64.30919657 327.65733907 79.9558726 321.39220944 92 312 C92.66 312.33 93.32 312.66 94 313 C65.33703627 357.22113288 28.12128822 390.0762619 -21 410 C-22.29357422 410.53560547 -22.29357422 410.53560547 -23.61328125 411.08203125 C-74.76730399 431.05039782 -138.00613298 427.250729 -187.86816406 405.70581055 C-210.19803323 395.76940069 -230.40496778 382.31761651 -248.21484375 365.59765625 C-250.70292237 363.27707802 -253.23925981 361.03741665 -255.8125 358.8125 C-259.17562453 355.82840382 -262.19032144 352.72218616 -265.08203125 349.28125 C-266.48718242 347.60995003 -267.92735111 345.96792348 -269.38671875 344.34375 C-288.29861819 323.10754214 -301.86260452 297.80806112 -311 271 C-311.24975586 270.27393555 -311.49951172 269.54787109 -311.75683594 268.79980469 C-319.09359149 247.03375735 -321.21958306 224.40296331 -321.1875 201.5625 C-321.18689575 200.76764191 -321.1862915 199.97278381 -321.18566895 199.15383911 C-321.15997853 186.68568403 -320.8896789 174.34821206 -319 162 C-318.8870459 161.25218262 -318.7740918 160.50436523 -318.65771484 159.73388672 C-311.97928901 118.1881774 -291.19047114 79.04138716 -262 49 C-261.28811523 48.2570166 -260.57623047 47.5140332 -259.84277344 46.74853516 C-248.95180067 35.41326071 -237.92424975 24.9771852 -225 16 C-224.4215332 15.59281738 -223.84306641 15.18563477 -223.24707031 14.76611328 C-202.51743432 0.32056322 -179.3303581 -9.53534823 -155 -16 C-153.6385083 -16.36992065 -153.6385083 -16.36992065 -152.24951172 -16.74731445 C-103.20506192 -29.62916693 -44.92385943 -23.1901787 0 0 Z " fill="#FEFEFE" transform="translate(1694,370)"/>
<path d="M0 0 C3.37411072 0.00315269 6.74733518 -0.0203634 10.12133789 -0.0456543 C55.15287236 -0.17703388 99.30476904 12.99419953 136.70922852 38.31567383 C137.30783691 38.71753906 137.90644531 39.1194043 138.52319336 39.53344727 C147.8156278 45.81958035 156.34609153 52.84969505 164.70922852 60.31567383 C165.26497559 60.80825684 165.82072266 61.30083984 166.39331055 61.80834961 C216.27174515 106.18214922 242.42789183 166.00757403 247.33422852 231.94067383 C247.479623 234.73334521 247.60691682 237.52154728 247.70922852 240.31567383 C247.76022705 241.57976074 247.76022705 241.57976074 247.81225586 242.86938477 C248.35183312 258.12545244 246.78035505 272.38308068 243.70922852 287.31567383 C243.38776855 288.91596436 243.38776855 288.91596436 243.05981445 290.54858398 C235.51889214 327.49032205 220.21303711 361.71988543 196.70922852 391.31567383 C196.02860352 392.18836914 195.34797852 393.06106445 194.64672852 393.96020508 C177.62620811 415.32971875 157.54313828 433.35850612 134.70922852 448.31567383 C133.73590576 448.95738525 133.73590576 448.95738525 132.74291992 449.61206055 C109.42845986 464.83525725 82.25497987 476.65254784 54.70922852 481.31567383 C53.35047828 481.57781214 51.99243847 481.84365107 50.63500977 482.11254883 C39.80086336 484.23480333 29.4426412 485.47069373 18.40454102 485.55395508 C17.33568161 485.56379425 16.2668222 485.57363342 15.16557312 485.58377075 C-29.88381582 485.91325852 -29.88381582 485.91325852 -49.29077148 481.31567383 C-50.34071289 481.06897949 -51.3906543 480.82228516 -52.47241211 480.56811523 C-72.77671271 475.63144274 -91.88076028 468.14944927 -110.29077148 458.31567383 C-111.28802246 457.78804443 -111.28802246 457.78804443 -112.30541992 457.24975586 C-129.42616715 448.13207693 -144.4236325 436.70764565 -158.74780273 423.63598633 C-160.52543716 422.01399731 -162.3155897 420.40566927 -164.11499023 418.80786133 C-169.59535554 413.91814931 -174.5964864 408.95472069 -179.29077148 403.31567383 C-180.1222168 402.36047852 -180.95366211 401.4052832 -181.81030273 400.42114258 C-201.92236433 377.25390357 -217.58257751 350.44542244 -227.29077148 321.31567383 C-227.59998535 320.39431641 -227.90919922 319.47295898 -228.2277832 318.52368164 C-248.26900364 257.23714764 -242.11922292 188.95614628 -213.56152344 131.53515625 C-207.70757752 120.08344511 -201.13394361 109.50000335 -193.29077148 99.31567383 C-192.58436523 98.37981445 -191.87795898 97.44395508 -191.15014648 96.47973633 C-177.55317982 78.95844189 -161.08275824 61.56226251 -143.29077148 48.31567383 C-142.15894746 47.44368489 -141.02746052 46.57125834 -139.89624023 45.69848633 C-113.22030894 25.36940336 -82.25284183 11.97223658 -49.66577148 4.37817383 C-48.46198853 4.09707764 -48.46198853 4.09707764 -47.23388672 3.81030273 C-31.57297314 0.43193191 -15.96644535 -0.0310788 0 0 Z M-147.29077148 79.31567383 C-148.40959717 80.38567627 -148.40959717 80.38567627 -149.55102539 81.47729492 C-176.5696678 107.44181098 -195.95265071 136.86060775 -208.29077148 172.31567383 C-208.9056543 174.07137695 -208.9056543 174.07137695 -209.53295898 175.86254883 C-220.05218145 207.99102676 -221.87853569 246.02552434 -216.29077148 279.31567383 C-216.17781738 280.08137695 -216.06486328 280.84708008 -215.94848633 281.63598633 C-209.74523461 323.4892509 -189.79045828 359.8162104 -162.29077148 391.31567383 C-161.63044922 392.07291748 -161.63044922 392.07291748 -160.95678711 392.84545898 C-156.34994694 398.09787653 -151.68601369 403.09326951 -146.32983398 407.58520508 C-144.03856752 409.529709 -141.86275396 411.5778954 -139.66577148 413.62817383 C-133.59122739 419.09248975 -127.02586336 423.72201329 -120.29077148 428.31567383 C-119.3259082 428.98518066 -119.3259082 428.98518066 -118.34155273 429.66821289 C-92.95687039 447.21057441 -64.16499202 457.8621129 -33.85327148 463.06567383 C-33.18094482 463.18136719 -32.50861816 463.29706055 -31.81591797 463.41625977 C15.6266746 470.95756328 65.49143135 463.10060084 107.70922852 440.31567383 C108.86422852 439.70208008 110.01922852 439.08848633 111.20922852 438.45629883 C125.88197679 430.38628728 139.21737628 420.42892075 151.70922852 409.31567383 C152.21260742 408.87400879 152.71598633 408.43234375 153.23461914 407.97729492 C170.66836029 392.65283504 184.51696023 375.02034984 196.70922852 355.31567383 C192.80394663 355.31567383 190.45037995 357.04847673 187.20922852 359.00317383 C176.16935687 365.45326066 164.98943362 369.85234198 152.70922852 373.31567383 C152.06518066 373.4982373 151.42113281 373.68080078 150.75756836 373.86889648 C128.51521624 379.82696409 101.01945057 377.93337344 79.70922852 369.31567383 C79.08951172 369.0680127 78.46979492 368.82035156 77.83129883 368.56518555 C64.16602628 363.04689883 52.95477975 355.89585335 41.70922852 346.31567383 C40.99895508 345.74075195 40.28868164 345.16583008 39.55688477 344.57348633 C33.79519663 339.80440585 29.2772905 334.21306601 24.70922852 328.31567383 C24.05051758 327.49583008 23.39180664 326.67598633 22.71313477 325.83129883 C6.35710908 304.63757541 -0.73295231 280.21274353 -0.60327148 253.62817383 C-0.59763184 252.40501465 -0.59199219 251.18185547 -0.58618164 249.92163086 C-0.29537013 228.08197412 4.6404324 207.72552102 16.70922852 189.31567383 C17.08031738 188.74397461 17.45140625 188.17227539 17.83374023 187.58325195 C35.67563647 160.46901066 62.6579683 139.1141645 94.70922852 131.87817383 C127.77875013 125.31414812 162.48410639 130.92159567 190.83422852 149.06567383 C196.84698072 153.20614242 202.3087483 157.9531656 207.77563477 162.77661133 C210.62556977 165.35025138 210.62556977 165.35025138 213.70922852 167.31567383 C211.70283849 158.62131704 207.79864965 151.02512733 203.6862793 143.17993164 C202.84888862 141.58215172 202.02566747 139.97695946 201.20532227 138.37036133 C192.6958082 122.12712934 181.46381084 107.18398673 168.99829102 93.79223633 C167.06339636 91.698852 165.22345946 89.56485175 163.39672852 87.37817383 C141.080614 61.90363011 110.25696835 43.74709014 78.70922852 32.31567383 C77.93224609 32.01226074 77.15526367 31.70884766 76.35473633 31.39624023 C1.19416883 2.67445917 -90.24779455 24.35908195 -147.29077148 79.31567383 Z " fill="#020201" transform="translate(1591.290771484375,327.684326171875)"/>
<path d="M0 0 C1.00337402 0.20399414 2.00674805 0.40798828 3.04052734 0.61816406 C44.16343767 9.26700515 81.48263887 27.13559448 113 55 C113.81210938 55.70125 114.62421875 56.4025 115.4609375 57.125 C127.63747072 67.80475007 139.07677024 79.21516238 148.70556641 92.25683594 C150.02587785 94.03484871 151.3752701 95.78753671 152.73046875 97.5390625 C189.37383146 145.44238955 205.13734952 210.88421158 198.46875 270.60546875 C197.18524217 279.98041622 194.80773268 288.9708165 192 298 C191.63401261 299.28793023 191.27218617 300.57704856 190.9140625 301.8671875 C181.99873369 333.75457608 168.71339021 363.88707493 147.30761719 389.43212891 C146.03107455 390.96274071 144.78460648 392.5182773 143.5390625 394.07421875 C132.29171891 407.98114066 119.3392973 421.28173738 105 432 C103.87884859 432.86190416 102.75775894 433.72388867 101.63671875 434.5859375 C79.53221236 451.3719549 55.04082562 464.79131598 28.375 472.625 C27.39987961 472.91348312 27.39987961 472.91348312 26.40505981 473.20779419 C15.38569365 476.4571182 4.37933519 479.32769099 -7 481 C-7.77375977 481.11424316 -8.54751953 481.22848633 -9.34472656 481.34619141 C-71.51647579 489.94929324 -136.37203565 475.47618547 -187 438 C-187.54930176 437.59346191 -188.09860352 437.18692383 -188.66455078 436.76806641 C-198.39926066 429.50099874 -207.26581941 421.42967691 -216 413 C-216.94101563 412.10023438 -217.88203125 411.20046875 -218.8515625 410.2734375 C-224.22047748 405.03749874 -229.09394316 399.54149715 -233.71484375 393.63574219 C-234.62485298 392.47748576 -235.54228129 391.32504056 -236.46484375 390.17675781 C-249.11617396 374.42569395 -259.59396171 357.37705486 -268 339 C-268.30244629 338.34 -268.60489258 337.68 -268.91650391 337 C-291.48566719 286.92654972 -295.71226252 222.54535294 -279 170 C-278.74879395 169.19675293 -278.49758789 168.39350586 -278.23876953 167.56591797 C-268.06431215 135.57214046 -251.86707228 105.9936793 -229.06640625 81.25 C-227.24386514 79.2655318 -225.49216442 77.24214108 -223.75 75.1875 C-220.49859063 71.45861093 -217.05112077 67.94259537 -213.5625 64.4375 C-212.77407715 63.64218872 -212.77407715 63.64218872 -211.96972656 62.83081055 C-199.76740056 50.67530133 -185.83254101 39.75398163 -171 31 C-169.97261719 30.37996094 -168.94523437 29.75992187 -167.88671875 29.12109375 C-118.53150021 0.03168582 -56.51391321 -11.49748153 0 0 Z M-107 25 C-108.15773926 25.32363525 -108.15773926 25.32363525 -109.33886719 25.65380859 C-120.74015502 28.93973932 -131.42895352 33.37459747 -142.125 38.5 C-143.7953833 39.30038696 -143.7953833 39.30038696 -145.49951172 40.11694336 C-155.56559546 45.06551038 -164.87906728 50.91536282 -173.8125 57.6875 C-174.48917725 58.19949951 -175.16585449 58.71149902 -175.86303711 59.23901367 C-192.23745281 71.74982468 -207.33037763 85.70070203 -220 102 C-220.87675243 103.07727733 -221.75577769 104.15270771 -222.63671875 105.2265625 C-238.14464802 124.27301278 -249.06513355 145.79804873 -257 169 C-257.54914063 170.57007813 -257.54914063 170.57007813 -258.109375 172.171875 C-265.45908348 194.4471453 -267.16035018 217.3442801 -267.25 240.625 C-267.25535767 241.39947479 -267.26071533 242.17394958 -267.26623535 242.97189331 C-267.34562418 258.1153121 -266.23320312 273.12457003 -262.9375 287.9375 C-262.72907471 288.87859619 -262.52064941 289.81969238 -262.3059082 290.78930664 C-258.2663135 308.14129862 -252.76813872 325.48783574 -244.05664062 341.08691406 C-242.91071724 343.16164966 -241.82183816 345.26126265 -240.734375 347.3671875 C-234.90256401 358.4841518 -227.97045116 368.3179306 -220 378 C-219.4647168 378.65097656 -218.92943359 379.30195312 -218.37792969 379.97265625 C-207.43998013 393.15411706 -195.64409064 405.59129671 -182 416 C-181.18740723 416.62720947 -181.18740723 416.62720947 -180.35839844 417.26708984 C-152.01006384 439.05699033 -119.51727404 454.39859731 -84 460 C-82.48031616 460.25946411 -82.48031616 460.25946411 -80.92993164 460.52416992 C-69.28524989 462.32302035 -57.69930268 462.44105522 -45.9375 462.4375 C-44.35053314 462.43860275 -44.35053314 462.43860275 -42.73150635 462.43972778 C-17.01877661 462.39291209 6.76710473 458.9513035 31 450 C31.70108887 449.74605469 32.40217773 449.49210937 33.12451172 449.23046875 C54.83362387 441.28798115 74.98290764 429.44387013 93 415 C93.98484375 414.21882813 94.9696875 413.43765625 95.984375 412.6328125 C110.5924274 400.79762737 124.02059022 387.2748423 135 372 C135.53447754 371.25669434 136.06895508 370.51338867 136.61962891 369.74755859 C140.11926576 364.85884433 143.57313507 359.9399484 147 355 C146.67 354.34 146.34 353.68 146 353 C145.48695313 353.4125 144.97390625 353.825 144.4453125 354.25 C120.61211293 372.22520776 88.46758051 377.42418681 59.34765625 374.65234375 C56.52618403 374.21114113 53.77861045 373.6564622 51 373 C50.08089844 372.80535156 49.16179687 372.61070312 48.21484375 372.41015625 C28.17383009 367.85170227 10.38343217 359.76771666 -5 346 C-5.97453125 345.16855469 -6.9490625 344.33710937 -7.953125 343.48046875 C-32.6847753 322.05935432 -46.3221247 292.41697572 -48.859375 260.04541016 C-51.15198423 226.6990905 -40.87573035 197.02970802 -19.390625 171.67578125 C0.46754092 149.44891253 26.70136208 131.69651609 57.17163086 129.15014648 C62.52280265 128.86607478 67.8720017 128.81404813 73.22998047 128.81469727 C75.23278907 128.81251872 77.23555816 128.79402517 79.23828125 128.77539062 C91.03394944 128.7579586 102.61026541 129.66572173 113.8125 133.5625 C114.55894775 133.81789551 115.30539551 134.07329102 116.07446289 134.33642578 C132.40033506 140.17799744 146.44828509 149.41981563 159.00390625 161.3125 C160.81892015 163.2152024 160.81892015 163.2152024 163 163 C163 163.66 163 164.32 163 165 C163.66 165 164.32 165 165 165 C163.02492661 157.60652153 160.32323638 150.82369123 157 143.9375 C156.51869629 142.9374292 156.03739258 141.9373584 155.54150391 140.90698242 C151.05181505 131.77658658 145.86843217 123.30069854 140 115 C139.25105469 113.9378125 138.50210937 112.875625 137.73046875 111.78125 C124.55040781 93.73287826 108.91307202 76.42305003 91 63 C90.36545898 62.51611816 89.73091797 62.03223633 89.07714844 61.53369141 C50.4009251 32.14725775 5.52680191 17.57619103 -42.85766602 17.68432617 C-45.7993688 17.6874859 -48.74006096 17.66391412 -51.68164062 17.63867188 C-70.48962403 17.57648537 -88.87666939 19.91760516 -107 25 Z " fill="#020201" transform="translate(1640,1441)"/>
<path d="M0 0 C1.572987 1.34197076 3.13565057 2.69614099 4.6875 4.0625 C5.49445313 4.72636719 6.30140625 5.39023437 7.1328125 6.07421875 C25.63532821 21.76365605 39.16096348 45.20550213 41.51757812 69.55371094 C43.58350009 100.05574275 38.13978835 127.38520012 17.6875 151.0625 C17.13449219 151.74828125 16.58148437 152.4340625 16.01171875 153.140625 C2.00171552 170.12650004 -21.30602173 183.8170295 -43.32714844 186.78125 C-49.85499192 187.3962382 -56.38572083 187.50589239 -62.9375 187.5625 C-63.62811523 187.57321533 -64.31873047 187.58393066 -65.03027344 187.5949707 C-78.83022348 187.75722665 -91.83339399 185.26271055 -104.4375 179.4375 C-105.18265869 179.09831543 -105.92781738 178.75913086 -106.69555664 178.40966797 C-114.23658409 174.84018922 -120.8517195 170.31137751 -127.3125 165.0625 C-128.27671875 164.28132812 -129.2409375 163.50015625 -130.234375 162.6953125 C-149.58922253 146.01952578 -163.36288793 121.7820549 -165.3125 96.0625 C-166.68988207 61.97935335 -159.22784438 35.99705176 -135.67407227 10.43041992 C-123.27871517 -2.53175254 -107.47960735 -11.90740417 -90.3125 -16.9375 C-89.22324219 -17.2571875 -88.13398437 -17.576875 -87.01171875 -17.90625 C-57.51332562 -25.12216497 -23.97265483 -18.86249643 0 0 Z " fill="#F79220" transform="translate(1776.3125,496.9375)"/>
<path d="M0 0 C1.50626953 0.38285156 1.50626953 0.38285156 3.04296875 0.7734375 C16.95843911 4.86732756 29.23943653 12.4289546 40 22 C40.8559375 22.67417969 41.711875 23.34835937 42.59375 24.04296875 C46.21316056 26.98667766 49.04721704 30.40222036 52 34 C52.71542969 34.86625 53.43085937 35.7325 54.16796875 36.625 C63.98477523 49.06074797 69.96805017 62.75367959 74 78 C74.36931641 79.34191406 74.36931641 79.34191406 74.74609375 80.7109375 C80.42207686 105.52868436 73.970226 133.71683671 61.13427734 155.19775391 C52.80389967 168.43383828 41.98063146 179.314846 29 188 C28.24589844 188.52207031 27.49179688 189.04414062 26.71484375 189.58203125 C21.48546688 192.9815747 15.96374521 195.3921309 10.1875 197.6875 C9.12196899 198.11591187 9.12196899 198.11591187 8.03491211 198.55297852 C-3.70000486 203.04213965 -15.09806613 204.58305355 -27.625 204.5 C-28.3242157 204.49856995 -29.0234314 204.49713989 -29.74383545 204.4956665 C-41.42028044 204.43673324 -52.02759531 203.14233568 -63 199 C-63.64018066 198.77006348 -64.28036133 198.54012695 -64.93994141 198.30322266 C-90.78277286 188.87975921 -111.52990392 167.95003657 -123.3125 143.4375 C-134.64624143 117.59908117 -135.23218077 89.45861111 -125.625 63 C-114.21526234 35.69935882 -92.44195108 14.07655878 -65.11816406 2.80908203 C-44.77143902 -4.96282286 -20.982395 -5.465403 0 0 Z " fill="#F79220" transform="translate(1743,1592)"/>
</svg>
