<?xml version="1.0" encoding="UTF-8"?>
<svg version="1.1" xmlns="http://www.w3.org/2000/svg" width="4000" height="2250">
<path d="M0 0 C1.06749481 0.00215515 2.13498962 0.0043103 3.23483276 0.00653076 C57.46791513 0.18140282 110.18156438 11.26211855 159 35.3125 C159.9271582 35.76915039 160.85431641 36.22580078 161.80957031 36.69628906 C174.06964878 42.79813922 185.71495862 49.55617353 197 57.3125 C197.92135742 57.94454346 197.92135742 57.94454346 198.86132812 58.58935547 C229.06825155 79.45233575 257.21915523 104.47857619 280 133.3125 C280.87910337 134.36789505 281.76076923 135.42115916 282.64453125 136.47265625 C308.80640747 167.89544145 328.25273365 204.92214266 341.10961914 243.62231445 C341.64275475 245.22584526 341.64275475 245.22584526 342.18666077 246.86177063 C342.45506271 247.67051132 342.72346466 248.47925201 343 249.3125 C371.87493282 250.09119615 400.73408881 250.47458261 429.61909103 250.54229546 C436.33687385 250.5581768 443.05461551 250.58209219 449.77236938 250.60719299 C468.83210651 250.67735452 487.89186111 250.73865762 506.95166016 250.78930664 C517.56919724 250.8175895 528.1866873 250.85290965 538.80417502 250.89596039 C545.47946689 250.92262255 552.15470621 250.94058921 558.83004069 250.95199764 C562.95591682 250.96111278 567.08172749 250.97846147 571.20756531 250.99817657 C573.11756489 251.00565019 575.02758121 251.00973302 576.93759537 251.01017189 C579.54319267 251.0112544 582.14845738 251.02449955 584.7539978 251.04075623 C585.50804283 251.03813937 586.26208787 251.03552252 587.03898275 251.03282636 C592.54943619 251.08655706 596.9434945 251.46150466 601.14200217 255.24044818 C603.8506179 259.71892913 603.53259573 263.62019436 603.46259016 268.76084518 C603.46401927 269.82413919 603.46544837 270.88743319 603.46692079 271.98294823 C603.4668258 275.54727249 603.43806501 279.11078706 603.4094305 282.67498779 C603.40350739 285.21784647 603.39934298 287.76070977 603.39681361 290.30357409 C603.38735371 295.78222332 603.36553642 301.26060318 603.33252067 306.7391572 C603.28415169 314.76677117 603.25823057 322.79434245 603.23723915 330.82206905 C603.20085231 344.48628528 603.14343382 358.15033829 603.07511777 371.81442861 C603.00416003 386.0202796 602.95127212 400.22613963 602.90391595 414.43209096 C602.80929559 442.46791404 602.67319778 470.50348295 602.52838711 498.5390848 C602.47742356 508.41610802 602.42818423 518.29313896 602.37988472 528.17017555 C602.37632556 528.89780437 602.37276639 529.62543319 602.36909937 530.37511137 C602.35459215 533.34182447 602.34009436 536.30853761 602.32560858 539.27525082 C602.18124205 568.840732 602.03287766 598.40619207 601.88275025 627.9716445 C601.86227965 632.00328894 601.84181518 636.03493341 601.82135701 640.06657791 C601.81525737 641.26859917 601.81525737 641.26859917 601.8090345 642.49490369 C601.71780114 660.47939725 601.62788036 678.46389731 601.53820536 696.4483987 C601.52583245 698.92978506 601.51345666 701.41117141 601.50107995 703.89255775 C601.46788626 710.54755113 601.43469493 717.20254451 601.40150861 723.85753793 C601.17108192 770.06286608 600.93938204 816.26818771 600.7049036 862.47349548 C600.70051887 863.33758161 600.69613414 864.20166773 600.69161653 865.09193828 C600.64274936 874.72181962 600.59386246 884.35170085 600.54496796 893.98158205 C600.53834939 895.28512792 600.53834939 895.28512792 600.53159712 896.61500806 C600.49578195 903.6688754 600.49578195 903.6688754 600.47806566 907.15786533 C600.19455214 962.99275754 599.91503914 1018.82766842 599.63891602 1074.66259766 C599.56898835 1088.80227676 599.49904912 1102.94195582 599.42903996 1117.08163452 C599.42472786 1117.95256584 599.42041577 1118.82349716 599.41597301 1119.72082034 C599.28304066 1146.56670355 599.14903004 1173.41258121 599.01388454 1200.25845337 C599.00964248 1201.10113357 599.00540041 1201.94381377 599.0010298 1202.81202974 C598.90790999 1221.30787438 598.81452081 1239.80371766 598.72088586 1258.2995597 C598.68739763 1264.91487582 598.65392615 1271.53019203 598.62046149 1278.14550827 C598.61213887 1279.7906578 598.60381516 1281.43580732 598.59549036 1283.08095684 C598.46328108 1309.20949599 598.33352582 1335.33804658 598.20498676 1361.46660402 C598.07221337 1388.45121683 597.93618812 1415.43581152 597.79648263 1442.42038935 C597.78148092 1445.3204378 597.76649315 1448.22048632 597.75151634 1451.1205349 C597.74783999 1451.83216438 597.74416364 1452.54379387 597.74037588 1453.27698788 C597.68243813 1464.50713247 597.62741315 1475.73728933 597.5736243 1486.96745448 C597.52058633 1498.02785571 597.46431688 1509.08823759 597.40491451 1520.14860668 C597.37328645 1526.05399201 597.34300056 1531.95937535 597.31661213 1537.86478662 C597.25909568 1550.56677879 597.17518064 1563.26783428 597.0255935 1575.96909872 C597.00132124 1578.19152457 596.98334018 1580.41390614 596.96732752 1582.63640475 C596.93439618 1586.22438892 596.87030317 1589.80987569 596.79074764 1593.39707947 C596.78634787 1594.35910768 596.78194811 1595.32113589 596.77741501 1596.31231648 C596.64327771 1600.55021825 596.32040365 1603.46572526 593.69103295 1606.88589627 C590.10012655 1610.12394911 587.15114579 1610.13864081 582.53930664 1610.04075623 C581.68882122 1610.04658834 580.8383358 1610.05242046 579.96207809 1610.0584293 C577.11068933 1610.07065644 574.26138478 1610.039989 571.41015625 1610.00952148 C569.36423085 1610.00946608 567.31830393 1610.01203971 565.27238464 1610.01704407 C559.70135408 1610.02305227 554.13107733 1609.99177037 548.56019592 1609.95379519 C542.68892315 1609.91988482 536.81764463 1609.919406 530.94628906 1609.91505432 C521.04300003 1609.90307236 511.13998781 1609.86924969 501.23681641 1609.82006836 C487.43477271 1609.75155328 473.63285684 1609.72141825 459.83067131 1609.69966781 C448.97043016 1609.68112097 438.11021179 1609.65210278 427.25 1609.62109375 C426.115732 1609.61792231 424.981464 1609.61475088 423.81282425 1609.61148334 C392.86424254 1609.52147002 361.93838243 1609.12289473 331 1608.3125 C330.79689429 1608.93058627 330.59378859 1609.54867254 330.38452816 1610.1854887 C330.11655705 1610.99622247 329.84858595 1611.80695623 329.57249451 1612.64225769 C329.3075138 1613.44596896 329.04253309 1614.24968023 328.76952267 1615.07774639 C327.90885154 1617.57720222 326.8922983 1619.93057588 325.72265625 1622.30078125 C325.29791016 1623.16171387 324.87316406 1624.02264648 324.43554688 1624.90966797 C323.75588867 1626.25375732 323.75588867 1626.25375732 323.0625 1627.625 C322.58232422 1628.57777832 322.10214844 1629.53055664 321.60742188 1630.51220703 C311.08886541 1651.0832649 298.35370393 1670.23573094 284 1688.3125 C283.26136719 1689.24578125 282.52273438 1690.1790625 281.76171875 1691.140625 C276.91980076 1697.1607717 271.81157162 1702.8768959 266.55859375 1708.53515625 C264.4704719 1710.80180455 262.43993504 1713.09582891 260.4375 1715.4375 C254.56465834 1722.19548286 248.15860981 1728.49183676 241.34765625 1734.30078125 C239.50152688 1735.88273903 237.68252912 1737.48448426 235.87109375 1739.10546875 C166.26480902 1801.00882529 76.6558016 1829.07621377 -22.43017578 1826.08984375 C-66.74064947 1823.37366796 -110.71322717 1813.11553975 -151 1794.3125 C-152.33490479 1793.69036621 -152.33490479 1793.69036621 -153.69677734 1793.05566406 C-179.5658599 1780.85768261 -203.25224661 1765.19366391 -225.15478516 1746.84912109 C-226.82240511 1745.46039392 -228.5065952 1744.09629795 -230.19921875 1742.73828125 C-238.74025512 1735.77504859 -246.50952724 1728.01544666 -254.3125 1720.25 C-255.15261627 1719.41778427 -255.15261627 1719.41778427 -256.00970459 1718.5687561 C-263.15873798 1711.47172473 -269.72677767 1704.20341216 -276 1696.3125 C-276.93469458 1695.21059978 -277.87606468 1694.11427485 -278.828125 1693.02734375 C-295.8940984 1673.45652587 -331 1632.78012402 -331 1605.3125 C-350.93485468 1605.26541637 -370.86969781 1605.23033551 -390.8045969 1605.20887566 C-400.06433045 1605.19863894 -409.32402911 1605.18472758 -418.58374023 1605.16162109 C-426.67085467 1605.14145061 -434.7579438 1605.12872863 -442.8450827 1605.12432301 C-447.11228987 1605.12175486 -451.37942477 1605.11588572 -455.64660835 1605.10103989 C-474.62591038 1605.03755278 -493.4172214 1605.47770322 -512.34861755 1606.85412598 C-520.25804224 1607.42444849 -528.11770156 1607.6180792 -536.046875 1607.61328125 C-537.47697634 1607.61849678 -538.90707592 1607.62421632 -540.33717346 1607.63038635 C-544.80818606 1607.64506983 -549.27899021 1607.63630254 -553.75 1607.625 C-555.31391391 1607.62277437 -556.8778279 1607.62059802 -558.44174194 1607.61846924 C-637.71543871 1607.46926347 -715.5729285 1594.8732491 -941 1489.3125 C-941.94069336 1488.65967041 -941.94069336 1488.65967041 -942.90039062 1487.99365234 C-968.38715937 1470.26952954 -992.56628768 1450.21397578 -1015.21044922 1428.98876953 C-1017.15849526 1427.16403773 -1019.11251852 1425.34581805 -1021.06640625 1423.52734375 C-1028.32237756 1416.75653894 -1035.50707395 1409.9174352 -1042.5625 1402.9375 C-1043.21202637 1402.30094482 -1043.86155273 1401.66438965 -1044.53076172 1401.00854492 C-1046.06034424 1399.48209936 -1047.53613736 1397.9020801 -1049 1396.3125 C-1049 1395.6525 -1049 1394.9925 -1049 1394.3125 C-1049.66 1394.3125 -1050.32 1394.3125 -1051 1394.3125 C-1052.26953125 1393.0546875 -1052.26953125 1393.0546875 -1053.8125 1391.1875 C-1057.21631416 1387.17256264 -1060.76979026 1383.33235458 -1064.375 1379.5 C-1069.12176054 1374.43051928 -1073.62154104 1369.23571646 -1077.96484375 1363.8125 C-1079.87023067 1361.47190954 -1081.84420891 1359.2318189 -1083.875 1357 C-1089.23302431 1351.02090804 -1094.11843713 1344.68040737 -1099 1338.3125 C-1099.84159668 1337.21566895 -1099.84159668 1337.21566895 -1100.70019531 1336.09667969 C-1114.67991622 1317.81314146 -1128.07901208 1299.14160694 -1139.8046875 1279.32226562 C-1140.93719529 1277.41809812 -1142.08887877 1275.527447 -1143.25 1273.640625 C-1149.38763471 1263.63147516 -1154.99690463 1253.34457348 -1160.55078125 1243.00244141 C-1161.86590802 1240.56139243 -1163.1961672 1238.12938733 -1164.53125 1235.69921875 C-1201.92970267 1166.99060929 -1223.71420496 1087.8009765 -1233.75 991.4375 C-1233.80934723 990.73661255 -1233.86869446 990.0357251 -1233.92984009 989.31359863 C-1235.62455273 968.87057918 -1236.23801014 948.38354654 -1236.25 927.875 C-1236.25067474 926.81233917 -1236.25134949 925.74967834 -1236.25204468 924.65481567 C-1236.15947959 831.18916191 -1219.13076489 739.82760831 -1165 618.3125 C-1164.48824219 617.28495605 -1163.97648437 616.25741211 -1163.44921875 615.19873047 C-1146.22360111 580.84407681 -1124.99941619 548.144392 -1101.26074219 517.92041016 C-1099.94082099 516.23702498 -1098.63012883 514.54672547 -1097.3203125 512.85546875 C-1088.94841146 502.07841356 -1080.21331011 491.66332541 -1071.03515625 481.5625 C-1069.22622457 479.56260625 -1067.45108199 477.53980568 -1065.6875 475.5 C-1055.62784284 463.9987203 -1044.96908506 453.12243686 -1034.15332031 442.33544922 C-1031.73646008 439.92399034 -1029.3250471 437.50717561 -1026.9140625 435.08984375 C-1025.35448749 433.53092898 -1023.7946026 431.97232414 -1022.234375 430.4140625 C-1021.17159332 429.34824448 -1021.17159332 429.34824448 -1020.08734131 428.26089478 C-1016.10149361 424.29348535 -1012.01998668 420.49654986 -1007.75538635 416.82977295 C-1005.17134464 414.59624949 -1002.68677804 412.26549884 -1000.1875 409.9375 C-995.59575319 405.70063583 -990.89045886 401.65844117 -986.01953125 397.7421875 C-983.7933284 395.95085739 -981.58511884 394.14511697 -979.38671875 392.3203125 C-970.28124575 384.79003825 -960.89817604 377.77106142 -951.26464844 370.93310547 C-949.03919968 369.34055169 -946.83351234 367.72419597 -944.6328125 366.09765625 C-895.8014988 330.10203335 -840.9406127 302.83704632 -784 282.3125 C-782.91783203 281.9211084 -781.83566406 281.5297168 -780.72070312 281.12646484 C-737.77126202 265.76961867 -692.56914776 256.20008505 -647.35898161 250.60456944 C-645.83561991 250.41595949 -644.31243057 250.22594971 -642.78945589 250.03423977 C-611.19153764 246.07494606 -579.7487593 245.76524646 -547.94304039 245.89834677 C-540.74769961 245.92763849 -533.55238875 245.93300913 -526.35699685 245.93753174 C-513.53563308 245.94618714 -500.71437378 245.97253044 -487.89306641 246.01074219 C-475.47249863 246.04772004 -463.0519597 246.07590377 -450.63134766 246.09277344 C-449.8597892 246.09382433 -449.08823075 246.09487523 -448.29329173 246.09595796 C-444.42083189 246.10117986 -440.54837184 246.10623427 -436.67591166 246.11120558 C-404.7838646 246.15236215 -372.89194884 246.22284274 -341 246.3125 C-340.79944567 245.73632274 -340.59889133 245.16014547 -340.3922596 244.56650829 C-339.47491925 241.93290165 -338.556076 239.29982172 -337.63720703 236.66674805 C-337.32173416 235.76033318 -337.00626129 234.8539183 -336.68122864 233.92003632 C-334.58307247 227.91206889 -332.41416446 221.96297344 -329.875 216.125 C-329.50721436 215.27736084 -329.13942871 214.42972168 -328.76049805 213.55639648 C-314.52530178 181.40423678 -295.58550517 151.42665919 -272 125.3125 C-271.21157715 124.43795166 -270.4231543 123.56340332 -269.61083984 122.66235352 C-263.41237067 115.82367321 -257.0472526 109.17340055 -250.52050781 102.64770508 C-248.99513287 101.12012584 -247.47799328 99.58466418 -245.9609375 98.04882812 C-239.63170564 91.68397004 -233.02534534 85.91353851 -226 80.3125 C-224.88633536 79.36612598 -223.77827673 78.41305195 -222.6796875 77.44921875 C-214.23063294 70.07100537 -205.30281995 63.57182981 -196 57.3125 C-195.28134766 56.82668457 -194.56269531 56.34086914 -193.82226562 55.84033203 C-152.8666146 28.40517905 -106.6031855 12.06572257 -58.1875 4.0625 C-57.28386719 3.91135742 -56.38023438 3.76021484 -55.44921875 3.60449219 C-37.03988837 0.74096222 -18.60471837 -0.06818054 0 0 Z M-3 330.3125 C-2 332.3125 -2 332.3125 -2 332.3125 Z M-2 333.3125 C-1 336.3125 -1 336.3125 -1 336.3125 Z M-1 337.3125 C0 341.3125 0 341.3125 0 341.3125 Z M0 341.3125 C0.33 354.1825 0.66 367.0525 1 380.3125 C1.33 380.3125 1.66 380.3125 2 380.3125 C3.44597297 366.96307097 2.74111986 354.57299319 1 341.3125 C0.67 341.3125 0.34 341.3125 0 341.3125 Z M0 380.3125 C0 382.2925 0 384.2725 0 386.3125 C0.33 386.3125 0.66 386.3125 1 386.3125 C1 384.3325 1 382.3525 1 380.3125 C0.67 380.3125 0.34 380.3125 0 380.3125 Z M-1 387.3125 C0 391.3125 0 391.3125 0 391.3125 Z M-2 392.3125 C-1 395.3125 -1 395.3125 -1 395.3125 Z M-3 396.3125 C-2 398.3125 -2 398.3125 -2 398.3125 Z " fill="#F79220" transform="translate(2212,220.6875)"/>
<path d="M0 0 C2.85486406 0.01606009 5.70940278 0.00588768 8.5642767 -0.00373173 C25.54622185 -0.04932701 42.14681668 0.79128503 58.94989014 3.44952393 C59.94966385 3.60357697 60.94943756 3.75763 61.97950745 3.91635132 C104.75002024 10.53501093 148.07451915 25.81281225 183.94989014 50.44952393 C185.43237523 51.43738581 186.91551466 52.42426605 188.39910889 53.41046143 C197.71454831 59.64508069 206.46422353 66.11929947 214.94989014 73.44952393 C216.67653189 74.82769322 218.40573479 76.20265945 220.13739014 77.57452393 C237.38421865 91.69458928 253.18436895 107.93202855 266.94989014 125.44952393 C267.81615692 126.5244853 268.68339559 127.59866397 269.55145264 128.67218018 C284.62462473 147.42323841 297.69605339 167.75927316 308.01873779 189.50616455 C308.95626702 191.46283278 309.92455507 193.40169216 310.89910889 195.34014893 C322.57044848 218.87821243 330.46378557 244.58686084 334.94989014 270.44952393 C335.07460693 271.14513428 335.19932373 271.84074463 335.32781982 272.55743408 C339.21449244 294.4139696 340.36267809 316.27639451 340.32489014 338.44952393 C340.32467865 339.60562164 340.32446716 340.76171936 340.32424927 341.95285034 C340.29054823 360.48474721 339.22017719 378.19493318 335.94989014 396.44952393 C335.59415693 398.65630322 335.23998091 400.86333412 334.88739014 403.07061768 C326.78579086 451.32702974 305.52449155 497.63869053 275.94989014 536.44952393 C275.457146 537.09921143 274.96440186 537.74889893 274.45672607 538.41827393 C269.30416455 545.18209376 263.9884992 551.7226834 258.21551514 557.97296143 C256.34815256 560.0141819 254.53680811 562.08484871 252.73114014 564.17999268 C248.73091301 568.76176004 244.5017316 573.08930519 240.19989014 577.38702393 C239.01181763 578.57497559 239.01181763 578.57497559 237.79974365 579.78692627 C232.83408554 584.70445281 227.80561802 589.29795458 222.29364014 593.59796143 C220.04754204 595.37237892 217.97769474 597.24589308 215.88739014 599.19952393 C208.76440608 605.59619297 200.78429822 610.97139276 192.94989014 616.44952393 C192.29681885 616.90649658 191.64374756 617.36346924 190.97088623 617.83428955 C166.31680263 634.95897055 139.47334728 648.09948988 110.94989014 657.44952393 C110.03658936 657.75197021 109.12328857 658.0544165 108.18231201 658.36602783 C47.3087639 678.19540634 -26.51063321 680.80325851 -87.95733643 662.07745361 C-90.03050553 661.45540614 -92.11102093 660.8729171 -94.19854736 660.30108643 C-146.60713947 645.79552196 -191.67187747 615.89775197 -231.05010986 579.13702393 C-232.0913501 578.16865601 -232.0913501 578.16865601 -233.15362549 577.1807251 C-237.15639285 573.40468453 -240.86515125 569.48631023 -244.44659424 565.30914307 C-246.65773879 562.7448483 -248.98194395 560.29201954 -251.30010986 557.82452393 C-257.29256294 551.33908646 -262.73964943 544.49946541 -268.05010986 537.44952393 C-268.56331787 536.77147705 -269.07652588 536.09343018 -269.60528564 535.39483643 C-278.26335896 523.88937119 -285.92590481 511.95887345 -293.05010986 499.44952393 C-293.45181396 498.75069092 -293.85351807 498.05185791 -294.26739502 497.33184814 C-305.34400372 477.89232909 -313.56311596 456.8225481 -320.05010986 435.44952393 C-320.4419043 434.20018066 -320.4419043 434.20018066 -320.84161377 432.92559814 C-324.46844123 421.26105793 -326.90448974 409.50174348 -328.80010986 397.44952393 C-328.99878662 396.19357422 -329.19746338 394.93762451 -329.40216064 393.64361572 C-332.29791608 374.23560273 -333.4325504 354.93891756 -333.36260986 335.32452393 C-333.35987564 333.72094025 -333.35987564 333.72094025 -333.35708618 332.08496094 C-333.30923644 315.36061851 -332.68565579 298.99431911 -330.05010986 282.44952393 C-329.80067627 280.81128662 -329.80067627 280.81128662 -329.54620361 279.13995361 C-322.38421682 233.15734582 -305.17667981 187.4645949 -278.05010986 149.44952393 C-277.55817139 148.75681396 -277.06623291 148.064104 -276.55938721 147.35040283 C-269.10621425 136.90011692 -261.33207648 126.87374309 -252.74346924 117.331604 C-251.50417871 115.95419761 -250.27210368 114.57028982 -249.04425049 113.18267822 C-243.2888356 106.7103899 -237.29660465 100.51278754 -231.17510986 94.38702393 C-230.25858643 93.45825439 -229.34206299 92.52948486 -228.39776611 91.5725708 C-222.26063076 85.4224879 -215.83738505 79.86535969 -209.05010986 74.44952393 C-207.23502956 72.89002208 -205.42194661 71.32818581 -203.61260986 69.76202393 C-176.30261724 47.07965521 -144.46033818 30.24529774 -111.17364502 18.22491455 C-109.43909948 17.59156014 -107.71713395 16.92384328 -105.99932861 16.24639893 C-90.75684959 10.27267464 -74.1051609 7.3725485 -58.05010986 4.44952393 C-57.11319305 4.27662338 -56.17627625 4.10372284 -55.21096802 3.92558289 C-36.72403209 0.60204645 -18.70517119 -0.14930743 0 0 Z " fill="#F79220" transform="translate(2209.0501098632813,1352.5504760742188)"/>
<path d="M0 0 C0.9271582 0.24476074 1.85431641 0.48952148 2.80957031 0.74169922 C48.02534554 12.75346403 89.95894355 36.23838292 125 67 C125.7321875 67.63292969 126.464375 68.26585937 127.21875 68.91796875 C129.15761157 70.59908484 131.07987335 72.29753952 133 74 C133.71929688 74.62648438 134.43859375 75.25296875 135.1796875 75.8984375 C140.52542438 80.61320216 145.63866163 85.53421828 150.6875 90.5625 C151.3050415 91.17544922 151.92258301 91.78839844 152.55883789 92.41992188 C156.90667296 96.78227489 161.00269587 101.31549005 165 106 C165.54519287 106.63848877 166.09038574 107.27697754 166.65209961 107.93481445 C214.48577573 164.40066777 244.86037595 235.63179173 245.203125 310.2734375 C245.21018463 311.30733612 245.21724426 312.34123474 245.22451782 313.40646362 C245.44936411 356.05018019 242.02266977 396.40983701 228 437 C227.68836914 437.90862793 227.37673828 438.81725586 227.05566406 439.75341797 C213.25585622 479.36397753 191.24520505 514.3904775 164 546 C163.40832031 546.69351563 162.81664063 547.38703125 162.20703125 548.1015625 C146.83111179 565.94522212 146.83111179 565.94522212 138.06640625 573.24609375 C135.94441404 575.04717976 133.9153876 576.93249182 131.88623047 578.83691406 C114.74330372 594.86651988 95.25731506 608.23056942 75 620 C74.16903809 620.4846875 73.33807617 620.969375 72.48193359 621.46875 C53.01617197 632.71970385 32.6249807 641.80486068 11 648 C9.70132537 648.41498258 8.40447135 648.83570021 7.109375 649.26171875 C-41.60521223 665.25603171 -95.6277021 666.81715467 -146 659 C-147.36318359 658.79238037 -147.36318359 658.79238037 -148.75390625 658.58056641 C-153.52895239 657.83810496 -158.26042585 656.94594411 -163 656 C-164.35641308 655.76872526 -165.71320129 655.53964226 -167.0703125 655.3125 C-199.00793462 649.64371568 -230.10654038 636.16490255 -258 620 C-258.88187988 619.48953125 -259.76375977 618.9790625 -260.67236328 618.453125 C-279.4423494 607.4719032 -296.71454879 594.39025662 -313 580 C-314.41345703 578.75283203 -314.41345703 578.75283203 -315.85546875 577.48046875 C-322.01781577 571.93352481 -327.93736583 566.16096365 -333.8125 560.3125 C-334.51793945 559.6117334 -335.22337891 558.9109668 -335.95019531 558.18896484 C-340.50326113 553.62193257 -344.82000354 548.90984672 -349 544 C-349.54938232 543.35732178 -350.09876465 542.71464355 -350.66479492 542.05249023 C-388.27288078 497.74942367 -413.51576016 444.78787192 -423.6875 387.5625 C-423.89020508 386.43287842 -424.09291016 385.30325684 -424.30175781 384.1394043 C-427.4731463 365.44594868 -428.350364 346.86033257 -428.31567383 327.91821289 C-428.31251878 324.33383569 -428.33606429 320.75029146 -428.36132812 317.16601562 C-428.41959565 296.26301037 -426.67807827 275.62988878 -422.1875 255.1875 C-421.92815674 253.97868164 -421.66881348 252.76986328 -421.40161133 251.52441406 C-419.06452555 240.86521231 -416.35712748 230.38318403 -413 220 C-412.69787598 219.05833984 -412.39575195 218.11667969 -412.08447266 217.14648438 C-400.06073107 180.31961976 -380.82229615 145.75164372 -356 116 C-355.19119385 115.02353516 -354.3823877 114.04707031 -353.54907227 113.04101562 C-346.13043857 104.18141451 -338.22061746 95.90987375 -330.02709961 87.76635742 C-327.92910492 85.67914808 -325.84210885 83.5813641 -323.75585938 81.48242188 C-316.47801846 74.1969996 -309.14518604 67.3175026 -301 61 C-299.80691118 60.03593273 -298.61527909 59.07005695 -297.42578125 58.1015625 C-269.66553877 36.01875983 -239.12988118 19.61609242 -206 7 C-205.2584668 6.71543945 -204.51693359 6.43087891 -203.75292969 6.13769531 C-191.54802808 1.53054702 -178.70072585 -1.14457703 -166 -4 C-165.12150391 -4.20012695 -164.24300781 -4.40025391 -163.33789062 -4.60644531 C-157.58400942 -5.90095523 -151.81340668 -7.00824918 -146 -8 C-144.72914551 -8.22647217 -144.72914551 -8.22647217 -143.43261719 -8.45751953 C-96.87493448 -16.38241338 -45.43162796 -12.430735 0 0 Z M-95 298 C-94 300 -94 300 -94 300 Z M-94 301 C-93 304 -93 304 -93 304 Z M-93 305 C-92 309 -92 309 -92 309 Z M-92 309 C-91.67 321.87 -91.34 334.74 -91 348 C-90.67 348 -90.34 348 -90 348 C-88.55402703 334.65057097 -89.25888014 322.26049319 -91 309 C-91.33 309 -91.66 309 -92 309 Z M-92 348 C-92 349.98 -92 351.96 -92 354 C-91.67 354 -91.34 354 -91 354 C-91 352.02 -91 350.04 -91 348 C-91.33 348 -91.66 348 -92 348 Z M-93 355 C-92 359 -92 359 -92 359 Z M-94 360 C-93 363 -93 363 -93 363 Z M-95 364 C-94 366 -94 366 -94 366 Z " fill="#F79220" transform="translate(2304,253)"/>
<path d="M0 0 C1.06749481 0.00215515 2.13498962 0.0043103 3.23483276 0.00653076 C57.46791513 0.18140282 110.18156438 11.26211855 159 35.3125 C159.9271582 35.76915039 160.85431641 36.22580078 161.80957031 36.69628906 C174.06964878 42.79813922 185.71495862 49.55617353 197 57.3125 C197.92135742 57.94454346 197.92135742 57.94454346 198.86132812 58.58935547 C229.06825155 79.45233575 257.21915523 104.47857619 280 133.3125 C280.87910337 134.36789505 281.76076923 135.42115916 282.64453125 136.47265625 C308.80640747 167.89544145 328.25273365 204.92214266 341.10961914 243.62231445 C341.64275475 245.22584526 341.64275475 245.22584526 342.18666077 246.86177063 C342.45506271 247.67051132 342.72346466 248.47925201 343 249.3125 C371.87493282 250.09119615 400.73408881 250.47458261 429.61909103 250.54229546 C436.33687385 250.5581768 443.05461551 250.58209219 449.77236938 250.60719299 C468.83210651 250.67735452 487.89186111 250.73865762 506.95166016 250.78930664 C517.56919724 250.8175895 528.1866873 250.85290965 538.80417502 250.89596039 C545.47946689 250.92262255 552.15470621 250.94058921 558.83004069 250.95199764 C562.95591682 250.96111278 567.08172749 250.97846147 571.20756531 250.99817657 C573.11756489 251.00565019 575.02758121 251.00973302 576.93759537 251.01017189 C579.54319267 251.0112544 582.14845738 251.02449955 584.7539978 251.04075623 C585.50804283 251.03813937 586.26208787 251.03552252 587.03898275 251.03282636 C592.54943619 251.08655706 596.9434945 251.46150466 601.14200217 255.24044818 C603.8506179 259.71892913 603.53259573 263.62019436 603.46259016 268.76084518 C603.46401927 269.82413919 603.46544837 270.88743319 603.46692079 271.98294823 C603.4668258 275.54727249 603.43806501 279.11078706 603.4094305 282.67498779 C603.40350739 285.21784647 603.39934298 287.76070977 603.39681361 290.30357409 C603.38735371 295.78222332 603.36553642 301.26060318 603.33252067 306.7391572 C603.28415169 314.76677117 603.25823057 322.79434245 603.23723915 330.82206905 C603.20085231 344.48628528 603.14343382 358.15033829 603.07511777 371.81442861 C603.00416003 386.0202796 602.95127212 400.22613963 602.90391595 414.43209096 C602.80929559 442.46791404 602.67319778 470.50348295 602.52838711 498.5390848 C602.47742356 508.41610802 602.42818423 518.29313896 602.37988472 528.17017555 C602.37632556 528.89780437 602.37276639 529.62543319 602.36909937 530.37511137 C602.35459215 533.34182447 602.34009436 536.30853761 602.32560858 539.27525082 C602.18124205 568.840732 602.03287766 598.40619207 601.88275025 627.9716445 C601.86227965 632.00328894 601.84181518 636.03493341 601.82135701 640.06657791 C601.81525737 641.26859917 601.81525737 641.26859917 601.8090345 642.49490369 C601.71780114 660.47939725 601.62788036 678.46389731 601.53820536 696.4483987 C601.52583245 698.92978506 601.51345666 701.41117141 601.50107995 703.89255775 C601.46788626 710.54755113 601.43469493 717.20254451 601.40150861 723.85753793 C601.17108192 770.06286608 600.93938204 816.26818771 600.7049036 862.47349548 C600.70051887 863.33758161 600.69613414 864.20166773 600.69161653 865.09193828 C600.64274936 874.72181962 600.59386246 884.35170085 600.54496796 893.98158205 C600.53834939 895.28512792 600.53834939 895.28512792 600.53159712 896.61500806 C600.49578195 903.6688754 600.49578195 903.6688754 600.47806566 907.15786533 C600.19455214 962.99275754 599.91503914 1018.82766842 599.63891602 1074.66259766 C599.56898835 1088.80227676 599.49904912 1102.94195582 599.42903996 1117.08163452 C599.42472786 1117.95256584 599.42041577 1118.82349716 599.41597301 1119.72082034 C599.28304066 1146.56670355 599.14903004 1173.41258121 599.01388454 1200.25845337 C599.00964248 1201.10113357 599.00540041 1201.94381377 599.0010298 1202.81202974 C598.90790999 1221.30787438 598.81452081 1239.80371766 598.72088586 1258.2995597 C598.68739763 1264.91487582 598.65392615 1271.53019203 598.62046149 1278.14550827 C598.61213887 1279.7906578 598.60381516 1281.43580732 598.59549036 1283.08095684 C598.46328108 1309.20949599 598.33352582 1335.33804658 598.20498676 1361.46660402 C598.07221337 1388.45121683 597.93618812 1415.43581152 597.79648263 1442.42038935 C597.78148092 1445.3204378 597.76649315 1448.22048632 597.75151634 1451.1205349 C597.74783999 1451.83216438 597.74416364 1452.54379387 597.74037588 1453.27698788 C597.68243813 1464.50713247 597.62741315 1475.73728933 597.5736243 1486.96745448 C597.52058633 1498.02785571 597.46431688 1509.08823759 597.40491451 1520.14860668 C597.37328645 1526.05399201 597.34300056 1531.95937535 597.31661213 1537.86478662 C597.25909568 1550.56677879 597.17518064 1563.26783428 597.0255935 1575.96909872 C597.00132124 1578.19152457 596.98334018 1580.41390614 596.96732752 1582.63640475 C596.93439618 1586.22438892 596.87030317 1589.80987569 596.79074764 1593.39707947 C596.78634787 1594.35910768 596.78194811 1595.32113589 596.77741501 1596.31231648 C596.64327771 1600.55021825 596.32040365 1603.46572526 593.69103295 1606.88589627 C590.10012655 1610.12394911 587.15114579 1610.13864081 582.53930664 1610.04075623 C581.68882122 1610.04658834 580.8383358 1610.05242046 579.96207809 1610.0584293 C577.11068933 1610.07065644 574.26138478 1610.039989 571.41015625 1610.00952148 C569.36423085 1610.00946608 567.31830393 1610.01203971 565.27238464 1610.01704407 C559.70135408 1610.02305227 554.13107733 1609.99177037 548.56019592 1609.95379519 C542.68892315 1609.91988482 536.81764463 1609.919406 530.94628906 1609.91505432 C521.04300003 1609.90307236 511.13998781 1609.86924969 501.23681641 1609.82006836 C487.43477271 1609.75155328 473.63285684 1609.72141825 459.83067131 1609.69966781 C448.97043016 1609.68112097 438.11021179 1609.65210278 427.25 1609.62109375 C426.115732 1609.61792231 424.981464 1609.61475088 423.81282425 1609.61148334 C392.86424254 1609.52147002 361.93838243 1609.12289473 331 1608.3125 C330.79689429 1608.93058627 330.59378859 1609.54867254 330.38452816 1610.1854887 C330.11655705 1610.99622247 329.84858595 1611.80695623 329.57249451 1612.64225769 C329.3075138 1613.44596896 329.04253309 1614.24968023 328.76952267 1615.07774639 C327.90885154 1617.57720222 326.8922983 1619.93057588 325.72265625 1622.30078125 C325.29791016 1623.16171387 324.87316406 1624.02264648 324.43554688 1624.90966797 C323.75588867 1626.25375732 323.75588867 1626.25375732 323.0625 1627.625 C322.58232422 1628.57777832 322.10214844 1629.53055664 321.60742188 1630.51220703 C311.08886541 1651.0832649 298.35370393 1670.23573094 284 1688.3125 C283.26136719 1689.24578125 282.52273438 1690.1790625 281.76171875 1691.140625 C276.91980076 1697.1607717 271.81157162 1702.8768959 266.55859375 1708.53515625 C264.4704719 1710.80180455 262.43993504 1713.09582891 260.4375 1715.4375 C254.56465834 1722.19548286 248.15860981 1728.49183676 241.34765625 1734.30078125 C239.50152688 1735.88273903 237.68252912 1737.48448426 235.87109375 1739.10546875 C166.26480902 1801.00882529 76.6558016 1829.07621377 -22.43017578 1826.08984375 C-66.74064947 1823.37366796 -110.71322717 1813.11553975 -151 1794.3125 C-152.33490479 1793.69036621 -152.33490479 1793.69036621 -153.69677734 1793.05566406 C-179.5658599 1780.85768261 -203.25224661 1765.19366391 -225.15478516 1746.84912109 C-226.82240511 1745.46039392 -228.5065952 1744.09629795 -230.19921875 1742.73828125 C-238.74025512 1735.77504859 -246.50952724 1728.01544666 -254.3125 1720.25 C-255.15261627 1719.41778427 -255.15261627 1719.41778427 -256.00970459 1718.5687561 C-263.15873798 1711.47172473 -269.72677767 1704.20341216 -276 1696.3125 C-276.93469458 1695.21059978 -277.87606468 1694.11427485 -278.828125 1693.02734375 C-295.8940984 1673.45652587 -331 1632.78012402 -331 1605.3125 C-350.93485468 1605.26541637 -370.86969781 1605.23033551 -390.8045969 1605.20887566 C-400.06433045 1605.19863894 -409.32402911 1605.18472758 -418.58374023 1605.16162109 C-426.67085467 1605.14145061 -434.7579438 1605.12872863 -442.8450827 1605.12432301 C-447.11228987 1605.12175486 -451.37942477 1605.11588572 -455.64660835 1605.10103989 C-474.62591038 1605.03755278 -493.4172214 1605.47770322 -512.34861755 1606.85412598 C-520.25804224 1607.42444849 -528.11770156 1607.6180792 -536.046875 1607.61328125 C-537.47697634 1607.61849678 -538.90707592 1607.62421632 -540.33717346 1607.63038635 C-544.80818606 1607.64506983 -549.27899021 1607.63630254 -553.75 1607.625 C-555.31391391 1607.62277437 -556.8778279 1607.62059802 -558.44174194 1607.61846924 C-637.71543871 1607.46926347 -715.5729285 1594.8732491 -941 1489.3125 C-941.94069336 1488.65967041 -941.94069336 1488.65967041 -942.90039062 1487.99365234 C-968.38715937 1470.26952954 -992.56628768 1450.21397578 -1015.21044922 1428.98876953 C-1017.15849526 1427.16403773 -1019.11251852 1425.34581805 -1021.06640625 1423.52734375 C-1028.32237756 1416.75653894 -1035.50707395 1409.9174352 -1042.5625 1402.9375 C-1043.21202637 1402.30094482 -1043.86155273 1401.66438965 -1044.53076172 1401.00854492 C-1046.06034424 1399.48209936 -1047.53613736 1397.9020801 -1049 1396.3125 C-1049 1395.6525 -1049 1394.9925 -1049 1394.3125 C-1049.66 1394.3125 -1050.32 1394.3125 -1051 1394.3125 C-1052.26953125 1393.0546875 -1052.26953125 1393.0546875 -1053.8125 1391.1875 C-1057.21631416 1387.17256264 -1060.76979026 1383.33235458 -1064.375 1379.5 C-1069.12176054 1374.43051928 -1073.62154104 1369.23571646 -1077.96484375 1363.8125 C-1079.87023067 1361.47190954 -1081.84420891 1359.2318189 -1083.875 1357 C-1089.23302431 1351.02090804 -1094.11843713 1344.68040737 -1099 1338.3125 C-1099.84159668 1337.21566895 -1099.84159668 1337.21566895 -1100.70019531 1336.09667969 C-1114.67991622 1317.81314146 -1128.07901208 1299.14160694 -1139.8046875 1279.32226562 C-1140.93719529 1277.41809812 -1142.08887877 1275.527447 -1143.25 1273.640625 C-1149.38763471 1263.63147516 -1154.99690463 1253.34457348 -1160.55078125 1243.00244141 C-1161.86590802 1240.56139243 -1163.1961672 1238.12938733 -1164.53125 1235.69921875 C-1201.92970267 1166.99060929 -1223.71420496 1087.8009765 -1233.75 991.4375 C-1233.80934723 990.73661255 -1233.86869446 990.0357251 -1233.92984009 989.31359863 C-1235.62455273 968.87057918 -1236.23801014 948.38354654 -1236.25 927.875 C-1236.25067474 926.81233917 -1236.25134949 925.74967834 -1236.25204468 924.65481567 C-1236.15947959 831.18916191 -1219.13076489 739.82760831 -1165 618.3125 C-1164.48824219 617.28495605 -1163.97648437 616.25741211 -1163.44921875 615.19873047 C-1146.22360111 580.84407681 -1124.99941619 548.144392 -1101.26074219 517.92041016 C-1099.94082099 516.23702498 -1098.63012883 514.54672547 -1097.3203125 512.85546875 C-1088.94841146 502.07841356 -1080.21331011 491.66332541 -1071.03515625 481.5625 C-1069.22622457 479.56260625 -1067.45108199 477.53980568 -1065.6875 475.5 C-1055.62784284 463.9987203 -1044.96908506 453.12243686 -1034.15332031 442.33544922 C-1031.73646008 439.92399034 -1029.3250471 437.50717561 -1026.9140625 435.08984375 C-1025.35448749 433.53092898 -1023.7946026 431.97232414 -1022.234375 430.4140625 C-1021.17159332 429.34824448 -1021.17159332 429.34824448 -1020.08734131 428.26089478 C-1016.10149361 424.29348535 -1012.01998668 420.49654986 -1007.75538635 416.82977295 C-1005.17134464 414.59624949 -1002.68677804 412.26549884 -1000.1875 409.9375 C-995.59575319 405.70063583 -990.89045886 401.65844117 -986.01953125 397.7421875 C-983.7933284 395.95085739 -981.58511884 394.14511697 -979.38671875 392.3203125 C-970.28124575 384.79003825 -960.89817604 377.77106142 -951.26464844 370.93310547 C-949.03919968 369.34055169 -946.83351234 367.72419597 -944.6328125 366.09765625 C-895.8014988 330.10203335 -840.9406127 302.83704632 -784 282.3125 C-782.91783203 281.9211084 -781.83566406 281.5297168 -780.72070312 281.12646484 C-737.77126202 265.76961867 -692.56914776 256.20008505 -647.35898161 250.60456944 C-645.83561991 250.41595949 -644.31243057 250.22594971 -642.78945589 250.03423977 C-611.19153764 246.07494606 -579.7487593 245.76524646 -547.94304039 245.89834677 C-540.74769961 245.92763849 -533.55238875 245.93300913 -526.35699685 245.93753174 C-513.53563308 245.94618714 -500.71437378 245.97253044 -487.89306641 246.01074219 C-475.47249863 246.04772004 -463.0519597 246.07590377 -450.63134766 246.09277344 C-449.8597892 246.09382433 -449.08823075 246.09487523 -448.29329173 246.09595796 C-444.42083189 246.10117986 -440.54837184 246.10623427 -436.67591166 246.11120558 C-404.7838646 246.15236215 -372.89194884 246.22284274 -341 246.3125 C-340.79944567 245.73632274 -340.59889133 245.16014547 -340.3922596 244.56650829 C-339.47491925 241.93290165 -338.556076 239.29982172 -337.63720703 236.66674805 C-337.32173416 235.76033318 -337.00626129 234.8539183 -336.68122864 233.92003632 C-334.58307247 227.91206889 -332.41416446 221.96297344 -329.875 216.125 C-329.50721436 215.27736084 -329.13942871 214.42972168 -328.76049805 213.55639648 C-314.52530178 181.40423678 -295.58550517 151.42665919 -272 125.3125 C-271.21157715 124.43795166 -270.4231543 123.56340332 -269.61083984 122.66235352 C-263.41237067 115.82367321 -257.0472526 109.17340055 -250.52050781 102.64770508 C-248.99513287 101.12012584 -247.47799328 99.58466418 -245.9609375 98.04882812 C-239.63170564 91.68397004 -233.02534534 85.91353851 -226 80.3125 C-224.88633536 79.36612598 -223.77827673 78.41305195 -222.6796875 77.44921875 C-214.23063294 70.07100537 -205.30281995 63.57182981 -196 57.3125 C-195.28134766 56.82668457 -194.56269531 56.34086914 -193.82226562 55.84033203 C-152.8666146 28.40517905 -106.6031855 12.06572257 -58.1875 4.0625 C-57.28386719 3.91135742 -56.38023438 3.76021484 -55.44921875 3.60449219 C-37.03988837 0.74096222 -18.60471837 -0.06818054 0 0 Z M-76.76367188 28.73095703 C-79.33093598 29.39855781 -81.90702599 30.02483455 -84.484375 30.65234375 C-143.67708154 45.29209226 -195.04136203 76.8210976 -237.80639648 119.8581543 C-239.82117835 121.88372482 -241.84653275 123.89828384 -243.87304688 125.91210938 C-250.31780372 132.35041925 -256.51515876 138.80891039 -262.15625 145.97290039 C-264.10024077 148.43969906 -266.13260125 150.81271002 -268.1875 153.1875 C-298.80808717 190.61862057 -320.13062101 237.74264726 -329.54150391 285.04052734 C-329.9491884 287.06071472 -330.39935702 289.07222386 -330.85546875 291.08203125 C-335.59520472 312.5191112 -336.52380458 334.30931011 -336.375 356.1875 C-336.37034729 357.41363007 -336.36569458 358.63976013 -336.36090088 359.90304565 C-336.28253635 377.53492012 -335.95888327 394.8915098 -333 412.3125 C-332.80132324 413.53469238 -332.60264648 414.75688477 -332.39794922 416.01611328 C-329.37395415 434.22577349 -325.03257281 451.85055321 -319 469.3125 C-318.68836914 470.22112793 -318.37673828 471.12975586 -318.05566406 472.06591797 C-299.07279723 526.55377646 -262.35080175 580.45597782 -216.578125 616.29296875 C-213.79423539 618.47368228 -211.12313649 620.76209825 -208.4375 623.0625 C-193.01823749 635.85930482 -176.32248819 646.29163305 -159 656.3125 C-157.95561768 656.92883301 -157.95561768 656.92883301 -156.89013672 657.55761719 C-136.41508207 669.60830029 -112.77220801 677.88288325 -90 684.3125 C-89.14615723 684.55548828 -88.29231445 684.79847656 -87.41259766 685.04882812 C-69.04692532 690.11173878 -49.91929367 691.85693034 -31.04582214 694.06414795 C-29.68925093 694.22882856 -28.33393425 694.40421984 -26.98017883 694.59063721 C-22.24234809 695.23652265 -17.55992853 695.48622207 -12.77734375 695.515625 C-12.00691742 695.52254868 -11.23649109 695.52947235 -10.44271851 695.53660583 C-7.94092702 695.55389702 -5.43934862 695.56020546 -2.9375 695.5625 C-2.07740326 695.56383942 -1.21730652 695.56517883 -0.33114624 695.56655884 C16.27875509 695.56098446 32.51665855 694.40558359 49 692.3125 C49.95874023 692.19503418 50.91748047 692.07756836 51.90527344 691.95654297 C75.31003929 689.02774986 99.30056984 683.71454865 121 674.3125 C122.41716036 673.72980089 123.83522663 673.14930289 125.25390625 672.5703125 C135.74902045 668.26242425 145.96679676 663.60739838 156 658.3125 C156.69383789 657.94962891 157.38767578 657.58675781 158.10253906 657.21289062 C175.78239659 647.90432948 192.44394731 636.84733584 208 624.3125 C208.91523438 623.58933594 209.83046875 622.86617187 210.7734375 622.12109375 C217.03282478 617.10820336 222.93724352 611.77585123 228.7890625 606.30078125 C230.84583005 604.3771278 232.91995184 602.47791583 235.0234375 600.60546875 C239.71842851 596.41856581 244.15875345 592.23551549 248.20703125 587.41796875 C250.3179373 584.9391488 252.53286041 582.57170819 254.75 580.1875 C260.53225609 573.83664082 265.79820502 567.14226755 271 560.3125 C271.44456543 559.7354834 271.88913086 559.1584668 272.34716797 558.56396484 C292.37720073 532.48906286 307.72341942 503.14056202 319 472.3125 C319.30373535 471.48427734 319.6074707 470.65605469 319.92041016 469.80273438 C325.78725452 453.56854515 329.66306995 436.97919739 332.6875 420 C332.88996338 418.88778076 333.09242676 417.77556152 333.30102539 416.62963867 C336.63614565 397.09576006 337.4105231 377.40760941 337.375 357.625 C337.37468277 355.97496475 337.37468277 355.97496475 337.37435913 354.29159546 C337.22449846 275.5664467 311.27605112 200.86099686 259 141.3125 C258.36707031 140.5803125 257.73414062 139.848125 257.08203125 139.09375 C255.40091516 137.15488843 253.70246048 135.23262665 252 133.3125 C251.37351562 132.59320313 250.74703125 131.87390625 250.1015625 131.1328125 C240.78088396 120.5647569 230.81811578 110.35512349 220 101.3125 C219.09765625 100.52101563 218.1953125 99.72953125 217.265625 98.9140625 C147.18946625 37.76238103 53.70036095 13.47073371 -76.76367188 28.73095703 Z M-630.40439796 269.92601776 C-635.14247224 270.43530147 -639.88448832 270.9014455 -644.62691784 271.36812973 C-718.89990084 278.96337744 -789.62897688 302.9029165 -856 336.3125 C-857.01078613 336.8173291 -858.02157227 337.3221582 -859.06298828 337.84228516 C-892.84790439 354.77917366 -924.266335 376.06685417 -954 399.3125 C-955.12721671 400.1814924 -956.25483099 401.04996931 -957.3828125 401.91796875 C-969.74849411 411.47705746 -981.44806436 421.79067327 -993 432.3125 C-993.95390625 433.17359375 -994.9078125 434.0346875 -995.890625 434.921875 C-1002.05499887 440.50725258 -1008.00572609 446.2458951 -1013.8203125 452.1953125 C-1016 454.3125 -1016 454.3125 -1018 455.3125 C-1018 455.9725 -1018 456.6325 -1018 457.3125 C-1018.66 457.3125 -1019.32 457.3125 -1020 457.3125 C-1021.46641754 458.76254243 -1021.46641754 458.76254243 -1023 460.6875 C-1028.17951187 466.77852017 -1033.92535628 472.28374649 -1039.6171875 477.890625 C-1044.63605039 482.86372318 -1049.40751215 487.94550348 -1054 493.3125 C-1055.45445517 494.92018373 -1056.91220895 496.52489715 -1058.375 498.125 C-1063.10571502 503.37425883 -1067.57083694 508.80808996 -1072 514.3125 C-1072.91374442 515.43385302 -1073.82782139 516.55493511 -1074.7421875 517.67578125 C-1088.92875717 535.13984716 -1101.72692816 553.46271877 -1114 572.3125 C-1114.81597656 573.56546875 -1114.81597656 573.56546875 -1115.6484375 574.84375 C-1158.59822692 641.12159763 -1187.21918961 714.07317263 -1203 791.3125 C-1203.21350098 792.34600586 -1203.42700195 793.37951172 -1203.64697266 794.44433594 C-1209.53646644 823.537511 -1212.31613013 853.70645161 -1214 883.3125 C-1214.08674945 884.65748659 -1214.173763 886.00245617 -1214.26098633 887.34741211 C-1215.12087958 901.22828691 -1215.19924602 915.09592137 -1215.1875 929 C-1215.18722809 930.2124942 -1215.18695618 931.4249884 -1215.18667603 932.67422485 C-1215.16715194 951.64148753 -1214.71604779 970.41690714 -1213 989.3125 C-1212.90879883 990.40578613 -1212.81759766 991.49907227 -1212.72363281 992.62548828 C-1209.11964823 1035.15882912 -1201.49149281 1078.14547625 -1188.74658203 1118.91552734 C-1188.09170024 1121.01808765 -1187.45954051 1123.1251538 -1186.83984375 1125.23828125 C-1185.62669119 1129.28647132 -1184.33673323 1133.3038674 -1183 1137.3125 C-1182.48324707 1138.86227539 -1182.48324707 1138.86227539 -1181.95605469 1140.44335938 C-1167.51799414 1183.29256632 -1148.71780359 1224.7774215 -1125 1263.3125 C-1124.48775879 1264.14974609 -1123.97551758 1264.98699219 -1123.44775391 1265.84960938 C-1108.80125598 1289.70126914 -1092.52374186 1312.49351763 -1075 1334.3125 C-1074.26652344 1335.22902344 -1073.53304688 1336.14554688 -1072.77734375 1337.08984375 C-1063.84224858 1348.1330376 -1054.48328202 1358.82782836 -1044.82983398 1369.24707031 C-1043.05261907 1371.16742355 -1041.28899558 1373.09758057 -1039.5324707 1375.03710938 C-1033.04122954 1382.19796807 -1026.34801509 1389.12071924 -1019.5012207 1395.94165039 C-1017.79976222 1397.63769726 -1016.10378737 1399.33909821 -1014.40820312 1401.04101562 C-1009.32431281 1406.12800596 -1004.2295815 1411.13144174 -998.75512695 1415.80249023 C-995.8108511 1418.33557497 -993.01246889 1421.02314262 -990.1875 1423.6875 C-984.32520498 1429.16709791 -978.26873554 1434.30084157 -972 1439.3125 C-970.82019014 1440.28212354 -969.64189917 1441.25359711 -968.46484375 1442.2265625 C-953.48603053 1454.57711163 -937.9894308 1466.23077623 -921.87060547 1477.05371094 C-920.03372264 1478.28980698 -918.20573177 1479.5381649 -916.37890625 1480.7890625 C-843.27081298 1530.55386985 -755.76146706 1566.25202845 -668 1578.3125 C-666.82421387 1578.47492188 -665.64842773 1578.63734375 -664.43701172 1578.8046875 C-656.56777409 1579.89016807 -656.56777409 1579.89016807 -648.69580078 1580.95556641 C-647.49810059 1581.11718262 -646.30040039 1581.27879883 -645.06640625 1581.4453125 C-643.4568103 1581.66018311 -643.4568103 1581.66018311 -641.81469727 1581.87939453 C-639 1582.3125 -639 1582.3125 -637.29669857 1582.82968044 C-634.02020744 1583.51847523 -630.77102204 1583.4661576 -627.43812561 1583.47071838 C-626.6713644 1583.47565636 -625.90460319 1583.48059434 -625.1146068 1583.48568195 C-622.53872766 1583.50106232 -619.96287356 1583.50942235 -617.38696289 1583.51782227 C-615.53729029 1583.52740768 -613.68761985 1583.53741815 -611.83795166 1583.54782104 C-606.78046668 1583.57498466 -601.72297246 1583.59597817 -596.66545415 1583.61582303 C-591.2783727 1583.63789783 -585.89131767 1583.66524277 -580.5042572 1583.69187927 C-571.3614936 1583.73630944 -562.21871929 1583.77696244 -553.07592773 1583.81518555 C-543.89296756 1583.85359561 -534.71002894 1583.89499023 -525.52709961 1583.94018555 C-463.3510586 1584.24609011 -401.17677093 1584.37763692 -339 1584.3125 C-339.63416839 1581.76341995 -340.2691297 1579.21454173 -340.90454102 1576.66577148 C-341.17151669 1575.59212467 -341.17151669 1575.59212467 -341.4438858 1574.49678802 C-342.43115619 1570.53942318 -343.44840431 1566.59378809 -344.52734375 1562.66015625 C-349.09083525 1545.74802132 -351.77132388 1528.65876939 -354 1511.3125 C-354.13422363 1510.27754395 -354.26844727 1509.24258789 -354.40673828 1508.17626953 C-359.48160435 1466.82788816 -356.52949306 1423.71392671 -346.72167969 1383.30175781 C-346.05690177 1380.54819191 -345.43199932 1377.78918843 -344.8203125 1375.0234375 C-333.3754599 1324.59858821 -306.56981445 1278.15318471 -273 1239.3125 C-272.360625 1238.57128906 -271.72125 1237.83007812 -271.0625 1237.06640625 C-269.38634627 1235.13805347 -267.69498906 1233.22431617 -266 1231.3125 C-265.35611328 1230.58450195 -264.71222656 1229.85650391 -264.04882812 1229.10644531 C-258.58124551 1222.97348232 -252.93721441 1217.05660903 -247.125 1211.25 C-246.24513428 1210.37093994 -245.36526855 1209.49187988 -244.45874023 1208.58618164 C-239.34780791 1203.52341665 -234.23101146 1198.70621043 -228.54296875 1194.296875 C-226.11920437 1192.40551969 -223.80091332 1190.42063035 -221.4855957 1188.39892578 C-213.42837402 1181.40061136 -204.84573306 1175.27030445 -196 1169.3125 C-195.29198242 1168.83200195 -194.58396484 1168.35150391 -193.85449219 1167.85644531 C-150.85039893 1138.91929464 -101.06709764 1121.2890877 -49.77490234 1114.67675781 C-47.73539008 1114.4090337 -45.69960726 1114.11249819 -43.66650391 1113.79980469 C-30.55808327 1111.96721568 -17.46736114 1111.94027676 -4.24853516 1111.94189453 C-0.29935475 1111.93755424 3.6486748 1111.90121906 7.59765625 1111.86328125 C25.387628 1111.78422796 42.4598473 1113.41480849 60 1116.3125 C61.68846971 1116.57741794 63.37709148 1116.84137 65.06591797 1117.10400391 C69.24572967 1117.76945531 73.40645458 1118.51242425 77.5625 1119.3125 C78.65783554 1119.52259705 78.65783554 1119.52259705 79.77529907 1119.73693848 C152.34819278 1133.93272181 219.33846005 1176.1796511 268 1231.3125 C268.47179688 1231.83956543 268.94359375 1232.36663086 269.4296875 1232.90966797 C283.12388386 1248.23698978 295.20254799 1264.83767636 306 1282.3125 C306.39380859 1282.94462402 306.78761719 1283.57674805 307.19335938 1284.22802734 C309.87445519 1288.54495088 312.47204955 1292.90418084 315 1297.3125 C315.36303223 1297.94526855 315.72606445 1298.57803711 316.10009766 1299.22998047 C323.207707 1311.77411147 328.66017158 1324.939005 334 1338.3125 C334.30035156 1339.04823242 334.60070313 1339.78396484 334.91015625 1340.54199219 C346.86925798 1369.84756878 353.13691154 1401.89837403 356 1433.3125 C356.07057617 1434.06337891 356.14115234 1434.81425781 356.21386719 1435.58789062 C358.45908286 1460.93863263 357.54434571 1487.04270463 355 1512.3125 C354.90879883 1513.26527832 354.81759766 1514.21805664 354.72363281 1515.19970703 C352.51338668 1537.46890621 347.79268057 1560.05292146 340.06640625 1581.07421875 C338.79147436 1584.37748971 338.79147436 1584.37748971 339 1588.3125 C417.21 1588.3125 495.42 1588.3125 576 1588.3125 C576.4465526 1500.33926915 576.4465526 1500.33926915 576.8925413 1412.36603544 C576.90381526 1410.14030953 576.91508924 1407.91458362 576.92636363 1405.68885771 C577.19033282 1353.57747745 577.45350897 1301.46609321 577.71606445 1249.35470581 C577.72460832 1247.65898256 577.73315218 1245.96325931 577.74169604 1244.26753605 C577.92114381 1208.65155843 578.10047323 1173.03558021 578.27966647 1137.4196013 C578.3697194 1119.52094063 578.45979501 1101.62228007 578.54989207 1083.72361961 C578.56348033 1081.02415387 578.57706794 1078.32468813 578.59065552 1075.62522239 C578.79918536 1034.19740985 579.00819288 992.76959979 579.21862793 951.34179688 C579.22313129 950.45523019 579.22763465 949.56866351 579.23227448 948.65523117 C579.30485636 934.36678094 579.3774794 920.07833092 579.45010793 905.78988093 C579.66003204 864.4906922 579.86963747 823.19150196 580.07725525 781.89230156 C580.08155085 781.03785231 580.08584645 780.18340306 580.09027222 779.3030614 C580.18470557 760.5180027 580.27898336 741.73294323 580.37311512 722.94788301 C580.41102867 715.3823479 580.44896448 707.81681289 580.48690796 700.25127792 C580.49105943 699.42341048 580.4952109 698.59554304 580.49948818 697.74258871 C580.63189746 671.34032349 580.76609758 644.93806777 580.90129545 618.5358167 C581.0381745 591.803581 581.17317807 565.07133648 581.30578979 538.33907926 C581.32437278 534.59315633 581.34297594 530.8472335 581.36159134 527.10131073 C581.36523781 526.36739459 581.36888428 525.63347845 581.37264125 524.87732242 C581.42563742 514.22059742 581.4801978 503.56388131 581.53574753 492.90716934 C581.91864185 419.37457983 582.07790503 345.84596806 582 272.3125 C577.47935497 272.27755073 572.95870979 272.24262163 568.43806458 272.20769596 C566.532697 272.19296513 566.532697 272.19296513 564.58883715 272.1779367 C554.84178826 272.10264733 545.09473122 272.02861692 535.34765625 271.95678711 C534.17958341 271.94817746 534.17958341 271.94817746 532.98791313 271.93939388 C527.20027761 271.89679423 521.41263948 271.85455873 515.625 271.8125 C514.80749771 271.80655146 513.98999542 271.80060292 513.14772034 271.79447412 C470.09838836 271.48161155 427.05074961 271.21103123 384 271.25 C382.5705946 271.25128403 382.5705946 271.25128403 381.11231232 271.25259399 C370.07485127 271.26330401 359.03742484 271.28215699 348 271.3125 C348.30975416 273.22657716 348.62210631 275.14023399 348.93554688 277.05371094 C349.10920776 278.11942322 349.28286865 279.1851355 349.46179199 280.28314209 C349.89427619 282.71742288 350.39782896 285.06637935 351.03125 287.453125 C359.600342 321.59128186 360.1721702 363.0761537 355.31640625 397.94238281 C354.95733482 400.63209383 354.66436739 403.32535454 354.375 406.0234375 C351.69446997 430.35047485 345.61927019 453.08527028 338 476.3125 C337.58016846 477.60873291 337.58016846 477.60873291 337.15185547 478.93115234 C323.46699304 520.9129225 298.93914883 558.97887303 270.25 592.25 C269.73139404 592.85255615 269.21278809 593.4551123 268.6784668 594.07592773 C265.4294057 597.80262506 262.03955721 601.33248638 258.50073242 604.78540039 C256.84910358 606.40642533 256.84910358 606.40642533 255.0625 608.8125 C252.64885346 611.73813217 249.9423646 614.0436449 247.0625 616.5 C245.17431113 618.15931749 243.43006635 619.87791186 241.6875 621.6875 C237.61190947 625.81804231 233.13770279 629.40516647 228.60693359 633.02197266 C226.90104558 634.39197023 225.20984764 635.77881404 223.51953125 637.16796875 C214.67446851 644.39914991 205.54761673 651.04034302 196 657.3125 C194.89398437 658.03953125 194.89398437 658.03953125 193.765625 658.78125 C166.87987347 676.33929182 138.78980747 690.02140109 108 699.3125 C107.0104834 699.61639648 106.0209668 699.92029297 105.00146484 700.23339844 C91.35319834 704.36736505 77.61199952 707.28439552 63.5625 709.625 C62.8264856 709.74828674 62.09047119 709.87157349 61.33215332 709.99859619 C56.23111143 710.84287411 51.12213228 711.60773504 46 712.3125 C45.28077362 712.41281525 44.56154724 712.51313049 43.82052612 712.6164856 C30.39602722 714.42697312 17.02894762 714.65328416 3.49633789 714.62817383 C-0.03335869 714.62502599 -3.56220377 714.64852726 -7.09179688 714.67382812 C-22.92009698 714.71796989 -38.3314364 713.52682368 -54 711.3125 C-54.73777679 711.21017059 -55.47555359 711.10784119 -56.23568726 711.00241089 C-60.11041748 710.45615804 -63.96269615 709.82465571 -67.8125 709.125 C-69.52107178 708.81526245 -69.52107178 708.81526245 -71.26416016 708.49926758 C-132.21650327 696.92556375 -189.98645328 667.54140313 -235.59375 625.5078125 C-237.60665638 623.6713622 -239.65019645 621.89052679 -241.71484375 620.11328125 C-246.35926101 616.05875153 -250.71554533 611.74407658 -255.0625 607.375 C-256.2081543 606.23514648 -256.2081543 606.23514648 -257.37695312 605.07226562 C-262.12511966 600.31597562 -266.64976679 595.43437334 -271 590.3125 C-271.54841553 589.67078857 -272.09683105 589.02907715 -272.66186523 588.36791992 C-308.49128838 546.17139411 -333.61617282 496.99161777 -347 443.3125 C-347.20173828 442.51473145 -347.40347656 441.71696289 -347.61132812 440.89501953 C-351.46622245 425.31090407 -353.22120848 409.24303365 -355 393.3125 C-355.16230103 391.86713867 -355.16230103 391.86713867 -355.32788086 390.39257812 C-356.26277419 380.84515722 -356.19927014 371.27100618 -356.1875 361.6875 C-356.18659363 360.3267334 -356.18659363 360.3267334 -356.18566895 358.93847656 C-356.13626453 331.55156024 -353.06230899 305.29039662 -347.92529297 278.3996582 C-347.73990463 277.42785866 -347.5545163 276.45605911 -347.36351013 275.4548111 C-346.90928401 273.07398767 -346.4547733 270.69321895 -346 268.3125 C-398.94134314 267.57150237 -451.87727902 267.10014791 -504.82401741 267.07367182 C-514.18708873 267.0689001 -523.55001949 267.05103305 -532.91304845 267.0226047 C-540.37761912 267.00077518 -547.84215037 266.99089168 -555.3067525 266.98956418 C-559.67452235 266.98854166 -564.04215334 266.98319325 -568.40988731 266.96474457 C-589.2338743 266.8815769 -609.69366999 267.69358069 -630.40439796 269.92601776 Z M-68 1137.3125 C-69.16031738 1137.55838867 -70.32063477 1137.80427734 -71.51611328 1138.05761719 C-84.2054136 1140.77561096 -96.73481212 1144.06173805 -109 1148.3125 C-110.0842627 1148.6849585 -110.0842627 1148.6849585 -111.19042969 1149.06494141 C-151.10495177 1162.90886241 -187.50284774 1184.14237141 -219 1212.3125 C-219.92039062 1213.12203125 -220.84078125 1213.9315625 -221.7890625 1214.765625 C-228.63326709 1220.89648996 -235.16359999 1227.34428697 -241.6875 1233.8125 C-242.56672119 1234.67866943 -243.44594238 1235.54483887 -244.35180664 1236.43725586 C-250.3377197 1242.41529197 -255.72353046 1248.706102 -261 1255.3125 C-261.86360681 1256.33986636 -262.73200327 1257.3632699 -263.609375 1258.37890625 C-279.95999728 1277.44468661 -293.33075997 1298.7212562 -304.08496094 1321.40136719 C-305.01548845 1323.34484887 -305.97746028 1325.27018044 -306.9453125 1327.1953125 C-318.61641075 1350.73255316 -326.52290549 1376.44783955 -331 1402.3125 C-331.1247168 1403.01874512 -331.24943359 1403.72499023 -331.37792969 1404.45263672 C-334.97282244 1425.01453563 -336.38502719 1445.38682095 -336.3125 1466.25 C-336.31100952 1467.31733368 -336.30951904 1468.38466736 -336.3079834 1469.48434448 C-336.26433926 1486.94086168 -335.47742419 1504.0128346 -333 1521.3125 C-332.85546387 1522.37065918 -332.71092773 1523.42881836 -332.56201172 1524.51904297 C-330.52646608 1539.12853497 -327.29072192 1553.2073397 -323 1567.3125 C-322.7220459 1568.24465332 -322.4440918 1569.17680664 -322.15771484 1570.13720703 C-309.98747787 1610.4824703 -289.22715698 1648.16688885 -262 1680.3125 C-261.52240234 1680.88033203 -261.04480469 1681.44816406 -260.55273438 1682.03320312 C-252.86114052 1691.18145101 -252.86114052 1691.18145101 -244.55078125 1699.76171875 C-242.88209941 1701.43040059 -241.38954812 1703.19064932 -239.875 1705 C-234.73843462 1710.93558666 -228.83715275 1716.08517527 -223 1721.3125 C-222.42217773 1721.83505371 -221.84435547 1722.35760742 -221.24902344 1722.89599609 C-176.9510875 1762.84785882 -121.69112888 1789.88258777 -63 1800.3125 C-62.20400391 1800.45429687 -61.40800781 1800.59609375 -60.58789062 1800.7421875 C-5.4670869 1810.31271198 54.02822001 1807.2238089 107.13085938 1789.27978516 C109.79298496 1788.38229183 112.4639127 1787.5207405 115.140625 1786.66796875 C155.63378628 1773.47955147 192.51553285 1749.71134156 224 1721.3125 C225.0102436 1720.41386791 226.02065296 1719.51542211 227.03125 1718.6171875 C238.32813359 1708.44391867 249.54185937 1697.90187722 258.9453125 1685.92578125 C261.14098803 1683.13318253 263.43944077 1680.4481131 265.75 1677.75 C292.7802988 1645.23832482 311.81139779 1607.29178028 324.16015625 1567.03662109 C324.82841263 1564.8690616 325.51964706 1562.70858936 326.21875 1560.55078125 C328.56722967 1553.00344942 330.07806311 1545.31952401 331.5625 1537.5625 C331.76061279 1536.54687988 331.95872559 1535.53125977 332.1628418 1534.48486328 C336.02897499 1513.42793131 337.52865052 1492.4477699 337.375 1471.0625 C337.37067963 1469.91195129 337.36635925 1468.76140259 337.36190796 1467.57598877 C337.28330649 1449.66012494 336.71075099 1432.04977615 334 1414.3125 C333.83371094 1413.19488281 333.66742187 1412.07726563 333.49609375 1410.92578125 C325.306813 1357.72578701 303.21284562 1309.13323472 271 1266.3125 C270.55253418 1265.71646973 270.10506836 1265.12043945 269.64404297 1264.50634766 C263.05069523 1255.77709275 255.90935253 1247.73910092 248.390625 1239.80029297 C246.62452553 1237.91078978 244.93113594 1235.96521678 243.25 1234 C237.74149243 1227.63461347 231.71645906 1221.76495323 225.3203125 1216.296875 C223.55011966 1214.7829727 221.79815218 1213.24773297 220.0546875 1211.703125 C210.48973177 1203.27610846 200.3816064 1195.70114981 190 1188.3125 C189.04770508 1187.62824951 189.04770508 1187.62824951 188.07617188 1186.93017578 C176.38387673 1178.5844953 163.74241321 1171.90118683 151 1165.3125 C150.1642041 1164.88018066 149.3284082 1164.44786133 148.46728516 1164.00244141 C135.10767731 1157.18269552 121.1877005 1152.1272412 107 1147.3125 C105.85337891 1146.91804688 105.85337891 1146.91804688 104.68359375 1146.515625 C76.89431751 1137.0240316 46.99604622 1132.28554854 17.68359375 1132.0390625 C16.67735458 1132.02964378 16.67735458 1132.02964378 15.65078735 1132.02003479 C10.57972098 1131.97393824 5.50875276 1131.95015735 0.4375 1131.9375 C-0.30568859 1131.93549339 -1.04887718 1131.93348679 -1.81458664 1131.93141937 C-24.26183597 1131.8844942 -45.98477631 1132.41881758 -68 1137.3125 Z " fill="#010100" transform="translate(2212,220.6875)"/>
<path d="M0 0 C0.6815918 0.33757324 1.36318359 0.67514648 2.06542969 1.02294922 C12.41913063 6.17152377 21.81300577 11.991174 31 19 C31.56251465 19.41975098 32.1250293 19.83950195 32.70458984 20.27197266 C81.25225611 56.50632374 112.8825797 108.3694737 122.4128418 168.15893555 C125.79497193 191.67269426 124.75443997 215.6072652 121 239 C120.86609863 239.86592773 120.73219727 240.73185547 120.59423828 241.62402344 C115.40238948 274.15960926 101.3708001 304.52155285 82 331 C81.50757812 331.67337402 81.01515625 332.34674805 80.5078125 333.04052734 C74.34936496 341.3531556 67.5634125 349.05552344 60.41259766 356.52441406 C59.10408851 357.89127014 57.80737271 359.2693898 56.51171875 360.6484375 C49.89549391 367.51371827 42.59819513 373.2803336 35 379 C34.04867187 379.72316406 33.09734375 380.44632813 32.1171875 381.19140625 C-6.72091636 410.12183056 -51.31248376 423.20735161 -99.375 423.25 C-100.71109818 423.25200912 -100.71109818 423.25200912 -102.07418823 423.25405884 C-114.54455427 423.24999039 -126.69198493 422.88592973 -138.95654297 420.41015625 C-140.93324033 420.01339979 -142.92184277 419.67745296 -144.91015625 419.34375 C-172.24541979 414.51480755 -200.80154922 402.75540377 -223 386 C-224.2451637 385.0937728 -225.49134579 384.18894401 -226.73828125 383.28515625 C-234.32879167 377.74061774 -241.48628389 371.9817041 -248.3203125 365.52734375 C-250.76635759 363.22035953 -253.26828598 361.00977574 -255.8125 358.8125 C-259.17562453 355.82840382 -262.19032144 352.72218616 -265.08203125 349.28125 C-266.48718242 347.60995003 -267.92735111 345.96792348 -269.38671875 344.34375 C-278.01098906 334.64565932 -284.97592614 323.88739169 -292 313 C-291.67 312.34 -291.34 311.68 -291 311 C-290.44054688 311.42410156 -289.88109375 311.84820313 -289.3046875 312.28515625 C-262.99734334 331.52927457 -229.49841356 337.5911784 -197.4921875 333.38671875 C-176.09874774 329.87212681 -155.32415507 320.21955326 -139 306 C-138.16855469 305.28972656 -137.33710938 304.57945312 -136.48046875 303.84765625 C-114.33996192 284.49596902 -97.55247404 256.57319301 -94 227 C-93.89042969 226.10152344 -93.78085938 225.20304688 -93.66796875 224.27734375 C-90.07516902 190.21760231 -101.28520348 158.85331345 -122.375 132.3125 C-133.4765047 119.23611623 -145.68317024 108.81908093 -161 101 C-161.84046875 100.52046875 -162.6809375 100.0409375 -163.546875 99.546875 C-172.53854315 94.62878026 -182.05259821 92.18627502 -192 90 C-193.2387085 89.71854126 -193.2387085 89.71854126 -194.50244141 89.43139648 C-202.39146513 87.80021836 -210.2137498 87.55880556 -218.25 87.5625 C-218.94843018 87.56176483 -219.64686035 87.56102966 -220.36645508 87.56027222 C-239.4434725 87.61269653 -257.03029242 91.15438009 -274 100 C-274.61166016 100.31340332 -275.22332031 100.62680664 -275.85351562 100.94970703 C-284.37329826 105.37378635 -291.76678963 110.69660131 -299 117 C-300.14338333 117.94048649 -301.28873663 118.87859262 -302.4375 119.8125 C-304.74467741 121.78204169 -306.8967777 123.81588454 -309 126 C-308.32075763 121.20756772 -306.47259079 117.12320984 -304.5 112.75 C-304.14397705 111.95932129 -303.7879541 111.16864258 -303.42114258 110.35400391 C-287.17062576 74.73672385 -261.60831233 43.22759409 -230 20 C-228.85922052 19.14083008 -227.71859587 18.28145453 -226.578125 17.421875 C-207.67493111 3.3584997 -185.64820036 -7.53242114 -163 -14 C-161.93990723 -14.31445068 -161.93990723 -14.31445068 -160.85839844 -14.63525391 C-108.94345964 -29.83939262 -48.17329169 -24.33508985 0 0 Z " fill="#FEFEFE" transform="translate(2307,374)"/>
<path d="M0 0 C2.98336153 0.01071662 5.9661195 0.00004041 8.94946289 -0.01269531 C24.18488832 -0.0248139 39.33668487 0.64072812 54.17797852 4.38574219 C55.03939453 4.599646 55.90081055 4.8135498 56.78833008 5.03393555 C83.96897224 12.00926158 109.33106513 22.65071762 132.05297852 39.26074219 C132.94847412 39.9060791 132.94847412 39.9060791 133.86206055 40.56445312 C142.5110382 46.83282108 150.37917732 53.85300749 158.05297852 61.26074219 C158.64288574 61.82873535 159.23279297 62.39672852 159.84057617 62.98193359 C202.60046445 104.36947992 226.28314428 159.25980554 227.40844727 218.74365234 C227.71099067 273.22415619 210.53385609 323.76078717 175.05297852 365.26074219 C174.39297852 366.03289062 173.73297852 366.80503906 173.05297852 367.60058594 C156.6729403 386.24528853 138.8454312 400.86837208 118.05297852 414.26074219 C117.1390332 414.85757812 116.22508789 415.45441406 115.28344727 416.06933594 C101.58591853 424.67987785 86.39390837 430.35657345 71.05297852 435.26074219 C70.31499023 435.49921875 69.57700195 435.73769531 68.81665039 435.98339844 C63.61111445 437.63520041 58.36899316 439.01307323 53.05297852 440.26074219 C52.24618652 440.45829102 51.43939453 440.65583984 50.6081543 440.859375 C34.98593472 444.51303095 19.38750523 444.63257208 3.42797852 444.63574219 C2.38663757 444.63764557 1.34529663 444.63954895 0.2723999 444.64151001 C-11.62881071 444.63905026 -23.19998566 444.33039005 -34.94702148 442.26074219 C-35.93057617 442.08929687 -36.91413086 441.91785156 -37.92749023 441.74121094 C-76.96281008 434.47630419 -112.33875028 416.61712834 -141.94702148 390.26074219 C-143.42235352 388.96910156 -143.42235352 388.96910156 -144.92749023 387.65136719 C-163.33563552 371.21291776 -178.32443453 352.43135642 -190.94702148 331.26074219 C-187.13153213 331.26074219 -186.5109453 332.27223813 -183.69702148 334.76074219 C-159.16214086 354.88645586 -125.32586053 360.00652086 -94.55493164 357.02929688 C-90.24402816 356.45881023 -86.12288611 355.45384637 -81.94702148 354.26074219 C-81.31860352 354.09445312 -80.69018555 353.92816406 -80.04272461 353.75683594 C-50.4531462 345.90119565 -22.25909058 326.37506229 -6.51831055 299.85351562 C5.25065095 279.0291007 11.70316795 258.79646203 11.42797852 234.82324219 C11.42365814 234.10428772 11.41933777 233.38533325 11.41488647 232.64459229 C11.3395062 221.92750976 10.87006519 211.65876943 8.05297852 201.26074219 C7.73586914 200.04902344 7.41875977 198.83730469 7.09204102 197.58886719 C1.63673579 179.24975601 -8.55924444 161.46159917 -22.76733398 148.53027344 C-23.94702148 147.26074219 -23.94702148 147.26074219 -23.94702148 145.26074219 C-24.51936523 145.01324219 -25.09170898 144.76574219 -25.68139648 144.51074219 C-28.29736686 143.06744819 -30.06221136 141.35076609 -32.19702148 139.26074219 C-54.23220359 119.07807539 -82.07067644 110.83570935 -111.44702148 111.01074219 C-112.74510742 111.00300781 -114.04319336 110.99527344 -115.38061523 110.98730469 C-149.58112266 111.05563737 -178.13000696 125.39646147 -202.07202148 149.26074219 C-203.36746567 150.59040565 -204.65967393 151.92323823 -205.94702148 153.26074219 C-206.94478185 154.26297682 -207.94391109 155.26386229 -208.94702148 156.26074219 C-206.26572997 140.80183017 -198.02171246 124.65211703 -189.94702148 111.26074219 C-189.5493457 110.59703613 -189.15166992 109.93333008 -188.74194336 109.24951172 C-157.5965737 57.88342687 -108.01097071 20.26450618 -49.94702148 5.26074219 C-48.15651367 4.78314453 -48.15651367 4.78314453 -46.32983398 4.29589844 C-31.03952751 0.46378921 -15.6748187 -0.06677239 0 0 Z " fill="#FEFEFE" transform="translate(2203.947021484375,1462.7392578125)"/>
<path d="M0 0 C1.02512695 0.19867676 2.05025391 0.39735352 3.10644531 0.60205078 C60.07824801 11.93697725 114.36792785 44.95386547 148.77001953 92.32128906 C150.05719052 94.07805518 151.38188414 95.8012065 152.71484375 97.5234375 C177.22509058 129.5283043 191.91568512 168.17359916 197 208 C197.14465698 209.05562134 197.14465698 209.05562134 197.29223633 210.13256836 C198.33827003 218.82219294 198.19988561 227.57397633 198.1875 236.3125 C198.18656342 237.16203247 198.18562683 238.01156494 198.18466187 238.88684082 C198.11979616 266.01284696 195.52458465 293.37491927 186 319 C185.71253906 319.77504883 185.42507813 320.55009766 185.12890625 321.34863281 C180.77109892 332.93479483 175.76502877 344.05128989 170 355 C169.51015625 355.9590625 169.0203125 356.918125 168.515625 357.90625 C162.30682481 369.76575598 154.58682895 380.7538026 146 391 C145.26136719 391.92296875 144.52273438 392.8459375 143.76171875 393.796875 C132.10904609 408.07728877 118.86501144 422.04096003 104 433 C102.97648437 433.76699219 101.95296875 434.53398438 100.8984375 435.32421875 C74.43107521 454.86398614 45.21845949 469.67162089 13 477 C12.26136719 477.16983398 11.52273438 477.33966797 10.76171875 477.51464844 C-49.00615174 491.03822961 -116.71271178 482.93232518 -169 450 C-179.15711963 443.56158219 -188.88867035 436.87187236 -198 429 C-199.11727785 428.06495645 -200.23584393 427.13145075 -201.35546875 426.19921875 C-212.03666736 417.25299995 -222.08356306 407.73175943 -231 397 C-231.45455566 396.46455566 -231.90911133 395.92911133 -232.37744141 395.37744141 C-240.81362009 385.42482569 -248.20071294 375.13011333 -255 364 C-255.69609375 362.88625 -256.3921875 361.7725 -257.109375 360.625 C-266.74574401 344.59008196 -273.62066693 326.87270269 -279 309 C-279.36609375 307.8346875 -279.7321875 306.669375 -280.109375 305.46875 C-283.68723219 293.2489916 -285.28586269 280.59170026 -287 268 C-287.10675049 267.25766113 -287.21350098 266.51532227 -287.32348633 265.75048828 C-291.31103916 235.08199254 -288.3582507 199.42345987 -279 170 C-278.74879395 169.19675293 -278.49758789 168.39350586 -278.23876953 167.56591797 C-267.93765599 135.17386773 -251.47667577 105.42639523 -228.30078125 80.484375 C-226.31485095 78.33997488 -224.39764272 76.15956407 -222.5 73.9375 C-215.91495677 66.37632095 -208.68463612 59.43076173 -201 53 C-200.47229004 52.54786133 -199.94458008 52.09572266 -199.40087891 51.62988281 C-145.77848179 5.78500355 -69.37745477 -13.80355866 0 0 Z M-101.75 23.5625 C-103.22496948 23.93822144 -103.22496948 23.93822144 -104.72973633 24.3215332 C-128.6981157 30.74254886 -152.68729656 41.50070085 -172.37158203 56.74072266 C-174.03496324 58.02703754 -175.71702559 59.28557652 -177.40234375 60.54296875 C-212.80960834 87.29445826 -238.75390657 122.04519374 -255.1875 163.125 C-255.49155762 163.8773291 -255.79561523 164.6296582 -256.10888672 165.40478516 C-257.81392011 169.62458401 -257.81392011 169.62458401 -257 174 C-256.48953125 173.40574219 -255.9790625 172.81148437 -255.453125 172.19921875 C-235.42726167 149.36831428 -209.52869298 132.17374409 -178.63427734 129.16333008 C-173.37517083 128.83725573 -168.11334585 128.81406296 -162.84545898 128.81469727 C-160.83360224 128.81252281 -158.82230634 128.79433931 -156.81054688 128.77539062 C-144.99747312 128.75799287 -133.40660042 129.65985482 -122.1875 133.5625 C-121.44105225 133.81789551 -120.69460449 134.07329102 -119.92553711 134.33642578 C-103.59966494 140.17799744 -89.55171491 149.41981563 -76.99609375 161.3125 C-75.18107985 163.2152024 -75.18107985 163.2152024 -73 163 C-72.73316406 163.59941406 -72.46632813 164.19882813 -72.19140625 164.81640625 C-70.97202891 167.05126504 -69.82395921 168.25618766 -67.9375 169.9375 C-54.8473785 182.75660449 -45.66511809 201.47379163 -41 219 C-40.68160156 220.17304687 -40.36320312 221.34609375 -40.03515625 222.5546875 C-37.83208123 232.4837537 -37.68586214 242.43441609 -37.625 252.5625 C-37.61705414 253.25470642 -37.60910828 253.94691284 -37.60092163 254.66009521 C-37.48250875 268.10741987 -38.90920112 281.41099449 -44.125 293.9375 C-44.57178101 295.04254883 -44.57178101 295.04254883 -45.02758789 296.16992188 C-50.13263141 308.46492804 -56.07214153 320.03602643 -65 330 C-65.69738281 330.81597656 -66.39476563 331.63195313 -67.11328125 332.47265625 C-84.59411089 352.56163809 -105.48551044 365.09104211 -131 372 C-132.68029297 372.48146484 -132.68029297 372.48146484 -134.39453125 372.97265625 C-165.72112574 380.67004804 -199.78611678 373.24218206 -227.0546875 356.96484375 C-231.03569466 354.30907903 -234.60759857 351.37133061 -238 348 C-238.66 348.33 -239.32 348.66 -240 349 C-231.81374709 362.56827875 -223.12041398 374.86950367 -212.30859375 386.5078125 C-210.28059379 388.69709164 -208.31788817 390.92299995 -206.375 393.1875 C-199.56657144 400.97760895 -192.07919167 407.55251044 -184 414 C-183.17371094 414.68191406 -182.34742187 415.36382813 -181.49609375 416.06640625 C-175.27524051 421.16890385 -168.76281843 425.64819902 -162 430 C-160.60974609 430.93779297 -160.60974609 430.93779297 -159.19140625 431.89453125 C-136.71921805 446.54771107 -110.37855495 455.63984625 -84 460 C-82.97962646 460.17587646 -81.95925293 460.35175293 -80.90795898 460.53295898 C-69.27248921 462.32841224 -57.68958351 462.44105228 -45.9375 462.4375 C-44.35053314 462.43860275 -44.35053314 462.43860275 -42.73150635 462.43972778 C-17.02053454 462.39291529 6.77508369 458.95370077 31 450 C31.84175781 449.69723145 32.68351562 449.39446289 33.55078125 449.08251953 C72.7992721 434.84665179 109.20860778 407.50713754 133.79248047 373.66064453 C135.03203812 371.95593949 136.29756996 370.27283741 137.56640625 368.58984375 C143.84625248 360.1527165 149.07709468 351.2842625 154 342 C154.32097656 341.401875 154.64195312 340.80375 154.97265625 340.1875 C159.8331869 331.07654716 163.6877591 321.75994579 167 312 C167.22429688 311.34193359 167.44859375 310.68386719 167.6796875 310.00585938 C171.8213572 297.59303165 174.06310021 284.91886581 176 272 C176.12004395 271.23107422 176.24008789 270.46214844 176.36376953 269.66992188 C184.38247438 216.94484615 171.64753856 158.16750147 140 115 C139.31808594 114.04738281 138.63617187 113.09476563 137.93359375 112.11328125 C124.04792843 93.11053712 107.73774792 75.12759703 88.67675781 61.22363281 C86.96673487 59.9757244 85.27634851 58.70399734 83.5859375 57.4296875 C75.15155371 51.15254809 66.31240773 45.86662846 57 41 C56.36320312 40.66258789 55.72640625 40.32517578 55.0703125 39.97753906 C24.48303804 23.98164298 -8.66646288 17.60791176 -42.85766602 17.68432617 C-45.7993688 17.6874859 -48.74006096 17.66391412 -51.68164062 17.63867188 C-68.64293397 17.58142581 -85.2864907 19.3557166 -101.75 23.5625 Z " fill="#020201" transform="translate(2253,1445)"/>
<path d="M0 0 C3.37411072 0.00315269 6.74733518 -0.0203634 10.12133789 -0.0456543 C30.12961953 -0.1037486 49.3872742 2.08797116 68.70922852 7.31567383 C69.42981445 7.50919434 70.15040039 7.70271484 70.89282227 7.90209961 C73.10678634 8.50471417 75.31506024 9.12439868 77.52172852 9.75317383 C78.1666626 9.93412598 78.81159668 10.11507813 79.47607422 10.30151367 C110.83290484 19.55823 140.21538121 37.63973904 164.01391602 59.83129883 C166.16760636 61.81643949 168.35153581 63.7321776 170.57250977 65.63989258 C214.69478708 104.13813313 242.4938565 162.6689911 246.52832031 220.71972656 C246.88617788 227.83293051 246.95303162 234.94443782 246.95922852 242.06567383 C246.9602356 242.87559784 246.96124268 243.68552185 246.96228027 244.51998901 C246.95048994 258.62694674 246.06236758 272.38588653 243.70922852 286.31567383 C243.48444824 287.66532227 243.48444824 287.66532227 243.25512695 289.04223633 C233.58920581 345.35494887 200.10251911 399.58747354 154.70922852 434.31567383 C153.77981445 435.03883789 152.85040039 435.76200195 151.89282227 436.50708008 C133.4711298 450.61157164 114.23478152 461.67226954 92.70922852 470.31567383 C91.87633301 470.65018555 91.0434375 470.98469727 90.18530273 471.3293457 C79.2064826 475.68146822 68.31480336 479.09328502 56.70922852 481.31567383 C55.12440674 481.63713379 55.12440674 481.63713379 53.50756836 481.96508789 C19.2915265 488.7582217 -15.14755179 488.33082616 -49.29077148 481.31567383 C-50.35908203 481.09637207 -51.42739258 480.87707031 -52.52807617 480.65112305 C-92.76007124 472.01334347 -129.6898212 450.89082534 -159.54077148 422.87817383 C-162.01756442 420.57025314 -164.5430589 418.34241174 -167.10327148 416.12817383 C-170.52818706 413.09678535 -173.55695418 409.90547977 -176.50170898 406.40942383 C-177.72118363 404.98226573 -178.9787 403.58695903 -180.26733398 402.22192383 C-191.1666991 390.64877978 -200.51170567 377.15267821 -208.29077148 363.31567383 C-208.71068359 362.5701123 -209.1305957 361.82455078 -209.56323242 361.05639648 C-223.40348825 336.19992567 -232.53583805 309.38511958 -237.29077148 281.31567383 C-237.45851074 280.49099609 -237.62625 279.66631836 -237.79907227 278.81665039 C-239.46650523 270.09036856 -239.60252622 261.53289476 -239.54077148 252.69067383 C-239.53833435 251.92887817 -239.53589722 251.16708252 -239.53338623 250.38220215 C-239.48081287 236.29327747 -238.71934186 222.335168 -237.29077148 208.31567383 C-237.16826913 206.94198541 -237.04586028 205.56828864 -236.92358398 204.19458008 C-231.66224068 155.17818784 -205.04680649 109.22839764 -171.29077148 74.31567383 C-170.65945313 73.66244141 -170.02813477 73.00920898 -169.37768555 72.33618164 C-161.41472306 64.14184979 -153.41856255 56.22490457 -144.29077148 49.31567383 C-143.75194336 48.90043457 -143.21311523 48.48519531 -142.65795898 48.05737305 C-114.89809729 26.71620134 -83.78676241 12.32970011 -49.66577148 4.37817383 C-48.46198853 4.09707764 -48.46198853 4.09707764 -47.23388672 3.81030273 C-31.57297314 0.43193191 -15.96644535 -0.0310788 0 0 Z M-82.29077148 36.31567383 C-83.15234863 36.69175781 -84.01392578 37.0678418 -84.90161133 37.45532227 C-98.60432331 43.53232063 -111.16928009 50.50086957 -123.29077148 59.31567383 C-123.89066895 59.74734863 -124.49056641 60.17902344 -125.10864258 60.6237793 C-133.75477943 66.89118843 -141.62600004 73.90255014 -149.29077148 81.31567383 C-149.9454541 81.94844238 -150.60013672 82.58121094 -151.2746582 83.2331543 C-159.46110573 91.18840067 -167.42301109 99.16729866 -174.29077148 108.31567383 C-174.68425781 108.83806641 -175.07774414 109.36045898 -175.4831543 109.89868164 C-187.25653278 125.63628421 -196.25445258 142.385052 -204.29077148 160.31567383 C-204.68852783 161.1817627 -205.08628418 162.04785156 -205.49609375 162.94018555 C-206.58999655 165.41943639 -206.58999655 165.41943639 -205.29077148 168.31567383 C-204.61014648 167.63504883 -203.92952148 166.95442383 -203.22827148 166.25317383 C-202.76291992 165.79297852 -202.29756836 165.3327832 -201.81811523 164.85864258 C-200.80992981 163.84014324 -199.82210156 162.80103083 -198.85717773 161.74145508 C-185.64625477 147.60807366 -165.95665818 137.74078445 -147.29077148 133.31567383 C-146.20852295 133.0574585 -145.12627441 132.79924316 -144.01123047 132.53320312 C-134.83175147 130.508998 -126.02638175 129.79223497 -116.60327148 129.87817383 C-115.9113269 129.88055054 -115.21938232 129.88292725 -114.50646973 129.88537598 C-102.748844 129.94825098 -91.63409182 131.12678859 -80.29077148 134.31567383 C-79.19764648 134.60442383 -78.10452148 134.89317383 -76.97827148 135.19067383 C-45.8548886 144.46146873 -20.64916933 168.36810955 -5.06030273 196.23364258 C4.48607445 214.00882092 8.14050724 232.71344775 8.08422852 252.81567383 C8.08401703 253.51544342 8.08380554 254.21521301 8.08358765 254.93618774 C8.03338596 271.63907497 5.68291806 287.00608716 -1.29077148 302.31567383 C-1.96946289 303.81807617 -1.96946289 303.81807617 -2.66186523 305.35083008 C-8.72382036 318.08257865 -16.96840384 328.8509283 -26.29077148 339.31567383 C-26.8850293 339.9834082 -27.47928711 340.65114258 -28.09155273 341.33911133 C-48.00744312 362.39164062 -78.23758797 375.64657183 -107.03295898 376.62426758 C-137.2421101 377.13937475 -164.21732528 370.93485225 -189.29077148 353.31567383 C-187.73710268 357.7814104 -185.3551843 361.54583643 -182.72827148 365.44067383 C-182.28427002 366.10156006 -181.84026855 366.76244629 -181.3828125 367.44335938 C-175.4123708 376.21168273 -168.55671187 384.14602595 -161.41186523 391.97192383 C-159.47245646 394.11491695 -157.5974785 396.29912021 -155.72827148 398.50317383 C-152.84975706 401.80422248 -149.76347959 404.66794118 -146.41967773 407.49145508 C-144.98024932 408.72487355 -143.57145028 409.99480949 -142.19311523 411.29614258 C-111.20871069 440.47356641 -69.27383646 458.94471652 -27.29077148 464.31567383 C-26.61401367 464.41066162 -25.93725586 464.50564941 -25.23999023 464.60351562 C-17.0054924 465.6104515 -8.71786184 465.50174347 -0.43530273 465.50097656 C2.17554466 465.50314584 4.78595646 465.52130384 7.39672852 465.5402832 C21.75457416 465.58897917 36.02919849 464.69866294 50.08422852 461.56567383 C50.85766602 461.39648438 51.63110352 461.22729492 52.42797852 461.05297852 C88.85544206 452.80994718 121.78514746 436.14154993 149.70922852 411.31567383 C150.77270508 410.41655273 150.77270508 410.41655273 151.85766602 409.49926758 C161.81261791 401.06803281 170.76497466 391.65277523 178.70922852 381.31567383 C179.13026855 380.77104492 179.55130859 380.22641602 179.98510742 379.6652832 C196.72135895 357.88799206 210.06814298 333.78023088 217.70922852 307.31567383 C217.9006543 306.66695312 218.09208008 306.01823242 218.28930664 305.34985352 C234.45566606 250.06315747 228.7667901 188.10035438 201.23608398 137.35400391 C173.9479553 89.00643017 130.93516318 51.23989486 78.70922852 32.31567383 C77.93224609 32.01226074 77.15526367 31.70884766 76.35473633 31.39624023 C27.73327368 12.81608508 -34.98139678 15.64787833 -82.29077148 36.31567383 Z " fill="#020201" transform="translate(2204.290771484375,331.684326171875)"/>
<path d="M0 0 C0.95777344 0.25523438 1.91554688 0.51046875 2.90234375 0.7734375 C16.89719568 4.86857538 29.17880305 12.3750238 40 22 C41.28197266 23.00740234 41.28197266 23.00740234 42.58984375 24.03515625 C46.20003104 26.97830731 49.01371088 30.44252877 52 34 C52.63035156 34.70769531 53.26070312 35.41539063 53.91015625 36.14453125 C63.27639143 47.07490909 69.48615823 60.10435302 73 74 C73.44472656 75.37478516 73.44472656 75.37478516 73.8984375 76.77734375 C81.21836162 101.79268077 75.14854024 129.82803485 63.23828125 152.328125 C48.05086887 177.10945056 25.08377208 194.96299958 -2.98364258 202.53515625 C-10.93641119 204.39642484 -18.94003531 204.39858565 -27.0625 204.375 C-27.79677216 204.37412384 -28.53104431 204.37324768 -29.28756714 204.37234497 C-57.90447009 204.25954939 -81.40063474 193.8222563 -102 174 C-109.94963314 165.93630475 -115.84462338 157.04003712 -121 147 C-121.72316406 145.61361328 -121.72316406 145.61361328 -122.4609375 144.19921875 C-133.85158261 120.90017194 -134.5912692 90.05565785 -126.22851562 65.67797852 C-116.65142121 39.64109613 -96.52359314 17.53834074 -71.5 5.5625 C-49.95371708 -4.30602653 -22.78823463 -6.97908651 0 0 Z " fill="#F79220" transform="translate(2120,1596)"/>
<path d="M0 0 C2.1900125 -0.00435438 4.37797108 -0.04074613 6.56762695 -0.07861328 C20.71194986 -0.19442416 33.4699313 2.67763645 46.21020508 8.99560547 C47.09957764 9.43018066 47.9889502 9.86475586 48.90527344 10.3125 C56.59245688 14.18786271 63.11217673 18.61316044 69.52270508 24.37060547 C70.03091797 24.82661133 70.53913086 25.28261719 71.06274414 25.75244141 C89.05229547 42.14442157 103.39303241 65.89591752 104.69970703 90.73535156 C105.23503289 122.69707788 105.23503289 122.69707788 100.52270508 135.37060547 C100.30839844 135.9909668 100.0940918 136.61132812 99.87329102 137.25048828 C91.00898505 162.8885901 72.54133754 184.14944225 48.27270508 196.24560547 C46.03164691 197.306373 43.78231796 198.34995907 41.52270508 199.37060547 C40.66161133 199.77021484 39.80051758 200.16982422 38.91333008 200.58154297 C27.3347836 205.61404847 15.48634825 206.87358103 3.02661133 206.76171875 C0.89185267 206.74556117 -1.24102864 206.76171059 -3.37573242 206.78076172 C-11.77850211 206.7942863 -19.41653868 205.89146744 -27.47729492 203.37060547 C-28.23977539 203.14630859 -29.00225586 202.92201172 -29.7878418 202.69091797 C-56.01596068 194.72837958 -77.65563578 175.99224405 -91.21948242 152.33154297 C-104.91641962 124.86669999 -105.82212658 94.59537347 -96.27807617 65.74560547 C-86.0200282 39.5722472 -64.90704343 18.83138188 -39.82495117 6.80419922 C-35.11168572 4.78579966 -30.47242684 3.46574094 -25.47729492 2.37060547 C-24.70562988 2.19231201 -23.93396484 2.01401855 -23.13891602 1.83032227 C-15.43811787 0.22618111 -7.83143503 -0.00173358 0 0 Z " fill="#F79220" transform="translate(2087.477294921875,481.62939453125)"/>
</svg>
