<?xml version="1.0" encoding="UTF-8"?>
<svg version="1.1" xmlns="http://www.w3.org/2000/svg" width="4000" height="2250">
<path d="M0 0 C3.74497061 0.01135208 7.48965553 0.00462342 11.23461628 -0.00687027 C38.31150238 -0.07743682 65.16970675 1.26633674 92.07128906 4.51074219 C92.97012817 4.61745239 93.86896729 4.7241626 94.79504395 4.83410645 C135.05275949 9.64659178 175.1771518 17.68943526 213.75878906 30.26074219 C214.41967529 30.47601563 215.08056152 30.69128906 215.76147461 30.91308594 C272.67149759 49.50241719 326.98776113 74.83377078 376.75878906 108.26074219 C377.72437744 108.9065625 377.72437744 108.9065625 378.70947266 109.56542969 C394.89677021 120.42927992 410.56060809 132.05444423 425.75878906 144.26074219 C426.6753125 144.99421875 427.59183594 145.72769531 428.53613281 146.48339844 C439.58072253 155.41962301 450.27723873 164.77955169 460.69726562 174.43481445 C462.60414937 176.19960908 464.52110093 177.95018601 466.44824219 179.69311523 C473.92328903 186.46228757 481.12454643 193.47127084 488.24243164 200.61401367 C490.08333614 202.46032465 491.92959178 204.30116492 493.77636719 206.14160156 C499.12070787 211.48293506 504.41479855 216.81408584 509.31518555 222.57202148 C511.66566617 225.32160282 514.15961769 227.93543074 516.63378906 230.57324219 C521.13788411 235.41553108 525.42151235 240.37918785 529.56347656 245.53808594 C531.83699016 248.35772824 534.16902872 251.12091284 536.50878906 253.88574219 C542.84471963 261.48494175 548.83302255 269.33916906 554.75878906 277.26074219 C555.51385742 278.26838623 555.51385742 278.26838623 556.28417969 279.29638672 C571.99012977 300.36973717 586.69738373 322.45359644 599.75878906 345.26074219 C600.16677734 345.96924316 600.57476563 346.67774414 600.99511719 347.40771484 C603.99921274 352.64800512 606.90145958 357.93916557 609.75878906 363.26074219 C610.28730469 364.24397461 610.81582031 365.22720703 611.36035156 366.24023438 C652.57025802 443.3206359 674.95975496 527.65730446 683.96191406 619.10839844 C684.06155457 620.13968369 684.06155457 620.13968369 684.16320801 621.19180298 C684.38056131 623.54686218 684.57197956 625.90305686 684.75878906 628.26074219 C684.89104385 629.82332764 684.89104385 629.82332764 685.02597046 631.41748047 C686.03310267 644.93315211 685.90303206 658.4570467 685.89160156 672.00292969 C685.89199565 674.06150174 685.89312497 676.12007247 685.89435041 678.17864418 C685.89869827 685.53116061 685.89580523 692.88365752 685.88935411 700.23617172 C685.88468022 705.6104715 685.88230323 710.98476822 685.88110352 716.35906982 C685.86514097 776.33006917 685.42852005 836.29343869 684.75878906 896.26074219 C685.37372003 896.39422656 685.98865099 896.52771093 686.62221622 896.66524029 C687.83463568 896.93097206 687.83463568 896.93097206 689.07154846 897.20207214 C689.87210443 897.37680652 690.67266039 897.55154089 691.49747562 897.73157024 C730.73998873 906.9147452 769.47951214 933.01418262 799.90576172 958.70019531 C801.67224862 960.18786123 803.45417553 961.65486426 805.23925781 963.12011719 C813.62688639 970.10219426 821.40205575 977.69464776 829.13378906 985.38574219 C829.89949219 986.14354477 829.89949219 986.14354477 830.68066406 986.91665649 C837.51402179 993.69539029 843.74754674 1000.7295034 849.75878906 1008.26074219 C850.69370905 1009.36245117 851.63506566 1010.45878176 852.58691406 1011.54589844 C864.91606281 1025.68464805 875.34338716 1041.05790368 884.75878906 1057.26074219 C885.18256836 1057.98729004 885.60634766 1058.71383789 886.04296875 1059.46240234 C917.15172956 1113.15550181 932.04601204 1174.21118132 931.94628906 1236.13574219 C931.94535248 1236.89730621 931.94441589 1237.65887024 931.94345093 1238.44351196 C931.71508995 1324.84158016 901.55812577 1407.67820855 843.75878906 1472.26074219 C842.92605469 1473.20433594 842.09332031 1474.14792969 841.23535156 1475.12011719 C829.33082274 1488.37993083 816.84444399 1501.31744086 802.75878906 1512.26074219 C800.92226733 1513.81949338 799.08913887 1515.38224827 797.25878906 1516.94824219 C763.25148278 1545.25109709 724.65309576 1565.40530592 682.75878906 1579.26074219 C681.91266877 1592.09713786 681.59845488 1604.87609667 681.56933594 1617.73828125 C681.5613684 1619.72179327 681.5529786 1621.70530364 681.54420471 1623.68881226 C681.52630586 1627.92496494 681.51123457 1632.16111435 681.49842834 1636.39728546 C681.47795715 1643.12797859 681.45033733 1649.85863155 681.42175293 1656.58929443 C681.36198069 1670.89642456 681.31006739 1685.20357951 681.25878906 1699.51074219 C681.20343053 1714.92363321 681.14647969 1730.33651179 681.08124018 1745.74936461 C681.05783581 1751.32912242 681.03624303 1756.90887411 681.01914978 1762.48865509 C680.97969076 1775.23457272 680.91901286 1787.97984997 680.78535843 1800.72516823 C680.76789185 1802.39204281 680.75133224 1804.05892719 680.73575974 1805.72582054 C680.68708208 1810.78770355 680.60115336 1815.84727416 680.49121094 1820.90820312 C680.47818184 1822.11614658 680.46515274 1823.32409004 680.45172882 1824.56863785 C680.22900172 1832.44861145 680.22900172 1832.44861145 677.9005127 1836.47027588 C673.8589425 1839.84900092 669.67472695 1839.4002423 664.6748116 1839.38250434 C663.8386526 1839.3834703 663.0024936 1839.38443625 662.14099645 1839.38543147 C659.32078851 1839.38736878 656.50064182 1839.38202547 653.680439 1839.37664604 C651.65624342 1839.37630213 649.63204775 1839.37634956 647.60785219 1839.37675817 C642.04731708 1839.376376 636.48680854 1839.36924031 630.92628076 1839.36064673 C627.37427568 1839.35565002 623.8222736 1839.3524743 620.27026597 1839.34992014 C565.00953964 1839.30988891 509.74952581 1839.06720261 454.48950121 1838.80318354 C444.18625705 1838.75399838 433.88300741 1838.7060991 423.57975388 1838.65892029 C422.82464839 1838.6554616 422.06954291 1838.65200292 421.29155544 1838.64843943 C418.21359031 1838.63434332 415.13562516 1838.62025271 412.05765997 1838.60616955 C375.35609482 1838.43822191 338.65455474 1838.26510025 301.95301859 1838.09094923 C290.06097056 1838.03452958 278.16892148 1837.97833717 266.27687168 1837.92229223 C265.01030021 1837.91632305 265.01030021 1837.91632305 263.71814144 1837.91023327 C260.29899688 1837.89412001 256.87985231 1837.87800799 253.46070774 1837.86189748 C195.11018723 1837.58695177 136.75967263 1837.31077773 78.40917723 1837.03055058 C73.86020696 1837.00870492 69.31123665 1836.98686575 64.76226635 1836.96502601 C63.40901181 1836.95852884 63.40901181 1836.95852884 62.0284188 1836.95190042 C52.89138787 1836.90803242 43.75435691 1836.86416942 34.61732591 1836.820315 C32.78563272 1836.81152321 30.95393954 1836.80273075 29.12224636 1836.79393761 C-29.97175181 1836.51025495 -89.06578057 1836.23385505 -148.15983598 1835.96237114 C-190.80294577 1835.76646064 -233.44605036 1835.56967478 -276.08912277 1835.36576653 C-276.96514903 1835.36157799 -277.8411753 1835.35738946 -278.74374781 1835.353074 C-297.96739108 1835.2611392 -317.19103163 1835.16864551 -336.41466971 1835.07562903 C-344.14539103 1835.03823042 -351.87611267 1835.00090051 -359.60683441 1834.96358871 C-360.45271092 1834.9595041 -361.29858744 1834.95541948 -362.17009657 1834.95121109 C-389.39489691 1834.81977648 -416.61972078 1834.69434597 -443.8445634 1834.57201115 C-471.19119765 1834.44909331 -498.53779511 1834.31996409 -525.88435883 1834.18220037 C-529.65699957 1834.1631958 -533.42964065 1834.14426037 -537.20228195 1834.12536621 C-537.94178426 1834.12165998 -538.68128656 1834.11795375 -539.44319803 1834.1141352 C-551.16969942 1834.05554537 -562.89622052 1834.00359015 -574.62276462 1833.95437635 C-586.13918744 1833.90590775 -597.65555212 1833.85029457 -609.17190691 1833.78748851 C-615.33513227 1833.75408127 -621.49832969 1833.72386291 -627.66160861 1833.7022375 C-633.25978468 1833.68253372 -638.85783836 1833.65387279 -644.45593262 1833.61785854 C-646.47543922 1833.60647205 -648.49496798 1833.59843634 -650.5145019 1833.59404222 C-653.2449915 1833.58762681 -655.97514078 1833.56917031 -658.70554662 1833.54761136 C-659.49148958 1833.54867359 -660.27743254 1833.54973583 -661.08719195 1833.55083025 C-666.64878295 1833.48800814 -671.21077742 1832.96191622 -675.55371094 1829.32324219 C-677.97733244 1826.36103813 -678.36639049 1823.92869461 -678.35143471 1820.22773743 C-678.35055906 1819.40443341 -678.34968341 1818.5811294 -678.34878123 1817.73287678 C-678.34265956 1816.82852988 -678.33653789 1815.92418299 -678.33023071 1814.99243164 C-678.32770715 1814.03138865 -678.32518359 1813.07034567 -678.32258356 1812.08018017 C-678.31282583 1808.84475819 -678.29579535 1805.60941495 -678.27880859 1802.37402344 C-678.27030446 1800.05961251 -678.26223273 1797.74519997 -678.25456238 1795.43078613 C-678.23231534 1789.12821052 -678.20364317 1782.82567887 -678.17360735 1776.52313614 C-678.14606606 1770.58958743 -678.12263748 1764.65602342 -678.09896044 1758.72245824 C-678.04889968 1746.23392582 -677.99269466 1733.74542683 -677.93435471 1721.25693071 C-677.88459277 1710.5759256 -677.83982078 1699.89490943 -677.79882812 1689.21386719 C-677.75116106 1676.79464656 -677.7004772 1664.37544431 -677.64500272 1651.95625591 C-677.61571768 1645.38902535 -677.58760698 1638.82179588 -677.56270218 1632.25454712 C-677.53900316 1626.062491 -677.51069842 1619.87047177 -677.47901344 1613.67845154 C-677.46816905 1611.41918127 -677.45884578 1609.15990304 -677.45125008 1606.90061951 C-677.40559492 1593.65591237 -677.08276349 1580.47998981 -676.24121094 1567.26074219 C-676.85874489 1567.05800469 -677.47627884 1566.8552672 -678.11252594 1566.64638615 C-678.92283012 1566.37870143 -679.73313431 1566.11101671 -680.56799316 1565.83522034 C-681.77273159 1565.4383016 -681.77273159 1565.4383016 -683.00180817 1565.0333643 C-685.54319637 1564.15655342 -687.92872226 1563.11089293 -690.33496094 1561.91308594 C-691.21144287 1561.47794678 -692.0879248 1561.04280762 -692.9909668 1560.59448242 C-693.89854736 1560.13372314 -694.80612793 1559.67296387 -695.74121094 1559.19824219 C-697.18089233 1558.47133179 -697.18089233 1558.47133179 -698.6496582 1557.72973633 C-726.59366491 1543.46643197 -752.35304723 1525.2973776 -775.33496094 1503.94824219 C-777.96296266 1501.51804705 -780.62481186 1499.13445023 -783.30371094 1496.76074219 C-790.69065371 1490.12199458 -797.80971498 1483.15464675 -804.25292969 1475.58886719 C-805.86166557 1473.70516073 -807.49059639 1471.84676004 -809.13574219 1469.99511719 C-821.00636068 1456.5753767 -831.61676613 1442.37099917 -841.24121094 1427.26074219 C-841.60778809 1426.68598145 -841.97436523 1426.1112207 -842.35205078 1425.51904297 C-877.34536897 1370.11688062 -894.77583328 1305.74557574 -894.50195312 1240.35668945 C-894.49122693 1237.32775825 -894.50193526 1234.2994214 -894.51464844 1231.27050781 C-894.52796281 1213.32518439 -893.360001 1195.43663446 -890.55371094 1177.69824219 C-890.38637451 1176.63855225 -890.21903809 1175.5788623 -890.04663086 1174.48706055 C-881.19150424 1120.9320332 -860.36419133 1070.97323342 -828.24121094 1027.26074219 C-827.6016748 1026.3894165 -827.6016748 1026.3894165 -826.94921875 1025.50048828 C-791.3957085 977.41443615 -743.76333612 937.52229246 -689.86621094 911.63574219 C-689.00447266 911.22163086 -688.14273437 910.80751953 -687.25488281 910.38085938 C-682.63682308 908.21762461 -678.16361523 906.64217161 -673.24121094 905.26074219 C-673.19411836 885.71703916 -673.1590422 866.17334792 -673.13758659 846.62959957 C-673.12735172 837.55146811 -673.11344406 828.47337225 -673.09033203 819.39526367 C-673.07015571 811.46636237 -673.05743825 803.53748689 -673.05303395 795.60856062 C-673.05046674 791.42518982 -673.04460411 787.24189278 -673.02975082 783.05854607 C-672.96576916 764.31552695 -673.43244483 745.77828823 -674.78283691 727.08061218 C-675.40305521 718.33359563 -675.55106929 709.61610045 -675.54199219 700.85058594 C-675.54591825 699.16988528 -675.55026014 697.48918556 -675.55497742 695.80848694 C-675.56229235 692.33982078 -675.56225994 688.8712566 -675.55688477 685.40258789 C-675.55226592 681.94542382 -675.55915503 678.48861275 -675.57739258 675.03149414 C-675.67536829 656.24728246 -675.37793224 637.58904057 -673.86230469 618.85839844 C-673.80073999 618.09743299 -673.7391753 617.33646755 -673.67574501 616.55244255 C-672.48343365 602.16716145 -670.85609301 587.80046293 -668.67480469 573.53027344 C-668.5612413 572.77937943 -668.44767792 572.02848541 -668.33067322 571.25483704 C-653.84524269 476.51942044 -619.78138706 388.31347024 -553.86083984 289.44970703 C-552.1627563 287.15470898 -550.48744578 284.84432108 -548.81542969 282.53027344 C-541.50522003 272.44750693 -533.88049048 262.70686297 -525.85791016 253.18164062 C-524.34427737 251.38320167 -522.84023009 249.57723833 -521.33886719 247.76855469 C-515.44878031 240.70191329 -509.31592611 233.90197505 -503.02612305 227.18896484 C-501.69021798 225.74579999 -500.36766002 224.29025995 -499.05200195 222.82861328 C-491.15486737 214.08920816 -482.89602792 205.72939598 -474.56762695 197.40185547 C-472.14670106 194.97870286 -469.73393864 192.54760096 -467.32128906 190.11621094 C-465.78336515 188.57535958 -464.24497154 187.03497685 -462.70605469 185.49511719 C-461.98530258 184.76717957 -461.26455048 184.03924194 -460.5219574 183.28924561 C-459.85688675 182.62725159 -459.1918161 181.96525757 -458.5065918 181.28320312 C-457.92244003 180.69762634 -457.33828827 180.11204956 -456.73643494 179.50872803 C-455.24121094 178.26074219 -455.24121094 178.26074219 -453.24121094 178.26074219 C-453.24121094 177.60074219 -453.24121094 176.94074219 -453.24121094 176.26074219 C-451.87792969 174.88574219 -451.87792969 174.88574219 -449.92871094 173.26074219 C-446.52473646 170.37215821 -443.21038696 167.41280541 -439.92871094 164.38574219 C-435.49489783 160.34672065 -430.9606651 156.48567341 -426.29199219 152.72167969 C-424.0683242 150.92793983 -421.85922616 149.12201835 -419.65917969 147.29980469 C-404.12665707 134.47818404 -387.79193243 122.72685148 -371.24121094 111.26074219 C-370.3546582 110.64368408 -370.3546582 110.64368408 -369.45019531 110.01416016 C-351.50175185 97.57932404 -332.47494627 86.57543683 -313.24121094 76.26074219 C-312.33000488 75.76896484 -311.41879883 75.2771875 -310.47998047 74.77050781 C-241.7100546 37.79914082 -164.89350441 13.65907676 -87.24121094 5.26074219 C-85.39366211 5.05674805 -85.39366211 5.05674805 -83.50878906 4.84863281 C-75.53827318 3.9793446 -67.56515081 3.14653312 -59.57635498 2.46313477 C-57.8892993 2.31691357 -56.20270238 2.16536587 -54.51641846 2.01049805 C-36.32020267 0.35957253 -18.25355646 -0.05578934 0 0 Z M-568.24121094 1235.26074219 C-568.24121094 1235.59074219 -568.24121094 1235.92074219 -568.24121094 1236.26074219 C-566.59121094 1236.26074219 -564.94121094 1236.26074219 -563.24121094 1236.26074219 C-563.24121094 1235.93074219 -563.24121094 1235.60074219 -563.24121094 1235.26074219 C-564.89121094 1235.26074219 -566.54121094 1235.26074219 -568.24121094 1235.26074219 Z M-525.24121094 1235.26074219 C-525.24121094 1235.59074219 -525.24121094 1235.92074219 -525.24121094 1236.26074219 C-523.59121094 1236.26074219 -521.94121094 1236.26074219 -520.24121094 1236.26074219 C-520.24121094 1235.93074219 -520.24121094 1235.60074219 -520.24121094 1235.26074219 C-521.89121094 1235.26074219 -523.54121094 1235.26074219 -525.24121094 1235.26074219 Z M539.75878906 1235.26074219 C543.75878906 1236.26074219 543.75878906 1236.26074219 543.75878906 1236.26074219 Z M590.75878906 1235.26074219 C594.75878906 1236.26074219 594.75878906 1236.26074219 594.75878906 1236.26074219 Z M-563.24121094 1236.26074219 C-563.24121094 1236.59074219 -563.24121094 1236.92074219 -563.24121094 1237.26074219 C-556.87268022 1238.20700972 -550.67455928 1238.41203653 -544.24121094 1238.38574219 C-543.29503906 1238.38960937 -542.34886719 1238.39347656 -541.37402344 1238.39746094 C-535.90311606 1238.3898835 -530.65330534 1238.06489772 -525.24121094 1237.26074219 C-525.24121094 1236.93074219 -525.24121094 1236.60074219 -525.24121094 1236.26074219 C-537.78121094 1236.26074219 -550.32121094 1236.26074219 -563.24121094 1236.26074219 Z M544.75878906 1236.26074219 C544.75878906 1236.59074219 544.75878906 1236.92074219 544.75878906 1237.26074219 C546.40878906 1237.26074219 548.05878906 1237.26074219 549.75878906 1237.26074219 C549.75878906 1236.93074219 549.75878906 1236.60074219 549.75878906 1236.26074219 C548.10878906 1236.26074219 546.45878906 1236.26074219 544.75878906 1236.26074219 Z M584.75878906 1236.26074219 C584.75878906 1236.59074219 584.75878906 1236.92074219 584.75878906 1237.26074219 C586.73878906 1237.26074219 588.71878906 1237.26074219 590.75878906 1237.26074219 C590.75878906 1236.93074219 590.75878906 1236.60074219 590.75878906 1236.26074219 C588.77878906 1236.26074219 586.79878906 1236.26074219 584.75878906 1236.26074219 Z M549.75878906 1237.26074219 C549.75878906 1237.59074219 549.75878906 1237.92074219 549.75878906 1238.26074219 C561.26117147 1239.93381599 573.25640666 1239.93381599 584.75878906 1238.26074219 C584.75878906 1237.93074219 584.75878906 1237.60074219 584.75878906 1237.26074219 C573.20878906 1237.26074219 561.65878906 1237.26074219 549.75878906 1237.26074219 Z " fill="#F79220" transform="translate(1889.2412109375,224.7392578125)"/>
<path d="M0 0 C2.72764465 0.02176617 5.45509432 0.02083767 8.18281078 0.02000332 C28.8941318 0.02140643 49.07441747 1.00086788 69.4095459 5.07873535 C70.05904205 5.20684601 70.70853821 5.33495667 71.37771606 5.46694946 C127.86824482 16.66505228 179.9098331 42.29665383 223.0970459 80.39123535 C223.81142822 81.01804199 224.52581055 81.64484863 225.26184082 82.29064941 C231.73430228 88.03499956 237.92160923 94.02957129 244.03820801 100.14709473 C245.65594782 101.76264215 247.28155226 103.36998569 248.90759277 104.97717285 C255.42367065 111.45821706 261.3964054 118.16854766 267.0970459 125.39123535 C268.12099637 126.6349223 269.14792785 127.87616671 270.17907715 129.1138916 C277.84159143 138.43764446 284.61711437 148.21549873 291.0970459 158.39123535 C291.48956543 159.00370117 291.88208496 159.61616699 292.28649902 160.24719238 C318.72810218 201.83325872 333.52527496 247.64520439 339.0970459 296.39123535 C339.21563965 297.38880859 339.3342334 298.38638184 339.4564209 299.41418457 C343.89588168 337.94896839 341.82394437 378.07374107 332.72058105 415.79455566 C332.11203002 418.32883477 331.54443704 420.86942988 330.98376465 423.41467285 C318.98406815 476.3107597 289.53938884 524.17163105 253.3470459 563.9185791 C251.75222781 565.67121773 250.1701272 567.4354672 248.5970459 569.2076416 C244.38576629 573.92607226 240.17934121 578.39803548 235.33532715 582.4654541 C233.03443627 584.44510367 230.82639605 586.50959035 228.61901855 588.59240723 C211.56440474 604.63072179 192.22046924 618.47329033 172.0970459 630.39123535 C171.43366211 630.78875 170.77027832 631.18626465 170.08679199 631.5958252 C139.82884939 649.58840413 106.24331149 661.5641622 71.7220459 668.07873535 C70.2204895 668.36418213 70.2204895 668.36418213 68.68859863 668.65539551 C65.1656905 669.28879556 61.6355502 669.85383327 58.0970459 670.39123535 C57.27672882 670.51865112 56.45641174 670.64606689 55.61123657 670.77734375 C40.1817575 673.11719844 25.01323604 673.8642206 9.41662598 673.78234863 C5.79734362 673.76629213 2.1791851 673.78229266 -1.44006348 673.8013916 C-17.76712934 673.81520287 -33.72628815 672.56792429 -49.9029541 670.39123535 C-51.18900543 670.2182769 -51.18900543 670.2182769 -52.5010376 670.04182434 C-117.15572354 661.16808387 -177.22430751 629.34988769 -224.3560791 584.83654785 C-225.90714016 583.38732413 -227.47829299 581.96404432 -229.0592041 580.54748535 C-234.56513625 575.60759168 -239.76954524 570.54168841 -244.64123535 564.96154785 C-247.08232968 562.18738538 -249.61621189 559.515559 -252.1529541 556.82873535 C-258.97616933 549.46437686 -264.95335401 541.46582081 -270.9029541 533.39123535 C-271.42035156 532.69336914 -271.93774902 531.99550293 -272.4708252 531.27648926 C-283.53999319 516.27036725 -292.90930985 500.30964242 -300.91271973 483.4708252 C-301.58633862 482.05615908 -302.26763469 480.64512865 -302.95568848 479.23742676 C-324.3664735 435.2915022 -333.11863959 386.54409649 -333.1529541 337.95373535 C-333.15396118 336.96145935 -333.15496826 335.96918335 -333.15600586 334.94683838 C-333.14436565 317.9141305 -332.30122356 301.27474221 -329.9029541 284.39123535 C-329.76373535 283.38625 -329.6245166 282.38126465 -329.4810791 281.3458252 C-326.36561559 259.6133037 -321.06363782 237.79924472 -312.9029541 217.39123535 C-312.33085205 215.95578369 -312.33085205 215.95578369 -311.74719238 214.49133301 C-297.66151143 179.50049928 -279.00130263 147.65968574 -253.9029541 119.39123535 C-253.2964502 118.69860596 -252.68994629 118.00597656 -252.06506348 117.2923584 C-245.90800612 110.33871401 -239.43079077 103.73289366 -232.86535645 97.16833496 C-231.03253141 95.33331813 -229.207884 93.49042285 -227.38342285 91.64709473 C-220.5304675 84.76137587 -213.55269665 78.3933771 -205.9029541 72.39123535 C-204.65894622 71.3676748 -203.41768339 70.34076061 -202.18029785 69.3092041 C-161.00494383 35.46238531 -110.25883081 13.47151743 -57.9029541 4.39123535 C-56.93526596 4.22142151 -55.96757782 4.05160767 -54.9705658 3.87664795 C-36.59923566 0.73412942 -18.59355806 -0.1869318 0 0 Z M-29.9029541 335.39123535 C-25.9029541 336.39123535 -25.9029541 336.39123535 -25.9029541 336.39123535 Z M21.0970459 335.39123535 C25.0970459 336.39123535 25.0970459 336.39123535 25.0970459 336.39123535 Z M-24.9029541 336.39123535 C-24.9029541 336.72123535 -24.9029541 337.05123535 -24.9029541 337.39123535 C-23.2529541 337.39123535 -21.6029541 337.39123535 -19.9029541 337.39123535 C-19.9029541 337.06123535 -19.9029541 336.73123535 -19.9029541 336.39123535 C-21.5529541 336.39123535 -23.2029541 336.39123535 -24.9029541 336.39123535 Z M15.0970459 336.39123535 C15.0970459 336.72123535 15.0970459 337.05123535 15.0970459 337.39123535 C17.0770459 337.39123535 19.0570459 337.39123535 21.0970459 337.39123535 C21.0970459 337.06123535 21.0970459 336.73123535 21.0970459 336.39123535 C19.1170459 336.39123535 17.1370459 336.39123535 15.0970459 336.39123535 Z M-19.9029541 337.39123535 C-19.9029541 337.72123535 -19.9029541 338.05123535 -19.9029541 338.39123535 C-8.4005717 340.06430916 3.5946635 340.06430916 15.0970459 338.39123535 C15.0970459 338.06123535 15.0970459 337.73123535 15.0970459 337.39123535 C3.5470459 337.39123535 -8.0029541 337.39123535 -19.9029541 337.39123535 Z " fill="#F79220" transform="translate(2458.9029541015625,1124.6087646484375)"/>
<path d="M0 0 C0.69062153 -0.00147285 1.38124306 -0.00294571 2.09279251 -0.0044632 C25.74672801 -0.04543854 48.52255306 1.48389803 71.6875 6.5 C73.37552734 6.84442139 73.37552734 6.84442139 75.09765625 7.19580078 C82.06964267 8.63749872 88.8777525 10.4272348 95.6875 12.5 C96.86699219 12.85626465 98.04648438 13.2125293 99.26171875 13.57958984 C133.48754599 24.06146515 166.04668365 39.93883816 194.6875 61.5 C195.22391113 61.89896484 195.76032227 62.29792969 196.31298828 62.70898438 C217.36709935 78.3906671 237.76768988 96.38215984 254.6875 116.5 C255.86119141 117.83998047 255.86119141 117.83998047 257.05859375 119.20703125 C300.63580761 169.22904738 328.61881697 232.33816222 334.6875 298.5 C334.7714502 299.39130615 334.85540039 300.2826123 334.94189453 301.20092773 C342.52260714 391.95622856 319.43062166 479.02574991 260.9453125 549.83984375 C258.03984213 553.26307095 255.0528319 556.60420591 252.0234375 559.91796875 C250.12076293 562.02109231 248.26250442 564.14991251 246.41015625 566.296875 C242.6891159 570.55782515 238.76054385 574.57516084 234.75 578.5625 C234.08548828 579.23087891 233.42097656 579.89925781 232.73632812 580.58789062 C228.2184528 585.09700188 223.54245148 589.35754788 218.6875 593.5 C218.06045166 594.03906982 217.43340332 594.57813965 216.78735352 595.13354492 C189.44873133 618.48873033 157.66821319 639.2876047 123.6875 651.5 C122.68759033 651.86617432 122.68759033 651.86617432 121.66748047 652.23974609 C116.69620951 654.05951442 111.70270298 655.80524763 106.6875 657.5 C105.71176025 657.83064453 105.71176025 657.83064453 104.71630859 658.16796875 C69.98452819 669.80695076 34.49554798 673.93234628 -2 673.8125 C-3.13148468 673.81100952 -4.26296936 673.80951904 -5.42874146 673.8079834 C-22.8982799 673.76673774 -40.02524613 673.2117261 -57.3125 670.5 C-58.23224609 670.36078125 -59.15199219 670.2215625 -60.09960938 670.078125 C-117.72715102 661.06469343 -172.58246974 634.95761526 -216.3125 596.5 C-217.04597656 595.86578125 -217.77945312 595.2315625 -218.53515625 594.578125 C-220.4728804 592.89850725 -222.39331324 591.20074274 -224.3125 589.5 C-225.35664062 588.59507812 -225.35664062 588.59507812 -226.421875 587.671875 C-237.86718114 577.6092233 -249.02617912 566.88860767 -258.4296875 554.875 C-260.19855427 552.64373238 -262.05788636 550.58025561 -264 548.5 C-288.78210445 520.76764503 -306.54400437 486.15469786 -319.3125 451.5 C-319.60560059 450.72495117 -319.89870117 449.94990234 -320.20068359 449.15136719 C-329.43282308 424.57308855 -333.68901239 398.51144212 -336.3125 372.5 C-336.4163501 371.50210449 -336.5202002 370.50420898 -336.62719727 369.47607422 C-337.58907699 358.9218553 -337.51274249 348.33868472 -337.5 337.75 C-337.49906342 336.74767334 -337.49812683 335.74534668 -337.49716187 334.71264648 C-337.33844739 256.35929743 -312.49549678 180.8371173 -260.3125 121.5 C-259.36117188 120.39978516 -259.36117188 120.39978516 -258.390625 119.27734375 C-256.71099889 117.33960996 -255.01374745 115.41875854 -253.3125 113.5 C-252.68601562 112.78070312 -252.05953125 112.06140625 -251.4140625 111.3203125 C-242.0855205 100.74334108 -232.11023266 90.58127239 -221.3125 81.5 C-220.33667969 80.63503906 -219.36085938 79.77007813 -218.35546875 78.87890625 C-174.75098295 40.3765289 -120.36950354 15.4937744 -63.4375 4.6875 C-62.4180127 4.4925293 -61.39852539 4.29755859 -60.34814453 4.09667969 C-40.33068001 0.51004598 -20.29249291 0.01988471 0 0 Z M-32.3125 335.5 C-32.3125 335.83 -32.3125 336.16 -32.3125 336.5 C-30.6625 336.5 -29.0125 336.5 -27.3125 336.5 C-27.3125 336.17 -27.3125 335.84 -27.3125 335.5 C-28.9625 335.5 -30.6125 335.5 -32.3125 335.5 Z M10.6875 335.5 C10.6875 335.83 10.6875 336.16 10.6875 336.5 C12.3375 336.5 13.9875 336.5 15.6875 336.5 C15.6875 336.17 15.6875 335.84 15.6875 335.5 C14.0375 335.5 12.3875 335.5 10.6875 335.5 Z M-27.3125 336.5 C-27.3125 336.83 -27.3125 337.16 -27.3125 337.5 C-20.94396928 338.44626754 -14.74584834 338.65129434 -8.3125 338.625 C-7.36632813 338.62886719 -6.42015625 338.63273437 -5.4453125 338.63671875 C0.02559488 338.62914132 5.27540559 338.30415554 10.6875 337.5 C10.6875 337.17 10.6875 336.84 10.6875 336.5 C-1.8525 336.5 -14.3925 336.5 -27.3125 336.5 Z " fill="#F79220" transform="translate(1353.3125,1124.5)"/>
<path d="M0 0 C3.74497061 0.01135208 7.48965553 0.00462342 11.23461628 -0.00687027 C38.31150238 -0.07743682 65.16970675 1.26633674 92.07128906 4.51074219 C92.97012817 4.61745239 93.86896729 4.7241626 94.79504395 4.83410645 C135.05275949 9.64659178 175.1771518 17.68943526 213.75878906 30.26074219 C214.41967529 30.47601563 215.08056152 30.69128906 215.76147461 30.91308594 C272.67149759 49.50241719 326.98776113 74.83377078 376.75878906 108.26074219 C377.72437744 108.9065625 377.72437744 108.9065625 378.70947266 109.56542969 C394.89677021 120.42927992 410.56060809 132.05444423 425.75878906 144.26074219 C426.6753125 144.99421875 427.59183594 145.72769531 428.53613281 146.48339844 C439.58072253 155.41962301 450.27723873 164.77955169 460.69726562 174.43481445 C462.60414937 176.19960908 464.52110093 177.95018601 466.44824219 179.69311523 C473.92328903 186.46228757 481.12454643 193.47127084 488.24243164 200.61401367 C490.08333614 202.46032465 491.92959178 204.30116492 493.77636719 206.14160156 C499.12070787 211.48293506 504.41479855 216.81408584 509.31518555 222.57202148 C511.66566617 225.32160282 514.15961769 227.93543074 516.63378906 230.57324219 C521.13788411 235.41553108 525.42151235 240.37918785 529.56347656 245.53808594 C531.83699016 248.35772824 534.16902872 251.12091284 536.50878906 253.88574219 C542.84471963 261.48494175 548.83302255 269.33916906 554.75878906 277.26074219 C555.51385742 278.26838623 555.51385742 278.26838623 556.28417969 279.29638672 C571.99012977 300.36973717 586.69738373 322.45359644 599.75878906 345.26074219 C600.16677734 345.96924316 600.57476563 346.67774414 600.99511719 347.40771484 C603.99921274 352.64800512 606.90145958 357.93916557 609.75878906 363.26074219 C610.28730469 364.24397461 610.81582031 365.22720703 611.36035156 366.24023438 C652.57025802 443.3206359 674.95975496 527.65730446 683.96191406 619.10839844 C684.06155457 620.13968369 684.06155457 620.13968369 684.16320801 621.19180298 C684.38056131 623.54686218 684.57197956 625.90305686 684.75878906 628.26074219 C684.89104385 629.82332764 684.89104385 629.82332764 685.02597046 631.41748047 C686.03310267 644.93315211 685.90303206 658.4570467 685.89160156 672.00292969 C685.89199565 674.06150174 685.89312497 676.12007247 685.89435041 678.17864418 C685.89869827 685.53116061 685.89580523 692.88365752 685.88935411 700.23617172 C685.88468022 705.6104715 685.88230323 710.98476822 685.88110352 716.35906982 C685.86514097 776.33006917 685.42852005 836.29343869 684.75878906 896.26074219 C685.37372003 896.39422656 685.98865099 896.52771093 686.62221622 896.66524029 C687.83463568 896.93097206 687.83463568 896.93097206 689.07154846 897.20207214 C689.87210443 897.37680652 690.67266039 897.55154089 691.49747562 897.73157024 C730.73998873 906.9147452 769.47951214 933.01418262 799.90576172 958.70019531 C801.67224862 960.18786123 803.45417553 961.65486426 805.23925781 963.12011719 C813.62688639 970.10219426 821.40205575 977.69464776 829.13378906 985.38574219 C829.89949219 986.14354477 829.89949219 986.14354477 830.68066406 986.91665649 C837.51402179 993.69539029 843.74754674 1000.7295034 849.75878906 1008.26074219 C850.69370905 1009.36245117 851.63506566 1010.45878176 852.58691406 1011.54589844 C864.91606281 1025.68464805 875.34338716 1041.05790368 884.75878906 1057.26074219 C885.18256836 1057.98729004 885.60634766 1058.71383789 886.04296875 1059.46240234 C917.15172956 1113.15550181 932.04601204 1174.21118132 931.94628906 1236.13574219 C931.94535248 1236.89730621 931.94441589 1237.65887024 931.94345093 1238.44351196 C931.71508995 1324.84158016 901.55812577 1407.67820855 843.75878906 1472.26074219 C842.92605469 1473.20433594 842.09332031 1474.14792969 841.23535156 1475.12011719 C829.33082274 1488.37993083 816.84444399 1501.31744086 802.75878906 1512.26074219 C800.92226733 1513.81949338 799.08913887 1515.38224827 797.25878906 1516.94824219 C763.25148278 1545.25109709 724.65309576 1565.40530592 682.75878906 1579.26074219 C681.91266877 1592.09713786 681.59845488 1604.87609667 681.56933594 1617.73828125 C681.5613684 1619.72179327 681.5529786 1621.70530364 681.54420471 1623.68881226 C681.52630586 1627.92496494 681.51123457 1632.16111435 681.49842834 1636.39728546 C681.47795715 1643.12797859 681.45033733 1649.85863155 681.42175293 1656.58929443 C681.36198069 1670.89642456 681.31006739 1685.20357951 681.25878906 1699.51074219 C681.20343053 1714.92363321 681.14647969 1730.33651179 681.08124018 1745.74936461 C681.05783581 1751.32912242 681.03624303 1756.90887411 681.01914978 1762.48865509 C680.97969076 1775.23457272 680.91901286 1787.97984997 680.78535843 1800.72516823 C680.76789185 1802.39204281 680.75133224 1804.05892719 680.73575974 1805.72582054 C680.68708208 1810.78770355 680.60115336 1815.84727416 680.49121094 1820.90820312 C680.47818184 1822.11614658 680.46515274 1823.32409004 680.45172882 1824.56863785 C680.22900172 1832.44861145 680.22900172 1832.44861145 677.9005127 1836.47027588 C673.8589425 1839.84900092 669.67472695 1839.4002423 664.6748116 1839.38250434 C663.8386526 1839.3834703 663.0024936 1839.38443625 662.14099645 1839.38543147 C659.32078851 1839.38736878 656.50064182 1839.38202547 653.680439 1839.37664604 C651.65624342 1839.37630213 649.63204775 1839.37634956 647.60785219 1839.37675817 C642.04731708 1839.376376 636.48680854 1839.36924031 630.92628076 1839.36064673 C627.37427568 1839.35565002 623.8222736 1839.3524743 620.27026597 1839.34992014 C565.00953964 1839.30988891 509.74952581 1839.06720261 454.48950121 1838.80318354 C444.18625705 1838.75399838 433.88300741 1838.7060991 423.57975388 1838.65892029 C422.82464839 1838.6554616 422.06954291 1838.65200292 421.29155544 1838.64843943 C418.21359031 1838.63434332 415.13562516 1838.62025271 412.05765997 1838.60616955 C375.35609482 1838.43822191 338.65455474 1838.26510025 301.95301859 1838.09094923 C290.06097056 1838.03452958 278.16892148 1837.97833717 266.27687168 1837.92229223 C265.01030021 1837.91632305 265.01030021 1837.91632305 263.71814144 1837.91023327 C260.29899688 1837.89412001 256.87985231 1837.87800799 253.46070774 1837.86189748 C195.11018723 1837.58695177 136.75967263 1837.31077773 78.40917723 1837.03055058 C73.86020696 1837.00870492 69.31123665 1836.98686575 64.76226635 1836.96502601 C63.40901181 1836.95852884 63.40901181 1836.95852884 62.0284188 1836.95190042 C52.89138787 1836.90803242 43.75435691 1836.86416942 34.61732591 1836.820315 C32.78563272 1836.81152321 30.95393954 1836.80273075 29.12224636 1836.79393761 C-29.97175181 1836.51025495 -89.06578057 1836.23385505 -148.15983598 1835.96237114 C-190.80294577 1835.76646064 -233.44605036 1835.56967478 -276.08912277 1835.36576653 C-276.96514903 1835.36157799 -277.8411753 1835.35738946 -278.74374781 1835.353074 C-297.96739108 1835.2611392 -317.19103163 1835.16864551 -336.41466971 1835.07562903 C-344.14539103 1835.03823042 -351.87611267 1835.00090051 -359.60683441 1834.96358871 C-360.45271092 1834.9595041 -361.29858744 1834.95541948 -362.17009657 1834.95121109 C-389.39489691 1834.81977648 -416.61972078 1834.69434597 -443.8445634 1834.57201115 C-471.19119765 1834.44909331 -498.53779511 1834.31996409 -525.88435883 1834.18220037 C-529.65699957 1834.1631958 -533.42964065 1834.14426037 -537.20228195 1834.12536621 C-537.94178426 1834.12165998 -538.68128656 1834.11795375 -539.44319803 1834.1141352 C-551.16969942 1834.05554537 -562.89622052 1834.00359015 -574.62276462 1833.95437635 C-586.13918744 1833.90590775 -597.65555212 1833.85029457 -609.17190691 1833.78748851 C-615.33513227 1833.75408127 -621.49832969 1833.72386291 -627.66160861 1833.7022375 C-633.25978468 1833.68253372 -638.85783836 1833.65387279 -644.45593262 1833.61785854 C-646.47543922 1833.60647205 -648.49496798 1833.59843634 -650.5145019 1833.59404222 C-653.2449915 1833.58762681 -655.97514078 1833.56917031 -658.70554662 1833.54761136 C-659.49148958 1833.54867359 -660.27743254 1833.54973583 -661.08719195 1833.55083025 C-666.64878295 1833.48800814 -671.21077742 1832.96191622 -675.55371094 1829.32324219 C-677.97733244 1826.36103813 -678.36639049 1823.92869461 -678.35143471 1820.22773743 C-678.35055906 1819.40443341 -678.34968341 1818.5811294 -678.34878123 1817.73287678 C-678.34265956 1816.82852988 -678.33653789 1815.92418299 -678.33023071 1814.99243164 C-678.32770715 1814.03138865 -678.32518359 1813.07034567 -678.32258356 1812.08018017 C-678.31282583 1808.84475819 -678.29579535 1805.60941495 -678.27880859 1802.37402344 C-678.27030446 1800.05961251 -678.26223273 1797.74519997 -678.25456238 1795.43078613 C-678.23231534 1789.12821052 -678.20364317 1782.82567887 -678.17360735 1776.52313614 C-678.14606606 1770.58958743 -678.12263748 1764.65602342 -678.09896044 1758.72245824 C-678.04889968 1746.23392582 -677.99269466 1733.74542683 -677.93435471 1721.25693071 C-677.88459277 1710.5759256 -677.83982078 1699.89490943 -677.79882812 1689.21386719 C-677.75116106 1676.79464656 -677.7004772 1664.37544431 -677.64500272 1651.95625591 C-677.61571768 1645.38902535 -677.58760698 1638.82179588 -677.56270218 1632.25454712 C-677.53900316 1626.062491 -677.51069842 1619.87047177 -677.47901344 1613.67845154 C-677.46816905 1611.41918127 -677.45884578 1609.15990304 -677.45125008 1606.90061951 C-677.40559492 1593.65591237 -677.08276349 1580.47998981 -676.24121094 1567.26074219 C-676.85874489 1567.05800469 -677.47627884 1566.8552672 -678.11252594 1566.64638615 C-678.92283012 1566.37870143 -679.73313431 1566.11101671 -680.56799316 1565.83522034 C-681.77273159 1565.4383016 -681.77273159 1565.4383016 -683.00180817 1565.0333643 C-685.54319637 1564.15655342 -687.92872226 1563.11089293 -690.33496094 1561.91308594 C-691.21144287 1561.47794678 -692.0879248 1561.04280762 -692.9909668 1560.59448242 C-693.89854736 1560.13372314 -694.80612793 1559.67296387 -695.74121094 1559.19824219 C-697.18089233 1558.47133179 -697.18089233 1558.47133179 -698.6496582 1557.72973633 C-726.59366491 1543.46643197 -752.35304723 1525.2973776 -775.33496094 1503.94824219 C-777.96296266 1501.51804705 -780.62481186 1499.13445023 -783.30371094 1496.76074219 C-790.69065371 1490.12199458 -797.80971498 1483.15464675 -804.25292969 1475.58886719 C-805.86166557 1473.70516073 -807.49059639 1471.84676004 -809.13574219 1469.99511719 C-821.00636068 1456.5753767 -831.61676613 1442.37099917 -841.24121094 1427.26074219 C-841.60778809 1426.68598145 -841.97436523 1426.1112207 -842.35205078 1425.51904297 C-877.34536897 1370.11688062 -894.77583328 1305.74557574 -894.50195312 1240.35668945 C-894.49122693 1237.32775825 -894.50193526 1234.2994214 -894.51464844 1231.27050781 C-894.52796281 1213.32518439 -893.360001 1195.43663446 -890.55371094 1177.69824219 C-890.38637451 1176.63855225 -890.21903809 1175.5788623 -890.04663086 1174.48706055 C-881.19150424 1120.9320332 -860.36419133 1070.97323342 -828.24121094 1027.26074219 C-827.6016748 1026.3894165 -827.6016748 1026.3894165 -826.94921875 1025.50048828 C-791.3957085 977.41443615 -743.76333612 937.52229246 -689.86621094 911.63574219 C-689.00447266 911.22163086 -688.14273437 910.80751953 -687.25488281 910.38085938 C-682.63682308 908.21762461 -678.16361523 906.64217161 -673.24121094 905.26074219 C-673.19411836 885.71703916 -673.1590422 866.17334792 -673.13758659 846.62959957 C-673.12735172 837.55146811 -673.11344406 828.47337225 -673.09033203 819.39526367 C-673.07015571 811.46636237 -673.05743825 803.53748689 -673.05303395 795.60856062 C-673.05046674 791.42518982 -673.04460411 787.24189278 -673.02975082 783.05854607 C-672.96576916 764.31552695 -673.43244483 745.77828823 -674.78283691 727.08061218 C-675.40305521 718.33359563 -675.55106929 709.61610045 -675.54199219 700.85058594 C-675.54591825 699.16988528 -675.55026014 697.48918556 -675.55497742 695.80848694 C-675.56229235 692.33982078 -675.56225994 688.8712566 -675.55688477 685.40258789 C-675.55226592 681.94542382 -675.55915503 678.48861275 -675.57739258 675.03149414 C-675.67536829 656.24728246 -675.37793224 637.58904057 -673.86230469 618.85839844 C-673.80073999 618.09743299 -673.7391753 617.33646755 -673.67574501 616.55244255 C-672.48343365 602.16716145 -670.85609301 587.80046293 -668.67480469 573.53027344 C-668.5612413 572.77937943 -668.44767792 572.02848541 -668.33067322 571.25483704 C-653.84524269 476.51942044 -619.78138706 388.31347024 -553.86083984 289.44970703 C-552.1627563 287.15470898 -550.48744578 284.84432108 -548.81542969 282.53027344 C-541.50522003 272.44750693 -533.88049048 262.70686297 -525.85791016 253.18164062 C-524.34427737 251.38320167 -522.84023009 249.57723833 -521.33886719 247.76855469 C-515.44878031 240.70191329 -509.31592611 233.90197505 -503.02612305 227.18896484 C-501.69021798 225.74579999 -500.36766002 224.29025995 -499.05200195 222.82861328 C-491.15486737 214.08920816 -482.89602792 205.72939598 -474.56762695 197.40185547 C-472.14670106 194.97870286 -469.73393864 192.54760096 -467.32128906 190.11621094 C-465.78336515 188.57535958 -464.24497154 187.03497685 -462.70605469 185.49511719 C-461.98530258 184.76717957 -461.26455048 184.03924194 -460.5219574 183.28924561 C-459.85688675 182.62725159 -459.1918161 181.96525757 -458.5065918 181.28320312 C-457.92244003 180.69762634 -457.33828827 180.11204956 -456.73643494 179.50872803 C-455.24121094 178.26074219 -455.24121094 178.26074219 -453.24121094 178.26074219 C-453.24121094 177.60074219 -453.24121094 176.94074219 -453.24121094 176.26074219 C-451.87792969 174.88574219 -451.87792969 174.88574219 -449.92871094 173.26074219 C-446.52473646 170.37215821 -443.21038696 167.41280541 -439.92871094 164.38574219 C-435.49489783 160.34672065 -430.9606651 156.48567341 -426.29199219 152.72167969 C-424.0683242 150.92793983 -421.85922616 149.12201835 -419.65917969 147.29980469 C-404.12665707 134.47818404 -387.79193243 122.72685148 -371.24121094 111.26074219 C-370.3546582 110.64368408 -370.3546582 110.64368408 -369.45019531 110.01416016 C-351.50175185 97.57932404 -332.47494627 86.57543683 -313.24121094 76.26074219 C-312.33000488 75.76896484 -311.41879883 75.2771875 -310.47998047 74.77050781 C-241.7100546 37.79914082 -164.89350441 13.65907676 -87.24121094 5.26074219 C-85.39366211 5.05674805 -85.39366211 5.05674805 -83.50878906 4.84863281 C-75.53827318 3.9793446 -67.56515081 3.14653312 -59.57635498 2.46313477 C-57.8892993 2.31691357 -56.20270238 2.16536587 -54.51641846 2.01049805 C-36.32020267 0.35957253 -18.25355646 -0.05578934 0 0 Z M-80.87792969 25.81030273 C-84.03440149 26.20362407 -87.19228277 26.58360596 -90.35058594 26.96191406 C-153.42358358 34.61027593 -212.95525903 52.833952 -270.90917969 78.51464844 C-271.6332048 78.83536316 -272.35722992 79.15607788 -273.10319519 79.48651123 C-280.60760824 82.83392501 -287.9569917 86.45954126 -295.24121094 90.26074219 C-296.10423828 90.7101416 -296.96726562 91.15954102 -297.85644531 91.62255859 C-321.991301 104.26522569 -344.93296595 118.6370185 -367.24121094 134.26074219 C-367.91039551 134.72673828 -368.57958008 135.19273437 -369.26904297 135.67285156 C-383.03110947 145.27108523 -396.37850375 155.48846032 -409.24121094 166.26074219 C-409.74571777 166.68033203 -410.25022461 167.09992188 -410.77001953 167.53222656 C-417.78041865 173.3653555 -424.61395021 179.34637129 -431.29199219 185.55761719 C-433.41049695 187.52249893 -435.58146007 189.41094877 -437.77685547 191.28930664 C-442.94542892 195.80718065 -447.7730559 200.64912229 -452.62011719 205.50683594 C-453.60067975 206.48672271 -454.58139053 207.46646119 -455.5622406 208.44606018 C-457.60521306 210.48756859 -459.64639263 212.53084784 -461.6862793 214.57543945 C-464.2804096 217.17526622 -466.87900527 219.77057592 -469.47897434 222.36456203 C-471.50128919 224.38323615 -473.52118283 226.40431952 -475.54038811 228.42610359 C-476.9563734 229.84306543 -478.37434609 231.25804036 -479.79237366 232.67295837 C-484.81301647 237.71169651 -489.6207994 242.85401163 -494.24121094 248.26074219 C-495.69566611 249.86842591 -497.15341989 251.47313933 -498.61621094 253.07324219 C-503.3462925 258.32267392 -507.82761781 263.74375078 -512.24121094 269.26074219 C-513.06105469 270.28554688 -513.88089844 271.31035156 -514.72558594 272.36621094 C-517.07000184 275.31447151 -519.38704396 278.28320177 -521.69287109 281.26171875 C-522.73901172 282.61236515 -523.78824951 283.96061749 -524.84033203 285.30664062 C-542.24498097 307.64388463 -558.35522809 331.57242234 -572.24121094 356.26074219 C-572.76521484 357.19208984 -573.28921875 358.1234375 -573.82910156 359.08300781 C-610.12027248 424.10292871 -635.85709912 494.66704046 -646.99121094 568.44824219 C-647.09226135 569.11776917 -647.19331177 569.78729614 -647.29742432 570.47711182 C-647.8796532 574.37277203 -648.42704342 578.27228395 -648.95577431 582.17552185 C-649.21904711 584.09882722 -649.49372154 586.02056269 -649.7694397 587.94212341 C-651.37404463 600.0562276 -651.58983857 612.04519064 -651.65527344 624.25292969 C-651.67423033 626.56461623 -651.6938603 628.87629732 -651.71409607 631.18797302 C-651.76647142 637.51015056 -651.80589253 643.83234908 -651.84230423 650.15463638 C-651.86629618 654.14993783 -651.89384054 658.14520491 -651.92282104 662.14047241 C-652.4869281 740.51196751 -652.33551583 818.88783627 -652.24121094 897.26074219 C-651.11077897 896.95190299 -651.11077897 896.95190299 -649.95750999 896.63682461 C-648.47328513 896.23161634 -648.47328513 896.23161634 -646.95907593 895.81822205 C-645.48833146 895.41657034 -645.48833146 895.41657034 -643.98787498 895.00680447 C-591.91551167 880.86265529 -537.9306785 874.89853215 -484.24121094 883.26074219 C-482.49783447 883.51815186 -482.49783447 883.51815186 -480.71923828 883.78076172 C-445.00456428 889.12149675 -411.67099085 899.40027605 -379.24121094 915.26074219 C-378.32855469 915.70675781 -377.41589844 916.15277344 -376.47558594 916.61230469 C-363.09271715 923.22638146 -350.5608066 930.84239704 -338.24121094 939.26074219 C-337.26547119 939.92372314 -337.26547119 939.92372314 -336.27001953 940.60009766 C-323.30016561 949.46473494 -311.11481265 959.40534534 -299.60058594 970.08496094 C-297.60204014 971.92799076 -295.56805601 973.69534945 -293.49121094 975.44824219 C-284.09008791 983.62313178 -275.24570428 992.72161832 -267.24121094 1002.26074219 C-266.32215584 1003.31805303 -265.40141435 1004.3738991 -264.47949219 1005.42871094 C-233.47167856 1041.00739749 -208.70888912 1083.94656182 -195.24121094 1129.26074219 C-195.04366211 1129.91671387 -194.84611328 1130.57268555 -194.64257812 1131.24853516 C-174.37797184 1199.08611685 -174.12204266 1275.54153376 -195.24121094 1343.26074219 C-195.52689941 1344.19966309 -195.81258789 1345.13858398 -196.10693359 1346.10595703 C-210.79841288 1394.02192703 -237.00678915 1438.17710048 -271.06152344 1474.89746094 C-272.92540435 1476.9183354 -274.71572301 1478.97533978 -276.49121094 1481.07324219 C-284.34699104 1490.10459033 -293.07295347 1498.57457146 -302.24121094 1506.26074219 C-303.13324219 1507.04191406 -304.02527344 1507.82308594 -304.94433594 1508.62792969 C-343.26633088 1542.01732935 -388.64862411 1565.89582023 -437.24121094 1580.26074219 C-438.26214844 1580.57237305 -439.28308594 1580.88400391 -440.33496094 1581.20507812 C-449.25838392 1583.86351456 -458.19806264 1585.75487588 -467.36621094 1587.32324219 C-468.47651672 1587.51409393 -468.47651672 1587.51409393 -469.60925293 1587.70880127 C-474.81410168 1588.59701731 -480.02497604 1589.44223313 -485.24121094 1590.26074219 C-487.00126465 1590.53845459 -487.00126465 1590.53845459 -488.796875 1590.82177734 C-535.72976527 1597.86241284 -587.79938286 1594.72616039 -633.24121094 1581.26074219 C-637.13821964 1580.19706685 -641.05267429 1579.20057769 -644.96386719 1578.19042969 C-648.24121094 1577.26074219 -648.24121094 1577.26074219 -650.98730469 1576.14355469 C-653.30333439 1575.07839041 -653.30333439 1575.07839041 -656.24121094 1575.26074219 C-656.37421758 1596.12118076 -656.50465663 1616.98163415 -656.63236237 1637.84210587 C-656.69176699 1647.53683454 -656.75190031 1657.23155749 -656.81396484 1666.92626953 C-656.88582658 1678.16795466 -656.95562592 1689.40965099 -657.02246094 1700.65136719 C-657.02793819 1701.57264719 -657.03341545 1702.49392719 -657.03905869 1703.44312477 C-657.25308886 1739.71587952 -657.30271461 1775.98745346 -657.24121094 1812.26074219 C-656.37303553 1812.26497413 -655.50486012 1812.26920607 -654.61037636 1812.27356625 C-627.15632294 1812.40750237 -599.70228105 1812.54370875 -572.24824572 1812.68130112 C-568.86436887 1812.69825141 -565.48049187 1812.71517139 -562.09661484 1812.73208618 C-465.69280711 1813.21428011 -465.69280711 1813.21428011 -422.97167969 1813.51464844 C-421.50213878 1813.52494862 -420.03259787 1813.53524767 -418.56305695 1813.54554558 C-412.74579224 1813.58636123 -406.9285292 1813.62741299 -401.11126709 1813.66859722 C-328.77034409 1814.18067412 -256.42896694 1814.48329836 -184.08679366 1814.75292969 C-180.59745895 1814.76593821 -177.10812431 1814.77896574 -173.61878967 1814.79199219 C-172.22352437 1814.7972006 -170.82825907 1814.80240893 -169.43299377 1814.80761719 C-168.74232704 1814.81019531 -168.0516603 1814.81277344 -167.34006427 1814.81542969 C-165.24659621 1814.8232435 -163.15312815 1814.8310556 -161.05966008 1814.83886719 C-146.44282515 1814.89341044 -131.8259906 1814.94805118 -117.20915693 1815.00292969 C-115.12677333 1815.01074653 -113.04438971 1815.01855704 -110.96200609 1815.02636719 C-55.31389214 1815.23517131 0.33405202 1815.47448248 55.98190165 1815.74511719 C59.20414493 1815.76078037 62.42638847 1815.77639 65.64863205 1815.79199219 C108.32878827 1815.99891571 151.00883 1816.21527405 193.68847656 1816.51074219 C194.43572951 1816.51590764 195.18298245 1816.5210731 195.95287943 1816.52639508 C204.1907367 1816.58336973 212.4285901 1816.64089615 220.66644287 1816.69851685 C222.89522899 1816.7140967 225.12401514 1816.72967198 227.35280132 1816.74524164 C228.82710367 1816.75554257 230.30140596 1816.76585079 231.7757082 1816.77616644 C297.58609735 1817.23630522 363.39723454 1817.5133395 429.208664 1817.77241313 C438.36102019 1817.80845548 447.51337348 1817.84516072 456.66572537 1817.88227939 C470.84224122 1817.93974593 485.01876487 1817.99476565 499.19529724 1818.04800224 C504.13597425 1818.06659996 509.0766475 1818.08590196 514.01731873 1818.1059742 C562.59829475 1818.3004174 611.1766702 1818.26074219 659.75878906 1818.26074219 C660.08878906 1741.37074219 660.41878906 1664.48074219 660.75878906 1585.26074219 C654.75952527 1585.86066857 648.95408098 1586.47421392 643.02832031 1587.41699219 C642.34879807 1587.52418579 641.66927582 1587.63137939 640.96916199 1587.74182129 C638.83610858 1588.07881855 636.70368579 1588.41961694 634.57128906 1588.76074219 C632.42805747 1589.10104525 630.28470058 1589.4405454 628.14128113 1589.77966309 C626.20472958 1590.08644695 624.26849225 1590.3952124 622.33227539 1590.70410156 C621.1530249 1590.88779297 619.97377441 1591.07148437 618.75878906 1591.26074219 C617.62296387 1591.43814941 616.48713867 1591.61555664 615.31689453 1591.79833984 C611.3813671 1592.30979099 607.45754534 1592.60443325 603.49707031 1592.81542969 C602.71777664 1592.85747528 601.93848297 1592.89952087 601.13557434 1592.94284058 C592.40628676 1593.37778511 583.68450756 1593.41513998 574.94628906 1593.38574219 C574.12006042 1593.38419128 573.29383179 1593.38264038 572.44256592 1593.38104248 C546.61442834 1593.32434034 522.11168506 1591.28502859 496.80419922 1585.90771484 C494.90938435 1585.50517681 493.01340574 1585.10803018 491.11572266 1584.71923828 C430.45685849 1572.21336848 370.6728191 1539.66935985 327.51660156 1495.01855469 C325.65516246 1493.15711559 323.70378847 1491.46291849 321.69628906 1489.76074219 C318.40985604 1486.9256375 315.5905711 1483.91421187 312.79003906 1480.60449219 C310.76762294 1478.27093512 308.66917135 1476.02146934 306.55053711 1473.77539062 C299.81356062 1466.6106188 293.68137304 1459.10715509 287.75878906 1451.26074219 C287.08033936 1450.36766357 287.08033936 1450.36766357 286.38818359 1449.45654297 C250.81758092 1402.471022 228.64857411 1347.69919542 220.07128906 1289.44824219 C219.95188965 1288.6498291 219.83249023 1287.85141602 219.70947266 1287.02880859 C217.49614203 1271.20237356 217.54258001 1255.29765951 217.51855469 1239.34985352 C217.50890624 1235.49505555 217.47782617 1231.64080507 217.44628906 1227.78613281 C217.35295768 1206.12171472 219.22995795 1184.94677924 223.50878906 1163.69824219 C223.63573151 1163.05985413 223.76267395 1162.42146606 223.89346313 1161.76373291 C237.48989734 1093.72002069 271.91969063 1033.51561287 320.95263672 984.80615234 C322.89692445 982.87267987 324.8301547 980.92860506 326.76269531 978.98339844 C333.79068566 971.94797945 340.93469726 965.4106466 348.75878906 959.26074219 C349.78690053 958.39802256 350.81031592 957.52961441 351.82519531 956.65136719 C371.85341113 939.4753699 394.26644077 926.115723 417.75878906 914.26074219 C418.49323242 913.88353027 419.22767578 913.50631836 419.984375 913.11767578 C434.38145263 905.75966557 449.43032919 900.34878041 464.75878906 895.26074219 C465.56574219 894.99277832 466.37269531 894.72481445 467.20410156 894.44873047 C526.83775033 875.18057043 593.85173261 875.49777354 654.63427734 888.33544922 C655.51338272 888.52083755 656.3924881 888.70622589 657.29823303 888.89723206 C659.45181606 889.35143132 661.60533272 889.80594269 663.75878906 890.26074219 C664.42245782 834.70062369 664.90553308 779.13651914 665.03521156 723.57235813 C665.03875449 722.06800393 665.04231672 720.56364977 665.04589844 719.05929565 C665.04766283 718.31802766 665.04942723 717.57675966 665.05124509 716.81302899 C665.06451874 711.6863338 665.08861138 706.55976374 665.11767578 701.43313599 C665.35652797 658.16519334 664.95608023 614.7342914 657.23681641 572.01953125 C656.74770009 569.19674554 656.33199021 566.37124961 655.93457031 563.53417969 C642.80094375 471.35473099 603.83880792 382.39370868 505.70019531 250.38183594 C503.85550235 248.36640681 502.05122337 246.32265409 500.25878906 244.26074219 C493.34909945 236.34050807 486.28382746 228.62873613 478.85644531 221.19042969 C478.05266953 220.3833255 477.24889374 219.57622131 476.42076111 218.74465942 C474.74233873 217.0612225 473.06260438 215.37909265 471.3815918 213.69824219 C468.79806561 211.11249881 466.22268051 208.51881792 463.64746094 205.92480469 C462.0092773 204.28369217 460.37062281 202.64304951 458.73144531 201.00292969 C457.96067154 200.2249704 457.18989777 199.44701111 456.39576721 198.64547729 C455.68419968 197.93698639 454.97263214 197.22849548 454.23950195 196.49853516 C453.61378799 195.87139618 452.98807404 195.2442572 452.34339905 194.59811401 C450.84964289 193.04575167 450.84964289 193.04575167 448.75878906 193.26074219 C448.75878906 192.60074219 448.75878906 191.94074219 448.75878906 191.26074219 C447.48360328 189.89171892 447.48360328 189.89171892 445.69628906 188.44824219 C444.60574219 187.52205078 444.60574219 187.52205078 443.49316406 186.57714844 C442.59082031 185.81273437 441.68847656 185.04832031 440.75878906 184.26074219 C439.59581152 183.25077015 438.43446911 182.23891342 437.27441406 181.22558594 C429.8767617 174.76617709 422.40897245 168.4207664 414.75878906 162.26074219 C413.63223275 161.34048041 412.50594594 160.41988863 411.37988281 159.49902344 C390.01672089 142.11174331 367.04844254 126.69336947 343.54736328 112.35351562 C341.7914317 111.28068601 340.04257673 110.19698021 338.29394531 109.11230469 C318.84218112 97.14240546 298.46469278 86.86024472 277.75878906 77.26074219 C276.80053223 76.81021484 275.84227539 76.3596875 274.85498047 75.89550781 C261.13191838 69.47124844 247.13604162 64.06090318 232.88378906 58.94824219 C231.66934113 58.51200531 231.66934113 58.51200531 230.43035889 58.06695557 C214.47617989 52.35795541 198.38774713 47.06028321 182.00878906 42.69824219 C180.92170654 42.40723633 179.83462402 42.11623047 178.71459961 41.81640625 C168.6048285 39.15018969 158.4288835 36.86814948 148.18896484 34.76318359 C146.10388458 34.33209105 144.02269617 33.88224906 141.94238281 33.42871094 C130.41255503 30.97583517 118.73852797 29.38260697 107.07177734 27.73388672 C104.17179239 27.31972527 101.2758153 26.88569902 98.37988281 26.44433594 C67.98731236 21.95360551 37.36977984 20.97143812 6.69520569 20.95022202 C4.55017041 20.94827966 2.4051605 20.94317853 0.26013184 20.93765259 C-26.93580839 20.88601912 -53.87814032 22.44169694 -80.87792969 25.81030273 Z M-759.24121094 983.26074219 C-759.86479492 983.82792969 -760.48837891 984.39511719 -761.13085938 984.97949219 C-772.67668614 995.5302936 -784.16096681 1006.27939938 -794.24121094 1018.26074219 C-795.03527344 1019.16566406 -795.82933594 1020.07058594 -796.64746094 1021.00292969 C-819.73534748 1047.46529735 -838.32374624 1078.63193803 -851.24121094 1111.26074219 C-851.65910889 1112.30077393 -851.65910889 1112.30077393 -852.08544922 1113.36181641 C-867.70715051 1152.62013298 -873.46114494 1193.86984289 -873.49121094 1235.88574219 C-873.49221802 1236.87085785 -873.4932251 1237.85597351 -873.4942627 1238.87094116 C-873.48259479 1255.8479123 -872.61990074 1272.4313861 -870.24121094 1289.26074219 C-870.01643066 1290.87263428 -870.01643066 1290.87263428 -869.78710938 1292.51708984 C-860.77880819 1355.202243 -832.04745364 1412.11412668 -790.24121094 1459.26074219 C-789.37367187 1460.24042969 -788.50613281 1461.22011719 -787.61230469 1462.22949219 C-782.25237384 1468.17254517 -776.69819166 1473.90131031 -771.05371094 1479.57324219 C-770.40047852 1480.23114746 -769.74724609 1480.88905273 -769.07421875 1481.56689453 C-764.62642433 1486.00012439 -760.01312037 1490.18007134 -755.24121094 1494.26074219 C-754.32408325 1495.05387817 -754.32408325 1495.05387817 -753.38842773 1495.86303711 C-735.15848192 1511.54161354 -715.43842602 1524.92792697 -694.24121094 1536.26074219 C-693.55043457 1536.63102539 -692.8596582 1537.00130859 -692.14794922 1537.3828125 C-687.57286485 1539.80845972 -682.9347821 1542.0740707 -678.24121094 1544.26074219 C-677.40960449 1544.6497168 -676.57799805 1545.03869141 -675.72119141 1545.43945312 C-633.38702123 1565.03478176 -588.23716622 1573.69897489 -541.75854492 1573.52148438 C-538.44203274 1573.51078516 -535.12606603 1573.52144184 -531.80957031 1573.53417969 C-512.56335337 1573.54797224 -493.31397018 1572.64809608 -474.36621094 1569.07324219 C-473.20605469 1568.85821045 -472.04589844 1568.64317871 -470.85058594 1568.42163086 C-412.08964955 1557.12911089 -357.66951109 1530.02861583 -313.64746094 1489.45605469 C-311.61006626 1487.59726279 -309.54283201 1485.78983322 -307.45605469 1483.98730469 C-303.24866431 1480.31306604 -299.25059188 1476.46195507 -295.30371094 1472.51074219 C-294.60568359 1471.81263428 -293.90765625 1471.11452637 -293.18847656 1470.39526367 C-288.53573827 1465.69112885 -284.24594952 1460.87712117 -280.15917969 1455.67089844 C-278.37621755 1453.43039409 -276.50654914 1451.35277641 -274.55371094 1449.26074219 C-223.02160429 1391.68411409 -199.75386315 1313.26018601 -199.80371094 1237.26074219 C-199.80324265 1235.64205231 -199.80324265 1235.64205231 -199.80276489 1233.99066162 C-199.84655409 1214.11870834 -200.9574388 1194.34122171 -204.49121094 1174.76074219 C-204.81436279 1172.93929687 -204.81436279 1172.93929687 -205.14404297 1171.08105469 C-215.37917899 1115.24505891 -240.75536639 1062.90240678 -278.24121094 1020.26074219 C-278.85222656 1019.55046875 -279.46324219 1018.84019531 -280.09277344 1018.10839844 C-291.62657029 1004.74340635 -303.71464776 991.63705688 -317.24121094 980.26074219 C-318.58119141 979.08705078 -318.58119141 979.08705078 -319.94824219 977.88964844 C-342.15541573 958.54096618 -366.88189424 943.27406483 -393.24121094 930.26074219 C-393.98306641 929.89142578 -394.72492188 929.52210938 -395.48925781 929.14160156 C-417.44140548 918.36134501 -441.88979024 910.49940302 -465.87158203 905.90917969 C-468.13675645 905.47327886 -470.3976421 905.01453106 -472.65380859 904.53417969 C-492.69267225 900.33813715 -512.69240071 899.78244887 -533.1015358 899.76308441 C-535.14106401 899.76078464 -537.18054544 899.75411375 -539.22006226 899.74713135 C-620.54392941 899.63588717 -698.83614752 928.2704107 -759.24121094 983.26074219 Z M505.75878906 905.26074219 C504.59412109 905.50663086 503.42945312 905.75251953 502.22949219 906.00585938 C490.27551237 908.56742648 478.41271187 911.58669723 466.84082031 915.54931641 C465.36984439 916.05194584 463.89552289 916.54483458 462.41894531 917.03076172 C425.93422664 929.09035574 392.05584625 948.46803234 362.75878906 973.26074219 C361.76242432 974.08944824 360.76605957 974.9181543 359.73950195 975.77197266 C351.0574426 983.04514197 342.93357936 990.77444252 334.95239258 998.80639648 C332.93761071 1000.83196701 330.91225631 1002.84652602 328.88574219 1004.86035156 C321.71763497 1012.02035501 314.98235884 1019.25420809 308.75878906 1027.26074219 C307.57475866 1028.73279287 306.38990488 1030.20418179 305.20410156 1031.67480469 C288.04149347 1053.32177084 273.95497681 1077.0044823 262.75878906 1102.26074219 C262.44603027 1102.96086426 262.13327148 1103.66098633 261.81103516 1104.38232422 C243.33741783 1146.14747827 236.66713016 1191.48057493 236.50878906 1236.82324219 C236.50334076 1237.76757111 236.49789246 1238.71190002 236.49227905 1239.68484497 C236.1308319 1323.95693543 267.62673634 1403.12691936 325.20166016 1464.5859375 C326.76232502 1466.26454537 328.30398541 1467.95874781 329.84082031 1469.65917969 C335.08510402 1475.44785561 340.39316255 1480.95947999 346.29003906 1486.10058594 C347.96194386 1487.56350263 349.60745787 1489.05704061 351.22753906 1490.57714844 C406.49228938 1542.42946688 483.76091728 1572.97244219 559.30957031 1573.49902344 C560.4744548 1573.50877197 561.63933929 1573.51852051 562.83952332 1573.52856445 C587.1399256 1573.69025117 610.81180257 1573.71625091 634.75878906 1569.26074219 C636.92143596 1568.89418636 639.08419599 1568.5282974 641.24707031 1568.16308594 C665.38090913 1563.88938531 688.27564332 1555.88031669 710.75878906 1546.26074219 C711.53480469 1545.93138672 712.31082031 1545.60203125 713.11035156 1545.26269531 C747.53420702 1530.46043746 781.01195209 1506.90798282 807.06738281 1479.95214844 C808.74502673 1478.27450452 810.49118437 1476.76907023 812.32128906 1475.26074219 C815.47562127 1472.60968546 818.10576756 1469.70130757 820.76660156 1466.56152344 C823.0645298 1463.90764161 825.47414479 1461.37606822 827.88378906 1458.82324219 C834.75307173 1451.41776227 840.77532289 1443.38710732 846.75878906 1435.26074219 C847.27086914 1434.56819336 847.78294922 1433.87564453 848.31054688 1433.16210938 C865.2488543 1410.12383271 879.44300751 1384.94541299 889.75878906 1358.26074219 C890.05736816 1357.49536133 890.35594727 1356.72998047 890.66357422 1355.94140625 C920.43657453 1278.54783051 918.94245212 1182.02634447 886.08691406 1105.95605469 C883.43597989 1099.99592914 880.63611114 1094.11449642 877.75878906 1088.26074219 C877.35047852 1087.42494629 876.94216797 1086.58915039 876.52148438 1085.72802734 C867.50136749 1067.44770037 856.61696448 1050.0844475 843.75878906 1034.26074219 C842.78425781 1033.01744141 842.78425781 1033.01744141 841.79003906 1031.74902344 C832.3632739 1019.75307843 822.316404 1008.48100233 811.49487305 997.73608398 C809.68657299 995.93858414 807.88932929 994.13051903 806.09277344 992.32128906 C799.28885093 985.50911607 792.3390638 979.20996355 784.75878906 973.26074219 C783.44527806 972.18935303 782.13383641 971.115418 780.82519531 970.03808594 C768.52037156 960.02683067 755.39094992 951.67612435 741.81689453 943.50341797 C740.07444361 942.45133313 738.33957628 941.38670408 736.60644531 940.31933594 C705.38287729 921.4450613 669.48460696 910.48795495 633.75878906 904.26074219 C632.40406494 904.02315186 632.40406494 904.02315186 631.02197266 903.78076172 C628.49861493 903.34495593 625.97365189 902.92264484 623.44628906 902.51074219 C622.73666016 902.39496826 622.02703125 902.27919434 621.29589844 902.15991211 C610.57761512 900.51181312 599.83147176 900.08371377 589.00097656 899.98730469 C587.71084656 899.97477661 586.42071655 899.96224854 585.0914917 899.94934082 C580.93895094 899.91416098 576.78645839 899.89666693 572.63378906 899.88574219 C571.92762199 899.88373558 571.22145493 899.88172897 570.49388885 899.87966156 C548.52956519 899.83138181 527.30159943 900.53944975 505.75878906 905.26074219 Z " fill="#010100" transform="translate(1889.2412109375,224.7392578125)"/>
<path d="M0 0 C4.45884859 0.66754355 8.35290789 2.29635801 12.4375 4.125 C13.14052246 4.43775879 13.84354492 4.75051758 14.56787109 5.07275391 C36.37353365 14.85954734 56.16817324 27.38424664 73.62890625 43.78125 C75.68152646 45.70198852 77.7800953 47.51245681 79.9375 49.3125 C111.4469598 76.83504856 132.87423179 116.66955193 142.49926758 156.92138672 C143.00098557 159.00409125 143.5325736 161.07767036 144.06640625 163.15234375 C144.88347018 166.51974113 145.54024079 169.82678837 146.0625 173.25 C146.21847656 174.24515625 146.37445312 175.2403125 146.53515625 176.265625 C147.90281657 187.2528793 148.24145817 198.19108242 148.25 209.25 C148.25067474 210.04102112 148.25134949 210.83204224 148.25204468 211.64703369 C148.23367457 225.28245885 147.43715911 238.55811151 145 252 C144.83902832 252.90782227 144.67805664 253.81564453 144.51220703 254.75097656 C138.45805357 287.58647171 123.69913823 318.88605938 103 345 C102.03513672 346.25296875 102.03513672 346.25296875 101.05078125 347.53125 C65.66598142 392.89269724 13.60515879 423.59027628 -43.53515625 431.05859375 C-53.27280553 432.232811 -62.98401197 432.33747994 -72.78222656 432.31567383 C-75.73280009 432.31251839 -78.68236212 432.33606238 -81.6328125 432.36132812 C-98.80095515 432.41941405 -115.54530039 430.58696766 -132.1875 426.25 C-133.18740967 425.99323486 -134.18731934 425.73646973 -135.2175293 425.47192383 C-144.46040827 423.01665719 -153.2505169 419.8419453 -162 416 C-162.77150391 415.66629395 -163.54300781 415.33258789 -164.33789062 414.98876953 C-176.33207398 409.74681287 -187.24826144 403.44859749 -198 396 C-199.50820312 394.96552734 -199.50820312 394.96552734 -201.046875 393.91015625 C-216.15431959 383.23451982 -231.31310538 370.39129998 -243 356 C-243.98372406 354.82757852 -244.9681748 353.65576659 -245.953125 352.484375 C-284.48522476 306.29485368 -301.73620015 248.14105418 -296.43139648 188.15917969 C-296.04333651 184.4254134 -295.54713007 180.71346341 -295 177 C-294.90348145 176.31534668 -294.80696289 175.63069336 -294.70751953 174.92529297 C-288.13941852 129.55254919 -267.58868951 89.87132752 -236 57 C-235.43265137 56.40541992 -234.86530273 55.81083984 -234.28076172 55.19824219 C-225.74397896 46.2964827 -216.91122486 38.33133674 -207 31 C-205.64314516 29.98318501 -204.28637679 28.96625462 -202.9296875 27.94921875 C-201.57910259 26.9439977 -200.2275631 25.94005774 -198.875 24.9375 C-197.93333984 24.23898926 -197.93333984 24.23898926 -196.97265625 23.52636719 C-194.08486954 21.41400468 -191.28286367 19.44543997 -188 18 C-189.70304214 21.5711751 -191.72747852 24.91419356 -193.75 28.3125 C-204.92721986 47.76162377 -209.45358352 68.16549982 -209.5 90.5 C-209.50628418 91.81025146 -209.51256836 93.12050293 -209.51904297 94.47045898 C-209.15531603 122.48272989 -198.88927774 148.67271775 -181 170 C-180.33226562 170.81984375 -179.66453125 171.6396875 -178.9765625 172.484375 C-173.9395867 178.44650962 -168.17592235 183.25384597 -162 188 C-161.10023438 188.69222656 -160.20046875 189.38445312 -159.2734375 190.09765625 C-133.56445918 209.32382303 -102.43214776 218.31045945 -70.41796875 214.5390625 C-42.9915073 210.54088827 -18.85630442 196.98388331 1 178 C1.66128906 177.401875 2.32257813 176.80375 3.00390625 176.1875 C22.57891775 157.83839832 35.5766857 129.3595965 37.20556641 102.6262207 C37.30329674 99.06056722 37.32915016 95.50444039 37.3125 91.9375 C37.30686035 90.66616211 37.3012207 89.39482422 37.29541016 88.08496094 C36.87259276 55.0382234 24.85147724 27.09198907 2.0546875 3.23046875 C0 1 0 1 0 0 Z " fill="#FEFEFE" transform="translate(1431,1247)"/>
<path d="M0 0 C23.20698724 7.32143685 44.4249266 19.34888234 63 35 C64.15857905 35.95476103 65.31743778 36.90918277 66.4765625 37.86328125 C78.83121131 48.13912983 90.13590374 59.29432004 100 72 C101.16208984 73.41925781 101.16208984 73.41925781 102.34765625 74.8671875 C122.25586753 99.6656884 136.30580705 129.9659824 143 161 C143.19609863 161.86399414 143.39219727 162.72798828 143.59423828 163.61816406 C150.17860683 193.75659018 149.99774295 228.96353409 143 259 C142.71116943 260.24837646 142.71116943 260.24837646 142.41650391 261.52197266 C141.1601341 266.75632206 139.6490959 271.87764124 138 277 C137.69570068 277.99193359 137.69570068 277.99193359 137.38525391 279.00390625 C131.11791412 299.32181668 121.30149812 318.69207823 109 336 C108.25234375 337.05960938 107.5046875 338.11921875 106.734375 339.2109375 C92.97489906 358.06834877 76.83102846 375.17475624 58 389 C56.8710548 389.84760437 55.74214857 390.69526066 54.61328125 391.54296875 C27.63326287 411.54532959 -2.9668555 424.15011495 -36 430 C-36.96929443 430.18691406 -37.93858887 430.37382813 -38.93725586 430.56640625 C-49.64348197 432.3982793 -60.33371569 432.30304474 -71.16723633 432.26074219 C-74.42743578 432.25003306 -77.68708297 432.26068229 -80.94726562 432.2734375 C-92.14208156 432.2816466 -102.95495506 431.98255352 -114 430 C-114.96075439 429.83371094 -115.92150879 429.66742187 -116.91137695 429.49609375 C-152.0499166 423.03613599 -184.32041839 408.64693041 -212 386 C-212.99644531 385.20722656 -213.99289063 384.41445312 -215.01953125 383.59765625 C-229.40106839 371.96978798 -242.91819917 358.63210997 -253.796875 343.65185547 C-255.02084766 341.97137677 -256.27365188 340.31557586 -257.53125 338.66015625 C-272.64508889 318.48608784 -283.20606143 295.19070095 -290 271 C-290.29148926 269.98824707 -290.29148926 269.98824707 -290.58886719 268.95605469 C-296.08259425 249.67527788 -297.56082616 230.28221662 -297.4375 210.3125 C-297.43445862 209.26306213 -297.43141724 208.21362427 -297.42828369 207.13238525 C-297.35971069 191.10367508 -296.66550001 175.66755484 -293 160 C-292.79101074 159.06768555 -292.58202148 158.13537109 -292.36669922 157.17480469 C-281.15836227 108.36186761 -251.26889781 64.7321809 -212 34 C-210.95807539 33.1669892 -209.91641637 32.33364611 -208.875 31.5 C-201.57833774 25.71709494 -194.0350799 20.70795189 -186 16 C-186 19.66938577 -186.86839741 20.44328892 -189.0625 23.3125 C-202.59316285 42.10204396 -208.18784539 63.98700915 -208.18530273 86.8581543 C-208.18747019 89.03259434 -208.20561188 91.20651003 -208.22460938 93.38085938 C-208.27872122 106.13954324 -207.08193872 118.30792739 -202.875 130.4375 C-202.56933105 131.33073975 -202.26366211 132.22397949 -201.94873047 133.14428711 C-195.78303213 150.55340954 -185.62946523 164.59586497 -173 178 C-172.45085938 178.60199219 -171.90171875 179.20398437 -171.3359375 179.82421875 C-150.24161486 202.11353996 -118.28604111 215.36575796 -87.93334961 216.28564453 C-53.94075427 216.71607914 -22.04201207 202.16508681 2.2578125 178.7734375 C26.97683207 153.77271971 38.2792698 122.05734537 38.24658203 87.37329102 C37.93376512 55.60951944 25.36146602 28.16601906 3.84765625 5.05859375 C2 3 2 3 0 0 Z " fill="#FEFEFE" transform="translate(2542,1247)"/>
<path d="M0 0 C1.01330383 0.0036557 2.02660767 0.0073114 3.07061768 0.01107788 C17.2574617 0.07114772 31.18010931 0.46968896 45.1796875 2.97363281 C47.28263248 3.34746949 49.38517057 3.66314778 51.5 3.9609375 C107.35639858 12.77434465 160.89173219 47.1409159 195.4375 91.375 C195.92476562 91.98585449 196.41203125 92.59670898 196.9140625 93.22607422 C216.78280959 118.141532 231.95917397 146.57300818 240.4375 177.375 C240.75630127 178.4897168 240.75630127 178.4897168 241.08154297 179.62695312 C250.50972242 213.07239794 251.51969706 251.19985776 245.4375 285.375 C245.3147168 286.09123535 245.19193359 286.8074707 245.06542969 287.54541016 C243.42608467 296.96374085 241.09782655 306.19790454 238.4375 315.375 C238.17042236 316.33720459 238.17042236 316.33720459 237.89794922 317.31884766 C231.73507454 339.20433176 220.735298 360.96884393 207.4375 379.375 C206.95571289 380.04772949 206.47392578 380.72045898 205.97753906 381.41357422 C202.56526861 386.14790521 199.04624349 390.78893939 195.4375 395.375 C195.0053418 395.92575195 194.57318359 396.47650391 194.12792969 397.04394531 C182.91828241 411.17105307 169.84797094 424.53426762 155.4375 435.375 C154.78797363 435.87918457 154.13844727 436.38336914 153.46923828 436.90283203 C130.71018845 454.56361047 105.88416346 467.69406728 78.4375 476.375 C77.70966309 476.60815918 76.98182617 476.84131836 76.23193359 477.08154297 C19.44670467 494.82774195 -47.42370668 489.6122792 -100.5625 463.375 C-101.37203125 462.97909668 -102.1815625 462.58319336 -103.015625 462.17529297 C-135.39295677 446.19929666 -165.82329972 421.25304713 -187.5625 392.375 C-187.99224121 391.81103516 -188.42198242 391.24707031 -188.86474609 390.66601562 C-229.9570204 336.60403712 -244.49106945 270.48449174 -235.46508789 203.66503906 C-230.28725448 169.46244103 -217.24283856 134.34464602 -196.5625 106.375 C-195.44681641 104.85326172 -195.44681641 104.85326172 -194.30859375 103.30078125 C-174.26516658 76.40996666 -149.5801506 51.50085728 -120.5625 34.375 C-119.53511719 33.75496094 -118.50773437 33.13492187 -117.44921875 32.49609375 C-93.02522349 18.10086702 -67.32313922 8.92832468 -39.5625 3.375 C-38.31428467 3.10429688 -37.06606934 2.83359375 -35.7800293 2.5546875 C-23.85428764 0.08969559 -12.14433334 -0.09558075 0 0 Z M80.4375 33.375 C81.613125 34.73625 81.613125 34.73625 82.8125 36.125 C83.63234375 37.08792969 83.63234375 37.08792969 84.46875 38.0703125 C85.89574469 39.74080231 87.33485059 41.40097084 88.78125 43.0546875 C100.43373388 56.61328758 109.09988937 71.86534297 114.25 89 C114.54233521 89.96534668 114.54233521 89.96534668 114.84057617 90.95019531 C117.90207147 101.80372912 118.76475408 112.7034697 118.6875 123.9375 C118.69523437 125.06607422 118.70296875 126.19464844 118.7109375 127.35742188 C118.69360907 134.89095882 117.88806179 141.9891184 116.4375 149.375 C116.23769531 150.51453125 116.03789062 151.6540625 115.83203125 152.828125 C109.24759102 184.46879081 87.69377504 211.41802646 61.3359375 229.14941406 C34.32607539 246.58633636 0.99072342 252.1406291 -30.60888672 246.24072266 C-33.99508534 245.46463837 -37.27480749 244.4932856 -40.5625 243.375 C-41.25279297 243.15005859 -41.94308594 242.92511719 -42.65429688 242.69335938 C-73.78056864 232.39359944 -99.9505562 209.59311075 -115.53515625 180.8203125 C-124.3609188 163.09119829 -127.74974893 144.99928047 -127.80273438 125.3659668 C-127.81240329 123.20907458 -127.84349782 121.05315282 -127.875 118.89648438 C-128.04491452 96.53944593 -120.97021028 74.88967581 -108.55078125 56.40625 C-107.03115277 54.08948831 -105.71302399 51.88523415 -104.5625 49.375 C-114.7756561 53.46528119 -123.08391055 60.5385089 -131.5625 67.375 C-132.4918335 68.12426758 -132.4918335 68.12426758 -133.43994141 68.88867188 C-147.09610485 80.01284149 -159.81807823 92.40115845 -170.5625 106.375 C-171.35785156 107.365 -172.15320312 108.355 -172.97265625 109.375 C-203.59971214 147.72876504 -217.3056169 194.54014726 -217 243.125 C-216.99662628 244.17260498 -216.99325256 245.22020996 -216.98977661 246.29956055 C-216.72197341 303.83836569 -195.41001854 355.90949912 -155.5625 397.375 C-154.99515137 397.96958008 -154.42780273 398.56416016 -153.84326172 399.17675781 C-145.7793733 407.5854051 -137.48953561 415.27437123 -128.12353516 422.2109375 C-126.72542364 423.25350799 -125.35119005 424.3279216 -123.98046875 425.40625 C-106.0263231 439.20408162 -84.27074542 450.03098918 -62.5625 456.375 C-61.52416016 456.6858252 -61.52416016 456.6858252 -60.46484375 457.00292969 C-54.87323311 458.65590582 -49.24250988 460.06093592 -43.5625 461.375 C-42.3259668 461.67567383 -42.3259668 461.67567383 -41.06445312 461.98242188 C-25.50373242 465.61921867 -9.89919041 465.79736166 6 465.875 C7.02691956 465.88544342 8.05383911 465.89588684 9.11187744 465.90664673 C24.5980492 466.02941069 39.25184944 464.3569738 54.4375 461.375 C55.62656952 461.149049 55.62656952 461.149049 56.83966064 460.91853333 C84.83212618 455.58919114 111.7023077 442.34354003 134.4375 425.375 C135.04674316 424.92125 135.65598633 424.4675 136.28369141 424 C144.78725552 417.60927767 152.76780798 410.74124229 160.4375 403.375 C161.19957764 402.64579346 161.19957764 402.64579346 161.97705078 401.90185547 C190.97138159 373.99787868 212.46003178 337.20002224 222.125 298.125 C222.41093018 296.98490479 222.41093018 296.98490479 222.70263672 295.82177734 C226.72063214 278.57422495 227.9894668 261.34851262 227.875 243.6875 C227.87195862 242.68541504 227.86891724 241.68333008 227.86578369 240.65087891 C227.79533218 224.90731446 226.9897478 209.77081474 223.4375 194.375 C223.23382812 193.4557373 223.03015625 192.53647461 222.8203125 191.58935547 C213.41934761 150.27878832 191.51228908 115.53164169 162.4375 85.375 C161.19806641 84.07369141 161.19806641 84.07369141 159.93359375 82.74609375 C154.47588391 77.13217039 148.59610122 72.20117429 142.4375 67.375 C141.88271973 66.92785645 141.32793945 66.48071289 140.75634766 66.02001953 C126.28757085 54.3802662 99.75438541 33.375 80.4375 33.375 Z " fill="#020201" transform="translate(2461.5625,1213.625)"/>
<path d="M0 0 C1.33611328 0.35553955 1.33611328 0.35553955 2.69921875 0.71826172 C17.0067831 4.6050199 30.56455464 9.75403526 44 16 C44.72799805 16.33644531 45.45599609 16.67289063 46.20605469 17.01953125 C61.64473922 24.23239271 75.81223929 33.22189516 89 44 C89.53189941 44.43425293 90.06379883 44.86850586 90.61181641 45.31591797 C142.10695308 87.62819328 176.20175263 144.39572074 183.22436523 211.46142578 C188.64445341 272.38828316 173.81661012 331.72444441 137 381 C136.54512207 381.61327148 136.09024414 382.22654297 135.62158203 382.85839844 C128.40302407 392.52709902 120.36349201 401.31565791 112 410 C110.87078125 411.19109375 110.87078125 411.19109375 109.71875 412.40625 C105.03403178 417.24456554 99.955618 421.51709501 94.66796875 425.68261719 C93.496965 426.60749076 92.3306927 427.53837139 91.16796875 428.47363281 C75.37297786 441.15868812 58.33498788 451.41755976 40 460 C38.92492188 460.51949219 37.84984375 461.03898437 36.7421875 461.57421875 C26.42983976 466.3079591 15.57482249 469.20928978 4.66210938 472.22558594 C2.77390295 472.77486976 0.90228452 473.38268564 -0.95458984 474.0300293 C-4.00926569 475.00295114 -6.90122902 475.5683514 -10.0703125 476.03515625 C-11.215 476.20466797 -12.3596875 476.37417969 -13.5390625 476.54882812 C-14.72242188 476.71833984 -15.90578125 476.88785156 -17.125 477.0625 C-18.28515625 477.23587891 -19.4453125 477.40925781 -20.640625 477.58789062 C-33.50264372 479.46540007 -46.20276586 480.23928068 -59.1875 480.25 C-59.92988922 480.25067474 -60.67227844 480.25134949 -61.43716431 480.25204468 C-75.12422308 480.23244962 -88.48957906 479.30945406 -102 477 C-102.94278809 476.83902832 -103.88557617 476.67805664 -104.85693359 476.51220703 C-136.28417487 470.89190843 -166.60572957 459.01733955 -193 441 C-193.58749023 440.60635254 -194.17498047 440.21270508 -194.78027344 439.80712891 C-206.5851463 431.86466491 -217.48372233 422.72746731 -227.42407227 412.54736328 C-229.17400351 410.78076236 -229.17400351 410.78076236 -232 408.5625 C-234.96063356 406.0336255 -237.3900271 403.42831423 -239.90234375 400.46875 C-241.47866847 398.61355964 -243.07281867 396.78634887 -244.69140625 394.96875 C-263.6519823 373.52711551 -277.27294224 349.46357282 -288 323 C-288.50144531 321.80761719 -289.00289062 320.61523438 -289.51953125 319.38671875 C-299.89702378 292.93234889 -302.23167799 263.68926215 -302.25 235.5625 C-302.25067474 234.62836273 -302.25134949 233.69422546 -302.25204468 232.73178101 C-302.23621646 218.92558485 -301.74813107 205.56790049 -299 192 C-298.73461426 190.60177002 -298.73461426 190.60177002 -298.46386719 189.17529297 C-287.55438937 132.05598036 -255.15448696 80.50863449 -209 45 C-208.04480469 44.22785156 -207.08960938 43.45570312 -206.10546875 42.66015625 C-192.24175468 31.62150089 -177.13605224 22.32389698 -161 15 C-160.26313965 14.66516602 -159.5262793 14.33033203 -158.76708984 13.98535156 C-141.89624931 6.41533043 -124.82140315 1.26687788 -106.8125 -2.8125 C-105.79947815 -3.04237106 -105.79947815 -3.04237106 -104.76599121 -3.27688599 C-72.05675042 -10.64776515 -32.47848381 -8.80188528 0 0 Z M15 27 C16.2065625 28.3921875 16.2065625 28.3921875 17.4375 29.8125 C18.6257745 31.20767406 19.81317537 32.60359238 21 34 C21.69996094 34.81082031 22.39992188 35.62164063 23.12109375 36.45703125 C47.25333068 65.02257341 53.88775708 96.50898153 52 133 C51.55900191 138.16845678 50.48382321 143.02947434 49 148 C48.71793701 149.01151123 48.71793701 149.01151123 48.43017578 150.04345703 C38.86362564 184.00965692 16.62636776 210.16963951 -13.89257812 227.30493164 C-41.55247772 242.35448787 -75.53004568 245.28725583 -105.765625 236.7109375 C-130.94886709 229.00415663 -154.28435255 213.26977184 -170 192 C-170.60070313 191.21367188 -171.20140625 190.42734375 -171.8203125 189.6171875 C-179.09989142 179.72610045 -184.59068105 169.18273867 -188.3125 157.5 C-188.54267822 156.77820557 -188.77285645 156.05641113 -189.01000977 155.31274414 C-192.77801313 142.75411468 -194.5628189 130.59774109 -194.5 117.5 C-194.49856995 116.8118924 -194.49713989 116.12378479 -194.4956665 115.41482544 C-194.37746283 92.24389923 -189.00622693 64.85309927 -173 47 C-173.495 46.01 -173.495 46.01 -174 45 C-188.0726427 54.85940469 -201.59125429 65.07544309 -214 77 C-214.59458008 77.56734863 -215.18916016 78.13469727 -215.80175781 78.71923828 C-224.1601977 86.73497782 -231.85059311 94.96170275 -238.73242188 104.28369141 C-239.98942094 105.98567589 -241.2672632 107.67044998 -242.546875 109.35546875 C-257.68666177 129.58674444 -269.00526538 153.45887586 -275 178 C-275.18256348 178.74088867 -275.36512695 179.48177734 -275.55322266 180.24511719 C-285.28787299 220.38888011 -284.59663694 262.34209793 -273 302 C-272.76410156 302.81259277 -272.52820312 303.62518555 -272.28515625 304.46240234 C-264.75813338 329.83421036 -252.33565171 352.30126724 -236 373 C-235.23945312 373.97453125 -234.47890625 374.9490625 -233.6953125 375.953125 C-225.35753266 386.39825579 -216.32628896 396.48932229 -206 405 C-205.04867188 405.82757812 -204.09734375 406.65515625 -203.1171875 407.5078125 C-176.64266978 430.51126295 -146.14168992 446.13310076 -112 454.1875 C-110.41614502 454.56297974 -110.41614502 454.56297974 -108.80029297 454.94604492 C-92.94247917 458.55142363 -77.69204812 459.3736397 -61.5 459.3125 C-60.47776337 459.31034485 -59.45552673 459.3081897 -58.40231323 459.30596924 C-22.41523193 459.18399945 12.12688835 452.3306337 44 435 C45.15628906 434.38511719 46.31257813 433.77023437 47.50390625 433.13671875 C66.14428534 422.89405311 82.5679627 409.54050282 98 395 C99.17369141 393.90751953 99.17369141 393.90751953 100.37109375 392.79296875 C106.42993188 386.97173212 111.53815599 380.53135479 116.59716797 373.84716797 C117.95837308 372.05481192 119.33925154 370.27915099 120.72265625 368.50390625 C133.28461271 352.15256192 142.44222593 334.12080133 150 315 C150.49113281 313.7934375 150.98226563 312.586875 151.48828125 311.34375 C160.64948416 287.51894985 163.25340021 261.82279054 163.3125 236.5 C163.31617584 235.74781189 163.31985168 234.99562378 163.32363892 234.22064209 C163.35065294 223.65108042 162.51420286 213.46203095 161 203 C160.8551416 201.88351074 160.7102832 200.76702148 160.56103516 199.61669922 C155.12507089 157.89833814 134.72248591 120.03473716 107 89 C106.49678223 88.43361816 105.99356445 87.86723633 105.47509766 87.28369141 C90.14431374 70.09881461 72.63083671 56.0019038 53 44 C51.65035156 43.13181641 51.65035156 43.13181641 50.2734375 42.24609375 C43.45318875 38.01046376 36.28311844 34.78013322 28.9375 31.5625 C27.91277588 31.11269775 26.88805176 30.66289551 25.83227539 30.19946289 C24.86539795 29.7843042 23.89852051 29.36914551 22.90234375 28.94140625 C22.03085693 28.56701416 21.15937012 28.19262207 20.26147461 27.80688477 C17.92926235 26.83197674 17.92926235 26.83197674 15 27 Z " fill="#020201" transform="translate(1416,1220)"/>
<path d="M0 0 C19.1291267 15.65620892 32.56994439 35.61109222 37.63867188 59.91430664 C37.97511719 61.4437793 37.97511719 61.4437793 38.31835938 63.00415039 C43.40130899 90.05519045 37.07634372 116.73425832 22.63867188 139.91430664 C19.88026571 143.83062585 16.88028447 147.39059168 13.63867188 150.91430664 C13.19007813 151.40527832 12.74148438 151.89625 12.27929688 152.40209961 C-2.59967336 168.51246814 -20.99329117 179.01493835 -42.36132812 183.91430664 C-43.09327393 184.08873291 -43.82521973 184.26315918 -44.5793457 184.44287109 C-70.46713121 190.19943269 -98.2603682 184.3413161 -120.48632812 170.22680664 C-145.62160974 152.44819281 -161.45450928 129.92855157 -167.49804688 99.54321289 C-172.06008375 72.87248609 -166.00426908 44.78739598 -150.45898438 22.65258789 C-147.01207465 18.15299065 -143.28166562 14.00333335 -139.36132812 9.91430664 C-138.66394531 9.15375977 -137.9665625 8.39321289 -137.24804688 7.60961914 C-101.99547955 -29.64080849 -39.55519741 -31.25459916 0 0 Z " fill="#F79220" transform="translate(1409.361328125,1255.085693359375)"/>
<path d="M0 0 C21.72033205 17.30886827 36.90242948 39.9334145 40.95703125 67.76953125 C41.19942767 72.57889649 41.20273892 77.39213083 41.20703125 82.20703125 C41.20770599 82.88248993 41.20838074 83.55794861 41.20907593 84.25387573 C41.16946944 109.1493308 33.48842306 131.91851727 16.95703125 150.76953125 C16.36664062 151.50300781 15.77625 152.23648437 15.16796875 152.9921875 C-0.16739607 171.49251059 -23.40622126 183.61628392 -47.04296875 186.76953125 C-51.91360257 187.18332229 -56.78431109 187.20463432 -61.66943359 187.16064453 C-63.80630212 187.14443008 -65.94130979 187.16067409 -68.078125 187.1796875 C-76.14478028 187.19266538 -83.36048463 186.394953 -91.04296875 183.76953125 C-91.77837891 183.54523438 -92.51378906 183.3209375 -93.27148438 183.08984375 C-118.78139184 175.28792581 -141.00413372 157.10751018 -154.15869141 133.79199219 C-157.99920033 126.44635813 -161.11314753 118.84079611 -163.04296875 110.76953125 C-163.32011719 109.75761719 -163.59726563 108.74570313 -163.8828125 107.703125 C-170.13419338 81.91977989 -166.22015 53.89144076 -152.85546875 31.01953125 C-148.4229667 23.76437417 -142.99911782 17.7919518 -137.04296875 11.76953125 C-136.16769531 10.82207031 -135.29242187 9.87460938 -134.390625 8.8984375 C-99.2467208 -28.30971952 -40.12037619 -29.40787523 0 0 Z " fill="#F79220" transform="translate(2519.04296875,1254.23046875)"/>
</svg>
