<?xml version="1.0" encoding="UTF-8"?>
<svg version="1.1" xmlns="http://www.w3.org/2000/svg" width="4000" height="2250">
<path d="M0 0 C2.07748013 0.00819001 4.15496409 0.01545304 6.2324504 0.02188897 C11.88889184 0.04205268 17.54519039 0.07521083 23.20155374 0.11067819 C29.37494255 0.14702253 35.54838214 0.17098739 41.72182316 0.19658589 C52.5239443 0.24306757 63.32599774 0.29730107 74.12805271 0.35690308 C85.7074063 0.42075756 97.28677003 0.47995746 108.86617565 0.53358459 C109.96679177 0.53868654 109.96679177 0.53868654 111.08964256 0.54389156 C114.07846122 0.55773106 117.06728003 0.5715377 120.05609903 0.58530272 C147.83510371 0.71324555 175.61404767 0.8515567 203.39296818 0.99656296 C230.1480088 1.13621979 256.90306288 1.27233644 283.65814686 1.40343857 C285.3400757 1.41168574 287.02200454 1.41993353 288.70393338 1.42818193 C295.46312061 1.4613257 302.22230793 1.49445015 308.98149539 1.52754746 C327.87327116 1.62006794 346.7650433 1.71331805 365.65681267 1.80713654 C366.94703298 1.81354369 366.94703298 1.81354369 368.26331835 1.82008029 C395.65634211 1.95616538 423.04934851 2.09547131 450.44234467 2.23699951 C451.33038154 2.24158718 452.21841842 2.24617486 453.13336551 2.25090155 C467.55371378 2.32540783 481.97406119 2.40007804 496.39440855 2.47476113 C553.62687222 2.77115734 610.8593779 3.05721119 668.09194088 3.33375931 C682.52533177 3.40351024 696.95872258 3.47327935 711.39211273 3.54318237 C712.28082441 3.547486 713.16953609 3.55178962 714.08517843 3.55622365 C741.46549424 3.68884194 768.84579706 3.82390351 796.22608757 3.96164703 C797.08537014 3.9659698 797.94465271 3.97029257 798.82997415 3.97474634 C817.69046683 4.06965614 836.55095623 4.16520478 855.41144276 4.26132791 C862.15914921 4.29571596 868.90685581 4.33007435 875.65456244 4.36442568 C877.3331918 4.37297268 879.01182115 4.38152238 880.69045049 4.39007478 C905.78946015 4.5179469 930.8884878 4.64153358 955.98753299 4.7622198 C957.22203139 4.76815588 957.22203139 4.76815588 958.48146915 4.77421188 C959.30294785 4.77816194 960.12442655 4.78211201 960.97079854 4.78618177 C988.65216617 4.91934921 1016.33348746 5.05994833 1044.01477439 5.20896766 C1046.98486921 5.2249292 1049.9549642 5.24086018 1052.92505932 5.25676727 C1053.65397816 5.26067416 1054.382897 5.26458104 1055.13390429 5.26860632 C1066.69084377 5.33037415 1078.24780496 5.38555528 1089.80479001 5.43802349 C1101.15909906 5.48971148 1112.51334841 5.54855559 1123.8675849 5.6145834 C1129.94476733 5.64972403 1136.02192266 5.68170395 1142.09916253 5.70512518 C1147.6214538 5.72647281 1153.14361895 5.75677068 1158.66582276 5.79437906 C1160.65692634 5.8063435 1162.64805325 5.8149784 1164.63918651 5.81997404 C1167.33402366 5.82721073 1170.02851558 5.8464799 1172.7232638 5.86880755 C1173.49594811 5.86798159 1174.26863243 5.86715563 1175.06473141 5.86630463 C1180.4855638 5.92973601 1186.00705428 6.0766568 1190.19321552 9.91207615 C1191.58465202 12.79098008 1191.65080057 14.89391923 1191.64659542 18.0924086 C1191.65225235 19.31700032 1191.65790928 20.54159204 1191.66373763 21.80329261 C1191.65479176 23.16703141 1191.64556328 24.53076839 1191.6360836 25.89450359 C1191.63694641 27.345634 1191.63911655 28.79676412 1191.64247936 30.24789089 C1191.64785673 34.25835288 1191.63426798 38.26856475 1191.61762699 42.27898773 C1191.60275972 46.63150438 1191.60503049 50.98401773 1191.6049906 55.33655512 C1191.60201679 63.98265268 1191.5822372 72.62863955 1191.55708746 81.27469794 C1191.53652809 88.4843526 1191.52281763 95.69399356 1191.51344573 102.90367115 C1191.5120811 103.94455986 1191.51071646 104.98544858 1191.50931047 106.05787938 C1191.50653331 108.18072684 1191.50375686 110.30357431 1191.50098111 112.42642178 C1191.46199541 141.00371322 1191.37494438 169.58083024 1191.27870846 198.15797806 C1191.27485818 199.30931409 1191.2710079 200.46065012 1191.26704095 201.64687512 C1191.03379939 271.31649737 1190.70444177 340.98562929 1190.3529156 410.65474145 C1190.25222182 430.61299919 1190.15370426 450.57126674 1190.05673695 470.52954292 C1190.04988184 471.9400788 1190.04302668 473.35061468 1190.03617146 474.76115056 C1190.00859288 480.43647151 1189.98102846 486.11179254 1189.95348097 491.78711364 C1189.87661685 507.62203729 1189.79945523 523.45695948 1189.72207451 539.29188061 C1189.7185592 540.01127384 1189.71504389 540.73066707 1189.71142205 541.47186009 C1189.53886254 576.7793331 1189.3626425 612.08678773 1189.1862848 647.39424192 C1188.95121987 694.45617881 1188.71922605 741.51812966 1188.49037838 788.5800972 C1188.48311864 790.07292402 1188.47585883 791.56575084 1188.46859894 793.05857766 C1188.45409413 796.04117448 1188.4395897 799.02377131 1188.42508561 802.00636813 C1188.39253426 808.70016437 1188.35998164 815.3939606 1188.32742513 822.08775681 C1188.32020802 823.57166147 1188.31299122 825.05556613 1188.30577474 826.53947079 C1188.11134005 866.52008817 1187.91501337 906.50069622 1187.71796173 946.48130077 C1187.71277735 947.53319107 1187.71277735 947.53319107 1187.70748823 948.60633167 C1187.67624687 954.94491737 1187.64500285 961.28350306 1187.61374322 967.62208866 C1187.53879287 982.82021311 1187.46399875 998.0183383 1187.38974786 1013.21646619 C1187.38645819 1013.88981074 1187.38316852 1014.56315529 1187.37977917 1015.25690423 C1187.37314864 1016.6141063 1187.36651817 1017.97130837 1187.35988775 1019.32851044 C1187.04920605 1082.92204865 1186.72929634 1146.51552022 1186.37763094 1210.10884653 C1186.3234205 1219.92417775 1186.26998113 1229.73951165 1186.21907091 1239.55486059 C1186.21432099 1240.47045338 1186.20957107 1241.38604617 1186.20467722 1242.32938419 C1186.19523441 1244.15037282 1186.18579177 1245.97136145 1186.17634932 1247.79235007 C1186.09609174 1263.25219702 1186.00969336 1278.71198456 1185.9093617 1294.17171542 C1185.86439594 1301.11477508 1185.82202305 1308.05781712 1185.7886678 1315.0009433 C1185.7588829 1321.12812458 1185.72022661 1327.25517586 1185.67363007 1333.38225181 C1185.658699 1335.54892518 1185.64708708 1337.71562447 1185.63911884 1339.88233463 C1185.6280299 1342.76628782 1185.60500656 1345.64989225 1185.57864952 1348.53374004 C1185.57835797 1349.36273989 1185.57806642 1350.19173974 1185.57776603 1351.0458608 C1185.51368126 1356.1783378 1185.15477002 1359.12306178 1181.68611366 1362.88542515 C1178.13420093 1364.76296403 1174.68057665 1364.56098956 1170.7602253 1364.51882458 C1169.88221368 1364.5212808 1169.00420206 1364.52373702 1168.09958402 1364.52626767 C1165.11468271 1364.53067326 1162.13030247 1364.51319101 1159.14545345 1364.49585342 C1156.96677695 1364.49398362 1154.78809911 1364.49333851 1152.60942185 1364.49380171 C1146.5084821 1364.49070625 1140.40775242 1364.4675131 1134.30687596 1364.44082792 C1130.3304353 1364.42513561 1126.35400498 1364.41486397 1122.37754285 1364.40717208 C1100.67771553 1364.36461337 1078.97827904 1364.27009905 1057.27870846 1364.15797806 C1056.41880373 1364.15355919 1055.55889901 1364.14914033 1054.67293657 1364.14458755 C996.62428415 1363.84585695 938.57634705 1363.44320176 880.5284272 1363.02848253 C864.1568426 1362.91159893 847.78524308 1362.79699331 831.41363239 1362.68382454 C830.23136398 1362.67565158 829.04909557 1362.66747863 827.83100085 1362.65905801 C821.8176073 1362.61749926 815.80421351 1362.57597658 809.79081961 1362.53446954 C767.52902843 1362.24271431 725.26726355 1361.94730777 683.0055151 1361.64943314 C672.85734216 1361.57790972 662.70916919 1361.50639034 652.56099606 1361.43489456 C651.30363809 1361.42603618 650.04628012 1361.41717781 648.75082039 1361.40805099 C619.66873439 1361.20319343 590.58663796 1360.9998359 561.50453854 1360.79689407 C560.26060423 1360.7882128 559.01666992 1360.77953153 557.73504063 1360.77058719 C529.07310729 1360.5705667 500.411171 1360.37097415 471.74923134 1360.1718626 C470.52850169 1360.16338173 469.30777203 1360.15490085 468.05005057 1360.14616298 C457.03903786 1360.06966559 446.02802514 1359.99316922 435.01701196 1359.91673928 C406.93047157 1359.72177606 378.84393979 1359.52566821 350.75742359 1359.32724815 C333.16404001 1359.20297602 315.57065045 1359.07957379 297.97725569 1358.95689369 C287.3473411 1358.88275215 276.71742939 1358.80824302 266.08752406 1358.73278534 C221.87199351 1358.41920862 177.65664995 1358.13688736 133.44039918 1357.94672004 C126.98818383 1357.91887908 120.53597546 1357.88961079 114.08376783 1357.86004132 C110.91841183 1357.84559778 107.75305576 1357.83117029 104.58769965 1357.81675003 C102.50049499 1357.80723563 100.41329044 1357.79769931 98.32608598 1357.78814078 C86.29116818 1357.73321447 74.2562622 1357.68432263 62.22127907 1357.64619308 C54.81031336 1357.62232149 47.39939218 1357.59190077 39.98847199 1357.55663936 C35.75781717 1357.53678286 31.52721099 1357.51987079 27.29651605 1357.51173715 C-0.32544333 1357.45579544 -27.86336246 1356.58441479 -55.28379154 1352.97047806 C-56.09905308 1352.86571152 -56.91431461 1352.76094498 -57.75428104 1352.65300369 C-88.1454031 1348.72801805 -118.09217124 1342.96298374 -147.72129154 1335.15797806 C-148.89063236 1334.85311478 -150.05997318 1334.5482515 -151.26474857 1334.23414993 C-191.14612313 1323.71723328 -229.886235 1308.64885956 -266.72129154 1290.15797806 C-268.26744144 1289.38284866 -268.26744144 1289.38284866 -269.8448267 1288.59206009 C-299.44513754 1273.66556468 -327.89969805 1256.65403838 -354.72129154 1237.15797806 C-355.48538334 1236.60642044 -356.24947514 1236.05486282 -357.03672123 1235.48659134 C-367.62172523 1227.83803056 -377.92266639 1219.92470102 -387.9800806 1211.59498978 C-390.50286874 1209.51294674 -393.05220924 1207.46391011 -395.59629154 1205.40797806 C-399.9781807 1201.82100432 -404.20195916 1198.08659871 -408.38926029 1194.27516556 C-410.47953043 1192.37746637 -412.59115269 1190.51064391 -414.72129154 1188.65797806 C-422.29546362 1182.04198438 -429.66481644 1175.32980696 -436.69004154 1168.12672806 C-438.56721108 1166.10944837 -438.56721108 1166.10944837 -440.72129154 1165.15797806 C-440.72129154 1164.49797806 -440.72129154 1163.83797806 -440.72129154 1163.15797806 C-441.38129154 1163.15797806 -442.04129154 1163.15797806 -442.72129154 1163.15797806 C-442.72129154 1162.49797806 -442.72129154 1161.83797806 -442.72129154 1161.15797806 C-443.61847904 1160.75579056 -443.61847904 1160.75579056 -444.53379154 1160.34547806 C-446.71977008 1159.158804 -448.13461748 1158.06198693 -449.72129154 1156.15797806 C-449.72129154 1155.49797806 -449.72129154 1154.83797806 -449.72129154 1154.15797806 C-450.71129154 1153.82797806 -451.70129154 1153.49797806 -452.72129154 1153.15797806 C-454.22910404 1151.62672806 -454.22910404 1151.62672806 -455.84629154 1149.65797806 C-458.51344075 1146.50691571 -461.27694076 1143.55208395 -464.22129154 1140.65797806 C-467.61397553 1137.30541027 -470.81229838 1133.86322124 -473.91660404 1130.24391556 C-475.9378043 1127.90772305 -478.01507993 1125.62832955 -480.09629154 1123.34547806 C-484.34643947 1118.63102826 -488.36881755 1113.76330304 -492.35947514 1108.8288765 C-493.92292566 1106.91058044 -495.50273222 1105.00644941 -497.08457279 1103.10329056 C-503.85982403 1094.94616003 -510.47955006 1086.73513623 -516.72129154 1078.15797806 C-517.1988892 1077.50780716 -517.67648685 1076.85763626 -518.16855717 1076.18776321 C-526.34608433 1065.05441132 -534.19121936 1053.73888115 -541.72129154 1042.15797806 C-542.45364017 1041.03552689 -542.45364017 1041.03552689 -543.20078373 1039.89039993 C-591.14577987 966.12400508 -622.52745784 881.5426995 -639.72129154 769.15797806 C-639.87291752 767.90323685 -640.0245435 766.64849564 -640.1807642 765.35573196 C-650.43719187 677.90558494 -645.21091751 587.06909463 -587.72129154 401.15797806 C-587.25722904 400.10352493 -586.79316654 399.04907181 -586.31504154 397.96266556 C-580.22782549 384.16267009 -573.53348147 370.84599805 -566.14267826 357.69948196 C-564.79689997 355.29316936 -563.47518755 352.8755423 -562.16269779 350.45094681 C-556.14894441 339.38090703 -549.58848739 328.71769124 -542.72129154 318.15797806 C-542.28816654 317.49169388 -541.85504154 316.8254097 -541.40879154 316.13893509 C-531.07955424 300.31825562 -520.07437878 285.07513537 -508.36582279 270.24782181 C-506.84853322 268.31967472 -505.34446829 266.3822416 -503.84629154 264.43922806 C-494.59193141 252.46799156 -484.648265 241.12166265 -474.35410404 230.03688431 C-472.37087852 227.8682831 -470.44901348 225.6771423 -468.53769779 223.44704056 C-464.11708218 218.37460602 -459.3242313 213.69052194 -454.53379154 208.97047806 C-452.76708968 207.22939914 -451.00268427 205.48598623 -449.24082279 203.74000931 C-448.08223759 202.59882645 -448.08223759 202.59882645 -446.90024662 201.43458939 C-444.68013607 199.11497808 -442.70844521 196.67771872 -440.72129154 194.15797806 C-439.60655846 193.12342299 -438.46003414 192.12202545 -437.28379154 191.15797806 C-433.39443015 187.84293359 -429.80898924 184.29095288 -426.22129154 180.65797806 C-422.17971972 176.5750073 -418.11535766 172.60930778 -413.73301029 168.88844681 C-411.23845551 166.74264532 -408.82910172 164.51212129 -406.40879154 162.28297806 C-401.00659014 157.36179459 -395.40899256 152.74296153 -389.72129154 148.15797806 C-388.49124138 147.14863712 -387.26212944 146.13815208 -386.03379154 145.12672806 C-376.78969503 137.53111439 -367.36077674 130.24370214 -357.72129154 123.15797806 C-356.66603275 122.37704788 -356.66603275 122.37704788 -355.5894556 121.58034134 C-312.33055841 89.60764182 -264.50149853 63.46037962 -214.72129154 43.15797806 C-213.67650639 42.72678665 -212.63172123 42.29559525 -211.55527592 41.85133743 C-158.99927569 20.29244887 -102.1573596 7.68371542 -45.72129154 2.15797806 C-44.87501822 2.07503563 -44.02874489 1.99209321 -43.15682692 1.90663738 C-28.73047245 0.5245158 -14.48689733 -0.1125567 0 0 Z " fill="#F79220" transform="translate(1674.7212915420532,457.8420219421387)"/>
<path d="M0 0 C2.07748013 0.00819001 4.15496409 0.01545304 6.2324504 0.02188897 C11.88889184 0.04205268 17.54519039 0.07521083 23.20155374 0.11067819 C29.37494255 0.14702253 35.54838214 0.17098739 41.72182316 0.19658589 C52.5239443 0.24306757 63.32599774 0.29730107 74.12805271 0.35690308 C85.7074063 0.42075756 97.28677003 0.47995746 108.86617565 0.53358459 C109.96679177 0.53868654 109.96679177 0.53868654 111.08964256 0.54389156 C114.07846122 0.55773106 117.06728003 0.5715377 120.05609903 0.58530272 C147.83510371 0.71324555 175.61404767 0.8515567 203.39296818 0.99656296 C230.1480088 1.13621979 256.90306288 1.27233644 283.65814686 1.40343857 C285.3400757 1.41168574 287.02200454 1.41993353 288.70393338 1.42818193 C295.46312061 1.4613257 302.22230793 1.49445015 308.98149539 1.52754746 C327.87327116 1.62006794 346.7650433 1.71331805 365.65681267 1.80713654 C366.94703298 1.81354369 366.94703298 1.81354369 368.26331835 1.82008029 C395.65634211 1.95616538 423.04934851 2.09547131 450.44234467 2.23699951 C451.33038154 2.24158718 452.21841842 2.24617486 453.13336551 2.25090155 C467.55371378 2.32540783 481.97406119 2.40007804 496.39440855 2.47476113 C553.62687222 2.77115734 610.8593779 3.05721119 668.09194088 3.33375931 C682.52533177 3.40351024 696.95872258 3.47327935 711.39211273 3.54318237 C712.28082441 3.547486 713.16953609 3.55178962 714.08517843 3.55622365 C741.46549424 3.68884194 768.84579706 3.82390351 796.22608757 3.96164703 C797.08537014 3.9659698 797.94465271 3.97029257 798.82997415 3.97474634 C817.69046683 4.06965614 836.55095623 4.16520478 855.41144276 4.26132791 C862.15914921 4.29571596 868.90685581 4.33007435 875.65456244 4.36442568 C877.3331918 4.37297268 879.01182115 4.38152238 880.69045049 4.39007478 C905.78946015 4.5179469 930.8884878 4.64153358 955.98753299 4.7622198 C957.22203139 4.76815588 957.22203139 4.76815588 958.48146915 4.77421188 C959.30294785 4.77816194 960.12442655 4.78211201 960.97079854 4.78618177 C988.65216617 4.91934921 1016.33348746 5.05994833 1044.01477439 5.20896766 C1046.98486921 5.2249292 1049.9549642 5.24086018 1052.92505932 5.25676727 C1053.65397816 5.26067416 1054.382897 5.26458104 1055.13390429 5.26860632 C1066.69084377 5.33037415 1078.24780496 5.38555528 1089.80479001 5.43802349 C1101.15909906 5.48971148 1112.51334841 5.54855559 1123.8675849 5.6145834 C1129.94476733 5.64972403 1136.02192266 5.68170395 1142.09916253 5.70512518 C1147.6214538 5.72647281 1153.14361895 5.75677068 1158.66582276 5.79437906 C1160.65692634 5.8063435 1162.64805325 5.8149784 1164.63918651 5.81997404 C1167.33402366 5.82721073 1170.02851558 5.8464799 1172.7232638 5.86880755 C1173.49594811 5.86798159 1174.26863243 5.86715563 1175.06473141 5.86630463 C1180.4855638 5.92973601 1186.00705428 6.0766568 1190.19321552 9.91207615 C1191.58465202 12.79098008 1191.65080057 14.89391923 1191.64659542 18.0924086 C1191.65225235 19.31700032 1191.65790928 20.54159204 1191.66373763 21.80329261 C1191.65479176 23.16703141 1191.64556328 24.53076839 1191.6360836 25.89450359 C1191.63694641 27.345634 1191.63911655 28.79676412 1191.64247936 30.24789089 C1191.64785673 34.25835288 1191.63426798 38.26856475 1191.61762699 42.27898773 C1191.60275972 46.63150438 1191.60503049 50.98401773 1191.6049906 55.33655512 C1191.60201679 63.98265268 1191.5822372 72.62863955 1191.55708746 81.27469794 C1191.53652809 88.4843526 1191.52281763 95.69399356 1191.51344573 102.90367115 C1191.5120811 103.94455986 1191.51071646 104.98544858 1191.50931047 106.05787938 C1191.50653331 108.18072684 1191.50375686 110.30357431 1191.50098111 112.42642178 C1191.46199541 141.00371322 1191.37494438 169.58083024 1191.27870846 198.15797806 C1191.27485818 199.30931409 1191.2710079 200.46065012 1191.26704095 201.64687512 C1191.03379939 271.31649737 1190.70444177 340.98562929 1190.3529156 410.65474145 C1190.25222182 430.61299919 1190.15370426 450.57126674 1190.05673695 470.52954292 C1190.04988184 471.9400788 1190.04302668 473.35061468 1190.03617146 474.76115056 C1190.00859288 480.43647151 1189.98102846 486.11179254 1189.95348097 491.78711364 C1189.87661685 507.62203729 1189.79945523 523.45695948 1189.72207451 539.29188061 C1189.7185592 540.01127384 1189.71504389 540.73066707 1189.71142205 541.47186009 C1189.53886254 576.7793331 1189.3626425 612.08678773 1189.1862848 647.39424192 C1188.95121987 694.45617881 1188.71922605 741.51812966 1188.49037838 788.5800972 C1188.48311864 790.07292402 1188.47585883 791.56575084 1188.46859894 793.05857766 C1188.45409413 796.04117448 1188.4395897 799.02377131 1188.42508561 802.00636813 C1188.39253426 808.70016437 1188.35998164 815.3939606 1188.32742513 822.08775681 C1188.32020802 823.57166147 1188.31299122 825.05556613 1188.30577474 826.53947079 C1188.11134005 866.52008817 1187.91501337 906.50069622 1187.71796173 946.48130077 C1187.71277735 947.53319107 1187.71277735 947.53319107 1187.70748823 948.60633167 C1187.67624687 954.94491737 1187.64500285 961.28350306 1187.61374322 967.62208866 C1187.53879287 982.82021311 1187.46399875 998.0183383 1187.38974786 1013.21646619 C1187.38645819 1013.88981074 1187.38316852 1014.56315529 1187.37977917 1015.25690423 C1187.37314864 1016.6141063 1187.36651817 1017.97130837 1187.35988775 1019.32851044 C1187.04920605 1082.92204865 1186.72929634 1146.51552022 1186.37763094 1210.10884653 C1186.3234205 1219.92417775 1186.26998113 1229.73951165 1186.21907091 1239.55486059 C1186.21432099 1240.47045338 1186.20957107 1241.38604617 1186.20467722 1242.32938419 C1186.19523441 1244.15037282 1186.18579177 1245.97136145 1186.17634932 1247.79235007 C1186.09609174 1263.25219702 1186.00969336 1278.71198456 1185.9093617 1294.17171542 C1185.86439594 1301.11477508 1185.82202305 1308.05781712 1185.7886678 1315.0009433 C1185.7588829 1321.12812458 1185.72022661 1327.25517586 1185.67363007 1333.38225181 C1185.658699 1335.54892518 1185.64708708 1337.71562447 1185.63911884 1339.88233463 C1185.6280299 1342.76628782 1185.60500656 1345.64989225 1185.57864952 1348.53374004 C1185.57835797 1349.36273989 1185.57806642 1350.19173974 1185.57776603 1351.0458608 C1185.51368126 1356.1783378 1185.15477002 1359.12306178 1181.68611366 1362.88542515 C1178.13420093 1364.76296403 1174.68057665 1364.56098956 1170.7602253 1364.51882458 C1169.88221368 1364.5212808 1169.00420206 1364.52373702 1168.09958402 1364.52626767 C1165.11468271 1364.53067326 1162.13030247 1364.51319101 1159.14545345 1364.49585342 C1156.96677695 1364.49398362 1154.78809911 1364.49333851 1152.60942185 1364.49380171 C1146.5084821 1364.49070625 1140.40775242 1364.4675131 1134.30687596 1364.44082792 C1130.3304353 1364.42513561 1126.35400498 1364.41486397 1122.37754285 1364.40717208 C1100.67771553 1364.36461337 1078.97827904 1364.27009905 1057.27870846 1364.15797806 C1056.41880373 1364.15355919 1055.55889901 1364.14914033 1054.67293657 1364.14458755 C996.62428415 1363.84585695 938.57634705 1363.44320176 880.5284272 1363.02848253 C864.1568426 1362.91159893 847.78524308 1362.79699331 831.41363239 1362.68382454 C830.23136398 1362.67565158 829.04909557 1362.66747863 827.83100085 1362.65905801 C821.8176073 1362.61749926 815.80421351 1362.57597658 809.79081961 1362.53446954 C767.52902843 1362.24271431 725.26726355 1361.94730777 683.0055151 1361.64943314 C672.85734216 1361.57790972 662.70916919 1361.50639034 652.56099606 1361.43489456 C651.30363809 1361.42603618 650.04628012 1361.41717781 648.75082039 1361.40805099 C619.66873439 1361.20319343 590.58663796 1360.9998359 561.50453854 1360.79689407 C560.26060423 1360.7882128 559.01666992 1360.77953153 557.73504063 1360.77058719 C529.07310729 1360.5705667 500.411171 1360.37097415 471.74923134 1360.1718626 C470.52850169 1360.16338173 469.30777203 1360.15490085 468.05005057 1360.14616298 C457.03903786 1360.06966559 446.02802514 1359.99316922 435.01701196 1359.91673928 C406.93047157 1359.72177606 378.84393979 1359.52566821 350.75742359 1359.32724815 C333.16404001 1359.20297602 315.57065045 1359.07957379 297.97725569 1358.95689369 C287.3473411 1358.88275215 276.71742939 1358.80824302 266.08752406 1358.73278534 C221.87199351 1358.41920862 177.65664995 1358.13688736 133.44039918 1357.94672004 C126.98818383 1357.91887908 120.53597546 1357.88961079 114.08376783 1357.86004132 C110.91841183 1357.84559778 107.75305576 1357.83117029 104.58769965 1357.81675003 C102.50049499 1357.80723563 100.41329044 1357.79769931 98.32608598 1357.78814078 C86.29116818 1357.73321447 74.2562622 1357.68432263 62.22127907 1357.64619308 C54.81031336 1357.62232149 47.39939218 1357.59190077 39.98847199 1357.55663936 C35.75781717 1357.53678286 31.52721099 1357.51987079 27.29651605 1357.51173715 C-0.32544333 1357.45579544 -27.86336246 1356.58441479 -55.28379154 1352.97047806 C-56.09905308 1352.86571152 -56.91431461 1352.76094498 -57.75428104 1352.65300369 C-88.1454031 1348.72801805 -118.09217124 1342.96298374 -147.72129154 1335.15797806 C-148.89063236 1334.85311478 -150.05997318 1334.5482515 -151.26474857 1334.23414993 C-191.14612313 1323.71723328 -229.886235 1308.64885956 -266.72129154 1290.15797806 C-268.26744144 1289.38284866 -268.26744144 1289.38284866 -269.8448267 1288.59206009 C-299.44513754 1273.66556468 -327.89969805 1256.65403838 -354.72129154 1237.15797806 C-355.48538334 1236.60642044 -356.24947514 1236.05486282 -357.03672123 1235.48659134 C-367.62172523 1227.83803056 -377.92266639 1219.92470102 -387.9800806 1211.59498978 C-390.50286874 1209.51294674 -393.05220924 1207.46391011 -395.59629154 1205.40797806 C-399.9781807 1201.82100432 -404.20195916 1198.08659871 -408.38926029 1194.27516556 C-410.47953043 1192.37746637 -412.59115269 1190.51064391 -414.72129154 1188.65797806 C-422.29546362 1182.04198438 -429.66481644 1175.32980696 -436.69004154 1168.12672806 C-438.56721108 1166.10944837 -438.56721108 1166.10944837 -440.72129154 1165.15797806 C-440.72129154 1164.49797806 -440.72129154 1163.83797806 -440.72129154 1163.15797806 C-441.38129154 1163.15797806 -442.04129154 1163.15797806 -442.72129154 1163.15797806 C-442.72129154 1162.49797806 -442.72129154 1161.83797806 -442.72129154 1161.15797806 C-443.61847904 1160.75579056 -443.61847904 1160.75579056 -444.53379154 1160.34547806 C-446.71977008 1159.158804 -448.13461748 1158.06198693 -449.72129154 1156.15797806 C-449.72129154 1155.49797806 -449.72129154 1154.83797806 -449.72129154 1154.15797806 C-450.71129154 1153.82797806 -451.70129154 1153.49797806 -452.72129154 1153.15797806 C-454.22910404 1151.62672806 -454.22910404 1151.62672806 -455.84629154 1149.65797806 C-458.51344075 1146.50691571 -461.27694076 1143.55208395 -464.22129154 1140.65797806 C-467.61397553 1137.30541027 -470.81229838 1133.86322124 -473.91660404 1130.24391556 C-475.9378043 1127.90772305 -478.01507993 1125.62832955 -480.09629154 1123.34547806 C-484.34643947 1118.63102826 -488.36881755 1113.76330304 -492.35947514 1108.8288765 C-493.92292566 1106.91058044 -495.50273222 1105.00644941 -497.08457279 1103.10329056 C-503.85982403 1094.94616003 -510.47955006 1086.73513623 -516.72129154 1078.15797806 C-517.1988892 1077.50780716 -517.67648685 1076.85763626 -518.16855717 1076.18776321 C-526.34608433 1065.05441132 -534.19121936 1053.73888115 -541.72129154 1042.15797806 C-542.45364017 1041.03552689 -542.45364017 1041.03552689 -543.20078373 1039.89039993 C-591.14577987 966.12400508 -622.52745784 881.5426995 -639.72129154 769.15797806 C-639.87291752 767.90323685 -640.0245435 766.64849564 -640.1807642 765.35573196 C-650.43719187 677.90558494 -645.21091751 587.06909463 -587.72129154 401.15797806 C-587.25722904 400.10352493 -586.79316654 399.04907181 -586.31504154 397.96266556 C-580.22782549 384.16267009 -573.53348147 370.84599805 -566.14267826 357.69948196 C-564.79689997 355.29316936 -563.47518755 352.8755423 -562.16269779 350.45094681 C-556.14894441 339.38090703 -549.58848739 328.71769124 -542.72129154 318.15797806 C-542.28816654 317.49169388 -541.85504154 316.8254097 -541.40879154 316.13893509 C-531.07955424 300.31825562 -520.07437878 285.07513537 -508.36582279 270.24782181 C-506.84853322 268.31967472 -505.34446829 266.3822416 -503.84629154 264.43922806 C-494.59193141 252.46799156 -484.648265 241.12166265 -474.35410404 230.03688431 C-472.37087852 227.8682831 -470.44901348 225.6771423 -468.53769779 223.44704056 C-464.11708218 218.37460602 -459.3242313 213.69052194 -454.53379154 208.97047806 C-452.76708968 207.22939914 -451.00268427 205.48598623 -449.24082279 203.74000931 C-448.08223759 202.59882645 -448.08223759 202.59882645 -446.90024662 201.43458939 C-444.68013607 199.11497808 -442.70844521 196.67771872 -440.72129154 194.15797806 C-439.60655846 193.12342299 -438.46003414 192.12202545 -437.28379154 191.15797806 C-433.39443015 187.84293359 -429.80898924 184.29095288 -426.22129154 180.65797806 C-422.17971972 176.5750073 -418.11535766 172.60930778 -413.73301029 168.88844681 C-411.23845551 166.74264532 -408.82910172 164.51212129 -406.40879154 162.28297806 C-401.00659014 157.36179459 -395.40899256 152.74296153 -389.72129154 148.15797806 C-388.49124138 147.14863712 -387.26212944 146.13815208 -386.03379154 145.12672806 C-376.78969503 137.53111439 -367.36077674 130.24370214 -357.72129154 123.15797806 C-356.66603275 122.37704788 -356.66603275 122.37704788 -355.5894556 121.58034134 C-312.33055841 89.60764182 -264.50149853 63.46037962 -214.72129154 43.15797806 C-213.67650639 42.72678665 -212.63172123 42.29559525 -211.55527592 41.85133743 C-158.99927569 20.29244887 -102.1573596 7.68371542 -45.72129154 2.15797806 C-44.87501822 2.07503563 -44.02874489 1.99209321 -43.15682692 1.90663738 C-28.73047245 0.5245158 -14.48689733 -0.1125567 0 0 Z M-64.72129154 25.15797806 C-65.61253003 25.28238801 -66.50376852 25.40679796 -67.42201424 25.53497791 C-72.33526192 26.22799392 -77.21348828 27.02437104 -82.09629154 27.90797806 C-83.55437868 28.16588354 -85.01246794 28.42377705 -86.47055912 28.6816597 C-109.02507949 32.72063508 -131.29000351 37.6286566 -153.19931889 44.39088821 C-155.45600779 45.07728865 -157.71757118 45.72828725 -159.99082279 46.35719681 C-183.63999633 52.92513082 -206.32452719 62.20759317 -228.72129154 72.15797806 C-229.72982182 72.60173782 -230.73835209 73.04549759 -231.77744389 73.50270462 C-243.89166756 78.83870764 -255.72473536 84.55285031 -267.35605717 90.87379837 C-269.76947799 92.1841404 -272.19037613 93.47990069 -274.61191654 94.77516556 C-306.4373514 111.91121616 -336.58309217 132.48540805 -364.72129154 155.15797806 C-365.6507056 155.90434525 -366.58011967 156.65071243 -367.53769779 157.41969681 C-377.76164011 165.70897755 -387.74517867 174.29201604 -397.48691654 183.14235306 C-399.58211217 185.03242464 -401.7074772 186.88010293 -403.84629154 188.72047806 C-407.2191419 191.65309695 -410.36743406 194.75576852 -413.47129154 197.97047806 C-415.38101052 199.82714928 -417.32839147 201.55917105 -419.34629154 203.29469681 C-424.34914674 207.64202947 -429.03453599 212.28732217 -433.72129154 216.97047806 C-434.59140873 217.82834915 -435.46152592 218.68622025 -436.35801029 219.57008743 C-437.1791431 220.38928665 -438.00027592 221.20848587 -438.84629154 222.05250931 C-439.59136967 222.79347855 -440.33644779 223.53444778 -441.10410404 224.29787064 C-442.93999489 225.99873124 -442.93999489 225.99873124 -442.72129154 228.15797806 C-443.71129154 228.48797806 -444.70129154 228.81797806 -445.72129154 229.15797806 C-447.1313749 230.5104948 -447.1313749 230.5104948 -448.53379154 232.28297806 C-452.08513671 236.48276418 -455.82013954 240.47467738 -459.59629154 244.47047806 C-464.4573984 249.64138008 -469.1087001 254.90047814 -473.53769779 260.45094681 C-475.47694887 262.85506309 -477.47218491 265.19788002 -479.49546146 267.53126907 C-487.40548183 276.69076672 -494.5483761 286.41815375 -501.72129154 296.15797806 C-502.28106693 296.91240189 -502.84084232 297.66682571 -503.4175806 298.44411087 C-522.34126677 323.96775974 -538.91112351 351.06485219 -553.72129154 379.15797806 C-554.23272709 380.12348587 -554.74416264 381.08899368 -555.27109623 382.08375931 C-578.48019934 426.21720646 -594.95168506 473.78889032 -606.72129154 522.15797806 C-606.94236576 523.043564 -607.16343998 523.92914993 -607.39121342 524.84157181 C-610.90887139 539.0656218 -613.14932418 553.50501338 -615.40879154 567.97047806 C-615.63478031 569.41218369 -615.63478031 569.41218369 -615.86533451 570.88301468 C-626.64928231 640.07656802 -627.48839456 711.90058613 -616.72129154 781.15797806 C-616.52777103 782.41304153 -616.33425053 783.66810501 -616.13486576 784.96120071 C-611.27168431 816.09105713 -604.9380461 846.48874263 -595.52939701 876.56178665 C-594.82140087 878.83635795 -594.12810934 881.11443446 -593.44394779 883.39625931 C-569.80524319 961.31643375 -528.16524235 1034.33121834 -475.31894779 1096.09157181 C-472.99476413 1098.81568792 -470.7620557 1101.60467798 -468.53379154 1104.40797806 C-463.73232367 1110.32891385 -458.4848883 1115.81547714 -453.21665287 1121.321064 C-452.55044926 1122.01876907 -451.88424564 1122.71647415 -451.19785404 1123.43532181 C-450.60053471 1124.05656937 -450.00321537 1124.67781693 -449.38779545 1125.31789017 C-447.72129154 1127.15797806 -447.72129154 1127.15797806 -446.12900639 1129.39064407 C-445.43218754 1130.2654744 -445.43218754 1130.2654744 -444.72129154 1131.15797806 C-444.06129154 1131.15797806 -443.40129154 1131.15797806 -442.72129154 1131.15797806 C-442.48877689 1131.71573929 -442.25626225 1132.27350052 -442.0167017 1132.8481636 C-440.38505515 1135.75751302 -438.35957028 1137.76146296 -435.99472904 1140.11500931 C-435.52821934 1140.58106079 -435.06170963 1141.04711227 -434.58106327 1141.52728653 C-433.59322414 1142.51211151 -432.60296259 1143.49451187 -431.6104517 1144.47462845 C-430.11696107 1145.95005848 -428.63143404 1147.43313545 -427.14707279 1148.91774368 C-422.40879999 1153.63819913 -417.60750095 1158.24038795 -412.5269556 1162.59523392 C-409.57178601 1165.1528381 -406.75129797 1167.85171658 -403.90879154 1170.53297806 C-398.93944601 1175.18311216 -393.86232982 1179.60764744 -388.54551029 1183.86110306 C-385.90857117 1186.00566765 -383.34340395 1188.21053618 -380.7835474 1190.44533157 C-373.4603157 1196.82850842 -365.83436793 1202.68661493 -358.01108646 1208.43996048 C-355.7435689 1210.14126351 -353.51024623 1211.88287528 -351.27765751 1213.62961197 C-343.76454337 1219.48780417 -335.98192235 1224.84796784 -328.03379154 1230.09547806 C-327.37965275 1230.52929794 -326.72551395 1230.96311783 -326.05155277 1231.41008377 C-315.75504988 1238.23747748 -305.39714209 1244.93465315 -294.72129154 1251.15797806 C-294.08755619 1251.52858353 -293.45382084 1251.899189 -292.80088139 1252.28102493 C-280.67373961 1259.33118449 -268.22432928 1265.80470199 -255.72129154 1272.15797806 C-254.76142338 1272.64669388 -253.80155521 1273.1354097 -252.81260014 1273.63893509 C-211.45837257 1294.52201708 -166.84548668 1309.82236637 -121.72129154 1320.15797806 C-121.07684086 1320.3066835 -120.43239017 1320.45538895 -119.76841068 1320.60860062 C-101.97833917 1324.70193494 -84.10120239 1327.87028445 -66.03379154 1330.47047806 C-65.18489353 1330.5937648 -64.33599552 1330.71705154 -63.46137333 1330.84407425 C-41.9335111 1333.93916689 -20.49477986 1335.45162096 1.24623775 1335.75172806 C3.51252189 1335.78868713 5.77879877 1335.8260932 8.04506874 1335.86391068 C32.37608995 1336.25511245 56.70952816 1336.45392041 81.04288459 1336.63038707 C86.87896619 1336.67326537 92.71502577 1336.71892635 98.55108777 1336.76438167 C111.03624946 1336.86148462 123.52143593 1336.95499599 136.00663803 1337.04674014 C146.86078659 1337.12649905 157.71492327 1337.20770702 168.5690527 1337.29002762 C247.13334601 1337.8853927 325.69771861 1338.39553846 404.26329625 1338.79173958 C414.15515532 1338.84163939 424.04701199 1338.89198972 433.93886471 1338.94313431 C435.2161273 1338.94973123 435.2161273 1338.94973123 436.51919317 1338.95646143 C467.54396818 1339.11721252 498.56746918 1339.35414676 529.59120846 1339.65797806 C530.65303719 1339.66835728 531.71486591 1339.6787365 532.80887127 1339.68943024 C534.94208534 1339.71028347 537.07529933 1339.73114381 539.20851326 1339.7520113 C544.5522218 1339.80424495 549.89593242 1339.85625839 555.23964596 1339.90797806 C556.3036846 1339.91828489 557.36772324 1339.92859173 558.46400547 1339.93921089 C588.45297844 1340.22792373 618.44255844 1340.43729343 648.43219805 1340.64235306 C650.71064149 1340.65793997 652.98908456 1340.67358014 655.26752758 1340.68922806 C694.98592569 1340.96165531 734.70446084 1341.19847871 774.42323971 1341.40797806 C776.39818415 1341.4184146 778.37312858 1341.42885225 780.34807301 1341.439291 C797.22629115 1341.52844262 814.10451121 1341.61724726 830.98274118 1341.70413584 C909.80095551 1342.1099662 909.80095551 1342.1099662 942.32558346 1342.44313431 C943.47352509 1342.45487623 944.62146671 1342.46661816 945.80419445 1342.4787159 C954.50262849 1342.56828652 963.20103136 1342.66078624 971.89942837 1342.75387573 C1036.02295473 1343.43599054 1100.15250392 1343.25098048 1164.27870846 1343.15797806 C1164.85078848 1282.29866876 1165.34851082 1221.43914739 1165.73772995 1160.57840872 C1165.75332115 1158.14399757 1165.76898031 1155.70958688 1165.78465979 1153.2751763 C1166.3386082 1067.24622827 1166.77620621 981.2167013 1167.20359752 895.18704649 C1167.24111695 887.63515412 1167.27871554 880.08326215 1167.31636024 872.5313704 C1167.52057714 831.56129899 1167.724147 790.59122443 1167.92544556 749.62113857 C1167.97133235 740.2837276 1168.01722722 730.94631667 1168.06313229 721.60890579 C1168.06882877 720.4500313 1168.07452526 719.29115681 1168.08039436 718.09716491 C1168.25274872 683.03937429 1168.42847986 647.98160206 1168.60693419 612.92384198 C1168.89073788 557.1620752 1169.16951283 501.40028541 1169.43886471 445.63844681 C1169.44417336 444.54025907 1169.44948201 443.44207134 1169.45495153 442.31060519 C1170.12769592 303.80655646 1170.12769592 303.80655646 1170.27870846 27.15797806 C1139.29705834 26.90177156 1108.31542379 26.64570287 1077.33339596 26.43922806 C1076.46896924 26.43344679 1075.60454253 26.42766552 1074.71392107 26.42170906 C1026.37855476 26.0996176 978.04260004 25.92762598 929.70653439 25.74868774 C905.55610544 25.65927441 881.40568267 25.568337 857.25527096 25.47438431 C856.53711126 25.47159191 855.81895156 25.46879952 855.07902944 25.4659225 C767.97954114 25.12696316 680.88049195 24.69180034 593.78144008 24.25674957 C579.65832554 24.18622656 565.53520824 24.11628492 551.41208882 24.04674792 C526.49196584 23.92403199 501.57185125 23.79971221 476.65174612 23.67342189 C473.60251976 23.65797599 470.55329324 23.64256194 467.50406671 23.62715125 C424.91780812 23.41171664 382.33172607 23.18521416 339.74599361 22.88161087 C338.54383396 22.87305147 338.54383396 22.87305147 337.31738825 22.86431915 C330.16554255 22.81337814 323.01369886 22.76215815 315.86185604 22.71081471 C249.20035229 22.23240817 182.54067768 21.9418011 115.87736702 21.92054367 C113.04841963 21.91962199 110.21947225 21.91868921 107.39052486 21.91774368 C106.69026262 21.91751916 105.99000038 21.91729463 105.26851807 21.9170633 C93.61049593 21.9130115 81.95253202 21.89511534 70.2945329 21.87238416 C57.96120177 21.84854618 45.62790059 21.83620638 33.29454613 21.83504224 C26.51057224 21.83414407 19.72669252 21.82850331 12.94274044 21.81022263 C-25.99379417 21.59551676 -25.99379417 21.59551676 -64.72129154 25.15797806 Z " fill="#010000" transform="translate(1674.7212915420532,457.8420219421387)"/>
</svg>
