<?xml version="1.0" encoding="UTF-8"?>
<svg version="1.1" xmlns="http://www.w3.org/2000/svg" width="4000" height="2250">
<path d="M0 0 C1.0485519 -0.00464994 2.09710379 -0.00929987 3.17742999 -0.01409072 C4.33554607 -0.00895833 5.49366215 -0.00382594 6.68687266 0.00146198 C7.91739909 -0.00090381 9.14792552 -0.0032696 10.41574063 -0.00570709 C13.85223656 -0.01006693 17.2885002 -0.00528254 20.72497352 0.00348446 C24.45249471 0.01097277 28.18000871 0.00731455 31.90753466 0.00535488 C39.30957388 0.00355411 46.71155498 0.01367682 54.11357876 0.02803855 C60.28310631 0.0398769 66.45262707 0.04750295 72.62216359 0.05273724 C159.25054464 0.12977353 245.87608382 0.74866843 332.50181274 1.38552057 C357.23719077 1.56733506 381.97262163 1.74132242 406.70806239 1.91436017 C418.94809934 1.99999691 431.18813379 2.08599057 443.42816752 2.17208576 C445.26246545 2.18498759 445.26246545 2.18498759 447.1338199 2.19815006 C475.88698947 2.40047548 504.64013348 2.60634451 533.39327353 2.81281757 C535.26705357 2.82627116 535.26705357 2.82627116 537.17868776 2.83999653 C549.83002509 2.93083415 562.48136204 3.02172469 575.13269873 3.11265176 C601.76089593 3.30403222 628.38909523 3.49511754 655.01729697 3.68586445 C656.26853653 3.69482878 657.5197761 3.70379312 658.80893201 3.7130291 C687.57408442 3.91909526 716.33924339 4.12418843 745.10442179 4.32659626 C746.93493233 4.33947746 746.93493233 4.33947746 748.80242288 4.3526189 C761.0104763 4.43850728 773.21853077 4.52424589 785.42658683 4.60975761 C810.09188562 4.78256201 834.75716721 4.95729466 859.42240828 5.13816547 C882.45953856 5.30705466 905.49669175 5.47234793 928.53388399 5.63257573 C933.77237747 5.66901478 939.01086933 5.70565861 944.24935763 5.74283624 C986.65862665 6.04365947 1029.06587439 6.30733228 1071.47637417 6.22896914 C1073.9736846 6.22446695 1076.47099534 6.22047906 1078.96830691 6.21665776 C1093.46555082 6.19424668 1107.96267745 6.1693789 1122.45971849 6.08651969 C1207.30011698 5.60593102 1290.6633167 15.01055282 1523.96675986 123.24934101 C1524.77612998 123.81781757 1525.58550009 124.38629414 1526.41939658 124.97199726 C1536.34474884 131.97191843 1545.96181138 139.27852147 1555.37252158 146.95490742 C1557.57374723 148.74218129 1559.80287034 150.49357042 1562.02925986 152.24934101 C1568.48534442 157.41205303 1574.71716178 162.84042491 1580.96675986 168.24934101 C1581.70925986 168.88871601 1582.45175986 169.52809101 1583.21675986 170.18684101 C1588.18910111 174.49620342 1593.03242882 178.94539253 1597.86910361 183.40559101 C1599.76442234 185.15169509 1601.67183522 186.87793717 1603.59566611 188.59309101 C1610.89330148 195.13653117 1617.84248202 202.01658158 1624.77925986 208.93684101 C1625.27930533 209.43429829 1625.7793508 209.93175556 1626.29454917 210.4442873 C1631.52374344 215.65213792 1636.66364912 220.89573906 1641.46651572 226.50397968 C1643.68907759 229.08967452 1646.01779728 231.5668962 1648.34175986 234.06184101 C1652.6107118 238.6823365 1656.6470728 243.44040853 1660.59175986 248.34309101 C1662.80454602 251.05084249 1665.06809836 253.70117072 1667.35909384 256.34235859 C1673.51139527 263.43757871 1679.34755508 270.72492074 1684.96675986 278.24934101 C1685.4899581 278.94656269 1686.01315634 279.64378437 1686.55220908 280.36213398 C1705.16328582 305.20375878 1722.31873417 330.94866581 1737.27193564 358.16535664 C1738.42635573 360.26599543 1739.58641894 362.36354059 1740.75142783 364.45832539 C1779.90444482 434.95665856 1803.26140601 513.14651954 1794.24190634 872.1675539 C1778.96137654 925.17634378 1757.9900277 975.64134716 1729.96675986 1023.24934101 C1729.41020713 1024.19615742 1728.85365439 1025.14297382 1728.28023642 1026.11848164 C1712.4726909 1052.86416334 1694.60449095 1078.18519035 1674.96675986 1102.24934101 C1673.79886924 1103.69180195 1673.79886924 1103.69180195 1672.60738486 1105.16340351 C1667.30442129 1111.68868137 1661.89065334 1118.11739934 1656.43892783 1124.51838398 C1654.90425863 1126.32282919 1653.37492565 1128.1317162 1651.84566611 1129.94074726 C1642.69559456 1140.73106018 1642.69559456 1140.73106018 1637.63594931 1145.579175 C1635.99710491 1147.2189782 1634.5099195 1148.92065303 1633.01363486 1150.69074726 C1628.45405642 1155.93393236 1623.54441266 1160.82174306 1618.62423056 1165.7222414 C1617.0321702 1167.30894047 1615.44552996 1168.90091843 1613.85933799 1170.49348164 C1608.95900546 1175.39701852 1604.02087933 1180.20573081 1598.748254 1184.71296406 C1595.79757156 1187.25765977 1592.98812013 1189.95123523 1590.15425986 1192.62434101 C1585.18357031 1197.27573279 1580.10454794 1201.70084152 1574.78707236 1205.95637226 C1572.16986606 1208.08421173 1569.62165862 1210.26980904 1567.07979697 1212.48591328 C1559.29871474 1219.26143354 1551.19409558 1225.53548748 1542.95504111 1231.74152851 C1541.14448289 1233.1145648 1539.34884973 1234.50380442 1537.56050986 1235.90559101 C1529.90221172 1241.90515781 1522.00992236 1247.47652438 1513.94576377 1252.91438007 C1512.07796573 1254.17432575 1510.21543108 1255.44171798 1508.35347861 1256.71027851 C1446.3866644 1298.70698666 1377.67416779 1329.50089968 1304.96675986 1347.24934101 C1303.8723458 1347.5193996 1302.77793174 1347.7894582 1301.65035361 1348.06770039 C1287.85901067 1351.4284067 1273.9650021 1354.05589439 1259.96675986 1356.37434101 C1258.93118445 1356.54911976 1258.93118445 1356.54911976 1257.87468833 1356.72742939 C1254.20477125 1357.34131438 1250.53198311 1357.90487414 1246.84638709 1358.41659164 C1243.87084495 1358.82986291 1240.90216432 1359.25979408 1237.9365651 1359.73969758 C1207.16527025 1364.66401491 1176.01671138 1363.75166256 1144.95686556 1363.59977069 C1136.2119204 1363.55779822 1127.46695812 1363.54009918 1118.72193701 1363.52193834 C1096.98440543 1363.47544128 1075.24711636 1363.38475016 1053.50975166 1363.28999599 C1042.77455049 1363.24353517 1032.03932925 1363.20283088 1021.30410366 1363.16248252 C959.25976858 1362.92888826 897.21580834 1362.63038487 835.17185007 1362.31338978 C816.20295352 1362.21650986 797.23404878 1362.12138942 778.26513785 1362.0273695 C776.88255142 1362.02051457 775.49996498 1362.0136594 774.11737855 1362.00680402 C768.55636456 1361.97923204 762.99535053 1361.95166757 757.43433645 1361.92411352 C741.91938233 1361.84723379 726.40442958 1361.77007887 710.88947791 1361.69270706 C710.18456001 1361.68919175 709.4796421 1361.68567644 708.75336305 1361.6820546 C686.47448744 1361.57093355 664.1956181 1361.4586032 641.91675299 1361.34539604 C641.19968364 1361.3417525 640.48261428 1361.33810897 639.74381555 1361.33435502 C628.11315419 1361.275254 616.48249317 1361.21608815 604.85183216 1361.15691736 C558.50620807 1360.92113915 512.16056594 1360.68930668 465.81490439 1360.46101093 C454.06022365 1360.40310484 442.30554295 1360.34519201 430.55086249 1360.28722954 C429.8265599 1360.2836582 429.1022573 1360.28008686 428.35600614 1360.27640729 C405.99412704 1360.16613653 383.63225265 1360.05495053 361.27038306 1359.9427681 C360.21605503 1359.9374789 360.21605503 1359.9374789 359.14042745 1359.93208284 C343.70648813 1359.85464528 328.27255002 1359.77696915 312.83861298 1359.69907939 C307.31789264 1359.67121882 301.79717225 1359.64336884 296.27645184 1359.61552108 C294.90390309 1359.60859709 293.53135435 1359.60167209 292.15880561 1359.59474607 C271.80973399 1359.49206367 251.46065517 1359.39093535 231.11157032 1359.2909104 C230.44964278 1359.28765669 229.78771524 1359.28440299 229.10572928 1359.28105068 C228.44510194 1359.27780337 227.78447461 1359.27455606 227.10382826 1359.27121034 C204.69544881 1359.16103854 182.28708506 1359.04804459 159.87873527 1358.93199343 C148.14463387 1358.87128782 136.41052967 1358.81169483 124.67640609 1358.75542355 C99.89833871 1358.63606274 75.12056229 1358.49945699 50.34295492 1358.30542305 C45.56251704 1358.2682006 40.78207692 1358.23479585 36.0015863 1358.20514255 C28.60345193 1358.15914402 21.20589071 1358.09458511 13.80814585 1358.00286036 C11.51996741 1357.97712543 9.23170519 1357.95783922 6.943414 1357.94574273 C3.93234638 1357.92850688 0.9226372 1357.88724587 -2.08806115 1357.83858871 C-3.36569879 1357.83947146 -3.36569879 1357.83947146 -4.66914728 1357.84037205 C-9.69757294 1357.72456198 -12.39196209 1357.04464653 -16.03324014 1353.24934101 C-17.66875494 1349.97831142 -17.17179939 1346.36245877 -17.1635645 1342.7676096 C-17.16538305 1341.86605808 -17.16720159 1340.96450657 -17.16907525 1340.03563531 C-17.17380252 1336.94598522 -17.17100967 1333.85638783 -17.16811258 1330.76673603 C-17.16936426 1328.50212031 -17.17093232 1326.23750474 -17.17278522 1323.97288942 C-17.17611866 1317.57100495 -17.17179166 1311.16914063 -17.1655996 1304.76725954 C-17.16160721 1300.56191142 -17.15978448 1296.3565637 -17.15811414 1292.15121412 C-17.11693576 1200.11937063 -16.56789832 1108.08801095 -16.10744507 1016.05756158 C-16.00729861 996.03920171 -15.90871068 976.02083464 -15.81126863 956.00246143 C-15.80787734 955.30589043 -15.80448605 954.60931944 -15.80099199 953.89164022 C-15.76998349 947.52244604 -15.73898927 941.15325179 -15.70801265 934.78405745 C-15.63106188 918.96218294 -15.55390631 903.14030943 -15.47660619 887.31843662 C-15.47309088 886.59889021 -15.46957557 885.8793438 -15.46595373 885.13799295 C-15.29626477 850.40833648 -15.12419525 815.67869187 -14.95194131 780.94904804 C-14.71449938 733.0756842 -14.47868027 685.20231277 -14.24491006 637.32893085 C-14.2376503 635.84230892 -14.23039048 634.35568698 -14.22313062 632.86906504 C-14.16524114 621.01474643 -14.10735873 609.16042779 -14.04948931 597.30610908 C-13.79585218 545.34991547 -13.54100918 493.39372776 -13.28581152 441.43754179 C-13.25196928 434.54748652 -13.21813312 427.65743122 -13.18431517 420.76737583 C-13.11195076 406.02412167 -13.03953101 391.28086779 -12.96697161 376.5376146 C-12.93476223 369.99283262 -12.90257997 363.44805051 -12.87046532 356.90326807 C-12.74107527 330.5387607 -12.61028878 304.17426305 -12.47234081 277.80979891 C-12.42239121 268.25771946 -12.37280332 258.70563812 -12.3233045 249.15355633 C-12.31112667 246.80497357 -12.29892815 244.45639091 -12.28670869 242.10780837 C-12.11886842 209.8284769 -11.98255445 177.54919117 -11.87654045 145.26959864 C-11.82979114 131.18415089 -11.77330096 117.09874046 -11.71570651 103.0133334 C-11.67108114 91.96861447 -11.63559879 80.9239432 -11.61255485 69.87915784 C-11.59652682 62.54173494 -11.57008763 55.20439881 -11.53509034 47.86704196 C-11.51551678 43.68695597 -11.50085188 39.50700321 -11.49938057 35.32686836 C-11.49800149 31.5290095 -11.48308837 27.73145858 -11.45720873 23.93368985 C-11.4470632 21.9198014 -11.45162274 19.90585541 -11.45671788 17.89194785 C-11.44590462 16.69796508 -11.43509137 15.50398232 -11.42395043 14.27381825 C-11.42088889 13.24729107 -11.41782735 12.22076389 -11.41467303 11.16312982 C-10.95518709 7.65308903 -9.86059479 5.26929671 -8.03324014 2.24934101 C-4.74753557 0.0588713 -3.80880025 -0.00058354 0 0 Z " fill="#F79220" transform="translate(1003.0332401394844,458.75065898895264)"/>
<path d="M0 0 C1.0485519 -0.00464994 2.09710379 -0.00929987 3.17742999 -0.01409072 C4.33554607 -0.00895833 5.49366215 -0.00382594 6.68687266 0.00146198 C7.91739909 -0.00090381 9.14792552 -0.0032696 10.41574063 -0.00570709 C13.85223656 -0.01006693 17.2885002 -0.00528254 20.72497352 0.00348446 C24.45249471 0.01097277 28.18000871 0.00731455 31.90753466 0.00535488 C39.30957388 0.00355411 46.71155498 0.01367682 54.11357876 0.02803855 C60.28310631 0.0398769 66.45262707 0.04750295 72.62216359 0.05273724 C159.25054464 0.12977353 245.87608382 0.74866843 332.50181274 1.38552057 C357.23719077 1.56733506 381.97262163 1.74132242 406.70806239 1.91436017 C418.94809934 1.99999691 431.18813379 2.08599057 443.42816752 2.17208576 C445.26246545 2.18498759 445.26246545 2.18498759 447.1338199 2.19815006 C475.88698947 2.40047548 504.64013348 2.60634451 533.39327353 2.81281757 C535.26705357 2.82627116 535.26705357 2.82627116 537.17868776 2.83999653 C549.83002509 2.93083415 562.48136204 3.02172469 575.13269873 3.11265176 C601.76089593 3.30403222 628.38909523 3.49511754 655.01729697 3.68586445 C656.26853653 3.69482878 657.5197761 3.70379312 658.80893201 3.7130291 C687.57408442 3.91909526 716.33924339 4.12418843 745.10442179 4.32659626 C746.93493233 4.33947746 746.93493233 4.33947746 748.80242288 4.3526189 C761.0104763 4.43850728 773.21853077 4.52424589 785.42658683 4.60975761 C810.09188562 4.78256201 834.75716721 4.95729466 859.42240828 5.13816547 C882.45953856 5.30705466 905.49669175 5.47234793 928.53388399 5.63257573 C933.77237747 5.66901478 939.01086933 5.70565861 944.24935763 5.74283624 C986.65862665 6.04365947 1029.06587439 6.30733228 1071.47637417 6.22896914 C1073.9736846 6.22446695 1076.47099534 6.22047906 1078.96830691 6.21665776 C1093.46555082 6.19424668 1107.96267745 6.1693789 1122.45971849 6.08651969 C1207.30011698 5.60593102 1290.6633167 15.01055282 1523.96675986 123.24934101 C1524.77612998 123.81781757 1525.58550009 124.38629414 1526.41939658 124.97199726 C1536.34474884 131.97191843 1545.96181138 139.27852147 1555.37252158 146.95490742 C1557.57374723 148.74218129 1559.80287034 150.49357042 1562.02925986 152.24934101 C1568.48534442 157.41205303 1574.71716178 162.84042491 1580.96675986 168.24934101 C1581.70925986 168.88871601 1582.45175986 169.52809101 1583.21675986 170.18684101 C1588.18910111 174.49620342 1593.03242882 178.94539253 1597.86910361 183.40559101 C1599.76442234 185.15169509 1601.67183522 186.87793717 1603.59566611 188.59309101 C1610.89330148 195.13653117 1617.84248202 202.01658158 1624.77925986 208.93684101 C1625.27930533 209.43429829 1625.7793508 209.93175556 1626.29454917 210.4442873 C1631.52374344 215.65213792 1636.66364912 220.89573906 1641.46651572 226.50397968 C1643.68907759 229.08967452 1646.01779728 231.5668962 1648.34175986 234.06184101 C1652.6107118 238.6823365 1656.6470728 243.44040853 1660.59175986 248.34309101 C1662.80454602 251.05084249 1665.06809836 253.70117072 1667.35909384 256.34235859 C1673.51139527 263.43757871 1679.34755508 270.72492074 1684.96675986 278.24934101 C1685.4899581 278.94656269 1686.01315634 279.64378437 1686.55220908 280.36213398 C1705.16328582 305.20375878 1722.31873417 330.94866581 1737.27193564 358.16535664 C1738.42635573 360.26599543 1739.58641894 362.36354059 1740.75142783 364.45832539 C1779.90444482 434.95665856 1803.26140601 513.14651954 1794.24190634 872.1675539 C1778.96137654 925.17634378 1757.9900277 975.64134716 1729.96675986 1023.24934101 C1729.41020713 1024.19615742 1728.85365439 1025.14297382 1728.28023642 1026.11848164 C1712.4726909 1052.86416334 1694.60449095 1078.18519035 1674.96675986 1102.24934101 C1673.79886924 1103.69180195 1673.79886924 1103.69180195 1672.60738486 1105.16340351 C1667.30442129 1111.68868137 1661.89065334 1118.11739934 1656.43892783 1124.51838398 C1654.90425863 1126.32282919 1653.37492565 1128.1317162 1651.84566611 1129.94074726 C1642.69559456 1140.73106018 1642.69559456 1140.73106018 1637.63594931 1145.579175 C1635.99710491 1147.2189782 1634.5099195 1148.92065303 1633.01363486 1150.69074726 C1628.45405642 1155.93393236 1623.54441266 1160.82174306 1618.62423056 1165.7222414 C1617.0321702 1167.30894047 1615.44552996 1168.90091843 1613.85933799 1170.49348164 C1608.95900546 1175.39701852 1604.02087933 1180.20573081 1598.748254 1184.71296406 C1595.79757156 1187.25765977 1592.98812013 1189.95123523 1590.15425986 1192.62434101 C1585.18357031 1197.27573279 1580.10454794 1201.70084152 1574.78707236 1205.95637226 C1572.16986606 1208.08421173 1569.62165862 1210.26980904 1567.07979697 1212.48591328 C1559.29871474 1219.26143354 1551.19409558 1225.53548748 1542.95504111 1231.74152851 C1541.14448289 1233.1145648 1539.34884973 1234.50380442 1537.56050986 1235.90559101 C1529.90221172 1241.90515781 1522.00992236 1247.47652438 1513.94576377 1252.91438007 C1512.07796573 1254.17432575 1510.21543108 1255.44171798 1508.35347861 1256.71027851 C1446.3866644 1298.70698666 1377.67416779 1329.50089968 1304.96675986 1347.24934101 C1303.8723458 1347.5193996 1302.77793174 1347.7894582 1301.65035361 1348.06770039 C1287.85901067 1351.4284067 1273.9650021 1354.05589439 1259.96675986 1356.37434101 C1258.93118445 1356.54911976 1258.93118445 1356.54911976 1257.87468833 1356.72742939 C1254.20477125 1357.34131438 1250.53198311 1357.90487414 1246.84638709 1358.41659164 C1243.87084495 1358.82986291 1240.90216432 1359.25979408 1237.9365651 1359.73969758 C1207.16527025 1364.66401491 1176.01671138 1363.75166256 1144.95686556 1363.59977069 C1136.2119204 1363.55779822 1127.46695812 1363.54009918 1118.72193701 1363.52193834 C1096.98440543 1363.47544128 1075.24711636 1363.38475016 1053.50975166 1363.28999599 C1042.77455049 1363.24353517 1032.03932925 1363.20283088 1021.30410366 1363.16248252 C959.25976858 1362.92888826 897.21580834 1362.63038487 835.17185007 1362.31338978 C816.20295352 1362.21650986 797.23404878 1362.12138942 778.26513785 1362.0273695 C776.88255142 1362.02051457 775.49996498 1362.0136594 774.11737855 1362.00680402 C768.55636456 1361.97923204 762.99535053 1361.95166757 757.43433645 1361.92411352 C741.91938233 1361.84723379 726.40442958 1361.77007887 710.88947791 1361.69270706 C710.18456001 1361.68919175 709.4796421 1361.68567644 708.75336305 1361.6820546 C686.47448744 1361.57093355 664.1956181 1361.4586032 641.91675299 1361.34539604 C641.19968364 1361.3417525 640.48261428 1361.33810897 639.74381555 1361.33435502 C628.11315419 1361.275254 616.48249317 1361.21608815 604.85183216 1361.15691736 C558.50620807 1360.92113915 512.16056594 1360.68930668 465.81490439 1360.46101093 C454.06022365 1360.40310484 442.30554295 1360.34519201 430.55086249 1360.28722954 C429.8265599 1360.2836582 429.1022573 1360.28008686 428.35600614 1360.27640729 C405.99412704 1360.16613653 383.63225265 1360.05495053 361.27038306 1359.9427681 C360.21605503 1359.9374789 360.21605503 1359.9374789 359.14042745 1359.93208284 C343.70648813 1359.85464528 328.27255002 1359.77696915 312.83861298 1359.69907939 C307.31789264 1359.67121882 301.79717225 1359.64336884 296.27645184 1359.61552108 C294.90390309 1359.60859709 293.53135435 1359.60167209 292.15880561 1359.59474607 C271.80973399 1359.49206367 251.46065517 1359.39093535 231.11157032 1359.2909104 C230.44964278 1359.28765669 229.78771524 1359.28440299 229.10572928 1359.28105068 C228.44510194 1359.27780337 227.78447461 1359.27455606 227.10382826 1359.27121034 C204.69544881 1359.16103854 182.28708506 1359.04804459 159.87873527 1358.93199343 C148.14463387 1358.87128782 136.41052967 1358.81169483 124.67640609 1358.75542355 C99.89833871 1358.63606274 75.12056229 1358.49945699 50.34295492 1358.30542305 C45.56251704 1358.2682006 40.78207692 1358.23479585 36.0015863 1358.20514255 C28.60345193 1358.15914402 21.20589071 1358.09458511 13.80814585 1358.00286036 C11.51996741 1357.97712543 9.23170519 1357.95783922 6.943414 1357.94574273 C3.93234638 1357.92850688 0.9226372 1357.88724587 -2.08806115 1357.83858871 C-3.36569879 1357.83947146 -3.36569879 1357.83947146 -4.66914728 1357.84037205 C-9.69757294 1357.72456198 -12.39196209 1357.04464653 -16.03324014 1353.24934101 C-17.66875494 1349.97831142 -17.17179939 1346.36245877 -17.1635645 1342.7676096 C-17.16538305 1341.86605808 -17.16720159 1340.96450657 -17.16907525 1340.03563531 C-17.17380252 1336.94598522 -17.17100967 1333.85638783 -17.16811258 1330.76673603 C-17.16936426 1328.50212031 -17.17093232 1326.23750474 -17.17278522 1323.97288942 C-17.17611866 1317.57100495 -17.17179166 1311.16914063 -17.1655996 1304.76725954 C-17.16160721 1300.56191142 -17.15978448 1296.3565637 -17.15811414 1292.15121412 C-17.11693576 1200.11937063 -16.56789832 1108.08801095 -16.10744507 1016.05756158 C-16.00729861 996.03920171 -15.90871068 976.02083464 -15.81126863 956.00246143 C-15.80787734 955.30589043 -15.80448605 954.60931944 -15.80099199 953.89164022 C-15.76998349 947.52244604 -15.73898927 941.15325179 -15.70801265 934.78405745 C-15.63106188 918.96218294 -15.55390631 903.14030943 -15.47660619 887.31843662 C-15.47309088 886.59889021 -15.46957557 885.8793438 -15.46595373 885.13799295 C-15.29626477 850.40833648 -15.12419525 815.67869187 -14.95194131 780.94904804 C-14.71449938 733.0756842 -14.47868027 685.20231277 -14.24491006 637.32893085 C-14.2376503 635.84230892 -14.23039048 634.35568698 -14.22313062 632.86906504 C-14.16524114 621.01474643 -14.10735873 609.16042779 -14.04948931 597.30610908 C-13.79585218 545.34991547 -13.54100918 493.39372776 -13.28581152 441.43754179 C-13.25196928 434.54748652 -13.21813312 427.65743122 -13.18431517 420.76737583 C-13.11195076 406.02412167 -13.03953101 391.28086779 -12.96697161 376.5376146 C-12.93476223 369.99283262 -12.90257997 363.44805051 -12.87046532 356.90326807 C-12.74107527 330.5387607 -12.61028878 304.17426305 -12.47234081 277.80979891 C-12.42239121 268.25771946 -12.37280332 258.70563812 -12.3233045 249.15355633 C-12.31112667 246.80497357 -12.29892815 244.45639091 -12.28670869 242.10780837 C-12.11886842 209.8284769 -11.98255445 177.54919117 -11.87654045 145.26959864 C-11.82979114 131.18415089 -11.77330096 117.09874046 -11.71570651 103.0133334 C-11.67108114 91.96861447 -11.63559879 80.9239432 -11.61255485 69.87915784 C-11.59652682 62.54173494 -11.57008763 55.20439881 -11.53509034 47.86704196 C-11.51551678 43.68695597 -11.50085188 39.50700321 -11.49938057 35.32686836 C-11.49800149 31.5290095 -11.48308837 27.73145858 -11.45720873 23.93368985 C-11.4470632 21.9198014 -11.45162274 19.90585541 -11.45671788 17.89194785 C-11.44590462 16.69796508 -11.43509137 15.50398232 -11.42395043 14.27381825 C-11.42088889 13.24729107 -11.41782735 12.22076389 -11.41467303 11.16312982 C-10.95518709 7.65308903 -9.86059479 5.26929671 -8.03324014 2.24934101 C-4.74753557 0.0588713 -3.80880025 -0.00058354 0 0 Z M9.96675986 21.24934101 C9.27128641 91.44111189 8.81284966 161.63319012 8.46675986 231.82746601 C8.4616778 232.85793403 8.45659575 233.88840205 8.45135969 234.95009637 C8.31804548 262.01373321 8.18943495 289.0773919 8.06251496 316.1410594 C7.98717423 332.20108356 7.91072407 348.26110217 7.83370322 364.32111835 C7.33464592 468.43541258 6.85580107 572.54970005 6.41552085 694.61378193 C6.16483041 764.91073158 5.84802882 835.20718222 5.49737424 905.50370026 C5.46283102 912.43028878 5.42842329 919.35687797 5.39404029 926.28346729 C5.18176239 969.03979146 4.96904612 1011.79611293 4.7467578 1054.55238639 C4.6503442 1073.09941261 4.55597288 1091.6464484 4.46335292 1110.19349396 C4.41276876 1120.30711878 4.36123841 1130.4207364 4.30672377 1140.53434086 C3.95396285 1206.10636509 3.91982013 1271.67653552 3.96675986 1337.24934101 C93.32305824 1337.71851714 182.6793625 1338.18658054 278.2253353 1338.67939472 C279.60578801 1338.68651461 280.98624072 1338.69363449 282.36669343 1338.70075438 C311.38679252 1338.85042497 340.40689277 1338.99987198 369.42699433 1339.14906307 C384.01970952 1339.22408382 398.6124245 1339.29914722 413.20513926 1339.37425107 C415.40544814 1339.38557508 417.60575703 1339.39689787 419.80606591 1339.40822061 C453.41098934 1339.58116144 487.01590793 1339.75497755 520.62081259 1339.93153095 C521.69227111 1339.93716015 521.69227111 1339.93716015 522.78537525 1339.94290307 C534.29098221 1340.0033566 545.79658875 1340.06388852 557.30219524 1340.12443095 C590.72629473 1340.30030714 624.15039715 1340.47553751 657.57451934 1340.64705372 C658.27205129 1340.65063339 658.96958324 1340.65421306 659.68825252 1340.6579012 C675.05568297 1340.73675518 690.42311491 1340.81531557 705.79054825 1340.89360361 C711.98781635 1340.92518015 718.18508424 1340.95679836 724.38235205 1340.98843098 C725.39931171 1340.99362032 725.39931171 1340.99362032 726.43681601 1340.99891449 C745.79898585 1341.09773415 765.16114137 1341.19896699 784.52328655 1341.30252722 C850.71500555 1341.65647493 916.90673191 1341.97684147 983.09899488 1342.21069997 C990.44829738 1342.23667818 997.79759662 1342.2634149 1005.14689432 1342.29071738 C1033.61290899 1342.39618049 1062.07886697 1342.4849122 1090.54504768 1342.52999112 C1092.9046578 1342.53375959 1095.26426788 1342.53754622 1097.62387794 1342.54135132 C1098.78182995 1342.54321638 1099.93978197 1342.54508144 1101.13282343 1342.54700303 C1109.11845299 1342.5608792 1117.10400891 1342.58497896 1125.08959669 1342.6139698 C1134.69999618 1342.64874243 1144.31029577 1342.6690864 1153.92076018 1342.67119699 C1158.77455524 1342.67261029 1163.62811257 1342.67990806 1168.48184547 1342.70551765 C1224.60422193 1342.98799772 1280.48366531 1334.42565744 1333.96675986 1317.24934101 C1335.15930381 1316.87051777 1336.35184775 1316.49169453 1337.58052939 1316.10139179 C1383.4685693 1301.45346379 1426.65620272 1281.99647994 1467.96675986 1257.24934101 C1468.98141318 1256.6438039 1469.9960665 1256.03826679 1471.04146689 1255.41438007 C1482.2729286 1248.69932036 1493.34795432 1241.90605869 1503.96675986 1234.24934101 C1505.12229136 1233.43061766 1506.27857301 1232.61295227 1507.43550986 1231.79621601 C1523.94234924 1220.11801493 1539.96105469 1207.83976805 1555.30611533 1194.67170429 C1557.02299953 1193.20117101 1558.74624668 1191.73837178 1560.47066611 1190.27668476 C1567.12619054 1184.62232075 1573.65556172 1178.86277444 1580.05269736 1172.91730976 C1582.23491535 1170.91938096 1584.43741504 1168.97537555 1586.6779415 1167.04523945 C1590.77777587 1163.46208814 1594.65893487 1159.7021961 1598.50191611 1155.84699726 C1599.18426825 1155.16560184 1599.8666204 1154.48420643 1600.56964988 1153.78216267 C1602.00020423 1152.3522836 1603.42951753 1150.9211619 1604.857629 1149.48884296 C1607.0237506 1147.3173639 1609.1951616 1145.15127776 1611.36715049 1142.98566914 C1612.76655973 1141.58559899 1614.1656587 1140.18521863 1615.56441611 1138.78449726 C1616.20315161 1138.14778599 1616.84188712 1137.51107471 1617.49997824 1136.85506916 C1621.31134308 1133.02414749 1624.93852466 1129.07928106 1628.46762961 1124.98658466 C1630.38450325 1122.76524561 1632.36214691 1120.6022797 1634.34175986 1118.43684101 C1638.23600604 1114.12159525 1641.93330711 1109.67842346 1645.58785361 1105.15949726 C1647.69612623 1102.58041171 1649.8396436 1100.04015085 1652.00557822 1097.50983906 C1657.90800976 1090.60804313 1663.52017629 1083.51583928 1668.96675986 1076.24934101 C1669.76170859 1075.19335712 1669.76170859 1075.19335712 1670.57271689 1074.11604023 C1679.11235821 1062.74854167 1687.22408177 1051.17238396 1694.96675986 1039.24934101 C1695.51300009 1038.4159621 1696.05924033 1037.5825832 1696.6220333 1036.72395039 C1729.15928257 987.01787306 1752.80364011 933.63454116 1770.96675986 877.24934101 C1771.24213584 876.40581074 1771.51751181 875.56228046 1771.80123252 874.69318867 C1799.55897756 789.12494396 1803.1352031 693.67325281 1733.36324424 396.09357929 C1732.05627574 393.43165918 1730.76724052 390.76182935 1729.48238486 388.08918476 C1719.74556702 368.01046972 1708.09726001 348.95940962 1695.96675986 330.24934101 C1695.27324424 329.17941914 1694.57972861 328.10949726 1693.86519736 327.00715351 C1685.48017096 314.27433564 1676.64058864 301.84213503 1667.22310752 289.85285664 C1665.91519059 288.18352154 1664.61813611 286.506137 1663.32222861 284.82746601 C1657.26399656 277.00888046 1650.94993644 269.45338335 1644.46529502 261.98615742 C1642.99851387 260.2861442 1641.5484357 258.57339166 1640.10347861 256.85480976 C1627.63998168 242.06011826 1614.12052123 228.31219251 1600.46675986 214.62434101 C1599.85848349 214.01338581 1599.25020713 213.40243061 1598.62349814 212.77296162 C1592.24649107 206.37465483 1585.85272117 200.10435911 1578.96675986 194.24934101 C1577.19105765 192.62966285 1575.41967679 191.00522383 1573.65425986 189.37434101 C1569.16177348 185.27734174 1564.54768704 181.38813675 1559.81441611 177.57355976 C1557.3678934 175.57674081 1554.97110477 173.53420358 1552.58467978 171.46638203 C1543.42490393 163.56318192 1533.70506351 156.41757849 1523.96675986 149.24934101 C1523.19638388 148.67893085 1522.42600791 148.1085207 1521.6322872 147.52082539 C1472.23678072 110.99197375 1417.62374883 83.226965 1359.98458213 62.3460207 C1358.00055176 61.62502204 1356.0191613 60.89670942 1354.04073447 60.16047382 C1348.46520335 58.09363628 1342.89985432 56.27747301 1337.15425986 54.74934101 C1335.57597501 54.3215449 1333.99785117 53.89315434 1332.41988486 53.46418476 C1331.65740439 53.25777363 1330.89492392 53.0513625 1330.10933799 52.83869648 C1327.19544976 52.037178 1324.30139762 51.17170579 1321.40425986 50.31184101 C1271.18756875 35.96421498 1218.40099756 28.07888029 1166.20249289 27.86370564 C1163.81420864 27.84697325 1161.42592993 27.829433 1159.0376569 27.81116778 C1153.22264323 27.7687456 1147.40762504 27.73470441 1141.59253657 27.70440923 C1134.60541768 27.66750977 1127.61838303 27.61972003 1120.63133352 27.57165395 C1107.70548986 27.48302943 1094.7796069 27.40288939 1081.85367888 27.32766247 C1068.97669991 27.25268775 1056.09975462 27.17375193 1043.22283095 27.08979702 C1042.01155842 27.08190285 1042.01155842 27.08190285 1040.77581574 27.07384919 C1036.67032632 27.04707245 1032.56483735 27.02022693 1028.45934855 26.99335475 C999.3664041 26.80304932 970.27341237 26.62119845 941.18038291 26.44440937 C913.2962419 26.27494396 885.41212632 26.10201848 857.52803916 25.92390156 C856.67771507 25.91847145 855.82739097 25.91304134 854.95129949 25.90744669 C845.54215782 25.84735551 836.13301686 25.78715384 826.7238763 25.72688949 C809.76939334 25.61829864 792.81490802 25.51007804 775.86042136 25.40206623 C775.03134035 25.39678306 774.20225935 25.3914999 773.34805467 25.38605664 C749.39056118 25.23340782 725.43305413 25.08310656 701.47553041 24.9352803 C641.14689289 24.56301473 580.81832737 24.18247716 520.48993293 23.7724397 C515.07305403 23.73563934 509.65617322 23.69912968 504.23929149 23.66274726 C468.56106377 23.42287778 432.88336442 23.14911038 397.20592839 22.80860043 C390.32428837 22.74300022 383.44263067 22.67935317 376.56097049 22.61590958 C374.89490631 22.60054248 374.89490631 22.60054248 373.19518426 22.58486494 C360.78573137 22.47053406 348.37625322 22.35919234 335.96675986 22.24934101 C334.6861518 22.23796856 333.40554374 22.22659611 332.08612937 22.21487904 C310.50478782 22.02369227 288.92335726 21.84666054 267.34175986 21.68684101 C266.59811336 21.6813167 265.85446687 21.6757924 265.08828562 21.67010069 C180.04898324 21.04026634 95.0077812 21.1504995 9.96675986 21.24934101 Z " fill="#010000" transform="translate(1003.0332401394844,458.75065898895264)"/>
</svg>
