<?xml version="1.0" encoding="UTF-8"?>
<svg version="1.1" xmlns="http://www.w3.org/2000/svg" width="4000" height="2250">
<path d="M0 0 C2.25574114 -0.00237917 4.51146152 -0.00768927 6.76719666 -0.01329041 C34.32279147 -0.06328276 61.67194136 1.26087697 89.05027771 4.56007385 C89.94612579 4.66611938 90.84197388 4.77216492 91.76496887 4.88142395 C119.83369965 8.22571785 147.31901974 13.44187948 174.73777771 20.31007385 C175.80802185 20.57368713 176.87826599 20.83730042 177.98094177 21.10890198 C232.12642987 34.54843526 285.17526533 55.86367956 333.34910583 83.92628479 C335.39010635 85.10866326 337.44012593 86.26877622 339.50340271 87.41163635 C363.89552409 100.99492669 386.75029906 117.15676072 408.73777771 134.31007385 C409.97456721 135.26735021 411.21154089 136.22438864 412.44871521 137.1811676 C419.83704333 142.9168832 427.02557724 148.85554171 434.12889099 154.93946838 C435.73913262 156.31122809 437.35951906 157.6699081 438.98387146 159.0249176 C446.20468177 165.05761681 453.18214647 171.30229753 460.04881287 177.73439026 C461.75341058 179.32465821 463.46878952 180.90249745 465.18699646 182.4780426 C472.69711141 189.38812788 480.01045478 196.47962178 487.23777771 203.68507385 C488.4928009 204.93320862 488.4928009 204.93320862 489.7731781 206.20655823 C494.02902456 210.47307953 498.12473432 214.81122788 502.0532074 219.38038635 C504.97118246 222.72294793 508.05470461 225.90874353 511.11277771 229.12257385 C516.1567294 234.46370104 521.00210467 239.8765702 525.58152771 245.6264801 C527.54579567 248.07113968 529.56539424 250.4577866 531.61155701 252.83399963 C538.10687522 260.39055398 544.15801432 268.25297378 550.14988708 276.21192932 C551.61872714 278.15276749 553.10417133 280.07918871 554.59715271 282.0014801 C612.02542698 356.45512695 651.68951875 445.823902 676.05027771 571.31007385 C676.2261441 572.49180176 676.2261441 572.49180176 676.40556335 573.69740295 C677.26759922 579.55850943 678.01171908 585.43077991 678.73777771 591.31007385 C678.86502417 592.31339209 678.99227062 593.31671033 679.12337303 594.35043216 C681.73108535 615.41148589 682.09925093 636.12787718 681.90567875 657.31996089 C681.86474825 662.21912807 681.84313934 667.11839284 681.81889343 672.01766586 C681.77313029 680.76679384 681.71587267 689.51578816 681.65138245 698.26479721 C681.55299583 711.65211657 681.47421817 725.03950614 681.39976776 738.42697765 C681.3628658 745.05880989 681.32530612 751.69063838 681.28756714 758.3224659 C681.28371611 759.00014267 681.27986509 759.67781945 681.27589736 760.37603189 C681.21479333 771.11088544 681.14997125 781.84571321 681.08337402 792.58053398 C680.78226316 841.19914232 680.53269762 889.8179182 680.29916996 938.43689507 C680.27485394 943.4963883 680.25046331 948.55588118 680.22607803 953.61537409 C680.18641059 961.84759408 680.1467604 970.07981416 680.10713768 978.31203437 C680.1021801 979.34202858 680.09722253 980.3720228 680.09211472 981.43322896 C680.06182539 987.72749279 680.03158389 994.02175686 680.00136805 1000.31602105 C679.78261781 1045.87372349 679.55528711 1091.43138223 679.32690788 1136.98903727 C679.26551086 1149.23676953 679.20420344 1161.48450223 679.14289856 1173.73223495 C679.12609563 1177.08909713 679.10929254 1180.44595929 679.09248932 1183.80282146 C679.08127093 1186.04397921 679.07005271 1188.28513695 679.05883465 1190.52629469 C679.02511854 1197.2619599 678.99139161 1203.99762505 678.9576574 1210.73329016 C678.79355343 1243.50090628 678.63019035 1276.26852605 678.4672699 1309.03614807 C678.26779492 1349.15532258 678.06788847 1389.2744949 677.86732769 1429.393664 C677.84569935 1433.72027882 677.8240718 1438.04689363 677.80244446 1442.37350845 C677.79712578 1443.43744753 677.7918071 1444.5013866 677.78632725 1445.59756625 C677.71356585 1460.15379844 677.64103776 1474.71003176 677.56870375 1489.26626607 C677.52916715 1497.22071103 677.48956825 1505.17515567 677.44996826 1513.12960031 C677.43530295 1516.07634266 677.42065168 1519.02308509 677.40600216 1521.96982752 C677.30173215 1542.93530524 677.19575233 1563.90077199 677.08502197 1584.86621666 C677.075229 1586.72386198 677.06543919 1588.58150731 677.05565256 1590.43915267 C677.04839103 1591.81746983 677.04839103 1591.81746983 677.0409828 1593.22363179 C677.02144673 1596.93263586 677.00191964 1600.64163997 676.98239203 1604.35064407 C676.96778557 1607.12195511 676.95313197 1609.89326589 676.93847644 1612.66457666 C676.81377007 1636.28917381 676.70286603 1659.91379038 676.60619706 1683.53851914 C676.53835844 1700.09332647 676.46415462 1716.64809783 676.38549834 1733.20285726 C676.33452251 1743.99769406 676.28953752 1754.79252213 676.25245808 1765.58741573 C676.22695329 1772.86280056 676.1943647 1780.13813145 676.15610059 1787.41346029 C676.13429587 1791.60388257 676.11578967 1795.79425385 676.10590863 1799.98472264 C676.09681066 1803.82090029 676.07867614 1807.6569237 676.05327422 1811.49302705 C676.04569972 1812.88123871 676.04148623 1814.26947353 676.04093885 1815.65770574 C676.03971784 1817.54066196 676.02517305 1819.42359553 676.00994205 1821.30649054 C676.00562894 1822.35279016 676.00131582 1823.39908979 675.99687201 1824.47709546 C675.5973307 1828.84574383 674.62024941 1831.35041806 671.63784168 1834.59367771 C667.84981765 1836.83561096 664.6107902 1836.84618799 660.33675414 1836.77241218 C659.0677212 1836.77451823 659.0677212 1836.77451823 657.77305123 1836.77666682 C654.93142942 1836.77649125 652.09082298 1836.74761449 649.24935627 1836.71894646 C647.20587026 1836.7129671 645.16237841 1836.70876356 643.11888527 1836.70619543 C637.51606576 1836.69409498 631.9136456 1836.65704244 626.31097376 1836.61597205 C620.28599687 1836.57618893 614.2609529 1836.55952417 608.23588163 1836.54029262 C597.96190521 1836.50457553 587.68807525 1836.45501009 577.4142077 1836.39593267 C563.56671718 1836.31662333 549.71923954 1836.26178371 535.87160047 1836.21641641 C507.0312302 1836.12152235 478.19106543 1835.99036632 449.35087742 1835.85251807 C439.04913492 1835.80331593 428.74738684 1835.75542202 418.44563484 1835.70825195 C417.69050066 1835.70479327 416.93536649 1835.70133458 416.15734946 1835.69777109 C413.07924121 1835.68367491 410.00113294 1835.66958428 406.92302463 1835.65550121 C370.22588279 1835.48758273 333.52876624 1835.31444631 296.8316536 1835.1402809 C284.94110466 1835.08385723 273.05055465 1835.02766526 261.1600039 1834.9716239 C259.89350777 1834.96565471 259.89350777 1834.96565471 258.60142587 1834.95956493 C255.18245296 1834.94345158 251.76348004 1834.92733957 248.34450712 1834.91122915 C189.99820543 1834.63629179 131.65190964 1834.36013015 73.3056332 1834.07988225 C68.75733722 1834.0580366 64.2090412 1834.03619745 59.66074519 1834.01435768 C58.75871135 1834.01002623 57.85667751 1834.00569479 56.92730931 1834.00123208 C47.79168828 1833.95736421 38.65606722 1833.91350117 29.52044612 1833.86964666 C27.68903883 1833.86085487 25.85763154 1833.85206241 24.02622426 1833.84326927 C-35.06101443 1833.55957484 -94.14828374 1833.28317518 -153.23557978 1833.01170281 C-195.8756632 1832.8157921 -238.51574143 1832.61900755 -281.15578747 1832.41509819 C-282.03174661 1832.41090966 -282.90770575 1832.40672113 -283.81020911 1832.40240567 C-303.03232962 1832.31047108 -322.25444741 1832.21797737 -341.47656271 1832.1249607 C-349.20663632 1832.08756216 -356.93671026 1832.05023225 -364.66678429 1832.01292038 C-365.51258776 1832.00883576 -366.35839123 1832.00475115 -367.22982511 1832.00054275 C-394.45180761 1831.86911032 -421.67381364 1831.74367956 -448.89583841 1831.62134282 C-476.23899105 1831.4984259 -503.58210688 1831.36929665 -530.92518896 1831.23153203 C-534.69732124 1831.21252748 -538.46945386 1831.19359204 -542.24158669 1831.17469788 C-542.98098866 1831.17099164 -543.72039064 1831.16728541 -544.48219874 1831.16346687 C-556.20709041 1831.10487711 -567.9320018 1831.05292188 -579.65693617 1831.00370801 C-591.171747 1830.95523948 -602.68649966 1830.89962631 -614.20124243 1830.83682018 C-620.36358599 1830.80341298 -626.52590161 1830.77319461 -632.68829874 1830.75156917 C-638.28566234 1830.73186539 -643.88290353 1830.70320446 -649.4801853 1830.6671902 C-651.49939545 1830.65580372 -653.51862777 1830.64776801 -655.53786525 1830.64337388 C-658.26795443 1830.63695847 -660.99770324 1830.61850196 -663.72770864 1830.59694302 C-664.51353346 1830.59800526 -665.29935829 1830.59906749 -666.10899599 1830.60016191 C-671.70909698 1830.53689565 -676.26370235 1830.0118805 -680.60753918 1826.312958 C-683.00850568 1821.95573444 -682.80023943 1818.16435503 -682.7371521 1813.26392746 C-682.73980995 1812.23520475 -682.74246779 1811.20648205 -682.74520618 1810.14658593 C-682.74907505 1806.6641404 -682.72393492 1803.18249972 -682.69898987 1799.70014954 C-682.69534359 1797.17300296 -682.69337857 1794.64585349 -682.69294548 1792.11870432 C-682.68688118 1785.8387508 -682.66137243 1779.55911454 -682.62756284 1773.27925673 C-682.59974105 1767.99844241 -682.58128136 1762.71766182 -682.56868935 1757.43678999 C-682.565935 1756.2866973 -682.565935 1756.2866973 -682.563125 1755.11337041 C-682.55939503 1753.54587129 -682.55567443 1751.97837214 -682.55196298 1750.41087297 C-682.50315472 1730.55739525 -682.40192261 1710.7042477 -682.29258823 1690.85102534 C-682.26202208 1685.29646315 -682.23260249 1679.74189518 -682.2032547 1674.18732643 C-681.91039932 1619.00974373 -681.52809684 1563.83284904 -681.12604488 1508.65596907 C-680.94489145 1483.79246974 -680.77059953 1458.92892405 -680.59720314 1434.06536958 C-680.51152651 1421.78124264 -680.42554221 1409.49711785 -680.33947754 1397.21299362 C-680.33087632 1395.9852764 -680.3222751 1394.75755919 -680.31341324 1393.49263842 C-680.11071073 1364.56946332 -679.90500721 1335.6463097 -679.69874573 1306.72315979 C-679.68977667 1305.46530432 -679.68080762 1304.20744884 -679.67156677 1302.91147653 C-679.5170524 1281.24245364 -679.36232398 1259.57343227 -679.2075367 1237.90441132 C-679.08018237 1220.07576551 -678.95288638 1202.24711929 -678.82569885 1184.41847229 C-678.81673452 1183.16204869 -678.80777018 1181.90562509 -678.7985342 1180.61112805 C-678.59245835 1151.72553845 -678.38731824 1122.83994259 -678.18496704 1093.95432663 C-678.17637957 1092.72851456 -678.1677921 1091.5027025 -678.15894441 1090.23974461 C-678.07304874 1077.97567663 -677.98731127 1065.71160756 -677.90180569 1053.44753685 C-677.7289385 1028.65771615 -677.55417237 1003.8679123 -677.37339783 979.07814789 C-677.18901226 953.78024172 -677.00856085 928.48231066 -676.8347415 903.18432953 C-676.82027926 901.08042674 -676.80578772 898.97652414 -676.79126653 896.87262175 C-676.4817057 852.0145385 -676.21442853 807.15752656 -676.21681213 762.29823303 C-676.2168511 761.03220047 -676.2168511 761.03220047 -676.21689086 759.74059149 C-676.21800478 743.29120513 -676.23199985 726.84187397 -676.2728982 710.39253652 C-676.28638854 704.93234774 -676.29569833 699.47215247 -676.30522561 694.01195556 C-676.31329712 690.41337845 -676.32737167 686.81486515 -676.34203911 683.21631002 C-676.40398898 660.36195963 -675.88677573 637.46962737 -674.01222229 614.68507385 C-673.94942078 613.90633911 -673.88661926 613.12760437 -673.82191467 612.32527161 C-666.92069164 527.97018133 -643.18301473 446.86828818 -605.26222229 371.31007385 C-604.67231506 370.13299866 -604.08240784 368.95592346 -603.47462463 367.74317932 C-593.52462381 348.00029799 -582.37697228 329.32583202 -570.13722229 310.93507385 C-569.7216507 310.31049286 -569.3060791 309.68591187 -568.87791443 309.04240417 C-560.83748416 296.98444083 -552.54685587 285.10593142 -543.69972229 273.62257385 C-543.14945374 272.90617737 -542.59918518 272.18978088 -542.03224182 271.45167542 C-534.54712832 261.74397493 -526.67682934 252.36670721 -518.72999573 243.03663635 C-517.20775153 241.24599913 -515.69188285 239.45008822 -514.17628479 237.65382385 C-509.36410398 231.97034209 -504.55179989 226.40767732 -499.18460083 221.23339844 C-497.35280162 219.40069776 -495.66344551 217.51013892 -493.98072815 215.54078674 C-490.49681536 211.5309068 -486.83980569 207.74250246 -483.07862854 203.9936676 C-482.41942917 203.33351151 -481.7602298 202.67335541 -481.08105469 201.99319458 C-479.69825394 200.60971879 -478.31421153 199.22748302 -476.92897034 197.84645081 C-474.82991886 195.75275716 -472.73626289 193.65377511 -470.64308167 191.55421448 C-469.28858443 190.20037815 -467.93377698 188.8468521 -466.57862854 187.4936676 C-465.96379105 186.87680588 -465.34895355 186.25994415 -464.71548462 185.62438965 C-460.95921096 181.88793434 -457.08624245 178.33820823 -453.07124329 174.88098145 C-450.29625671 172.47125404 -447.62990156 169.94901094 -444.94972229 167.43507385 C-440.13466786 162.95587226 -435.19690385 158.70237615 -430.06690979 154.58351135 C-427.51923333 152.51840313 -425.019514 150.41060488 -422.52906799 148.27760315 C-350.06179417 86.26285805 -261.16915678 43.17230378 -75.37825012 3.51582336 C-73.2649718 3.3103412 -71.15405783 3.08828489 -69.04298401 2.86134338 C-46.05886889 0.41592481 -23.09250513 0.02075125 0 0 Z " fill="#F79220" transform="translate(1896.262222290039,224.68992614746094)"/>
<path d="M0 0 C2.25574114 -0.00237917 4.51146152 -0.00768927 6.76719666 -0.01329041 C34.32279147 -0.06328276 61.67194136 1.26087697 89.05027771 4.56007385 C89.94612579 4.66611938 90.84197388 4.77216492 91.76496887 4.88142395 C119.83369965 8.22571785 147.31901974 13.44187948 174.73777771 20.31007385 C175.80802185 20.57368713 176.87826599 20.83730042 177.98094177 21.10890198 C232.12642987 34.54843526 285.17526533 55.86367956 333.34910583 83.92628479 C335.39010635 85.10866326 337.44012593 86.26877622 339.50340271 87.41163635 C363.89552409 100.99492669 386.75029906 117.15676072 408.73777771 134.31007385 C409.97456721 135.26735021 411.21154089 136.22438864 412.44871521 137.1811676 C419.83704333 142.9168832 427.02557724 148.85554171 434.12889099 154.93946838 C435.73913262 156.31122809 437.35951906 157.6699081 438.98387146 159.0249176 C446.20468177 165.05761681 453.18214647 171.30229753 460.04881287 177.73439026 C461.75341058 179.32465821 463.46878952 180.90249745 465.18699646 182.4780426 C472.69711141 189.38812788 480.01045478 196.47962178 487.23777771 203.68507385 C488.4928009 204.93320862 488.4928009 204.93320862 489.7731781 206.20655823 C494.02902456 210.47307953 498.12473432 214.81122788 502.0532074 219.38038635 C504.97118246 222.72294793 508.05470461 225.90874353 511.11277771 229.12257385 C516.1567294 234.46370104 521.00210467 239.8765702 525.58152771 245.6264801 C527.54579567 248.07113968 529.56539424 250.4577866 531.61155701 252.83399963 C538.10687522 260.39055398 544.15801432 268.25297378 550.14988708 276.21192932 C551.61872714 278.15276749 553.10417133 280.07918871 554.59715271 282.0014801 C612.02542698 356.45512695 651.68951875 445.823902 676.05027771 571.31007385 C676.2261441 572.49180176 676.2261441 572.49180176 676.40556335 573.69740295 C677.26759922 579.55850943 678.01171908 585.43077991 678.73777771 591.31007385 C678.86502417 592.31339209 678.99227062 593.31671033 679.12337303 594.35043216 C681.73108535 615.41148589 682.09925093 636.12787718 681.90567875 657.31996089 C681.86474825 662.21912807 681.84313934 667.11839284 681.81889343 672.01766586 C681.77313029 680.76679384 681.71587267 689.51578816 681.65138245 698.26479721 C681.55299583 711.65211657 681.47421817 725.03950614 681.39976776 738.42697765 C681.3628658 745.05880989 681.32530612 751.69063838 681.28756714 758.3224659 C681.28371611 759.00014267 681.27986509 759.67781945 681.27589736 760.37603189 C681.21479333 771.11088544 681.14997125 781.84571321 681.08337402 792.58053398 C680.78226316 841.19914232 680.53269762 889.8179182 680.29916996 938.43689507 C680.27485394 943.4963883 680.25046331 948.55588118 680.22607803 953.61537409 C680.18641059 961.84759408 680.1467604 970.07981416 680.10713768 978.31203437 C680.1021801 979.34202858 680.09722253 980.3720228 680.09211472 981.43322896 C680.06182539 987.72749279 680.03158389 994.02175686 680.00136805 1000.31602105 C679.78261781 1045.87372349 679.55528711 1091.43138223 679.32690788 1136.98903727 C679.26551086 1149.23676953 679.20420344 1161.48450223 679.14289856 1173.73223495 C679.12609563 1177.08909713 679.10929254 1180.44595929 679.09248932 1183.80282146 C679.08127093 1186.04397921 679.07005271 1188.28513695 679.05883465 1190.52629469 C679.02511854 1197.2619599 678.99139161 1203.99762505 678.9576574 1210.73329016 C678.79355343 1243.50090628 678.63019035 1276.26852605 678.4672699 1309.03614807 C678.26779492 1349.15532258 678.06788847 1389.2744949 677.86732769 1429.393664 C677.84569935 1433.72027882 677.8240718 1438.04689363 677.80244446 1442.37350845 C677.79712578 1443.43744753 677.7918071 1444.5013866 677.78632725 1445.59756625 C677.71356585 1460.15379844 677.64103776 1474.71003176 677.56870375 1489.26626607 C677.52916715 1497.22071103 677.48956825 1505.17515567 677.44996826 1513.12960031 C677.43530295 1516.07634266 677.42065168 1519.02308509 677.40600216 1521.96982752 C677.30173215 1542.93530524 677.19575233 1563.90077199 677.08502197 1584.86621666 C677.075229 1586.72386198 677.06543919 1588.58150731 677.05565256 1590.43915267 C677.04839103 1591.81746983 677.04839103 1591.81746983 677.0409828 1593.22363179 C677.02144673 1596.93263586 677.00191964 1600.64163997 676.98239203 1604.35064407 C676.96778557 1607.12195511 676.95313197 1609.89326589 676.93847644 1612.66457666 C676.81377007 1636.28917381 676.70286603 1659.91379038 676.60619706 1683.53851914 C676.53835844 1700.09332647 676.46415462 1716.64809783 676.38549834 1733.20285726 C676.33452251 1743.99769406 676.28953752 1754.79252213 676.25245808 1765.58741573 C676.22695329 1772.86280056 676.1943647 1780.13813145 676.15610059 1787.41346029 C676.13429587 1791.60388257 676.11578967 1795.79425385 676.10590863 1799.98472264 C676.09681066 1803.82090029 676.07867614 1807.6569237 676.05327422 1811.49302705 C676.04569972 1812.88123871 676.04148623 1814.26947353 676.04093885 1815.65770574 C676.03971784 1817.54066196 676.02517305 1819.42359553 676.00994205 1821.30649054 C676.00562894 1822.35279016 676.00131582 1823.39908979 675.99687201 1824.47709546 C675.5973307 1828.84574383 674.62024941 1831.35041806 671.63784168 1834.59367771 C667.84981765 1836.83561096 664.6107902 1836.84618799 660.33675414 1836.77241218 C659.0677212 1836.77451823 659.0677212 1836.77451823 657.77305123 1836.77666682 C654.93142942 1836.77649125 652.09082298 1836.74761449 649.24935627 1836.71894646 C647.20587026 1836.7129671 645.16237841 1836.70876356 643.11888527 1836.70619543 C637.51606576 1836.69409498 631.9136456 1836.65704244 626.31097376 1836.61597205 C620.28599687 1836.57618893 614.2609529 1836.55952417 608.23588163 1836.54029262 C597.96190521 1836.50457553 587.68807525 1836.45501009 577.4142077 1836.39593267 C563.56671718 1836.31662333 549.71923954 1836.26178371 535.87160047 1836.21641641 C507.0312302 1836.12152235 478.19106543 1835.99036632 449.35087742 1835.85251807 C439.04913492 1835.80331593 428.74738684 1835.75542202 418.44563484 1835.70825195 C417.69050066 1835.70479327 416.93536649 1835.70133458 416.15734946 1835.69777109 C413.07924121 1835.68367491 410.00113294 1835.66958428 406.92302463 1835.65550121 C370.22588279 1835.48758273 333.52876624 1835.31444631 296.8316536 1835.1402809 C284.94110466 1835.08385723 273.05055465 1835.02766526 261.1600039 1834.9716239 C259.89350777 1834.96565471 259.89350777 1834.96565471 258.60142587 1834.95956493 C255.18245296 1834.94345158 251.76348004 1834.92733957 248.34450712 1834.91122915 C189.99820543 1834.63629179 131.65190964 1834.36013015 73.3056332 1834.07988225 C68.75733722 1834.0580366 64.2090412 1834.03619745 59.66074519 1834.01435768 C58.75871135 1834.01002623 57.85667751 1834.00569479 56.92730931 1834.00123208 C47.79168828 1833.95736421 38.65606722 1833.91350117 29.52044612 1833.86964666 C27.68903883 1833.86085487 25.85763154 1833.85206241 24.02622426 1833.84326927 C-35.06101443 1833.55957484 -94.14828374 1833.28317518 -153.23557978 1833.01170281 C-195.8756632 1832.8157921 -238.51574143 1832.61900755 -281.15578747 1832.41509819 C-282.03174661 1832.41090966 -282.90770575 1832.40672113 -283.81020911 1832.40240567 C-303.03232962 1832.31047108 -322.25444741 1832.21797737 -341.47656271 1832.1249607 C-349.20663632 1832.08756216 -356.93671026 1832.05023225 -364.66678429 1832.01292038 C-365.51258776 1832.00883576 -366.35839123 1832.00475115 -367.22982511 1832.00054275 C-394.45180761 1831.86911032 -421.67381364 1831.74367956 -448.89583841 1831.62134282 C-476.23899105 1831.4984259 -503.58210688 1831.36929665 -530.92518896 1831.23153203 C-534.69732124 1831.21252748 -538.46945386 1831.19359204 -542.24158669 1831.17469788 C-542.98098866 1831.17099164 -543.72039064 1831.16728541 -544.48219874 1831.16346687 C-556.20709041 1831.10487711 -567.9320018 1831.05292188 -579.65693617 1831.00370801 C-591.171747 1830.95523948 -602.68649966 1830.89962631 -614.20124243 1830.83682018 C-620.36358599 1830.80341298 -626.52590161 1830.77319461 -632.68829874 1830.75156917 C-638.28566234 1830.73186539 -643.88290353 1830.70320446 -649.4801853 1830.6671902 C-651.49939545 1830.65580372 -653.51862777 1830.64776801 -655.53786525 1830.64337388 C-658.26795443 1830.63695847 -660.99770324 1830.61850196 -663.72770864 1830.59694302 C-664.51353346 1830.59800526 -665.29935829 1830.59906749 -666.10899599 1830.60016191 C-671.70909698 1830.53689565 -676.26370235 1830.0118805 -680.60753918 1826.312958 C-683.00850568 1821.95573444 -682.80023943 1818.16435503 -682.7371521 1813.26392746 C-682.73980995 1812.23520475 -682.74246779 1811.20648205 -682.74520618 1810.14658593 C-682.74907505 1806.6641404 -682.72393492 1803.18249972 -682.69898987 1799.70014954 C-682.69534359 1797.17300296 -682.69337857 1794.64585349 -682.69294548 1792.11870432 C-682.68688118 1785.8387508 -682.66137243 1779.55911454 -682.62756284 1773.27925673 C-682.59974105 1767.99844241 -682.58128136 1762.71766182 -682.56868935 1757.43678999 C-682.565935 1756.2866973 -682.565935 1756.2866973 -682.563125 1755.11337041 C-682.55939503 1753.54587129 -682.55567443 1751.97837214 -682.55196298 1750.41087297 C-682.50315472 1730.55739525 -682.40192261 1710.7042477 -682.29258823 1690.85102534 C-682.26202208 1685.29646315 -682.23260249 1679.74189518 -682.2032547 1674.18732643 C-681.91039932 1619.00974373 -681.52809684 1563.83284904 -681.12604488 1508.65596907 C-680.94489145 1483.79246974 -680.77059953 1458.92892405 -680.59720314 1434.06536958 C-680.51152651 1421.78124264 -680.42554221 1409.49711785 -680.33947754 1397.21299362 C-680.33087632 1395.9852764 -680.3222751 1394.75755919 -680.31341324 1393.49263842 C-680.11071073 1364.56946332 -679.90500721 1335.6463097 -679.69874573 1306.72315979 C-679.68977667 1305.46530432 -679.68080762 1304.20744884 -679.67156677 1302.91147653 C-679.5170524 1281.24245364 -679.36232398 1259.57343227 -679.2075367 1237.90441132 C-679.08018237 1220.07576551 -678.95288638 1202.24711929 -678.82569885 1184.41847229 C-678.81673452 1183.16204869 -678.80777018 1181.90562509 -678.7985342 1180.61112805 C-678.59245835 1151.72553845 -678.38731824 1122.83994259 -678.18496704 1093.95432663 C-678.17637957 1092.72851456 -678.1677921 1091.5027025 -678.15894441 1090.23974461 C-678.07304874 1077.97567663 -677.98731127 1065.71160756 -677.90180569 1053.44753685 C-677.7289385 1028.65771615 -677.55417237 1003.8679123 -677.37339783 979.07814789 C-677.18901226 953.78024172 -677.00856085 928.48231066 -676.8347415 903.18432953 C-676.82027926 901.08042674 -676.80578772 898.97652414 -676.79126653 896.87262175 C-676.4817057 852.0145385 -676.21442853 807.15752656 -676.21681213 762.29823303 C-676.2168511 761.03220047 -676.2168511 761.03220047 -676.21689086 759.74059149 C-676.21800478 743.29120513 -676.23199985 726.84187397 -676.2728982 710.39253652 C-676.28638854 704.93234774 -676.29569833 699.47215247 -676.30522561 694.01195556 C-676.31329712 690.41337845 -676.32737167 686.81486515 -676.34203911 683.21631002 C-676.40398898 660.36195963 -675.88677573 637.46962737 -674.01222229 614.68507385 C-673.94942078 613.90633911 -673.88661926 613.12760437 -673.82191467 612.32527161 C-666.92069164 527.97018133 -643.18301473 446.86828818 -605.26222229 371.31007385 C-604.67231506 370.13299866 -604.08240784 368.95592346 -603.47462463 367.74317932 C-593.52462381 348.00029799 -582.37697228 329.32583202 -570.13722229 310.93507385 C-569.7216507 310.31049286 -569.3060791 309.68591187 -568.87791443 309.04240417 C-560.83748416 296.98444083 -552.54685587 285.10593142 -543.69972229 273.62257385 C-543.14945374 272.90617737 -542.59918518 272.18978088 -542.03224182 271.45167542 C-534.54712832 261.74397493 -526.67682934 252.36670721 -518.72999573 243.03663635 C-517.20775153 241.24599913 -515.69188285 239.45008822 -514.17628479 237.65382385 C-509.36410398 231.97034209 -504.55179989 226.40767732 -499.18460083 221.23339844 C-497.35280162 219.40069776 -495.66344551 217.51013892 -493.98072815 215.54078674 C-490.49681536 211.5309068 -486.83980569 207.74250246 -483.07862854 203.9936676 C-482.41942917 203.33351151 -481.7602298 202.67335541 -481.08105469 201.99319458 C-479.69825394 200.60971879 -478.31421153 199.22748302 -476.92897034 197.84645081 C-474.82991886 195.75275716 -472.73626289 193.65377511 -470.64308167 191.55421448 C-469.28858443 190.20037815 -467.93377698 188.8468521 -466.57862854 187.4936676 C-465.96379105 186.87680588 -465.34895355 186.25994415 -464.71548462 185.62438965 C-460.95921096 181.88793434 -457.08624245 178.33820823 -453.07124329 174.88098145 C-450.29625671 172.47125404 -447.62990156 169.94901094 -444.94972229 167.43507385 C-440.13466786 162.95587226 -435.19690385 158.70237615 -430.06690979 154.58351135 C-427.51923333 152.51840313 -425.019514 150.41060488 -422.52906799 148.27760315 C-350.06179417 86.26285805 -261.16915678 43.17230378 -75.37825012 3.51582336 C-73.2649718 3.3103412 -71.15405783 3.08828489 -69.04298401 2.86134338 C-46.05886889 0.41592481 -23.09250513 0.02075125 0 0 Z M-68.19966125 24.08546448 C-70.26861094 24.31076957 -72.33851721 24.52316766 -74.40919495 24.73194885 C-148.9797591 32.30701603 -219.63167202 53.17512905 -287.26222229 85.31007385 C-288.15393127 85.73256409 -289.04564026 86.15505432 -289.96437073 86.59034729 C-318.80499527 100.35090671 -346.48383551 117.45421102 -372.26222229 136.31007385 C-373.03404846 136.87081604 -373.80587463 137.43155823 -374.60108948 138.0092926 C-389.02532141 148.49333122 -403.09192828 159.29490553 -416.62355042 170.90968323 C-418.27154375 172.31803987 -419.92961906 173.71364243 -421.59034729 175.10694885 C-427.90148705 180.42291516 -434.04498339 185.88986629 -440.05128479 191.5483551 C-440.78164948 192.23639221 -441.51201416 192.92442932 -442.26451111 193.63331604 C-450.15811192 201.10633425 -457.86572195 208.76228877 -465.54103088 216.45851135 C-467.91698904 218.83990874 -470.2983556 221.21580628 -472.68019104 223.59132385 C-474.22087691 225.13266944 -475.76125313 226.67432462 -477.30128479 228.21632385 C-478.34828049 229.2602832 -478.34828049 229.2602832 -479.41642761 230.32533264 C-483.36177781 234.28937439 -487.13282593 238.35434674 -490.7827301 242.59246826 C-492.69160938 244.80856764 -494.66381702 246.96392556 -496.63722229 249.12257385 C-501.36837574 254.37144612 -505.82099014 259.81569461 -510.26222229 265.31007385 C-511.27304996 266.54127472 -512.28482278 267.77170004 -513.29737854 269.0014801 C-542.79539922 304.90727718 -568.79861107 344.15628857 -589.12696838 385.98634338 C-590.39370964 388.5792129 -591.68210775 391.16086966 -592.96925354 393.7436676 C-609.92276754 428.06584912 -623.64465584 464.25737625 -633.26222229 501.31007385 C-633.55048889 502.39256409 -633.83875549 503.47505432 -634.13575745 504.59034729 C-641.08313798 530.70644043 -645.81048677 557.00748484 -649.51222229 583.74757385 C-649.63719086 584.63904114 -649.76215942 585.53050842 -649.89091492 586.44898987 C-653.13352046 609.77141744 -654.55680732 632.95949597 -654.65699768 656.49806213 C-654.67461458 659.02621761 -654.69303729 661.55436758 -654.71218777 664.0825119 C-654.75144658 669.50433204 -654.78516512 674.92613957 -654.81362915 680.34802628 C-654.85550375 688.32194058 -654.90788866 696.29576196 -654.96236797 704.26959889 C-655.05250914 717.50708898 -655.13420531 730.74461776 -655.21073914 743.98219299 C-655.28591173 756.98238531 -655.36502485 769.98254404 -655.44920349 782.98268127 C-655.45443725 783.79145327 -655.459671 784.60022527 -655.46506336 785.43350551 C-655.4862452 788.70498128 -655.50745199 791.9764569 -655.52869184 795.2479323 C-655.79063442 835.60187807 -656.03149793 875.95593848 -656.26222229 916.31007385 C-656.26604416 916.97841649 -656.26986603 917.64675912 -656.27380371 918.33535457 C-656.37620734 936.25139528 -656.47649523 954.16744727 -656.57472229 972.08351135 C-656.58040686 973.119401 -656.58609144 974.15529065 -656.59194827 975.2225709 C-656.70412666 995.68500851 -656.81349593 1016.1474499 -656.90908945 1036.60997224 C-657.0745132 1071.84025344 -657.32261313 1107.06858369 -657.66226006 1142.29763794 C-658.12289307 1190.1133054 -658.46442778 1237.92886884 -658.74671021 1285.74587321 C-658.76222994 1288.3738696 -658.77778925 1291.00186574 -658.79335856 1293.62986183 C-658.95261705 1320.52324872 -659.10780835 1347.41665878 -659.26222229 1374.31007385 C-659.41663376 1401.20305953 -659.57210957 1428.09603831 -659.73116183 1454.98899698 C-659.75187725 1458.49283249 -659.77250461 1461.99666849 -659.79305387 1465.50050497 C-660.05450717 1510.06566587 -660.37850908 1554.62910015 -660.82081604 1599.19288635 C-661.24813655 1642.29441669 -661.39245835 1685.39082367 -661.33424985 1728.49429727 C-661.32249026 1737.37182565 -661.31743718 1746.24935556 -661.3125459 1755.12688994 C-661.30246483 1773.18796018 -661.28524297 1791.24901565 -661.26222229 1809.31007385 C-660.39920061 1809.31430579 -659.53617893 1809.31853773 -658.64700508 1809.32289791 C-630.22706702 1809.46237205 -601.80714083 1809.60417799 -573.38722229 1809.74757385 C-572.28049305 1809.75315434 -571.17376382 1809.75873482 -570.03349733 1809.76448441 C-513.01151243 1810.05210571 -455.98981476 1810.35917294 -398.96842957 1810.74858093 C-337.87915606 1811.16576559 -276.78969934 1811.51298455 -215.69972229 1811.81007385 C-214.64152078 1811.8152301 -213.58331927 1811.82038635 -212.49305105 1811.82569885 C-156.14827072 1812.1001346 -99.80338685 1812.34092991 -43.45833719 1812.55226135 C-41.37679281 1812.56006902 -39.29524846 1812.56788317 -37.21370411 1812.57569885 C-22.59343047 1812.63058537 -7.97315584 1812.68520813 6.64711905 1812.73976135 C8.74043115 1812.74757259 10.83374326 1812.75538546 12.92705536 1812.76319885 C14.32248179 1812.76840719 15.71790822 1812.77361552 17.11333466 1812.77882385 C17.80403771 1812.78140198 18.49474077 1812.7839801 19.20637423 1812.78663635 C22.69807084 1812.79966805 26.18976749 1812.81269142 29.6814642 1812.82569885 C96.02555583 1813.07286747 162.3692463 1813.32965702 228.71223736 1813.79457331 C232.39061095 1813.82033732 236.06898562 1813.84594714 239.74736023 1813.87156677 C240.4733464 1813.87662501 241.19933257 1813.88168325 241.94731832 1813.88689476 C250.08710497 1813.94359382 258.22689319 1814.00006162 266.36668396 1814.0561676 C267.10453691 1814.06126115 267.84238987 1814.06635469 268.60260201 1814.07160258 C309.66890215 1814.35473686 350.73553125 1814.57860284 391.80226892 1814.78758538 C392.91227009 1814.79323411 394.02227125 1814.79888285 395.16590881 1814.80470276 C396.27156301 1814.81032663 397.37721721 1814.81595051 398.51637608 1814.8217448 C405.90214701 1814.85949236 413.28790555 1814.89917083 420.67366028 1814.93995667 C498.69506786 1815.36932909 576.71548783 1815.35864854 654.73777771 1815.31007385 C655.30281822 1728.99368916 655.86202222 1642.67726405 657.30027771 1397.37257385 C657.30496866 1396.42336217 657.30965961 1395.47415049 657.3144927 1394.49617481 C657.56771444 1343.22808819 657.77815883 1291.95984608 657.97596416 1240.69151905 C657.98386355 1238.64415432 657.99176697 1236.5967896 657.99967122 1234.54942489 C658.03670511 1224.95572544 658.07366026 1215.36202569 658.11058044 1205.76832581 C658.1132057 1205.08620782 658.11583096 1204.40408984 658.11853577 1203.70130162 C658.13712114 1198.8721314 658.15569836 1194.04296116 658.17427063 1189.21379089 C658.17689712 1188.53094046 658.17952361 1187.84809002 658.18222969 1187.14454714 C658.21131548 1179.58190357 658.2403408 1172.01925977 658.26922989 1164.45661545 C658.51411612 1100.36552424 658.7750372 1036.2750124 659.23777771 972.18507385 C659.24804672 970.76074982 659.25831462 969.33642579 659.26858139 967.91210175 C659.28391531 965.7854569 659.29925269 963.65881208 659.31459862 961.53216732 C659.37140567 953.65865971 659.42786608 945.7851497 659.48387146 937.91163635 C659.488965 937.19695773 659.49405855 936.4822791 659.49930644 935.74594355 C659.80819329 892.33672145 660.02951525 848.9269809 660.24944866 805.51723254 C660.28791443 797.94131826 660.3275086 790.36541051 660.36766052 782.789505 C660.49938459 757.8497543 660.61412351 732.91000399 660.70474559 707.97006893 C660.72984086 701.16287279 660.75982287 694.3557076 660.79127502 687.54853821 C660.83052952 678.98269977 660.86072164 670.41687793 660.88047796 661.8509717 C660.890777 657.44742388 660.90439003 653.04396337 660.92794991 648.64046478 C661.05475222 624.2103225 660.06862853 600.40721733 655.73777771 576.31007385 C655.32313801 573.77152894 654.91158664 571.23247731 654.50340271 568.69288635 C653.37483471 561.87189114 652.08056752 555.09165972 650.73777771 548.31007385 C650.51509216 547.15217346 650.29240662 545.99427307 650.06297302 544.80128479 C640.07367081 492.96680972 623.10158938 442.65253434 599.73777771 395.31007385 C599.21893005 394.25852112 598.7000824 393.20696838 598.16551208 392.12355042 C577.41520935 350.45497861 551.75753543 310.85814201 522.10984802 274.98194885 C520.28773408 272.76169329 518.51290907 270.50548153 516.73777771 268.24757385 C508.77098653 258.26811964 500.23905515 248.73377007 491.56199646 239.36988831 C489.80332705 237.46965792 488.05918612 235.55923912 486.32298279 233.63819885 C479.41504631 226.00598346 472.24794031 218.66545355 464.95726013 211.39918518 C463.03852266 209.48585191 461.12525017 207.56716881 459.21238708 205.64796448 C453.73741016 200.17001907 448.28300147 194.72410484 442.37767029 189.70484924 C439.81816493 187.52791696 437.38388375 185.22518801 434.92527771 182.93507385 C430.28355007 178.64700866 425.50653484 174.58522327 420.58152771 170.62257385 C418.00366477 168.5262897 415.47329421 166.38744129 412.9516449 164.22462463 C406.41869253 158.62853859 399.69733733 153.36982013 392.73777771 148.31007385 C392.05521912 147.81217346 391.37266052 147.31427307 390.66941833 146.80128479 C381.11578508 139.83910596 371.51324128 132.95834395 361.73777771 126.31007385 C361.15463806 125.91223694 360.57149841 125.51440002 359.97068787 125.10450745 C343.45178326 113.85936734 326.18098293 104.04437052 308.73777771 94.31007385 C307.72578308 93.7399054 307.72578308 93.7399054 306.69334412 93.15821838 C286.53413649 81.82592307 265.05236457 72.71853661 243.51365662 64.38722229 C240.94050759 63.38874089 238.37508506 62.37311409 235.81199646 61.34913635 C163.14863944 32.43074445 82.75457874 20.78914492 4.87998199 20.99221802 C2.69417142 20.99768287 0.50837175 21.0000329 -1.67744446 21.00209045 C-23.94690838 21.03470212 -46.04761181 21.64318782 -68.19966125 24.08546448 Z " fill="#010000" transform="translate(1896.262222290039,224.68992614746094)"/>
</svg>
