<?xml version="1.0" encoding="UTF-8"?>
<svg version="1.1" xmlns="http://www.w3.org/2000/svg" width="4000" height="2250">
<path d="M0 0 C0.89906061 -0.00062748 1.79812123 -0.00125496 2.7244261 -0.00190145 C3.70685407 0.00255589 4.68928204 0.00701323 5.70148056 0.01160565 C7.25077078 0.01280012 7.25077078 0.01280012 8.83135979 0.01401872 C12.25883618 0.01799905 15.68624715 0.0292782 19.11370616 0.04071745 C21.52824759 0.04528798 23.94278974 0.04949421 26.35733241 0.05335197 C33.77159987 0.06713554 41.18581377 0.09120431 48.60004764 0.11703333 C50.75718318 0.12406175 52.91431877 0.13107337 55.07145443 0.13806583 C68.69744569 0.18383442 82.32331186 0.2498218 95.94919373 0.32046721 C101.96589214 0.35135462 107.98259833 0.38066113 113.99930351 0.41019573 C124.48411589 0.46187176 134.9689232 0.51450105 145.4537273 0.56782755 C156.67429893 0.62489216 167.89487333 0.68136211 179.11545139 0.73714861 C179.83123231 0.74070777 180.54701322 0.74426694 181.28448447 0.74793396 C184.20112472 0.76243502 187.11776499 0.77693231 190.03440528 0.79142475 C219.463187 0.93765624 248.89195991 1.08560501 278.32072936 1.23428308 C282.37173184 1.25474915 286.42273432 1.27521359 290.47373682 1.29567632 C291.27874512 1.29974274 292.08375343 1.30380917 292.91315593 1.30799882 C310.85789576 1.39863557 328.80263808 1.48877589 346.74738085 1.57882796 C350.86142766 1.59947387 354.97547446 1.62012358 359.08952126 1.64077304 C359.90665269 1.64487442 360.72378413 1.64897579 361.56567712 1.65320144 C363.2189117 1.66149943 364.87214628 1.66979746 366.52538086 1.67809554 C368.18175255 1.68640932 369.83812425 1.694723 371.49449594 1.70303656 C418.43108594 1.93862028 465.36767307 2.174767 512.30425411 2.41212973 C513.17133069 2.41651446 514.03840726 2.42089919 514.93175889 2.4254168 C524.59729386 2.47429466 534.26282879 2.52317918 543.92836372 2.57206537 C546.57299716 2.58544125 549.21763061 2.59881711 551.86226406 2.61219296 C553.62682363 2.62111772 555.39138321 2.63004262 557.15594279 2.63896766 C612.82821976 2.92055387 668.5005063 3.20016866 724.17280155 3.47811731 C738.18142222 3.54805714 752.19004286 3.61800439 766.19866329 3.68799337 C767.49329851 3.69446151 767.49329851 3.69446151 768.81408798 3.70106032 C795.51900015 3.83449001 822.22390927 3.96851834 848.92881542 4.10314878 C849.77027316 4.10739085 850.61173089 4.11163292 851.47868735 4.11600353 C869.97294816 4.20924506 888.46720824 4.30263053 906.96146765 4.39614747 C913.58348777 4.42963075 920.20550793 4.46310373 926.82752812 4.49657183 C928.47432812 4.50489498 930.12112812 4.51321869 931.76792811 4.52154297 C957.74976411 4.6528714 983.73160676 4.78282212 1009.71345331 4.91204657 C1035.97349509 5.04266586 1062.23352823 5.17490897 1088.49355151 5.30919913 C1092.1672312 5.32798581 1095.84091097 5.34675622 1099.51459079 5.36551699 C1100.23435252 5.36919334 1100.95411425 5.37286969 1101.69568694 5.37665745 C1111.49539733 5.42667473 1121.29511235 5.47565239 1131.0948327 5.52367835 C1137.0570515 5.55291427 1143.01926928 5.58235782 1148.98148685 5.61184534 C1150.91379736 5.62139225 1150.91379736 5.62139225 1152.88514445 5.63113202 C1166.59626839 5.69923102 1180.30734421 5.77177968 1194.0183671 5.85801813 C1195.20352116 5.86546787 1196.38867521 5.87291762 1197.60974302 5.88059312 C1202.34607198 5.91050768 1207.08239972 5.94057937 1211.81872286 5.97140198 C1226.3547077 6.06571651 1240.89045571 6.13533278 1255.4267033 6.17247134 C1265.21790099 6.19822096 1275.0089338 6.24068971 1284.80001162 6.29548477 C1290.53460402 6.32677178 1296.26892448 6.34948751 1302.00360862 6.35047128 C1307.26541438 6.35143422 1312.52661229 6.37507073 1317.78824924 6.41665073 C1319.70487794 6.4276535 1321.62157761 6.43012134 1323.53822613 6.42340496 C1326.14842062 6.41543837 1328.75664234 6.4379765 1331.36663406 6.46815148 C1332.12012571 6.45848377 1332.87361735 6.44881607 1333.64994207 6.4388554 C1337.50320711 6.51756764 1340.0590983 7.09491373 1343.06012078 9.4398502 C1346.34514324 12.90239349 1346.57153988 15.55258874 1346.60004764 20.11703333 C1346.61880954 21.05710649 1346.63757145 21.99717965 1346.6569019 22.96573987 C1346.69494151 26.43699881 1346.67422417 29.90471216 1346.64415412 33.37604364 C1346.63625709 34.72419832 1346.62882081 36.07235576 1346.62180194 37.4205153 C1346.60119507 41.12160805 1346.57404005 44.82262803 1346.54580035 48.52366934 C1346.51632048 52.53801507 1346.49292602 56.55239699 1346.4687547 60.56677755 C1346.41998959 68.50577402 1346.36557122 76.44472256 1346.30940653 84.38366974 C1346.24248081 93.88058539 1346.18160207 103.37753739 1346.12085895 112.87449425 C1345.99621698 132.32475482 1345.86443153 151.77496282 1345.73013199 171.22515881 C1345.6307281 185.62374844 1345.53297082 200.02234821 1345.43651538 214.42095789 C1345.12454116 260.95586469 1344.80408075 307.49070861 1344.4780873 354.02551922 C1344.44643801 358.54338455 1344.41478948 363.06124989 1344.38314205 367.57911524 C1344.37525157 368.70540913 1344.3673611 369.83170303 1344.35923152 370.99212704 C1344.17666662 397.05625891 1343.99619204 423.12040517 1343.81597443 449.18455336 C1343.77356896 455.31712358 1343.7311456 461.44969368 1343.68872356 467.58226379 C1343.67165667 470.04951677 1343.65458983 472.51676975 1343.63752304 474.98402273 C1343.62482118 476.82024777 1343.62482118 476.82024777 1343.61186272 478.69356826 C1343.58612328 482.41463672 1343.56038563 486.1357052 1343.53464809 489.85677367 C1343.34374108 517.45654956 1343.15255917 545.05632354 1342.96113162 572.65609583 C1342.95244546 573.9085602 1342.94375929 575.16102456 1342.9348099 576.45144239 C1342.65219161 617.20009354 1342.36744928 657.94872957 1342.08182647 698.69735976 C1341.78458142 741.1062653 1341.49003305 783.51518886 1341.19853903 825.92413434 C1341.15712154 831.94955989 1341.11567186 837.97498522 1341.07420116 844.0004104 C1341.06604876 845.18499154 1341.05789635 846.36957268 1341.04949691 847.59005021 C1340.92853191 865.15587745 1340.80526585 882.72168752 1340.68065792 900.28748926 C1340.50921856 924.46477416 1340.34125207 948.64208106 1340.17751063 972.81941935 C1340.14929591 976.9843496 1340.12089391 981.1492785 1340.092324 985.31420633 C1339.81557342 1025.696796 1339.54616778 1066.07829087 1339.59202152 1106.46200403 C1339.5934007 1107.84448673 1339.59476869 1109.22696944 1339.59612516 1110.60945215 C1339.6087941 1122.86611207 1339.63099084 1135.12260763 1339.6945073 1147.37911808 C1339.84449417 1177.33708549 1339.36574855 1207.20040361 1335.85004764 1236.99203333 C1335.72599552 1238.06845591 1335.72599552 1238.06845591 1335.59943729 1239.16662439 C1325.56587093 1325.80836255 1299.99292547 1408.49594276 1220.60004764 1544.11703333 C1220.03898319 1544.90626184 1219.47791873 1545.69549036 1218.89985233 1546.50863489 C1211.7283472 1556.59369405 1204.36461024 1566.48068375 1196.60004764 1576.11703333 C1195.48049686 1577.51115442 1195.48049686 1577.51115442 1194.33832889 1578.93343958 C1185.81331074 1589.4481388 1176.98549155 1599.69777009 1167.83051639 1609.66781458 C1165.88101745 1611.80850781 1163.9830146 1613.98054395 1162.10004764 1616.17953333 C1158.52570005 1620.30837399 1154.6441965 1624.10612548 1150.73676639 1627.91781458 C1148.46477634 1630.12281398 1148.46477634 1630.12281398 1146.60004764 1633.11703333 C1145.94004764 1633.11703333 1145.28004764 1633.11703333 1144.60004764 1633.11703333 C1144.3346619 1633.71217737 1144.06927616 1634.30732141 1143.79584842 1634.92050013 C1142.56275733 1637.18553087 1141.35822703 1638.52647168 1139.46723514 1640.26156458 C1138.51723636 1641.14207483 1138.51723636 1641.14207483 1137.54804569 1642.04037317 C1136.86395633 1642.66379602 1136.17986698 1643.28721888 1135.47504764 1643.92953333 C1134.02035374 1645.27169212 1132.56593453 1646.61414867 1131.11176639 1647.95687708 C1130.36459354 1648.64378626 1129.61742069 1649.33069544 1128.84760623 1650.03842005 C1126.67255514 1652.0499761 1124.51750861 1654.08048167 1122.36957889 1656.12093958 C1115.79033743 1662.36653067 1109.19500312 1668.43200935 1102.09614139 1674.08578333 C1099.57281433 1676.13919502 1097.18072491 1678.2889139 1094.78754764 1680.49203333 C1089.28007675 1685.49803905 1083.44963594 1690.04427031 1077.56440311 1694.58968958 C1075.53466964 1696.16786663 1073.52137897 1697.76528786 1071.51020389 1699.36703333 C1054.31081184 1713.00583573 1036.222957 1725.50126535 1017.60004764 1737.11703333 C1016.59909061 1737.74190638 1015.59813358 1738.36677942 1014.56684452 1739.01058802 C941.97291448 1784.13136015 861.48163626 1814.25798419 713.60004764 1835.11703333 C712.90481998 1835.17111353 712.20959232 1835.22519373 711.49329715 1835.28091272 C695.93194479 1836.44800251 680.32116838 1836.36260905 664.72504764 1836.36703333 C663.6524205 1836.36769611 663.6524205 1836.36769611 662.55812412 1836.36837229 C585.93912505 1836.39312098 511.32734729 1825.44591209 438.60004764 1801.11703333 C437.9649628 1800.90498255 437.32987796 1800.69293177 436.67554813 1800.4744552 C377.76850168 1780.744657 320.33918906 1751.39280368 270.60004764 1714.11703333 C269.75555057 1713.48507044 268.9110535 1712.85310755 268.04096561 1712.20199427 C256.351033 1703.42865163 244.83957105 1694.46099012 233.60004764 1685.11703333 C233.01255741 1684.62863977 232.42506717 1684.14024622 231.8197742 1683.63705286 C225.47124023 1678.34305128 219.22020013 1672.95372537 213.11176639 1667.38265833 C211.02446543 1665.49986742 208.91670322 1663.64855136 206.79536014 1661.80453333 C195.96129911 1652.33971588 185.66094138 1642.27001466 175.47504764 1632.11703333 C174.30365238 1630.95252649 174.30365238 1630.95252649 173.10859256 1629.76449427 C169.01253805 1625.65740869 165.09088997 1621.46395988 161.30659061 1617.06869349 C158.37907043 1613.72068257 155.29030726 1610.52589597 152.22504764 1607.30453333 C147.20614399 1601.99025556 142.39076016 1596.60377386 137.83442264 1590.88265833 C135.67991941 1588.21589559 133.46265764 1585.62083852 131.21601444 1583.03207239 C125.52694619 1576.47663496 120.10906974 1569.77785818 114.89496952 1562.83724817 C113.53856653 1561.03535989 112.17142741 1559.24196631 110.80317264 1557.44906458 C64.68041455 1496.78191403 30.2574425 1428.77155503 7.60004764 1356.11703333 C7.21767948 1354.89790247 6.83531131 1353.67877161 6.44135623 1352.42269739 C-1.78600671 1325.86145058 -7.43561691 1298.63393472 -11.71245236 1271.17953333 C-11.82969662 1270.43786921 -11.94694088 1269.69620508 -12.067738 1268.93206629 C-12.79483952 1264.27976988 -13.43137379 1259.62082665 -14.03004963 1254.95040342 C-14.27110586 1253.10396795 -14.52188105 1251.25876724 -14.78378922 1249.41517397 C-18.41418392 1223.3505537 -17.78619875 1197.10694897 -17.67835527 1170.85410136 C-17.65733911 1165.64483181 -17.64389012 1160.43558178 -17.63468964 1155.22627851 C-17.633325 1154.45707666 -17.63196036 1153.68787481 -17.63055437 1152.89536381 C-17.62777082 1151.31601062 -17.62499444 1149.73665741 -17.62222501 1148.1573042 C-17.58642036 1128.50172968 -17.51324765 1108.84632699 -17.43550054 1089.19088104 C-17.40699964 1081.97423411 -17.37980361 1074.75758304 -17.35325141 1067.54092869 C-17.10387532 999.8715804 -16.7922959 932.20254784 -16.46400018 864.53354463 C-16.37096083 845.3528156 -16.2791342 826.1720811 -16.18824303 806.99134177 C-16.17796939 804.82330838 -16.16769282 802.65527501 -16.15741537 800.48724165 C-16.1298477 794.67173103 -16.1022833 788.85622039 -16.07472487 783.04070973 C-15.88365608 742.72366905 -15.69128601 702.40663475 -15.49600739 662.08961424 C-15.49236385 661.33732471 -15.48872031 660.58503518 -15.48496637 659.809949 C-15.44436649 651.42749179 -15.40374509 643.04503467 -15.36311491 634.6625776 C-15.35944885 633.9062284 -15.35578279 633.14987921 -15.35200564 632.37061033 C-15.33718045 629.31203611 -15.32235523 626.25346188 -15.30752871 623.19488767 C-15.07174548 574.55428917 -14.83997516 525.91367313 -14.61162228 477.27303919 C-14.55372456 464.94093182 -14.49581605 452.60882451 -14.43784089 440.27671751 C-14.43426955 439.51701793 -14.43069821 438.75731835 -14.42701864 437.97459758 C-14.31687924 414.54863369 -14.20568632 391.122675 -14.09337945 367.6967214 C-14.08985331 366.96119314 -14.08632718 366.22566488 -14.08269419 365.46784789 C-14.00528324 349.32279436 -13.92760743 333.17774212 -13.84969074 317.03269102 C-13.8218255 311.25844274 -13.79397596 305.48419438 -13.76613243 299.70994599 C-13.7592085 298.27413041 -13.7522835 296.83831483 -13.74535742 295.40249926 C-13.6355466 272.63694722 -13.52809701 249.87138483 -13.42182169 227.10581604 C-13.31206944 203.60039724 -13.19912541 180.09499617 -13.08260478 156.58960978 C-13.01570078 143.07585055 -12.95111132 129.56208509 -12.8899403 116.04829868 C-12.84877065 107.00584938 -12.80446224 97.96341885 -12.75768642 88.92099683 C-12.7311997 83.78430728 -12.70598227 78.64762115 -12.68460967 73.51090756 C-12.63668577 62.1643958 -12.56381115 50.8187065 -12.42748523 39.47288336 C-12.39988712 37.11145118 -12.37629005 34.7499987 -12.35272812 32.38852323 C-12.31294687 28.69710828 -12.25095187 25.00670423 -12.17079639 21.31595137 C-12.13193536 19.35041096 -12.11134428 17.38453553 -12.09141774 15.41871199 C-12.06073057 14.2565606 -12.03004341 13.09440921 -11.99842633 11.89704111 C-11.9794526 10.89416053 -11.96047888 9.89127996 -11.94093019 8.85800906 C-11.25015815 5.35807006 -9.87290844 3.64882491 -7.39995236 1.11703333 C-4.58817447 0.17977403 -2.90593262 -0.00577635 0 0 Z " fill="#F79220" transform="translate(1235.3999523594975,110.882966671139)"/>
<path d="M0 0 C0.89906061 -0.00062748 1.79812123 -0.00125496 2.7244261 -0.00190145 C3.70685407 0.00255589 4.68928204 0.00701323 5.70148056 0.01160565 C7.25077078 0.01280012 7.25077078 0.01280012 8.83135979 0.01401872 C12.25883618 0.01799905 15.68624715 0.0292782 19.11370616 0.04071745 C21.52824759 0.04528798 23.94278974 0.04949421 26.35733241 0.05335197 C33.77159987 0.06713554 41.18581377 0.09120431 48.60004764 0.11703333 C50.75718318 0.12406175 52.91431877 0.13107337 55.07145443 0.13806583 C68.69744569 0.18383442 82.32331186 0.2498218 95.94919373 0.32046721 C101.96589214 0.35135462 107.98259833 0.38066113 113.99930351 0.41019573 C124.48411589 0.46187176 134.9689232 0.51450105 145.4537273 0.56782755 C156.67429893 0.62489216 167.89487333 0.68136211 179.11545139 0.73714861 C179.83123231 0.74070777 180.54701322 0.74426694 181.28448447 0.74793396 C184.20112472 0.76243502 187.11776499 0.77693231 190.03440528 0.79142475 C219.463187 0.93765624 248.89195991 1.08560501 278.32072936 1.23428308 C282.37173184 1.25474915 286.42273432 1.27521359 290.47373682 1.29567632 C291.27874512 1.29974274 292.08375343 1.30380917 292.91315593 1.30799882 C310.85789576 1.39863557 328.80263808 1.48877589 346.74738085 1.57882796 C350.86142766 1.59947387 354.97547446 1.62012358 359.08952126 1.64077304 C359.90665269 1.64487442 360.72378413 1.64897579 361.56567712 1.65320144 C363.2189117 1.66149943 364.87214628 1.66979746 366.52538086 1.67809554 C368.18175255 1.68640932 369.83812425 1.694723 371.49449594 1.70303656 C418.43108594 1.93862028 465.36767307 2.174767 512.30425411 2.41212973 C513.17133069 2.41651446 514.03840726 2.42089919 514.93175889 2.4254168 C524.59729386 2.47429466 534.26282879 2.52317918 543.92836372 2.57206537 C546.57299716 2.58544125 549.21763061 2.59881711 551.86226406 2.61219296 C553.62682363 2.62111772 555.39138321 2.63004262 557.15594279 2.63896766 C612.82821976 2.92055387 668.5005063 3.20016866 724.17280155 3.47811731 C738.18142222 3.54805714 752.19004286 3.61800439 766.19866329 3.68799337 C767.49329851 3.69446151 767.49329851 3.69446151 768.81408798 3.70106032 C795.51900015 3.83449001 822.22390927 3.96851834 848.92881542 4.10314878 C849.77027316 4.10739085 850.61173089 4.11163292 851.47868735 4.11600353 C869.97294816 4.20924506 888.46720824 4.30263053 906.96146765 4.39614747 C913.58348777 4.42963075 920.20550793 4.46310373 926.82752812 4.49657183 C928.47432812 4.50489498 930.12112812 4.51321869 931.76792811 4.52154297 C957.74976411 4.6528714 983.73160676 4.78282212 1009.71345331 4.91204657 C1035.97349509 5.04266586 1062.23352823 5.17490897 1088.49355151 5.30919913 C1092.1672312 5.32798581 1095.84091097 5.34675622 1099.51459079 5.36551699 C1100.23435252 5.36919334 1100.95411425 5.37286969 1101.69568694 5.37665745 C1111.49539733 5.42667473 1121.29511235 5.47565239 1131.0948327 5.52367835 C1137.0570515 5.55291427 1143.01926928 5.58235782 1148.98148685 5.61184534 C1150.91379736 5.62139225 1150.91379736 5.62139225 1152.88514445 5.63113202 C1166.59626839 5.69923102 1180.30734421 5.77177968 1194.0183671 5.85801813 C1195.20352116 5.86546787 1196.38867521 5.87291762 1197.60974302 5.88059312 C1202.34607198 5.91050768 1207.08239972 5.94057937 1211.81872286 5.97140198 C1226.3547077 6.06571651 1240.89045571 6.13533278 1255.4267033 6.17247134 C1265.21790099 6.19822096 1275.0089338 6.24068971 1284.80001162 6.29548477 C1290.53460402 6.32677178 1296.26892448 6.34948751 1302.00360862 6.35047128 C1307.26541438 6.35143422 1312.52661229 6.37507073 1317.78824924 6.41665073 C1319.70487794 6.4276535 1321.62157761 6.43012134 1323.53822613 6.42340496 C1326.14842062 6.41543837 1328.75664234 6.4379765 1331.36663406 6.46815148 C1332.12012571 6.45848377 1332.87361735 6.44881607 1333.64994207 6.4388554 C1337.50320711 6.51756764 1340.0590983 7.09491373 1343.06012078 9.4398502 C1346.34514324 12.90239349 1346.57153988 15.55258874 1346.60004764 20.11703333 C1346.61880954 21.05710649 1346.63757145 21.99717965 1346.6569019 22.96573987 C1346.69494151 26.43699881 1346.67422417 29.90471216 1346.64415412 33.37604364 C1346.63625709 34.72419832 1346.62882081 36.07235576 1346.62180194 37.4205153 C1346.60119507 41.12160805 1346.57404005 44.82262803 1346.54580035 48.52366934 C1346.51632048 52.53801507 1346.49292602 56.55239699 1346.4687547 60.56677755 C1346.41998959 68.50577402 1346.36557122 76.44472256 1346.30940653 84.38366974 C1346.24248081 93.88058539 1346.18160207 103.37753739 1346.12085895 112.87449425 C1345.99621698 132.32475482 1345.86443153 151.77496282 1345.73013199 171.22515881 C1345.6307281 185.62374844 1345.53297082 200.02234821 1345.43651538 214.42095789 C1345.12454116 260.95586469 1344.80408075 307.49070861 1344.4780873 354.02551922 C1344.44643801 358.54338455 1344.41478948 363.06124989 1344.38314205 367.57911524 C1344.37525157 368.70540913 1344.3673611 369.83170303 1344.35923152 370.99212704 C1344.17666662 397.05625891 1343.99619204 423.12040517 1343.81597443 449.18455336 C1343.77356896 455.31712358 1343.7311456 461.44969368 1343.68872356 467.58226379 C1343.67165667 470.04951677 1343.65458983 472.51676975 1343.63752304 474.98402273 C1343.62482118 476.82024777 1343.62482118 476.82024777 1343.61186272 478.69356826 C1343.58612328 482.41463672 1343.56038563 486.1357052 1343.53464809 489.85677367 C1343.34374108 517.45654956 1343.15255917 545.05632354 1342.96113162 572.65609583 C1342.95244546 573.9085602 1342.94375929 575.16102456 1342.9348099 576.45144239 C1342.65219161 617.20009354 1342.36744928 657.94872957 1342.08182647 698.69735976 C1341.78458142 741.1062653 1341.49003305 783.51518886 1341.19853903 825.92413434 C1341.15712154 831.94955989 1341.11567186 837.97498522 1341.07420116 844.0004104 C1341.06604876 845.18499154 1341.05789635 846.36957268 1341.04949691 847.59005021 C1340.92853191 865.15587745 1340.80526585 882.72168752 1340.68065792 900.28748926 C1340.50921856 924.46477416 1340.34125207 948.64208106 1340.17751063 972.81941935 C1340.14929591 976.9843496 1340.12089391 981.1492785 1340.092324 985.31420633 C1339.81557342 1025.696796 1339.54616778 1066.07829087 1339.59202152 1106.46200403 C1339.5934007 1107.84448673 1339.59476869 1109.22696944 1339.59612516 1110.60945215 C1339.6087941 1122.86611207 1339.63099084 1135.12260763 1339.6945073 1147.37911808 C1339.84449417 1177.33708549 1339.36574855 1207.20040361 1335.85004764 1236.99203333 C1335.72599552 1238.06845591 1335.72599552 1238.06845591 1335.59943729 1239.16662439 C1325.56587093 1325.80836255 1299.99292547 1408.49594276 1220.60004764 1544.11703333 C1220.03898319 1544.90626184 1219.47791873 1545.69549036 1218.89985233 1546.50863489 C1211.7283472 1556.59369405 1204.36461024 1566.48068375 1196.60004764 1576.11703333 C1195.48049686 1577.51115442 1195.48049686 1577.51115442 1194.33832889 1578.93343958 C1185.81331074 1589.4481388 1176.98549155 1599.69777009 1167.83051639 1609.66781458 C1165.88101745 1611.80850781 1163.9830146 1613.98054395 1162.10004764 1616.17953333 C1158.52570005 1620.30837399 1154.6441965 1624.10612548 1150.73676639 1627.91781458 C1148.46477634 1630.12281398 1148.46477634 1630.12281398 1146.60004764 1633.11703333 C1145.94004764 1633.11703333 1145.28004764 1633.11703333 1144.60004764 1633.11703333 C1144.3346619 1633.71217737 1144.06927616 1634.30732141 1143.79584842 1634.92050013 C1142.56275733 1637.18553087 1141.35822703 1638.52647168 1139.46723514 1640.26156458 C1138.51723636 1641.14207483 1138.51723636 1641.14207483 1137.54804569 1642.04037317 C1136.86395633 1642.66379602 1136.17986698 1643.28721888 1135.47504764 1643.92953333 C1134.02035374 1645.27169212 1132.56593453 1646.61414867 1131.11176639 1647.95687708 C1130.36459354 1648.64378626 1129.61742069 1649.33069544 1128.84760623 1650.03842005 C1126.67255514 1652.0499761 1124.51750861 1654.08048167 1122.36957889 1656.12093958 C1115.79033743 1662.36653067 1109.19500312 1668.43200935 1102.09614139 1674.08578333 C1099.57281433 1676.13919502 1097.18072491 1678.2889139 1094.78754764 1680.49203333 C1089.28007675 1685.49803905 1083.44963594 1690.04427031 1077.56440311 1694.58968958 C1075.53466964 1696.16786663 1073.52137897 1697.76528786 1071.51020389 1699.36703333 C1054.31081184 1713.00583573 1036.222957 1725.50126535 1017.60004764 1737.11703333 C1016.59909061 1737.74190638 1015.59813358 1738.36677942 1014.56684452 1739.01058802 C941.97291448 1784.13136015 861.48163626 1814.25798419 713.60004764 1835.11703333 C712.90481998 1835.17111353 712.20959232 1835.22519373 711.49329715 1835.28091272 C695.93194479 1836.44800251 680.32116838 1836.36260905 664.72504764 1836.36703333 C663.6524205 1836.36769611 663.6524205 1836.36769611 662.55812412 1836.36837229 C585.93912505 1836.39312098 511.32734729 1825.44591209 438.60004764 1801.11703333 C437.9649628 1800.90498255 437.32987796 1800.69293177 436.67554813 1800.4744552 C377.76850168 1780.744657 320.33918906 1751.39280368 270.60004764 1714.11703333 C269.75555057 1713.48507044 268.9110535 1712.85310755 268.04096561 1712.20199427 C256.351033 1703.42865163 244.83957105 1694.46099012 233.60004764 1685.11703333 C233.01255741 1684.62863977 232.42506717 1684.14024622 231.8197742 1683.63705286 C225.47124023 1678.34305128 219.22020013 1672.95372537 213.11176639 1667.38265833 C211.02446543 1665.49986742 208.91670322 1663.64855136 206.79536014 1661.80453333 C195.96129911 1652.33971588 185.66094138 1642.27001466 175.47504764 1632.11703333 C174.30365238 1630.95252649 174.30365238 1630.95252649 173.10859256 1629.76449427 C169.01253805 1625.65740869 165.09088997 1621.46395988 161.30659061 1617.06869349 C158.37907043 1613.72068257 155.29030726 1610.52589597 152.22504764 1607.30453333 C147.20614399 1601.99025556 142.39076016 1596.60377386 137.83442264 1590.88265833 C135.67991941 1588.21589559 133.46265764 1585.62083852 131.21601444 1583.03207239 C125.52694619 1576.47663496 120.10906974 1569.77785818 114.89496952 1562.83724817 C113.53856653 1561.03535989 112.17142741 1559.24196631 110.80317264 1557.44906458 C64.68041455 1496.78191403 30.2574425 1428.77155503 7.60004764 1356.11703333 C7.21767948 1354.89790247 6.83531131 1353.67877161 6.44135623 1352.42269739 C-1.78600671 1325.86145058 -7.43561691 1298.63393472 -11.71245236 1271.17953333 C-11.82969662 1270.43786921 -11.94694088 1269.69620508 -12.067738 1268.93206629 C-12.79483952 1264.27976988 -13.43137379 1259.62082665 -14.03004963 1254.95040342 C-14.27110586 1253.10396795 -14.52188105 1251.25876724 -14.78378922 1249.41517397 C-18.41418392 1223.3505537 -17.78619875 1197.10694897 -17.67835527 1170.85410136 C-17.65733911 1165.64483181 -17.64389012 1160.43558178 -17.63468964 1155.22627851 C-17.633325 1154.45707666 -17.63196036 1153.68787481 -17.63055437 1152.89536381 C-17.62777082 1151.31601062 -17.62499444 1149.73665741 -17.62222501 1148.1573042 C-17.58642036 1128.50172968 -17.51324765 1108.84632699 -17.43550054 1089.19088104 C-17.40699964 1081.97423411 -17.37980361 1074.75758304 -17.35325141 1067.54092869 C-17.10387532 999.8715804 -16.7922959 932.20254784 -16.46400018 864.53354463 C-16.37096083 845.3528156 -16.2791342 826.1720811 -16.18824303 806.99134177 C-16.17796939 804.82330838 -16.16769282 802.65527501 -16.15741537 800.48724165 C-16.1298477 794.67173103 -16.1022833 788.85622039 -16.07472487 783.04070973 C-15.88365608 742.72366905 -15.69128601 702.40663475 -15.49600739 662.08961424 C-15.49236385 661.33732471 -15.48872031 660.58503518 -15.48496637 659.809949 C-15.44436649 651.42749179 -15.40374509 643.04503467 -15.36311491 634.6625776 C-15.35944885 633.9062284 -15.35578279 633.14987921 -15.35200564 632.37061033 C-15.33718045 629.31203611 -15.32235523 626.25346188 -15.30752871 623.19488767 C-15.07174548 574.55428917 -14.83997516 525.91367313 -14.61162228 477.27303919 C-14.55372456 464.94093182 -14.49581605 452.60882451 -14.43784089 440.27671751 C-14.43426955 439.51701793 -14.43069821 438.75731835 -14.42701864 437.97459758 C-14.31687924 414.54863369 -14.20568632 391.122675 -14.09337945 367.6967214 C-14.08985331 366.96119314 -14.08632718 366.22566488 -14.08269419 365.46784789 C-14.00528324 349.32279436 -13.92760743 333.17774212 -13.84969074 317.03269102 C-13.8218255 311.25844274 -13.79397596 305.48419438 -13.76613243 299.70994599 C-13.7592085 298.27413041 -13.7522835 296.83831483 -13.74535742 295.40249926 C-13.6355466 272.63694722 -13.52809701 249.87138483 -13.42182169 227.10581604 C-13.31206944 203.60039724 -13.19912541 180.09499617 -13.08260478 156.58960978 C-13.01570078 143.07585055 -12.95111132 129.56208509 -12.8899403 116.04829868 C-12.84877065 107.00584938 -12.80446224 97.96341885 -12.75768642 88.92099683 C-12.7311997 83.78430728 -12.70598227 78.64762115 -12.68460967 73.51090756 C-12.63668577 62.1643958 -12.56381115 50.8187065 -12.42748523 39.47288336 C-12.39988712 37.11145118 -12.37629005 34.7499987 -12.35272812 32.38852323 C-12.31294687 28.69710828 -12.25095187 25.00670423 -12.17079639 21.31595137 C-12.13193536 19.35041096 -12.11134428 17.38453553 -12.09141774 15.41871199 C-12.06073057 14.2565606 -12.03004341 13.09440921 -11.99842633 11.89704111 C-11.9794526 10.89416053 -11.96047888 9.89127996 -11.94093019 8.85800906 C-11.25015815 5.35807006 -9.87290844 3.64882491 -7.39995236 1.11703333 C-4.58817447 0.17977403 -2.90593262 -0.00577635 0 0 Z M8.60004764 21.11703333 C8.59513041 22.29195306 8.59021319 23.46687279 8.58514696 24.67739614 C8.48913691 47.61170771 8.39263959 70.5460167 8.29340702 93.48031458 C8.20517096 113.85282423 8.20517096 113.85282423 8.11931949 134.22534403 C7.91560953 183.26373921 7.70083974 232.30198811 7.37690311 281.33975061 C7.3719773 282.08577048 7.36705149 282.83179035 7.36197642 283.60041689 C7.31610345 290.54244251 7.26997111 297.48446641 7.22365828 304.42648911 C6.84373124 361.39213333 6.49615367 418.35786397 6.21113162 475.32406458 C6.20738628 476.07221128 6.20364093 476.82035798 6.19978208 477.5911758 C6.0992567 497.68377968 6.00133294 517.77639596 5.90439549 537.86901743 C5.85279251 548.56449411 5.80077546 559.25996874 5.74862438 569.95544275 C5.61309873 597.75882938 5.47792363 625.56221764 5.34446197 653.36561426 C5.34027941 654.23685921 5.33609684 655.10810417 5.33178753 656.00575048 C5.31062653 660.41379398 5.28946877 664.8218375 5.26831107 669.22988101 C5.25983069 670.9966271 5.2513503 672.76337318 5.24286991 674.53011927 C5.23866826 675.40554641 5.23446662 676.28097355 5.23013766 677.18292878 C5.09355983 705.63578442 4.954393 734.08862656 4.81367052 762.54146199 C4.66227417 793.15429768 4.51314343 823.76714362 4.36647617 854.38000235 C4.35020986 857.77357773 4.33393539 861.16715308 4.31765514 864.5607284 C4.31365219 865.39536609 4.30964924 866.23000378 4.30552498 867.08993352 C4.25053305 878.54746591 4.19428923 890.00499148 4.13697135 901.46251247 C3.81811967 965.21372947 3.53833799 1028.96466443 3.50291981 1092.71676802 C3.50008941 1097.54489433 3.49496121 1102.37301464 3.48890155 1107.20113787 C3.48104884 1113.57470987 3.47879451 1119.94826841 3.48062179 1126.32184514 C3.48057833 1128.65084514 3.47887646 1130.97984576 3.475433 1133.30884322 C3.47115375 1136.46771201 3.47304164 1139.62651541 3.47666603 1142.78538355 C3.4740447 1143.71251656 3.47142337 1144.63964956 3.4687226 1145.59487751 C3.33861755 1149.99346142 3.33861755 1149.99346142 4.60004764 1154.11703333 C4.79308724 1157.03434904 4.93070304 1159.93444294 5.02973514 1162.85531458 C5.10140446 1164.70770454 5.1734422 1166.56008027 5.24579959 1168.41244349 C5.28274936 1169.39271509 5.31969913 1170.3729867 5.35776859 1171.3829635 C8.78430543 1260.39445796 24.74708555 1347.77598546 64.60004764 1434.11703333 C65.0133533 1435.01599329 65.42665897 1435.91495325 65.85248905 1436.84115442 C72.3031125 1450.84621241 79.43860148 1464.31526141 87.17524295 1477.65072474 C88.39358318 1479.75964745 89.59382775 1481.87649524 90.77973514 1484.00375208 C99.50508127 1499.58989942 109.29550177 1514.53512879 119.60004764 1529.11703333 C120.11180545 1529.84277552 120.62356327 1530.5685177 121.15082889 1531.31625208 C128.62162468 1541.87715804 136.41127263 1552.1045703 144.60004764 1562.11703333 C145.76987186 1563.56142786 145.76987186 1563.56142786 146.96332889 1565.03500208 C155.69251248 1575.77980532 164.62703919 1586.27824645 174.04784732 1596.42205652 C175.96159402 1598.51183593 177.83992012 1600.63209859 179.72431522 1602.74838099 C184.17935983 1607.70024891 188.79472101 1612.4570844 193.51020389 1617.16000208 C194.32194568 1617.9727006 195.13368747 1618.78539911 195.9700275 1619.62272486 C197.67042483 1621.32379684 199.3720621 1623.02363022 201.07490116 1624.72225794 C203.66321419 1627.30519849 206.24612325 1629.89345673 208.82856327 1632.4822677 C210.49295618 1634.14599998 212.15765918 1635.80942212 213.82270389 1637.47250208 C214.58438373 1638.23620615 215.34606357 1638.99991022 216.13082462 1639.78675684 C220.79451649 1644.43034202 225.59483027 1648.84467046 230.60004764 1653.11703333 C231.72914727 1654.09076747 232.85808483 1655.06468962 233.98676639 1656.03890833 C236.92370247 1658.5585412 239.86652957 1661.07127425 242.8095203 1663.5838302 C244.48832416 1665.0213661 246.16022789 1666.46649654 247.83051639 1667.91390833 C255.44217494 1674.47821023 263.34674139 1680.56251902 271.44037967 1686.51937708 C273.64861533 1688.15296222 275.8420164 1689.80499511 278.03364139 1691.46078333 C317.10101741 1720.8363167 360.46395144 1745.40080558 405.60004764 1764.11703333 C406.54460819 1764.51342005 407.48916873 1764.90980677 408.46235233 1765.3182052 C435.5984057 1776.69471117 463.19542575 1786.4057273 491.78998905 1793.4197677 C494.58116421 1794.11234774 497.36188211 1794.83840926 500.14301639 1795.57015833 C525.67139522 1802.15203279 551.94256654 1806.26519728 578.10004764 1809.42953333 C579.87883304 1809.65020472 579.87883304 1809.65020472 581.6935535 1809.87533411 C607.13457786 1812.75545007 632.71348966 1813.45729522 658.2938953 1813.37777552 C661.99160707 1813.36636094 665.68903142 1813.37320137 669.38673358 1813.38464579 C695.90775483 1813.45432135 722.27701508 1812.31600295 748.60004764 1808.86703333 C749.43402072 1808.75999079 750.26799381 1808.65294825 751.1272388 1808.54266199 C767.43389241 1806.43693811 783.53844684 1803.65082156 799.60004764 1800.11703333 C800.42389957 1799.93616175 801.2477515 1799.75529016 802.09656864 1799.56893763 C834.17859093 1792.56212019 834.17859093 1792.56212019 865.60004764 1783.11703333 C866.27021915 1782.88778162 866.94039066 1782.65852991 867.63087039 1782.42233118 C890.40211301 1774.63122752 912.73113946 1766.17924115 934.60004764 1756.11703333 C935.70509647 1755.60930384 936.8101453 1755.10157434 937.94868045 1754.57845911 C959.92266374 1744.40822272 980.99702421 1732.82175143 1001.60004764 1720.11703333 C1002.42166385 1719.61139856 1003.24328006 1719.1057638 1004.08979373 1718.58480677 C1013.96059861 1712.48932836 1023.59019993 1706.17368862 1032.94819217 1699.31722864 C1034.60081159 1698.11647827 1036.26705958 1696.93786621 1037.93989139 1695.76547083 C1051.34410188 1686.35667196 1064.24793066 1676.29181268 1076.66645389 1665.61703333 C1079.39615789 1663.29078758 1082.17313515 1661.0427718 1084.97504764 1658.80453333 C1091.41800392 1653.56201141 1097.40049882 1647.84710404 1103.43085819 1642.14266809 C1105.52235351 1640.18958574 1107.63713807 1638.26390289 1109.7567554 1636.34144434 C1116.28050504 1630.41364762 1122.58182423 1624.29026951 1128.80195194 1618.04550013 C1130.42556993 1616.41646761 1132.05454367 1614.79292604 1133.68403202 1613.1697677 C1139.20084377 1607.65646258 1144.53313142 1602.05014806 1149.60004764 1596.11703333 C1151.21972581 1594.34133112 1152.84416482 1592.56995025 1154.47504764 1590.80453333 C1158.57204691 1586.31204695 1162.4612519 1581.69796051 1166.27582889 1576.96468958 C1168.27272087 1574.51807739 1170.31532387 1572.12119596 1172.38325077 1569.73470911 C1194.5840614 1544.00342022 1214.59032536 1514.85336311 1231.3432117 1485.32308802 C1232.74484326 1482.86288158 1234.16773523 1480.41562834 1235.59223514 1477.96859583 C1241.65293644 1467.522771 1247.40958984 1457.02049291 1252.60004764 1446.11703333 C1253.07023319 1445.13944056 1253.54041873 1444.16184778 1254.02485233 1443.15463099 C1267.29619189 1415.48326784 1277.85332637 1387.146872 1287.33344608 1357.99032434 C1288.4526456 1354.55366451 1289.60757583 1351.12984799 1290.76801639 1347.70687708 C1297.02067286 1328.9696171 1300.87141917 1309.48176783 1304.60004764 1290.11703333 C1304.97927371 1288.1776388 1304.97927371 1288.1776388 1305.36616092 1286.19906458 C1309.01067054 1267.41386451 1311.48450154 1248.5913195 1313.41254764 1229.55453333 C1313.57039234 1228.00095118 1313.57039234 1228.00095118 1313.73142581 1226.41598352 C1314.41020183 1219.65415698 1315.03223376 1212.88906537 1315.60004764 1206.11703333 C1315.66254703 1205.39356714 1315.72504642 1204.67010096 1315.78943973 1203.92471155 C1317.20000233 1186.88439593 1316.67406347 1169.70032148 1316.60004764 1152.61703333 C1316.57636741 1147.08017724 1316.55609394 1141.54334758 1316.54410892 1136.00645288 C1316.53764069 1133.80495248 1316.52515337 1131.60353917 1316.51240116 1129.40206751 C1316.50877244 1128.06552042 1316.50542024 1126.72897254 1316.50239139 1125.39242395 C1316.49715457 1124.22537928 1316.49191776 1123.0583346 1316.48652225 1121.85592493 C1316.60004764 1119.11703333 1316.60004764 1119.11703333 1317.60004764 1117.11703333 C1318.91574278 1108.36170815 1318.77035944 1099.46002247 1318.80727725 1090.62873682 C1318.81726073 1089.07010445 1318.82765575 1087.51147467 1318.83842175 1085.95284751 C1318.86681983 1081.67086403 1318.88942032 1077.38886666 1318.91108314 1073.10684454 C1318.93576179 1068.43566372 1318.96590963 1063.76451766 1318.99537712 1059.09336504 C1319.04645624 1050.88034135 1319.09411912 1042.66730334 1319.13960224 1034.45424685 C1319.20778976 1022.15137162 1319.28167013 1009.84853501 1319.35680076 997.54570045 C1319.48434193 976.6443058 1319.60796583 955.74288977 1319.72953372 934.8414596 C1319.91282755 903.34653525 1320.10263605 871.85165183 1320.29462772 840.35677942 C1320.29869938 839.68881327 1320.30277105 839.02084712 1320.30696609 838.33263957 C1320.40789632 821.77628149 1320.50914014 805.21992533 1320.61057932 788.66357036 C1320.67169977 778.68738372 1320.73261733 768.71119585 1320.79339102 758.73500709 C1321.27046519 680.42998492 1321.7719633 602.12515338 1322.66855897 470.08550829 C1322.68595967 467.53872966 1322.70335669 464.99195102 1322.7207531 462.44517237 C1323.05724338 413.1874444 1323.39626454 363.92973394 1323.7362641 314.67203009 C1323.79916054 305.55982968 1323.86203618 296.44762912 1323.92491107 287.33542856 C1323.94774188 284.02665987 1323.97057276 280.71789118 1323.99340373 277.40912249 C1323.99904188 276.59201112 1324.00468004 275.77489975 1324.01048905 274.93302742 C1324.04450374 270.00349749 1324.07852209 265.07396758 1324.11254322 260.14443769 C1324.22823162 243.38154195 1324.34386119 226.6186458 1324.45932346 209.8557485 C1324.46996565 208.31079877 1324.48060791 206.76584904 1324.49125022 205.22089931 C1324.5541674 196.08706271 1324.5541674 196.08706271 1324.61706939 186.95322602 C1324.73756445 169.45486494 1324.85846709 151.9565068 1324.98011461 134.45815369 C1325.0547735 123.71763173 1325.12908533 112.97710741 1325.20313473 102.23658123 C1325.25354243 94.92803751 1325.30436934 87.61949689 1325.35554021 80.31095847 C1325.38640514 75.88694732 1325.41683764 71.46293328 1325.44714344 67.03891826 C1325.46100127 65.0283601 1325.47503316 63.01780312 1325.48926327 61.00724756 C1325.56676429 50.04360039 1325.61996146 39.08098351 1325.60004764 28.11703333 C1275.17910007 27.44384194 1224.75819723 27.00138379 1174.33344608 26.74398645 C1173.29638214 26.73868513 1173.29638214 26.73868513 1172.23836741 26.73327671 C1154.64201165 26.64345906 1137.04563307 26.55856776 1119.44924443 26.47547305 C1107.68672272 26.41991684 1095.92420912 26.36286792 1084.16170078 26.30454859 C1083.3659522 26.30060341 1082.57020363 26.29665824 1081.75034146 26.29259351 C1077.70195821 26.27251395 1073.65357509 26.25240891 1069.60519203 26.23229232 C1041.16566192 26.09100252 1012.72612082 25.95206379 984.28657108 25.81478724 C982.58251928 25.806561 980.87846747 25.7983347 979.17441567 25.79010835 C978.33032191 25.78603356 977.48622815 25.78195878 976.61655579 25.77776051 C972.35039226 25.75716578 968.08422873 25.73656959 963.81806522 25.71597132 C962.97300087 25.71189136 962.12793652 25.7078114 961.25726416 25.70360781 C941.7501032 25.60941476 922.24294589 25.51447986 902.73578983 25.41927942 C901.90220288 25.41521184 901.06861593 25.41114427 900.20976878 25.40695343 C880.96266362 25.31302884 861.71556019 25.21875874 842.46845966 25.12389215 C841.64614419 25.11983941 840.82382872 25.11578667 839.9765946 25.11161112 C832.55441799 25.07502877 825.13224143 25.03843466 817.71006521 25.00177434 C800.35334716 24.91604591 782.99662711 24.83082429 765.63989597 24.74778589 C747.97003103 24.66322758 730.30017119 24.577688 712.63032108 24.4900802 C711.91451412 24.48653241 711.19870716 24.48298461 710.46120908 24.4793293 C657.33698428 24.21571615 604.21343741 23.87287349 551.08982783 23.50716041 C543.36388534 23.45397478 535.63794226 23.40087514 527.91199832 23.34789881 C526.7886334 23.34019252 526.7886334 23.34019252 525.64257423 23.33233056 C497.67701433 23.14060106 469.71138016 22.96861172 441.74555545 22.81991419 C440.77911381 22.81477437 439.81267217 22.80963455 438.81694441 22.80433897 C427.33010767 22.74342477 415.84326163 22.6844036 404.35640981 22.62640818 C397.25920201 22.59057519 390.16199657 22.55429907 383.06479221 22.51779207 C360.30865835 22.4007824 337.55251792 22.2851546 314.79637112 22.17069039 C297.19940875 22.08211794 279.6024593 21.9912043 262.00551411 21.899287 C243.48738281 21.80258514 224.96924311 21.70765246 206.45109396 21.6144289 C196.23185161 21.56295172 186.01261341 21.51087464 175.79338413 21.45685991 C120.06184968 21.16290663 64.33234333 21.06261192 8.60004764 21.11703333 Z " fill="#010000" transform="translate(1235.3999523594975,110.882966671139)"/>
</svg>
