<svg xmlns="http://www.w3.org/2000/svg" xmlns:xlink="http://www.w3.org/1999/xlink" width="480" zoomAndPan="magnify" viewBox="0 0 360 359.999987" height="480" preserveAspectRatio="xMidYMid meet" version="1.0"><defs><clipPath id="d447e98782"><path d="M 116 14 L 245.769531 14 L 245.769531 347 L 116 347 Z M 116 14 " clip-rule="nonzero"/></clipPath></defs><g clip-path="url(#d447e98782)"><path fill="#000000" d="M 123.335938 340.214844 C 130.203125 347.0625 146.847656 346.285156 155.695312 346.308594 C 174.257812 346.40625 192.785156 345.132812 211.367188 345.175781 C 220.671875 345.199219 233.8125 345.132812 242.023438 340.171875 C 244.378906 338.734375 245.117188 335.855469 245.117188 333.332031 C 245.117188 330.210938 243.558594 325.671875 243.375 322.769531 C 243.070312 317.441406 243.742188 312.003906 243.601562 306.652344 C 243.167969 289.757812 242.023438 273.15625 242.078125 256.175781 C 242.097656 247.445312 242.53125 238.957031 243.308594 230.28125 C 244.183594 220.542969 242.507812 210.757812 242.691406 200.980469 C 243.027344 184.238281 240.929688 167.300781 243.308594 150.675781 C 244.511719 142.046875 245.582031 128.476562 240.972656 120.515625 C 235.542969 111.074219 230.113281 105.066406 220.53125 99.660156 C 214.863281 96.488281 208.644531 95 206.144531 88.34375 C 203.417969 81.167969 206.023438 68.667969 206.023438 60.996094 C 206.023438 53.714844 206.878906 52.734375 209.582031 46.679688 C 210.796875 43.984375 209.117188 41.371094 206.816406 40.046875 C 204.53125 38.695312 201.742188 38.449219 198.972656 38.425781 C 198.953125 35.222656 198.691406 32.019531 199.742188 28.75 C 200.832031 25.296875 200.488281 22.277344 199.742188 19.007812 C 198.390625 13.117188 180.648438 15.339844 177.046875 15.296875 C 171.390625 15.242188 158.488281 15.222656 156.488281 22.484375 C 155.089844 27.585938 155.554688 33.53125 156.628906 39.28125 C 150.527344 40.371094 143.789062 42.992188 147.3125 49 C 150.742188 54.824219 150.644531 58.515625 150.203125 65.636719 C 149.671875 74.289062 150.160156 83.058594 149.835938 91.710938 C 146.480469 98.148438 139.710938 96.554688 134.246094 99.035156 C 129.878906 101.007812 126.363281 104.300781 123.476562 108.109375 C 114.453125 120.167969 116.898438 132.347656 117.894531 146.609375 C 120.480469 183.773438 119.6875 221.082031 120.199219 258.277344 C 120.457031 275.753906 121.324219 293.199219 121.507812 310.6875 C 121.59375 319.121094 116.335938 333.234375 123.335938 340.214844 " fill-opacity="1" fill-rule="nonzero"/><path fill="#000000" d="M 157.859375 44.988281 C 157.742188 44.523438 157.621094 44.015625 157.503906 43.53125 C 157.136719 43.550781 156.789062 43.574219 156.410156 43.59375 C 154.851562 43.679688 153.964844 44.039062 153.480469 44.5 C 154.90625 44.664062 156.367188 44.824219 157.859375 44.988281 Z M 159.503906 51.578125 C 159.34375 50.972656 159.203125 50.371094 159.039062 49.765625 C 157.558594 49.605469 156.085938 49.441406 154.648438 49.28125 C 154.90625 49.699219 155.15625 50.089844 155.339844 50.433594 C 156.691406 50.855469 158.085938 51.253906 159.503906 51.578125 Z M 182.371094 74.914062 C 188.621094 75.097656 190.113281 66.691406 191 58.621094 C 187.117188 58.621094 183.179688 58.351562 179.277344 58.277344 C 174.484375 58.210938 169.691406 57.976562 164.945312 57.328125 C 165.808594 62.894531 167.085938 68.945312 168.339844 73.886719 C 168.882812 76.023438 179.902344 74.816406 182.371094 74.914062 Z M 191.488281 53.84375 C 191.585938 52.949219 191.695312 52.042969 191.789062 51.222656 C 182.652344 51.804688 173.089844 51.179688 163.972656 50.273438 C 163.992188 50.414062 164.046875 50.554688 164.070312 50.695312 C 164.113281 50.855469 164.089844 50.972656 164.089844 51.113281 C 164.113281 51.179688 164.15625 51.222656 164.15625 51.320312 C 164.210938 51.71875 164.253906 52.105469 164.296875 52.507812 C 170.386719 53.457031 176.667969 53.640625 182.714844 53.640625 C 185.722656 53.640625 188.621094 53.820312 191.488281 53.84375 Z M 192.925781 46.054688 C 193.371094 44.964844 193.597656 43.832031 193.738281 42.710938 C 189.691406 42.785156 185.582031 43.195312 182.230469 43.195312 C 175.597656 43.195312 168.945312 43.089844 162.328125 43.292969 C 162.488281 44.039062 162.652344 44.804688 162.8125 45.515625 C 172.601562 46.539062 182.976562 47.304688 192.765625 46.519531 C 192.820312 46.355469 192.882812 46.214844 192.925781 46.054688 Z M 194.539062 29.777344 C 197.792969 19.613281 187.789062 20.023438 180.648438 19.980469 C 172.203125 19.914062 160.671875 19.074219 160.671875 30.046875 C 160.671875 32.902344 160.976562 35.804688 161.460938 38.675781 C 162.652344 38.578125 163.625 38.558594 164.15625 38.558594 C 173.835938 38.558594 183.503906 38.558594 193.1875 38.558594 C 193.414062 38.558594 193.671875 38.558594 193.898438 38.535156 C 193.835938 35.589844 193.597656 32.644531 194.539062 29.777344 Z M 202.53125 52.34375 C 202.53125 51.554688 202.953125 50.628906 203.460938 49.679688 C 201.417969 50.109375 199.328125 50.457031 197.210938 50.714844 C 197.015625 51.6875 196.851562 52.644531 196.691406 53.617188 C 198.648438 53.414062 200.585938 53.011719 202.53125 52.34375 Z M 204.878906 44.566406 C 204.628906 44.222656 204.1875 43.917969 203.515625 43.679688 C 202.042969 43.21875 200.390625 42.949219 198.671875 42.808594 C 198.625 43.011719 198.625 43.21875 198.574219 43.433594 C 198.390625 44.242188 198.25 45.082031 198.085938 45.914062 C 200.390625 45.570312 202.671875 45.125 204.878906 44.566406 Z M 220.628906 332.1875 C 220.164062 332.003906 219.675781 331.820312 219.1875 331.605469 C 204.328125 325.230469 188.839844 324.398438 172.699219 326.179688 C 162.835938 327.269531 153.652344 330.167969 144.089844 332.628906 C 143.324219 332.835938 142.5 333.050781 141.691406 333.253906 C 152.667969 337.851562 170.546875 335.800781 181.210938 335.054688 C 189.734375 334.484375 198.140625 332.371094 206.695312 332.371094 C 211.183594 332.371094 215.996094 332.652344 220.628906 332.1875 Z M 229.019531 154.386719 C 229.324219 149.089844 229.160156 144.109375 227.863281 138.90625 C 226.726562 134.367188 226.144531 129.46875 224.8125 124.808594 C 222.929688 118.195312 227.398438 117.265625 217.046875 113.71875 C 210.558594 111.496094 193.066406 111.097656 199.15625 104.300781 C 195.976562 103.628906 193.328125 103.910156 191.976562 100.265625 C 191.695312 99.542969 191.789062 98.484375 192.363281 97.988281 C 199.027344 92.378906 188.089844 93.542969 184.597656 90.058594 C 184.066406 89.53125 183.722656 88.550781 184.015625 87.804688 C 185.410156 84.277344 187.398438 82.519531 187.625 79.066406 C 186.273438 79.410156 184.597656 79.550781 182.371094 79.550781 C 179.417969 79.550781 173.273438 80.640625 168.761719 79.832031 C 168.601562 80.804688 168.460938 81.804688 168.4375 82.800781 C 168.480469 82.863281 168.558594 82.980469 168.785156 83.144531 C 169.042969 83.359375 169.292969 83.566406 169.574219 83.769531 C 170.113281 84.253906 170.460938 84.792969 170.667969 85.484375 C 171 86.695312 170.253906 88.019531 169.042969 88.34375 C 166.882812 88.925781 164.597656 89.011719 162.621094 88.105469 C 162.597656 88.484375 162.574219 88.851562 162.53125 89.230469 C 162.996094 89.273438 163.464844 89.457031 163.851562 89.875 C 167 93.210938 173.738281 88.625 175.316406 94.375 C 176.691406 99.359375 173.597656 103.835938 169.605469 106.273438 C 166.523438 108.152344 162.714844 108.851562 159.527344 110.914062 C 157.601562 112.164062 153.089844 113.511719 150.828125 113.859375 C 145.671875 114.667969 138.738281 119.703125 134.042969 122.714844 C 134.203125 124.042969 134.386719 125.691406 134.714844 125.855469 C 135.382812 126.242188 135.902344 127.050781 135.859375 127.871094 C 135.082031 146.730469 124.460938 173.148438 155.414062 168.929688 C 166.132812 167.464844 177.761719 166.65625 188.578125 166.148438 C 198.140625 165.683594 205.648438 168.53125 214.949219 168.46875 C 225.441406 168.347656 228.492188 164.214844 229.019531 154.386719 Z M 232.675781 231.308594 C 232.902344 221.167969 230.394531 211.359375 230.4375 201.261719 C 230.492188 193.472656 230.890625 185.695312 230.792969 177.929688 C 216.484375 178.757812 202.042969 180.269531 187.746094 179.460938 C 174.929688 178.738281 162.921875 178.652344 150.203125 179.664062 C 142.253906 179.320312 131.207031 175.511719 133.070312 188.371094 C 134.226562 196.277344 133.78125 204.628906 133.847656 212.632812 C 133.988281 228.828125 133.921875 244.859375 134.269531 260.996094 C 134.484375 269.5625 135.199219 276.769531 133.621094 285.195312 C 132.019531 293.75 134.898438 301.777344 133.878906 310.105469 C 132.367188 322.164062 140.898438 319.457031 149.414062 317.804688 C 156.628906 316.4375 163.808594 314.765625 171.046875 313.492188 C 185.929688 310.847656 203.214844 311.195312 217.632812 316.296875 C 229.984375 320.6875 229.140625 308.042969 229.257812 300.890625 C 229.324219 295.054688 229.238281 289.207031 229.386719 283.359375 C 229.90625 265.9375 232.296875 248.675781 232.675781 231.308594 Z M 237.445312 251.71875 C 237.445312 241.835938 239.730469 231.675781 238.984375 221.835938 C 238.324219 213.441406 237.910156 205.234375 238.28125 196.808594 C 238.960938 182.222656 236.34375 167.679688 238.421875 153.148438 C 240.625 137.679688 240.484375 121.140625 227.929688 110.167969 C 220.867188 104.019531 206.792969 101.636719 203.214844 92.152344 C 200.585938 85.183594 202.53125 80.964844 202.53125 73.746094 C 202.53125 68.234375 202.53125 62.710938 202.53125 57.210938 C 200.347656 57.855469 198.117188 58.234375 195.878906 58.4375 C 195.066406 63.101562 194.179688 67.769531 192.949219 72.25 C 192.644531 73.335938 192.320312 74.242188 191.976562 75.03125 C 191.976562 75.054688 191.976562 75.054688 191.976562 75.054688 C 192.503906 78.203125 194.503906 84.253906 190.808594 86.46875 C 187.367188 88.527344 190.375 87.070312 193.066406 87.738281 C 194.785156 88.160156 197.394531 89.292969 198.671875 90.609375 C 200.25 92.238281 202.933594 95.527344 200.691406 97.804688 C 196.949219 101.589844 199.675781 98.667969 204.488281 101.496094 C 206.089844 102.445312 205.882812 104.515625 204.488281 105.507812 C 204.066406 105.808594 203.722656 105.949219 203.441406 106.015625 C 205.851562 106.4375 208.273438 106.835938 210.71875 107.265625 C 215.609375 108.128906 221.535156 109.617188 225.441406 112.929688 C 229.28125 116.199219 230.699219 117.730469 230.046875 122.832031 C 229.625 126.296875 232.375 128.984375 232.375 132.511719 C 232.375 138.746094 234.191406 144.851562 233.835938 151.109375 C 233.628906 155.058594 234.980469 161.832031 233.226562 165.382812 C 228.535156 174.886719 216.367188 173.105469 207.324219 173.105469 C 204.671875 173.105469 196.582031 170.324219 196.203125 170.324219 C 191.183594 170.6875 186.457031 170.949219 181.441406 171.855469 C 175.945312 172.847656 169.769531 173.03125 164.15625 173.105469 C 153.804688 173.226562 141.128906 176.601562 133.070312 168.554688 C 125.832031 161.347656 128.34375 151.507812 128.546875 142.207031 C 128.582031 140.761719 131.859375 129.769531 131.109375 129.078125 C 129.855469 127.894531 129.714844 126.804688 129.660156 125.550781 C 128.6875 126.242188 127.78125 126.867188 126.179688 127.085938 C 125.195312 127.222656 124.113281 126.296875 123.929688 125.390625 C 122.273438 117.0625 131.316406 109.425781 138.53125 105.875 C 138.878906 105.25 139.460938 104.742188 140.347656 104.675781 C 143.710938 104.351562 147.152344 101.636719 150.246094 100.144531 C 151.898438 99.359375 155.621094 98.710938 157.382812 97.664062 C 156.648438 96.792969 155.761719 95.90625 155.664062 94.234375 C 155.621094 93.101562 156.996094 92.078125 157.382812 91.105469 C 158.183594 89.25 157.945312 86.585938 157.945312 84.558594 C 157.945312 84.09375 158.109375 83.726562 158.292969 83.402344 C 157.644531 81.9375 157.253906 80.339844 157.179688 78.765625 C 157.039062 75.765625 161.710938 75.785156 161.828125 78.765625 C 161.90625 80.339844 162.53125 82.238281 163.742188 83.328125 C 163.765625 83.328125 163.765625 83.328125 163.765625 83.359375 C 163.789062 81.386719 164.230469 79.53125 164.4375 77.597656 C 164.316406 77.4375 164.175781 77.296875 164.089844 77.136719 C 162.714844 74.816406 163.269531 71.664062 162.996094 69.109375 C 162.554688 64.792969 161.300781 60.714844 160.390625 56.539062 C 158.757812 56.21875 157.136719 55.839844 155.554688 55.375 C 155.371094 67.675781 154.992188 80.058594 154.464844 92.3125 C 154.464844 92.703125 154.34375 93.046875 154.183594 93.328125 C 154.160156 93.371094 154.183594 93.425781 154.160156 93.46875 C 152.484375 97.179688 149.921875 99.757812 145.855469 100.847656 C 137.222656 103.144531 130.40625 104.804688 125.335938 113.351562 C 119.808594 122.648438 121.527344 131.929688 122.253906 142.15625 C 122.859375 151.066406 123.367188 160 123.691406 168.910156 C 124.296875 186.785156 124.460938 204.648438 124.546875 222.535156 C 124.742188 256.84375 127.78125 291.753906 124.902344 325.875 C 123.710938 339.953125 136.128906 340.980469 147.410156 341.484375 C 156.226562 341.90625 165.042969 341.605469 173.855469 341.261719 C 191.042969 340.570312 208.925781 341.886719 225.949219 339.425781 C 234.308594 338.21875 239.027344 337.730469 239.027344 328.574219 C 237.121094 330.472656 235.023438 331.863281 232.773438 332.671875 C 232.632812 333.210938 232.277344 333.675781 231.628906 333.976562 C 224.714844 337.226562 217.554688 337.007812 209.996094 337.007812 C 199.003906 337.007812 188.320312 339.707031 177.351562 339.707031 C 166.4375 339.707031 154.972656 340.773438 144.15625 339.242188 C 137.925781 338.359375 137.039062 336.988281 133.414062 333.578125 C 133.070312 333.460938 132.710938 333.375 132.367188 333.210938 C 126.503906 330.589844 126.40625 325.066406 129.78125 320.664062 C 128.222656 317.710938 129.109375 314.375 129.230469 310.105469 C 129.433594 301.269531 126.96875 292.800781 129.132812 283.964844 C 131.695312 273.617188 130.039062 261.203125 130.019531 250.46875 C 129.976562 239.257812 129.335938 228.007812 129.25 216.765625 C 129.152344 205.835938 129.554688 194.726562 127.410156 184 C 124.644531 170.34375 142.230469 174.679688 150.203125 175.027344 C 162.945312 174.011719 174.929688 174.3125 187.746094 174.820312 C 202.855469 175.425781 218.019531 173.9375 233.097656 173.148438 C 234.398438 173.085938 235.402344 174.238281 235.414062 175.46875 C 235.792969 188.457031 234.65625 201.199219 236.300781 214.144531 C 237.859375 226.507812 237.285156 238.933594 235.996094 251.296875 C 234.050781 270.132812 235.976562 289.507812 233.445312 308.207031 C 232.277344 316.878906 229.34375 326.480469 218.691406 321.796875 C 196.851562 312.21875 170.667969 317.277344 148.503906 322.8125 C 145.019531 323.675781 138.714844 325.8125 134.507812 324.582031 C 134.996094 329.75 137.761719 330.957031 142.859375 328.175781 C 144.945312 327.449219 147.066406 326.824219 149.207031 326.273438 C 153.578125 325.25 158.183594 323.253906 162.597656 322.703125 C 169.972656 321.777344 177.089844 321.152344 184.511719 321.152344 C 192.386719 321.152344 201.375 319.84375 209 322.347656 C 219.230469 325.691406 230.144531 334.367188 238.519531 321.90625 C 238.605469 321.777344 238.722656 321.636719 238.84375 321.519531 C 238.84375 315.226562 239.273438 308.929688 238.679688 302.605469 C 237.046875 285.539062 237.445312 268.859375 237.445312 251.71875 Z M 243.601562 306.652344 C 243.742188 312.003906 243.070312 317.441406 243.375 322.769531 C 243.558594 325.671875 245.117188 330.210938 245.117188 333.332031 C 245.117188 335.855469 244.378906 338.734375 242.023438 340.171875 C 233.8125 345.132812 220.671875 345.199219 211.367188 345.175781 C 192.785156 345.132812 174.257812 346.40625 155.695312 346.308594 C 146.847656 346.285156 130.203125 347.0625 123.34375 340.214844 C 116.335938 333.234375 121.59375 319.121094 121.507812 310.6875 C 121.324219 293.199219 120.457031 275.753906 120.199219 258.277344 C 119.6875 221.082031 120.480469 183.773438 117.894531 146.609375 C 116.898438 132.347656 114.453125 120.167969 123.476562 108.109375 C 126.363281 104.300781 129.878906 101.007812 134.246094 99.035156 C 139.710938 96.554688 146.480469 98.148438 149.835938 91.710938 C 150.160156 83.058594 149.671875 74.289062 150.203125 65.636719 C 150.644531 58.515625 150.742188 54.824219 147.3125 49 C 143.789062 42.992188 150.527344 40.371094 156.628906 39.28125 C 155.554688 33.53125 155.089844 27.585938 156.488281 22.484375 C 158.488281 15.222656 171.390625 15.242188 177.046875 15.296875 C 180.648438 15.339844 198.390625 13.117188 199.742188 19.007812 C 200.488281 22.277344 200.832031 25.296875 199.742188 28.75 C 198.691406 32.019531 198.953125 35.222656 198.972656 38.425781 C 201.742188 38.449219 204.53125 38.695312 206.816406 40.046875 C 209.117188 41.371094 210.796875 43.984375 209.582031 46.679688 C 206.878906 52.734375 206.023438 53.714844 206.023438 60.996094 C 206.023438 68.667969 203.417969 81.167969 206.144531 88.34375 C 208.652344 95 214.863281 96.488281 220.53125 99.660156 C 230.113281 105.066406 235.542969 111.074219 240.972656 120.515625 C 245.582031 128.476562 244.511719 142.046875 243.308594 150.675781 C 240.929688 167.300781 243.027344 184.238281 242.691406 200.980469 C 242.507812 210.757812 244.183594 220.542969 243.308594 230.28125 C 242.53125 238.957031 242.097656 247.445312 242.078125 256.175781 C 242.023438 273.15625 243.167969 289.757812 243.601562 306.652344 Z M 130.753906 119.328125 C 130.753906 119.304688 130.785156 119.285156 130.808594 119.285156 C 135.71875 116.21875 140.941406 113.296875 145.929688 110.40625 C 149.855469 108.109375 154.929688 108.011719 158.972656 105.765625 C 160.714844 104.785156 162.695312 103.273438 164.71875 102.820312 C 168.394531 101.980469 174.117188 95.90625 168.179688 95.789062 C 165.507812 95.746094 163.246094 95.464844 161.300781 93.847656 C 161.019531 94.742188 161.277344 95.140625 162.292969 96.457031 C 163.128906 97.523438 163.183594 98.667969 162.292969 99.734375 C 159.992188 102.519531 154.875 103.167969 151.714844 104.742188 C 148.808594 106.175781 146.058594 107.945312 142.945312 108.796875 C 142.761719 108.960938 142.554688 109.121094 142.296875 109.21875 C 138.316406 110.75 133.578125 115.3125 130.753906 119.328125 " fill-opacity="1" fill-rule="nonzero"/></g><path fill="#4a3733" d="M 238.984375 221.835938 C 239.730469 231.675781 237.445312 241.835938 237.445312 251.71875 C 237.445312 268.859375 237.046875 285.539062 238.679688 302.605469 C 239.273438 308.929688 238.84375 315.226562 238.84375 321.519531 C 238.722656 321.636719 238.605469 321.777344 238.519531 321.90625 C 230.144531 334.367188 219.230469 325.691406 209 322.347656 C 201.375 319.84375 192.386719 321.152344 184.511719 321.152344 C 177.089844 321.152344 169.972656 321.777344 162.597656 322.703125 C 158.183594 323.253906 153.578125 325.25 149.207031 326.273438 C 147.066406 326.824219 144.945312 327.449219 142.859375 328.175781 C 137.761719 330.957031 134.996094 329.75 134.507812 324.582031 C 138.714844 325.8125 145.019531 323.675781 148.503906 322.8125 C 170.667969 317.277344 196.851562 312.21875 218.691406 321.796875 C 229.34375 326.480469 232.277344 316.878906 233.445312 308.207031 C 235.976562 289.507812 234.050781 270.132812 235.996094 251.296875 C 237.285156 238.933594 237.859375 226.507812 236.300781 214.144531 C 234.65625 201.199219 235.792969 188.457031 235.414062 175.46875 C 235.402344 174.238281 234.398438 173.085938 233.097656 173.148438 C 218.019531 173.9375 202.855469 175.425781 187.746094 174.820312 C 174.929688 174.3125 162.945312 174.011719 150.203125 175.027344 C 142.230469 174.679688 124.644531 170.34375 127.410156 184 C 129.554688 194.726562 129.152344 205.835938 129.25 216.765625 C 129.335938 228.007812 129.976562 239.257812 130.019531 250.46875 C 130.039062 261.203125 131.695312 273.617188 129.132812 283.964844 C 126.96875 292.800781 129.433594 301.269531 129.230469 310.105469 C 129.109375 314.375 128.222656 317.710938 129.78125 320.664062 C 126.40625 325.066406 126.503906 330.589844 132.367188 333.210938 C 132.710938 333.375 133.070312 333.460938 133.414062 333.578125 C 137.039062 336.988281 137.925781 338.359375 144.15625 339.242188 C 154.972656 340.773438 166.4375 339.707031 177.351562 339.707031 C 188.320312 339.707031 199.003906 337.007812 209.996094 337.007812 C 217.554688 337.007812 224.714844 337.226562 231.628906 333.976562 C 232.277344 333.675781 232.632812 333.210938 232.773438 332.671875 C 235.023438 331.863281 237.121094 330.472656 239.027344 328.574219 C 239.027344 337.730469 234.308594 338.21875 225.949219 339.425781 C 208.925781 341.886719 191.042969 340.570312 173.855469 341.261719 C 165.042969 341.605469 156.226562 341.90625 147.410156 341.484375 C 136.128906 340.980469 123.710938 339.953125 124.902344 325.875 C 127.78125 291.753906 124.742188 256.84375 124.546875 222.535156 C 124.460938 204.648438 124.296875 186.785156 123.691406 168.910156 C 123.367188 160 122.859375 151.066406 122.253906 142.15625 C 121.527344 131.929688 119.808594 122.648438 125.335938 113.351562 C 130.40625 104.804688 137.222656 103.144531 145.855469 100.847656 C 149.921875 99.757812 152.484375 97.179688 154.160156 93.46875 C 154.183594 93.425781 154.160156 93.371094 154.183594 93.328125 C 154.34375 93.046875 154.464844 92.703125 154.464844 92.3125 C 154.992188 80.058594 155.371094 67.675781 155.554688 55.375 C 157.136719 55.839844 158.757812 56.21875 160.390625 56.539062 C 161.300781 60.714844 162.554688 64.792969 162.996094 69.109375 C 163.269531 71.664062 162.714844 74.816406 164.089844 77.136719 C 164.175781 77.296875 164.316406 77.4375 164.4375 77.597656 C 164.230469 79.53125 163.789062 81.386719 163.765625 83.359375 C 163.765625 83.328125 163.765625 83.328125 163.742188 83.328125 C 162.53125 82.238281 161.90625 80.339844 161.828125 78.765625 C 161.710938 75.785156 157.039062 75.765625 157.179688 78.765625 C 157.253906 80.339844 157.644531 81.9375 158.292969 83.402344 C 158.109375 83.726562 157.945312 84.09375 157.945312 84.558594 C 157.945312 86.585938 158.183594 89.25 157.382812 91.105469 C 156.996094 92.078125 155.621094 93.101562 155.664062 94.234375 C 155.761719 95.90625 156.648438 96.792969 157.382812 97.664062 C 155.621094 98.710938 151.898438 99.359375 150.246094 100.144531 C 147.152344 101.636719 143.710938 104.351562 140.347656 104.675781 C 139.460938 104.742188 138.878906 105.25 138.53125 105.875 C 131.316406 109.425781 122.273438 117.0625 123.929688 125.390625 C 124.113281 126.296875 125.195312 127.222656 126.179688 127.085938 C 127.78125 126.867188 128.6875 126.242188 129.660156 125.550781 C 129.714844 126.804688 129.855469 127.894531 131.109375 129.078125 C 131.859375 129.769531 128.582031 140.761719 128.546875 142.207031 C 128.34375 151.507812 125.832031 161.347656 133.070312 168.554688 C 141.128906 176.601562 153.804688 173.226562 164.15625 173.105469 C 169.769531 173.03125 175.945312 172.847656 181.441406 171.855469 C 186.457031 170.949219 191.183594 170.6875 196.203125 170.324219 C 196.582031 170.324219 204.671875 173.105469 207.324219 173.105469 C 216.367188 173.105469 228.535156 174.886719 233.226562 165.382812 C 234.980469 161.832031 233.628906 155.058594 233.835938 151.109375 C 234.191406 144.851562 232.375 138.746094 232.375 132.511719 C 232.375 128.984375 229.625 126.296875 230.046875 122.832031 C 230.699219 117.730469 229.28125 116.199219 225.441406 112.929688 C 221.535156 109.617188 215.609375 108.128906 210.71875 107.265625 C 208.273438 106.835938 205.851562 106.4375 203.441406 106.015625 C 203.722656 105.949219 204.066406 105.808594 204.488281 105.507812 C 205.882812 104.515625 206.089844 102.445312 204.488281 101.496094 C 199.675781 98.667969 196.949219 101.589844 200.691406 97.804688 C 202.933594 95.527344 200.25 92.238281 198.671875 90.609375 C 197.394531 89.292969 194.785156 88.160156 193.066406 87.738281 C 190.375 87.070312 187.367188 88.527344 190.808594 86.46875 C 194.503906 84.253906 192.503906 78.203125 191.976562 75.054688 C 191.976562 75.054688 191.976562 75.054688 191.976562 75.03125 C 192.320312 74.242188 192.644531 73.335938 192.949219 72.25 C 194.179688 67.769531 195.066406 63.101562 195.878906 58.4375 C 198.117188 58.234375 200.347656 57.855469 202.53125 57.210938 C 202.53125 62.710938 202.53125 68.234375 202.53125 73.746094 C 202.53125 80.964844 200.585938 85.183594 203.214844 92.152344 C 206.792969 101.636719 220.867188 104.019531 227.929688 110.167969 C 240.484375 121.140625 240.625 137.679688 238.421875 153.148438 C 236.34375 167.679688 238.960938 182.222656 238.28125 196.808594 C 237.910156 205.234375 238.324219 213.441406 238.984375 221.835938 " fill-opacity="1" fill-rule="nonzero"/><path fill="#78e027" d="M 204.726562 205.492188 C 206.089844 198.089844 205.667969 191.175781 199.4375 186.558594 C 191.714844 180.832031 182.390625 178.1875 173.230469 181.292969 C 167.269531 183.3125 159.15625 187.851562 156.929688 194.144531 C 154.570312 200.734375 150.582031 208.382812 156.734375 214.113281 C 159.765625 216.925781 157.882812 219.980469 159.71875 223.097656 C 160.792969 224.953125 163.34375 225.902344 165.691406 226.570312 C 165.527344 231.046875 165.085938 235.847656 168.363281 239.441406 C 171.488281 242.828125 174.441406 245.96875 179.277344 246.152344 C 182.976562 246.3125 187.441406 243.574219 190.210938 241.394531 C 192.09375 239.90625 192.09375 237.175781 193.304688 235.34375 C 195.003906 232.816406 194.277344 230.488281 193.996094 227.597656 C 193.953125 227.109375 193.757812 226.734375 193.53125 226.410156 C 194.808594 226.367188 196.203125 226.453125 197.597656 225.644531 C 199.578125 224.488281 199.804688 223.097656 199.804688 221.027344 C 199.804688 214.511719 203.679688 211.167969 204.726562 205.492188 Z M 205.160156 279.347656 C 206.144531 276.769531 219.46875 275.960938 215.714844 268.742188 C 213.1875 263.875 209.628906 264.804688 204.878906 262.710938 C 202.414062 261.621094 200.183594 260.953125 197.695312 259.648438 C 195.394531 258.472656 193.855469 257.953125 192.882812 257.75 C 193.109375 257.683594 193.347656 257.585938 193.628906 257.425781 C 200.042969 253.875 204.164062 255.773438 210.675781 254.683594 C 212.839844 254.320312 214.558594 251.695312 214.558594 249.625 C 214.558594 246.59375 212.882812 247.167969 213.347656 243.433594 C 213.835938 239.515625 211.910156 236.691406 208.070312 235.644531 C 205.992188 235.0625 202.628906 236.03125 201.480469 237.984375 C 198.550781 242.992188 198.507812 243.996094 191.648438 245.503906 C 184.25 247.144531 179.601562 249.703125 171.941406 247.003906 C 167.410156 245.40625 161.136719 243.347656 157.664062 239.863281 C 156.488281 238.707031 155.175781 236.894531 153.535156 236.335938 C 146.113281 233.789062 144.535156 241.210938 143.0625 246.519531 C 140.800781 254.707031 155.15625 256.886719 163.808594 258.578125 C 160.390625 260.714844 157.15625 263.25 153.414062 263.898438 C 153.414062 263.898438 153.414062 263.921875 153.394531 263.921875 C 147.875 264.707031 138.996094 269.507812 143.226562 276.746094 C 144.253906 278.460938 145.953125 279.367188 147.917969 279.066406 C 152.386719 278.417969 154.929688 282.984375 159.625 281.667969 C 161.644531 281.105469 164.597656 280.253906 164.804688 277.695312 C 165.183594 272.550781 167.550781 273.640625 172.484375 269.992188 C 188.253906 258.332031 191.085938 282.820312 203.539062 280.964844 C 204.371094 280.824219 204.910156 280.039062 205.160156 279.347656 Z M 230.4375 201.261719 C 230.394531 211.359375 232.902344 221.167969 232.675781 231.308594 C 232.296875 248.675781 229.90625 265.9375 229.386719 283.359375 C 229.238281 289.207031 229.324219 295.054688 229.257812 300.890625 C 229.140625 308.042969 229.984375 320.6875 217.632812 316.296875 C 203.214844 311.195312 185.929688 310.847656 171.046875 313.492188 C 163.808594 314.765625 156.628906 316.4375 149.414062 317.804688 C 140.898438 319.457031 132.367188 322.164062 133.878906 310.105469 C 134.898438 301.777344 132.019531 293.75 133.621094 285.195312 C 135.199219 276.769531 134.484375 269.5625 134.269531 260.996094 C 133.921875 244.859375 133.988281 228.828125 133.847656 212.632812 C 133.78125 204.628906 134.226562 196.277344 133.070312 188.371094 C 131.207031 175.511719 142.253906 179.320312 150.203125 179.664062 C 162.921875 178.652344 174.929688 178.738281 187.746094 179.460938 C 202.042969 180.269531 216.484375 178.757812 230.792969 177.929688 C 230.890625 185.695312 230.492188 193.472656 230.4375 201.261719 " fill-opacity="1" fill-rule="nonzero"/><path fill="#d6cfc7" d="M 227.863281 138.90625 C 229.160156 144.109375 229.324219 149.089844 229.019531 154.386719 C 228.492188 164.214844 225.441406 168.347656 214.949219 168.46875 C 205.648438 168.53125 198.140625 165.683594 188.578125 166.148438 C 177.761719 166.65625 166.132812 167.464844 155.414062 168.929688 C 124.460938 173.148438 135.082031 146.730469 135.859375 127.871094 C 135.902344 127.050781 135.382812 126.242188 134.714844 125.855469 C 134.386719 125.691406 134.203125 124.042969 134.042969 122.714844 C 138.738281 119.703125 145.671875 114.667969 150.828125 113.859375 C 153.089844 113.511719 157.601562 112.164062 159.527344 110.914062 C 162.714844 108.851562 166.523438 108.152344 169.605469 106.273438 C 173.597656 103.835938 176.691406 99.359375 175.316406 94.375 C 173.738281 88.625 167 93.210938 163.851562 89.875 C 163.464844 89.457031 162.996094 89.273438 162.53125 89.230469 C 162.574219 88.851562 162.597656 88.484375 162.621094 88.105469 C 164.597656 89.011719 166.882812 88.925781 169.042969 88.34375 C 170.253906 88.019531 171 86.695312 170.667969 85.484375 C 170.460938 84.792969 170.113281 84.253906 169.574219 83.769531 C 169.292969 83.566406 169.042969 83.359375 168.785156 83.144531 C 168.558594 82.980469 168.480469 82.863281 168.4375 82.800781 C 168.460938 81.804688 168.601562 80.804688 168.761719 79.832031 C 173.273438 80.640625 179.417969 79.550781 182.371094 79.550781 C 184.597656 79.550781 186.273438 79.410156 187.625 79.066406 C 187.398438 82.519531 185.410156 84.277344 184.015625 87.804688 C 183.722656 88.550781 184.066406 89.53125 184.597656 90.058594 C 188.089844 93.542969 199.027344 92.378906 192.363281 97.988281 C 191.789062 98.484375 191.695312 99.542969 191.976562 100.265625 C 193.328125 103.910156 195.976562 103.628906 199.15625 104.300781 C 193.066406 111.097656 210.558594 111.496094 217.046875 113.71875 C 227.398438 117.265625 222.929688 118.195312 224.8125 124.808594 C 226.144531 129.46875 226.726562 134.367188 227.863281 138.90625 " fill-opacity="1" fill-rule="nonzero"/><path fill="#59a516" d="M 219.1875 331.605469 C 219.675781 331.820312 220.164062 332.003906 220.628906 332.1875 C 215.996094 332.652344 211.183594 332.371094 206.695312 332.371094 C 198.140625 332.371094 189.734375 334.484375 181.210938 335.054688 C 170.546875 335.800781 152.667969 337.851562 141.691406 333.253906 C 142.5 333.050781 143.324219 332.835938 144.089844 332.628906 C 153.652344 330.167969 162.835938 327.269531 172.699219 326.179688 C 188.839844 324.398438 204.328125 325.230469 219.1875 331.605469 " fill-opacity="1" fill-rule="nonzero"/><path fill="#000000" d="M 208.1875 246.496094 C 209.746094 243.207031 208.761719 242.324219 205.257812 243.832031 C 205.257812 244.664062 204.792969 245.386719 204.089844 245.828125 C 198.605469 249.300781 193.390625 249 187.605469 251.339844 C 179.761719 254.503906 179.277344 254.503906 170.71875 251.480469 C 166.070312 249.839844 159.503906 248.253906 155.925781 244.683594 C 148.199219 237.015625 148.363281 249.863281 151.738281 250.390625 C 158.59375 251.480469 165.28125 252.949219 171.554688 255.992188 C 173.390625 256.886719 172.828125 259.746094 171 260.230469 C 164.597656 261.925781 161.160156 267.230469 154.648438 268.375 C 154.527344 268.398438 154.429688 268.375 154.324219 268.375 C 154.226562 268.398438 154.128906 268.441406 154.019531 268.460938 C 146.179688 269.207031 145.574219 274.027344 150.96875 274.382812 C 152.753906 274.492188 153.316406 274.609375 154.875 275.472656 C 162.714844 279.855469 158.367188 274.914062 159.828125 272.433594 C 161.765625 269.140625 169.53125 266.28125 172.300781 264.039062 C 176.367188 260.738281 178.8125 260.207031 183.765625 262.085938 C 188.785156 263.984375 194.320312 268.515625 197.554688 272.832031 C 201.742188 278.398438 200.109375 274.167969 203.417969 273.242188 C 213.164062 270.53125 202.121094 266.605469 198.8125 265.410156 C 195.878906 264.339844 189.226562 262.066406 187.042969 259.378906 C 186.210938 258.332031 186.15625 257.125 187.042969 256.097656 C 189.972656 252.734375 195.371094 250.835938 199.515625 249.355469 C 203.320312 247.964844 209.789062 253.53125 208.1875 247.726562 C 208.070312 247.339844 208.070312 246.917969 208.1875 246.496094 Z M 215.714844 268.742188 C 219.46875 275.960938 206.144531 276.769531 205.160156 279.347656 C 204.910156 280.039062 204.371094 280.824219 203.539062 280.964844 C 191.085938 282.820312 188.253906 258.332031 172.484375 269.992188 C 167.550781 273.640625 165.183594 272.550781 164.804688 277.695312 C 164.597656 280.253906 161.644531 281.105469 159.625 281.667969 C 154.929688 282.984375 152.386719 278.417969 147.917969 279.066406 C 145.953125 279.367188 144.253906 278.460938 143.226562 276.746094 C 138.996094 269.507812 147.875 264.707031 153.394531 263.921875 C 153.414062 263.921875 153.414062 263.898438 153.414062 263.898438 C 157.15625 263.25 160.390625 260.714844 163.808594 258.578125 C 155.15625 256.886719 140.800781 254.707031 143.0625 246.519531 C 144.535156 241.210938 146.113281 233.789062 153.535156 236.335938 C 155.175781 236.894531 156.488281 238.707031 157.664062 239.863281 C 161.136719 243.347656 167.410156 245.40625 171.941406 247.003906 C 179.601562 249.703125 184.25 247.144531 191.648438 245.503906 C 198.507812 243.996094 198.550781 242.992188 201.480469 237.984375 C 202.628906 236.03125 205.992188 235.0625 208.070312 235.644531 C 211.910156 236.691406 213.835938 239.515625 213.347656 243.433594 C 212.882812 247.167969 214.558594 246.59375 214.558594 249.625 C 214.558594 251.695312 212.839844 254.320312 210.675781 254.683594 C 204.164062 255.773438 200.042969 253.875 193.628906 257.425781 C 193.347656 257.585938 193.109375 257.683594 192.882812 257.75 C 193.855469 257.953125 195.394531 258.472656 197.695312 259.648438 C 200.183594 260.953125 202.414062 261.621094 204.878906 262.710938 C 209.628906 264.804688 213.1875 263.875 215.714844 268.742188 " fill-opacity="1" fill-rule="nonzero"/><path fill="#720e15" d="M 205.257812 243.832031 C 208.761719 242.324219 209.746094 243.207031 208.1875 246.496094 C 208.070312 246.917969 208.070312 247.339844 208.1875 247.726562 C 209.789062 253.53125 203.320312 247.964844 199.515625 249.355469 C 195.371094 250.835938 189.972656 252.734375 187.042969 256.097656 C 186.15625 257.125 186.210938 258.332031 187.042969 259.378906 C 189.226562 262.066406 195.878906 264.339844 198.8125 265.410156 C 202.121094 266.605469 213.164062 270.53125 203.417969 273.242188 C 200.109375 274.167969 201.742188 278.398438 197.554688 272.832031 C 194.320312 268.515625 188.785156 263.984375 183.765625 262.085938 C 178.8125 260.207031 176.367188 260.738281 172.300781 264.039062 C 169.53125 266.28125 161.765625 269.140625 159.828125 272.433594 C 158.367188 274.914062 162.714844 279.855469 154.875 275.472656 C 153.316406 274.609375 152.753906 274.492188 150.96875 274.382812 C 145.574219 274.027344 146.179688 269.207031 154.019531 268.460938 C 154.128906 268.441406 154.226562 268.398438 154.324219 268.375 C 154.429688 268.375 154.527344 268.398438 154.648438 268.375 C 161.160156 267.230469 164.597656 261.925781 171 260.230469 C 172.828125 259.746094 173.390625 256.886719 171.554688 255.992188 C 165.28125 252.949219 158.59375 251.480469 151.738281 250.390625 C 148.363281 249.863281 148.199219 237.015625 155.925781 244.683594 C 159.503906 248.253906 166.070312 249.839844 170.71875 251.480469 C 179.277344 254.503906 179.761719 254.503906 187.605469 251.339844 C 193.390625 249 198.605469 249.300781 204.089844 245.828125 C 204.792969 245.386719 205.257812 244.664062 205.257812 243.832031 " fill-opacity="1" fill-rule="nonzero"/><path fill="#000000" d="M 185.042969 231.554688 C 184.792969 231.609375 184.53125 231.652344 184.273438 231.675781 C 179.039062 232.300781 175.792969 231.652344 172.484375 229.191406 C 173.347656 232.277344 177.15625 233.390625 180.164062 233.390625 C 182.109375 233.390625 183.765625 232.699219 185.042969 231.554688 Z M 188.039062 236.066406 C 188.089844 235.6875 188.296875 235.265625 188.503906 234.804688 C 187.972656 235.265625 187.367188 235.730469 186.640625 236.171875 C 183.90625 237.867188 181.394531 238.148438 178.25 237.984375 C 175.554688 237.867188 173.066406 236.851562 171.164062 235.246094 C 171.488281 235.894531 171.898438 236.519531 172.484375 237.078125 C 174.875 239.3125 177.394531 242.558594 181.09375 241.136719 C 183.117188 240.378906 187.605469 238.523438 188.039062 236.066406 Z M 192.601562 211.933594 C 193.109375 209.613281 191.507812 208.4375 189.304688 208.523438 C 188.339844 208.566406 187.203125 208.761719 186.371094 209.246094 C 185.667969 209.667969 186.253906 209.246094 186.480469 210.078125 C 186.621094 210.5625 186.535156 211.101562 186.640625 211.566406 C 187.257812 213.949219 191.347656 213.648438 192.601562 211.933594 Z M 197.273438 210.035156 C 199.621094 204.347656 204.164062 195.070312 197.089844 190.550781 C 189.714844 185.8125 181.503906 182.179688 172.96875 186.417969 C 166.945312 189.4375 163.625 192.007812 160.347656 198.21875 C 156.464844 205.644531 159.578125 208.113281 163.0625 214.046875 C 163.507812 214.835938 163.765625 215.925781 163.742188 216.808594 C 163.625 220.542969 166.394531 221.726562 169.367188 222.773438 C 170.203125 222.050781 171.414062 221.867188 172.398438 222.859375 C 176.269531 226.894531 182.25 229.914062 186.414062 224.210938 C 188.039062 221.996094 188.492188 221.792969 191.292969 221.792969 C 194.136719 221.792969 195.113281 218.523438 195.78125 215.394531 C 193.738281 217.519531 190.460938 218.320312 187.582031 217.660156 C 185.972656 217.316406 184.390625 216.527344 183.34375 215.199219 C 182.109375 213.648438 182.1875 211.953125 181.644531 210.152344 C 180.140625 204.953125 187.832031 203.441406 191.445312 204.066406 C 194.644531 204.628906 196.808594 207.089844 197.273438 210.035156 Z M 199.4375 186.558594 C 205.667969 191.175781 206.089844 198.089844 204.726562 205.492188 C 203.679688 211.167969 199.804688 214.511719 199.804688 221.027344 C 199.804688 223.097656 199.578125 224.488281 197.597656 225.644531 C 196.203125 226.453125 194.808594 226.367188 193.53125 226.410156 C 193.757812 226.734375 193.953125 227.109375 193.996094 227.597656 C 194.277344 230.488281 195.003906 232.816406 193.304688 235.34375 C 192.09375 237.175781 192.09375 239.90625 190.210938 241.394531 C 187.441406 243.574219 182.976562 246.3125 179.277344 246.152344 C 174.441406 245.96875 171.488281 242.828125 168.363281 239.441406 C 165.085938 235.847656 165.527344 231.046875 165.691406 226.570312 C 163.34375 225.902344 160.792969 224.953125 159.71875 223.097656 C 157.882812 219.980469 159.765625 216.925781 156.734375 214.113281 C 150.582031 208.382812 154.570312 200.734375 156.929688 194.144531 C 159.15625 187.851562 167.269531 183.3125 173.230469 181.292969 C 182.390625 178.1875 191.714844 180.832031 199.4375 186.558594 " fill-opacity="1" fill-rule="nonzero"/><path fill="#4a3733" d="M 203.515625 43.679688 C 204.1875 43.917969 204.628906 44.222656 204.878906 44.566406 C 202.671875 45.125 200.390625 45.570312 198.085938 45.914062 C 198.25 45.082031 198.390625 44.242188 198.574219 43.433594 C 198.625 43.21875 198.625 43.011719 198.671875 42.808594 C 200.390625 42.949219 202.042969 43.21875 203.515625 43.679688 " fill-opacity="1" fill-rule="nonzero"/><path fill="#4a3733" d="M 203.460938 49.679688 C 202.953125 50.628906 202.53125 51.554688 202.53125 52.34375 C 200.585938 53.011719 198.648438 53.414062 196.691406 53.617188 C 196.851562 52.644531 197.015625 51.6875 197.210938 50.714844 C 199.328125 50.457031 201.417969 50.109375 203.460938 49.679688 " fill-opacity="1" fill-rule="nonzero"/><path fill="#720e15" d="M 185.34375 223.53125 C 187.28125 220.660156 184.628906 215.925781 181.992188 214.390625 C 180.671875 213.605469 179.058594 213.722656 177.71875 214.328125 C 178.769531 212.796875 179.277344 210.898438 178.8125 208.824219 C 177.859375 204.488281 172.992188 202.859375 169.109375 204.648438 C 166.070312 206.042969 163.34375 210.984375 163.90625 214.273438 C 164.695312 218.890625 169.128906 218.425781 172.699219 218.320312 C 173.671875 218.285156 174.324219 217.757812 174.648438 217.066406 C 175.015625 216.851562 175.371094 216.625 175.71875 216.386719 C 175.414062 216.96875 175.132812 217.574219 174.789062 218.015625 C 172.765625 220.464844 173.695312 224.488281 176.722656 225.578125 C 176.855469 225.644531 176.996094 225.621094 177.136719 225.644531 C 177.351562 225.785156 177.578125 225.902344 177.882812 225.96875 C 180.597656 226.550781 183.722656 225.945312 185.34375 223.53125 Z M 197.089844 190.550781 C 204.164062 195.070312 199.621094 204.347656 197.273438 210.035156 C 196.808594 207.089844 194.644531 204.628906 191.445312 204.066406 C 187.832031 203.441406 180.140625 204.953125 181.644531 210.152344 C 182.1875 211.953125 182.109375 213.648438 183.34375 215.199219 C 184.390625 216.527344 185.972656 217.316406 187.582031 217.660156 C 190.460938 218.320312 193.738281 217.519531 195.78125 215.394531 C 195.113281 218.523438 194.136719 221.792969 191.292969 221.792969 C 188.492188 221.792969 188.039062 221.996094 186.414062 224.210938 C 182.25 229.914062 176.269531 226.894531 172.398438 222.859375 C 171.414062 221.867188 170.203125 222.050781 169.367188 222.773438 C 166.394531 221.726562 163.625 220.542969 163.742188 216.808594 C 163.765625 215.925781 163.507812 214.835938 163.0625 214.046875 C 159.578125 208.113281 156.464844 205.644531 160.347656 198.21875 C 163.625 192.007812 166.945312 189.4375 172.96875 186.417969 C 181.503906 182.179688 189.714844 185.8125 197.089844 190.550781 " fill-opacity="1" fill-rule="nonzero"/><path fill="#cc974a" d="M 180.648438 19.980469 C 187.789062 20.023438 197.792969 19.613281 194.539062 29.777344 C 193.597656 32.644531 193.835938 35.589844 193.898438 38.535156 C 193.671875 38.558594 193.414062 38.558594 193.1875 38.558594 C 183.503906 38.558594 173.835938 38.558594 164.15625 38.558594 C 163.625 38.558594 162.652344 38.578125 161.460938 38.675781 C 160.976562 35.804688 160.671875 32.902344 160.671875 30.046875 C 160.671875 19.074219 172.203125 19.914062 180.648438 19.980469 " fill-opacity="1" fill-rule="nonzero"/><path fill="#cc974a" d="M 193.738281 42.710938 C 193.597656 43.832031 193.371094 44.964844 192.925781 46.054688 C 192.882812 46.214844 192.820312 46.355469 192.765625 46.519531 C 182.976562 47.304688 172.601562 46.539062 162.8125 45.515625 C 162.652344 44.804688 162.488281 44.039062 162.328125 43.292969 C 168.945312 43.089844 175.597656 43.195312 182.230469 43.195312 C 185.582031 43.195312 189.691406 42.785156 193.738281 42.710938 " fill-opacity="1" fill-rule="nonzero"/><path fill="#78e027" d="M 189.304688 208.523438 C 191.507812 208.4375 193.109375 209.613281 192.601562 211.933594 C 191.347656 213.648438 187.257812 213.949219 186.640625 211.566406 C 186.535156 211.101562 186.621094 210.5625 186.480469 210.078125 C 186.253906 209.246094 185.667969 209.667969 186.371094 209.246094 C 187.203125 208.761719 188.339844 208.566406 189.304688 208.523438 " fill-opacity="1" fill-rule="nonzero"/><path fill="#cc974a" d="M 191.789062 51.222656 C 191.695312 52.042969 191.585938 52.949219 191.488281 53.84375 C 188.621094 53.820312 185.722656 53.640625 182.714844 53.640625 C 176.667969 53.640625 170.386719 53.457031 164.296875 52.507812 C 164.253906 52.105469 164.210938 51.71875 164.15625 51.320312 C 164.15625 51.222656 164.113281 51.179688 164.089844 51.113281 C 164.089844 50.972656 164.113281 50.855469 164.070312 50.695312 C 164.046875 50.554688 163.992188 50.414062 163.972656 50.273438 C 173.089844 51.179688 182.652344 51.804688 191.789062 51.222656 " fill-opacity="1" fill-rule="nonzero"/><path fill="#720e15" d="M 188.503906 234.804688 C 188.296875 235.265625 188.089844 235.6875 188.039062 236.066406 C 187.605469 238.523438 183.117188 240.378906 181.09375 241.136719 C 177.394531 242.558594 174.875 239.3125 172.484375 237.078125 C 171.898438 236.519531 171.488281 235.894531 171.164062 235.246094 C 173.066406 236.851562 175.554688 237.867188 178.25 237.984375 C 181.394531 238.148438 183.90625 237.867188 186.640625 236.171875 C 187.367188 235.730469 187.972656 235.265625 188.503906 234.804688 " fill-opacity="1" fill-rule="nonzero"/><path fill="#000000" d="M 171.695312 213.378906 C 173.230469 212.859375 174.832031 211.382812 174.203125 209.503906 C 173.792969 208.296875 171.457031 208.296875 170.667969 209.171875 C 170.09375 209.828125 167.757812 212.675781 168.503906 213.582031 C 168.621094 213.703125 168.699219 213.789062 168.742188 213.863281 C 168.761719 213.863281 168.761719 213.839844 168.804688 213.839844 C 169.269531 213.886719 169.746094 213.886719 170.203125 213.863281 C 170.460938 213.839844 170.6875 213.808594 170.949219 213.789062 C 171.164062 213.625 171.390625 213.484375 171.695312 213.378906 Z M 181.992188 214.390625 C 184.628906 215.925781 187.28125 220.660156 185.34375 223.53125 C 183.722656 225.945312 180.597656 226.550781 177.882812 225.96875 C 177.578125 225.902344 177.351562 225.785156 177.136719 225.644531 C 176.996094 225.621094 176.855469 225.644531 176.722656 225.578125 C 173.695312 224.488281 172.765625 220.464844 174.789062 218.015625 C 175.132812 217.574219 175.414062 216.96875 175.71875 216.386719 C 175.371094 216.625 175.015625 216.851562 174.648438 217.066406 C 174.324219 217.757812 173.671875 218.285156 172.699219 218.320312 C 169.128906 218.425781 164.695312 218.890625 163.90625 214.273438 C 163.34375 210.984375 166.070312 206.042969 169.109375 204.648438 C 172.992188 202.859375 177.859375 204.488281 178.8125 208.824219 C 179.277344 210.898438 178.769531 212.796875 177.71875 214.328125 C 179.058594 213.722656 180.671875 213.605469 181.992188 214.390625 Z M 178.445312 221.402344 L 178.464844 221.402344 C 178.507812 221.449219 178.550781 221.46875 178.585938 221.492188 C 178.769531 221.492188 178.929688 221.449219 179.113281 221.492188 C 179.382812 221.566406 180.789062 221.652344 181.234375 221.308594 C 181.234375 221.1875 181.277344 220.960938 181.234375 220.820312 C 181.113281 220.421875 181.019531 220.121094 180.789062 219.773438 C 180.507812 219.3125 180.164062 218.945312 179.785156 218.566406 C 179.761719 218.566406 179.761719 218.566406 179.761719 218.589844 C 179.417969 219.171875 179.039062 219.753906 178.734375 220.359375 C 178.671875 220.496094 178.53125 220.636719 178.445312 220.769531 C 178.410156 220.90625 178.390625 220.984375 178.390625 220.984375 C 178.390625 221.210938 178.410156 221.328125 178.445312 221.402344 Z M 178.207031 221.242188 C 178.128906 221.1875 178.066406 221.144531 177.945312 221.101562 C 178.042969 221.125 178.117188 221.1875 178.207031 221.242188 " fill-opacity="1" fill-rule="nonzero"/><path fill="#78e027" d="M 184.273438 231.675781 C 184.53125 231.652344 184.792969 231.609375 185.042969 231.554688 C 183.765625 232.699219 182.109375 233.390625 180.164062 233.390625 C 177.15625 233.390625 173.347656 232.277344 172.484375 229.191406 C 175.792969 231.652344 179.039062 232.300781 184.273438 231.675781 " fill-opacity="1" fill-rule="nonzero"/><path fill="#cc974a" d="M 191 58.621094 C 190.113281 66.691406 188.621094 75.097656 182.371094 74.914062 C 179.902344 74.816406 168.882812 76.023438 168.339844 73.886719 C 167.085938 68.945312 165.808594 62.894531 164.945312 57.328125 C 169.691406 57.976562 174.484375 58.210938 179.277344 58.277344 C 183.179688 58.351562 187.117188 58.621094 191 58.621094 " fill-opacity="1" fill-rule="nonzero"/><path fill="#78e027" d="M 181.234375 220.820312 C 181.277344 220.960938 181.234375 221.1875 181.234375 221.308594 C 180.789062 221.652344 179.382812 221.566406 179.113281 221.492188 C 178.929688 221.449219 178.769531 221.492188 178.585938 221.492188 C 178.550781 221.46875 178.507812 221.449219 178.464844 221.402344 L 178.445312 221.402344 C 178.410156 221.328125 178.390625 221.210938 178.390625 220.984375 C 178.390625 220.984375 178.410156 220.90625 178.445312 220.769531 C 178.53125 220.636719 178.671875 220.496094 178.734375 220.359375 C 179.039062 219.753906 179.417969 219.171875 179.761719 218.589844 C 179.761719 218.566406 179.761719 218.566406 179.785156 218.566406 C 180.164062 218.945312 180.507812 219.3125 180.789062 219.773438 C 181.019531 220.121094 181.113281 220.421875 181.234375 220.820312 " fill-opacity="1" fill-rule="nonzero"/><path fill="#78e027" d="M 174.203125 209.503906 C 174.832031 211.382812 173.230469 212.859375 171.695312 213.378906 C 171.390625 213.484375 171.164062 213.625 170.949219 213.789062 C 170.6875 213.808594 170.460938 213.839844 170.203125 213.863281 C 169.746094 213.886719 169.269531 213.886719 168.804688 213.839844 C 168.761719 213.839844 168.761719 213.863281 168.742188 213.863281 C 168.699219 213.789062 168.621094 213.703125 168.503906 213.582031 C 167.757812 212.675781 170.09375 209.828125 170.667969 209.171875 C 171.457031 208.296875 173.792969 208.296875 174.203125 209.503906 " fill-opacity="1" fill-rule="nonzero"/><path fill="#ffffff" d="M 168.179688 95.789062 C 174.117188 95.90625 168.394531 101.980469 164.71875 102.820312 C 162.695312 103.273438 160.714844 104.785156 158.972656 105.765625 C 154.929688 108.011719 149.855469 108.109375 145.929688 110.40625 C 140.941406 113.296875 135.71875 116.21875 130.808594 119.285156 C 130.785156 119.285156 130.753906 119.304688 130.753906 119.328125 C 133.578125 115.3125 138.316406 110.75 142.296875 109.21875 C 142.554688 109.121094 142.761719 108.960938 142.945312 108.796875 C 146.058594 107.945312 148.808594 106.175781 151.714844 104.742188 C 154.875 103.167969 159.992188 102.519531 162.292969 99.734375 C 163.183594 98.667969 163.128906 97.523438 162.292969 96.457031 C 161.277344 95.140625 161.019531 94.742188 161.300781 93.847656 C 163.246094 95.464844 165.507812 95.746094 168.179688 95.789062 " fill-opacity="1" fill-rule="nonzero"/><path fill="#4a3733" d="M 159.039062 49.765625 C 159.203125 50.371094 159.34375 50.972656 159.503906 51.578125 C 158.085938 51.253906 156.691406 50.855469 155.339844 50.433594 C 155.15625 50.089844 154.90625 49.699219 154.648438 49.28125 C 156.085938 49.441406 157.558594 49.605469 159.039062 49.765625 " fill-opacity="1" fill-rule="nonzero"/><path fill="#4a3733" d="M 157.503906 43.53125 C 157.621094 44.015625 157.742188 44.523438 157.859375 44.988281 C 156.367188 44.824219 154.90625 44.664062 153.480469 44.5 C 153.964844 44.039062 154.851562 43.679688 156.410156 43.59375 C 156.789062 43.574219 157.136719 43.550781 157.503906 43.53125 " fill-opacity="1" fill-rule="nonzero"/><path fill="#ffffff" d="M 149.5 131.949219 C 150.039062 130.480469 153.144531 129.628906 154.410156 128.941406 C 156.789062 127.667969 158.84375 125.90625 161.214844 124.636719 C 163.851562 123.210938 161.503906 119.207031 158.867188 120.632812 C 155.988281 122.175781 153.5 124.277344 150.546875 125.714844 C 148.15625 126.867188 145.960938 128.121094 145.011719 130.71875 C 143.972656 133.535156 148.472656 134.734375 149.5 131.949219 " fill-opacity="1" fill-rule="nonzero"/><path fill="#ffffff" d="M 147.867188 141.109375 C 151.066406 139.804688 153.058594 137.503906 155.546875 135.230469 C 158.84375 132.207031 162.707031 129.910156 166.449219 127.535156 C 168.96875 125.941406 166.644531 121.917969 164.101562 123.535156 C 161.0625 125.453125 158.28125 127.074219 155.597656 129.457031 C 154.324219 130.589844 152.832031 131.421875 151.566406 132.585938 C 149.976562 134.03125 148.699219 135.789062 146.632812 136.632812 C 143.894531 137.753906 145.085938 142.242188 147.867188 141.109375 " fill-opacity="1" fill-rule="nonzero"/><path fill="#ffffff" d="M 157.621094 142.253906 C 161.503906 138.984375 165.800781 136.265625 169.941406 133.332031 C 172.363281 131.625 170.039062 127.589844 167.582031 129.328125 C 163.117188 132.488281 158.519531 135.445312 154.332031 138.972656 C 152.03125 140.902344 155.339844 144.160156 157.621094 142.253906 " fill-opacity="1" fill-rule="nonzero"/><path fill="#ffffff" d="M 166.339844 145.152344 C 167.347656 144.214844 168.71875 143.785156 169.941406 143.191406 C 171.078125 142.640625 171.371094 141.042969 170.773438 140.019531 C 170.09375 138.863281 168.730469 138.636719 167.582031 139.1875 C 165.972656 139.976562 164.394531 140.621094 163.050781 141.875 C 160.855469 143.914062 164.144531 147.191406 166.339844 145.152344 " fill-opacity="1" fill-rule="nonzero"/><path fill="#ffffff" d="M 171.089844 150.472656 C 174.09375 150.472656 174.09375 145.832031 171.089844 145.832031 C 168.09375 145.832031 168.09375 150.472656 171.089844 150.472656 " fill-opacity="1" fill-rule="nonzero"/><path fill="#ffffff" d="M 214.125 162.328125 C 216.839844 160.257812 220.140625 159.1875 222.84375 157.105469 C 223.851562 156.339844 224.378906 155.132812 223.675781 153.933594 C 223.105469 152.941406 221.515625 152.339844 220.496094 153.105469 C 217.78125 155.175781 214.496094 156.253906 211.78125 158.328125 C 210.773438 159.09375 210.242188 160.3125 210.945312 161.496094 C 211.53125 162.492188 213.121094 163.105469 214.125 162.328125 " fill-opacity="1" fill-rule="nonzero"/><path fill="#ffffff" d="M 215.292969 155.371094 C 217.402344 153.796875 219.578125 152.304688 221.6875 150.730469 C 222.703125 149.976562 223.210938 148.746094 222.519531 147.558594 C 221.9375 146.554688 220.355469 145.972656 219.339844 146.730469 C 217.230469 148.304688 215.058594 149.792969 212.9375 151.367188 C 211.929688 152.125 211.410156 153.351562 212.105469 154.539062 C 212.699219 155.542969 214.265625 156.136719 215.292969 155.371094 " fill-opacity="1" fill-rule="nonzero"/><path fill="#ffffff" d="M 215.175781 146.890625 C 215.640625 146.351562 215.902344 145.671875 216.34375 145.152344 C 217.167969 144.183594 217.285156 142.8125 216.34375 141.875 C 215.5 141.03125 213.878906 140.902344 213.054688 141.875 C 212.589844 142.402344 212.332031 143.09375 211.886719 143.613281 C 211.066406 144.570312 210.945312 145.941406 211.886719 146.890625 C 212.730469 147.730469 214.355469 147.851562 215.175781 146.890625 " fill-opacity="1" fill-rule="nonzero"/><path fill="#ffffff" d="M 208.308594 141.453125 C 209.941406 140.667969 211.507812 140.019531 212.851562 138.765625 C 215.046875 136.730469 211.757812 133.449219 209.5625 135.488281 C 208.566406 136.425781 207.183594 136.859375 205.972656 137.453125 C 204.824219 138 204.53125 139.597656 205.128906 140.621094 C 205.808594 141.777344 207.171875 142.003906 208.308594 141.453125 " fill-opacity="1" fill-rule="nonzero"/><path fill="#ffffff" d="M 141.332031 191.542969 C 141.136719 191.714844 141.960938 191.390625 141.90625 191.414062 C 142.585938 191.164062 143.09375 190.839844 143.65625 190.386719 C 144.652344 189.589844 144.492188 187.929688 143.65625 187.109375 C 142.695312 186.136719 141.355469 186.3125 140.371094 187.109375 C 140.574219 186.9375 139.742188 187.261719 139.808594 187.238281 C 139.125 187.488281 138.617188 187.808594 138.042969 188.261719 C 137.058594 189.0625 137.222656 190.722656 138.042969 191.542969 C 139.007812 192.503906 140.359375 192.339844 141.332031 191.542969 " fill-opacity="1" fill-rule="nonzero"/><path fill="#ffffff" d="M 139.6875 198.027344 C 140.660156 198.027344 141.625 198.027344 142.597656 198.027344 C 145.59375 198.027344 145.59375 193.386719 142.597656 193.386719 C 141.625 193.386719 140.660156 193.386719 139.6875 193.386719 C 136.691406 193.386719 136.691406 198.027344 139.6875 198.027344 " fill-opacity="1" fill-rule="nonzero"/><path fill="#ffffff" d="M 139.117188 204.402344 C 139.882812 204.402344 140.660156 204.402344 141.429688 204.402344 C 144.4375 204.402344 144.4375 199.761719 141.429688 199.761719 C 140.660156 199.761719 139.882812 199.761719 139.117188 199.761719 C 136.109375 199.761719 136.109375 204.402344 139.117188 204.402344 " fill-opacity="1" fill-rule="nonzero"/><path fill="#ffffff" d="M 138.53125 213.097656 C 139.117188 213.097656 139.6875 213.097656 140.273438 213.097656 C 143.28125 213.097656 143.28125 208.457031 140.273438 208.457031 C 139.6875 208.457031 139.117188 208.457031 138.53125 208.457031 C 135.535156 208.457031 135.535156 213.097656 138.53125 213.097656 " fill-opacity="1" fill-rule="nonzero"/><path fill="#ffffff" d="M 139.117188 221.804688 C 142.113281 221.804688 142.113281 217.164062 139.117188 217.164062 C 136.109375 217.164062 136.109375 221.804688 139.117188 221.804688 " fill-opacity="1" fill-rule="nonzero"/><path fill="#ffffff" d="M 217.640625 217.078125 C 220.085938 216.398438 222.183594 214.855469 224.617188 214.175781 C 227.507812 213.378906 226.273438 208.902344 223.386719 209.710938 C 220.929688 210.390625 218.84375 211.921875 216.410156 212.601562 C 213.519531 213.410156 214.753906 217.886719 217.640625 217.078125 " fill-opacity="1" fill-rule="nonzero"/><path fill="#ffffff" d="M 217.621094 227.285156 C 220.691406 224.933594 224.53125 223.800781 227.386719 221.125 C 229.582031 219.074219 226.285156 215.792969 224.097656 217.84375 C 221.578125 220.207031 218.019531 221.175781 215.273438 223.28125 C 214.265625 224.046875 213.738281 225.253906 214.441406 226.453125 C 215.011719 227.445312 216.605469 228.050781 217.621094 227.285156 " fill-opacity="1" fill-rule="nonzero"/><path fill="#ffffff" d="M 221.578125 234.457031 C 223.363281 232.730469 225.59375 231.546875 227.386719 229.820312 C 229.550781 227.738281 226.25 224.457031 224.097656 226.539062 C 222.304688 228.265625 220.074219 229.453125 218.28125 231.179688 C 216.128906 233.261719 219.425781 236.539062 221.578125 234.457031 " fill-opacity="1" fill-rule="nonzero"/><path fill="#ffffff" d="M 224.003906 241.511719 C 224.195312 241.511719 224.390625 241.511719 224.585938 241.511719 C 227.582031 241.511719 227.582031 236.875 224.585938 236.875 C 224.390625 236.875 224.195312 236.875 224.003906 236.875 C 221.007812 236.875 221.007812 241.511719 224.003906 241.511719 " fill-opacity="1" fill-rule="nonzero"/><path fill="#ffffff" d="M 222.832031 250.789062 C 225.839844 250.789062 225.839844 246.152344 222.832031 246.152344 C 219.835938 246.152344 219.835938 250.789062 222.832031 250.789062 " fill-opacity="1" fill-rule="nonzero"/><path fill="#ffffff" d="M 218.667969 204.875 C 218.789062 204.78125 219.785156 204.359375 219.351562 204.402344 C 220.617188 204.285156 221.675781 203.441406 221.675781 202.082031 C 221.675781 200.90625 220.617188 199.644531 219.351562 199.761719 C 217.824219 199.914062 216.515625 200.582031 215.382812 201.597656 C 213.140625 203.613281 216.453125 206.882812 218.667969 204.875 " fill-opacity="1" fill-rule="nonzero"/><path fill="#ffffff" d="M 218.183594 196.277344 C 221.191406 196.277344 221.191406 191.640625 218.183594 191.640625 C 215.1875 191.640625 215.1875 196.277344 218.183594 196.277344 " fill-opacity="1" fill-rule="nonzero"/><path fill="#ffffff" d="M 143.777344 293.394531 C 145.011719 292.722656 146.027344 291.742188 147.261719 291.074219 C 149.898438 289.648438 147.550781 285.636719 144.914062 287.070312 C 143.679688 287.738281 142.664062 288.722656 141.429688 289.390625 C 138.789062 290.816406 141.136719 294.816406 143.777344 293.394531 " fill-opacity="1" fill-rule="nonzero"/><path fill="#ffffff" d="M 144.957031 299.421875 C 146.988281 298.691406 148.546875 297.4375 150.0625 295.929688 C 152.179688 293.8125 148.894531 290.535156 146.773438 292.648438 C 145.863281 293.554688 144.957031 294.503906 143.722656 294.957031 C 142.535156 295.390625 141.742188 296.511719 142.101562 297.804688 C 142.414062 298.949219 143.777344 299.855469 144.957031 299.421875 " fill-opacity="1" fill-rule="nonzero"/><path fill="#ffffff" d="M 147.152344 308.109375 C 146.945312 308.269531 147.777344 307.957031 147.714844 307.980469 C 148.40625 307.730469 148.914062 307.40625 149.476562 306.953125 C 150.460938 306.15625 150.300781 304.492188 149.476562 303.675781 C 148.515625 302.703125 147.164062 302.875 146.1875 303.675781 C 146.394531 303.5 145.5625 303.824219 145.617188 303.804688 C 144.933594 304.050781 144.425781 304.375 143.863281 304.828125 C 142.878906 305.625 143.03125 307.289062 143.863281 308.109375 C 144.828125 309.066406 146.167969 308.90625 147.152344 308.109375 " fill-opacity="1" fill-rule="nonzero"/><path fill="#ffffff" d="M 216.917969 286.652344 C 217.5 286.015625 217.964844 285.300781 218.453125 284.589844 C 218.691406 284.234375 219.046875 283.941406 219.273438 283.574219 C 219.46875 283.273438 219.601562 282.863281 219.828125 282.59375 C 220.660156 281.632812 220.777344 280.265625 219.828125 279.316406 C 218.984375 278.472656 217.359375 278.34375 216.539062 279.316406 C 215.46875 280.566406 214.753906 282.140625 213.628906 283.371094 C 211.628906 285.582031 214.90625 288.871094 216.917969 286.652344 " fill-opacity="1" fill-rule="nonzero"/><path fill="#ffffff" d="M 221.09375 291.96875 C 221.148438 290.199219 222.140625 288.777344 223.105469 287.339844 C 224.769531 284.839844 220.734375 282.519531 219.089844 285 C 217.640625 287.15625 216.515625 289.324219 216.441406 291.96875 C 216.355469 294.96875 221.007812 294.957031 221.09375 291.96875 " fill-opacity="1" fill-rule="nonzero"/><path fill="#ffffff" d="M 222.738281 301.730469 C 223.515625 300.957031 224.292969 300.179688 225.0625 299.414062 C 227.191406 297.289062 223.894531 294.019531 221.773438 296.132812 C 221.007812 296.898438 220.226562 297.675781 219.449219 298.453125 C 217.328125 300.566406 220.617188 303.847656 222.738281 301.730469 " fill-opacity="1" fill-rule="nonzero"/><path fill="#ffffff" d="M 221.675781 308.789062 C 224.671875 308.789062 224.671875 304.148438 221.675781 304.148438 C 218.667969 304.148438 218.667969 308.789062 221.675781 308.789062 " fill-opacity="1" fill-rule="nonzero"/><path fill="#59a516" d="M 160.304688 296.617188 C 161.742188 294.761719 163.417969 293.089844 165.289062 291.65625 C 167.171875 290.210938 170.105469 289.304688 172.289062 288.410156 C 175.027344 287.285156 173.824219 282.800781 171.054688 283.933594 C 168.15625 285.117188 164.75 286.25 162.25 288.171875 C 159.949219 289.941406 158.054688 291.992188 156.292969 294.277344 C 154.464844 296.652344 158.507812 298.960938 160.304688 296.617188 " fill-opacity="1" fill-rule="nonzero"/><path fill="#59a516" d="M 170.773438 295.464844 C 171.574219 294.351562 173.402344 294.03125 174.613281 293.628906 C 177.449219 292.703125 176.238281 288.214844 173.382812 289.152344 C 170.796875 290.003906 168.417969 290.835938 166.75 293.125 C 166.003906 294.148438 166.578125 295.703125 167.582031 296.296875 C 168.761719 296.984375 170.027344 296.488281 170.773438 295.464844 " fill-opacity="1" fill-rule="nonzero"/><path fill="#59a516" d="M 173.902344 302.886719 C 175.621094 300.71875 178.207031 299.640625 180.402344 298.03125 C 181.429688 297.289062 181.925781 296.035156 181.234375 294.859375 C 180.648438 293.847656 179.082031 293.273438 178.054688 294.03125 C 175.542969 295.851562 172.582031 297.125 170.613281 299.605469 C 169.824219 300.597656 169.640625 301.914062 170.613281 302.886719 C 171.421875 303.707031 173.109375 303.878906 173.902344 302.886719 " fill-opacity="1" fill-rule="nonzero"/><path fill="#59a516" d="M 182.035156 306.371094 C 182.230469 306.175781 182.425781 305.984375 182.617188 305.789062 C 184.738281 303.675781 181.449219 300.394531 179.332031 302.507812 C 179.136719 302.703125 178.941406 302.898438 178.746094 303.089844 C 176.625 305.207031 179.914062 308.484375 182.035156 306.371094 " fill-opacity="1" fill-rule="nonzero"/><path fill="#59a516" d="M 148.449219 230.414062 C 148.808594 230.359375 149.121094 230.21875 149.433594 230.035156 C 149.597656 229.90625 149.746094 229.785156 149.910156 229.667969 C 150.203125 229.410156 150.09375 229.472656 149.605469 229.839844 C 150.863281 229.613281 151.542969 228.113281 151.242188 226.980469 C 150.882812 225.675781 149.617188 225.148438 148.375 225.363281 C 148.015625 225.429688 147.703125 225.570312 147.390625 225.75 C 147.238281 225.871094 147.074219 225.988281 146.925781 226.109375 C 146.632812 226.367188 146.730469 226.3125 147.214844 225.945312 C 145.960938 226.160156 145.28125 227.660156 145.59375 228.792969 C 145.953125 230.097656 147.207031 230.628906 148.449219 230.414062 " fill-opacity="1" fill-rule="nonzero"/><path fill="#59a516" d="M 149 225.277344 C 151.996094 225.277344 151.996094 220.636719 149 220.636719 C 145.996094 220.636719 145.996094 225.277344 149 225.277344 " fill-opacity="1" fill-rule="nonzero"/><path fill="#59a516" d="M 204.824219 291.65625 C 206.058594 290.988281 207.074219 290.003906 208.308594 289.335938 C 210.945312 287.902344 208.597656 283.898438 205.972656 285.324219 C 204.738281 285.992188 203.710938 286.984375 202.476562 287.652344 C 199.839844 289.078125 202.183594 293.082031 204.824219 291.65625 " fill-opacity="1" fill-rule="nonzero"/><path fill="#59a516" d="M 208.785156 298.832031 C 209.714844 297.976562 210.785156 297.265625 211.476562 296.035156 C 212.957031 293.4375 208.933594 291.09375 207.464844 293.695312 C 207 294.515625 206.164062 294.925781 205.496094 295.550781 C 203.289062 297.589844 206.585938 300.859375 208.785156 298.832031 " fill-opacity="1" fill-rule="nonzero"/><path fill="#59a516" d="M 207.722656 306.46875 C 209.25 306.316406 210.558594 305.648438 211.691406 304.625 C 213.921875 302.617188 210.621094 299.347656 208.40625 301.355469 C 208.285156 301.453125 207.289062 301.871094 207.722656 301.828125 C 206.457031 301.949219 205.398438 302.789062 205.398438 304.148438 C 205.398438 305.324219 206.457031 306.585938 207.722656 306.46875 " fill-opacity="1" fill-rule="nonzero"/><path fill="#59a516" d="M 211.207031 311.691406 C 214.214844 311.691406 214.214844 307.050781 211.207031 307.050781 C 208.210938 307.050781 208.210938 311.691406 211.207031 311.691406 " fill-opacity="1" fill-rule="nonzero"/><path fill="#59a516" d="M 184.46875 284.429688 C 187.464844 284.429688 187.464844 279.789062 184.46875 279.789062 C 181.460938 279.789062 181.460938 284.429688 184.46875 284.429688 " fill-opacity="1" fill-rule="nonzero"/><path fill="#59a516" d="M 187.960938 292.226562 C 189.355469 291.515625 190.773438 290.632812 191.921875 289.550781 C 194.117188 287.503906 190.816406 284.222656 188.632812 286.273438 C 187.875 286.972656 186.675781 287.6875 185.613281 288.226562 C 182.953125 289.605469 185.300781 293.609375 187.960938 292.226562 " fill-opacity="1" fill-rule="nonzero"/><path fill="#59a516" d="M 190.308594 300.589844 C 190.9375 300.492188 191.445312 300.101562 192.0625 300.007812 C 193.316406 299.824219 193.988281 298.257812 193.683594 297.15625 C 193.316406 295.820312 192.082031 295.34375 190.816406 295.527344 C 190.199219 295.625 189.691406 296.023438 189.074219 296.113281 C 187.820312 296.296875 187.152344 297.859375 187.453125 298.96875 C 187.820312 300.296875 189.054688 300.773438 190.308594 300.589844 " fill-opacity="1" fill-rule="nonzero"/></svg>