<svg xmlns="http://www.w3.org/2000/svg" xmlns:xlink="http://www.w3.org/1999/xlink" width="480" zoomAndPan="magnify" viewBox="0 0 360 359.999987" height="480" preserveAspectRatio="xMidYMid meet" version="1.0"><defs><clipPath id="9af398a250"><path d="M 113 5 L 248.878906 5 L 248.878906 356 L 113 356 Z M 113 5 " clip-rule="nonzero"/></clipPath></defs><g clip-path="url(#9af398a250)"><path fill="#000000" d="M 120.148438 349.152344 C 127.371094 356.386719 144.871094 355.566406 154.175781 355.585938 C 173.691406 355.691406 193.171875 354.347656 212.710938 354.390625 C 222.492188 354.414062 236.308594 354.347656 244.941406 349.109375 C 247.417969 347.59375 248.191406 344.550781 248.191406 341.886719 C 248.191406 338.59375 246.554688 333.800781 246.363281 330.738281 C 246.042969 325.109375 246.75 319.371094 246.601562 313.722656 C 246.144531 295.886719 244.941406 278.359375 244.996094 260.433594 C 245.019531 251.21875 245.472656 242.257812 246.292969 233.101562 C 247.214844 222.816406 245.453125 212.484375 245.644531 202.167969 C 245.996094 184.492188 243.792969 166.609375 246.292969 149.0625 C 247.554688 139.949219 248.679688 125.621094 243.835938 117.21875 C 238.128906 107.253906 232.417969 100.910156 222.34375 95.203125 C 216.382812 91.855469 209.84375 90.28125 207.21875 83.253906 C 204.351562 75.683594 207.089844 62.480469 207.089844 54.382812 C 207.089844 46.695312 207.988281 45.660156 210.832031 39.269531 C 212.105469 36.425781 210.34375 33.667969 207.921875 32.265625 C 205.523438 30.84375 202.589844 30.582031 199.675781 30.558594 C 199.652344 27.175781 199.382812 23.792969 200.484375 20.34375 C 201.632812 16.699219 201.269531 13.507812 200.484375 10.058594 C 199.0625 3.839844 180.410156 6.1875 176.625 6.140625 C 170.675781 6.085938 157.109375 6.0625 155.003906 13.726562 C 153.539062 19.113281 154.027344 25.386719 155.152344 31.457031 C 148.738281 32.609375 141.652344 35.375 145.359375 41.71875 C 148.964844 47.871094 148.863281 51.765625 148.398438 59.28125 C 147.839844 68.414062 148.351562 77.675781 148.011719 86.808594 C 144.484375 93.609375 137.367188 91.921875 131.621094 94.542969 C 127.027344 96.625 123.332031 100.101562 120.296875 104.121094 C 110.8125 116.851562 113.382812 129.710938 114.425781 144.765625 C 117.144531 184.003906 116.316406 223.386719 116.851562 262.652344 C 117.121094 281.105469 118.03125 299.519531 118.226562 317.980469 C 118.316406 326.886719 112.789062 341.785156 120.148438 349.152344 " fill-opacity="1" fill-rule="nonzero"/><path fill="#000000" d="M 156.449219 37.484375 C 156.324219 36.992188 156.199219 36.457031 156.074219 35.945312 C 155.6875 35.96875 155.324219 35.992188 154.925781 36.015625 C 153.289062 36.105469 152.355469 36.480469 151.84375 36.972656 C 153.34375 37.140625 154.878906 37.3125 156.449219 37.484375 Z M 158.179688 44.441406 C 158.007812 43.804688 157.859375 43.167969 157.6875 42.527344 C 156.132812 42.359375 154.585938 42.1875 153.070312 42.015625 C 153.34375 42.460938 153.605469 42.871094 153.800781 43.234375 C 155.222656 43.679688 156.6875 44.101562 158.179688 44.441406 Z M 182.21875 69.078125 C 188.792969 69.269531 190.363281 60.398438 191.296875 51.878906 C 187.210938 51.878906 183.074219 51.59375 178.96875 51.515625 C 173.929688 51.445312 168.890625 51.195312 163.898438 50.511719 C 164.808594 56.390625 166.148438 62.777344 167.46875 67.996094 C 168.039062 70.25 179.625 68.972656 182.21875 69.078125 Z M 191.808594 46.832031 C 191.910156 45.886719 192.023438 44.933594 192.125 44.066406 C 182.515625 44.679688 172.460938 44.019531 162.875 43.0625 C 162.898438 43.210938 162.953125 43.359375 162.976562 43.507812 C 163.023438 43.679688 163 43.804688 163 43.953125 C 163.023438 44.019531 163.066406 44.066406 163.066406 44.167969 C 163.125 44.589844 163.171875 45 163.214844 45.421875 C 169.617188 46.421875 176.226562 46.617188 182.582031 46.617188 C 185.746094 46.617188 188.792969 46.8125 191.808594 46.832031 Z M 193.320312 38.609375 C 193.785156 37.460938 194.023438 36.265625 194.171875 35.082031 C 189.917969 35.160156 185.597656 35.59375 182.070312 35.59375 C 175.101562 35.59375 168.105469 35.480469 161.144531 35.695312 C 161.316406 36.480469 161.488281 37.289062 161.65625 38.042969 C 171.949219 39.125 182.855469 39.933594 193.148438 39.101562 C 193.207031 38.929688 193.273438 38.78125 193.320312 38.609375 Z M 195.015625 21.425781 C 198.4375 10.695312 187.917969 11.128906 180.410156 11.082031 C 171.53125 11.015625 159.40625 10.128906 159.40625 21.710938 C 159.40625 24.726562 159.726562 27.792969 160.238281 30.820312 C 161.488281 30.71875 162.511719 30.695312 163.066406 30.695312 C 173.246094 30.695312 183.414062 30.695312 193.59375 30.695312 C 193.832031 30.695312 194.105469 30.695312 194.34375 30.671875 C 194.273438 27.5625 194.023438 24.453125 195.015625 21.425781 Z M 203.417969 45.25 C 203.417969 44.417969 203.863281 43.441406 204.394531 42.4375 C 202.246094 42.894531 200.050781 43.257812 197.824219 43.53125 C 197.617188 44.554688 197.449219 45.570312 197.277344 46.59375 C 199.335938 46.378906 201.371094 45.957031 203.417969 45.25 Z M 205.886719 37.039062 C 205.625 36.675781 205.160156 36.355469 204.453125 36.105469 C 202.90625 35.617188 201.167969 35.332031 199.359375 35.183594 C 199.3125 35.398438 199.3125 35.617188 199.257812 35.84375 C 199.0625 36.699219 198.914062 37.585938 198.746094 38.460938 C 201.167969 38.097656 203.566406 37.632812 205.886719 37.039062 Z M 222.445312 340.679688 C 221.957031 340.484375 221.445312 340.292969 220.933594 340.066406 C 205.304688 333.332031 189.019531 332.457031 172.050781 334.335938 C 161.679688 335.484375 152.027344 338.550781 141.972656 341.148438 C 141.164062 341.363281 140.300781 341.589844 139.449219 341.808594 C 150.992188 346.660156 169.789062 344.496094 181.003906 343.710938 C 189.964844 343.105469 198.800781 340.875 207.796875 340.875 C 212.515625 340.875 217.578125 341.167969 222.445312 340.679688 Z M 231.269531 152.980469 C 231.589844 147.386719 231.417969 142.125 230.054688 136.636719 C 228.859375 131.839844 228.246094 126.671875 226.847656 121.75 C 224.867188 114.769531 229.5625 113.789062 218.679688 110.042969 C 211.855469 107.695312 193.46875 107.273438 199.871094 100.101562 C 196.527344 99.394531 193.742188 99.691406 192.320312 95.839844 C 192.023438 95.078125 192.125 93.960938 192.726562 93.4375 C 199.734375 87.515625 188.234375 88.746094 184.5625 85.066406 C 184.003906 84.507812 183.640625 83.472656 183.949219 82.6875 C 185.414062 78.960938 187.507812 77.105469 187.746094 73.460938 C 186.324219 73.824219 184.5625 73.972656 182.21875 73.972656 C 179.113281 73.972656 172.65625 75.125 167.914062 74.269531 C 167.742188 75.292969 167.59375 76.355469 167.570312 77.402344 C 167.617188 77.46875 167.695312 77.59375 167.9375 77.765625 C 168.207031 77.992188 168.46875 78.210938 168.765625 78.425781 C 169.335938 78.9375 169.699219 79.507812 169.914062 80.238281 C 170.265625 81.511719 169.484375 82.914062 168.207031 83.253906 C 165.933594 83.871094 163.535156 83.960938 161.453125 83.003906 C 161.429688 83.402344 161.40625 83.789062 161.363281 84.1875 C 161.851562 84.234375 162.339844 84.429688 162.75 84.871094 C 166.058594 88.390625 173.144531 83.550781 174.804688 89.621094 C 176.25 94.882812 172.996094 99.609375 168.800781 102.183594 C 165.558594 104.164062 161.554688 104.90625 158.199219 107.082031 C 156.175781 108.402344 151.433594 109.824219 149.058594 110.191406 C 143.632812 111.042969 136.34375 116.363281 131.40625 119.539062 C 131.578125 120.941406 131.769531 122.683594 132.113281 122.855469 C 132.816406 123.265625 133.363281 124.117188 133.316406 124.984375 C 132.5 144.890625 121.332031 172.785156 153.878906 168.332031 C 165.148438 166.78125 177.375 165.929688 188.746094 165.390625 C 198.800781 164.902344 206.695312 167.910156 216.472656 167.839844 C 227.503906 167.714844 230.710938 163.355469 231.269531 152.980469 Z M 235.113281 234.183594 C 235.351562 223.476562 232.714844 213.125 232.757812 202.464844 C 232.816406 194.242188 233.238281 186.027344 233.136719 177.828125 C 218.089844 178.707031 202.90625 180.300781 187.871094 179.445312 C 174.394531 178.683594 161.773438 178.59375 148.398438 179.664062 C 140.039062 179.296875 128.425781 175.277344 130.382812 188.855469 C 131.601562 197.203125 131.132812 206.015625 131.203125 214.46875 C 131.351562 231.5625 131.28125 248.484375 131.644531 265.523438 C 131.875 274.566406 132.625 282.175781 130.964844 291.070312 C 129.28125 300.101562 132.304688 308.574219 131.234375 317.367188 C 129.644531 330.097656 138.617188 327.242188 147.566406 325.5 C 155.152344 324.050781 162.703125 322.285156 170.3125 320.941406 C 185.960938 318.152344 204.136719 318.515625 219.292969 323.902344 C 232.28125 328.539062 231.394531 315.191406 231.519531 307.640625 C 231.589844 301.480469 231.496094 295.304688 231.65625 289.132812 C 232.203125 270.738281 234.714844 252.519531 235.113281 234.183594 Z M 240.128906 255.730469 C 240.128906 245.296875 242.527344 234.570312 241.742188 224.183594 C 241.050781 215.320312 240.617188 206.65625 241.003906 197.761719 C 241.722656 182.363281 238.96875 167.007812 241.152344 151.667969 C 243.472656 135.335938 243.324219 117.878906 230.121094 106.296875 C 222.695312 99.804688 207.898438 97.285156 204.136719 87.277344 C 201.371094 79.917969 203.417969 75.464844 203.417969 67.847656 C 203.417969 62.027344 203.417969 56.195312 203.417969 50.386719 C 201.121094 51.070312 198.777344 51.46875 196.425781 51.683594 C 195.570312 56.605469 194.640625 61.535156 193.34375 66.261719 C 193.023438 67.414062 192.683594 68.371094 192.320312 69.203125 C 192.320312 69.222656 192.320312 69.222656 192.320312 69.222656 C 192.875 72.550781 194.980469 78.9375 191.089844 81.273438 C 187.472656 83.449219 190.636719 81.910156 193.46875 82.617188 C 195.277344 83.0625 198.015625 84.257812 199.359375 85.648438 C 201.019531 87.367188 203.839844 90.839844 201.484375 93.242188 C 197.550781 97.242188 200.414062 94.15625 205.476562 97.136719 C 207.160156 98.140625 206.945312 100.328125 205.476562 101.375 C 205.035156 101.695312 204.667969 101.84375 204.375 101.910156 C 206.910156 102.355469 209.457031 102.777344 212.027344 103.230469 C 217.167969 104.144531 223.398438 105.714844 227.503906 109.210938 C 231.542969 112.660156 233.03125 114.277344 232.351562 119.664062 C 231.90625 123.320312 234.796875 126.15625 234.796875 129.882812 C 234.796875 136.464844 236.707031 142.910156 236.332031 149.515625 C 236.113281 153.683594 237.535156 160.835938 235.695312 164.582031 C 230.757812 174.617188 217.964844 172.738281 208.457031 172.738281 C 205.671875 172.738281 197.164062 169.800781 196.765625 169.800781 C 191.488281 170.1875 186.519531 170.460938 181.242188 171.417969 C 175.464844 172.464844 168.96875 172.660156 163.066406 172.738281 C 152.183594 172.863281 138.855469 176.429688 130.382812 167.933594 C 122.773438 160.324219 125.414062 149.9375 125.628906 140.121094 C 125.664062 138.59375 129.109375 126.988281 128.324219 126.261719 C 127.003906 125.007812 126.859375 123.855469 126.800781 122.535156 C 125.777344 123.265625 124.820312 123.925781 123.140625 124.152344 C 122.105469 124.300781 120.96875 123.320312 120.773438 122.363281 C 119.035156 113.574219 128.539062 105.507812 136.125 101.761719 C 136.492188 101.101562 137.105469 100.566406 138.039062 100.5 C 141.574219 100.15625 145.191406 97.285156 148.441406 95.714844 C 150.183594 94.882812 154.09375 94.199219 155.949219 93.09375 C 155.175781 92.171875 154.242188 91.238281 154.140625 89.472656 C 154.09375 88.277344 155.539062 87.195312 155.949219 86.171875 C 156.789062 84.210938 156.539062 81.398438 156.539062 79.257812 C 156.539062 78.769531 156.710938 78.382812 156.90625 78.039062 C 156.222656 76.492188 155.8125 74.804688 155.734375 73.140625 C 155.585938 69.976562 160.5 70 160.625 73.140625 C 160.703125 74.804688 161.363281 76.808594 162.636719 77.960938 C 162.660156 77.960938 162.660156 77.960938 162.660156 77.992188 C 162.679688 75.910156 163.148438 73.949219 163.363281 71.914062 C 163.238281 71.742188 163.089844 71.59375 163 71.421875 C 161.554688 68.972656 162.136719 65.648438 161.851562 62.949219 C 161.386719 58.394531 160.066406 54.089844 159.109375 49.679688 C 157.394531 49.339844 155.6875 48.941406 154.027344 48.449219 C 153.832031 61.433594 153.4375 74.507812 152.878906 87.445312 C 152.878906 87.855469 152.753906 88.222656 152.582031 88.515625 C 152.558594 88.5625 152.582031 88.621094 152.558594 88.664062 C 150.796875 92.582031 148.101562 95.304688 143.824219 96.457031 C 134.75 98.882812 127.585938 100.636719 122.25 109.65625 C 116.441406 119.472656 118.25 129.265625 119.011719 140.0625 C 119.648438 149.472656 120.183594 158.902344 120.523438 168.308594 C 121.160156 187.179688 121.332031 206.039062 121.421875 224.921875 C 121.625 261.140625 124.820312 297.992188 121.796875 334.015625 C 120.546875 348.878906 133.601562 349.960938 145.464844 350.496094 C 154.730469 350.941406 164 350.621094 173.269531 350.257812 C 191.339844 349.527344 210.140625 350.917969 228.039062 348.320312 C 236.832031 347.046875 241.789062 346.535156 241.789062 336.863281 C 239.789062 338.867188 237.582031 340.339844 235.214844 341.191406 C 235.070312 341.761719 234.691406 342.25 234.011719 342.570312 C 226.742188 346 219.214844 345.769531 211.265625 345.769531 C 199.710938 345.769531 188.476562 348.617188 176.941406 348.617188 C 165.46875 348.617188 153.414062 349.746094 142.039062 348.128906 C 135.488281 347.195312 134.558594 345.746094 130.746094 342.148438 C 130.382812 342.023438 130.007812 341.933594 129.644531 341.761719 C 123.480469 338.992188 123.378906 333.164062 126.925781 328.515625 C 125.289062 325.394531 126.222656 321.875 126.347656 317.367188 C 126.5625 308.039062 123.96875 299.097656 126.242188 289.769531 C 128.9375 278.847656 127.199219 265.742188 127.175781 254.410156 C 127.128906 242.574219 126.460938 230.695312 126.367188 218.828125 C 126.265625 207.292969 126.6875 195.5625 124.433594 184.242188 C 121.523438 169.824219 140.015625 174.402344 148.398438 174.765625 C 161.792969 173.695312 174.394531 174.015625 187.871094 174.550781 C 203.757812 175.1875 219.703125 173.617188 235.558594 172.785156 C 236.921875 172.714844 237.980469 173.933594 237.992188 175.234375 C 238.390625 188.945312 237.195312 202.394531 238.921875 216.0625 C 240.5625 229.113281 239.957031 242.234375 238.605469 255.285156 C 236.558594 275.171875 238.582031 295.625 235.921875 315.363281 C 234.691406 324.519531 231.609375 334.65625 220.410156 329.710938 C 197.449219 319.597656 169.914062 324.941406 146.613281 330.78125 C 142.949219 331.695312 136.320312 333.949219 131.894531 332.652344 C 132.40625 338.105469 135.320312 339.382812 140.675781 336.441406 C 142.871094 335.679688 145.097656 335.019531 147.351562 334.4375 C 151.945312 333.355469 156.789062 331.25 161.429688 330.667969 C 169.1875 329.6875 176.671875 329.027344 184.472656 329.027344 C 192.75 329.027344 202.203125 327.652344 210.21875 330.292969 C 220.976562 333.824219 232.453125 342.980469 241.253906 329.824219 C 241.347656 329.6875 241.472656 329.542969 241.597656 329.414062 C 241.597656 322.777344 242.050781 316.125 241.425781 309.453125 C 239.707031 291.433594 240.128906 273.828125 240.128906 255.730469 Z M 246.601562 313.722656 C 246.75 319.371094 246.042969 325.109375 246.363281 330.738281 C 246.554688 333.800781 248.191406 338.59375 248.191406 341.886719 C 248.191406 344.550781 247.417969 347.59375 244.941406 349.109375 C 236.308594 354.347656 222.492188 354.414062 212.710938 354.390625 C 193.171875 354.347656 173.691406 355.691406 154.175781 355.585938 C 144.871094 355.566406 127.371094 356.386719 120.160156 349.152344 C 112.789062 341.785156 118.316406 326.886719 118.226562 317.980469 C 118.03125 299.519531 117.121094 281.105469 116.851562 262.652344 C 116.316406 223.386719 117.144531 184.003906 114.425781 144.765625 C 113.382812 129.710938 110.8125 116.851562 120.296875 104.121094 C 123.332031 100.101562 127.027344 96.625 131.621094 94.542969 C 137.367188 91.921875 144.484375 93.609375 148.011719 86.808594 C 148.351562 77.675781 147.839844 68.414062 148.398438 59.28125 C 148.863281 51.765625 148.964844 47.871094 145.359375 41.71875 C 141.652344 35.375 148.738281 32.609375 155.152344 31.457031 C 154.027344 25.386719 153.539062 19.113281 155.003906 13.726562 C 157.109375 6.0625 170.675781 6.085938 176.625 6.140625 C 180.410156 6.1875 199.0625 3.839844 200.484375 10.058594 C 201.269531 13.507812 201.632812 16.699219 200.484375 20.34375 C 199.382812 23.792969 199.652344 27.175781 199.675781 30.558594 C 202.589844 30.582031 205.523438 30.84375 207.921875 32.265625 C 210.34375 33.667969 212.105469 36.425781 210.832031 39.269531 C 207.988281 45.660156 207.089844 46.695312 207.089844 54.382812 C 207.089844 62.480469 204.351562 75.683594 207.21875 83.253906 C 209.855469 90.28125 216.382812 91.855469 222.34375 95.203125 C 232.417969 100.910156 238.128906 107.253906 243.835938 117.21875 C 248.679688 125.621094 247.554688 139.949219 246.292969 149.0625 C 243.792969 166.609375 245.996094 184.492188 245.644531 202.167969 C 245.453125 212.484375 247.214844 222.816406 246.292969 233.101562 C 245.472656 242.257812 245.019531 251.21875 244.996094 260.433594 C 244.941406 278.359375 246.144531 295.886719 246.601562 313.722656 Z M 127.949219 115.964844 C 127.949219 115.941406 127.984375 115.917969 128.007812 115.917969 C 133.167969 112.683594 138.664062 109.597656 143.90625 106.546875 C 148.035156 104.121094 153.367188 104.015625 157.621094 101.648438 C 159.453125 100.613281 161.53125 99.019531 163.660156 98.539062 C 167.527344 97.652344 173.542969 91.238281 167.300781 91.113281 C 164.488281 91.066406 162.113281 90.773438 160.066406 89.0625 C 159.769531 90.007812 160.042969 90.429688 161.113281 91.820312 C 161.988281 92.949219 162.042969 94.15625 161.113281 95.28125 C 158.691406 98.21875 153.3125 98.902344 149.988281 100.566406 C 146.929688 102.082031 144.042969 103.949219 140.765625 104.847656 C 140.574219 105.019531 140.355469 105.191406 140.085938 105.292969 C 135.898438 106.910156 130.917969 111.726562 127.949219 115.964844 " fill-opacity="1" fill-rule="nonzero"/></g><path fill="#4a3733" d="M 241.742188 224.183594 C 242.527344 234.570312 240.128906 245.296875 240.128906 255.730469 C 240.128906 273.828125 239.707031 291.433594 241.425781 309.453125 C 242.050781 316.125 241.597656 322.777344 241.597656 329.414062 C 241.472656 329.542969 241.347656 329.6875 241.253906 329.824219 C 232.453125 342.980469 220.976562 333.824219 210.21875 330.292969 C 202.203125 327.652344 192.75 329.027344 184.472656 329.027344 C 176.671875 329.027344 169.1875 329.6875 161.429688 330.667969 C 156.789062 331.25 151.945312 333.355469 147.351562 334.4375 C 145.097656 335.019531 142.871094 335.679688 140.675781 336.441406 C 135.320312 339.382812 132.40625 338.105469 131.894531 332.652344 C 136.320312 333.949219 142.949219 331.695312 146.613281 330.78125 C 169.914062 324.941406 197.449219 319.597656 220.410156 329.710938 C 231.609375 334.65625 234.691406 324.519531 235.921875 315.363281 C 238.582031 295.625 236.558594 275.171875 238.605469 255.285156 C 239.957031 242.234375 240.5625 229.113281 238.921875 216.0625 C 237.195312 202.394531 238.390625 188.945312 237.992188 175.234375 C 237.980469 173.933594 236.921875 172.714844 235.558594 172.785156 C 219.703125 173.617188 203.757812 175.1875 187.871094 174.550781 C 174.394531 174.015625 161.792969 173.695312 148.398438 174.765625 C 140.015625 174.402344 121.523438 169.824219 124.433594 184.242188 C 126.6875 195.5625 126.265625 207.292969 126.367188 218.828125 C 126.460938 230.695312 127.128906 242.574219 127.175781 254.410156 C 127.199219 265.742188 128.9375 278.847656 126.242188 289.769531 C 123.96875 299.097656 126.5625 308.039062 126.347656 317.367188 C 126.222656 321.875 125.289062 325.394531 126.925781 328.515625 C 123.378906 333.164062 123.480469 338.992188 129.644531 341.761719 C 130.007812 341.933594 130.382812 342.023438 130.746094 342.148438 C 134.558594 345.746094 135.488281 347.195312 142.039062 348.128906 C 153.414062 349.746094 165.46875 348.617188 176.941406 348.617188 C 188.476562 348.617188 199.710938 345.769531 211.265625 345.769531 C 219.214844 345.769531 226.742188 346 234.011719 342.570312 C 234.691406 342.25 235.070312 341.761719 235.214844 341.191406 C 237.582031 340.339844 239.789062 338.867188 241.789062 336.863281 C 241.789062 346.535156 236.832031 347.046875 228.039062 348.320312 C 210.140625 350.917969 191.339844 349.527344 173.269531 350.257812 C 164 350.621094 154.730469 350.941406 145.464844 350.496094 C 133.601562 349.960938 120.546875 348.878906 121.796875 334.015625 C 124.820312 297.992188 121.625 261.140625 121.421875 224.921875 C 121.332031 206.039062 121.160156 187.179688 120.523438 168.308594 C 120.183594 158.902344 119.648438 149.472656 119.011719 140.0625 C 118.25 129.265625 116.441406 119.472656 122.25 109.65625 C 127.585938 100.636719 134.75 98.882812 143.824219 96.457031 C 148.101562 95.304688 150.796875 92.582031 152.558594 88.664062 C 152.582031 88.621094 152.558594 88.5625 152.582031 88.515625 C 152.753906 88.222656 152.878906 87.855469 152.878906 87.445312 C 153.4375 74.507812 153.832031 61.433594 154.027344 48.449219 C 155.6875 48.941406 157.394531 49.339844 159.109375 49.679688 C 160.066406 54.089844 161.386719 58.394531 161.851562 62.949219 C 162.136719 65.648438 161.554688 68.972656 163 71.421875 C 163.089844 71.59375 163.238281 71.742188 163.363281 71.914062 C 163.148438 73.949219 162.679688 75.910156 162.660156 77.992188 C 162.660156 77.960938 162.660156 77.960938 162.636719 77.960938 C 161.363281 76.808594 160.703125 74.804688 160.625 73.140625 C 160.5 70 155.585938 69.976562 155.734375 73.140625 C 155.8125 74.804688 156.222656 76.492188 156.90625 78.039062 C 156.710938 78.382812 156.539062 78.769531 156.539062 79.257812 C 156.539062 81.398438 156.789062 84.210938 155.949219 86.171875 C 155.539062 87.195312 154.09375 88.277344 154.140625 89.472656 C 154.242188 91.238281 155.175781 92.171875 155.949219 93.09375 C 154.09375 94.199219 150.183594 94.882812 148.441406 95.714844 C 145.191406 97.285156 141.574219 100.15625 138.039062 100.5 C 137.105469 100.566406 136.492188 101.101562 136.125 101.761719 C 128.539062 105.507812 119.035156 113.574219 120.773438 122.363281 C 120.96875 123.320312 122.105469 124.300781 123.140625 124.152344 C 124.820312 123.925781 125.777344 123.265625 126.800781 122.535156 C 126.859375 123.855469 127.003906 125.007812 128.324219 126.261719 C 129.109375 126.988281 125.664062 138.59375 125.628906 140.121094 C 125.414062 149.9375 122.773438 160.324219 130.382812 167.933594 C 138.855469 176.429688 152.183594 172.863281 163.066406 172.738281 C 168.96875 172.660156 175.464844 172.464844 181.242188 171.417969 C 186.519531 170.460938 191.488281 170.1875 196.765625 169.800781 C 197.164062 169.800781 205.671875 172.738281 208.457031 172.738281 C 217.964844 172.738281 230.757812 174.617188 235.695312 164.582031 C 237.535156 160.835938 236.113281 153.683594 236.332031 149.515625 C 236.707031 142.910156 234.796875 136.464844 234.796875 129.882812 C 234.796875 126.15625 231.90625 123.320312 232.351562 119.664062 C 233.03125 114.277344 231.542969 112.660156 227.503906 109.210938 C 223.398438 105.714844 217.167969 104.144531 212.027344 103.230469 C 209.457031 102.777344 206.910156 102.355469 204.375 101.910156 C 204.667969 101.84375 205.035156 101.695312 205.476562 101.375 C 206.945312 100.328125 207.160156 98.140625 205.476562 97.136719 C 200.414062 94.15625 197.550781 97.242188 201.484375 93.242188 C 203.839844 90.839844 201.019531 87.367188 199.359375 85.648438 C 198.015625 84.257812 195.277344 83.0625 193.46875 82.617188 C 190.636719 81.910156 187.472656 83.449219 191.089844 81.273438 C 194.980469 78.9375 192.875 72.550781 192.320312 69.222656 C 192.320312 69.222656 192.320312 69.222656 192.320312 69.203125 C 192.683594 68.371094 193.023438 67.414062 193.34375 66.261719 C 194.640625 61.535156 195.570312 56.605469 196.425781 51.683594 C 198.777344 51.46875 201.121094 51.070312 203.417969 50.386719 C 203.417969 56.195312 203.417969 62.027344 203.417969 67.847656 C 203.417969 75.464844 201.371094 79.917969 204.136719 87.277344 C 207.898438 97.285156 222.695312 99.804688 230.121094 106.296875 C 243.324219 117.878906 243.472656 135.335938 241.152344 151.667969 C 238.96875 167.007812 241.722656 182.363281 241.003906 197.761719 C 240.617188 206.65625 241.050781 215.320312 241.742188 224.183594 " fill-opacity="1" fill-rule="nonzero"/><path fill="#78e027" d="M 205.726562 206.929688 C 207.160156 199.113281 206.714844 191.816406 200.164062 186.941406 C 192.046875 180.894531 182.242188 178.101562 172.609375 181.382812 C 166.34375 183.511719 157.8125 188.308594 155.472656 194.945312 C 152.992188 201.90625 148.796875 209.980469 155.265625 216.027344 C 158.449219 219 156.472656 222.222656 158.40625 225.515625 C 159.53125 227.472656 162.214844 228.476562 164.683594 229.183594 C 164.511719 233.910156 164.046875 238.976562 167.492188 242.769531 C 170.777344 246.34375 173.882812 249.660156 178.96875 249.851562 C 182.855469 250.023438 187.554688 247.132812 190.464844 244.832031 C 192.445312 243.257812 192.445312 240.378906 193.71875 238.441406 C 195.503906 235.777344 194.742188 233.316406 194.445312 230.265625 C 194.398438 229.75 194.195312 229.351562 193.957031 229.011719 C 195.296875 228.964844 196.765625 229.058594 198.234375 228.203125 C 200.3125 226.984375 200.550781 225.515625 200.550781 223.328125 C 200.550781 216.449219 204.625 212.917969 205.726562 206.929688 Z M 206.183594 284.898438 C 207.21875 282.175781 221.226562 281.320312 217.28125 273.703125 C 214.621094 268.566406 210.878906 269.542969 205.886719 267.335938 C 203.292969 266.183594 200.949219 265.476562 198.335938 264.101562 C 195.914062 262.859375 194.296875 262.3125 193.273438 262.097656 C 193.511719 262.027344 193.761719 261.925781 194.058594 261.753906 C 200.800781 258.007812 205.136719 260.011719 211.980469 258.863281 C 214.257812 258.472656 216.066406 255.707031 216.066406 253.519531 C 216.066406 250.320312 214.300781 250.921875 214.789062 246.984375 C 215.304688 242.847656 213.277344 239.863281 209.242188 238.761719 C 207.058594 238.144531 203.519531 239.171875 202.316406 241.230469 C 199.234375 246.515625 199.1875 247.574219 191.976562 249.167969 C 184.199219 250.902344 179.308594 253.601562 171.257812 250.753906 C 166.492188 249.066406 159.894531 246.890625 156.246094 243.214844 C 155.003906 241.996094 153.628906 240.082031 151.898438 239.488281 C 144.097656 236.800781 142.4375 244.636719 140.890625 250.238281 C 138.515625 258.882812 153.605469 261.183594 162.703125 262.972656 C 159.109375 265.226562 155.710938 267.90625 151.773438 268.585938 C 151.773438 268.585938 151.773438 268.609375 151.753906 268.609375 C 145.953125 269.441406 136.617188 274.511719 141.0625 282.152344 C 142.144531 283.960938 143.929688 284.917969 145.996094 284.601562 C 150.695312 283.917969 153.367188 288.734375 158.304688 287.34375 C 160.429688 286.753906 163.535156 285.851562 163.75 283.152344 C 164.148438 277.722656 166.640625 278.871094 171.824219 275.023438 C 188.40625 262.710938 191.386719 288.5625 204.476562 286.605469 C 205.351562 286.457031 205.921875 285.625 206.183594 284.898438 Z M 232.757812 202.464844 C 232.714844 213.125 235.351562 223.476562 235.113281 234.183594 C 234.714844 252.519531 232.203125 270.738281 231.65625 289.132812 C 231.496094 295.304688 231.589844 301.480469 231.519531 307.640625 C 231.394531 315.191406 232.28125 328.539062 219.292969 323.902344 C 204.136719 318.515625 185.960938 318.152344 170.3125 320.941406 C 162.703125 322.285156 155.152344 324.050781 147.566406 325.5 C 138.617188 327.242188 129.644531 330.097656 131.234375 317.367188 C 132.304688 308.574219 129.28125 300.101562 130.964844 291.070312 C 132.625 282.175781 131.875 274.566406 131.644531 265.523438 C 131.28125 248.484375 131.351562 231.5625 131.203125 214.46875 C 131.132812 206.015625 131.601562 197.203125 130.382812 188.855469 C 128.425781 175.277344 140.039062 179.296875 148.398438 179.664062 C 161.773438 178.59375 174.394531 178.683594 187.871094 179.445312 C 202.90625 180.300781 218.089844 178.707031 233.136719 177.828125 C 233.238281 186.027344 232.816406 194.242188 232.757812 202.464844 " fill-opacity="1" fill-rule="nonzero"/><path fill="#d6cfc7" d="M 230.054688 136.636719 C 231.417969 142.125 231.589844 147.386719 231.269531 152.980469 C 230.710938 163.355469 227.503906 167.714844 216.472656 167.839844 C 206.695312 167.910156 198.800781 164.902344 188.746094 165.390625 C 177.375 165.929688 165.148438 166.78125 153.878906 168.332031 C 121.332031 172.785156 132.5 144.890625 133.316406 124.984375 C 133.363281 124.117188 132.816406 123.265625 132.113281 122.855469 C 131.769531 122.683594 131.578125 120.941406 131.40625 119.539062 C 136.34375 116.363281 143.632812 111.042969 149.058594 110.191406 C 151.433594 109.824219 156.175781 108.402344 158.199219 107.082031 C 161.554688 104.90625 165.558594 104.164062 168.800781 102.183594 C 172.996094 99.609375 176.25 94.882812 174.804688 89.621094 C 173.144531 83.550781 166.058594 88.390625 162.75 84.871094 C 162.339844 84.429688 161.851562 84.234375 161.363281 84.1875 C 161.40625 83.789062 161.429688 83.402344 161.453125 83.003906 C 163.535156 83.960938 165.933594 83.871094 168.207031 83.253906 C 169.484375 82.914062 170.265625 81.511719 169.914062 80.238281 C 169.699219 79.507812 169.335938 78.9375 168.765625 78.425781 C 168.46875 78.210938 168.207031 77.992188 167.9375 77.765625 C 167.695312 77.59375 167.617188 77.46875 167.570312 77.402344 C 167.59375 76.355469 167.742188 75.292969 167.914062 74.269531 C 172.65625 75.125 179.113281 73.972656 182.21875 73.972656 C 184.5625 73.972656 186.324219 73.824219 187.746094 73.460938 C 187.507812 77.105469 185.414062 78.960938 183.949219 82.6875 C 183.640625 83.472656 184.003906 84.507812 184.5625 85.066406 C 188.234375 88.746094 199.734375 87.515625 192.726562 93.4375 C 192.125 93.960938 192.023438 95.078125 192.320312 95.839844 C 193.742188 99.691406 196.527344 99.394531 199.871094 100.101562 C 193.46875 107.273438 211.855469 107.695312 218.679688 110.042969 C 229.5625 113.789062 224.867188 114.769531 226.847656 121.75 C 228.246094 126.671875 228.859375 131.839844 230.054688 136.636719 " fill-opacity="1" fill-rule="nonzero"/><path fill="#59a516" d="M 220.933594 340.066406 C 221.445312 340.292969 221.957031 340.484375 222.445312 340.679688 C 217.578125 341.167969 212.515625 340.875 207.796875 340.875 C 198.800781 340.875 189.964844 343.105469 181.003906 343.710938 C 169.789062 344.496094 150.992188 346.660156 139.449219 341.808594 C 140.300781 341.589844 141.164062 341.363281 141.972656 341.148438 C 152.027344 338.550781 161.679688 335.484375 172.050781 334.335938 C 189.019531 332.457031 205.304688 333.332031 220.933594 340.066406 " fill-opacity="1" fill-rule="nonzero"/><path fill="#000000" d="M 209.367188 250.21875 C 211.003906 246.742188 209.96875 245.808594 206.285156 247.402344 C 206.285156 248.28125 205.796875 249.042969 205.054688 249.511719 C 199.289062 253.179688 193.808594 252.859375 187.722656 255.332031 C 179.480469 258.667969 178.96875 258.667969 169.972656 255.480469 C 165.082031 253.746094 158.179688 252.074219 154.414062 248.304688 C 146.292969 240.207031 146.464844 253.769531 150.011719 254.328125 C 157.222656 255.480469 164.25 257.027344 170.847656 260.238281 C 172.78125 261.183594 172.1875 264.203125 170.265625 264.714844 C 163.535156 266.503906 159.917969 272.105469 153.070312 273.3125 C 152.945312 273.335938 152.84375 273.3125 152.730469 273.3125 C 152.628906 273.335938 152.527344 273.382812 152.414062 273.40625 C 144.167969 274.191406 143.53125 279.28125 149.203125 279.65625 C 151.082031 279.773438 151.671875 279.898438 153.3125 280.808594 C 161.554688 285.433594 156.984375 280.214844 158.519531 277.597656 C 160.554688 274.121094 168.71875 271.105469 171.632812 268.734375 C 175.90625 265.25 178.476562 264.691406 183.6875 266.675781 C 188.964844 268.679688 194.785156 273.460938 198.1875 278.019531 C 202.589844 283.894531 200.871094 279.429688 204.351562 278.449219 C 214.597656 275.59375 202.984375 271.445312 199.507812 270.183594 C 196.425781 269.054688 189.429688 266.652344 187.132812 263.816406 C 186.257812 262.710938 186.199219 261.433594 187.132812 260.351562 C 190.214844 256.800781 195.890625 254.796875 200.246094 253.234375 C 204.25 251.765625 211.050781 257.644531 209.367188 251.515625 C 209.242188 251.105469 209.242188 250.660156 209.367188 250.21875 Z M 217.28125 273.703125 C 221.226562 281.320312 207.21875 282.175781 206.183594 284.898438 C 205.921875 285.625 205.351562 286.457031 204.476562 286.605469 C 191.386719 288.5625 188.40625 262.710938 171.824219 275.023438 C 166.640625 278.871094 164.148438 277.722656 163.75 283.152344 C 163.535156 285.851562 160.429688 286.753906 158.304688 287.34375 C 153.367188 288.734375 150.695312 283.917969 145.996094 284.601562 C 143.929688 284.917969 142.144531 283.960938 141.0625 282.152344 C 136.617188 274.511719 145.953125 269.441406 151.753906 268.609375 C 151.773438 268.609375 151.773438 268.585938 151.773438 268.585938 C 155.710938 267.90625 159.109375 265.226562 162.703125 262.972656 C 153.605469 261.183594 138.515625 258.882812 140.890625 250.238281 C 142.4375 244.636719 144.097656 236.800781 151.898438 239.488281 C 153.628906 240.082031 155.003906 241.996094 156.246094 243.214844 C 159.894531 246.890625 166.492188 249.066406 171.257812 250.753906 C 179.308594 253.601562 184.199219 250.902344 191.976562 249.167969 C 199.1875 247.574219 199.234375 246.515625 202.316406 241.230469 C 203.519531 239.171875 207.058594 238.144531 209.242188 238.761719 C 213.277344 239.863281 215.304688 242.847656 214.789062 246.984375 C 214.300781 250.921875 216.066406 250.320312 216.066406 253.519531 C 216.066406 255.707031 214.257812 258.472656 211.980469 258.863281 C 205.136719 260.011719 200.800781 258.007812 194.058594 261.753906 C 193.761719 261.925781 193.511719 262.027344 193.273438 262.097656 C 194.296875 262.3125 195.914062 262.859375 198.335938 264.101562 C 200.949219 265.476562 203.292969 266.183594 205.886719 267.335938 C 210.878906 269.542969 214.621094 268.566406 217.28125 273.703125 " fill-opacity="1" fill-rule="nonzero"/><path fill="#720e15" d="M 206.285156 247.402344 C 209.96875 245.808594 211.003906 246.742188 209.367188 250.21875 C 209.242188 250.660156 209.242188 251.105469 209.367188 251.515625 C 211.050781 257.644531 204.25 251.765625 200.246094 253.234375 C 195.890625 254.796875 190.214844 256.800781 187.132812 260.351562 C 186.199219 261.433594 186.257812 262.710938 187.132812 263.816406 C 189.429688 266.652344 196.425781 269.054688 199.507812 270.183594 C 202.984375 271.445312 214.597656 275.59375 204.351562 278.449219 C 200.871094 279.429688 202.589844 283.894531 198.1875 278.019531 C 194.785156 273.460938 188.964844 268.679688 183.6875 266.675781 C 178.476562 264.691406 175.90625 265.25 171.632812 268.734375 C 168.71875 271.105469 160.554688 274.121094 158.519531 277.597656 C 156.984375 280.214844 161.554688 285.433594 153.3125 280.808594 C 151.671875 279.898438 151.082031 279.773438 149.203125 279.65625 C 143.53125 279.28125 144.167969 274.191406 152.414062 273.40625 C 152.527344 273.382812 152.628906 273.335938 152.730469 273.3125 C 152.84375 273.3125 152.945312 273.335938 153.070312 273.3125 C 159.917969 272.105469 163.535156 266.503906 170.265625 264.714844 C 172.1875 264.203125 172.78125 261.183594 170.847656 260.238281 C 164.25 257.027344 157.222656 255.480469 150.011719 254.328125 C 146.464844 253.769531 146.292969 240.207031 154.414062 248.304688 C 158.179688 252.074219 165.082031 253.746094 169.972656 255.480469 C 178.96875 258.667969 179.480469 258.667969 187.722656 255.332031 C 193.808594 252.859375 199.289062 253.179688 205.054688 249.511719 C 205.796875 249.042969 206.285156 248.28125 206.285156 247.402344 " fill-opacity="1" fill-rule="nonzero"/><path fill="#000000" d="M 185.027344 234.445312 C 184.765625 234.5 184.496094 234.546875 184.222656 234.570312 C 178.71875 235.230469 175.304688 234.546875 171.824219 231.949219 C 172.734375 235.207031 176.738281 236.378906 179.898438 236.378906 C 181.945312 236.378906 183.6875 235.652344 185.027344 234.445312 Z M 188.179688 239.203125 C 188.234375 238.804688 188.453125 238.363281 188.667969 237.871094 C 188.109375 238.363281 187.472656 238.851562 186.710938 239.316406 C 183.835938 241.105469 181.195312 241.402344 177.886719 241.230469 C 175.054688 241.105469 172.4375 240.035156 170.4375 238.339844 C 170.777344 239.023438 171.210938 239.683594 171.824219 240.273438 C 174.339844 242.632812 176.988281 246.058594 180.878906 244.558594 C 183.003906 243.761719 187.722656 241.800781 188.179688 239.203125 Z M 192.976562 213.726562 C 193.511719 211.277344 191.828125 210.039062 189.507812 210.128906 C 188.496094 210.175781 187.304688 210.378906 186.425781 210.890625 C 185.6875 211.335938 186.300781 210.890625 186.542969 211.769531 C 186.6875 212.28125 186.597656 212.851562 186.710938 213.339844 C 187.359375 215.855469 191.660156 215.539062 192.976562 213.726562 Z M 197.890625 211.722656 C 200.359375 205.722656 205.136719 195.925781 197.699219 191.15625 C 189.941406 186.15625 181.308594 182.316406 172.335938 186.792969 C 166.003906 189.980469 162.511719 192.691406 159.066406 199.25 C 154.980469 207.085938 158.257812 209.695312 161.917969 215.960938 C 162.386719 216.789062 162.660156 217.941406 162.636719 218.875 C 162.511719 222.816406 165.421875 224.066406 168.550781 225.171875 C 169.425781 224.410156 170.699219 224.214844 171.734375 225.265625 C 175.804688 229.523438 182.09375 232.710938 186.472656 226.6875 C 188.179688 224.351562 188.65625 224.136719 191.601562 224.136719 C 194.59375 224.136719 195.617188 220.6875 196.320312 217.382812 C 194.171875 219.625 190.726562 220.46875 187.703125 219.773438 C 186.007812 219.410156 184.347656 218.578125 183.242188 217.179688 C 181.945312 215.539062 182.027344 213.75 181.457031 211.847656 C 179.878906 206.359375 187.964844 204.765625 191.761719 205.425781 C 195.128906 206.015625 197.402344 208.613281 197.890625 211.722656 Z M 200.164062 186.941406 C 206.714844 191.816406 207.160156 199.113281 205.726562 206.929688 C 204.625 212.917969 200.550781 216.449219 200.550781 223.328125 C 200.550781 225.515625 200.3125 226.984375 198.234375 228.203125 C 196.765625 229.058594 195.296875 228.964844 193.957031 229.011719 C 194.195312 229.351562 194.398438 229.75 194.445312 230.265625 C 194.742188 233.316406 195.503906 235.777344 193.71875 238.441406 C 192.445312 240.378906 192.445312 243.257812 190.464844 244.832031 C 187.554688 247.132812 182.855469 250.023438 178.96875 249.851562 C 173.882812 249.660156 170.777344 246.34375 167.492188 242.769531 C 164.046875 238.976562 164.511719 233.910156 164.683594 229.183594 C 162.214844 228.476562 159.53125 227.472656 158.40625 225.515625 C 156.472656 222.222656 158.449219 219 155.265625 216.027344 C 148.796875 209.980469 152.992188 201.90625 155.472656 194.945312 C 157.8125 188.308594 166.34375 183.511719 172.609375 181.382812 C 182.242188 178.101562 192.046875 180.894531 200.164062 186.941406 " fill-opacity="1" fill-rule="nonzero"/><path fill="#4a3733" d="M 204.453125 36.105469 C 205.160156 36.355469 205.625 36.675781 205.886719 37.039062 C 203.566406 37.632812 201.167969 38.097656 198.746094 38.460938 C 198.914062 37.585938 199.0625 36.699219 199.257812 35.84375 C 199.3125 35.617188 199.3125 35.398438 199.359375 35.183594 C 201.167969 35.332031 202.90625 35.617188 204.453125 36.105469 " fill-opacity="1" fill-rule="nonzero"/><path fill="#4a3733" d="M 204.394531 42.4375 C 203.863281 43.441406 203.417969 44.417969 203.417969 45.25 C 201.371094 45.957031 199.335938 46.378906 197.277344 46.59375 C 197.449219 45.570312 197.617188 44.554688 197.824219 43.53125 C 200.050781 43.257812 202.246094 42.894531 204.394531 42.4375 " fill-opacity="1" fill-rule="nonzero"/><path fill="#720e15" d="M 185.347656 225.96875 C 187.382812 222.941406 184.597656 217.941406 181.820312 216.324219 C 180.433594 215.492188 178.738281 215.617188 177.328125 216.253906 C 178.433594 214.636719 178.96875 212.632812 178.476562 210.445312 C 177.476562 205.867188 172.359375 204.148438 168.277344 206.039062 C 165.082031 207.507812 162.214844 212.726562 162.808594 216.199219 C 163.636719 221.074219 168.300781 220.582031 172.050781 220.46875 C 173.078125 220.433594 173.757812 219.878906 174.101562 219.148438 C 174.488281 218.921875 174.863281 218.679688 175.226562 218.429688 C 174.90625 219.046875 174.613281 219.683594 174.246094 220.152344 C 172.121094 222.734375 173.097656 226.984375 176.285156 228.132812 C 176.417969 228.203125 176.566406 228.179688 176.714844 228.203125 C 176.941406 228.351562 177.183594 228.476562 177.5 228.542969 C 180.355469 229.160156 183.640625 228.519531 185.347656 225.96875 Z M 197.699219 191.15625 C 205.136719 195.925781 200.359375 205.722656 197.890625 211.722656 C 197.402344 208.613281 195.128906 206.015625 191.761719 205.425781 C 187.964844 204.765625 179.878906 206.359375 181.457031 211.847656 C 182.027344 213.75 181.945312 215.539062 183.242188 217.179688 C 184.347656 218.578125 186.007812 219.410156 187.703125 219.773438 C 190.726562 220.46875 194.171875 219.625 196.320312 217.382812 C 195.617188 220.6875 194.59375 224.136719 191.601562 224.136719 C 188.65625 224.136719 188.179688 224.351562 186.472656 226.6875 C 182.09375 232.710938 175.804688 229.523438 171.734375 225.265625 C 170.699219 224.214844 169.425781 224.410156 168.550781 225.171875 C 165.421875 224.066406 162.511719 222.816406 162.636719 218.875 C 162.660156 217.941406 162.386719 216.789062 161.917969 215.960938 C 158.257812 209.695312 154.980469 207.085938 159.066406 199.25 C 162.511719 192.691406 166.003906 189.980469 172.335938 186.792969 C 181.308594 182.316406 189.941406 186.15625 197.699219 191.15625 " fill-opacity="1" fill-rule="nonzero"/><path fill="#cc974a" d="M 180.410156 11.082031 C 187.917969 11.128906 198.4375 10.695312 195.015625 21.425781 C 194.023438 24.453125 194.273438 27.5625 194.34375 30.671875 C 194.105469 30.695312 193.832031 30.695312 193.59375 30.695312 C 183.414062 30.695312 173.246094 30.695312 163.066406 30.695312 C 162.511719 30.695312 161.488281 30.71875 160.238281 30.820312 C 159.726562 27.792969 159.40625 24.726562 159.40625 21.710938 C 159.40625 10.128906 171.53125 11.015625 180.410156 11.082031 " fill-opacity="1" fill-rule="nonzero"/><path fill="#cc974a" d="M 194.171875 35.082031 C 194.023438 36.265625 193.785156 37.460938 193.320312 38.609375 C 193.273438 38.78125 193.207031 38.929688 193.148438 39.101562 C 182.855469 39.933594 171.949219 39.125 161.65625 38.042969 C 161.488281 37.289062 161.316406 36.480469 161.144531 35.695312 C 168.105469 35.480469 175.101562 35.59375 182.070312 35.59375 C 185.597656 35.59375 189.917969 35.160156 194.171875 35.082031 " fill-opacity="1" fill-rule="nonzero"/><path fill="#78e027" d="M 189.507812 210.128906 C 191.828125 210.039062 193.511719 211.277344 192.976562 213.726562 C 191.660156 215.539062 187.359375 215.855469 186.710938 213.339844 C 186.597656 212.851562 186.6875 212.28125 186.542969 211.769531 C 186.300781 210.890625 185.6875 211.335938 186.425781 210.890625 C 187.304688 210.378906 188.496094 210.175781 189.507812 210.128906 " fill-opacity="1" fill-rule="nonzero"/><path fill="#cc974a" d="M 192.125 44.066406 C 192.023438 44.933594 191.910156 45.886719 191.808594 46.832031 C 188.792969 46.8125 185.746094 46.617188 182.582031 46.617188 C 176.226562 46.617188 169.617188 46.421875 163.214844 45.421875 C 163.171875 45 163.125 44.589844 163.066406 44.167969 C 163.066406 44.066406 163.023438 44.019531 163 43.953125 C 163 43.804688 163.023438 43.679688 162.976562 43.507812 C 162.953125 43.359375 162.898438 43.210938 162.875 43.0625 C 172.460938 44.019531 182.515625 44.679688 192.125 44.066406 " fill-opacity="1" fill-rule="nonzero"/><path fill="#720e15" d="M 188.667969 237.871094 C 188.453125 238.363281 188.234375 238.804688 188.179688 239.203125 C 187.722656 241.800781 183.003906 243.761719 180.878906 244.558594 C 176.988281 246.058594 174.339844 242.632812 171.824219 240.273438 C 171.210938 239.683594 170.777344 239.023438 170.4375 238.339844 C 172.4375 240.035156 175.054688 241.105469 177.886719 241.230469 C 181.195312 241.402344 183.835938 241.105469 186.710938 239.316406 C 187.472656 238.851562 188.109375 238.363281 188.667969 237.871094 " fill-opacity="1" fill-rule="nonzero"/><path fill="#000000" d="M 170.996094 215.253906 C 172.609375 214.707031 174.292969 213.144531 173.632812 211.164062 C 173.203125 209.890625 170.746094 209.890625 169.914062 210.8125 C 169.3125 211.507812 166.855469 214.511719 167.640625 215.46875 C 167.765625 215.59375 167.84375 215.6875 167.890625 215.765625 C 167.914062 215.765625 167.914062 215.742188 167.957031 215.742188 C 168.449219 215.789062 168.949219 215.789062 169.425781 215.765625 C 169.699219 215.742188 169.9375 215.707031 170.210938 215.6875 C 170.4375 215.515625 170.675781 215.367188 170.996094 215.253906 Z M 181.820312 216.324219 C 184.597656 217.941406 187.382812 222.941406 185.347656 225.96875 C 183.640625 228.519531 180.355469 229.160156 177.5 228.542969 C 177.183594 228.476562 176.941406 228.351562 176.714844 228.203125 C 176.566406 228.179688 176.417969 228.203125 176.285156 228.132812 C 173.097656 226.984375 172.121094 222.734375 174.246094 220.152344 C 174.613281 219.683594 174.90625 219.046875 175.226562 218.429688 C 174.863281 218.679688 174.488281 218.921875 174.101562 219.148438 C 173.757812 219.878906 173.078125 220.433594 172.050781 220.46875 C 168.300781 220.582031 163.636719 221.074219 162.808594 216.199219 C 162.214844 212.726562 165.082031 207.507812 168.277344 206.039062 C 172.359375 204.148438 177.476562 205.867188 178.476562 210.445312 C 178.96875 212.632812 178.433594 214.636719 177.328125 216.253906 C 178.738281 215.617188 180.433594 215.492188 181.820312 216.324219 Z M 178.089844 223.726562 L 178.113281 223.726562 C 178.160156 223.773438 178.207031 223.796875 178.238281 223.816406 C 178.433594 223.816406 178.601562 223.773438 178.796875 223.816406 C 179.082031 223.898438 180.558594 223.988281 181.027344 223.625 C 181.027344 223.5 181.070312 223.257812 181.027344 223.113281 C 180.902344 222.691406 180.796875 222.371094 180.558594 222.007812 C 180.265625 221.515625 179.898438 221.128906 179.5 220.730469 C 179.480469 220.730469 179.480469 220.730469 179.480469 220.753906 C 179.113281 221.371094 178.71875 221.984375 178.398438 222.621094 C 178.332031 222.769531 178.183594 222.917969 178.089844 223.054688 C 178.058594 223.203125 178.035156 223.28125 178.035156 223.28125 C 178.035156 223.523438 178.058594 223.648438 178.089844 223.726562 Z M 177.839844 223.554688 C 177.761719 223.5 177.695312 223.453125 177.570312 223.40625 C 177.671875 223.429688 177.75 223.5 177.839844 223.554688 " fill-opacity="1" fill-rule="nonzero"/><path fill="#78e027" d="M 184.222656 234.570312 C 184.496094 234.546875 184.765625 234.5 185.027344 234.445312 C 183.6875 235.652344 181.945312 236.378906 179.898438 236.378906 C 176.738281 236.378906 172.734375 235.207031 171.824219 231.949219 C 175.304688 234.546875 178.71875 235.230469 184.222656 234.570312 " fill-opacity="1" fill-rule="nonzero"/><path fill="#cc974a" d="M 191.296875 51.878906 C 190.363281 60.398438 188.792969 69.269531 182.21875 69.078125 C 179.625 68.972656 168.039062 70.25 167.46875 67.996094 C 166.148438 62.777344 164.808594 56.390625 163.898438 50.511719 C 168.890625 51.195312 173.929688 51.445312 178.96875 51.515625 C 183.074219 51.59375 187.210938 51.878906 191.296875 51.878906 " fill-opacity="1" fill-rule="nonzero"/><path fill="#78e027" d="M 181.027344 223.113281 C 181.070312 223.257812 181.027344 223.5 181.027344 223.625 C 180.558594 223.988281 179.082031 223.898438 178.796875 223.816406 C 178.601562 223.773438 178.433594 223.816406 178.238281 223.816406 C 178.207031 223.796875 178.160156 223.773438 178.113281 223.726562 L 178.089844 223.726562 C 178.058594 223.648438 178.035156 223.523438 178.035156 223.28125 C 178.035156 223.28125 178.058594 223.203125 178.089844 223.054688 C 178.183594 222.917969 178.332031 222.769531 178.398438 222.621094 C 178.71875 221.984375 179.113281 221.371094 179.480469 220.753906 C 179.480469 220.730469 179.480469 220.730469 179.5 220.730469 C 179.898438 221.128906 180.265625 221.515625 180.558594 222.007812 C 180.796875 222.371094 180.902344 222.691406 181.027344 223.113281 " fill-opacity="1" fill-rule="nonzero"/><path fill="#78e027" d="M 173.632812 211.164062 C 174.292969 213.144531 172.609375 214.707031 170.996094 215.253906 C 170.675781 215.367188 170.4375 215.515625 170.210938 215.6875 C 169.9375 215.707031 169.699219 215.742188 169.425781 215.765625 C 168.949219 215.789062 168.449219 215.789062 167.957031 215.742188 C 167.914062 215.742188 167.914062 215.765625 167.890625 215.765625 C 167.84375 215.6875 167.765625 215.59375 167.640625 215.46875 C 166.855469 214.511719 169.3125 211.507812 169.914062 210.8125 C 170.746094 209.890625 173.203125 209.890625 173.632812 211.164062 " fill-opacity="1" fill-rule="nonzero"/><path fill="#ffffff" d="M 167.300781 91.113281 C 173.542969 91.238281 167.527344 97.652344 163.660156 98.539062 C 161.53125 99.019531 159.453125 100.613281 157.621094 101.648438 C 153.367188 104.015625 148.035156 104.121094 143.90625 106.546875 C 138.664062 109.597656 133.167969 112.683594 128.007812 115.917969 C 127.984375 115.917969 127.949219 115.941406 127.949219 115.964844 C 130.917969 111.726562 135.898438 106.910156 140.085938 105.292969 C 140.355469 105.191406 140.574219 105.019531 140.765625 104.847656 C 144.042969 103.949219 146.929688 102.082031 149.988281 100.566406 C 153.3125 98.902344 158.691406 98.21875 161.113281 95.28125 C 162.042969 94.15625 161.988281 92.949219 161.113281 91.820312 C 160.042969 90.429688 159.769531 90.007812 160.066406 89.0625 C 162.113281 90.773438 164.488281 91.066406 167.300781 91.113281 " fill-opacity="1" fill-rule="nonzero"/><path fill="#4a3733" d="M 157.6875 42.527344 C 157.859375 43.167969 158.007812 43.804688 158.179688 44.441406 C 156.6875 44.101562 155.222656 43.679688 153.800781 43.234375 C 153.605469 42.871094 153.34375 42.460938 153.070312 42.015625 C 154.585938 42.1875 156.132812 42.359375 157.6875 42.527344 " fill-opacity="1" fill-rule="nonzero"/><path fill="#4a3733" d="M 156.074219 35.945312 C 156.199219 36.457031 156.324219 36.992188 156.449219 37.484375 C 154.878906 37.3125 153.34375 37.140625 151.84375 36.972656 C 152.355469 36.480469 153.289062 36.105469 154.925781 36.015625 C 155.324219 35.992188 155.6875 35.96875 156.074219 35.945312 " fill-opacity="1" fill-rule="nonzero"/><path fill="#ffffff" d="M 147.660156 129.289062 C 148.226562 127.742188 151.492188 126.839844 152.820312 126.113281 C 155.324219 124.769531 157.484375 122.910156 159.976562 121.566406 C 162.75 120.066406 160.28125 115.839844 157.507812 117.34375 C 154.480469 118.972656 151.867188 121.191406 148.761719 122.707031 C 146.25 123.925781 143.941406 125.246094 142.9375 127.992188 C 141.847656 130.964844 146.578125 132.226562 147.660156 129.289062 " fill-opacity="1" fill-rule="nonzero"/><path fill="#ffffff" d="M 145.941406 138.957031 C 149.308594 137.582031 151.398438 135.15625 154.015625 132.75 C 157.484375 129.5625 161.542969 127.136719 165.480469 124.632812 C 168.128906 122.945312 165.683594 118.699219 163.011719 120.40625 C 159.816406 122.433594 156.894531 124.140625 154.074219 126.660156 C 152.730469 127.855469 151.160156 128.730469 149.832031 129.960938 C 148.160156 131.488281 146.816406 133.34375 144.644531 134.230469 C 141.765625 135.417969 143.019531 140.15625 145.941406 138.957031 " fill-opacity="1" fill-rule="nonzero"/><path fill="#ffffff" d="M 156.199219 140.167969 C 160.28125 136.714844 164.796875 133.84375 169.152344 130.746094 C 171.699219 128.949219 169.253906 124.6875 166.671875 126.523438 C 161.976562 129.859375 157.144531 132.980469 152.742188 136.703125 C 150.320312 138.742188 153.800781 142.183594 156.199219 140.167969 " fill-opacity="1" fill-rule="nonzero"/><path fill="#ffffff" d="M 165.367188 143.230469 C 166.421875 142.238281 167.867188 141.785156 169.152344 141.15625 C 170.347656 140.574219 170.652344 138.890625 170.027344 137.808594 C 169.3125 136.589844 167.878906 136.351562 166.671875 136.929688 C 164.980469 137.761719 163.320312 138.445312 161.910156 139.765625 C 159.601562 141.921875 163.058594 145.382812 165.367188 143.230469 " fill-opacity="1" fill-rule="nonzero"/><path fill="#ffffff" d="M 170.359375 148.84375 C 173.519531 148.84375 173.519531 143.945312 170.359375 143.945312 C 167.207031 143.945312 167.207031 148.84375 170.359375 148.84375 " fill-opacity="1" fill-rule="nonzero"/><path fill="#ffffff" d="M 215.609375 161.359375 C 218.464844 159.175781 221.933594 158.046875 224.777344 155.847656 C 225.832031 155.039062 226.390625 153.765625 225.652344 152.5 C 225.050781 151.453125 223.378906 150.816406 222.308594 151.625 C 219.453125 153.808594 215.996094 154.949219 213.140625 157.136719 C 212.085938 157.945312 211.527344 159.230469 212.265625 160.484375 C 212.878906 161.53125 214.550781 162.179688 215.609375 161.359375 " fill-opacity="1" fill-rule="nonzero"/><path fill="#ffffff" d="M 216.839844 154.015625 C 219.054688 152.351562 221.339844 150.78125 223.558594 149.117188 C 224.628906 148.320312 225.164062 147.023438 224.433594 145.769531 C 223.820312 144.710938 222.160156 144.09375 221.089844 144.890625 C 218.875 146.554688 216.585938 148.125 214.359375 149.789062 C 213.300781 150.585938 212.753906 151.886719 213.484375 153.136719 C 214.109375 154.195312 215.757812 154.824219 216.839844 154.015625 " fill-opacity="1" fill-rule="nonzero"/><path fill="#ffffff" d="M 216.714844 145.0625 C 217.203125 144.492188 217.476562 143.777344 217.941406 143.230469 C 218.804688 142.203125 218.929688 140.757812 217.941406 139.765625 C 217.054688 138.878906 215.347656 138.742188 214.484375 139.765625 C 213.996094 140.324219 213.722656 141.054688 213.253906 141.601562 C 212.390625 142.613281 212.265625 144.0625 213.253906 145.0625 C 214.144531 145.953125 215.847656 146.078125 216.714844 145.0625 " fill-opacity="1" fill-rule="nonzero"/><path fill="#ffffff" d="M 209.492188 139.324219 C 211.207031 138.492188 212.859375 137.808594 214.269531 136.488281 C 216.578125 134.335938 213.121094 130.871094 210.8125 133.023438 C 209.765625 134.015625 208.308594 134.472656 207.035156 135.097656 C 205.828125 135.679688 205.523438 137.363281 206.148438 138.445312 C 206.863281 139.664062 208.296875 139.902344 209.492188 139.324219 " fill-opacity="1" fill-rule="nonzero"/><path fill="#ffffff" d="M 139.070312 192.203125 C 138.867188 192.382812 139.730469 192.042969 139.675781 192.066406 C 140.390625 191.804688 140.925781 191.460938 141.515625 190.984375 C 142.5625 190.140625 142.394531 188.386719 141.515625 187.519531 C 140.503906 186.496094 139.09375 186.679688 138.058594 187.519531 C 138.277344 187.339844 137.398438 187.679688 137.46875 187.65625 C 136.753906 187.917969 136.21875 188.261719 135.613281 188.738281 C 134.578125 189.582031 134.75 191.335938 135.613281 192.203125 C 136.625 193.214844 138.046875 193.042969 139.070312 192.203125 " fill-opacity="1" fill-rule="nonzero"/><path fill="#ffffff" d="M 137.34375 199.046875 C 138.367188 199.046875 139.378906 199.046875 140.402344 199.046875 C 143.554688 199.046875 143.554688 194.148438 140.402344 194.148438 C 139.378906 194.148438 138.367188 194.148438 137.34375 194.148438 C 134.191406 194.148438 134.191406 199.046875 137.34375 199.046875 " fill-opacity="1" fill-rule="nonzero"/><path fill="#ffffff" d="M 136.742188 205.777344 C 137.546875 205.777344 138.367188 205.777344 139.175781 205.777344 C 142.335938 205.777344 142.335938 200.878906 139.175781 200.878906 C 138.367188 200.878906 137.546875 200.878906 136.742188 200.878906 C 133.578125 200.878906 133.578125 205.777344 136.742188 205.777344 " fill-opacity="1" fill-rule="nonzero"/><path fill="#ffffff" d="M 136.125 214.957031 C 136.742188 214.957031 137.34375 214.957031 137.957031 214.957031 C 141.117188 214.957031 141.117188 210.058594 137.957031 210.058594 C 137.34375 210.058594 136.742188 210.058594 136.125 210.058594 C 132.976562 210.058594 132.976562 214.957031 136.125 214.957031 " fill-opacity="1" fill-rule="nonzero"/><path fill="#ffffff" d="M 136.742188 224.148438 C 139.890625 224.148438 139.890625 219.25 136.742188 219.25 C 133.578125 219.25 133.578125 224.148438 136.742188 224.148438 " fill-opacity="1" fill-rule="nonzero"/><path fill="#ffffff" d="M 219.304688 219.160156 C 221.875 218.441406 224.082031 216.8125 226.640625 216.097656 C 229.679688 215.253906 228.382812 210.527344 225.34375 211.382812 C 222.761719 212.097656 220.566406 213.714844 218.007812 214.433594 C 214.972656 215.289062 216.269531 220.015625 219.304688 219.160156 " fill-opacity="1" fill-rule="nonzero"/><path fill="#ffffff" d="M 219.28125 229.933594 C 222.511719 227.449219 226.550781 226.253906 229.550781 223.429688 C 231.859375 221.265625 228.394531 217.804688 226.09375 219.96875 C 223.445312 222.460938 219.703125 223.488281 216.816406 225.707031 C 215.757812 226.515625 215.199219 227.792969 215.941406 229.058594 C 216.542969 230.105469 218.214844 230.742188 219.28125 229.933594 " fill-opacity="1" fill-rule="nonzero"/><path fill="#ffffff" d="M 223.445312 237.507812 C 225.320312 235.683594 227.664062 234.433594 229.550781 232.609375 C 231.828125 230.410156 228.359375 226.949219 226.09375 229.148438 C 224.207031 230.96875 221.863281 232.222656 219.976562 234.046875 C 217.714844 236.242188 221.183594 239.707031 223.445312 237.507812 " fill-opacity="1" fill-rule="nonzero"/><path fill="#ffffff" d="M 225.992188 244.957031 C 226.199219 244.957031 226.402344 244.957031 226.605469 244.957031 C 229.757812 244.957031 229.757812 240.058594 226.605469 240.058594 C 226.402344 240.058594 226.199219 240.058594 225.992188 240.058594 C 222.84375 240.058594 222.84375 244.957031 225.992188 244.957031 " fill-opacity="1" fill-rule="nonzero"/><path fill="#ffffff" d="M 224.765625 254.75 C 227.925781 254.75 227.925781 249.851562 224.765625 249.851562 C 221.613281 249.851562 221.613281 254.75 224.765625 254.75 " fill-opacity="1" fill-rule="nonzero"/><path fill="#ffffff" d="M 220.386719 206.277344 C 220.511719 206.175781 221.558594 205.730469 221.101562 205.777344 C 222.433594 205.652344 223.546875 204.765625 223.546875 203.328125 C 223.546875 202.085938 222.433594 200.753906 221.101562 200.878906 C 219.5 201.039062 218.125 201.746094 216.929688 202.816406 C 214.574219 204.945312 218.054688 208.398438 220.386719 206.277344 " fill-opacity="1" fill-rule="nonzero"/><path fill="#ffffff" d="M 219.875 197.203125 C 223.035156 197.203125 223.035156 192.304688 219.875 192.304688 C 216.722656 192.304688 216.722656 197.203125 219.875 197.203125 " fill-opacity="1" fill-rule="nonzero"/><path fill="#ffffff" d="M 141.640625 299.726562 C 142.9375 299.019531 144.007812 297.984375 145.304688 297.277344 C 148.078125 295.773438 145.609375 291.535156 142.835938 293.050781 C 141.539062 293.757812 140.472656 294.792969 139.175781 295.5 C 136.398438 297.003906 138.867188 301.226562 141.640625 299.726562 " fill-opacity="1" fill-rule="nonzero"/><path fill="#ffffff" d="M 142.882812 306.089844 C 145.019531 305.316406 146.65625 303.996094 148.25 302.402344 C 150.480469 300.167969 147.023438 296.707031 144.792969 298.9375 C 143.835938 299.894531 142.882812 300.898438 141.585938 301.375 C 140.335938 301.832031 139.503906 303.015625 139.878906 304.382812 C 140.210938 305.589844 141.640625 306.546875 142.882812 306.089844 " fill-opacity="1" fill-rule="nonzero"/><path fill="#ffffff" d="M 145.191406 315.257812 C 144.972656 315.429688 145.851562 315.101562 145.78125 315.121094 C 146.507812 314.859375 147.042969 314.519531 147.636719 314.039062 C 148.671875 313.199219 148.5 311.445312 147.636719 310.578125 C 146.625 309.554688 145.203125 309.734375 144.179688 310.578125 C 144.394531 310.398438 143.519531 310.738281 143.574219 310.714844 C 142.859375 310.976562 142.324219 311.320312 141.734375 311.796875 C 140.699219 312.640625 140.859375 314.394531 141.734375 315.257812 C 142.746094 316.273438 144.15625 316.101562 145.191406 315.257812 " fill-opacity="1" fill-rule="nonzero"/><path fill="#ffffff" d="M 218.542969 292.605469 C 219.15625 291.933594 219.648438 291.183594 220.160156 290.433594 C 220.410156 290.054688 220.785156 289.75 221.023438 289.359375 C 221.226562 289.042969 221.363281 288.609375 221.601562 288.324219 C 222.480469 287.3125 222.605469 285.863281 221.601562 284.863281 C 220.714844 283.972656 219.011719 283.835938 218.144531 284.863281 C 217.019531 286.183594 216.269531 287.847656 215.085938 289.144531 C 212.984375 291.480469 216.429688 294.953125 218.542969 292.605469 " fill-opacity="1" fill-rule="nonzero"/><path fill="#ffffff" d="M 222.933594 298.222656 C 222.992188 296.355469 224.035156 294.851562 225.050781 293.335938 C 226.800781 290.695312 222.558594 288.246094 220.828125 290.863281 C 219.304688 293.140625 218.125 295.429688 218.042969 298.222656 C 217.953125 301.386719 222.84375 301.375 222.933594 298.222656 " fill-opacity="1" fill-rule="nonzero"/><path fill="#ffffff" d="M 224.664062 308.527344 C 225.480469 307.707031 226.300781 306.890625 227.109375 306.078125 C 229.347656 303.835938 225.878906 300.386719 223.648438 302.617188 C 222.84375 303.425781 222.023438 304.246094 221.207031 305.066406 C 218.976562 307.296875 222.433594 310.761719 224.664062 308.527344 " fill-opacity="1" fill-rule="nonzero"/><path fill="#ffffff" d="M 223.546875 315.976562 C 226.699219 315.976562 226.699219 311.078125 223.546875 311.078125 C 220.386719 311.078125 220.386719 315.976562 223.546875 315.976562 " fill-opacity="1" fill-rule="nonzero"/><path fill="#59a516" d="M 159.019531 303.128906 C 160.53125 301.171875 162.296875 299.40625 164.261719 297.890625 C 166.242188 296.367188 169.324219 295.410156 171.621094 294.464844 C 174.496094 293.277344 173.234375 288.542969 170.324219 289.738281 C 167.277344 290.988281 163.695312 292.1875 161.066406 294.210938 C 158.644531 296.082031 156.652344 298.246094 154.800781 300.660156 C 152.878906 303.164062 157.132812 305.601562 159.019531 303.128906 " fill-opacity="1" fill-rule="nonzero"/><path fill="#59a516" d="M 170.027344 301.910156 C 170.871094 300.738281 172.792969 300.398438 174.066406 299.976562 C 177.046875 298.996094 175.773438 294.257812 172.769531 295.25 C 170.050781 296.148438 167.550781 297.027344 165.796875 299.441406 C 165.011719 300.523438 165.617188 302.164062 166.671875 302.789062 C 167.914062 303.515625 169.242188 302.992188 170.027344 301.910156 " fill-opacity="1" fill-rule="nonzero"/><path fill="#59a516" d="M 173.316406 309.746094 C 175.125 307.457031 177.839844 306.320312 180.148438 304.621094 C 181.230469 303.835938 181.753906 302.515625 181.027344 301.273438 C 180.410156 300.203125 178.761719 299.601562 177.683594 300.398438 C 175.042969 302.320312 171.925781 303.664062 169.859375 306.285156 C 169.027344 307.332031 168.835938 308.722656 169.859375 309.746094 C 170.710938 310.613281 172.484375 310.796875 173.316406 309.746094 " fill-opacity="1" fill-rule="nonzero"/><path fill="#59a516" d="M 181.867188 313.425781 C 182.070312 313.222656 182.277344 313.015625 182.480469 312.8125 C 184.710938 310.578125 181.253906 307.117188 179.023438 309.347656 C 178.820312 309.554688 178.613281 309.757812 178.410156 309.964844 C 176.179688 312.195312 179.636719 315.65625 181.867188 313.425781 " fill-opacity="1" fill-rule="nonzero"/><path fill="#59a516" d="M 146.554688 233.238281 C 146.929688 233.179688 147.261719 233.03125 147.589844 232.835938 C 147.761719 232.699219 147.921875 232.574219 148.089844 232.449219 C 148.398438 232.175781 148.285156 232.246094 147.773438 232.632812 C 149.089844 232.394531 149.808594 230.8125 149.488281 229.613281 C 149.113281 228.238281 147.785156 227.679688 146.476562 227.90625 C 146.101562 227.976562 145.769531 228.121094 145.441406 228.316406 C 145.28125 228.441406 145.109375 228.566406 144.953125 228.691406 C 144.644531 228.964844 144.746094 228.910156 145.257812 228.519531 C 143.941406 228.75 143.222656 230.332031 143.554688 231.527344 C 143.929688 232.90625 145.246094 233.464844 146.554688 233.238281 " fill-opacity="1" fill-rule="nonzero"/><path fill="#59a516" d="M 147.136719 227.816406 C 150.285156 227.816406 150.285156 222.917969 147.136719 222.917969 C 143.972656 222.917969 143.972656 227.816406 147.136719 227.816406 " fill-opacity="1" fill-rule="nonzero"/><path fill="#59a516" d="M 205.828125 297.890625 C 207.125 297.183594 208.195312 296.148438 209.492188 295.441406 C 212.265625 293.929688 209.796875 289.703125 207.035156 291.207031 C 205.738281 291.914062 204.65625 292.960938 203.363281 293.667969 C 200.585938 295.167969 203.054688 299.394531 205.828125 297.890625 " fill-opacity="1" fill-rule="nonzero"/><path fill="#59a516" d="M 209.992188 305.464844 C 210.96875 304.566406 212.09375 303.8125 212.824219 302.515625 C 214.382812 299.769531 210.152344 297.300781 208.605469 300.042969 C 208.117188 300.910156 207.238281 301.34375 206.535156 302.003906 C 204.214844 304.15625 207.683594 307.605469 209.992188 305.464844 " fill-opacity="1" fill-rule="nonzero"/><path fill="#59a516" d="M 208.878906 313.527344 C 210.480469 313.367188 211.855469 312.664062 213.050781 311.582031 C 215.394531 309.460938 211.925781 306.011719 209.59375 308.128906 C 209.46875 308.234375 208.421875 308.675781 208.878906 308.632812 C 207.546875 308.757812 206.433594 309.644531 206.433594 311.078125 C 206.433594 312.320312 207.546875 313.652344 208.878906 313.527344 " fill-opacity="1" fill-rule="nonzero"/><path fill="#59a516" d="M 212.539062 319.039062 C 215.699219 319.039062 215.699219 314.144531 212.539062 314.144531 C 209.390625 314.144531 209.390625 319.039062 212.539062 319.039062 " fill-opacity="1" fill-rule="nonzero"/><path fill="#59a516" d="M 184.425781 290.261719 C 187.578125 290.261719 187.578125 285.363281 184.425781 285.363281 C 181.265625 285.363281 181.265625 290.261719 184.425781 290.261719 " fill-opacity="1" fill-rule="nonzero"/><path fill="#59a516" d="M 188.097656 298.496094 C 189.566406 297.742188 191.054688 296.808594 192.261719 295.671875 C 194.570312 293.507812 191.101562 290.042969 188.804688 292.207031 C 188.007812 292.949219 186.746094 293.699219 185.632812 294.269531 C 182.832031 295.726562 185.300781 299.953125 188.097656 298.496094 " fill-opacity="1" fill-rule="nonzero"/><path fill="#59a516" d="M 190.566406 307.320312 C 191.226562 307.21875 191.761719 306.808594 192.410156 306.707031 C 193.730469 306.511719 194.433594 304.863281 194.117188 303.699219 C 193.730469 302.289062 192.433594 301.785156 191.101562 301.980469 C 190.453125 302.082031 189.917969 302.503906 189.269531 302.59375 C 187.953125 302.789062 187.246094 304.441406 187.566406 305.613281 C 187.953125 307.015625 189.25 307.515625 190.566406 307.320312 " fill-opacity="1" fill-rule="nonzero"/></svg>