<svg xmlns="http://www.w3.org/2000/svg" xmlns:xlink="http://www.w3.org/1999/xlink" width="480" zoomAndPan="magnify" viewBox="0 0 360 359.999987" height="480" preserveAspectRatio="xMidYMid meet" version="1.0"><defs><g/><clipPath id="4c7df4e719"><path d="M 146 28 L 331 28 L 331 232.195312 L 146 232.195312 Z M 146 28 " clip-rule="nonzero"/></clipPath><clipPath id="889dc7087d"><path d="M 10 32 L 184.664062 32 L 184.664062 226 L 10 226 Z M 10 32 " clip-rule="nonzero"/></clipPath></defs><g clip-path="url(#4c7df4e719)"><path fill="#ffffff" d="M 226.03125 232.015625 C 209.058594 232.015625 193.660156 225.972656 181.464844 214.640625 C 161.039062 197.011719 147.777344 166.542969 146.894531 135.1875 C 146.078125 107.109375 154.816406 82.746094 171.472656 66.503906 C 186.933594 50.320312 210.820312 28.789062 239.859375 28.789062 L 242.5625 28.789062 C 249.800781 28.980469 256.902344 30.0625 263.871094 32.035156 C 270.839844 34.007812 277.460938 36.808594 283.730469 40.4375 C 286.761719 42.210938 289.691406 44.144531 292.507812 46.238281 C 295.328125 48.335938 298.023438 50.582031 300.597656 52.972656 C 303.167969 55.367188 305.601562 57.898438 307.890625 60.5625 C 310.183594 63.226562 312.324219 66.007812 314.308594 68.90625 C 316.296875 71.808594 318.113281 74.808594 319.769531 77.910156 C 321.425781 81.011719 322.902344 84.199219 324.207031 87.464844 C 325.507812 90.730469 326.628906 94.054688 327.5625 97.445312 C 328.5 100.835938 329.246094 104.265625 329.804688 107.738281 C 330.96875 114.964844 331.226562 122.222656 330.578125 129.511719 C 329.929688 136.800781 328.394531 143.898438 325.96875 150.800781 C 318.929688 173.214844 303.84375 192.164062 277.066406 211.996094 C 263.113281 224.652344 244.507812 231.953125 226.03125 231.953125 Z M 235.960938 122.660156 C 236.441406 128.664062 237.863281 134.4375 240.234375 139.972656 C 239.785156 133.960938 238.363281 128.1875 235.960938 122.660156 Z M 235.960938 122.660156 " fill-opacity="1" fill-rule="nonzero"/></g><path fill="#ff053d" d="M 226.09375 224.148438 C 247.148438 224.839844 260.160156 214.136719 275.371094 203.246094 C 301.769531 183.164062 323.707031 155.082031 322.261719 119.828125 C 324.335938 63.667969 255.070312 14.875 206.609375 47.550781 C 195.824219 54.5625 186.0625 62.789062 177.316406 72.230469 C 132.628906 115.105469 158.273438 221.816406 226.09375 224.148438 Z M 243.316406 119.132812 C 248.847656 131.097656 250.039062 146.582031 247.085938 158.734375 C 229.046875 150.800781 224.835938 121.273438 229.109375 103.898438 C 234.828125 106.164062 239.796875 111.390625 243.316406 119.132812 Z M 243.316406 119.132812 " fill-opacity="1" fill-rule="nonzero"/><path fill="#ffe505" d="M 248.71875 205.007812 C 226.722656 204.441406 207.171875 192.292969 193.722656 170.695312 C 176.125 142.554688 172.351562 104.023438 184.609375 76.953125 C 194.351562 51.644531 214.777344 37.164062 240.550781 37.164062 C 255.195312 37.164062 270.40625 41.824219 284.546875 50.699219 C 309.125 66.691406 323.203125 94.203125 322.261719 124.296875 C 321.316406 154.390625 304.914062 182.34375 278.449219 197.328125 C 270.65625 202.363281 260.664062 205.007812 248.785156 205.007812 Z M 247.210938 83.625 C 232.191406 85.765625 227.222656 103.960938 227.539062 119.007812 C 227.980469 137.769531 236.589844 158.355469 251.738281 159.867188 C 266.507812 157.789062 271.472656 139.785156 271.222656 124.925781 C 270.972656 106.101562 262.421875 85.261719 247.210938 83.625 Z M 247.210938 83.625 " fill-opacity="1" fill-rule="nonzero"/><path fill="#820022" d="M 243 115.734375 C 249.539062 109.25 256.011719 102.703125 262.484375 96.21875 C 258.777344 90.109375 253.6875 85.765625 247.464844 84.949219 L 247.085938 84.949219 C 237.40625 86.460938 232.945312 95.148438 230.871094 102.136719 C 230.789062 102.429688 230.804688 102.71875 230.921875 103 C 231.039062 103.28125 231.230469 103.5 231.5 103.648438 C 236.023438 105.914062 239.921875 110.132812 243 115.734375 Z M 243 115.734375 " fill-opacity="1" fill-rule="nonzero"/><path fill="#820022" d="M 270.53125 203.8125 C 270.289062 203.363281 269.910156 203.132812 269.398438 203.121094 L 269.023438 203.246094 C 262.414062 205.328125 255.648438 206.332031 248.71875 206.269531 C 245.457031 206.183594 242.21875 205.84375 239.007812 205.25 C 235.796875 204.65625 232.648438 203.8125 229.570312 202.722656 C 226.492188 201.632812 223.519531 200.308594 220.648438 198.75 C 217.777344 197.1875 215.046875 195.414062 212.453125 193.425781 C 205.726562 199.28125 199.191406 205.261719 193.09375 211.683594 C 197.929688 215.144531 203.164062 217.832031 208.796875 219.738281 C 214.425781 221.648438 220.214844 222.699219 226.15625 222.886719 L 227.980469 222.886719 C 245.953125 222.886719 258.273438 213.949219 270.152344 205.386719 C 270.398438 205.203125 270.558594 204.964844 270.628906 204.667969 C 270.699219 204.371094 270.667969 204.085938 270.53125 203.8125 Z M 270.53125 203.8125 " fill-opacity="1" fill-rule="nonzero"/><path fill="#000000" d="M 227.980469 226.730469 L 226.03125 226.730469 C 210.820312 226.226562 197.054688 220.746094 185.175781 210.421875 C 174.550781 201.230469 165.878906 188.386719 160.160156 173.277344 C 156.796875 164.480469 154.542969 155.40625 153.394531 146.054688 C 152.246094 136.703125 152.238281 127.351562 153.371094 118 C 155.882812 98.484375 163.554688 82.117188 175.496094 70.53125 C 184.386719 60.949219 194.296875 52.574219 205.226562 45.410156 C 212.027344 40.632812 219.503906 37.464844 227.664062 35.90625 L 227.980469 35.90625 L 228.671875 35.777344 C 232.800781 34.96875 236.96875 34.570312 241.179688 34.582031 L 242.433594 34.582031 C 252.707031 34.835938 262.53125 37.058594 271.914062 41.257812 L 272.605469 41.570312 C 277.195312 43.578125 281.617188 45.90625 285.867188 48.558594 C 291.886719 52.464844 297.320312 57.0625 302.175781 62.351562 C 307.03125 67.640625 311.148438 73.453125 314.527344 79.785156 C 321.695312 92.441406 325.277344 106.292969 324.773438 119.828125 C 325.167969 129.824219 323.761719 139.5625 320.5625 149.039062 C 318.589844 155.414062 315.917969 161.484375 312.554688 167.246094 C 309.1875 173.007812 305.21875 178.3125 300.636719 183.164062 C 293.507812 191.359375 285.585938 198.703125 276.878906 205.199219 L 273.609375 207.589844 L 273.484375 207.589844 C 259.972656 217.472656 247.210938 226.730469 227.980469 226.730469 Z M 186.933594 66.125 C 184.167969 68.707031 181.527344 71.351562 179.140625 73.929688 L 179.140625 74.058594 C 156.890625 95.335938 151.042969 135.378906 164.808594 171.453125 C 176.5 201.921875 199.441406 220.746094 226.21875 221.628906 L 227.980469 221.628906 C 245.074219 221.628906 256.515625 213.695312 269.398438 204.316406 C 262.699219 206.503906 255.828125 207.550781 248.785156 207.464844 L 248.65625 207.464844 C 225.777344 206.898438 205.539062 194.304688 191.585938 172.019531 C 173.609375 143.246094 169.777344 103.710938 182.285156 76.007812 C 183.605469 72.605469 185.15625 69.3125 186.933594 66.125 Z M 240.550781 39.683594 C 238.914062 39.683594 237.28125 39.746094 235.648438 39.871094 C 230.910156 40.285156 226.292969 41.265625 221.796875 42.8125 C 217.300781 44.355469 213.054688 46.417969 209.058594 49 C 199.378906 55.546875 191.710938 65.496094 186.933594 77.898438 L 186.933594 78.023438 C 174.992188 104.339844 178.699219 141.925781 195.859375 169.375 C 208.871094 190.214844 227.664062 201.988281 248.785156 202.488281 C 260.160156 202.488281 269.714844 200.035156 277.066406 195.25 L 277.195312 195.125 C 284.546875 190.976562 291.125 185.835938 296.929688 179.699219 C 305.792969 169.3125 312.203125 158.355469 315.910156 147.085938 C 317.507812 141.964844 318.613281 136.742188 319.222656 131.410156 C 319.835938 126.082031 319.945312 120.742188 319.554688 115.390625 C 319.160156 110.042969 318.273438 104.777344 316.890625 99.59375 C 315.503906 94.410156 313.648438 89.402344 311.324219 84.570312 C 309.355469 80.882812 307.140625 77.351562 304.667969 73.980469 C 302.195312 70.609375 299.5 67.433594 296.574219 64.449219 C 293.648438 61.464844 290.523438 58.707031 287.203125 56.171875 C 283.882812 53.636719 280.402344 51.351562 276.753906 49.316406 C 274.632812 48.109375 272.453125 47.019531 270.21875 46.039062 C 265.539062 43.988281 260.699219 42.425781 255.707031 41.351562 C 250.710938 40.28125 245.65625 39.726562 240.550781 39.683594 Z M 240.550781 39.683594 " fill-opacity="1" fill-rule="nonzero"/><path fill="#000000" d="M 251.738281 162.386719 L 251.484375 162.386719 C 250.554688 162.273438 249.632812 162.105469 248.71875 161.882812 L 248.15625 161.882812 L 246.082031 160.9375 C 242.972656 159.691406 240.269531 157.84375 237.972656 155.398438 C 230.808594 148.347656 226.21875 136.449219 225.277344 122.785156 C 225.148438 121.527344 225.085938 120.269531 225.023438 119.007812 C 224.882812 113.25 225.53125 107.585938 226.972656 102.011719 L 227.222656 101.128906 L 227.222656 100.941406 C 229.675781 92.753906 235.019531 82.746094 246.835938 81.109375 L 247.464844 81.109375 C 264.058594 82.871094 273.421875 104.96875 273.671875 124.800781 C 273.925781 140.664062 268.394531 160.058594 251.988281 162.261719 L 251.675781 162.261719 Z M 250.039062 157.035156 L 251.675781 157.285156 C 264.621094 155.273438 268.960938 138.652344 268.707031 124.988281 C 268.457031 107.425781 260.851562 87.90625 247.273438 86.207031 C 238.285156 87.59375 234.074219 95.714844 232.0625 102.511719 C 237.59375 105.347656 242.246094 110.699219 245.640625 118.0625 C 250.792969 129.460938 252.492188 144.316406 250.039062 157.035156 Z M 230.933594 107.613281 C 230 113.234375 229.832031 118.878906 230.429688 124.546875 C 231.371094 133.046875 233.886719 140.917969 237.46875 146.773438 C 239.460938 150.089844 242.078125 152.796875 245.328125 154.894531 C 247.273438 143.5 245.640625 130.277344 241.050781 120.203125 C 238.414062 114.414062 234.894531 110.070312 230.933594 107.613281 Z M 230.933594 107.613281 " fill-opacity="1" fill-rule="nonzero"/><g clip-path="url(#889dc7087d)"><path fill="#ffffff" d="M 140.847656 225.820312 C 132.859375 225.820312 130.648438 218.285156 129.382812 210.976562 C 114.898438 220.585938 99.105469 225.683594 83.582031 225.683594 C 80.789062 225.691406 78.007812 225.542969 75.234375 225.234375 C 58.085938 222.570312 43.78125 215.035156 32.679688 202.898438 C 22.707031 191.980469 15.757812 177.539062 12.554688 161.070312 C 8.628906 140.992188 10.480469 119.199219 17.699219 99.617188 C 25.460938 78.722656 38.546875 62.300781 55.515625 52.148438 C 69.863281 39.105469 87.054688 32.203125 105.152344 32.203125 C 120.496094 32.203125 135.476562 37.167969 148.515625 46.507812 C 161.558594 55.847656 172.207031 69.609375 178.390625 85.71875 C 178.660156 86.347656 178.886719 86.9375 179.113281 87.523438 C 182.453125 96.050781 183.667969 99.164062 175.90625 106.113281 C 177.050781 106.226562 178.132812 106.539062 179.160156 107.054688 C 180.1875 107.566406 181.089844 108.246094 181.863281 109.089844 C 183.21875 110.578125 184.664062 113.285156 184.167969 117.753906 C 183.535156 129.574219 182.933594 142.148438 182.359375 155.476562 C 181.683594 171.222656 180.960938 187.464844 180.058594 202.3125 C 179.429688 205.742188 177.261719 207.769531 175.003906 209.847656 L 174.597656 210.253906 C 171.304688 214 166.027344 218.148438 162.191406 220.632812 C 160.070312 223.429688 154.246094 224.058594 149.601562 224.554688 C 147.929688 224.738281 146.304688 224.917969 145.179688 225.144531 C 143.761719 225.550781 142.316406 225.773438 140.847656 225.820312 Z M 103.210938 170.230469 C 104.183594 170.375 105.160156 170.449219 106.144531 170.457031 C 108.292969 170.429688 110.398438 170.117188 112.460938 169.507812 L 114.628906 165.945312 L 113.589844 166.351562 L 111.425781 167.160156 C 108.726562 168.003906 106.078125 168.980469 103.480469 170.09375 Z M 84.980469 105.390625 C 83.109375 108.46875 81.71875 111.753906 80.8125 115.242188 C 79.90625 118.730469 79.519531 122.273438 79.65625 125.875 C 79.070312 134.628906 80.46875 143.429688 83.671875 151.007812 C 83.265625 148.210938 82.632812 145.550781 82.046875 143.023438 C 80.875 138.148438 79.65625 133.09375 80.105469 127.050781 C 80.332031 124.613281 82.09375 122.941406 83.761719 121.363281 C 84.347656 120.824219 84.890625 120.324219 85.339844 119.828125 C 85.792969 119.332031 87.054688 118.070312 87.644531 117.484375 C 89.449219 115.679688 90.171875 114.910156 94.726562 111.707031 C 95.765625 111.074219 96.53125 110.445312 97.253906 109.949219 C 98.789062 108.773438 100.097656 107.78125 102.21875 107.421875 C 99.375 104.941406 96.488281 103.765625 93.148438 103.765625 C 90.890625 103.8125 88.410156 104.308594 84.980469 105.390625 Z M 84.980469 105.390625 " fill-opacity="1" fill-rule="nonzero"/></g><path fill="#ff053d" d="M 34.035156 194.820312 C 59.125 227.398438 101 226.453125 131.867188 201.859375 C 135.925781 203.710938 134.707031 219.953125 140.214844 219.910156 C 145.71875 219.863281 151.40625 218.734375 156.730469 217.382812 L 165.257812 211.335938 C 167.289062 209.394531 169.230469 207.367188 171.214844 205.378906 C 173.199219 203.394531 174.78125 201.136719 174.507812 198.972656 C 175.59375 174.425781 176.8125 147.578125 178.34375 117.4375 C 178.480469 112.699219 177.757812 112.023438 173.199219 111.84375 C 168.644531 111.664062 164.402344 112.160156 158.894531 112.203125 C 158.941406 112.113281 167.425781 106.15625 167.46875 106.113281 L 171.980469 101.601562 L 175.097656 98.488281 C 176.179688 97.71875 175.863281 96.5 175.410156 94.5625 C 158.488281 41.816406 102.355469 19.117188 59.078125 56.796875 C 14.539062 86.980469 0.914062 151.730469 34.035156 194.820312 Z M 102.984375 113.285156 C 102.445312 113.378906 93.824219 119.605469 93.554688 119.964844 L 89.492188 124.027344 C 88.816406 124.746094 88.050781 125.378906 87.371094 126.148438 C 87.039062 126.414062 86.738281 126.714844 86.46875 127.050781 C 86.210938 127.1875 86.046875 127.398438 85.972656 127.679688 C 85.160156 135.621094 88.5 141.21875 89.3125 149.746094 C 92.96875 173.523438 93.058594 166.621094 109.664062 161.566406 C 112.914062 160.304688 120.089844 157.597656 122.253906 156.917969 C 126.945312 157.867188 120.179688 168.335938 116.253906 174.425781 C 78.796875 187.738281 62.464844 125.605469 81.234375 100.519531 C 93.914062 95.871094 103.664062 96.367188 113.589844 112.476562 C 110.117188 112.65625 106.550781 112.925781 102.984375 113.285156 Z M 102.984375 113.285156 " fill-opacity="1" fill-rule="nonzero"/><path fill="#ffe505" d="M 100.144531 206.371094 C 80.917969 206.371094 63.183594 197.394531 50.28125 181.105469 C 42.472656 171.222656 36.878906 159.128906 34.078125 146 C 31.101562 132.058594 31.328125 117.574219 34.757812 102.953125 C 35.515625 98.539062 36.632812 94.214844 38.113281 89.984375 C 39.589844 85.753906 41.40625 81.675781 43.566406 77.75 C 45.722656 73.820312 48.191406 70.097656 50.96875 66.582031 C 53.746094 63.066406 56.796875 59.804688 60.117188 56.796875 C 73.5625 44.566406 90.035156 37.800781 106.550781 37.800781 C 119.59375 37.800781 131.957031 41.949219 143.238281 50.070312 C 157.453125 59.636719 169.140625 75.609375 175.230469 93.976562 L 175.230469 94.066406 L 175.367188 94.605469 C 175.773438 96.320312 176 97.222656 175.503906 97.992188 C 175.003906 98.757812 174.148438 98.9375 172.386719 99.300781 L 172.074219 99.300781 L 157.675781 100.921875 L 147.296875 102.050781 L 140.890625 102.820312 C 138.542969 103.089844 136.109375 103.40625 133.804688 103.585938 L 133.761719 103.585938 C 132.273438 103.585938 131.820312 103 130.828125 100.699219 C 124.285156 87.117188 115.035156 84.273438 108.402344 84.273438 C 100.277344 84.273438 91.660156 88.558594 84.800781 96.050781 C 76.859375 104.667969 72.886719 115.679688 73.789062 126.28125 L 73.789062 126.460938 C 72.707031 141.351562 77.941406 157.371094 87.148438 167.253906 C 92.789062 173.390625 99.421875 176.59375 106.324219 176.59375 C 113.230469 176.59375 119.457031 173.792969 126.089844 168.289062 L 126.40625 168.109375 C 128.527344 167.160156 141.117188 149.519531 139.988281 144.285156 C 139.851562 143.742188 139.582031 143.203125 138.453125 143.203125 C 136.605469 143.789062 133.039062 145.144531 128.976562 146.675781 C 121.9375 149.339844 113.996094 152.316406 111.019531 152.949219 L 110.835938 152.949219 C 108.671875 152.949219 107.542969 148.527344 105.511719 136.027344 C 105.0625 133.050781 104.609375 130.253906 104.292969 129.441406 C 104.25 129.371094 104.234375 129.296875 104.25 129.214844 C 104.027344 127.367188 103.667969 125.546875 103.167969 123.753906 C 102.355469 120.324219 101.453125 116.804688 102.171875 113.964844 C 102.300781 113.566406 102.574219 113.34375 102.984375 113.285156 C 113.679688 112.160156 124.464844 112.023438 132.679688 112.023438 L 144.90625 112.113281 L 144.953125 112.113281 L 156.957031 112.203125 C 163.363281 112.203125 168.507812 112.070312 173.199219 111.84375 L 173.289062 111.84375 C 177.847656 112.023438 178.480469 112.699219 178.34375 117.4375 C 176.8125 147.578125 175.59375 174.425781 174.507812 198.972656 C 174.507812 199.558594 174.507812 202.085938 173.289062 203.347656 C 172.878906 203.800781 172.367188 204.027344 171.757812 204.027344 L 167.152344 204.75 C 163.632812 205.289062 160.023438 205.832031 156.460938 206.191406 L 156.367188 206.191406 C 153.617188 206.191406 152.714844 202.085938 151.945312 198.476562 C 151.769531 197.378906 151.484375 196.3125 151.089844 195.273438 C 151.09375 195.222656 151.078125 195.175781 151.042969 195.136719 L 150.636719 193.378906 C 150.140625 191.300781 149.375 188.144531 148.109375 188.144531 C 147.703125 188.144531 147.074219 188.367188 145.988281 189.363281 L 145.898438 189.363281 C 131.007812 200.6875 115.621094 206.371094 100.144531 206.371094 Z M 100.144531 206.371094 " fill-opacity="1" fill-rule="nonzero"/><path fill="#820022" d="M 156.957031 111.300781 L 145.085938 111.210938 L 144.90625 111.210938 L 132.679688 111.121094 L 129.203125 111.121094 C 128.835938 111.113281 128.566406 110.949219 128.390625 110.625 C 128.316406 110.457031 128.296875 110.28125 128.328125 110.101562 C 128.363281 109.921875 128.441406 109.765625 128.570312 109.632812 L 132.8125 104.847656 C 132.992188 104.648438 133.21875 104.542969 133.492188 104.535156 L 133.898438 104.535156 C 136.199219 104.351562 138.632812 104.039062 140.9375 103.765625 L 140.980469 103.765625 C 143.101562 103.539062 145.3125 103.226562 147.433594 103.042969 L 157.769531 101.917969 L 169.5 100.609375 L 169.589844 100.609375 C 169.972656 100.59375 170.242188 100.757812 170.402344 101.105469 C 170.488281 101.277344 170.511719 101.460938 170.480469 101.652344 C 170.445312 101.84375 170.359375 102.007812 170.222656 102.140625 C 169.363281 103.042969 168.148438 104.21875 166.929688 105.4375 L 166.839844 105.4375 L 161.917969 108.957031 L 158.851562 111.121094 C 158.683594 111.222656 158.503906 111.285156 158.308594 111.300781 Z M 156.957031 111.300781 " fill-opacity="1" fill-rule="nonzero"/><path fill="#820022" d="M 130.152344 201.046875 C 129.976562 200.761719 129.71875 200.613281 129.382812 200.597656 L 129.023438 200.6875 C 119.5 205.0625 109.800781 207.273438 100.144531 207.273438 C 96.882812 207.273438 93.644531 207.015625 90.429688 206.5 C 87.210938 205.984375 84.054688 205.222656 80.957031 204.207031 C 77.863281 203.191406 74.863281 201.9375 71.96875 200.445312 C 69.070312 198.957031 66.308594 197.246094 63.679688 195.316406 L 50.097656 208.808594 C 53.976562 211.429688 58.109375 213.5625 62.496094 215.199219 C 66.882812 216.839844 71.398438 217.945312 76.046875 218.511719 C 78.519531 218.78125 81.003906 218.917969 83.492188 218.917969 C 99.375 218.917969 115.847656 213.003906 129.925781 202.222656 C 130.105469 202.082031 130.21875 201.902344 130.261719 201.675781 C 130.304688 201.453125 130.265625 201.246094 130.152344 201.046875 Z M 130.152344 201.046875 " fill-opacity="1" fill-rule="nonzero"/><path fill="#820022" d="M 101.269531 163.597656 C 100.917969 163.613281 100.660156 163.464844 100.503906 163.144531 C 100.386719 162.960938 100.34375 162.761719 100.378906 162.546875 C 100.414062 162.332031 100.515625 162.15625 100.683594 162.019531 L 110.703125 154.03125 C 110.835938 153.921875 110.984375 153.84375 111.152344 153.804688 C 114.265625 153.21875 122.253906 150.195312 129.292969 147.535156 L 131.730469 146.585938 L 132.046875 146.585938 C 132.40625 146.574219 132.679688 146.726562 132.859375 147.039062 C 132.972656 147.226562 133.007812 147.429688 132.964844 147.644531 C 132.921875 147.859375 132.808594 148.035156 132.632812 148.164062 L 123.246094 155.835938 C 123.09375 155.980469 122.914062 156.058594 122.707031 156.0625 L 122.164062 156.0625 L 121.9375 156.152344 C 119.773438 156.875 112.507812 159.582031 109.394531 160.800781 L 109.347656 160.800781 C 106.324219 161.746094 103.84375 162.695312 101.585938 163.640625 Z M 101.269531 163.597656 " fill-opacity="1" fill-rule="nonzero"/><path fill="#820022" d="M 116.703125 86.9375 C 114.058594 85.777344 111.289062 85.203125 108.402344 85.222656 C 100.640625 85.222656 92.335938 89.328125 85.703125 96.457031 C 85.570312 96.597656 85.492188 96.761719 85.46875 96.953125 C 85.445312 97.144531 85.476562 97.324219 85.566406 97.496094 C 85.730469 97.800781 85.988281 97.949219 86.335938 97.945312 L 86.558594 97.945312 C 88.707031 97.390625 90.886719 97.105469 93.101562 97.089844 C 94.933594 97.082031 96.726562 97.332031 98.484375 97.839844 C 100.238281 98.347656 101.890625 99.089844 103.4375 100.066406 C 107.8125 95.644531 112.28125 91.269531 116.703125 86.9375 Z M 116.703125 86.9375 " fill-opacity="1" fill-rule="nonzero"/><path fill="#820022" d="M 144.140625 218.511719 C 143.753906 218.503906 143.480469 218.324219 143.328125 217.96875 C 143.242188 217.789062 143.21875 217.605469 143.261719 217.410156 C 143.300781 217.21875 143.398438 217.058594 143.554688 216.929688 L 154.472656 207.140625 C 154.660156 206.996094 154.871094 206.921875 155.105469 206.914062 L 155.332031 206.914062 C 155.671875 207.003906 156.015625 207.046875 156.367188 207.050781 L 156.550781 207.050781 C 160.160156 206.6875 163.769531 206.148438 167.289062 205.558594 L 167.558594 205.558594 C 167.941406 205.546875 168.210938 205.710938 168.371094 206.058594 C 168.457031 206.230469 168.480469 206.414062 168.449219 206.605469 C 168.414062 206.796875 168.328125 206.957031 168.191406 207.09375 C 167.242188 208.042969 166.027344 209.304688 164.71875 210.523438 L 164.625 210.613281 L 156.460938 216.390625 L 156.144531 216.523438 C 152.351562 217.472656 148.246094 217.96875 144.320312 218.464844 L 144.140625 218.464844 Z M 144.140625 218.511719 " fill-opacity="1" fill-rule="nonzero"/><path fill="#000000" d="M 140.214844 221.714844 C 135.703125 221.714844 134.574219 216.074219 133.445312 210.660156 C 133.039062 208.539062 132.453125 205.695312 131.730469 204.25 C 117.15625 215.488281 100.050781 221.625 83.492188 221.625 C 80.894531 221.632812 78.308594 221.484375 75.730469 221.171875 C 58.671875 219.097656 43.734375 210.34375 32.589844 195.90625 C 17.066406 175.734375 10.886719 150.0625 15.125 123.574219 C 19.640625 95.691406 35.253906 70.828125 57.949219 55.351562 C 67.789062 46.824219 78.527344 41.09375 89.808594 38.25 C 95.289062 36.761719 100.871094 36.007812 106.550781 35.992188 C 118.507812 35.992188 129.925781 39.378906 140.484375 46.054688 C 155.375 54.945312 167.515625 69.5625 174.644531 87.207031 C 175.503906 89.28125 176.269531 91.402344 176.945312 93.433594 C 176.984375 93.488281 177 93.546875 176.992188 93.613281 L 177.125 94.15625 C 177.53125 95.644531 177.804688 96.816406 177.53125 97.902344 C 177.398438 98.484375 177.125 98.996094 176.71875 99.433594 L 176.675781 99.433594 C 176.628906 99.523438 176.539062 99.570312 176.449219 99.660156 L 176.40625 99.660156 L 176.269531 99.75 L 173.742188 102.324219 L 173.246094 102.773438 L 168.777344 107.285156 L 164.671875 110.21875 L 174.238281 110.21875 L 175.003906 110.308594 L 175.140625 110.308594 C 178.121094 110.671875 179.472656 111.753906 179.96875 114.191406 C 180.136719 115.328125 180.199219 116.46875 180.148438 117.617188 C 179.335938 133.457031 178.570312 149.789062 177.714844 167.660156 C 177.214844 178.53125 176.765625 188.957031 176.3125 199.019531 C 176.394531 199.875 176.320312 200.714844 176.089844 201.542969 C 175.890625 202.75 175.378906 203.804688 174.554688 204.703125 L 174.328125 204.929688 C 173.761719 205.640625 173.113281 206.273438 172.386719 206.824219 L 171.710938 207.546875 C 170.042969 209.261719 168.28125 211.019531 166.523438 212.691406 L 166.339844 212.871094 L 158.761719 218.105469 L 158.761719 218.238281 C 158.789062 218.363281 158.765625 218.480469 158.695312 218.585938 C 158.625 218.695312 158.527344 218.757812 158.398438 218.78125 L 157.089844 219.097656 C 153.03125 220.179688 148.742188 220.675781 144.589844 221.171875 L 140.484375 221.714844 Z M 46.714844 69.292969 C 43.011719 72.988281 39.621094 76.949219 36.542969 81.175781 C 33.464844 85.40625 30.734375 89.847656 28.355469 94.507812 C 25.976562 99.164062 23.976562 103.980469 22.355469 108.953125 C 20.734375 113.925781 19.515625 118.996094 18.691406 124.160156 C 14.585938 149.609375 20.542969 174.335938 35.476562 193.695312 C 45.992188 207.367188 60.070312 215.621094 76.179688 217.609375 C 78.609375 217.878906 81.046875 218.015625 83.492188 218.015625 C 99.242188 218.015625 115.441406 212.191406 129.382812 201.5 C 119.726562 205.921875 109.933594 208.175781 100.144531 208.175781 C 80.332031 208.175781 62.148438 198.972656 48.835938 182.1875 C 40.847656 172.125 35.164062 159.761719 32.320312 146.40625 C 29.296875 132.148438 29.523438 117.4375 32.996094 102.59375 C 34.015625 96.601562 35.683594 90.796875 37.996094 85.179688 C 40.3125 79.558594 43.21875 74.265625 46.714844 69.292969 Z M 144.140625 217.609375 L 144.183594 217.609375 C 148.109375 217.113281 152.171875 216.613281 155.960938 215.710938 L 164.128906 209.9375 L 167.558594 206.507812 L 167.425781 206.507812 C 163.90625 207.050781 160.25 207.636719 156.640625 207.996094 L 156.367188 207.996094 C 155.9375 208.007812 155.515625 207.945312 155.105469 207.816406 Z M 134.574219 201.996094 C 135.792969 203.847656 136.332031 206.6875 137.011719 209.9375 C 137.6875 213.1875 138.183594 215.710938 139.132812 217.246094 L 152.308594 205.46875 C 151.226562 203.621094 150.683594 201.09375 150.1875 198.882812 C 150.023438 197.902344 149.78125 196.9375 149.464844 195.996094 C 149.40625 195.863281 149.359375 195.730469 149.328125 195.589844 C 149.148438 195.011719 148.996094 194.421875 148.878906 193.828125 C 148.742188 193.242188 148.472656 192.070312 148.15625 191.078125 Z M 105.738281 39.875 C 100.386719 39.890625 95.121094 40.585938 89.945312 41.949219 C 79.65625 44.835938 69.773438 50.433594 61.289062 58.148438 C 58.050781 61.097656 55.078125 64.289062 52.367188 67.730469 C 49.660156 71.167969 47.25 74.808594 45.144531 78.644531 C 43.035156 82.484375 41.257812 86.46875 39.8125 90.601562 C 38.363281 94.734375 37.265625 98.957031 36.515625 103.269531 L 36.515625 103.359375 C 33.175781 117.707031 32.953125 131.921875 35.839844 145.640625 C 38.546875 158.453125 44.050781 170.320312 51.679688 179.976562 C 64.269531 195.8125 81.460938 204.566406 100.144531 204.566406 C 115.214844 204.566406 130.242188 199.019531 144.816406 188.007812 C 145.988281 186.878906 147.074219 186.339844 148.109375 186.339844 C 150.820312 186.339844 151.675781 190.039062 152.398438 192.972656 C 152.535156 193.558594 152.667969 194.097656 152.757812 194.550781 C 153.210938 195.703125 153.527344 196.890625 153.707031 198.117188 C 154.203125 200.460938 155.058594 204.34375 156.324219 204.386719 C 159.84375 204.027344 163.410156 203.484375 166.882812 202.941406 L 166.972656 202.941406 L 171.53125 202.265625 L 171.757812 202.265625 C 172.101562 201.761719 172.371094 201.21875 172.570312 200.640625 C 172.660156 200.148438 172.707031 199.652344 172.703125 199.152344 L 172.703125 198.972656 C 173.289062 185.300781 174.058594 168.96875 174.871094 151.1875 L 174.871094 149.972656 C 175.410156 138.691406 175.953125 128.042969 176.496094 117.394531 C 176.511719 116.5625 176.484375 115.738281 176.40625 114.910156 C 176.382812 114.652344 176.308594 114.414062 176.179688 114.1875 L 175.863281 114.007812 L 175.59375 114.007812 L 174.011719 113.828125 L 171.847656 113.828125 L 169.769531 113.917969 L 155.195312 113.917969 L 145.085938 113.828125 L 144.863281 113.828125 L 132.679688 113.738281 C 127.757812 113.738281 121.171875 113.785156 114.085938 114.144531 L 113.679688 114.144531 L 108.492188 114.460938 L 108.21875 114.460938 L 106.054688 114.640625 L 105.738281 114.640625 L 103.84375 114.820312 C 103.480469 117.167969 104.203125 120.191406 104.925781 123.125 C 105.425781 124.980469 105.800781 126.859375 106.054688 128.761719 C 106.371094 129.757812 106.730469 132.011719 107.316406 135.578125 C 108.265625 141.351562 109.03125 145.773438 109.84375 148.480469 C 110.386719 150.152344 110.746094 150.738281 110.929688 150.917969 C 113.996094 150.242188 121.578125 147.355469 128.300781 144.828125 C 132.453125 143.246094 136.015625 141.894531 137.914062 141.308594 L 138.136719 141.21875 L 138.542969 141.21875 C 140.257812 141.261719 141.433594 142.164062 141.75 143.742188 C 142.335938 146.542969 140.394531 151.503906 135.925781 158.589844 C 134.210938 161.296875 129.25 168.605469 127.128906 169.597656 C 124.167969 172.074219 120.933594 174.121094 117.425781 175.734375 L 117.289062 175.734375 L 117.019531 175.824219 C 113.617188 177.34375 110.050781 178.125 106.324219 178.171875 C 102.253906 178.144531 98.417969 177.183594 94.816406 175.285156 C 90.261719 173.117188 86.199219 169.597656 82.679688 164.816406 C 79.160156 160.03125 76.226562 153.941406 74.332031 147.261719 C 73.558594 144.625 72.957031 141.949219 72.527344 139.230469 C 72.125 136.71875 71.855469 134.191406 71.714844 131.652344 C 71.578125 128.566406 71.621094 125.480469 71.847656 122.402344 C 71.945312 118.890625 72.488281 115.449219 73.472656 112.074219 C 74.460938 108.703125 75.859375 105.511719 77.671875 102.503906 C 77.730469 102.359375 77.804688 102.222656 77.894531 102.097656 L 77.988281 101.960938 C 78.089844 101.742188 78.210938 101.53125 78.347656 101.328125 L 78.933594 100.425781 C 80.285156 98.382812 81.789062 96.457031 83.445312 94.652344 C 90.667969 86.800781 99.78125 82.289062 108.402344 82.289062 C 115.53125 82.289062 125.503906 85.3125 132.453125 99.75 L 132.496094 99.75 C 133.265625 101.554688 133.355469 101.554688 133.714844 101.554688 C 135.925781 101.375 138.273438 101.058594 140.574219 100.789062 L 140.664062 100.789062 L 147.164062 100.019531 L 157.269531 98.9375 L 157.453125 98.9375 L 171.847656 97.3125 L 172.074219 97.3125 C 172.929688 97.132812 173.832031 96.953125 174.058594 96.773438 C 173.96875 96.117188 173.835938 95.46875 173.652344 94.832031 C 172.929688 92.621094 172.117188 90.367188 171.214844 88.109375 C 164.761719 72.859375 154.472656 59.816406 142.246094 51.605469 L 142.199219 51.605469 C 141.070312 50.792969 139.898438 49.980469 138.589844 49.167969 C 133.542969 46.15625 128.1875 43.855469 122.523438 42.265625 C 117.039062 40.710938 111.441406 39.914062 105.738281 39.875 Z M 82.363281 102.007812 C 82.183594 102.324219 81.957031 102.636719 81.730469 102.953125 L 81.234375 103.765625 L 80.828125 104.441406 L 80.648438 104.757812 C 77.851562 109.675781 76.089844 115.902344 75.460938 122.808594 C 75.460938 123.9375 75.503906 125.109375 75.59375 126.191406 L 75.59375 126.644531 C 75.3125 130.675781 75.476562 134.691406 76.089844 138.691406 C 76.585938 141.9375 77.339844 145.128906 78.347656 148.257812 C 80.605469 155.25 84.125 161.429688 88.457031 166.078125 C 90.953125 168.8125 93.855469 171.007812 97.164062 172.667969 C 100.015625 173.90625 102.992188 174.523438 106.097656 174.515625 C 109.179688 174.480469 112.171875 173.957031 115.078125 172.9375 C 117.066406 169.871094 122.523438 161.25 122.074219 158.859375 C 119.367188 159.808594 113.230469 162.109375 110.296875 163.238281 L 110.207031 163.238281 C 107.339844 164.128906 104.527344 165.164062 101.765625 166.351562 C 99.148438 167.433594 97.074219 168.335938 95.3125 168.335938 C 94.527344 168.328125 93.789062 168.132812 93.101562 167.75 C 90.261719 166.167969 89.3125 161.613281 87.507812 149.972656 L 87.507812 149.878906 C 87.167969 146.808594 86.582031 143.785156 85.746094 140.8125 C 84.664062 136.523438 83.671875 132.464844 84.167969 127.457031 L 84.167969 127.273438 C 84.292969 126.621094 84.625 126.09375 85.160156 125.695312 C 85.433594 125.378906 85.746094 125.109375 86.0625 124.792969 L 87.28125 123.574219 L 88.09375 122.71875 L 88.140625 122.71875 L 91.253906 119.648438 L 92.199219 118.65625 L 92.292969 118.65625 C 92.789062 118.207031 94.410156 116.988281 97.074219 115.09375 C 99.015625 113.691406 100.367188 112.746094 101.179688 112.25 C 101.542969 111.914062 101.964844 111.691406 102.445312 111.574219 L 102.714844 111.574219 L 104.746094 111.390625 L 110.339844 110.941406 C 105.0625 103.269531 99.691406 99.839844 93.101562 99.839844 C 90.125 99.75 86.695312 100.472656 82.363281 102.007812 Z M 125.414062 157.597656 C 126.316406 160.394531 124.195312 164.859375 121.441406 169.507812 C 122.652344 168.703125 123.808594 167.832031 124.917969 166.890625 L 125.636719 166.441406 C 127.351562 165.3125 135.703125 153.625 137.777344 147.398438 Z M 87.734375 128.402344 C 87.417969 132.554688 88.320312 136.164062 89.269531 139.953125 C 90.117188 143.097656 90.734375 146.285156 91.117188 149.519531 C 92.109375 156.199219 93.011719 161.566406 94.140625 163.777344 L 107.769531 152.902344 C 106.234375 150.601562 105.332031 145.953125 103.753906 136.300781 C 103.347656 133.816406 102.851562 130.703125 102.578125 130.070312 C 102.511719 129.835938 102.46875 129.59375 102.445312 129.351562 C 102.25 127.589844 101.90625 125.859375 101.40625 124.160156 C 100.863281 121.90625 100.277344 119.558594 100.144531 117.304688 C 97.796875 118.972656 95.269531 120.824219 94.816406 121.226562 L 93.871094 122.175781 L 89.855469 126.191406 C 89.457031 126.535156 89.097656 126.910156 88.769531 127.320312 L 88.679688 127.410156 L 88.636719 127.410156 L 88.5 127.5 L 87.960938 128.042969 L 87.777344 128.265625 Z M 101.269531 162.695312 C 103.390625 161.835938 105.917969 160.800781 109.078125 159.851562 C 112.238281 158.90625 119.410156 155.925781 121.667969 155.203125 L 122.027344 155.070312 L 122.253906 155.070312 L 122.613281 155.160156 L 122.707031 155.160156 L 132.046875 147.445312 L 129.609375 148.347656 C 122.523438 151.054688 114.492188 154.078125 111.378906 154.707031 L 111.289062 154.707031 Z M 93.101562 96.1875 C 101.40625 96.1875 108.265625 100.789062 114.539062 110.625 C 117.652344 110.445312 120.855469 110.355469 124.328125 110.308594 L 130.285156 103.632812 C 129.84375 102.949219 129.484375 102.226562 129.203125 101.464844 C 123.066406 88.785156 114.492188 86.125 108.402344 86.125 C 100.863281 86.125 92.832031 90.09375 86.335938 97.042969 C 88.554688 96.488281 90.8125 96.203125 93.101562 96.1875 Z M 132.679688 110.21875 L 144.90625 110.308594 L 145.132812 110.308594 L 156.957031 110.398438 L 158.308594 110.398438 L 161.378906 108.234375 L 166.296875 104.714844 L 169.589844 101.464844 L 157.859375 102.773438 L 147.523438 103.902344 C 145.402344 104.082031 143.238281 104.351562 141.117188 104.625 L 141.070312 104.625 C 138.726562 104.941406 136.289062 105.253906 133.988281 105.4375 L 133.492188 105.4375 L 129.203125 110.21875 Z M 132.679688 110.21875 " fill-opacity="1" fill-rule="nonzero"/><path stroke-linecap="butt" transform="matrix(0.342014, -0.0222001, 0.0222001, 0.342014, -20.071513, 256.712733)" fill="none" stroke-linejoin="miter" d="M 309.793658 42.26086 L 274.097486 174.121616 L 225.710857 176.851401 L 181.828988 49.476254 L 228.055963 45.178619 L 246.783583 119.308008 L 264.927028 39.325722 Z M 421.663202 100.187344 C 421.66098 105.85218 421.271323 111.503289 420.492756 117.163418 C 409.367528 117.880366 398.316607 119.036148 387.32862 120.630026 C 376.340632 122.223904 365.354122 123.795035 354.356976 125.354055 C 356.052023 130.032613 358.698424 133.779267 362.309029 136.57201 C 365.919634 139.364753 370.226049 140.763573 375.239647 140.769209 C 377.832485 140.76619 380.685275 140.277506 383.763895 139.300943 C 386.853889 138.325117 389.925265 137.108235 392.989398 135.651035 C 396.042896 134.181724 398.966557 132.601193 401.759643 130.920815 C 404.564841 129.229802 406.971531 127.695664 408.978975 126.329773 L 404.299852 170.614927 C 401.763486 172.563237 399.01737 174.223821 396.062242 175.585305 C 393.095741 176.94605 390.031009 178.060571 386.846775 178.904645 C 383.651168 179.74798 380.436206 180.361632 377.189777 180.756237 C 373.931974 181.150103 370.744327 181.34294 367.626097 181.346119 C 361.184916 181.339189 355.302487 180.466243 349.968913 178.703796 C 344.645974 176.95346 339.814584 174.492644 335.48464 171.344833 C 331.166808 168.186386 327.376421 164.468267 324.125592 160.179841 C 320.875501 155.880041 318.175164 151.204757 316.026057 146.131243 C 313.888324 141.058468 312.260318 135.698982 311.154152 130.04215 C 310.047985 124.385317 309.494387 118.66156 309.493357 112.870879 C 309.497194 106.829244 310.049909 100.777551 311.150762 94.727174 C 312.26225 88.688909 313.931335 82.858157 316.178548 77.270516 C 318.425762 71.682874 321.252143 66.498309 324.65769 61.71682 C 328.074611 56.93607 332.05741 52.763117 336.606826 49.186589 C 341.167615 45.610799 346.318068 42.804249 352.06808 40.790424 C 357.829466 38.777338 364.176385 37.773072 371.143696 37.768467 C 376.923004 37.766699 382.204857 38.566397 386.989993 40.15619 C 391.763018 41.756618 396.02839 43.963688 399.762626 46.787299 C 403.507497 49.623021 406.749884 52.985772 409.523169 56.88914 C 412.28508 60.791769 414.554843 65.0622 416.343093 69.712544 C 418.131342 74.362888 419.468946 79.269514 420.343792 84.443056 C 421.219376 89.605225 421.666024 94.865187 421.663202 100.187344 Z M 382.645692 95.119179 C 382.649339 93.303425 382.451218 91.428888 382.061964 89.50768 C 381.671971 87.597846 381.042699 85.855222 380.162034 84.290442 C 379.280631 82.737036 378.130557 81.451723 376.6997 80.44514 C 375.268843 79.438556 373.474198 78.93374 371.338511 78.932169 C 368.7343 78.934449 366.439107 79.630647 364.452196 81.032134 C 362.477396 82.422987 360.764045 84.184872 359.336368 86.296518 C 357.90869 88.408164 356.732266 90.696018 355.829103 93.172929 C 354.915305 95.637728 354.23089 97.911833 353.775858 99.995243 L 382.643382 97.26624 Z M 542.31148 84.981807 C 542.313526 90.053011 541.866681 94.649645 540.993691 98.773186 C 540.119963 102.908101 538.732356 106.689863 536.852139 110.142694 C 534.961287 113.583414 532.527165 116.771865 529.539138 119.695935 C 526.538998 122.630641 522.931339 125.42312 518.704048 128.084009 L 541.923194 169.440189 L 498.033485 178.024057 L 483.004211 136.479938 L 470.918587 136.860436 L 469.163959 177.440745 L 427.22509 177.436767 C 427.547902 162.60999 427.854912 147.850716 428.146118 133.158944 C 428.437325 118.467172 428.779193 103.698739 429.170246 88.876392 C 429.301223 81.403922 429.428509 73.988319 429.562739 66.641694 C 429.685596 59.294332 429.950101 51.876214 430.344143 44.397977 C 434.896117 42.717556 439.384141 41.318517 443.796104 40.211495 C 448.21944 39.105212 452.661393 38.239985 457.109851 37.626449 C 461.570422 37.002279 466.085944 36.587259 470.669268 36.359382 C 475.252591 36.131504 479.954379 36.014108 484.762518 36.017829 C 492.174868 36.019269 499.349436 37.044616 506.275588 39.081758 C 513.201001 41.130274 519.328383 44.212015 524.659209 48.304236 C 529.990035 52.396457 534.26124 57.504924 537.484937 63.619003 C 540.69726 69.732343 542.313936 76.849979 542.31148 84.981807 Z M 498.616902 88.096102 C 498.611369 85.366045 498.237019 82.863317 497.493851 80.587919 C 496.750683 78.31252 495.644904 76.344803 494.176514 74.684767 C 492.719496 73.02547 490.896176 71.730721 488.718665 70.789885 C 486.541892 69.837676 483.990696 69.375123 481.055917 69.367368 C 479.753442 69.374195 478.492032 69.452215 477.259573 69.612064 C 476.015003 69.782548 474.811498 70.024226 473.648318 70.348471 L 472.081761 106.623725 L 474.422907 106.627211 C 477.221205 106.626108 480.065135 106.273905 482.955436 105.559229 C 485.857111 104.845292 488.453318 103.734623 490.766068 102.240072 C 493.067444 100.744783 494.96247 98.823371 496.416285 96.484995 C 497.881475 94.147357 498.611223 91.350813 498.616902 88.096102 Z M 649.01509 129.061535 C 649.007927 137.969708 647.469461 145.659194 644.376945 152.128516 C 641.295803 158.598576 637.066363 163.931917 631.699998 168.129275 C 626.334372 172.31526 620.057813 175.402776 612.881695 177.39256 C 605.694942 179.370232 597.966672 180.364784 589.708998 180.36558 C 586.522528 180.36433 583.032067 179.943602 579.226243 179.102656 C 575.421158 178.250337 571.571755 177.200979 567.668139 175.931097 C 563.764522 174.661214 560.015404 173.298568 556.41015 171.831047 C 552.793522 170.362788 549.593281 168.990084 546.79953 167.689451 L 551.085904 129.454952 C 556.615523 132.772005 562.745697 135.282861 569.474948 137.010267 C 576.204199 138.737674 582.818218 139.601001 589.317004 139.600248 C 590.561874 139.601103 592.050015 139.549221 593.804173 139.446079 C 595.568967 139.355048 597.24395 139.064024 598.829123 138.573009 C 600.42567 138.082731 601.775392 137.348006 602.877553 136.380206 C 603.980453 135.401033 604.539044 134.009625 604.532056 132.181758 C 604.532173 130.948262 604.143679 129.895125 603.367312 129.010974 C 602.590207 128.138196 601.57456 127.421255 600.34238 126.872999 C 599.110937 126.31337 597.71067 125.89126 596.15369 125.596034 C 594.584597 125.311443 593.056569 125.098045 591.568867 124.967214 C 590.069792 124.835645 588.669386 124.767587 587.366911 124.774414 C 586.076548 124.770606 585.025764 124.770928 584.249419 124.76622 C 578.664197 124.769166 573.570225 123.890292 568.98951 122.142448 C 564.398161 120.382493 560.470438 117.900385 557.185072 114.6719 C 553.898967 111.454789 551.353889 107.554812 549.52709 102.970494 C 547.711664 98.386915 546.796792 93.302144 546.794585 87.705549 C 546.801631 80.030872 548.34381 73.163963 551.433972 67.082813 C 554.524134 61.001664 558.651513 55.833019 563.816109 51.576878 C 568.981444 47.309364 574.915762 44.039735 581.619065 41.767991 C 588.310995 39.495509 595.237658 38.357555 602.387682 38.353389 C 605.574152 38.354639 608.856339 38.464894 612.244877 38.696265 C 615.622042 38.926898 618.988133 39.328133 622.342412 39.911342 C 625.68458 40.505186 628.948171 41.253829 632.144561 42.158008 C 635.328838 43.072822 638.350496 44.205507 641.208796 45.567437 L 637.507078 85.176182 C 633.081462 83.678254 628.445518 82.429364 623.599984 81.418139 C 618.765824 80.407652 614.035662 79.906454 609.410236 79.903172 C 608.564912 79.905409 607.478532 79.926262 606.151834 79.95436 C 604.813762 79.981719 603.413656 80.085 601.952991 80.241458 C 600.491588 80.409288 599.013644 80.655995 597.519159 80.981577 C 596.024673 81.307159 594.682772 81.745437 593.5162 82.297888 C 592.349629 82.850339 591.40019 83.576783 590.689893 84.490069 C 589.968222 85.402618 589.647135 86.478224 589.715997 87.704776 C 589.782943 89.136788 590.316339 90.245016 591.316183 91.029459 C 592.328139 91.803268 593.627083 92.3787 595.225866 92.733746 C 596.813276 93.088054 598.571725 93.270723 600.490579 93.269642 C 602.409433 93.26856 604.308493 93.220508 606.199132 93.126224 C 608.079137 93.019829 609.832557 92.92806 611.46087 92.82817 C 613.089183 92.728279 614.426516 92.712294 615.461497 92.779475 C 620.659884 93.105481 625.339545 94.208731 629.511117 96.101337 C 633.672053 97.981831 637.198753 100.483595 640.091218 103.606627 C 642.983682 106.729659 645.197894 110.44826 646.721741 114.773066 C 648.245587 119.097871 649.009791 123.864485 649.01509 129.061535 Z M 706.163328 41.674494 L 699.344963 174.518847 L 658.180867 176.655263 L 654.28167 44.405843 Z M 834.62086 104.286846 C 834.625143 110.203374 833.93461 115.914902 832.572746 121.411534 C 831.211621 126.896793 829.243414 132.057113 826.669602 136.869747 C 824.107901 141.671746 820.97767 146.08278 817.303129 150.081579 C 813.639962 154.081117 809.511063 157.513621 804.91717 160.367718 C 800.333911 163.233927 795.346956 165.45718 789.955564 167.048851 C 784.552799 168.639784 778.835547 169.445074 772.782539 169.440498 C 766.93499 169.437837 761.35226 168.698557 756.058573 167.201389 C 750.753513 165.703483 745.796138 163.599972 741.185711 160.902229 C 736.563911 158.203749 732.388466 154.963174 728.649479 151.157021 C 724.910492 147.350868 721.724212 143.123738 719.090639 138.47563 C 716.457066 133.827523 714.405152 128.840268 712.947009 123.503229 C 711.488866 118.16619 710.752855 112.613333 710.751824 106.822652 C 710.753308 101.169189 711.432768 95.628262 712.801575 90.200609 C 714.171121 84.761582 716.136375 79.646755 718.698814 74.833383 C 721.272626 70.020749 724.369476 65.596127 728.011372 61.572366 C 731.654007 57.537232 735.740366 54.056281 740.259075 51.128775 C 744.777784 48.20127 749.665332 45.925879 754.933093 44.30334 C 760.200854 42.680802 765.758877 41.865177 771.6178 41.868576 C 781.040729 41.863467 789.636835 43.335147 797.407594 46.26087 C 805.178353 49.186593 811.817121 53.363712 817.312525 58.79149 C 822.807929 64.219268 827.064253 70.7887 830.082234 78.488412 C 833.11085 86.200235 834.620181 94.795676 834.62086 104.286846 Z M 791.317985 106.821237 C 791.316143 104.034312 790.910326 101.312537 790.099057 98.678656 C 789.287788 96.044776 788.091899 93.705727 786.534136 91.662986 C 784.977112 89.608872 783.040197 87.952689 780.735502 86.6838 C 778.419434 85.414174 775.776212 84.785749 772.783828 84.785676 C 769.723204 84.781173 766.991831 85.334845 764.590448 86.435317 C 762.188326 87.547163 760.125792 89.057955 758.402106 90.979068 C 756.679158 92.888807 755.357094 95.132943 754.448025 97.700841 C 753.538956 100.26874 753.076703 102.991276 753.085489 105.847179 C 753.079648 108.576498 753.473354 111.308909 754.255232 114.043673 C 755.03711 116.778438 756.202132 119.241117 757.760194 121.455198 C 759.32963 123.670016 761.258424 125.451307 763.567848 126.823295 C 765.87801 128.183908 768.55166 128.871415 771.613023 128.864544 C 774.673648 128.869047 777.419347 128.27062 779.85086 127.05789 C 782.293007 125.857272 784.362924 124.232745 786.049237 122.183572 C 787.73555 120.134399 789.041512 117.786426 789.945852 115.115428 C 790.861565 112.445169 791.314659 109.687775 791.317985 106.821237 Z M 962.4924 129.650465 C 962.484016 136.993836 962.411821 144.264538 962.242433 151.448982 C 962.084418 158.634163 961.843098 165.871045 961.507838 173.147513 L 905.332411 172.173754 C 907.278895 160.661764 908.972949 149.167653 910.403199 137.690682 C 911.83345 126.213712 912.551605 114.621991 912.545554 102.926155 C 912.55469 102.08157 912.518173 100.70864 912.457271 98.831588 C 912.385734 96.942425 912.26146 94.809991 912.061702 92.432809 C 911.872579 90.067739 911.596898 87.628522 911.233921 85.126533 C 910.870944 82.624543 910.39158 80.332004 909.773081 78.247439 C 909.154582 76.162874 908.408623 74.45836 907.524567 73.121787 C 906.651146 71.797326 905.598425 71.123663 904.353556 71.122808 C 902.14889 71.12818 900.279682 71.772079 898.744454 73.077251 C 897.220599 74.383161 895.958933 76.04873 894.946604 78.095966 C 893.934275 80.143202 893.145285 82.444782 892.558363 84.976485 C 891.971441 87.508187 891.532373 90.049487 891.241898 92.58901 C 890.952161 95.11716 890.750896 97.513997 890.650955 99.757512 C 890.551014 102.001027 890.511769 103.837314 890.510476 105.264896 C 890.186399 116.767983 889.923618 128.206521 889.724349 139.54639 C 889.535715 150.89837 889.271459 162.359655 888.942952 173.930982 L 839.20125 176.070271 C 840.508324 153.118288 841.761044 130.299834 842.960151 107.603534 C 844.159257 84.907234 845.126166 62.09307 845.839607 39.136818 L 891.871362 36.790981 L 891.486237 52.401785 C 893.308732 50.190131 895.270959 48.113183 897.385033 46.160304 C 899.499106 44.207425 901.754689 42.537843 904.163893 41.140924 C 906.573835 39.732631 909.123811 38.630382 911.814559 37.822805 C 914.517418 37.004592 917.365039 36.595522 920.357423 36.595595 C 925.88504 36.600332 930.725845 37.508458 934.890472 39.332085 C 939.043726 41.154974 942.618135 43.62557 945.613698 46.743873 C 948.609261 49.862176 951.110761 53.55374 953.129571 57.819303 C 955.137745 62.072754 956.762038 66.609663 958.003187 71.418657 C 959.232962 76.226913 960.174273 81.256293 960.828594 86.484049 C 961.482178 91.723179 961.924096 96.880041 962.143714 101.942525 C 962.373967 107.01712 962.489448 111.924367 962.489418 116.675639 C 962.489389 121.426911 962.483293 125.743778 962.4924 129.650465 Z M 962.4924 129.650465 " stroke="#000000" stroke-width="52.435688" stroke-opacity="1" stroke-miterlimit="4"/><g fill="#9165e7" fill-opacity="1"><g transform="translate(47.222913, 313.823014)"><g><path d="M 39.59375 -49.546875 L 30.3125 -3.640625 L 13.828125 -1.640625 L -4.015625 -44.21875 L 11.703125 -46.734375 L 19.75 -21.78125 L 24.1875 -49.546875 Z M 39.59375 -49.546875 "/></g></g><g transform="translate(89.187291, 311.099103)"><g><path d="M 37.1875 -29.484375 C 37.3125 -27.554688 37.300781 -25.613281 37.15625 -23.65625 C 33.375 -23.15625 29.617188 -22.507812 25.890625 -21.71875 C 22.160156 -20.9375 18.441406 -20.160156 14.734375 -19.390625 C 15.410156 -17.828125 16.394531 -16.601562 17.6875 -15.71875 C 18.988281 -14.84375 20.492188 -14.460938 22.203125 -14.578125 C 23.097656 -14.628906 24.0625 -14.851562 25.09375 -15.25 C 26.125 -15.65625 27.144531 -16.140625 28.15625 -16.703125 C 29.164062 -17.273438 30.128906 -17.878906 31.046875 -18.515625 C 31.960938 -19.160156 32.753906 -19.742188 33.421875 -20.265625 L 32.8125 -5.015625 C 31.988281 -4.296875 31.082031 -3.664062 30.09375 -3.125 C 29.113281 -2.59375 28.085938 -2.144531 27.015625 -1.78125 C 25.953125 -1.414062 24.863281 -1.132812 23.75 -0.9375 C 22.644531 -0.738281 21.5625 -0.601562 20.5 -0.53125 C 18.300781 -0.382812 16.269531 -0.550781 14.40625 -1.03125 C 12.539062 -1.519531 10.832031 -2.253906 9.28125 -3.234375 C 7.726562 -4.210938 6.347656 -5.398438 5.140625 -6.796875 C 3.929688 -8.191406 2.90625 -9.734375 2.0625 -11.421875 C 1.21875 -13.109375 0.539062 -14.90625 0.03125 -16.8125 C -0.46875 -18.71875 -0.78125 -20.664062 -0.90625 -22.65625 C -1.039062 -24.726562 -0.984375 -26.8125 -0.734375 -28.90625 C -0.492188 -31 -0.0507812 -33.023438 0.59375 -34.984375 C 1.238281 -36.953125 2.085938 -38.785156 3.140625 -40.484375 C 4.203125 -42.191406 5.472656 -43.710938 6.953125 -45.046875 C 8.429688 -46.378906 10.132812 -47.445312 12.0625 -48.25 C 13.988281 -49.0625 16.140625 -49.546875 18.515625 -49.703125 C 20.492188 -49.828125 22.316406 -49.671875 23.984375 -49.234375 C 25.660156 -48.804688 27.164062 -48.148438 28.5 -47.265625 C 29.84375 -46.378906 31.03125 -45.296875 32.0625 -44.015625 C 33.101562 -42.742188 33.976562 -41.332031 34.6875 -39.78125 C 35.40625 -38.226562 35.972656 -36.578125 36.390625 -34.828125 C 36.804688 -33.085938 37.070312 -31.304688 37.1875 -29.484375 Z M 23.734375 -30.34375 C 23.691406 -30.96875 23.582031 -31.601562 23.40625 -32.25 C 23.226562 -32.90625 22.972656 -33.488281 22.640625 -34 C 22.304688 -34.519531 21.882812 -34.929688 21.375 -35.234375 C 20.863281 -35.546875 20.238281 -35.675781 19.5 -35.625 C 18.601562 -35.570312 17.832031 -35.285156 17.1875 -34.765625 C 16.550781 -34.242188 16.007812 -33.601562 15.5625 -32.84375 C 15.125 -32.09375 14.773438 -31.285156 14.515625 -30.421875 C 14.253906 -29.554688 14.070312 -28.757812 13.96875 -28.03125 L 23.78125 -29.609375 Z M 23.734375 -30.34375 "/></g></g><g transform="translate(128.583103, 308.541919)"><g><path d="M 38.703125 -34.828125 C 38.816406 -33.085938 38.769531 -31.5 38.5625 -30.0625 C 38.363281 -28.632812 37.976562 -27.304688 37.40625 -26.078125 C 36.84375 -24.859375 36.078125 -23.710938 35.109375 -22.640625 C 34.148438 -21.578125 32.984375 -20.546875 31.609375 -19.546875 L 40.453125 -5.921875 L 25.640625 -2 L 19.578125 -15.875 L 15.453125 -15.46875 L 15.75 -1.5625 L 1.40625 -0.625 C 1.1875 -5.707031 0.960938 -10.765625 0.734375 -15.796875 C 0.515625 -20.828125 0.304688 -25.882812 0.109375 -30.96875 C -0.015625 -33.519531 -0.132812 -36.054688 -0.25 -38.578125 C -0.363281 -41.097656 -0.441406 -43.640625 -0.484375 -46.203125 C 1.023438 -46.878906 2.523438 -47.457031 4.015625 -47.9375 C 5.503906 -48.414062 7.003906 -48.804688 8.515625 -49.109375 C 10.023438 -49.421875 11.5625 -49.664062 13.125 -49.84375 C 14.6875 -50.019531 16.289062 -50.164062 17.9375 -50.28125 C 20.476562 -50.445312 22.957031 -50.253906 25.375 -49.703125 C 27.789062 -49.160156 29.953125 -48.242188 31.859375 -46.953125 C 33.773438 -45.671875 35.347656 -44.019531 36.578125 -42 C 37.816406 -39.988281 38.523438 -37.597656 38.703125 -34.828125 Z M 23.84375 -32.765625 C 23.78125 -33.703125 23.59375 -34.550781 23.28125 -35.3125 C 22.976562 -36.070312 22.554688 -36.71875 22.015625 -37.25 C 21.484375 -37.789062 20.832031 -38.195312 20.0625 -38.46875 C 19.289062 -38.75 18.40625 -38.851562 17.40625 -38.78125 C 16.957031 -38.757812 16.523438 -38.703125 16.109375 -38.609375 C 15.703125 -38.523438 15.300781 -38.421875 14.90625 -38.296875 L 15.171875 -25.859375 L 15.984375 -25.90625 C 16.929688 -25.96875 17.890625 -26.148438 18.859375 -26.453125 C 19.835938 -26.765625 20.707031 -27.195312 21.46875 -27.75 C 22.226562 -28.3125 22.832031 -29.007812 23.28125 -29.84375 C 23.726562 -30.675781 23.914062 -31.648438 23.84375 -32.765625 Z M 23.84375 -32.765625 "/></g></g><g transform="translate(169.980394, 305.854818)"><g><path d="M 34.78125 -19.421875 C 34.976562 -16.359375 34.625 -13.6875 33.71875 -11.40625 C 32.8125 -9.132812 31.484375 -7.222656 29.734375 -5.671875 C 27.984375 -4.117188 25.898438 -2.921875 23.484375 -2.078125 C 21.078125 -1.234375 18.460938 -0.722656 15.640625 -0.546875 C 14.554688 -0.472656 13.351562 -0.539062 12.03125 -0.75 C 10.707031 -0.957031 9.363281 -1.234375 8 -1.578125 C 6.632812 -1.921875 5.320312 -2.300781 4.0625 -2.71875 C 2.800781 -3.144531 1.675781 -3.546875 0.6875 -3.921875 L 1.3125 -17.109375 C 3.269531 -16.097656 5.414062 -15.367188 7.75 -14.921875 C 10.09375 -14.472656 12.378906 -14.320312 14.609375 -14.46875 C 15.023438 -14.5 15.535156 -14.550781 16.140625 -14.625 C 16.742188 -14.695312 17.3125 -14.832031 17.84375 -15.03125 C 18.375 -15.238281 18.816406 -15.519531 19.171875 -15.875 C 19.523438 -16.238281 19.679688 -16.734375 19.640625 -17.359375 C 19.617188 -17.785156 19.460938 -18.140625 19.171875 -18.421875 C 18.878906 -18.703125 18.515625 -18.921875 18.078125 -19.078125 C 17.648438 -19.242188 17.164062 -19.359375 16.625 -19.421875 C 16.09375 -19.492188 15.566406 -19.53125 15.046875 -19.53125 C 14.535156 -19.539062 14.054688 -19.53125 13.609375 -19.5 C 13.160156 -19.476562 12.804688 -19.457031 12.546875 -19.4375 C 10.640625 -19.3125 8.878906 -19.5 7.265625 -20 C 5.648438 -20.5 4.25 -21.265625 3.0625 -22.296875 C 1.875 -23.328125 0.914062 -24.601562 0.1875 -26.125 C -0.539062 -27.65625 -0.96875 -29.378906 -1.09375 -31.296875 C -1.257812 -33.910156 -0.882812 -36.289062 0.03125 -38.4375 C 0.945312 -40.582031 2.242188 -42.441406 3.921875 -44.015625 C 5.597656 -45.597656 7.554688 -46.851562 9.796875 -47.78125 C 12.035156 -48.707031 14.378906 -49.25 16.828125 -49.40625 C 17.910156 -49.476562 19.035156 -49.507812 20.203125 -49.5 C 21.367188 -49.5 22.53125 -49.4375 23.6875 -49.3125 C 24.84375 -49.1875 25.972656 -49.003906 27.078125 -48.765625 C 28.191406 -48.523438 29.253906 -48.203125 30.265625 -47.796875 L 29.890625 -34.171875 C 28.328125 -34.585938 26.707031 -34.910156 25.03125 -35.140625 C 23.351562 -35.378906 21.726562 -35.445312 20.15625 -35.34375 C 19.863281 -35.320312 19.488281 -35.289062 19.03125 -35.25 C 18.570312 -35.207031 18.09375 -35.140625 17.59375 -35.046875 C 17.101562 -34.960938 16.601562 -34.847656 16.09375 -34.703125 C 15.59375 -34.566406 15.148438 -34.390625 14.765625 -34.171875 C 14.378906 -33.960938 14.070312 -33.691406 13.84375 -33.359375 C 13.625 -33.035156 13.535156 -32.664062 13.578125 -32.25 C 13.628906 -31.757812 13.835938 -31.390625 14.203125 -31.140625 C 14.578125 -30.890625 15.039062 -30.722656 15.59375 -30.640625 C 16.144531 -30.554688 16.742188 -30.535156 17.390625 -30.578125 C 18.046875 -30.617188 18.695312 -30.675781 19.34375 -30.75 C 19.988281 -30.820312 20.585938 -30.894531 21.140625 -30.96875 C 21.691406 -31.039062 22.148438 -31.070312 22.515625 -31.0625 C 24.285156 -31.082031 25.90625 -30.8125 27.375 -30.25 C 28.84375 -29.695312 30.109375 -28.921875 31.171875 -27.921875 C 32.234375 -26.921875 33.070312 -25.695312 33.6875 -24.25 C 34.300781 -22.800781 34.664062 -21.191406 34.78125 -19.421875 Z M 34.78125 -19.421875 "/></g></g><g transform="translate(206.307269, 303.496838)"><g><path d="M 16.0625 -48.21875 L 16.6875 -2.625 L 2.65625 -0.96875 L -1.609375 -46.140625 Z M 16.0625 -48.21875 "/></g></g><g transform="translate(226.422149, 302.19118)"><g><path d="M 41.28125 -28.34375 C 41.40625 -26.3125 41.296875 -24.34375 40.953125 -22.4375 C 40.609375 -20.539062 40.050781 -18.738281 39.28125 -17.03125 C 38.507812 -15.320312 37.535156 -13.742188 36.359375 -12.296875 C 35.191406 -10.847656 33.859375 -9.582031 32.359375 -8.5 C 30.859375 -7.414062 29.203125 -6.539062 27.390625 -5.875 C 25.578125 -5.21875 23.632812 -4.820312 21.5625 -4.6875 C 19.5625 -4.5625 17.640625 -4.691406 15.796875 -5.078125 C 13.953125 -5.460938 12.210938 -6.066406 10.578125 -6.890625 C 8.941406 -7.722656 7.4375 -8.742188 6.0625 -9.953125 C 4.695312 -11.171875 3.515625 -12.546875 2.515625 -14.078125 C 1.523438 -15.617188 0.71875 -17.28125 0.09375 -19.0625 C -0.53125 -20.851562 -0.910156 -22.738281 -1.046875 -24.71875 C -1.171875 -26.644531 -1.054688 -28.554688 -0.703125 -30.453125 C -0.359375 -32.347656 0.195312 -34.144531 0.96875 -35.84375 C 1.738281 -37.539062 2.703125 -39.117188 3.859375 -40.578125 C 5.023438 -42.046875 6.34375 -43.328125 7.8125 -44.421875 C 9.289062 -45.523438 10.914062 -46.410156 12.6875 -47.078125 C 14.457031 -47.753906 16.34375 -48.160156 18.34375 -48.296875 C 21.5625 -48.503906 24.53125 -48.191406 27.25 -47.359375 C 29.976562 -46.535156 32.34375 -45.253906 34.34375 -43.515625 C 36.351562 -41.773438 37.957031 -39.617188 39.15625 -37.046875 C 40.363281 -34.484375 41.070312 -31.582031 41.28125 -28.34375 Z M 26.515625 -26.515625 C 26.460938 -27.460938 26.265625 -28.378906 25.921875 -29.265625 C 25.578125 -30.148438 25.117188 -30.925781 24.546875 -31.59375 C 23.984375 -32.257812 23.289062 -32.785156 22.46875 -33.171875 C 21.644531 -33.554688 20.71875 -33.710938 19.6875 -33.640625 C 18.644531 -33.578125 17.722656 -33.328125 16.921875 -32.890625 C 16.128906 -32.460938 15.457031 -31.898438 14.90625 -31.203125 C 14.363281 -30.503906 13.960938 -29.707031 13.703125 -28.8125 C 13.453125 -27.914062 13.359375 -26.984375 13.421875 -26.015625 C 13.484375 -25.078125 13.675781 -24.144531 14 -23.21875 C 14.332031 -22.300781 14.789062 -21.476562 15.375 -20.75 C 15.957031 -20.03125 16.65625 -19.460938 17.46875 -19.046875 C 18.289062 -18.640625 19.226562 -18.472656 20.28125 -18.546875 C 21.320312 -18.609375 22.25 -18.875 23.0625 -19.34375 C 23.875 -19.8125 24.539062 -20.410156 25.0625 -21.140625 C 25.59375 -21.878906 25.984375 -22.710938 26.234375 -23.640625 C 26.492188 -24.578125 26.585938 -25.535156 26.515625 -26.515625 Z M 26.515625 -26.515625 "/></g></g><g transform="translate(269.987712, 299.363336)"><g><path d="M 42 -19.6875 C 42.164062 -17.164062 42.300781 -14.671875 42.40625 -12.203125 C 42.507812 -9.742188 42.585938 -7.269531 42.640625 -4.78125 L 23.40625 -3.875 C 23.820312 -7.84375 24.144531 -11.804688 24.375 -15.765625 C 24.601562 -19.722656 24.585938 -23.703125 24.328125 -27.703125 C 24.304688 -27.992188 24.265625 -28.460938 24.203125 -29.109375 C 24.140625 -29.753906 24.050781 -30.476562 23.9375 -31.28125 C 23.820312 -32.09375 23.671875 -32.921875 23.484375 -33.765625 C 23.304688 -34.609375 23.085938 -35.378906 22.828125 -36.078125 C 22.578125 -36.785156 22.285156 -37.351562 21.953125 -37.78125 C 21.628906 -38.21875 21.253906 -38.421875 20.828125 -38.390625 C 20.066406 -38.347656 19.4375 -38.085938 18.9375 -37.609375 C 18.445312 -37.128906 18.050781 -36.523438 17.75 -35.796875 C 17.457031 -35.078125 17.238281 -34.273438 17.09375 -33.390625 C 16.945312 -32.515625 16.851562 -31.640625 16.8125 -30.765625 C 16.769531 -29.890625 16.753906 -29.066406 16.765625 -28.296875 C 16.785156 -27.535156 16.8125 -26.914062 16.84375 -26.4375 C 17 -22.476562 17.164062 -18.554688 17.34375 -14.671875 C 17.53125 -10.785156 17.695312 -6.863281 17.84375 -2.90625 L 0.875 -1.0625 C 0.8125 -8.9375 0.734375 -16.769531 0.640625 -24.5625 C 0.546875 -32.351562 0.363281 -40.179688 0.09375 -48.046875 L 15.78125 -49.875 L 16 -44.515625 C 16.570312 -45.316406 17.195312 -46.070312 17.875 -46.78125 C 18.5625 -47.5 19.300781 -48.125 20.09375 -48.65625 C 20.882812 -49.1875 21.734375 -49.617188 22.640625 -49.953125 C 23.546875 -50.296875 24.507812 -50.5 25.53125 -50.5625 C 27.425781 -50.6875 29.101562 -50.484375 30.5625 -49.953125 C 32.019531 -49.429688 33.296875 -48.664062 34.390625 -47.65625 C 35.492188 -46.65625 36.429688 -45.445312 37.203125 -44.03125 C 37.984375 -42.625 38.640625 -41.109375 39.171875 -39.484375 C 39.703125 -37.867188 40.132812 -36.171875 40.46875 -34.390625 C 40.8125 -32.617188 41.078125 -30.867188 41.265625 -29.140625 C 41.453125 -27.410156 41.597656 -25.734375 41.703125 -24.109375 C 41.816406 -22.484375 41.914062 -21.007812 42 -19.6875 Z M 42 -19.6875 "/></g></g></g></svg>