<svg xmlns="http://www.w3.org/2000/svg" xmlns:xlink="http://www.w3.org/1999/xlink" width="480" zoomAndPan="magnify" viewBox="0 0 360 359.999987" height="480" preserveAspectRatio="xMidYMid meet" version="1.0"><path fill="#277704" d="M 164.25 19.984375 L 65.316406 22.066406 C 65.316406 22.066406 22.617188 22.066406 21.574219 62.1875 C 20.535156 102.308594 23.136719 254.457031 21.054688 278.425781 C 18.972656 302.394531 15.847656 329.488281 53.339844 335.738281 C 90.828125 341.992188 282.972656 339.90625 292.867188 339.386719 C 302.757812 338.867188 343.375 330.527344 338.6875 285.199219 C 334.003906 239.867188 340.253906 83.554688 340.253906 70.527344 C 340.253906 57.5 337.125 19.984375 292.867188 18.941406 C 248.609375 17.898438 164.25 19.984375 164.25 19.984375 Z M 164.25 19.984375 " fill-opacity="1" fill-rule="evenodd"/><path fill="#94e530" d="M 188.183594 315.671875 L 274.375 313.855469 C 274.375 313.855469 311.574219 313.855469 312.480469 278.902344 C 313.390625 243.949219 311.121094 111.398438 312.9375 90.515625 C 314.75 69.632812 317.472656 46.03125 284.808594 40.582031 C 252.144531 35.136719 84.75 36.953125 76.132812 37.40625 C 67.511719 37.859375 32.128906 45.121094 36.210938 84.613281 C 40.292969 124.109375 34.847656 260.289062 34.847656 271.636719 C 34.847656 282.988281 37.570312 315.667969 76.128906 316.578125 C 114.6875 317.488281 188.183594 315.671875 188.183594 315.671875 Z M 188.183594 315.671875 " fill-opacity="1" fill-rule="evenodd"/><path fill="#77c825" d="M 188.183594 315.667969 L 274.375 313.855469 C 274.375 313.855469 300.195312 313.851562 309.335938 293.636719 L 309.515625 293.230469 L 309.519531 293.222656 L 309.777344 292.609375 L 309.863281 292.398438 L 309.945312 292.1875 L 310.03125 291.972656 L 310.191406 291.546875 L 310.273438 291.328125 L 310.425781 290.890625 L 310.648438 290.222656 L 310.722656 289.996094 L 310.863281 289.542969 L 311.0625 288.851562 L 311.28125 288.03125 L 311.371094 287.65625 L 311.589844 286.695312 L 311.640625 286.472656 L 311.644531 286.449219 L 311.691406 286.199219 L 311.875 285.214844 L 311.925781 284.917969 C 311.996094 284.496094 312.0625 284.0625 312.117188 283.628906 L 312.121094 283.59375 C 312.179688 283.164062 312.226562 282.726562 312.273438 282.285156 L 312.292969 282.078125 L 312.300781 282.011719 C 312.390625 281.011719 312.453125 279.972656 312.480469 278.902344 L 312.492188 278.417969 L 312.503906 278.058594 L 312.503906 277.921875 L 312.515625 277.414062 L 312.523438 277.179688 L 312.527344 276.894531 L 312.539062 276.363281 L 312.539062 276.261719 L 312.546875 275.820312 L 312.558594 275.3125 L 312.558594 275.265625 L 312.566406 274.695312 L 312.574219 274.328125 L 312.578125 274.121094 L 312.585938 273.53125 L 312.589844 273.308594 L 312.59375 272.933594 L 312.601562 272.320312 L 312.601562 272.257812 L 312.609375 271.699219 L 312.617188 271.171875 L 312.617188 271.066406 L 312.625 270.425781 L 312.628906 270.058594 L 312.628906 269.773438 L 312.636719 269.109375 L 312.640625 268.914062 L 312.644531 268.4375 L 312.648438 267.753906 L 312.648438 267.738281 L 312.652344 267.058594 L 312.65625 266.535156 L 312.660156 266.359375 L 312.664062 265.644531 L 312.667969 265.300781 L 312.667969 264.921875 L 312.671875 264.191406 L 312.671875 264.039062 L 312.675781 263.449219 L 312.679688 262.746094 L 312.679688 262.699219 L 312.683594 261.941406 L 312.6875 261.429688 L 312.6875 260.394531 L 312.691406 260.085938 L 312.691406 259.609375 L 312.695312 258.816406 L 312.695312 258.011719 L 312.699219 257.320312 L 312.699219 254.71875 L 312.703125 254.453125 L 312.703125 249.539062 L 312.699219 248.652344 L 312.699219 245.945312 L 312.695312 245.316406 L 312.695312 243.722656 L 312.691406 243.179688 L 312.691406 242.105469 L 312.6875 241.300781 L 312.6875 240.355469 L 312.683594 239.402344 L 312.679688 238.820312 L 312.679688 238.441406 L 312.675781 237.476562 L 312.675781 236.503906 L 312.671875 235.53125 L 312.671875 235.46875 L 312.667969 234.546875 L 312.664062 233.765625 L 312.664062 233.558594 L 312.660156 232.566406 L 312.65625 232.050781 L 312.65625 231.570312 L 312.652344 230.570312 L 312.652344 230.316406 L 312.648438 229.5625 L 312.644531 228.570312 L 312.644531 228.550781 C 312.574219 212.78125 312.457031 195.34375 312.359375 178.289062 C 311.742188 193.941406 302.5625 252.878906 202.117188 287.707031 C 139.191406 301.269531 70.804688 298.949219 40.433594 296.929688 C 45.773438 307.085938 56.125 316.105469 76.128906 316.578125 C 114.6875 317.488281 188.183594 315.671875 188.183594 315.671875 Z M 312.121094 283.589844 C 312.175781 283.164062 312.226562 282.726562 312.273438 282.285156 Z M 312.121094 283.589844 " fill-opacity="1" fill-rule="evenodd"/><path fill="#144d00" d="M 193.132812 327.097656 L 280.917969 325.25 C 280.917969 325.25 318.804688 325.25 319.730469 289.652344 C 320.648438 254.050781 318.34375 119.046875 320.1875 97.78125 C 321.648438 81.003906 323.675781 62.503906 308.136719 52.714844 C 315.609375 62.824219 314.089844 77.222656 312.933594 90.515625 C 311.121094 111.398438 313.386719 243.949219 312.480469 278.902344 C 311.574219 313.855469 274.375 313.855469 274.375 313.855469 L 188.183594 315.671875 C 188.183594 315.671875 114.6875 317.488281 76.128906 316.578125 C 51.164062 315.988281 41.222656 302.082031 37.316406 289.269531 C 38.792969 303.65625 46.035156 327.246094 79.007812 328.023438 C 118.277344 328.945312 193.132812 327.097656 193.132812 327.097656 Z M 193.132812 327.097656 " fill-opacity="1" fill-rule="evenodd"/><path fill="#ffffff" d="M 82.773438 52.253906 C 82.773438 52.253906 50.714844 50.917969 50.378906 72.164062 C 50.042969 93.410156 48.5625 109.105469 61.957031 107.570312 C 69.355469 106.71875 62.484375 74.609375 81.082031 74.339844 C 99.679688 74.074219 100.300781 51.914062 82.773438 52.253906 Z M 114.828125 51.273438 C 114.828125 51.273438 103.875 50.261719 103.199219 61.390625 C 102.527344 72.519531 113.648438 75.046875 119.882812 71 C 126.121094 66.953125 126.117188 51.105469 114.828125 51.273438 Z M 114.828125 51.273438 " fill-opacity="1" fill-rule="evenodd"/><path fill="#144d00" d="M 109.378906 184.757812 C 106.964844 184.078125 104.832031 183.335938 103.085938 182.519531 C 81.824219 172.589844 142.316406 94.59375 174.375 93.273438 C 206.433594 94.59375 266.925781 172.589844 245.664062 182.519531 C 243.914062 183.335938 241.78125 184.078125 239.367188 184.757812 L 239.367188 244.355469 C 239.367188 253.128906 232.195312 260.308594 223.429688 260.308594 L 197.027344 260.308594 C 197.027344 260.308594 190.359375 258.148438 194.21875 244.976562 C 198.082031 231.804688 201.078125 194.039062 173.03125 196.023438 C 145.933594 197.933594 160.832031 243.050781 160.832031 252.058594 C 160.832031 259.121094 152.421875 260.179688 148.777344 260.308594 L 125.320312 260.308594 C 116.550781 260.308594 109.378906 253.128906 109.378906 244.355469 Z M 109.378906 184.757812 " fill-opacity="1" fill-rule="evenodd"/><path fill="#277704" d="M 109.378906 184.757812 C 106.964844 184.082031 104.835938 183.335938 103.085938 182.523438 C 101.402344 181.738281 100.238281 180.523438 99.523438 178.960938 C 106.105469 153.542969 149.082031 104.785156 174.375 103.742188 C 199.667969 104.785156 242.644531 153.542969 249.226562 178.960938 C 248.511719 180.523438 247.34375 181.738281 245.664062 182.523438 C 243.914062 183.335938 241.785156 184.082031 239.371094 184.757812 L 239.371094 244.355469 C 239.371094 253.128906 232.195312 260.308594 223.429688 260.308594 L 197.03125 260.308594 C 197.03125 260.308594 195.007812 259.652344 193.835938 256.867188 C 193.953125 256.40625 194.078125 255.9375 194.21875 255.449219 C 195.789062 250.101562 197.210938 240.707031 196.476562 231.558594 C 197.648438 215.464844 194.097656 194.535156 173.03125 196.019531 C 158.148438 197.070312 155.9375 211.160156 156.964844 225.136719 C 156.007812 235.425781 158.480469 247.679688 159.90625 255.660156 C 157.617188 259.511719 151.683594 260.203125 148.777344 260.308594 L 125.320312 260.308594 C 116.554688 260.308594 109.382812 253.128906 109.382812 244.355469 L 109.382812 184.757812 Z M 109.378906 184.757812 " fill-opacity="1" fill-rule="evenodd"/></svg>