<svg xmlns="http://www.w3.org/2000/svg" xmlns:xlink="http://www.w3.org/1999/xlink" width="480" zoomAndPan="magnify" viewBox="0 0 360 359.999987" height="480" preserveAspectRatio="xMidYMid meet" version="1.0"><path fill="#277704" d="M 164.617188 20.085938 L 65.636719 22.167969 C 65.636719 22.167969 22.917969 22.167969 21.875 62.289062 C 20.832031 102.410156 23.4375 254.566406 21.351562 278.535156 C 19.269531 302.503906 16.144531 329.597656 53.652344 335.851562 C 91.164062 342.105469 283.394531 340.019531 293.292969 339.5 C 303.191406 338.980469 343.824219 330.640625 339.136719 285.308594 C 334.449219 239.972656 340.703125 83.65625 340.703125 70.628906 C 340.703125 57.601562 337.574219 20.085938 293.292969 19.042969 C 249.015625 18 164.617188 20.082031 164.617188 20.082031 Z M 164.617188 20.085938 " fill-opacity="1" fill-rule="evenodd"/><path fill="#94e530" d="M 188.558594 315.78125 L 274.792969 313.964844 C 274.792969 313.964844 312.007812 313.964844 312.917969 279.011719 C 313.824219 244.054688 311.554688 111.5 313.371094 90.617188 C 315.1875 69.734375 317.910156 46.128906 285.230469 40.683594 C 252.554688 35.234375 85.078125 37.050781 76.457031 37.503906 C 67.832031 37.957031 32.433594 45.222656 36.515625 84.714844 C 40.601562 124.210938 35.152344 260.394531 35.152344 271.746094 C 35.152344 283.097656 37.878906 315.777344 76.453125 316.6875 C 115.03125 317.597656 188.558594 315.78125 188.558594 315.78125 Z M 188.558594 315.78125 " fill-opacity="1" fill-rule="evenodd"/><path fill="#77c825" d="M 188.5625 315.78125 L 274.792969 313.964844 C 274.792969 313.964844 300.625 313.960938 309.769531 293.746094 L 309.949219 293.339844 L 309.953125 293.332031 L 310.210938 292.71875 L 310.382812 292.296875 L 310.464844 292.085938 L 310.628906 291.65625 L 310.863281 291 L 311.085938 290.332031 L 311.296875 289.652344 L 311.367188 289.421875 L 311.5 288.960938 L 311.714844 288.140625 L 311.808594 287.765625 L 312.027344 286.800781 L 312.074219 286.582031 L 312.078125 286.554688 L 312.128906 286.304688 L 312.3125 285.324219 L 312.363281 285.023438 C 312.433594 284.601562 312.496094 284.171875 312.554688 283.738281 L 312.558594 283.699219 C 312.613281 283.273438 312.664062 282.835938 312.707031 282.394531 L 312.730469 282.1875 L 312.734375 282.121094 C 312.828125 281.117188 312.890625 280.082031 312.917969 279.011719 L 312.929688 278.527344 L 312.941406 278.167969 L 312.941406 278.03125 L 312.953125 277.523438 L 312.960938 277.285156 L 312.964844 277.003906 L 312.976562 276.472656 L 312.976562 276.371094 L 312.984375 275.929688 L 312.996094 275.421875 L 312.996094 275.371094 L 313.003906 274.804688 L 313.011719 274.433594 L 313.015625 274.230469 L 313.023438 273.640625 L 313.027344 273.417969 L 313.03125 273.042969 L 313.039062 272.429688 L 313.039062 272.367188 L 313.046875 271.808594 L 313.054688 271.28125 L 313.054688 271.175781 L 313.0625 270.535156 L 313.066406 270.167969 L 313.066406 269.882812 L 313.074219 269.21875 L 313.078125 269.023438 L 313.082031 268.542969 L 313.085938 267.863281 L 313.085938 267.847656 L 313.089844 267.167969 L 313.09375 266.640625 L 313.097656 266.464844 L 313.101562 265.753906 L 313.105469 265.40625 L 313.105469 265.03125 L 313.109375 264.300781 L 313.109375 264.144531 L 313.113281 263.558594 L 313.117188 262.855469 L 313.117188 262.808594 L 313.121094 262.046875 L 313.125 261.539062 L 313.125 260.5 L 313.128906 260.191406 L 313.128906 259.714844 L 313.132812 258.921875 L 313.132812 258.117188 L 313.136719 257.429688 L 313.136719 254.824219 L 313.140625 254.5625 L 313.140625 249.648438 L 313.136719 248.761719 L 313.136719 246.054688 L 313.132812 245.425781 L 313.132812 243.828125 L 313.128906 243.285156 L 313.128906 242.214844 L 313.125 241.410156 L 313.125 240.460938 L 313.121094 239.507812 L 313.117188 238.929688 L 313.117188 238.550781 L 313.113281 237.582031 L 313.113281 236.613281 L 313.109375 235.636719 L 313.109375 235.578125 L 313.105469 234.65625 L 313.101562 233.875 L 313.101562 233.667969 L 313.097656 232.675781 L 313.09375 232.15625 L 313.09375 231.679688 L 313.089844 230.675781 L 313.089844 230.425781 L 313.085938 229.671875 L 313.082031 228.679688 L 313.082031 228.660156 C 313.011719 212.886719 312.894531 195.449219 312.796875 178.394531 C 312.179688 194.046875 302.996094 252.988281 202.503906 287.816406 C 139.550781 301.382812 71.128906 299.0625 40.746094 297.039062 C 46.085938 307.195312 56.445312 316.214844 76.453125 316.6875 C 115.03125 317.597656 188.5625 315.78125 188.5625 315.78125 Z M 312.558594 283.699219 C 312.613281 283.273438 312.664062 282.832031 312.707031 282.394531 Z M 312.558594 283.699219 " fill-opacity="1" fill-rule="evenodd"/><path fill="#144d00" d="M 193.511719 327.207031 L 281.335938 325.359375 C 281.335938 325.359375 319.242188 325.359375 320.167969 289.761719 C 321.089844 254.15625 318.78125 119.148438 320.625 97.882812 C 322.085938 81.101562 324.113281 62.601562 308.570312 52.8125 C 316.046875 62.925781 314.527344 77.324219 313.371094 90.617188 C 311.558594 111.5 313.824219 244.054688 312.917969 279.011719 C 312.007812 313.964844 274.792969 313.964844 274.792969 313.964844 L 188.558594 315.78125 C 188.558594 315.78125 115.03125 317.597656 76.453125 316.6875 C 51.476562 316.097656 41.53125 302.191406 37.621094 289.378906 C 39.097656 303.765625 46.34375 327.355469 79.332031 328.132812 C 118.621094 329.058594 193.511719 327.207031 193.511719 327.207031 Z M 193.511719 327.207031 " fill-opacity="1" fill-rule="evenodd"/><path fill="#ffffff" d="M 83.101562 52.355469 C 83.101562 52.355469 51.027344 51.019531 50.691406 72.265625 C 50.355469 93.511719 48.875 109.210938 62.277344 107.671875 C 69.675781 106.824219 62.804688 74.710938 81.410156 74.441406 C 100.015625 74.175781 100.636719 52.015625 83.101562 52.355469 Z M 115.167969 51.375 C 115.167969 51.375 104.210938 50.359375 103.539062 61.488281 C 102.863281 72.621094 113.988281 75.148438 120.226562 71.101562 C 126.46875 67.054688 126.46875 51.203125 115.167969 51.375 Z M 115.167969 51.375 " fill-opacity="1" fill-rule="evenodd"/><path fill="#144d00" d="M 150.746094 118.949219 L 157.457031 98.664062 L 157.457031 98.660156 L 157.660156 98.054688 C 158.242188 96.664062 160.394531 93.378906 167.679688 93.378906 L 181.855469 93.378906 C 188.589844 93.378906 190.9375 96.1875 191.714844 97.707031 L 198.742188 118.949219 L 217.828125 109.351562 L 217.832031 109.347656 L 218.398438 109.0625 C 219.796875 108.492188 223.640625 107.691406 228.792969 112.84375 L 238.816406 122.867188 C 243.578125 127.632812 243.253906 131.277344 242.726562 132.90625 L 232.679688 152.894531 L 252.960938 159.605469 L 252.964844 159.605469 L 253.570312 159.804688 C 254.957031 160.390625 258.246094 162.542969 258.246094 169.828125 L 258.246094 184.007812 C 258.246094 190.742188 255.4375 193.09375 253.914062 193.871094 L 232.679688 200.898438 L 242.277344 219.988281 L 242.277344 219.992188 L 242.5625 220.5625 C 243.132812 221.957031 243.9375 225.804688 238.785156 230.957031 L 228.761719 240.984375 C 224 245.746094 220.351562 245.417969 218.726562 244.894531 L 198.742188 234.84375 L 192.03125 255.128906 L 192.03125 255.132812 L 191.832031 255.738281 C 191.246094 257.128906 189.09375 260.414062 181.808594 260.414062 L 167.632812 260.414062 C 160.898438 260.414062 158.550781 257.605469 157.773438 256.085938 L 150.746094 234.84375 L 131.660156 244.441406 L 131.65625 244.445312 L 131.089844 244.730469 C 129.695312 245.296875 125.847656 246.101562 120.695312 240.949219 L 110.671875 230.921875 C 105.910156 226.160156 106.238281 222.515625 106.761719 220.886719 L 116.8125 200.898438 L 96.527344 194.1875 L 96.523438 194.1875 L 95.921875 193.984375 C 94.53125 193.402344 91.246094 191.25 91.246094 183.960938 L 91.246094 169.785156 C 91.246094 163.050781 94.050781 160.699219 95.574219 159.921875 L 116.8125 152.894531 L 107.214844 133.804688 L 107.210938 133.800781 L 106.925781 133.230469 C 106.355469 131.835938 105.554688 127.988281 110.707031 122.835938 L 120.730469 112.808594 C 125.492188 108.046875 129.136719 108.375 130.761719 108.898438 Z M 172.695312 145.839844 C 172.695312 145.839844 141.738281 145.398438 142.769531 177.117188 C 143.804688 208.839844 173.726562 209.28125 182.601562 207.507812 C 191.472656 205.734375 206.746094 198.859375 206.746094 177.785156 C 206.746094 156.710938 192.09375 144.289062 172.695312 145.839844 Z M 172.695312 145.839844 " fill-opacity="1" fill-rule="evenodd"/><path fill="#277704" d="M 241.125 136.089844 L 232.679688 152.894531 L 232.679688 163.367188 L 252.960938 170.074219 L 252.964844 170.078125 L 253.566406 170.277344 C 254.957031 170.863281 258.246094 173.011719 258.246094 180.300781 L 258.246094 184.007812 C 258.246094 190.742188 255.4375 193.089844 253.914062 193.871094 L 232.675781 200.898438 L 232.675781 211.367188 L 241.121094 228.160156 C 240.53125 229.039062 239.765625 229.972656 238.785156 230.957031 L 228.757812 240.980469 C 223.996094 245.742188 220.351562 245.417969 218.726562 244.894531 L 198.738281 234.839844 L 192.03125 255.128906 L 192.027344 255.132812 L 191.828125 255.738281 C 191.246094 257.125 189.09375 260.414062 181.808594 260.414062 L 167.632812 260.414062 C 160.898438 260.414062 158.550781 257.605469 157.773438 256.082031 L 150.746094 234.839844 L 131.660156 244.441406 L 131.65625 244.441406 L 131.085938 244.730469 C 129.691406 245.296875 125.847656 246.101562 120.695312 240.949219 L 110.671875 230.921875 C 109.707031 229.957031 108.949219 229.035156 108.363281 228.171875 L 116.808594 211.367188 L 116.808594 200.898438 L 96.527344 194.1875 L 96.523438 194.183594 L 95.917969 193.984375 C 94.53125 193.402344 91.242188 191.25 91.242188 183.960938 L 91.242188 180.253906 C 91.242188 173.519531 94.050781 171.171875 95.574219 170.390625 L 116.808594 163.363281 L 116.808594 152.894531 L 108.367188 136.101562 C 108.960938 135.222656 109.722656 134.289062 110.703125 133.304688 L 120.726562 123.28125 C 125.488281 118.519531 129.136719 118.84375 130.761719 119.371094 L 150.746094 129.421875 L 157.457031 109.132812 L 157.457031 109.128906 L 157.65625 108.523438 C 158.242188 107.136719 160.394531 103.847656 167.679688 103.847656 L 181.855469 103.847656 C 188.589844 103.847656 190.9375 106.65625 191.714844 108.179688 L 198.738281 129.421875 L 217.828125 119.820312 L 217.832031 119.820312 L 218.398438 119.535156 C 219.796875 118.964844 223.640625 118.160156 228.792969 123.3125 L 238.816406 133.339844 C 239.78125 134.304688 240.535156 135.222656 241.125 136.089844 Z M 143.058594 180.964844 C 142.796875 183.003906 142.695312 185.203125 142.773438 187.589844 C 143.804688 219.308594 173.726562 219.753906 182.597656 217.976562 C 191.472656 216.203125 206.742188 209.328125 206.742188 188.257812 C 206.742188 186.417969 206.632812 184.644531 206.414062 182.941406 C 206.628906 181.324219 206.742188 179.609375 206.742188 177.785156 C 206.742188 156.710938 192.089844 144.289062 172.695312 145.839844 C 172.695312 145.839844 141.738281 145.398438 142.773438 177.117188 C 142.816406 178.457031 142.914062 179.738281 143.058594 180.964844 Z M 143.058594 180.964844 " fill-opacity="1" fill-rule="evenodd"/></svg>