<svg xmlns="http://www.w3.org/2000/svg" xmlns:xlink="http://www.w3.org/1999/xlink" width="480" zoomAndPan="magnify" viewBox="0 0 360 359.999987" height="480" preserveAspectRatio="xMidYMid meet" version="1.0"><defs><clipPath id="fc7e0a747c"><path d="M 15 13.246094 L 346 13.246094 L 346 346 L 15 346 Z M 15 13.246094 " clip-rule="nonzero"/></clipPath></defs><g clip-path="url(#fc7e0a747c)"><path fill="#277704" d="M 163.910156 15.296875 L 62.003906 17.445312 C 62.003906 17.445312 18.019531 17.445312 16.949219 58.785156 C 15.875 100.125 18.554688 256.902344 16.410156 281.597656 C 14.265625 306.296875 11.046875 334.210938 49.667969 340.65625 C 88.285156 347.097656 286.203125 344.949219 296.394531 344.414062 C 306.585938 343.878906 348.421875 335.285156 343.59375 288.574219 C 338.765625 241.867188 345.207031 80.800781 345.207031 67.375 C 345.207031 53.953125 341.984375 15.300781 296.398438 14.222656 C 250.808594 13.148438 163.910156 15.296875 163.910156 15.296875 Z M 163.910156 15.296875 " fill-opacity="1" fill-rule="evenodd"/></g><path fill="#94e530" d="M 188.5625 319.972656 L 277.347656 318.105469 C 277.347656 318.105469 315.664062 318.105469 316.597656 282.085938 C 317.53125 246.070312 315.199219 109.488281 317.066406 87.972656 C 318.933594 66.457031 321.738281 42.132812 288.09375 36.519531 C 254.449219 30.910156 82.019531 32.78125 73.140625 33.246094 C 64.265625 33.714844 27.816406 41.199219 32.023438 81.894531 C 36.226562 122.585938 30.617188 262.910156 30.617188 274.601562 C 30.617188 286.296875 33.421875 319.972656 73.140625 320.910156 C 112.859375 321.847656 188.5625 319.976562 188.5625 319.976562 Z M 188.5625 319.972656 " fill-opacity="1" fill-rule="evenodd"/><path fill="#77c825" d="M 188.5625 319.972656 L 277.347656 318.105469 C 277.347656 318.105469 303.941406 318.101562 313.359375 297.269531 L 313.449219 297.0625 L 313.542969 296.851562 L 313.546875 296.84375 L 313.8125 296.210938 L 313.902344 295.996094 L 314.074219 295.558594 L 314.242188 295.117188 L 314.320312 294.894531 L 314.480469 294.445312 L 314.558594 294.214844 L 314.710938 293.757812 L 314.785156 293.523438 L 314.929688 293.054688 L 315 292.816406 L 315.070312 292.582031 L 315.136719 292.34375 L 315.359375 291.5 L 315.453125 291.109375 L 315.679688 290.117188 L 315.730469 289.890625 L 315.734375 289.863281 L 315.785156 289.605469 L 315.972656 288.59375 L 316.023438 288.285156 C 316.09375 287.851562 316.164062 287.40625 316.222656 286.960938 L 316.226562 286.921875 C 316.285156 286.480469 316.335938 286.03125 316.378906 285.578125 L 316.402344 285.363281 L 316.40625 285.296875 C 316.503906 284.261719 316.566406 283.195312 316.59375 282.089844 L 316.609375 281.589844 L 316.617188 281.21875 L 316.621094 281.082031 L 316.632812 280.558594 L 316.636719 280.3125 L 316.644531 280.019531 L 316.65625 279.472656 L 316.65625 279.367188 L 316.664062 278.914062 L 316.675781 278.390625 L 316.675781 278.339844 L 316.683594 277.757812 L 316.691406 277.375 L 316.695312 277.160156 L 316.703125 276.554688 L 316.707031 276.324219 L 316.710938 275.9375 L 316.722656 275.308594 L 316.722656 275.242188 L 316.726562 274.667969 L 316.734375 274.125 L 316.734375 274.015625 L 316.742188 273.355469 L 316.746094 272.976562 L 316.75 272.683594 L 316.757812 272 L 316.757812 271.796875 L 316.765625 271.304688 L 316.769531 270.601562 L 316.769531 270.585938 L 316.773438 269.886719 L 316.777344 269.34375 L 316.78125 269.164062 L 316.785156 268.429688 L 316.789062 268.074219 L 316.789062 267.683594 L 316.792969 266.929688 L 316.792969 266.773438 L 316.796875 266.167969 L 316.800781 265.445312 L 316.800781 265.394531 L 316.804688 264.613281 L 316.808594 264.085938 L 316.808594 263.019531 L 316.8125 262.703125 L 316.8125 262.210938 L 316.816406 261.394531 L 316.816406 261.289062 L 316.820312 260.566406 L 316.820312 258.886719 L 316.824219 258.390625 L 316.824219 250.003906 L 316.820312 249.113281 L 316.820312 247.191406 L 316.816406 246.242188 L 316.816406 245.84375 L 316.8125 245.28125 L 316.8125 244.179688 L 316.808594 243.347656 L 316.808594 242.375 L 316.804688 241.390625 L 316.800781 240.792969 L 316.800781 240.402344 L 316.796875 239.40625 L 316.796875 238.40625 L 316.792969 237.402344 L 316.792969 237.339844 L 316.789062 236.386719 L 316.785156 235.585938 L 316.785156 235.371094 L 316.78125 234.347656 L 316.777344 233.816406 L 316.777344 233.324219 L 316.773438 232.289062 L 316.773438 232.03125 L 316.769531 231.253906 L 316.765625 230.230469 L 316.765625 230.210938 C 316.691406 213.960938 316.570312 195.992188 316.472656 178.417969 C 315.835938 194.550781 306.378906 255.28125 202.914062 291.164062 C 138.097656 305.140625 67.652344 302.75 36.371094 300.667969 C 41.871094 311.132812 52.535156 320.425781 73.136719 320.914062 C 112.855469 321.851562 188.558594 319.976562 188.558594 319.976562 Z M 316.226562 286.921875 C 316.285156 286.480469 316.335938 286.027344 316.382812 285.574219 Z M 316.226562 286.921875 " fill-opacity="1" fill-rule="evenodd"/><path fill="#144d00" d="M 193.660156 331.75 L 284.085938 329.847656 C 284.085938 329.847656 323.109375 329.847656 324.0625 293.164062 C 325.011719 256.480469 322.636719 117.371094 324.535156 95.460938 C 326.039062 78.171875 328.128906 59.109375 312.125 49.019531 C 319.820312 59.441406 318.257812 74.277344 317.066406 87.972656 C 315.199219 109.488281 317.53125 246.070312 316.601562 282.089844 C 315.664062 318.105469 277.347656 318.105469 277.347656 318.105469 L 188.566406 319.972656 C 188.566406 319.972656 112.859375 321.847656 73.140625 320.910156 C 47.425781 320.304688 37.1875 305.976562 33.160156 292.769531 C 34.683594 307.597656 42.140625 331.902344 76.105469 332.703125 C 116.558594 333.65625 193.660156 331.75 193.660156 331.75 Z M 193.660156 331.75 " fill-opacity="1" fill-rule="evenodd"/><path fill="#ffffff" d="M 79.984375 48.546875 C 79.984375 48.546875 46.960938 47.171875 46.617188 69.066406 C 46.269531 90.953125 44.746094 107.128906 58.542969 105.546875 C 66.160156 104.671875 59.085938 71.582031 78.242188 71.304688 C 97.398438 71.03125 98.039062 48.195312 79.984375 48.546875 Z M 113 47.535156 C 113 47.535156 101.71875 46.492188 101.023438 57.960938 C 100.332031 69.429688 111.785156 72.035156 118.210938 67.863281 C 124.632812 63.695312 124.632812 47.363281 113 47.539062 Z M 113 47.535156 " fill-opacity="1" fill-rule="evenodd"/><path fill="#144d00" d="M 100.382812 107.300781 C 100.382812 107.300781 106.164062 109.660156 118.78125 115.25 C 188.695312 52.5 281.941406 121.628906 264.894531 198.414062 C 247.367188 277.375 155.226562 264.308594 144.390625 258.082031 C 133.558594 251.847656 135.402344 243.777344 137.015625 242.621094 C 138.632812 241.464844 150.617188 219.316406 157.070312 208.933594 C 163.527344 198.546875 170.519531 202.464844 170.519531 202.464844 C 216.882812 222.238281 237.042969 157.269531 204.386719 137.089844 C 187.003906 126.347656 170.078125 128.984375 158.046875 133.804688 C 164.214844 136.964844 170.121094 140.152344 175.347656 143.230469 C 204.140625 160.183594 144.863281 191.035156 130.296875 198.15625 C 115.730469 205.277344 97.441406 213.753906 89.652344 185.949219 C 81.859375 158.144531 82.089844 125.949219 81.753906 118.148438 C 81.414062 110.351562 88.867188 99.839844 100.382812 107.300781 Z M 100.382812 107.300781 " fill-opacity="1" fill-rule="evenodd"/><path fill="#277704" d="M 266.75 185.277344 C 266.472656 189.617188 265.875 194.003906 264.894531 198.414062 C 247.367188 277.375 155.226562 264.308594 144.394531 258.078125 C 141.246094 256.269531 139.167969 254.304688 137.84375 252.394531 C 141.074219 247.757812 151.292969 229.023438 157.070312 219.722656 C 163.527344 209.335938 170.519531 213.253906 170.519531 213.253906 C 203.542969 227.335938 223.261719 198.433594 220.082031 173.34375 C 221.796875 159.5625 217.089844 144.9375 204.386719 137.089844 C 187.003906 126.347656 170.078125 128.984375 158.046875 133.804688 L 158.046875 144.59375 C 164.214844 147.75 170.121094 150.9375 175.347656 154.015625 C 178.4375 155.835938 180.507812 157.816406 181.734375 159.910156 C 174.453125 175.597656 140.785156 193.027344 130.296875 198.15625 C 115.734375 205.277344 97.441406 213.753906 89.652344 185.949219 C 83.492188 163.976562 82.347656 139.257812 81.96875 126.007812 C 83.289062 118.847656 90.269531 111.535156 100.382812 118.089844 C 100.382812 118.089844 106.164062 120.449219 118.78125 126.039062 C 181.308594 69.914062 262.492188 119.289062 266.75 185.277344 Z M 159.816406 134.714844 C 163.839844 136.796875 167.738281 138.882812 171.375 140.941406 C 167.867188 138.972656 163.71875 136.738281 159.816406 134.714844 Z M 159.816406 134.714844 " fill-opacity="1" fill-rule="evenodd"/></svg>