<svg xmlns="http://www.w3.org/2000/svg" xmlns:xlink="http://www.w3.org/1999/xlink" width="480" zoomAndPan="magnify" viewBox="0 0 360 359.999987" height="480" preserveAspectRatio="xMidYMid meet" version="1.0"><defs><g/><clipPath id="995b9421b0"><path d="M 147 33 L 327 33 L 327 230.386719 L 147 230.386719 Z M 147 33 " clip-rule="nonzero"/></clipPath><clipPath id="224ccffa3b"><path d="M 16 37 L 184.433594 37 L 184.433594 225 L 16 225 Z M 16 37 " clip-rule="nonzero"/></clipPath></defs><g clip-path="url(#995b9421b0)"><path fill="#ffffff" d="M 224.621094 230.214844 C 208.1875 230.214844 193.269531 224.367188 181.460938 213.410156 C 161.675781 196.359375 148.832031 166.890625 147.980469 136.570312 C 147.1875 109.414062 155.648438 85.851562 171.78125 70.140625 C 186.757812 54.492188 209.890625 33.671875 238.015625 33.671875 L 240.632812 33.671875 C 247.644531 33.855469 254.523438 34.902344 261.273438 36.808594 C 268.023438 38.714844 274.433594 41.425781 280.507812 44.933594 C 283.445312 46.648438 286.277344 48.519531 289.007812 50.546875 C 291.742188 52.570312 294.351562 54.742188 296.84375 57.058594 C 299.332031 59.375 301.6875 61.820312 303.910156 64.394531 C 306.128906 66.972656 308.199219 69.664062 310.125 72.46875 C 312.046875 75.273438 313.808594 78.175781 315.414062 81.175781 C 317.015625 84.175781 318.445312 87.253906 319.707031 90.414062 C 320.96875 93.570312 322.054688 96.789062 322.960938 100.066406 C 323.867188 103.347656 324.589844 106.664062 325.128906 110.023438 C 326.257812 117.007812 326.507812 124.027344 325.882812 131.078125 C 325.253906 138.128906 323.765625 144.992188 321.417969 151.667969 C 314.597656 173.34375 299.988281 191.671875 274.054688 210.851562 C 260.539062 223.089844 242.519531 230.152344 224.621094 230.152344 Z M 234.242188 124.453125 C 234.703125 130.261719 236.085938 135.84375 238.378906 141.195312 C 237.945312 135.382812 236.566406 129.800781 234.242188 124.453125 Z M 234.242188 124.453125 " fill-opacity="1" fill-rule="nonzero"/></g><path fill="#ff053d" d="M 224.683594 222.601562 C 245.078125 223.273438 257.679688 212.921875 272.410156 202.386719 C 297.980469 182.964844 319.226562 155.808594 317.824219 121.710938 C 319.832031 67.402344 252.746094 20.214844 205.8125 51.8125 C 195.367188 58.597656 185.914062 66.550781 177.445312 75.683594 C 134.160156 117.144531 158.996094 220.351562 224.683594 222.601562 Z M 241.363281 121.042969 C 246.722656 132.613281 247.878906 147.589844 245.015625 159.339844 C 227.542969 151.667969 223.464844 123.113281 227.605469 106.308594 C 233.144531 108.5 237.953125 113.554688 241.363281 121.042969 Z M 241.363281 121.042969 " fill-opacity="1" fill-rule="nonzero"/><path fill="#ffe505" d="M 246.597656 204.09375 C 225.292969 203.546875 206.359375 191.792969 193.332031 170.910156 C 176.285156 143.691406 172.632812 106.429688 184.503906 80.25 C 193.941406 55.773438 213.726562 41.769531 238.683594 41.769531 C 252.871094 41.769531 267.601562 46.273438 281.296875 54.859375 C 305.101562 70.324219 318.738281 96.933594 317.824219 126.035156 C 316.910156 155.140625 301.023438 182.171875 275.394531 196.664062 C 267.84375 201.535156 258.164062 204.09375 246.660156 204.09375 Z M 245.136719 86.703125 C 230.589844 88.773438 225.78125 106.371094 226.082031 120.921875 C 226.511719 139.066406 234.851562 158.976562 249.519531 160.4375 C 263.828125 158.425781 268.636719 141.015625 268.394531 126.644531 C 268.148438 108.4375 259.871094 88.285156 245.136719 86.703125 Z M 245.136719 86.703125 " fill-opacity="1" fill-rule="nonzero"/><path fill="#820022" d="M 241.058594 117.753906 C 247.390625 111.484375 253.660156 105.152344 259.929688 98.878906 C 256.339844 92.972656 251.410156 88.773438 245.382812 87.980469 L 245.015625 87.980469 C 235.640625 89.441406 231.320312 97.84375 229.308594 104.601562 C 229.230469 104.886719 229.246094 105.167969 229.359375 105.441406 C 229.476562 105.710938 229.660156 105.921875 229.917969 106.066406 C 234.300781 108.257812 238.078125 112.335938 241.058594 117.753906 Z M 241.058594 117.753906 " fill-opacity="1" fill-rule="nonzero"/><path fill="#820022" d="M 267.722656 202.9375 C 267.488281 202.5 267.121094 202.277344 266.628906 202.265625 L 266.261719 202.386719 C 259.863281 204.398438 253.308594 205.375 246.597656 205.3125 C 243.4375 205.230469 240.300781 204.902344 237.191406 204.328125 C 234.082031 203.753906 231.035156 202.9375 228.050781 201.882812 C 225.070312 200.828125 222.1875 199.546875 219.410156 198.039062 C 216.628906 196.53125 213.984375 194.816406 211.472656 192.890625 C 204.960938 198.550781 198.628906 204.335938 192.722656 210.546875 C 197.40625 213.894531 202.476562 216.492188 207.929688 218.339844 C 213.386719 220.1875 218.988281 221.199219 224.746094 221.386719 L 226.511719 221.386719 C 243.921875 221.386719 255.851562 212.738281 267.359375 204.457031 C 267.59375 204.28125 267.75 204.050781 267.816406 203.765625 C 267.886719 203.476562 267.855469 203.199219 267.722656 202.9375 Z M 267.722656 202.9375 " fill-opacity="1" fill-rule="nonzero"/><path fill="#000000" d="M 226.511719 225.097656 L 224.621094 225.097656 C 209.890625 224.613281 196.558594 219.316406 185.054688 209.328125 C 174.765625 200.441406 166.363281 188.019531 160.824219 173.40625 C 157.566406 164.898438 155.382812 156.121094 154.269531 147.078125 C 153.160156 138.035156 153.152344 128.992188 154.25 119.945312 C 156.683594 101.070312 164.113281 85.242188 175.679688 74.039062 C 184.289062 64.769531 193.886719 56.671875 204.472656 49.746094 C 211.058594 45.125 218.304688 42.058594 226.207031 40.550781 L 226.511719 40.550781 L 227.179688 40.429688 C 231.179688 39.644531 235.21875 39.257812 239.292969 39.273438 L 240.511719 39.273438 C 250.460938 39.515625 259.976562 41.667969 269.0625 45.726562 L 269.730469 46.03125 C 274.179688 47.96875 278.460938 50.222656 282.578125 52.789062 C 288.40625 56.566406 293.671875 61.011719 298.371094 66.128906 C 303.074219 71.242188 307.0625 76.863281 310.335938 82.988281 C 317.277344 95.226562 320.746094 108.621094 320.257812 121.710938 C 320.640625 131.382812 319.28125 140.796875 316.179688 149.964844 C 314.269531 156.128906 311.683594 162 308.421875 167.570312 C 305.164062 173.144531 301.316406 178.273438 296.882812 182.964844 C 289.976562 190.894531 282.304688 197.996094 273.871094 204.277344 L 270.707031 206.589844 L 270.585938 206.589844 C 257.496094 216.148438 245.136719 225.097656 226.511719 225.097656 Z M 186.757812 69.777344 C 184.078125 72.273438 181.523438 74.828125 179.207031 77.324219 L 179.207031 77.449219 C 157.660156 98.027344 151.996094 136.75 165.328125 171.640625 C 176.652344 201.109375 198.871094 219.316406 224.804688 220.167969 L 226.511719 220.167969 C 243.066406 220.167969 254.148438 212.496094 266.628906 203.421875 C 260.140625 205.539062 253.484375 206.550781 246.660156 206.46875 L 246.539062 206.46875 C 224.378906 205.917969 204.777344 193.742188 191.261719 172.1875 C 173.851562 144.363281 170.136719 106.125 182.253906 79.335938 C 183.535156 76.046875 185.035156 72.859375 186.757812 69.777344 Z M 238.683594 44.203125 C 237.101562 44.203125 235.519531 44.265625 233.9375 44.386719 C 229.351562 44.789062 224.878906 45.734375 220.523438 47.230469 C 216.167969 48.722656 212.054688 50.71875 208.1875 53.214844 C 198.8125 59.546875 191.382812 69.167969 186.757812 81.160156 L 186.757812 81.285156 C 175.191406 106.734375 178.78125 143.085938 195.402344 169.632812 C 208.003906 189.785156 226.207031 201.171875 246.660156 201.65625 C 257.679688 201.65625 266.933594 199.28125 274.054688 194.65625 L 274.175781 194.535156 C 281.296875 190.523438 287.667969 185.550781 293.292969 179.617188 C 301.875 169.570312 308.085938 158.976562 311.675781 148.078125 C 313.222656 143.125 314.289062 138.070312 314.882812 132.917969 C 315.476562 127.761719 315.582031 122.597656 315.203125 117.421875 C 314.824219 112.25 313.960938 107.15625 312.621094 102.144531 C 311.28125 97.132812 309.484375 92.289062 307.230469 87.617188 C 305.328125 84.046875 303.179688 80.632812 300.785156 77.375 C 298.390625 74.113281 295.777344 71.042969 292.945312 68.15625 C 290.113281 65.269531 287.085938 62.601562 283.871094 60.148438 C 280.65625 57.699219 277.28125 55.488281 273.75 53.519531 C 271.695312 52.355469 269.585938 51.296875 267.417969 50.351562 C 262.886719 48.367188 258.203125 46.855469 253.363281 45.820312 C 248.527344 44.785156 243.632812 44.246094 238.683594 44.203125 Z M 238.683594 44.203125 " fill-opacity="1" fill-rule="nonzero"/><path fill="#000000" d="M 249.519531 162.871094 L 249.277344 162.871094 C 248.375 162.765625 247.480469 162.601562 246.597656 162.386719 L 246.050781 162.386719 L 244.042969 161.472656 C 241.03125 160.265625 238.414062 158.476562 236.1875 156.113281 C 229.25 149.292969 224.804688 137.785156 223.890625 124.574219 C 223.769531 123.355469 223.710938 122.140625 223.648438 120.921875 C 223.511719 115.351562 224.140625 109.875 225.535156 104.480469 L 225.78125 103.628906 L 225.78125 103.445312 C 228.152344 95.53125 233.328125 85.851562 244.773438 84.265625 L 245.382812 84.265625 C 261.453125 85.972656 270.523438 107.34375 270.765625 126.523438 C 271.011719 141.867188 265.652344 160.621094 249.765625 162.75 L 249.460938 162.75 Z M 247.878906 157.695312 L 249.460938 157.941406 C 262 155.992188 266.203125 139.917969 265.957031 126.707031 C 265.714844 109.71875 258.347656 90.84375 245.199219 89.199219 C 236.492188 90.539062 232.414062 98.394531 230.46875 104.96875 C 235.824219 107.707031 240.328125 112.882812 243.617188 120.007812 C 248.609375 131.027344 250.25 145.398438 247.878906 157.695312 Z M 229.371094 109.902344 C 228.464844 115.339844 228.304688 120.796875 228.882812 126.28125 C 229.796875 134.5 232.230469 142.109375 235.703125 147.773438 C 237.628906 150.980469 240.167969 153.597656 243.3125 155.625 C 245.199219 144.605469 243.617188 131.820312 239.171875 122.078125 C 236.617188 116.476562 233.207031 112.273438 229.371094 109.902344 Z M 229.371094 109.902344 " fill-opacity="1" fill-rule="nonzero"/><g clip-path="url(#224ccffa3b)"><path fill="#ffffff" d="M 142.054688 224.769531 C 134.328125 224.769531 132.1875 217.460938 130.96875 210.375 C 116.957031 219.695312 101.679688 224.640625 86.664062 224.640625 C 83.964844 224.648438 81.273438 224.5 78.589844 224.199219 C 62.003906 221.621094 48.167969 214.3125 37.429688 202.542969 C 27.785156 191.953125 21.0625 177.949219 17.964844 161.976562 C 14.167969 142.507812 15.957031 121.371094 22.941406 102.382812 C 30.449219 82.121094 43.105469 66.195312 59.515625 56.347656 C 73.398438 43.703125 90.027344 37.007812 107.527344 37.007812 C 122.367188 37.007812 136.859375 41.820312 149.472656 50.878906 C 162.085938 59.9375 172.386719 73.28125 178.367188 88.902344 C 178.628906 89.515625 178.847656 90.085938 179.066406 90.652344 C 182.296875 98.925781 183.476562 101.945312 175.96875 108.683594 C 177.070312 108.792969 178.121094 109.097656 179.113281 109.59375 C 180.105469 110.089844 180.976562 110.75 181.730469 111.570312 C 183.039062 113.015625 184.433594 115.640625 183.953125 119.972656 C 183.34375 131.4375 182.761719 143.628906 182.210938 156.550781 C 181.554688 171.824219 180.855469 187.578125 179.984375 201.972656 C 179.371094 205.296875 177.277344 207.265625 175.09375 209.28125 L 174.703125 209.671875 C 171.515625 213.304688 166.410156 217.332031 162.699219 219.738281 C 160.648438 222.449219 155.015625 223.0625 150.519531 223.542969 C 148.90625 223.71875 147.335938 223.894531 146.242188 224.113281 C 144.875 224.507812 143.476562 224.726562 142.054688 224.769531 Z M 105.652344 170.859375 C 106.59375 171 107.539062 171.074219 108.488281 171.078125 C 110.566406 171.054688 112.605469 170.75 114.597656 170.160156 L 116.695312 166.703125 L 115.691406 167.097656 L 113.59375 167.886719 C 110.988281 168.703125 108.425781 169.652344 105.914062 170.730469 Z M 88.019531 107.980469 C 86.207031 110.96875 84.863281 114.152344 83.988281 117.535156 C 83.109375 120.917969 82.738281 124.355469 82.867188 127.847656 C 82.300781 136.335938 83.652344 144.871094 86.753906 152.21875 C 86.359375 149.507812 85.75 146.925781 85.179688 144.476562 C 84.046875 139.75 82.867188 134.847656 83.304688 128.984375 C 83.523438 126.621094 85.226562 125.003906 86.839844 123.472656 C 87.40625 122.945312 87.929688 122.464844 88.367188 121.984375 C 88.804688 121.503906 90.027344 120.277344 90.59375 119.707031 C 92.339844 117.957031 93.039062 117.214844 97.445312 114.109375 C 98.449219 113.496094 99.191406 112.882812 99.890625 112.402344 C 101.375 111.265625 102.640625 110.300781 104.691406 109.949219 C 101.941406 107.542969 99.148438 106.40625 95.917969 106.40625 C 93.734375 106.449219 91.335938 106.933594 88.019531 107.980469 Z M 88.019531 107.980469 " fill-opacity="1" fill-rule="nonzero"/></g><path fill="#ff053d" d="M 38.742188 194.707031 C 63.007812 226.300781 103.511719 225.382812 133.367188 201.535156 C 137.296875 203.328125 136.117188 219.082031 141.441406 219.039062 C 146.765625 218.992188 152.265625 217.898438 157.417969 216.585938 L 165.667969 210.722656 C 167.628906 208.84375 169.507812 206.875 171.429688 204.949219 C 173.347656 203.023438 174.875 200.835938 174.613281 198.734375 C 175.660156 174.929688 176.839844 148.894531 178.324219 119.664062 C 178.457031 115.070312 177.757812 114.414062 173.347656 114.238281 C 168.941406 114.0625 164.835938 114.546875 159.511719 114.589844 C 159.554688 114.5 167.761719 108.726562 167.804688 108.683594 L 172.171875 104.304688 L 175.183594 101.285156 C 176.230469 100.542969 175.921875 99.363281 175.488281 97.480469 C 159.121094 46.328125 104.824219 24.316406 62.964844 60.855469 C 19.886719 90.128906 6.703125 152.921875 38.742188 194.707031 Z M 105.433594 115.640625 C 104.910156 115.726562 96.574219 121.765625 96.3125 122.117188 L 92.382812 126.054688 C 91.726562 126.753906 90.984375 127.367188 90.332031 128.109375 C 90.007812 128.367188 89.714844 128.660156 89.457031 128.984375 C 89.207031 129.117188 89.046875 129.324219 88.980469 129.597656 C 88.191406 137.300781 91.421875 142.726562 92.207031 150.996094 C 95.742188 174.054688 95.832031 167.359375 111.894531 162.460938 C 115.035156 161.234375 121.976562 158.609375 124.070312 157.953125 C 128.609375 158.871094 122.0625 169.023438 118.265625 174.929688 C 82.039062 187.839844 66.238281 127.585938 84.394531 103.257812 C 96.660156 98.75 106.089844 99.230469 115.691406 114.851562 C 112.328125 115.027344 108.882812 115.289062 105.433594 115.640625 Z M 105.433594 115.640625 " fill-opacity="1" fill-rule="nonzero"/><path fill="#ffe505" d="M 102.683594 205.910156 C 84.089844 205.910156 66.9375 197.203125 54.453125 181.40625 C 46.902344 171.824219 41.492188 160.097656 38.785156 147.363281 C 35.902344 133.84375 36.121094 119.796875 39.4375 105.617188 C 40.171875 101.335938 41.253906 97.144531 42.683594 93.042969 C 44.113281 88.9375 45.871094 84.984375 47.960938 81.175781 C 50.046875 77.367188 52.433594 73.757812 55.121094 70.347656 C 57.808594 66.9375 60.757812 63.773438 63.96875 60.855469 C 76.976562 48.996094 92.90625 42.433594 108.882812 42.433594 C 121.496094 42.433594 133.453125 46.460938 144.367188 54.335938 C 158.117188 63.613281 169.421875 79.101562 175.3125 96.910156 L 175.3125 97 L 175.445312 97.523438 C 175.835938 99.1875 176.054688 100.0625 175.574219 100.804688 C 175.09375 101.550781 174.265625 101.726562 172.5625 102.074219 L 172.257812 102.074219 L 158.332031 103.648438 L 148.296875 104.742188 L 142.097656 105.488281 C 139.828125 105.75 137.46875 106.054688 135.246094 106.230469 L 135.199219 106.230469 C 133.761719 106.230469 133.324219 105.664062 132.363281 103.429688 C 126.035156 90.261719 117.085938 87.503906 110.671875 87.503906 C 102.816406 87.503906 94.476562 91.660156 87.84375 98.925781 C 80.160156 107.28125 76.320312 117.957031 77.195312 128.242188 L 77.195312 128.417969 C 76.144531 142.855469 81.210938 158.390625 90.113281 167.972656 C 95.570312 173.925781 101.984375 177.03125 108.664062 177.03125 C 115.339844 177.03125 121.363281 174.316406 127.78125 168.980469 L 128.085938 168.804688 C 130.136719 167.886719 142.316406 150.777344 141.222656 145.699219 C 141.09375 145.175781 140.832031 144.652344 139.742188 144.652344 C 137.949219 145.21875 134.503906 146.53125 130.574219 148.019531 C 123.765625 150.601562 116.082031 153.488281 113.203125 154.101562 L 113.027344 154.101562 C 110.933594 154.101562 109.84375 149.8125 107.878906 137.691406 C 107.441406 134.804688 107.003906 132.09375 106.699219 131.304688 C 106.65625 131.238281 106.640625 131.164062 106.65625 131.085938 C 106.441406 129.292969 106.09375 127.527344 105.609375 125.792969 C 104.824219 122.464844 103.949219 119.050781 104.648438 116.296875 C 104.773438 115.910156 105.035156 115.691406 105.433594 115.640625 C 115.777344 114.546875 126.210938 114.414062 134.152344 114.414062 L 145.980469 114.5 L 146.027344 114.5 L 157.636719 114.589844 C 163.832031 114.589844 168.808594 114.457031 173.347656 114.238281 L 173.4375 114.238281 C 177.84375 114.414062 178.457031 115.070312 178.324219 119.664062 C 176.839844 148.894531 175.660156 174.929688 174.613281 198.734375 C 174.613281 199.304688 174.613281 201.753906 173.4375 202.980469 C 173.039062 203.417969 172.542969 203.636719 171.953125 203.636719 L 167.5 204.335938 C 164.09375 204.859375 160.605469 205.386719 157.15625 205.734375 L 157.066406 205.734375 C 154.40625 205.734375 153.53125 201.753906 152.789062 198.253906 C 152.617188 197.1875 152.34375 196.152344 151.960938 195.144531 C 151.964844 195.097656 151.953125 195.050781 151.917969 195.015625 L 151.523438 193.308594 C 151.042969 191.296875 150.304688 188.234375 149.082031 188.234375 C 148.6875 188.234375 148.078125 188.453125 147.03125 189.414062 L 146.941406 189.414062 C 132.539062 200.398438 117.65625 205.910156 102.683594 205.910156 Z M 102.683594 205.910156 " fill-opacity="1" fill-rule="nonzero"/><path fill="#820022" d="M 157.636719 113.714844 L 146.15625 113.625 L 145.980469 113.625 L 134.152344 113.539062 L 130.792969 113.539062 C 130.4375 113.53125 130.175781 113.371094 130.007812 113.058594 C 129.933594 112.894531 129.914062 112.726562 129.949219 112.550781 C 129.980469 112.375 130.058594 112.222656 130.179688 112.09375 L 134.285156 107.457031 C 134.457031 107.261719 134.675781 107.160156 134.9375 107.152344 L 135.332031 107.152344 C 137.558594 106.976562 139.914062 106.667969 142.140625 106.40625 L 142.183594 106.40625 C 144.234375 106.1875 146.375 105.882812 148.425781 105.707031 L 158.421875 104.613281 L 169.769531 103.34375 L 169.855469 103.34375 C 170.226562 103.328125 170.488281 103.488281 170.640625 103.824219 C 170.722656 103.992188 170.75 104.171875 170.71875 104.355469 C 170.683594 104.542969 170.601562 104.699219 170.46875 104.832031 C 169.636719 105.707031 168.460938 106.84375 167.28125 108.027344 L 167.195312 108.027344 L 162.4375 111.4375 L 159.46875 113.539062 C 159.308594 113.636719 159.132812 113.695312 158.945312 113.714844 Z M 157.636719 113.714844 " fill-opacity="1" fill-rule="nonzero"/><path fill="#820022" d="M 131.710938 200.746094 C 131.539062 200.46875 131.292969 200.324219 130.96875 200.308594 L 130.617188 200.398438 C 121.410156 204.640625 112.023438 206.785156 102.683594 206.785156 C 99.53125 206.785156 96.398438 206.535156 93.289062 206.035156 C 90.175781 205.535156 87.121094 204.792969 84.128906 203.808594 C 81.132812 202.824219 78.234375 201.609375 75.429688 200.164062 C 72.628906 198.71875 69.957031 197.058594 67.417969 195.191406 L 54.277344 208.273438 C 58.03125 210.816406 62.027344 212.882812 66.269531 214.472656 C 70.511719 216.0625 74.878906 217.132812 79.375 217.679688 C 81.769531 217.945312 84.171875 218.074219 86.578125 218.074219 C 101.941406 218.074219 117.871094 212.34375 131.492188 201.886719 C 131.664062 201.75 131.773438 201.574219 131.816406 201.359375 C 131.855469 201.140625 131.820312 200.9375 131.710938 200.746094 Z M 131.710938 200.746094 " fill-opacity="1" fill-rule="nonzero"/><path fill="#820022" d="M 103.773438 164.429688 C 103.433594 164.445312 103.183594 164.300781 103.03125 163.992188 C 102.917969 163.8125 102.878906 163.621094 102.910156 163.410156 C 102.945312 163.203125 103.042969 163.03125 103.207031 162.898438 L 112.898438 155.152344 C 113.023438 155.042969 113.171875 154.972656 113.332031 154.933594 C 116.34375 154.363281 124.070312 151.433594 130.878906 148.851562 L 133.238281 147.933594 L 133.542969 147.933594 C 133.890625 147.921875 134.152344 148.066406 134.328125 148.371094 C 134.4375 148.554688 134.472656 148.75 134.429688 148.957031 C 134.386719 149.167969 134.28125 149.335938 134.109375 149.464844 L 125.03125 156.902344 C 124.882812 157.042969 124.710938 157.117188 124.507812 157.121094 L 123.984375 157.121094 L 123.765625 157.207031 C 121.671875 157.910156 114.644531 160.535156 111.632812 161.714844 L 111.585938 161.714844 C 108.664062 162.632812 106.261719 163.554688 104.082031 164.472656 Z M 103.773438 164.429688 " fill-opacity="1" fill-rule="nonzero"/><path fill="#820022" d="M 118.703125 90.085938 C 116.144531 88.960938 113.464844 88.40625 110.671875 88.421875 C 103.164062 88.421875 95.132812 92.40625 88.714844 99.316406 C 88.589844 99.453125 88.515625 99.617188 88.492188 99.800781 C 88.464844 99.984375 88.5 100.160156 88.585938 100.324219 C 88.746094 100.621094 88.992188 100.765625 89.328125 100.761719 L 89.546875 100.761719 C 91.621094 100.222656 93.730469 99.945312 95.875 99.929688 C 97.644531 99.925781 99.378906 100.167969 101.078125 100.660156 C 102.777344 101.152344 104.375 101.871094 105.871094 102.820312 C 110.105469 98.53125 114.425781 94.285156 118.703125 90.085938 Z M 118.703125 90.085938 " fill-opacity="1" fill-rule="nonzero"/><path fill="#820022" d="M 145.238281 217.679688 C 144.867188 217.675781 144.605469 217.5 144.453125 217.15625 C 144.371094 216.984375 144.347656 216.804688 144.390625 216.613281 C 144.429688 216.425781 144.523438 216.273438 144.671875 216.148438 L 155.234375 206.65625 C 155.414062 206.515625 155.617188 206.441406 155.847656 206.4375 L 156.0625 206.4375 C 156.394531 206.523438 156.726562 206.566406 157.066406 206.566406 L 157.242188 206.566406 C 160.734375 206.21875 164.226562 205.691406 167.628906 205.121094 L 167.894531 205.121094 C 168.261719 205.109375 168.523438 205.269531 168.679688 205.605469 C 168.761719 205.773438 168.785156 205.949219 168.753906 206.136719 C 168.71875 206.320312 168.636719 206.480469 168.503906 206.609375 C 167.585938 207.53125 166.410156 208.753906 165.144531 209.9375 L 165.054688 210.023438 L 157.15625 215.625 L 156.851562 215.757812 C 153.183594 216.675781 149.210938 217.15625 145.414062 217.636719 L 145.238281 217.636719 Z M 145.238281 217.679688 " fill-opacity="1" fill-rule="nonzero"/><path fill="#000000" d="M 141.441406 220.789062 C 137.078125 220.789062 135.988281 215.320312 134.894531 210.066406 C 134.503906 208.011719 133.933594 205.253906 133.238281 203.855469 C 119.140625 214.75 102.597656 220.699219 86.578125 220.699219 C 84.066406 220.710938 81.5625 220.5625 79.070312 220.261719 C 62.570312 218.25 48.125 209.761719 37.34375 195.757812 C 22.328125 176.199219 16.347656 151.300781 20.453125 125.617188 C 24.816406 98.574219 39.917969 74.464844 61.875 59.457031 C 71.390625 51.183594 81.777344 45.628906 92.6875 42.871094 C 97.988281 41.425781 103.386719 40.699219 108.882812 40.683594 C 120.449219 40.683594 131.492188 43.964844 141.703125 50.441406 C 156.109375 59.0625 167.847656 73.238281 174.746094 90.347656 C 175.574219 92.359375 176.316406 94.417969 176.972656 96.386719 C 177.007812 96.4375 177.023438 96.496094 177.015625 96.5625 L 177.144531 97.085938 C 177.539062 98.53125 177.800781 99.667969 177.539062 100.71875 C 177.40625 101.285156 177.144531 101.78125 176.753906 102.207031 L 176.710938 102.207031 C 176.664062 102.292969 176.578125 102.335938 176.492188 102.425781 L 176.449219 102.425781 L 176.316406 102.511719 L 173.871094 105.007812 L 173.390625 105.445312 L 169.070312 109.820312 L 165.097656 112.664062 L 174.351562 112.664062 L 175.09375 112.75 L 175.226562 112.75 C 178.105469 113.101562 179.414062 114.152344 179.894531 116.515625 C 180.058594 117.617188 180.117188 118.726562 180.070312 119.839844 C 179.285156 135.199219 178.542969 151.039062 177.714844 168.367188 C 177.234375 178.914062 176.796875 189.019531 176.359375 198.777344 C 176.4375 199.609375 176.367188 200.425781 176.140625 201.230469 C 175.953125 202.398438 175.457031 203.417969 174.65625 204.292969 L 174.441406 204.511719 C 173.890625 205.199219 173.265625 205.8125 172.5625 206.347656 L 171.910156 207.046875 C 170.292969 208.710938 168.589844 210.417969 166.890625 212.035156 L 166.714844 212.210938 L 159.382812 217.289062 L 159.382812 217.417969 C 159.410156 217.539062 159.386719 217.652344 159.320312 217.753906 C 159.25 217.859375 159.15625 217.921875 159.03125 217.945312 L 157.765625 218.25 C 153.839844 219.300781 149.691406 219.78125 145.675781 220.261719 L 141.703125 220.789062 Z M 51.003906 72.976562 C 47.425781 76.558594 44.144531 80.398438 41.167969 84.5 C 38.1875 88.601562 35.546875 92.910156 33.246094 97.425781 C 30.945312 101.945312 29.011719 106.613281 27.445312 111.4375 C 25.878906 116.261719 24.695312 121.175781 23.902344 126.183594 C 19.929688 150.863281 25.691406 174.84375 40.136719 193.613281 C 50.308594 206.875 63.925781 214.878906 79.507812 216.804688 C 81.855469 217.070312 84.214844 217.199219 86.578125 217.199219 C 101.8125 217.199219 117.480469 211.554688 130.96875 201.183594 C 121.625 205.472656 112.15625 207.660156 102.683594 207.660156 C 83.523438 207.660156 65.933594 198.734375 53.058594 182.457031 C 45.332031 172.699219 39.832031 160.710938 37.082031 147.757812 C 34.15625 133.929688 34.375 119.664062 37.738281 105.269531 C 38.722656 99.457031 40.335938 93.828125 42.574219 88.378906 C 44.8125 82.929688 47.625 77.796875 51.003906 72.976562 Z M 145.238281 216.804688 L 145.285156 216.804688 C 149.082031 216.324219 153.007812 215.84375 156.675781 214.96875 L 164.574219 209.367188 L 167.894531 206.042969 L 167.761719 206.042969 C 164.355469 206.566406 160.820312 207.136719 157.332031 207.484375 L 157.066406 207.484375 C 156.652344 207.496094 156.242188 207.4375 155.847656 207.3125 Z M 135.988281 201.667969 C 137.164062 203.460938 137.6875 206.21875 138.34375 209.367188 C 139 212.519531 139.476562 214.96875 140.394531 216.457031 L 153.140625 205.035156 C 152.09375 203.242188 151.570312 200.789062 151.089844 198.648438 C 150.929688 197.695312 150.695312 196.761719 150.390625 195.847656 C 150.332031 195.71875 150.289062 195.589844 150.257812 195.453125 C 150.082031 194.890625 149.9375 194.324219 149.824219 193.746094 C 149.691406 193.175781 149.429688 192.039062 149.125 191.078125 Z M 108.097656 44.445312 C 102.917969 44.464844 97.824219 45.132812 92.820312 46.460938 C 82.867188 49.257812 73.308594 54.6875 65.105469 62.167969 C 61.972656 65.027344 59.09375 68.125 56.472656 71.457031 C 53.851562 74.792969 51.523438 78.324219 49.484375 82.046875 C 47.449219 85.765625 45.726562 89.632812 44.328125 93.640625 C 42.925781 97.644531 41.867188 101.742188 41.140625 105.925781 L 41.140625 106.011719 C 37.910156 119.925781 37.691406 133.710938 40.488281 147.011719 C 43.105469 159.441406 48.429688 170.949219 55.808594 180.3125 C 67.984375 195.671875 84.613281 204.160156 102.683594 204.160156 C 117.261719 204.160156 131.796875 198.777344 145.894531 188.101562 C 147.03125 187.007812 148.078125 186.480469 149.082031 186.480469 C 151.699219 186.480469 152.527344 190.070312 153.226562 192.914062 C 153.359375 193.484375 153.488281 194.007812 153.578125 194.445312 C 154.015625 195.5625 154.320312 196.714844 154.492188 197.902344 C 154.972656 200.179688 155.800781 203.941406 157.023438 203.984375 C 160.429688 203.636719 163.878906 203.109375 167.238281 202.585938 L 167.324219 202.585938 L 171.734375 201.929688 L 171.953125 201.929688 C 172.285156 201.4375 172.546875 200.914062 172.738281 200.351562 C 172.828125 199.875 172.871094 199.394531 172.867188 198.910156 L 172.867188 198.734375 C 173.4375 185.476562 174.179688 169.636719 174.964844 152.394531 L 174.964844 151.214844 C 175.488281 140.273438 176.011719 129.949219 176.535156 119.621094 C 176.550781 118.816406 176.523438 118.015625 176.449219 117.214844 C 176.425781 116.964844 176.355469 116.730469 176.230469 116.515625 L 175.921875 116.339844 L 175.660156 116.339844 L 174.132812 116.164062 L 172.039062 116.164062 L 170.03125 116.253906 L 155.933594 116.253906 L 146.15625 116.164062 L 145.9375 116.164062 L 134.152344 116.078125 C 129.394531 116.078125 123.023438 116.121094 116.171875 116.472656 L 115.777344 116.472656 L 110.757812 116.777344 L 110.496094 116.777344 L 108.402344 116.953125 L 108.097656 116.953125 L 106.261719 117.128906 C 105.914062 119.402344 106.613281 122.335938 107.308594 125.179688 C 107.792969 126.976562 108.15625 128.800781 108.402344 130.648438 C 108.707031 131.609375 109.054688 133.796875 109.625 137.253906 C 110.539062 142.855469 111.28125 147.144531 112.066406 149.769531 C 112.589844 151.390625 112.941406 151.957031 113.117188 152.132812 C 116.082031 151.476562 123.417969 148.675781 129.917969 146.226562 C 133.933594 144.695312 137.382812 143.382812 139.214844 142.8125 L 139.433594 142.726562 L 139.828125 142.726562 C 141.484375 142.769531 142.621094 143.644531 142.925781 145.175781 C 143.492188 147.886719 141.617188 152.703125 137.296875 159.570312 C 135.636719 162.195312 130.835938 169.285156 128.785156 170.25 C 125.921875 172.652344 122.792969 174.632812 119.402344 176.199219 L 119.269531 176.199219 L 119.007812 176.285156 C 115.714844 177.757812 112.265625 178.515625 108.664062 178.5625 C 104.726562 178.539062 101.015625 177.605469 97.535156 175.761719 C 93.125 173.660156 89.195312 170.25 85.792969 165.609375 C 82.386719 160.972656 79.550781 155.066406 77.71875 148.589844 C 76.96875 146.03125 76.386719 143.433594 75.972656 140.800781 C 75.585938 138.363281 75.324219 135.914062 75.1875 133.449219 C 75.054688 130.457031 75.097656 127.464844 75.316406 124.476562 C 75.410156 121.074219 75.933594 117.734375 76.886719 114.464844 C 77.839844 111.195312 79.195312 108.101562 80.949219 105.179688 C 81.003906 105.039062 81.078125 104.910156 81.164062 104.789062 L 81.253906 104.65625 C 81.351562 104.441406 81.46875 104.238281 81.601562 104.042969 L 82.167969 103.167969 C 83.476562 101.1875 84.929688 99.320312 86.535156 97.566406 C 93.519531 89.953125 102.335938 85.578125 110.671875 85.578125 C 117.566406 85.578125 127.214844 88.511719 133.933594 102.511719 L 133.980469 102.511719 C 134.722656 104.261719 134.808594 104.261719 135.15625 104.261719 C 137.296875 104.085938 139.566406 103.78125 141.792969 103.519531 L 141.878906 103.519531 L 148.164062 102.773438 L 157.941406 101.722656 L 158.117188 101.722656 L 172.039062 100.148438 L 172.257812 100.148438 C 173.085938 99.972656 173.960938 99.800781 174.179688 99.625 C 174.09375 98.988281 173.960938 98.359375 173.785156 97.742188 C 173.085938 95.597656 172.300781 93.410156 171.429688 91.222656 C 165.1875 76.433594 155.234375 63.785156 143.40625 55.824219 L 143.363281 55.824219 C 142.273438 55.035156 141.136719 54.246094 139.871094 53.460938 C 134.988281 50.535156 129.808594 48.304688 124.332031 46.765625 C 119.023438 45.257812 113.613281 44.484375 108.097656 44.445312 Z M 85.488281 104.699219 C 85.3125 105.007812 85.09375 105.3125 84.875 105.617188 L 84.394531 106.40625 L 84.003906 107.0625 L 83.828125 107.371094 C 81.121094 112.140625 79.417969 118.175781 78.808594 124.871094 C 78.808594 125.964844 78.851562 127.105469 78.941406 128.152344 L 78.941406 128.589844 C 78.667969 132.503906 78.828125 136.398438 79.417969 140.273438 C 79.898438 143.425781 80.628906 146.515625 81.601562 149.550781 C 83.785156 156.332031 87.1875 162.328125 91.378906 166.835938 C 93.792969 169.484375 96.601562 171.617188 99.804688 173.222656 C 102.558594 174.425781 105.441406 175.023438 108.445312 175.019531 C 111.425781 174.984375 114.320312 174.472656 117.132812 173.488281 C 119.050781 170.511719 124.332031 162.152344 123.894531 159.835938 C 121.277344 160.753906 115.339844 162.984375 112.503906 164.078125 L 112.417969 164.078125 C 109.644531 164.941406 106.921875 165.949219 104.253906 167.097656 C 101.722656 168.148438 99.714844 169.023438 98.011719 169.023438 C 97.253906 169.015625 96.539062 168.828125 95.875 168.453125 C 93.125 166.921875 92.207031 162.503906 90.460938 151.214844 L 90.460938 151.125 C 90.132812 148.148438 89.566406 145.214844 88.761719 142.332031 C 87.710938 138.175781 86.753906 134.234375 87.234375 129.378906 L 87.234375 129.203125 C 87.355469 128.570312 87.675781 128.058594 88.191406 127.671875 C 88.453125 127.367188 88.761719 127.105469 89.066406 126.796875 L 90.246094 125.617188 L 91.03125 124.785156 L 91.074219 124.785156 L 94.085938 121.808594 L 95 120.847656 L 95.089844 120.847656 C 95.570312 120.410156 97.140625 119.226562 99.714844 117.390625 C 101.59375 116.035156 102.902344 115.113281 103.6875 114.632812 C 104.039062 114.308594 104.445312 114.089844 104.910156 113.976562 L 105.171875 113.976562 L 107.136719 113.800781 L 112.546875 113.363281 C 107.441406 105.925781 102.246094 102.601562 95.875 102.601562 C 92.992188 102.511719 89.675781 103.210938 85.488281 104.699219 Z M 127.125 158.609375 C 128 161.320312 125.949219 165.652344 123.285156 170.160156 C 124.457031 169.382812 125.574219 168.535156 126.644531 167.621094 L 127.34375 167.183594 C 129.003906 166.089844 137.078125 154.757812 139.085938 148.71875 Z M 90.679688 130.296875 C 90.375 134.324219 91.25 137.824219 92.164062 141.5 C 92.988281 144.546875 93.582031 147.640625 93.953125 150.777344 C 94.914062 157.253906 95.789062 162.460938 96.878906 164.605469 L 110.058594 154.058594 C 108.574219 151.828125 107.703125 147.320312 106.175781 137.957031 C 105.78125 135.550781 105.300781 132.53125 105.039062 131.917969 C 104.976562 131.6875 104.933594 131.453125 104.910156 131.21875 C 104.722656 129.511719 104.386719 127.832031 103.90625 126.183594 C 103.382812 123.996094 102.816406 121.722656 102.683594 119.535156 C 100.414062 121.152344 97.96875 122.945312 97.535156 123.339844 L 96.617188 124.257812 L 93.605469 127.277344 L 92.730469 128.152344 C 92.347656 128.484375 92 128.851562 91.683594 129.246094 L 91.597656 129.335938 L 91.554688 129.335938 L 91.421875 129.421875 L 90.898438 129.949219 L 90.722656 130.167969 Z M 103.773438 163.554688 C 105.828125 162.722656 108.269531 161.714844 111.324219 160.796875 C 114.382812 159.878906 121.320312 156.988281 123.503906 156.289062 L 123.851562 156.160156 L 124.070312 156.160156 L 124.421875 156.246094 L 124.507812 156.246094 L 133.542969 148.761719 L 131.183594 149.640625 C 124.332031 152.265625 116.5625 155.195312 113.550781 155.808594 L 113.464844 155.808594 Z M 95.875 99.054688 C 103.90625 99.054688 110.539062 103.519531 116.605469 113.058594 C 119.617188 112.882812 122.71875 112.796875 126.078125 112.75 L 131.839844 106.273438 C 131.410156 105.613281 131.0625 104.914062 130.792969 104.175781 C 124.855469 91.878906 116.5625 89.296875 110.671875 89.296875 C 103.382812 89.296875 95.613281 93.148438 89.328125 99.886719 C 91.476562 99.347656 93.660156 99.070312 95.875 99.054688 Z M 134.152344 112.664062 L 145.980469 112.75 L 146.199219 112.75 L 157.636719 112.839844 L 158.945312 112.839844 L 161.914062 110.738281 L 166.671875 107.324219 L 169.855469 104.175781 L 158.507812 105.445312 L 148.511719 106.539062 C 146.460938 106.714844 144.367188 106.976562 142.316406 107.238281 L 142.273438 107.238281 C 140.003906 107.542969 137.644531 107.851562 135.417969 108.027344 L 134.9375 108.027344 L 130.792969 112.664062 Z M 134.152344 112.664062 " fill-opacity="1" fill-rule="nonzero"/><path stroke-linecap="butt" transform="matrix(0.330954, -0.0214822, 0.0214822, 0.330954, -13.601738, 254.232285)" fill="none" stroke-linejoin="miter" d="M 309.789289 42.25719 L 274.094409 174.128557 L 225.714025 176.854275 L 181.824955 49.471964 L 228.052739 45.178357 L 246.787617 119.313383 L 264.927017 39.333374 Z M 421.662924 100.189201 C 421.661081 105.854522 421.27061 111.50642 420.489985 117.168402 C 409.372907 117.874955 398.320866 119.034244 387.323635 120.621998 C 376.337394 122.222269 365.352679 123.799032 354.357736 125.351526 C 356.048061 130.04081 358.697262 133.777276 362.31633 136.573441 C 365.923643 139.368844 370.223461 140.76923 375.240052 140.764373 C 377.836498 140.767667 380.677313 140.279293 383.774249 139.300016 C 386.858669 138.331728 389.92385 137.114329 392.981545 135.648581 C 396.03924 134.182833 398.96276 132.602149 401.763095 130.919044 C 404.564192 129.224187 406.965219 127.692208 408.977164 126.335626 L 404.297335 170.611794 C 401.763063 172.560032 399.011268 174.222681 396.054467 175.588751 C 393.097666 176.954821 390.028361 178.053922 386.845789 178.897808 C 383.6507 179.752685 380.435609 180.370203 377.188 180.761354 C 373.929401 181.139988 370.752766 181.346898 367.625124 181.344533 C 361.192775 181.340114 355.301064 180.461957 349.973496 178.711587 C 344.646692 176.949463 339.813058 174.499369 335.485874 171.338558 C 331.169681 168.190265 327.375052 164.46207 324.123968 160.179006 C 320.873647 155.884189 318.179699 151.200578 316.030368 146.12741 C 313.881037 141.054242 312.257705 135.696536 311.149381 130.041775 C 310.053573 124.376023 309.492012 118.662329 309.502248 112.867719 C 309.493244 106.823998 310.050696 100.781636 311.15186 94.727355 C 312.264014 88.685591 313.939883 82.869264 316.180228 77.266624 C 318.41981 71.675736 321.246922 66.488879 324.660802 61.717804 C 328.075445 56.934976 332.064649 52.755987 336.616661 49.180074 C 341.168672 45.604161 346.319061 42.810678 352.067827 40.799624 C 357.82911 38.77758 364.185265 37.773798 371.137819 37.764772 C 376.920675 37.774245 382.204257 38.565716 386.98704 40.162694 C 391.770585 41.747919 396.029515 43.960058 399.764591 46.78736 C 403.498904 49.626415 406.750728 52.988892 409.5193 56.886546 C 412.276118 60.783436 414.559601 65.062708 416.347006 69.711081 C 418.134411 74.359454 419.467864 79.273436 420.348129 84.441274 C 421.21664 89.608349 421.66615 94.866256 421.662924 100.189201 Z M 382.652602 95.119393 C 382.652557 93.301727 382.454991 91.435832 382.060668 89.509953 C 381.677335 87.596591 381.034973 85.855263 380.156325 84.299249 C 379.278439 82.731481 378.133895 81.453282 376.700711 80.43962 C 375.266764 79.437711 373.481904 78.932357 371.333616 78.934548 C 368.737169 78.931254 366.437324 79.631787 364.458351 81.025919 C 362.479377 82.420051 360.771353 84.18586 359.336567 86.288086 C 357.901019 88.402066 356.736873 90.698905 355.821385 93.165323 C 354.916888 95.644257 354.23845 97.913608 353.77279 99.996119 L 382.643039 97.266918 Z M 542.308927 84.980882 C 542.310732 90.044487 541.869863 94.654449 540.988608 98.77551 C 540.118345 102.909086 538.739773 106.690987 536.851368 110.14472 C 534.963725 113.5867 532.526411 116.768743 529.538663 119.702604 C 526.539924 122.623948 522.935344 125.423346 518.70218 128.087518 L 541.925455 169.441875 L 498.027406 178.029559 L 483.008348 136.475951 L 470.920762 136.859842 L 469.159974 177.442299 L 427.224387 177.434947 C 427.548689 162.619625 427.858185 147.850553 428.150587 133.162993 C 428.443753 118.46368 428.775993 103.707888 429.172341 88.873636 C 429.303428 81.399042 429.430699 73.983215 429.565147 66.638672 C 429.687841 59.293366 429.956918 51.874941 430.33559 44.404615 C 434.894823 42.717651 439.376978 41.308955 443.804036 40.203562 C 448.219342 39.097405 452.66564 38.241124 457.120186 37.621438 C 461.574732 37.001751 466.08683 36.586452 470.669758 36.352795 C 475.251924 36.130891 479.957274 36.011408 484.760776 36.016326 C 492.173242 36.013546 499.342268 37.033629 506.267092 39.088328 C 513.19268 41.131274 519.319362 44.208238 524.659657 48.308232 C 529.988962 52.395709 534.260785 57.500421 537.486881 63.623131 C 540.701986 69.733324 542.305671 76.848402 542.308927 84.980882 Z M 498.61284 88.093279 C 498.612772 85.366781 498.244079 82.864219 497.495006 80.584829 C 496.74517 78.317193 495.645638 76.345539 494.183131 74.692611 C 492.709633 73.027167 490.893614 71.728989 488.712331 70.784798 C 486.542802 69.841369 483.988626 69.3687 481.061556 69.367551 C 479.76257 69.377658 478.495029 69.448821 477.256646 69.6163 C 476.019026 69.772026 474.822316 70.024832 473.644536 70.349684 L 472.080702 106.625026 L 474.429562 106.624052 C 477.226581 106.628562 480.070757 106.270239 482.961328 105.560838 C 485.852661 104.839684 488.450301 103.733573 490.766002 102.243268 C 493.070711 100.740446 494.953965 98.820769 496.415762 96.484236 C 497.889313 94.148466 498.613837 91.350972 498.61284 88.093279 Z M 649.014815 129.063017 C 649.014732 137.974278 647.465146 145.663675 644.37781 152.131971 C 641.290474 158.600268 637.061192 163.932171 631.701718 168.128443 C 626.330491 172.323951 620.063378 175.410841 612.876872 177.387586 C 605.689604 179.376084 597.965467 180.361888 589.71469 180.369268 C 586.528281 180.363089 583.026197 179.94692 579.221718 179.098018 C 575.428992 178.249879 571.566961 177.19659 567.67165 175.928687 C 563.764584 174.660021 560.01718 173.295492 556.405931 171.833573 C 552.794682 170.371655 549.591753 168.983452 546.796381 167.680719 L 551.083306 129.457593 C 556.616521 132.767505 562.743801 135.289767 569.477661 137.013389 C 576.199768 138.736249 582.824773 139.591187 589.327643 139.600183 C 590.555345 139.597253 592.057192 139.553101 593.81044 139.454451 C 595.563687 139.3558 597.235114 139.062991 598.836473 138.576785 C 600.426078 138.089816 601.772365 137.350994 602.874571 136.372071 C 603.987768 135.405664 604.53923 134.001494 604.539185 132.183828 C 604.537017 130.944373 604.145005 129.892066 603.363912 129.015155 C 602.582819 128.138244 601.57872 127.423903 600.339861 126.871368 C 599.112756 126.319597 597.711946 125.898186 596.149949 125.596146 C 594.58719 125.305859 593.066104 125.100898 591.563947 124.967984 C 590.073544 124.835833 588.673354 124.768552 587.37513 124.766906 C 586.076144 124.777012 585.02627 124.76788 584.246725 124.776295 C 578.664442 124.768038 573.575018 123.894746 568.991735 122.133672 C 564.407689 120.384352 560.473423 117.898211 557.188937 114.67525 C 553.904452 111.452288 551.348206 107.556614 549.532716 102.977236 C 547.706236 98.385341 546.797124 93.298252 546.79439 87.703452 C 546.796641 80.031647 548.3406 73.156291 551.426267 67.077385 C 554.523687 60.999242 558.64826 55.825785 563.82273 51.570293 C 568.985446 47.314037 574.922389 44.040474 581.620279 41.772347 C 588.318932 39.492467 595.238182 38.359994 602.391308 38.352184 C 605.577717 38.358363 608.863804 38.465436 612.248044 38.69691 C 615.62053 38.927621 618.993325 39.335398 622.342924 39.918713 C 625.680769 40.501266 628.949165 41.244553 632.135597 42.159565 C 635.322029 43.074576 638.352924 44.203749 641.215002 45.569827 L 637.499299 85.175573 C 633.088051 83.67353 628.447692 82.428084 623.603256 81.417254 C 618.758821 80.406424 614.034375 79.910912 609.419691 79.906448 C 608.569626 79.910285 607.482965 79.922371 606.147193 79.953696 C 604.81142 79.985021 603.412303 80.083052 601.949841 80.247789 C 600.487378 80.412527 599.008585 80.647022 597.511935 80.974783 C 596.015285 81.302543 594.68807 81.747529 593.519302 82.297223 C 592.350533 82.846917 591.406153 83.576418 590.686161 84.485727 C 589.977924 85.395798 589.648395 86.472088 589.710094 87.703605 C 589.782329 89.136457 590.312331 90.244932 591.324369 91.018804 C 592.323891 91.803666 593.632508 92.372531 595.22595 92.735628 C 596.820156 93.086971 598.566847 93.271167 600.491056 93.266234 C 602.402749 93.272292 604.306504 93.21882 606.201556 93.117571 C 608.084092 93.027313 609.837339 92.928662 611.460536 92.833373 C 613.084495 92.72633 614.418742 92.718512 615.465565 92.774658 C 620.661366 93.100115 625.34614 94.206808 629.508133 96.093975 C 633.670127 97.981141 637.189969 100.487594 640.091931 103.603105 C 642.981376 106.729606 645.194935 110.449598 646.720092 114.77407 C 648.24525 119.098543 649.010412 123.857607 649.014815 129.063017 Z M 706.171707 41.677509 L 699.343353 174.513773 L 658.176984 176.657286 L 654.286043 44.399956 Z M 834.620129 104.285305 C 834.625008 110.210729 833.936123 115.914075 832.576216 121.408623 C 831.204556 126.902408 829.241551 132.050931 826.674684 136.865182 C 824.107818 141.679433 820.97769 146.079427 817.307046 150.078443 C 813.636403 154.077459 809.506444 157.515525 804.918696 160.369136 C 800.341939 163.235263 795.346468 165.460455 789.955027 167.057991 C 784.552596 168.643011 778.835396 169.440404 772.780685 169.436892 C 766.937536 169.447112 761.356302 168.695334 756.059727 167.194839 C 750.76239 165.706097 745.800087 163.601741 741.183047 160.906039 C 736.566006 158.210337 732.38673 154.952901 728.655446 151.158 C 724.913171 147.350582 721.729557 143.11911 719.092087 138.474574 C 716.454616 133.830038 714.40649 128.834257 712.946943 123.498985 C 711.486634 118.175467 710.749843 112.61564 710.748325 106.820268 C 710.749406 101.1667 711.439364 95.628666 712.795456 90.192885 C 714.162539 84.769621 716.135771 79.645368 718.702638 74.831116 C 721.269505 70.016865 724.376888 65.603592 728.01456 61.567027 C 731.651469 57.542216 735.737466 54.054083 740.258507 51.137128 C 744.780311 48.208419 749.673053 45.929347 754.936731 44.299912 C 760.199647 42.68223 765.764814 41.863165 771.618953 41.865461 C 781.037903 41.86309 789.641473 43.330379 797.40692 46.25405 C 805.184121 49.178484 811.817299 53.362399 817.307216 58.79404 C 822.797897 64.213928 827.057393 70.781412 830.085704 78.496492 C 833.103024 86.199056 834.622335 94.795835 834.620129 104.285305 Z M 791.315556 106.821162 C 791.320065 104.024144 790.905574 101.317958 790.097114 98.680623 C 789.288655 96.043289 788.094476 93.711401 786.53961 91.662979 C 784.97299 89.613795 783.038818 87.953857 780.737092 86.683167 C 778.423613 85.411714 775.773573 84.779382 772.786973 84.786173 C 769.730615 84.776633 766.991767 85.33064 764.594699 86.437967 C 762.185877 87.544532 760.116237 89.062611 758.398295 90.981216 C 756.6686 92.899058 755.35471 95.138964 754.444873 97.700173 C 753.534273 100.273135 753.086182 102.994149 753.077858 105.849935 C 753.077926 108.576433 753.466622 111.316353 754.257224 114.046953 C 755.036074 116.776789 756.197591 119.248193 757.766046 121.450935 C 759.321985 123.664669 761.259519 125.454658 763.566894 126.820139 C 765.87427 128.18562 768.556519 128.867254 771.61364 128.865041 C 774.670761 128.862827 777.41266 128.261806 779.851092 127.06274 C 782.289524 125.863673 784.354277 124.239049 786.04535 122.188868 C 787.736424 120.138686 789.034436 117.779719 789.951139 115.112729 C 790.85609 112.444976 791.318222 109.689465 791.315556 106.821162 Z M 962.487888 129.65235 C 962.483491 136.993532 962.401398 144.258852 962.241608 151.448311 C 962.082581 158.626016 961.836701 165.868902 961.518013 173.142471 L 905.327742 172.174438 C 907.278836 160.663324 908.969064 149.170687 910.41018 137.697288 C 911.839543 126.223127 912.544767 114.631143 912.54936 102.922864 C 912.545523 102.072799 912.515724 100.713519 912.448972 98.832509 C 912.382984 96.939746 912.261732 94.807335 912.061712 92.433751 C 911.873445 90.060931 911.594964 87.623239 911.238024 85.12144 C 910.881084 82.619641 910.392114 80.333528 909.771876 78.251349 C 909.151638 76.16917 908.401206 74.456236 907.531569 73.125064 C 906.650179 71.793129 905.596014 71.12275 904.356559 71.124918 C 902.149503 71.123294 900.277361 71.780771 898.753411 73.074605 C 897.216946 74.37943 895.95143 76.055933 894.94511 78.10335 C 893.93879 80.150767 893.14129 82.435995 892.551086 84.982543 C 891.973398 87.518099 891.537514 90.051057 891.243435 92.581417 C 890.948593 95.12353 890.746707 97.506435 890.659757 99.755164 C 890.561816 101.991377 890.513322 103.829498 890.50252 105.268763 C 890.181036 116.767625 889.922897 128.19978 889.729629 139.541723 C 889.535598 150.895419 889.275933 162.351081 888.949109 173.932217 L 839.202102 176.073502 C 840.503265 153.118501 841.760012 130.302254 842.962116 107.60049 C 844.163457 84.910479 845.125604 62.086912 845.836041 39.140779 L 891.878412 36.794436 L 891.479488 52.395716 C 893.298778 50.188615 895.274987 48.109729 897.384608 46.157534 C 899.494229 44.205338 901.750852 42.534154 904.166993 41.132989 C 906.570618 39.742815 909.121244 38.633653 911.818109 37.817254 C 914.514974 37.000856 917.362201 36.595519 920.348039 36.600482 C 925.883309 36.605687 930.722857 37.509972 934.889428 39.326618 C 939.043482 41.154254 942.625144 43.617507 945.60938 46.738359 C 948.605369 49.859973 951.104064 53.551261 953.128971 57.813748 C 955.142124 62.075473 956.771847 66.607384 958.005622 71.420472 C 959.239397 76.23356 960.176594 81.251654 960.828202 86.48727 C 961.479809 91.722887 961.924432 96.87425 962.149553 101.95235 C 962.375438 107.018697 962.493705 111.92462 962.491839 116.681108 C 962.490736 121.425843 962.493591 125.745927 962.487888 129.65235 Z M 962.487888 129.65235 " stroke="#000000" stroke-width="52.435688" stroke-opacity="1" stroke-miterlimit="4"/><g fill="#9165e7" fill-opacity="1"><g transform="translate(51.516607, 309.495806)"><g><path d="M 38.3125 -47.9375 L 29.328125 -3.53125 L 13.375 -1.59375 L -3.875 -42.78125 L 11.328125 -45.203125 L 19.109375 -21.078125 L 23.40625 -47.953125 Z M 38.3125 -47.9375 "/></g></g><g transform="translate(92.123994, 306.859978)"><g><path d="M 35.984375 -28.515625 C 36.097656 -26.648438 36.085938 -24.773438 35.953125 -22.890625 C 32.285156 -22.410156 28.648438 -21.785156 25.046875 -21.015625 C 21.441406 -20.253906 17.84375 -19.503906 14.25 -18.765625 C 14.90625 -17.242188 15.859375 -16.054688 17.109375 -15.203125 C 18.359375 -14.359375 19.816406 -13.992188 21.484375 -14.109375 C 22.335938 -14.160156 23.265625 -14.378906 24.265625 -14.765625 C 25.265625 -15.160156 26.253906 -15.628906 27.234375 -16.171875 C 28.222656 -16.722656 29.160156 -17.304688 30.046875 -17.921875 C 30.941406 -18.546875 31.707031 -19.109375 32.34375 -19.609375 L 31.75 -4.859375 C 30.945312 -4.148438 30.066406 -3.535156 29.109375 -3.015625 C 28.160156 -2.503906 27.171875 -2.070312 26.140625 -1.71875 C 25.117188 -1.375 24.066406 -1.101562 22.984375 -0.90625 C 21.910156 -0.707031 20.859375 -0.570312 19.828125 -0.5 C 17.703125 -0.363281 15.738281 -0.53125 13.9375 -1 C 12.132812 -1.46875 10.484375 -2.175781 8.984375 -3.125 C 7.484375 -4.070312 6.144531 -5.222656 4.96875 -6.578125 C 3.800781 -7.929688 2.8125 -9.421875 2 -11.046875 C 1.1875 -12.679688 0.535156 -14.421875 0.046875 -16.265625 C -0.441406 -18.109375 -0.75 -19.992188 -0.875 -21.921875 C -1 -23.921875 -0.941406 -25.929688 -0.703125 -27.953125 C -0.460938 -29.984375 -0.0351562 -31.945312 0.578125 -33.84375 C 1.191406 -35.738281 2.015625 -37.515625 3.046875 -39.171875 C 4.078125 -40.828125 5.304688 -42.296875 6.734375 -43.578125 C 8.160156 -44.859375 9.804688 -45.894531 11.671875 -46.6875 C 13.535156 -47.488281 15.617188 -47.960938 17.921875 -48.109375 C 19.835938 -48.234375 21.597656 -48.082031 23.203125 -47.65625 C 24.816406 -47.226562 26.273438 -46.582031 27.578125 -45.71875 C 28.878906 -44.863281 30.023438 -43.820312 31.015625 -42.59375 C 32.015625 -41.363281 32.859375 -40 33.546875 -38.5 C 34.242188 -37 34.796875 -35.398438 35.203125 -33.703125 C 35.609375 -32.015625 35.867188 -30.285156 35.984375 -28.515625 Z M 22.96875 -29.359375 C 22.925781 -29.960938 22.816406 -30.578125 22.640625 -31.203125 C 22.472656 -31.835938 22.226562 -32.40625 21.90625 -32.90625 C 21.582031 -33.40625 21.171875 -33.804688 20.671875 -34.109375 C 20.171875 -34.410156 19.566406 -34.535156 18.859375 -34.484375 C 17.992188 -34.429688 17.25 -34.148438 16.625 -33.640625 C 16.007812 -33.140625 15.488281 -32.523438 15.0625 -31.796875 C 14.632812 -31.066406 14.296875 -30.28125 14.046875 -29.4375 C 13.796875 -28.59375 13.613281 -27.820312 13.5 -27.125 L 23.015625 -28.65625 Z M 22.96875 -29.359375 "/></g></g><g transform="translate(130.245874, 304.385484)"><g><path d="M 37.46875 -33.6875 C 37.570312 -32 37.519531 -30.460938 37.3125 -29.078125 C 37.113281 -27.691406 36.738281 -26.410156 36.1875 -25.234375 C 35.632812 -24.054688 34.894531 -22.953125 33.96875 -21.921875 C 33.039062 -20.890625 31.910156 -19.890625 30.578125 -18.921875 L 39.15625 -5.71875 L 24.8125 -1.9375 L 18.9375 -15.359375 L 14.953125 -14.96875 L 15.234375 -1.5 L 1.359375 -0.609375 C 1.140625 -5.515625 0.921875 -10.40625 0.703125 -15.28125 C 0.492188 -20.15625 0.289062 -25.046875 0.09375 -29.953125 C -0.0078125 -32.429688 -0.117188 -34.882812 -0.234375 -37.3125 C -0.359375 -39.75 -0.4375 -42.210938 -0.46875 -44.703125 C 0.988281 -45.359375 2.441406 -45.914062 3.890625 -46.375 C 5.335938 -46.84375 6.785156 -47.226562 8.234375 -47.53125 C 9.691406 -47.832031 11.175781 -48.066406 12.6875 -48.234375 C 14.207031 -48.410156 15.765625 -48.550781 17.359375 -48.65625 C 19.816406 -48.8125 22.210938 -48.625 24.546875 -48.09375 C 26.890625 -47.570312 28.984375 -46.6875 30.828125 -45.4375 C 32.679688 -44.195312 34.207031 -42.597656 35.40625 -40.640625 C 36.601562 -38.691406 37.289062 -36.375 37.46875 -33.6875 Z M 23.0625 -31.71875 C 23 -32.613281 22.820312 -33.425781 22.53125 -34.15625 C 22.238281 -34.894531 21.832031 -35.523438 21.3125 -36.046875 C 20.789062 -36.566406 20.15625 -36.957031 19.40625 -37.21875 C 18.664062 -37.488281 17.8125 -37.59375 16.84375 -37.53125 C 16.40625 -37.5 15.988281 -37.441406 15.59375 -37.359375 C 15.195312 -37.285156 14.804688 -37.179688 14.421875 -37.046875 L 14.6875 -25 L 15.46875 -25.0625 C 16.394531 -25.113281 17.328125 -25.289062 18.265625 -25.59375 C 19.203125 -25.894531 20.035156 -26.316406 20.765625 -26.859375 C 21.492188 -27.398438 22.078125 -28.070312 22.515625 -28.875 C 22.953125 -29.6875 23.132812 -30.632812 23.0625 -31.71875 Z M 23.0625 -31.71875 "/></g></g><g transform="translate(170.304513, 301.785275)"><g><path d="M 33.65625 -18.78125 C 33.851562 -15.820312 33.507812 -13.238281 32.625 -11.03125 C 31.738281 -8.832031 30.453125 -6.976562 28.765625 -5.46875 C 27.078125 -3.96875 25.066406 -2.8125 22.734375 -2 C 20.398438 -1.195312 17.867188 -0.707031 15.140625 -0.53125 C 14.078125 -0.457031 12.90625 -0.519531 11.625 -0.71875 C 10.351562 -0.914062 9.054688 -1.179688 7.734375 -1.515625 C 6.421875 -1.859375 5.148438 -2.234375 3.921875 -2.640625 C 2.703125 -3.054688 1.613281 -3.441406 0.65625 -3.796875 L 1.265625 -16.5625 C 3.160156 -15.570312 5.238281 -14.863281 7.5 -14.4375 C 9.769531 -14.007812 11.984375 -13.863281 14.140625 -14 C 14.546875 -14.03125 15.035156 -14.082031 15.609375 -14.15625 C 16.191406 -14.226562 16.738281 -14.363281 17.25 -14.5625 C 17.757812 -14.757812 18.1875 -15.03125 18.53125 -15.375 C 18.882812 -15.71875 19.046875 -16.191406 19.015625 -16.796875 C 18.984375 -17.203125 18.828125 -17.539062 18.546875 -17.8125 C 18.265625 -18.09375 17.914062 -18.3125 17.5 -18.46875 C 17.082031 -18.625 16.613281 -18.734375 16.09375 -18.796875 C 15.570312 -18.859375 15.0625 -18.894531 14.5625 -18.90625 C 14.0625 -18.914062 13.59375 -18.90625 13.15625 -18.875 C 12.726562 -18.851562 12.382812 -18.832031 12.125 -18.8125 C 10.28125 -18.695312 8.578125 -18.878906 7.015625 -19.359375 C 5.460938 -19.835938 4.109375 -20.570312 2.953125 -21.5625 C 1.804688 -22.5625 0.878906 -23.800781 0.171875 -25.28125 C -0.523438 -26.757812 -0.9375 -28.425781 -1.0625 -30.28125 C -1.21875 -32.8125 -0.851562 -35.117188 0.03125 -37.203125 C 0.925781 -39.285156 2.179688 -41.082031 3.796875 -42.59375 C 5.421875 -44.113281 7.316406 -45.320312 9.484375 -46.21875 C 11.648438 -47.113281 13.914062 -47.640625 16.28125 -47.796875 C 17.332031 -47.867188 18.421875 -47.90625 19.546875 -47.90625 C 20.679688 -47.90625 21.804688 -47.84375 22.921875 -47.71875 C 24.035156 -47.601562 25.128906 -47.425781 26.203125 -47.1875 C 27.285156 -46.957031 28.316406 -46.644531 29.296875 -46.25 L 28.90625 -33.0625 C 27.414062 -33.457031 25.859375 -33.769531 24.234375 -34 C 22.609375 -34.226562 21.03125 -34.296875 19.5 -34.203125 C 19.21875 -34.179688 18.851562 -34.148438 18.40625 -34.109375 C 17.96875 -34.078125 17.507812 -34.019531 17.03125 -33.9375 C 16.5625 -33.851562 16.082031 -33.738281 15.59375 -33.59375 C 15.101562 -33.445312 14.664062 -33.269531 14.28125 -33.0625 C 13.90625 -32.863281 13.609375 -32.601562 13.390625 -32.28125 C 13.179688 -31.96875 13.097656 -31.609375 13.140625 -31.203125 C 13.191406 -30.722656 13.394531 -30.363281 13.75 -30.125 C 14.101562 -29.894531 14.546875 -29.738281 15.078125 -29.65625 C 15.617188 -29.570312 16.203125 -29.550781 16.828125 -29.59375 C 17.460938 -29.632812 18.09375 -29.6875 18.71875 -29.75 C 19.34375 -29.820312 19.921875 -29.890625 20.453125 -29.953125 C 20.984375 -30.023438 21.421875 -30.0625 21.765625 -30.0625 C 23.492188 -30.070312 25.066406 -29.804688 26.484375 -29.265625 C 27.910156 -28.734375 29.132812 -27.984375 30.15625 -27.015625 C 31.1875 -26.046875 32 -24.859375 32.59375 -23.453125 C 33.195312 -22.054688 33.550781 -20.5 33.65625 -18.78125 Z M 33.65625 -18.78125 "/></g></g><g transform="translate(205.456695, 299.503545)"><g><path d="M 15.546875 -46.65625 L 16.140625 -2.53125 L 2.578125 -0.953125 L -1.5625 -44.640625 Z M 15.546875 -46.65625 "/></g></g><g transform="translate(224.921126, 298.240107)"><g><path d="M 39.921875 -27.4375 C 40.054688 -25.46875 39.957031 -23.5625 39.625 -21.71875 C 39.300781 -19.875 38.765625 -18.125 38.015625 -16.46875 C 37.265625 -14.8125 36.320312 -13.285156 35.1875 -11.890625 C 34.050781 -10.492188 32.753906 -9.269531 31.296875 -8.21875 C 29.847656 -7.164062 28.25 -6.320312 26.5 -5.6875 C 24.75 -5.050781 22.875 -4.671875 20.875 -4.546875 C 18.945312 -4.421875 17.085938 -4.546875 15.296875 -4.921875 C 13.503906 -5.296875 11.816406 -5.878906 10.234375 -6.671875 C 8.648438 -7.472656 7.195312 -8.460938 5.875 -9.640625 C 4.550781 -10.816406 3.40625 -12.144531 2.4375 -13.625 C 1.46875 -15.101562 0.679688 -16.707031 0.078125 -18.4375 C -0.515625 -20.175781 -0.875 -22.003906 -1 -23.921875 C -1.125 -25.785156 -1.015625 -27.632812 -0.671875 -29.46875 C -0.335938 -31.300781 0.195312 -33.039062 0.9375 -34.6875 C 1.6875 -36.332031 2.617188 -37.859375 3.734375 -39.265625 C 4.859375 -40.679688 6.132812 -41.921875 7.5625 -42.984375 C 8.988281 -44.046875 10.554688 -44.90625 12.265625 -45.5625 C 13.984375 -46.21875 15.804688 -46.609375 17.734375 -46.734375 C 20.859375 -46.929688 23.738281 -46.628906 26.375 -45.828125 C 29.007812 -45.023438 31.296875 -43.785156 33.234375 -42.109375 C 35.171875 -40.429688 36.71875 -38.347656 37.875 -35.859375 C 39.039062 -33.378906 39.722656 -30.570312 39.921875 -27.4375 Z M 25.65625 -25.65625 C 25.59375 -26.582031 25.398438 -27.472656 25.078125 -28.328125 C 24.753906 -29.179688 24.3125 -29.925781 23.75 -30.5625 C 23.195312 -31.207031 22.519531 -31.71875 21.71875 -32.09375 C 20.925781 -32.46875 20.035156 -32.625 19.046875 -32.5625 C 18.035156 -32.488281 17.144531 -32.242188 16.375 -31.828125 C 15.601562 -31.410156 14.953125 -30.863281 14.421875 -30.1875 C 13.898438 -29.507812 13.515625 -28.738281 13.265625 -27.875 C 13.023438 -27.007812 12.929688 -26.101562 12.984375 -25.15625 C 13.046875 -24.25 13.234375 -23.351562 13.546875 -22.46875 C 13.859375 -21.582031 14.296875 -20.789062 14.859375 -20.09375 C 15.429688 -19.394531 16.113281 -18.84375 16.90625 -18.4375 C 17.695312 -18.039062 18.597656 -17.875 19.609375 -17.9375 C 20.617188 -18 21.515625 -18.253906 22.296875 -18.703125 C 23.085938 -19.160156 23.738281 -19.742188 24.25 -20.453125 C 24.757812 -21.160156 25.132812 -21.96875 25.375 -22.875 C 25.625 -23.78125 25.71875 -24.707031 25.65625 -25.65625 Z M 25.65625 -25.65625 "/></g></g><g transform="translate(267.077921, 295.503707)"><g><path d="M 40.640625 -19.046875 C 40.796875 -16.609375 40.921875 -14.195312 41.015625 -11.8125 C 41.117188 -9.4375 41.195312 -7.039062 41.25 -4.625 L 22.65625 -3.75 C 23.050781 -7.59375 23.363281 -11.425781 23.59375 -15.25 C 23.820312 -19.082031 23.804688 -22.941406 23.546875 -26.828125 C 23.535156 -27.109375 23.5 -27.554688 23.4375 -28.171875 C 23.375 -28.785156 23.28125 -29.484375 23.15625 -30.265625 C 23.039062 -31.054688 22.898438 -31.859375 22.734375 -32.671875 C 22.566406 -33.492188 22.351562 -34.238281 22.09375 -34.90625 C 21.84375 -35.582031 21.554688 -36.132812 21.234375 -36.5625 C 20.921875 -36.988281 20.5625 -37.1875 20.15625 -37.15625 C 19.425781 -37.113281 18.816406 -36.859375 18.328125 -36.390625 C 17.847656 -35.921875 17.460938 -35.335938 17.171875 -34.640625 C 16.878906 -33.953125 16.664062 -33.179688 16.53125 -32.328125 C 16.40625 -31.472656 16.316406 -30.625 16.265625 -29.78125 C 16.222656 -28.9375 16.210938 -28.140625 16.234375 -27.390625 C 16.253906 -26.648438 16.28125 -26.039062 16.3125 -25.5625 C 16.445312 -21.75 16.601562 -17.960938 16.78125 -14.203125 C 16.957031 -10.441406 17.117188 -6.644531 17.265625 -2.8125 L 0.84375 -1.03125 C 0.78125 -8.644531 0.703125 -16.21875 0.609375 -23.75 C 0.523438 -31.289062 0.359375 -38.875 0.109375 -46.5 L 15.28125 -48.265625 L 15.5 -43.078125 C 16.039062 -43.847656 16.640625 -44.578125 17.296875 -45.265625 C 17.953125 -45.960938 18.664062 -46.566406 19.4375 -47.078125 C 20.207031 -47.597656 21.023438 -48.019531 21.890625 -48.34375 C 22.765625 -48.675781 23.695312 -48.875 24.6875 -48.9375 C 26.519531 -49.0625 28.144531 -48.863281 29.5625 -48.34375 C 30.976562 -47.832031 32.21875 -47.085938 33.28125 -46.109375 C 34.34375 -45.140625 35.25 -43.972656 36 -42.609375 C 36.757812 -41.253906 37.394531 -39.789062 37.90625 -38.21875 C 38.414062 -36.65625 38.832031 -35.007812 39.15625 -33.28125 C 39.488281 -31.5625 39.75 -29.863281 39.9375 -28.1875 C 40.125 -26.519531 40.265625 -24.898438 40.359375 -23.328125 C 40.460938 -21.765625 40.554688 -20.335938 40.640625 -19.046875 Z M 40.640625 -19.046875 "/></g></g></g></svg>