<svg xmlns="http://www.w3.org/2000/svg" xmlns:xlink="http://www.w3.org/1999/xlink" width="480" zoomAndPan="magnify" viewBox="0 0 360 359.999987" height="480" preserveAspectRatio="xMidYMid meet" version="1.0"><defs><g/><clipPath id="3e17840acf"><path d="M 135 31 L 309.71875 31 L 309.71875 226 L 135 226 Z M 135 31 " clip-rule="nonzero"/></clipPath><clipPath id="c1d732ff07"><path d="M 9 32 L 193 32 L 193 234.882812 L 9 234.882812 Z M 9 32 " clip-rule="nonzero"/></clipPath></defs><g clip-path="url(#3e17840acf)"><path fill="#ffffff" d="M 265.972656 225.042969 C 258 225.042969 255.792969 217.5 254.53125 210.183594 C 240.070312 219.804688 224.304688 224.90625 208.808594 224.90625 C 206.019531 224.914062 203.242188 224.765625 200.472656 224.457031 C 183.355469 221.789062 169.074219 214.246094 157.992188 202.097656 C 148.035156 191.167969 141.097656 176.710938 137.898438 160.226562 C 133.980469 140.125 135.828125 118.308594 143.035156 98.707031 C 150.785156 77.792969 163.847656 61.351562 180.785156 51.1875 C 195.113281 38.132812 212.277344 31.222656 230.339844 31.222656 C 245.65625 31.222656 260.613281 36.191406 273.632812 45.542969 C 286.652344 54.890625 297.285156 68.667969 303.457031 84.792969 C 303.726562 85.425781 303.949219 86.011719 304.175781 86.601562 C 307.511719 95.136719 308.726562 98.253906 300.976562 105.210938 C 302.117188 105.324219 303.199219 105.636719 304.226562 106.152344 C 305.25 106.664062 306.148438 107.34375 306.925781 108.191406 C 308.277344 109.683594 309.71875 112.390625 309.222656 116.863281 C 308.589844 128.699219 307.992188 141.285156 307.417969 154.625 C 306.742188 170.390625 306.023438 186.648438 305.121094 201.511719 C 304.492188 204.941406 302.328125 206.976562 300.078125 209.054688 L 299.671875 209.460938 C 296.382812 213.207031 291.113281 217.363281 287.28125 219.847656 C 285.164062 222.648438 279.355469 223.28125 274.714844 223.777344 C 273.046875 223.957031 271.425781 224.140625 270.300781 224.367188 C 268.886719 224.773438 267.445312 224.996094 265.972656 225.042969 Z M 228.402344 169.394531 C 229.375 169.539062 230.351562 169.613281 231.332031 169.621094 C 233.476562 169.597656 235.578125 169.28125 237.636719 168.671875 L 239.800781 165.105469 L 238.765625 165.511719 L 236.601562 166.324219 C 233.910156 167.167969 231.265625 168.144531 228.671875 169.257812 Z M 210.203125 104.488281 C 208.335938 107.570312 206.949219 110.859375 206.042969 114.347656 C 205.136719 117.839844 204.753906 121.390625 204.886719 124.992188 C 204.300781 133.757812 205.699219 142.566406 208.898438 150.152344 C 208.492188 147.351562 207.859375 144.6875 207.273438 142.160156 C 206.105469 137.28125 204.886719 132.222656 205.339844 126.167969 C 205.5625 123.730469 207.320312 122.058594 208.988281 120.476562 C 209.574219 119.933594 210.113281 119.4375 210.5625 118.941406 C 211.015625 118.445312 212.277344 117.179688 212.863281 116.59375 C 214.664062 114.785156 215.382812 114.019531 219.933594 110.8125 C 220.96875 110.179688 221.734375 109.546875 222.457031 109.050781 C 223.988281 107.875 225.296875 106.882812 227.414062 106.519531 C 224.574219 104.035156 221.691406 102.863281 218.355469 102.863281 C 216.105469 102.90625 213.628906 103.402344 210.203125 104.488281 Z M 210.203125 104.488281 " fill-opacity="1" fill-rule="nonzero"/></g><path fill="#ff053d" d="M 159.34375 194.011719 C 184.390625 226.625 226.195312 225.675781 257.007812 201.058594 C 261.0625 202.910156 259.847656 219.171875 265.34375 219.125 C 270.839844 219.082031 276.515625 217.953125 281.832031 216.597656 L 290.347656 210.542969 C 292.375 208.601562 294.308594 206.570312 296.292969 204.582031 C 298.273438 202.59375 299.851562 200.335938 299.582031 198.167969 C 300.664062 173.59375 301.878906 146.71875 303.410156 116.546875 C 303.546875 111.804688 302.824219 111.128906 298.273438 110.945312 C 293.726562 110.765625 289.488281 111.261719 283.992188 111.308594 C 284.039062 111.21875 292.507812 105.253906 292.554688 105.210938 L 297.058594 100.691406 L 300.167969 97.578125 C 301.246094 96.808594 300.933594 95.589844 300.480469 93.648438 C 283.589844 40.84375 227.546875 18.125 184.34375 55.839844 C 139.882812 86.058594 126.277344 150.875 159.34375 194.011719 Z M 228.179688 112.390625 C 227.636719 112.480469 219.03125 118.714844 218.761719 119.078125 L 214.707031 123.140625 C 214.03125 123.863281 213.265625 124.496094 212.589844 125.265625 C 212.257812 125.53125 211.957031 125.832031 211.691406 126.167969 C 211.433594 126.304688 211.265625 126.515625 211.195312 126.800781 C 210.382812 134.75 213.71875 140.351562 214.527344 148.886719 C 218.175781 172.691406 218.265625 165.78125 234.84375 160.722656 C 238.089844 159.457031 245.25 156.746094 247.414062 156.070312 C 252.097656 157.019531 245.34375 167.496094 241.421875 173.59375 C 204.03125 186.921875 187.722656 124.722656 206.464844 99.609375 C 219.125 94.957031 228.855469 95.453125 238.765625 111.578125 C 235.296875 111.757812 231.738281 112.03125 228.179688 112.390625 Z M 228.179688 112.390625 " fill-opacity="1" fill-rule="nonzero"/><path fill="#ffe505" d="M 225.339844 205.574219 C 206.148438 205.574219 188.445312 196.585938 175.5625 180.28125 C 167.765625 170.390625 162.179688 158.285156 159.386719 145.140625 C 156.414062 131.183594 156.640625 116.683594 160.0625 102.046875 C 160.820312 97.628906 161.9375 93.300781 163.414062 89.066406 C 164.890625 84.832031 166.703125 80.746094 168.859375 76.816406 C 171.011719 72.882812 173.476562 69.160156 176.25 65.640625 C 179.023438 62.117188 182.066406 58.851562 185.382812 55.839844 C 198.804688 43.601562 215.25 36.824219 231.738281 36.824219 C 244.757812 36.824219 257.101562 40.980469 268.363281 49.109375 C 282.550781 58.6875 294.21875 74.675781 300.300781 93.058594 L 300.300781 93.148438 L 300.4375 93.691406 C 300.84375 95.410156 301.066406 96.3125 300.570312 97.078125 C 300.078125 97.847656 299.222656 98.027344 297.464844 98.390625 L 297.148438 98.390625 L 282.777344 100.015625 L 272.417969 101.144531 L 266.019531 101.914062 C 263.675781 102.183594 261.246094 102.5 258.945312 102.679688 L 258.902344 102.679688 C 257.414062 102.679688 256.964844 102.09375 255.972656 99.789062 C 249.441406 86.195312 240.207031 83.347656 233.585938 83.347656 C 225.476562 83.347656 216.871094 87.640625 210.023438 95.136719 C 202.09375 103.765625 198.128906 114.785156 199.03125 125.402344 L 199.03125 125.582031 C 197.949219 140.488281 203.175781 156.523438 212.367188 166.414062 C 217.996094 172.558594 224.621094 175.765625 231.511719 175.765625 C 238.40625 175.765625 244.621094 172.964844 251.242188 167.453125 L 251.558594 167.273438 C 253.675781 166.324219 266.246094 148.664062 265.117188 143.421875 C 264.984375 142.882812 264.714844 142.339844 263.585938 142.339844 C 261.738281 142.925781 258.179688 144.28125 254.125 145.816406 C 247.097656 148.480469 239.171875 151.464844 236.195312 152.09375 L 236.015625 152.09375 C 233.855469 152.09375 232.726562 147.667969 230.699219 135.15625 C 230.25 132.175781 229.800781 129.375 229.484375 128.5625 C 229.441406 128.492188 229.425781 128.417969 229.441406 128.335938 C 229.21875 126.488281 228.859375 124.664062 228.359375 122.871094 C 227.546875 119.4375 226.644531 115.914062 227.367188 113.070312 C 227.496094 112.671875 227.765625 112.449219 228.179688 112.390625 C 238.855469 111.261719 249.621094 111.128906 257.820312 111.128906 L 270.027344 111.21875 L 270.074219 111.21875 L 282.058594 111.308594 C 288.453125 111.308594 293.589844 111.171875 298.273438 110.945312 L 298.363281 110.945312 C 302.914062 111.128906 303.546875 111.804688 303.410156 116.546875 C 301.878906 146.71875 300.664062 173.59375 299.582031 198.167969 C 299.582031 198.753906 299.582031 201.285156 298.363281 202.546875 C 297.953125 203 297.441406 203.226562 296.832031 203.226562 L 292.238281 203.949219 C 288.722656 204.492188 285.121094 205.03125 281.5625 205.394531 L 281.472656 205.394531 C 278.722656 205.394531 277.824219 201.285156 277.054688 197.671875 C 276.878906 196.574219 276.59375 195.503906 276.199219 194.464844 C 276.203125 194.410156 276.191406 194.367188 276.15625 194.328125 L 275.75 192.566406 C 275.253906 190.488281 274.488281 187.328125 273.226562 187.328125 C 272.820312 187.328125 272.191406 187.554688 271.109375 188.546875 L 271.019531 188.546875 C 256.152344 199.882812 240.792969 205.574219 225.339844 205.574219 Z M 225.339844 205.574219 " fill-opacity="1" fill-rule="nonzero"/><path fill="#820022" d="M 282.058594 110.40625 L 270.210938 110.3125 L 270.027344 110.3125 L 257.820312 110.222656 L 254.351562 110.222656 C 253.984375 110.214844 253.714844 110.050781 253.539062 109.726562 C 253.46875 109.558594 253.445312 109.382812 253.480469 109.203125 C 253.511719 109.023438 253.59375 108.863281 253.722656 108.734375 L 257.957031 103.945312 C 258.136719 103.742188 258.359375 103.636719 258.632812 103.628906 L 259.035156 103.628906 C 261.335938 103.449219 263.765625 103.132812 266.066406 102.863281 L 266.109375 102.863281 C 268.226562 102.636719 270.433594 102.320312 272.550781 102.140625 L 282.867188 101.007812 L 294.582031 99.699219 L 294.671875 99.699219 C 295.050781 99.683594 295.320312 99.851562 295.480469 100.195312 C 295.566406 100.371094 295.589844 100.554688 295.558594 100.746094 C 295.523438 100.9375 295.441406 101.097656 295.300781 101.234375 C 294.445312 102.140625 293.230469 103.3125 292.011719 104.53125 L 291.921875 104.53125 L 287.011719 108.054688 L 283.949219 110.222656 C 283.78125 110.324219 283.601562 110.386719 283.410156 110.40625 Z M 282.058594 110.40625 " fill-opacity="1" fill-rule="nonzero"/><path fill="#820022" d="M 255.296875 200.246094 C 255.121094 199.957031 254.867188 199.808594 254.53125 199.792969 L 254.171875 199.882812 C 244.667969 204.265625 234.980469 206.480469 225.339844 206.480469 C 222.085938 206.476562 218.855469 206.21875 215.640625 205.703125 C 212.429688 205.1875 209.277344 204.421875 206.1875 203.40625 C 203.097656 202.390625 200.105469 201.136719 197.210938 199.644531 C 194.320312 198.152344 191.5625 196.4375 188.941406 194.507812 L 175.378906 208.015625 C 179.253906 210.636719 183.378906 212.769531 187.757812 214.414062 C 192.136719 216.054688 196.644531 217.160156 201.285156 217.726562 C 203.753906 217.996094 206.230469 218.132812 208.71875 218.132812 C 224.574219 218.132812 241.015625 212.214844 255.074219 201.417969 C 255.253906 201.28125 255.363281 201.097656 255.40625 200.875 C 255.449219 200.652344 255.414062 200.441406 255.296875 200.246094 Z M 255.296875 200.246094 " fill-opacity="1" fill-rule="nonzero"/><path fill="#820022" d="M 226.464844 162.753906 C 226.113281 162.773438 225.855469 162.621094 225.699219 162.304688 C 225.582031 162.121094 225.542969 161.921875 225.574219 161.703125 C 225.609375 161.488281 225.710938 161.3125 225.878906 161.175781 L 235.882812 153.179688 C 236.015625 153.066406 236.164062 152.992188 236.332031 152.953125 C 239.441406 152.367188 247.414062 149.339844 254.441406 146.675781 L 256.875 145.726562 L 257.191406 145.726562 C 257.550781 145.714844 257.820312 145.863281 258 146.179688 C 258.113281 146.367188 258.148438 146.570312 258.105469 146.785156 C 258.0625 147.003906 257.953125 147.175781 257.777344 147.308594 L 248.40625 154.984375 C 248.253906 155.132812 248.074219 155.207031 247.863281 155.210938 L 247.324219 155.210938 L 247.097656 155.300781 C 244.9375 156.023438 237.683594 158.734375 234.574219 159.953125 L 234.53125 159.953125 C 231.511719 160.902344 229.035156 161.851562 226.78125 162.800781 Z M 226.464844 162.753906 " fill-opacity="1" fill-rule="nonzero"/><path fill="#820022" d="M 241.875 86.011719 C 239.230469 84.851562 236.46875 84.28125 233.585938 84.296875 C 225.835938 84.296875 217.546875 88.40625 210.925781 95.542969 C 210.792969 95.683594 210.714844 95.851562 210.691406 96.042969 C 210.667969 96.234375 210.699219 96.414062 210.789062 96.582031 C 210.953125 96.890625 211.207031 97.039062 211.554688 97.035156 L 211.78125 97.035156 C 213.921875 96.480469 216.101562 96.191406 218.3125 96.175781 C 220.136719 96.171875 221.929688 96.421875 223.683594 96.929688 C 225.4375 97.4375 227.085938 98.179688 228.628906 99.15625 C 233 94.730469 237.457031 90.351562 241.875 86.011719 Z M 241.875 86.011719 " fill-opacity="1" fill-rule="nonzero"/><path fill="#820022" d="M 269.261719 217.726562 C 268.875 217.71875 268.605469 217.539062 268.453125 217.183594 C 268.367188 217.003906 268.34375 216.820312 268.386719 216.625 C 268.425781 216.429688 268.523438 216.269531 268.675781 216.144531 L 279.578125 206.34375 C 279.765625 206.199219 279.976562 206.125 280.210938 206.117188 L 280.433594 206.117188 C 280.773438 206.207031 281.121094 206.253906 281.472656 206.253906 L 281.652344 206.253906 C 285.253906 205.890625 288.859375 205.347656 292.375 204.761719 L 292.644531 204.761719 C 293.023438 204.746094 293.292969 204.914062 293.453125 205.257812 C 293.539062 205.433594 293.5625 205.617188 293.53125 205.808594 C 293.5 206 293.414062 206.160156 293.273438 206.296875 C 292.328125 207.246094 291.113281 208.511719 289.804688 209.730469 L 289.714844 209.820312 L 281.5625 215.601562 L 281.246094 215.738281 C 277.460938 216.6875 273.363281 217.183594 269.441406 217.679688 L 269.261719 217.679688 Z M 269.261719 217.726562 " fill-opacity="1" fill-rule="nonzero"/><path fill="#000000" d="M 265.34375 220.933594 C 260.839844 220.933594 259.710938 215.285156 258.585938 209.867188 C 258.179688 207.742188 257.59375 204.898438 256.875 203.453125 C 242.324219 214.699219 225.25 220.84375 208.71875 220.84375 C 206.125 220.851562 203.542969 220.703125 200.96875 220.390625 C 183.941406 218.3125 169.027344 209.550781 157.902344 195.097656 C 142.40625 174.90625 136.234375 149.203125 140.46875 122.691406 C 144.972656 94.777344 160.558594 69.886719 183.21875 54.394531 C 193.039062 45.859375 203.761719 40.121094 215.023438 37.277344 C 220.496094 35.785156 226.066406 35.03125 231.738281 35.019531 C 243.675781 35.019531 255.074219 38.40625 265.613281 45.089844 C 280.480469 53.988281 292.597656 68.625 299.714844 86.285156 C 300.570312 88.363281 301.339844 90.484375 302.015625 92.519531 C 302.050781 92.574219 302.066406 92.632812 302.058594 92.699219 L 302.195312 93.242188 C 302.597656 94.730469 302.871094 95.90625 302.597656 96.988281 C 302.464844 97.574219 302.195312 98.085938 301.789062 98.523438 L 301.742188 98.523438 C 301.699219 98.617188 301.609375 98.660156 301.519531 98.75 L 301.472656 98.75 L 301.339844 98.839844 L 298.816406 101.414062 L 298.320312 101.867188 L 293.859375 106.382812 L 289.761719 109.320312 L 299.3125 109.320312 L 300.078125 109.410156 L 300.210938 109.410156 C 303.183594 109.773438 304.535156 110.855469 305.03125 113.296875 C 305.199219 114.433594 305.261719 115.578125 305.210938 116.726562 C 304.402344 132.582031 303.636719 148.933594 302.78125 166.820312 C 302.285156 177.707031 301.832031 188.140625 301.382812 198.210938 C 301.464844 199.070312 301.390625 199.914062 301.15625 200.742188 C 300.960938 201.949219 300.449219 203.003906 299.625 203.902344 L 299.402344 204.128906 C 298.832031 204.84375 298.1875 205.476562 297.464844 206.027344 L 296.789062 206.75 C 295.121094 208.464844 293.363281 210.226562 291.609375 211.898438 L 291.425781 212.078125 L 283.859375 217.320312 L 283.859375 217.453125 C 283.886719 217.578125 283.863281 217.695312 283.792969 217.800781 C 283.722656 217.910156 283.625 217.972656 283.5 217.996094 L 282.191406 218.3125 C 278.136719 219.398438 273.859375 219.894531 269.714844 220.390625 L 265.613281 220.933594 Z M 172 68.351562 C 168.304688 72.050781 164.921875 76.015625 161.847656 80.25 C 158.773438 84.480469 156.046875 88.929688 153.671875 93.59375 C 151.296875 98.253906 149.300781 103.074219 147.683594 108.054688 C 146.066406 113.03125 144.847656 118.105469 144.027344 123.277344 C 139.925781 148.753906 145.875 173.503906 160.785156 192.882812 C 171.28125 206.570312 185.335938 214.835938 201.417969 216.820312 C 203.84375 217.09375 206.277344 217.230469 208.71875 217.230469 C 224.4375 217.230469 240.613281 211.402344 254.53125 200.695312 C 244.890625 205.125 235.117188 207.382812 225.339844 207.382812 C 205.5625 207.382812 187.410156 198.167969 174.117188 181.363281 C 166.144531 171.292969 160.46875 158.914062 157.632812 145.546875 C 154.613281 131.273438 154.839844 116.546875 158.308594 101.6875 C 159.324219 95.691406 160.988281 89.878906 163.300781 84.253906 C 165.609375 78.628906 168.511719 73.328125 172 68.351562 Z M 269.261719 216.820312 L 269.308594 216.820312 C 273.226562 216.324219 277.28125 215.828125 281.066406 214.925781 L 289.21875 209.144531 L 292.644531 205.710938 L 292.507812 205.710938 C 288.996094 206.253906 285.34375 206.839844 281.742188 207.203125 L 281.472656 207.203125 C 281.039062 207.210938 280.621094 207.152344 280.210938 207.019531 Z M 259.710938 201.195312 C 260.929688 203.046875 261.46875 205.890625 262.144531 209.144531 C 262.820312 212.394531 263.316406 214.925781 264.261719 216.460938 L 277.417969 204.671875 C 276.335938 202.820312 275.796875 200.289062 275.300781 198.078125 C 275.136719 197.09375 274.894531 196.128906 274.578125 195.1875 C 274.519531 195.054688 274.476562 194.921875 274.445312 194.78125 C 274.261719 194.199219 274.113281 193.613281 273.992188 193.019531 C 273.859375 192.429688 273.585938 191.257812 273.273438 190.261719 Z M 230.925781 38.902344 C 225.582031 38.921875 220.328125 39.613281 215.160156 40.980469 C 204.886719 43.871094 195.023438 49.472656 186.550781 57.195312 C 183.320312 60.144531 180.351562 63.34375 177.644531 66.785156 C 174.941406 70.230469 172.535156 73.871094 170.433594 77.714844 C 168.328125 81.554688 166.554688 85.546875 165.109375 89.683594 C 163.664062 93.820312 162.566406 98.046875 161.820312 102.363281 L 161.820312 102.453125 C 158.488281 116.820312 158.261719 131.046875 161.144531 144.777344 C 163.847656 157.605469 169.34375 169.484375 176.957031 179.152344 C 189.527344 195.003906 206.691406 203.769531 225.339844 203.769531 C 240.386719 203.769531 255.386719 198.210938 269.9375 187.191406 C 271.109375 186.0625 272.191406 185.519531 273.226562 185.519531 C 275.929688 185.519531 276.785156 189.222656 277.507812 192.160156 C 277.640625 192.746094 277.777344 193.289062 277.867188 193.742188 C 278.320312 194.894531 278.636719 196.082031 278.8125 197.308594 C 279.308594 199.65625 280.164062 203.542969 281.425781 203.585938 C 284.941406 203.226562 288.5 202.683594 291.96875 202.140625 L 292.058594 202.140625 L 296.609375 201.464844 L 296.832031 201.464844 C 297.175781 200.960938 297.445312 200.417969 297.644531 199.839844 C 297.734375 199.347656 297.78125 198.847656 297.777344 198.347656 L 297.777344 198.167969 C 298.363281 184.480469 299.128906 168.128906 299.941406 150.332031 L 299.941406 149.113281 C 300.480469 137.820312 301.023438 127.164062 301.5625 116.503906 C 301.582031 115.671875 301.550781 114.84375 301.472656 114.019531 C 301.453125 113.761719 301.378906 113.519531 301.246094 113.296875 L 300.933594 113.113281 L 300.664062 113.113281 L 299.085938 112.933594 L 296.921875 112.933594 L 294.851562 113.023438 L 280.300781 113.023438 L 270.210938 112.933594 L 269.984375 112.933594 L 257.820312 112.84375 C 252.910156 112.84375 246.332031 112.890625 239.261719 113.25 L 238.855469 113.25 L 233.675781 113.566406 L 233.402344 113.566406 L 231.242188 113.746094 L 230.925781 113.746094 L 229.035156 113.929688 C 228.671875 116.277344 229.394531 119.304688 230.117188 122.238281 C 230.613281 124.097656 230.988281 125.976562 231.242188 127.886719 C 231.558594 128.878906 231.917969 131.136719 232.503906 134.707031 C 233.449219 140.488281 234.214844 144.914062 235.027344 147.625 C 235.566406 149.292969 235.925781 149.882812 236.105469 150.0625 C 239.171875 149.386719 246.738281 146.496094 253.449219 143.964844 C 257.59375 142.382812 261.152344 141.027344 263.046875 140.441406 L 263.273438 140.351562 L 263.675781 140.351562 C 265.390625 140.398438 266.558594 141.300781 266.875 142.882812 C 267.460938 145.679688 265.523438 150.648438 261.0625 157.742188 C 259.351562 160.453125 254.398438 167.769531 252.28125 168.761719 C 249.324219 171.242188 246.09375 173.289062 242.59375 174.90625 L 242.457031 174.90625 L 242.1875 174.996094 C 238.789062 176.515625 235.230469 177.296875 231.511719 177.34375 C 227.449219 177.320312 223.617188 176.355469 220.023438 174.453125 C 215.472656 172.285156 211.417969 168.761719 207.90625 163.976562 C 204.390625 159.1875 201.464844 153.089844 199.570312 146.402344 C 198.800781 143.761719 198.199219 141.082031 197.769531 138.363281 C 197.371094 135.847656 197.101562 133.320312 196.960938 130.777344 C 196.824219 127.6875 196.867188 124.601562 197.09375 121.515625 C 197.191406 118 197.730469 114.554688 198.714844 111.179688 C 199.699219 107.804688 201.097656 104.609375 202.90625 101.597656 C 202.964844 101.453125 203.039062 101.316406 203.128906 101.191406 L 203.222656 101.054688 C 203.324219 100.835938 203.445312 100.625 203.582031 100.421875 L 204.167969 99.519531 C 205.515625 97.472656 207.015625 95.542969 208.671875 93.738281 C 215.878906 85.878906 224.980469 81.359375 233.585938 81.359375 C 240.703125 81.359375 250.65625 84.386719 257.59375 98.839844 L 257.640625 98.839844 C 258.40625 100.648438 258.496094 100.648438 258.855469 100.648438 C 261.0625 100.46875 263.40625 100.152344 265.703125 99.878906 L 265.792969 99.878906 L 272.28125 99.113281 L 282.371094 98.027344 L 282.550781 98.027344 L 296.921875 96.402344 L 297.148438 96.402344 C 298.003906 96.222656 298.90625 96.039062 299.128906 95.859375 C 299.042969 95.203125 298.90625 94.554688 298.726562 93.917969 C 298.003906 91.703125 297.195312 89.445312 296.292969 87.1875 C 289.851562 71.921875 279.578125 58.867188 267.371094 50.644531 L 267.324219 50.644531 C 266.199219 49.832031 265.027344 49.019531 263.722656 48.207031 C 258.683594 45.191406 253.335938 42.886719 247.683594 41.296875 C 242.207031 39.738281 236.621094 38.941406 230.925781 38.902344 Z M 207.589844 101.101562 C 207.410156 101.417969 207.183594 101.730469 206.960938 102.046875 L 206.464844 102.863281 L 206.058594 103.539062 L 205.878906 103.855469 C 203.085938 108.777344 201.328125 115.011719 200.699219 121.921875 C 200.699219 123.050781 200.742188 124.226562 200.832031 125.308594 L 200.832031 125.761719 C 200.550781 129.800781 200.71875 133.820312 201.328125 137.820312 C 201.824219 141.074219 202.574219 144.265625 203.582031 147.398438 C 205.832031 154.398438 209.347656 160.585938 213.671875 165.238281 C 216.164062 167.976562 219.0625 170.171875 222.367188 171.835938 C 225.210938 173.074219 228.183594 173.691406 231.285156 173.6875 C 234.359375 173.652344 237.347656 173.125 240.25 172.105469 C 242.234375 169.035156 247.683594 160.40625 247.234375 158.011719 C 244.53125 158.960938 238.40625 161.265625 235.476562 162.394531 L 235.386719 162.394531 C 232.523438 163.285156 229.714844 164.324219 226.960938 165.511719 C 224.347656 166.59375 222.277344 167.496094 220.519531 167.496094 C 219.734375 167.492188 219 167.296875 218.3125 166.910156 C 215.472656 165.328125 214.527344 160.769531 212.726562 149.113281 L 212.726562 149.023438 C 212.386719 145.949219 211.800781 142.921875 210.96875 139.945312 C 209.886719 135.652344 208.898438 131.589844 209.394531 126.574219 L 209.394531 126.394531 C 209.519531 125.738281 209.847656 125.210938 210.382812 124.8125 C 210.652344 124.496094 210.96875 124.226562 211.285156 123.910156 L 212.5 122.691406 L 213.3125 121.832031 L 213.355469 121.832031 L 216.464844 118.761719 L 217.410156 117.765625 L 217.5 117.765625 C 217.996094 117.316406 219.617188 116.097656 222.277344 114.199219 C 224.214844 112.796875 225.566406 111.851562 226.375 111.351562 C 226.738281 111.019531 227.160156 110.792969 227.636719 110.675781 L 227.90625 110.675781 L 229.933594 110.496094 L 235.519531 110.042969 C 230.25 102.363281 224.890625 98.933594 218.3125 98.933594 C 215.339844 98.839844 211.914062 99.5625 207.589844 101.101562 Z M 250.566406 156.746094 C 251.46875 159.546875 249.351562 164.019531 246.601562 168.671875 C 247.8125 167.867188 248.96875 166.996094 250.070312 166.050781 L 250.792969 165.601562 C 252.503906 164.472656 260.839844 152.773438 262.910156 146.539062 Z M 212.953125 127.523438 C 212.636719 131.679688 213.539062 135.292969 214.484375 139.085938 C 215.332031 142.234375 215.949219 145.425781 216.332031 148.664062 C 217.320312 155.347656 218.222656 160.722656 219.347656 162.9375 L 232.953125 152.050781 C 231.421875 149.746094 230.519531 145.09375 228.945312 135.429688 C 228.539062 132.945312 228.042969 129.828125 227.773438 129.195312 C 227.707031 128.957031 227.660156 128.71875 227.636719 128.472656 C 227.445312 126.710938 227.097656 124.980469 226.601562 123.277344 C 226.0625 121.019531 225.476562 118.671875 225.339844 116.410156 C 222.996094 118.082031 220.476562 119.933594 220.023438 120.339844 L 219.078125 121.289062 L 215.96875 124.40625 L 215.070312 125.308594 C 214.671875 125.652344 214.3125 126.03125 213.988281 126.441406 L 213.898438 126.53125 L 213.851562 126.53125 L 213.71875 126.621094 L 213.175781 127.164062 L 212.996094 127.386719 Z M 226.464844 161.851562 C 228.582031 160.992188 231.105469 159.953125 234.261719 159.007812 C 237.414062 158.058594 244.574219 155.078125 246.828125 154.355469 L 247.1875 154.21875 L 247.414062 154.21875 L 247.773438 154.308594 L 247.863281 154.308594 L 257.191406 146.585938 L 254.757812 147.488281 C 247.683594 150.199219 239.664062 153.222656 236.558594 153.855469 L 236.46875 153.855469 Z M 218.3125 95.273438 C 226.601562 95.273438 233.449219 99.878906 239.710938 109.726562 C 242.820312 109.546875 246.019531 109.457031 249.488281 109.410156 L 255.433594 102.726562 C 254.992188 102.042969 254.628906 101.320312 254.351562 100.558594 C 248.226562 87.867188 239.664062 85.199219 233.585938 85.199219 C 226.0625 85.199219 218.042969 89.175781 211.554688 96.132812 C 213.773438 95.574219 216.027344 95.289062 218.3125 95.273438 Z M 257.820312 109.320312 L 270.027344 109.410156 L 270.253906 109.410156 L 282.058594 109.5 L 283.410156 109.5 L 286.472656 107.332031 L 291.382812 103.808594 L 294.671875 100.558594 L 282.957031 101.867188 L 272.640625 102.996094 C 270.523438 103.175781 268.363281 103.449219 266.246094 103.71875 L 266.199219 103.71875 C 263.855469 104.035156 261.425781 104.351562 259.128906 104.53125 L 258.632812 104.53125 L 254.351562 109.320312 Z M 257.820312 109.320312 " fill-opacity="1" fill-rule="nonzero"/><g clip-path="url(#c1d732ff07)"><path fill="#ffffff" d="M 88.097656 234.707031 C 71.175781 234.707031 55.820312 228.683594 43.664062 217.382812 C 23.292969 199.804688 10.070312 169.421875 9.191406 138.160156 C 8.375 110.160156 17.089844 85.867188 33.695312 69.667969 C 49.117188 53.535156 72.933594 32.066406 101.886719 32.066406 L 104.582031 32.066406 C 111.800781 32.257812 118.886719 33.335938 125.832031 35.300781 C 132.78125 37.269531 139.382812 40.0625 145.636719 43.679688 C 148.660156 45.445312 151.578125 47.375 154.390625 49.464844 C 157.199219 51.554688 159.886719 53.792969 162.453125 56.179688 C 165.015625 58.566406 167.441406 61.089844 169.726562 63.746094 C 172.015625 66.402344 174.148438 69.175781 176.128906 72.066406 C 178.105469 74.960938 179.921875 77.953125 181.570312 81.046875 C 183.222656 84.140625 184.695312 87.3125 185.996094 90.570312 C 187.292969 93.828125 188.410156 97.144531 189.34375 100.523438 C 190.277344 103.90625 191.019531 107.324219 191.574219 110.789062 C 192.738281 117.992188 192.996094 125.230469 192.347656 132.496094 C 191.703125 139.765625 190.171875 146.84375 187.753906 153.726562 C 180.734375 176.074219 165.691406 194.972656 138.992188 214.746094 C 125.078125 227.363281 106.527344 234.644531 88.097656 234.644531 Z M 98.003906 125.667969 C 98.480469 131.652344 99.898438 137.410156 102.265625 142.929688 C 101.816406 136.933594 100.394531 131.179688 98.003906 125.667969 Z M 98.003906 125.667969 " fill-opacity="1" fill-rule="nonzero"/></g><path fill="#ff053d" d="M 88.160156 226.863281 C 109.15625 227.550781 122.132812 216.878906 137.300781 206.019531 C 163.621094 185.996094 185.496094 157.996094 184.054688 122.839844 C 186.125 66.84375 117.054688 18.191406 68.734375 50.773438 C 57.980469 57.765625 48.246094 65.96875 39.527344 75.382812 C -5.035156 118.132812 20.535156 224.539062 88.160156 226.863281 Z M 105.335938 122.152344 C 110.851562 134.078125 112.042969 149.519531 109.09375 161.636719 C 91.109375 153.726562 86.910156 124.285156 91.171875 106.957031 C 96.875 109.21875 101.824219 114.429688 105.335938 122.152344 Z M 105.335938 122.152344 " fill-opacity="1" fill-rule="nonzero"/><path fill="#ffe505" d="M 110.726562 207.777344 C 88.789062 207.210938 69.296875 195.097656 55.882812 173.566406 C 38.335938 145.503906 34.574219 107.085938 46.796875 80.089844 C 56.511719 54.855469 76.878906 40.414062 102.578125 40.414062 C 117.179688 40.414062 132.347656 45.0625 146.449219 53.914062 C 170.957031 69.859375 184.996094 97.292969 184.054688 127.296875 C 183.113281 157.304688 166.757812 185.179688 140.371094 200.117188 C 132.597656 205.140625 122.632812 207.777344 110.789062 207.777344 Z M 109.222656 86.746094 C 94.242188 88.878906 89.289062 107.019531 89.601562 122.023438 C 90.042969 140.734375 98.628906 161.261719 113.734375 162.765625 C 128.460938 160.695312 133.414062 142.742188 133.164062 127.925781 C 132.910156 109.15625 124.386719 88.375 109.222656 86.746094 Z M 109.222656 86.746094 " fill-opacity="1" fill-rule="nonzero"/><path fill="#820022" d="M 105.023438 118.761719 C 111.539062 112.292969 117.996094 105.765625 124.449219 99.300781 C 120.753906 93.210938 115.675781 88.878906 109.472656 88.0625 L 109.09375 88.0625 C 99.445312 89.570312 94.992188 98.234375 92.925781 105.199219 C 92.84375 105.496094 92.859375 105.78125 92.976562 106.0625 C 93.09375 106.34375 93.285156 106.558594 93.550781 106.707031 C 98.066406 108.96875 101.949219 113.171875 105.023438 118.761719 Z M 105.023438 118.761719 " fill-opacity="1" fill-rule="nonzero"/><path fill="#820022" d="M 132.472656 206.585938 C 132.230469 206.136719 131.855469 205.90625 131.34375 205.894531 L 130.96875 206.019531 C 124.378906 208.09375 117.632812 209.097656 110.726562 209.035156 C 107.46875 208.949219 104.242188 208.613281 101.039062 208.019531 C 97.835938 207.425781 94.699219 206.585938 91.628906 205.5 C 88.558594 204.410156 85.59375 203.089844 82.730469 201.535156 C 79.867188 199.980469 77.144531 198.210938 74.5625 196.226562 C 67.855469 202.066406 61.335938 208.027344 55.257812 214.433594 C 60.078125 217.886719 65.300781 220.5625 70.914062 222.46875 C 76.53125 224.371094 82.300781 225.417969 88.226562 225.605469 L 90.042969 225.605469 C 107.96875 225.605469 120.25 216.691406 132.097656 208.15625 C 132.339844 207.972656 132.5 207.734375 132.570312 207.4375 C 132.640625 207.140625 132.609375 206.859375 132.472656 206.585938 Z M 132.472656 206.585938 " fill-opacity="1" fill-rule="nonzero"/><path fill="#000000" d="M 90.042969 229.4375 L 88.097656 229.4375 C 72.933594 228.933594 59.207031 223.472656 47.359375 213.175781 C 36.769531 204.011719 28.121094 191.203125 22.414062 176.136719 C 19.0625 167.367188 16.8125 158.316406 15.667969 148.992188 C 14.523438 139.671875 14.515625 130.347656 15.648438 121.019531 C 18.152344 101.558594 25.800781 85.238281 37.707031 73.6875 C 46.574219 64.132812 56.457031 55.78125 67.355469 48.640625 C 74.132812 43.875 81.59375 40.714844 89.730469 39.160156 L 90.042969 39.160156 L 90.730469 39.035156 C 94.851562 38.226562 99.007812 37.828125 103.203125 37.839844 L 104.457031 37.839844 C 114.699219 38.09375 124.496094 40.3125 133.851562 44.496094 L 134.542969 44.808594 C 139.121094 46.808594 143.527344 49.132812 147.765625 51.777344 C 153.765625 55.671875 159.1875 60.257812 164.027344 65.53125 C 168.867188 70.804688 172.972656 76.597656 176.347656 82.914062 C 183.492188 95.535156 187.0625 109.34375 186.5625 122.839844 C 186.953125 132.808594 185.554688 142.519531 182.363281 151.96875 C 180.394531 158.328125 177.730469 164.378906 174.375 170.121094 C 171.019531 175.867188 167.0625 181.160156 162.496094 185.996094 C 155.382812 194.167969 147.484375 201.492188 138.804688 207.964844 L 135.542969 210.351562 L 135.417969 210.351562 C 121.945312 220.207031 109.222656 229.4375 90.042969 229.4375 Z M 49.117188 69.292969 C 46.359375 71.867188 43.726562 74.503906 41.34375 77.078125 L 41.34375 77.203125 C 19.15625 98.421875 13.328125 138.347656 27.054688 174.316406 C 38.710938 204.703125 61.585938 223.472656 88.289062 224.351562 L 90.042969 224.351562 C 107.089844 224.351562 118.496094 216.441406 131.34375 207.085938 C 124.664062 209.265625 117.8125 210.3125 110.789062 210.226562 L 110.664062 210.226562 C 87.847656 209.660156 67.667969 197.105469 53.753906 174.882812 C 35.828125 146.195312 32.003906 106.769531 44.476562 79.148438 C 45.796875 75.757812 47.34375 72.472656 49.117188 69.292969 Z M 102.578125 42.925781 C 100.949219 42.925781 99.316406 42.988281 97.6875 43.113281 C 92.964844 43.53125 88.363281 44.507812 83.878906 46.046875 C 79.394531 47.585938 75.160156 49.644531 71.175781 52.21875 C 61.523438 58.746094 53.878906 68.664062 49.117188 81.03125 L 49.117188 81.15625 C 37.207031 107.398438 40.90625 144.875 58.015625 172.246094 C 70.988281 193.023438 89.730469 204.765625 110.789062 205.265625 C 122.132812 205.265625 131.660156 202.820312 138.992188 198.046875 L 139.117188 197.921875 C 146.449219 193.785156 153.007812 188.660156 158.796875 182.542969 C 167.632812 172.183594 174.027344 161.261719 177.726562 150.023438 C 179.316406 144.917969 180.417969 139.707031 181.027344 134.394531 C 181.636719 129.078125 181.746094 123.753906 181.355469 118.417969 C 180.964844 113.085938 180.078125 107.832031 178.699219 102.664062 C 177.320312 97.496094 175.46875 92.503906 173.148438 87.6875 C 171.1875 84.007812 168.976562 80.488281 166.511719 77.128906 C 164.046875 73.765625 161.359375 70.597656 158.441406 67.621094 C 155.523438 64.648438 152.410156 61.894531 149.097656 59.367188 C 145.789062 56.839844 142.316406 54.5625 138.679688 52.53125 C 136.5625 51.332031 134.390625 50.242188 132.160156 49.265625 C 127.496094 47.21875 122.671875 45.660156 117.691406 44.59375 C 112.707031 43.523438 107.671875 42.96875 102.578125 42.925781 Z M 102.578125 42.925781 " fill-opacity="1" fill-rule="nonzero"/><path fill="#000000" d="M 113.734375 165.277344 L 113.484375 165.277344 C 112.554688 165.164062 111.632812 165 110.726562 164.777344 L 110.160156 164.777344 L 108.09375 163.835938 C 104.992188 162.589844 102.296875 160.746094 100.007812 158.308594 C 92.863281 151.277344 88.289062 139.414062 87.347656 125.792969 C 87.222656 124.535156 87.160156 123.28125 87.097656 122.023438 C 86.957031 116.285156 87.601562 110.632812 89.039062 105.074219 L 89.289062 104.195312 L 89.289062 104.007812 C 91.734375 95.847656 97.0625 85.867188 108.84375 84.234375 L 109.472656 84.234375 C 126.019531 85.992188 135.355469 108.027344 135.605469 127.800781 C 135.859375 143.621094 130.34375 162.957031 113.984375 165.152344 L 113.671875 165.152344 Z M 112.042969 159.941406 L 113.671875 160.191406 C 126.582031 158.183594 130.90625 141.609375 130.65625 127.988281 C 130.40625 110.472656 122.820312 91.011719 109.285156 89.320312 C 100.320312 90.699219 96.121094 98.796875 94.117188 105.578125 C 99.632812 108.402344 104.269531 113.738281 107.652344 121.082031 C 112.792969 132.445312 114.484375 147.261719 112.042969 159.941406 Z M 92.988281 110.664062 C 92.054688 116.269531 91.890625 121.898438 92.488281 127.550781 C 93.425781 136.023438 95.933594 143.871094 99.507812 149.710938 C 101.492188 153.015625 104.101562 155.714844 107.339844 157.808594 C 109.285156 146.445312 107.652344 133.261719 103.078125 123.21875 C 100.445312 117.441406 96.9375 113.109375 92.988281 110.664062 Z M 92.988281 110.664062 " fill-opacity="1" fill-rule="nonzero"/><path stroke-linecap="butt" transform="matrix(0.341116, -0.0221419, 0.0221419, 0.341116, -19.546431, 253.625195)" fill="none" stroke-linejoin="miter" d="M 309.786942 42.254684 L 274.087487 174.124672 L 225.711146 176.859118 L 181.82995 49.477055 L 228.051619 45.182779 L 246.784073 119.309625 L 264.926975 39.331369 Z M 421.662441 100.188876 C 421.661693 105.845808 421.271012 111.511783 420.491876 117.163996 C 409.372331 117.873647 398.315144 119.033951 387.333201 120.622839 C 376.339114 122.22239 365.346507 123.799135 354.366784 125.353813 C 356.055627 130.032536 358.698327 133.776903 362.307027 136.576253 C 365.916468 139.364199 370.222808 140.765959 375.238193 140.770869 C 377.837852 140.767843 380.67534 140.276393 383.772722 139.309404 C 386.859441 138.330271 389.927495 137.109448 392.988285 135.647674 C 396.037673 134.18516 398.968285 132.611874 401.769459 130.915673 C 404.55849 129.230134 406.971511 127.69196 408.983496 126.333879 L 404.300206 170.610099 C 401.768571 172.564276 399.015971 174.217824 396.053068 175.58289 C 393.101569 176.948695 390.029515 178.054745 386.836904 178.901039 C 383.655697 179.748073 380.432277 180.36334 377.188711 180.759723 C 373.934481 181.143962 370.749852 181.338046 367.623419 181.341234 C 361.188099 181.335766 355.301598 180.461264 349.976059 178.707064 C 344.639117 176.952123 339.817083 174.497717 335.487152 171.342365 C 331.168624 168.187753 327.378929 164.471996 324.130951 160.173028 C 320.870829 155.884723 318.174792 151.19788 316.029954 146.134566 C 313.885857 141.059849 312.264231 135.698407 311.154415 130.038096 C 310.044598 124.377786 309.499466 118.662518 309.497693 112.868006 C 309.500801 106.82188 310.053489 100.777073 311.155757 94.733586 C 312.258766 88.678695 313.930021 82.866814 316.182407 77.275877 C 318.423389 71.684199 321.245062 66.496658 324.658828 61.713994 C 328.072594 56.931329 332.065131 52.758802 336.614372 49.183528 C 341.163612 45.608254 346.315471 42.804984 352.068466 40.796525 C 357.822202 38.776662 364.185818 37.769754 371.136508 37.77432 C 376.919617 37.771807 382.204702 38.561466 386.991024 40.1547 C 391.765201 41.758598 396.031132 43.959331 399.763788 46.78963 C 403.507848 49.620668 406.759505 52.980862 409.518019 56.881615 C 412.275793 60.793772 414.552267 65.064034 416.345961 69.715208 C 418.128252 74.365642 419.470115 79.273773 420.348743 84.438119 C 421.22663 89.613869 421.66453 94.864121 421.662441 100.188876 Z M 382.644175 95.125443 C 382.647832 93.304911 382.44919 91.425443 382.058172 89.510585 C 381.667153 87.595726 381.035485 85.859921 380.163907 84.291765 C 379.280186 82.734272 378.127086 81.445578 376.692465 80.436346 C 375.268507 79.439258 373.480543 78.933855 371.327835 78.931539 C 368.728176 78.934565 366.438348 79.633335 364.458353 81.027846 C 362.478358 82.422358 360.772644 84.178214 359.341211 86.295416 C 357.909777 88.412617 356.730998 90.695086 355.826199 93.16711 C 354.909997 95.638394 354.235185 97.919221 353.779697 99.996709 L 382.642599 97.266748 Z M 542.305119 84.979628 C 542.307911 90.05277 541.872034 94.650834 540.997487 98.77382 C 540.110798 102.907469 538.730943 106.699919 536.84726 110.139028 C 534.962838 113.58954 532.523052 116.774975 529.539307 119.696075 C 526.543419 122.627838 522.938412 125.417 518.711404 128.085629 L 541.918472 169.442795 L 498.029554 178.022437 L 483.011097 136.475357 L 470.915745 136.869739 L 469.163903 177.442772 L 427.218074 177.434042 C 427.550178 162.614613 427.855775 147.850721 428.145527 133.154509 C 428.435279 118.458296 428.785749 103.708768 429.17561 88.881637 C 429.306192 81.400912 429.432332 73.988607 429.565435 66.645463 C 429.687875 59.290174 429.951595 51.875348 430.345194 44.400245 C 434.897739 42.714662 439.374764 41.310462 443.797593 40.211932 C 448.221162 39.101998 452.662658 38.245158 457.111415 37.629268 C 461.572317 37.002715 466.088315 36.585864 470.672293 36.356647 C 475.256271 36.12743 479.958284 36.020388 484.768409 36.011975 C 492.177452 36.011939 499.348089 37.038503 506.268914 39.090927 C 513.201883 41.132688 519.323318 44.209653 524.657504 48.300496 C 529.990951 52.402742 534.26347 57.501102 537.484984 63.619121 C 540.707239 69.725737 542.306101 76.849214 542.305119 84.979628 Z M 498.610366 88.098115 C 498.616221 85.361616 498.240146 82.863708 497.494283 80.593726 C 496.74916 78.312342 495.639732 76.350851 494.178882 74.687189 C 492.717291 73.034929 490.889915 71.725371 488.718079 70.782801 C 486.534839 69.83949 483.988334 69.37646 481.057238 69.369425 C 479.76274 69.37701 478.486608 69.454495 477.250907 69.614765 C 476.015207 69.775034 474.819938 70.018088 473.642295 70.342445 L 472.088201 106.634047 L 474.424843 106.625399 C 477.218359 106.634956 480.070511 106.270423 482.957013 105.553127 C 485.854917 104.836572 488.457215 103.734384 490.764645 102.235161 C 493.071336 100.747342 494.959203 98.831538 496.416843 96.48701 C 497.885887 94.143222 498.616815 91.350725 498.610366 88.098115 Z M 649.010277 129.065588 C 649.015979 137.97513 647.463542 145.661298 644.375775 152.125572 C 641.287267 158.60125 637.070988 163.927295 631.702649 168.125033 C 626.334311 172.32277 620.064786 175.408485 612.881933 177.392841 C 605.687677 179.376456 597.974026 180.364441 589.717435 180.36672 C 586.522582 180.365467 583.034342 179.944371 579.229909 179.101954 C 575.426217 178.248133 571.566687 177.196014 567.675608 175.924271 C 563.772386 174.663192 560.013405 173.296961 556.410069 171.826319 C 552.79459 170.366341 549.597334 168.990766 546.796233 167.686712 L 551.087222 129.454257 C 556.620725 132.767893 562.744219 135.283874 569.468366 137.014344 C 576.204657 138.734152 582.824672 139.59901 589.317748 139.596775 C 590.55449 139.596892 592.057949 139.545614 593.804578 139.452863 C 595.563352 139.349449 597.242742 139.05766 598.831344 138.576756 C 600.420688 138.084449 601.773961 137.347791 602.879022 136.377445 C 603.984082 135.407099 604.53348 133.999887 604.537137 132.179355 C 604.537254 130.942614 604.147738 129.886707 603.368588 129.011633 C 602.589439 128.136559 601.582523 127.418471 600.347101 126.868774 C 599.111679 126.319076 597.707728 125.895855 596.146652 125.599852 C 594.585575 125.303849 593.064931 125.09063 591.561171 124.970118 C 590.069555 124.838943 588.676869 124.771447 587.371707 124.766888 C 586.065806 124.773733 585.035065 124.775536 584.245274 124.770076 C 578.656762 124.77377 573.572196 123.894064 568.990834 122.142362 C 564.398809 120.378517 560.472157 117.890619 557.188071 114.677188 C 553.904725 111.452354 551.352211 107.553521 549.531269 102.969286 C 547.710327 98.385051 546.792308 93.298308 546.800018 87.710536 C 546.794199 80.037735 548.339695 73.164165 551.425843 67.07768 C 554.522654 61.00334 558.648748 55.83176 563.814787 51.575086 C 568.981566 47.307008 574.918613 44.050844 581.616744 41.771644 C 588.314875 39.492443 595.236954 38.350015 602.393644 38.356501 C 605.577094 38.357014 608.856512 38.466819 612.242561 38.698059 C 615.62861 38.929299 618.992153 39.330849 622.33245 39.914112 C 625.68415 40.498115 628.956328 41.248727 632.138319 42.153804 C 635.330973 43.071025 638.349177 44.20595 641.214997 45.571462 L 637.499539 85.169634 C 633.084347 83.680649 628.44761 82.429214 623.600732 81.416069 C 618.764517 80.415067 614.034055 79.901888 609.419267 79.900077 C 608.57172 79.90232 607.482482 79.923228 606.152293 79.951399 C 604.809961 79.990234 603.418315 80.083124 601.953068 80.251396 C 600.48856 80.408265 599.006728 80.655621 597.519715 80.9828 C 596.022038 81.297835 594.688009 81.738006 593.518369 82.291911 C 592.348729 82.845815 591.408196 83.57491 590.684626 84.489859 C 589.9732 85.394145 589.651269 86.47258 589.708168 87.713022 C 589.776031 89.137398 590.31083 90.248541 591.325448 91.024386 C 592.328662 91.79949 593.631024 92.376435 595.22261 92.731676 C 596.814195 93.086916 598.57727 93.270066 600.489769 93.268241 C 602.413671 93.267156 604.306323 93.218238 606.190533 93.122966 C 608.086147 93.028434 609.833517 92.92428 611.466113 92.824127 C 613.086566 92.734637 614.416015 92.717869 615.465861 92.774564 C 620.666521 93.100687 625.34709 94.2061 629.507569 96.090801 C 633.667308 97.986906 637.192623 100.483107 640.093437 103.602952 C 642.982848 106.722056 645.191481 110.4497 646.720077 114.774479 C 648.248673 119.099259 649.016368 123.855606 649.010277 129.065588 Z M 706.168617 41.668579 L 699.343856 174.508168 L 658.185502 176.657606 L 654.276649 44.403852 Z M 834.619467 104.285863 C 834.624501 110.206552 833.933632 115.910299 832.568926 121.409988 C 831.204959 126.898274 829.244458 132.050102 826.676019 136.864734 C 824.107579 141.679366 820.981996 146.079938 817.309933 150.078594 C 813.637869 154.077249 809.510251 157.508121 804.927079 160.371207 C 800.332504 163.233553 795.343832 165.463395 789.9504 167.04859 C 784.556228 168.645188 778.83608 169.441933 772.789954 169.438826 C 766.927022 169.436158 761.352412 168.696414 756.056202 167.196047 C 750.759252 165.707084 745.799499 163.610183 741.188346 160.906083 C 736.56505 158.212647 732.390764 154.952884 728.652604 151.148862 C 724.914444 147.344839 721.730445 143.118732 719.089203 138.4698 C 716.459365 133.821608 714.412716 128.833376 712.949257 123.505103 C 711.485798 118.17683 710.74785 112.609366 710.75674 106.826998 C 710.757488 101.170066 711.437995 95.625965 712.79826 90.194696 C 714.169928 84.764167 716.128209 79.646548 718.696649 74.831916 C 721.265088 70.017285 724.380008 65.604569 728.020082 61.569483 C 731.660156 57.534396 735.733718 54.054211 740.252171 51.129667 C 744.770624 48.205123 749.67029 45.935149 754.940506 44.307603 C 760.199318 42.679315 765.75982 41.872207 771.612089 41.862732 C 781.036261 41.867532 789.644318 43.330941 797.413453 46.251477 C 805.181849 49.183416 811.816015 53.35864 817.30381 58.787814 C 822.803008 64.217727 827.060605 70.780895 830.087266 78.489459 C 833.113927 86.198024 834.617305 94.79253 834.619467 104.285863 Z M 791.317447 106.822919 C 791.3156 104.028663 790.907975 101.31113 790.093831 98.681724 C 789.279688 96.052318 788.092056 93.707856 786.541599 91.660481 C 784.979738 89.612367 783.037727 87.951826 780.738373 86.68034 C 778.426875 85.419517 775.77744 84.778035 772.788587 84.778702 C 769.730574 84.786331 766.992756 85.330056 764.595718 86.445567 C 762.188017 87.548934 760.120797 89.052298 758.392577 90.978464 C 756.6765 92.893967 755.363101 95.133344 754.451641 97.707998 C 753.54092 100.271249 753.078191 102.989544 753.087 105.85296 C 753.081884 108.578056 753.477366 111.306252 754.249898 114.04747 C 755.034573 116.778026 756.202659 119.247185 757.765561 121.455686 C 759.328462 123.664188 761.262331 125.450165 763.567167 126.813618 C 765.871263 128.188474 768.552687 128.866386 771.60996 128.870161 C 774.667973 128.862532 777.420896 128.262531 779.858065 127.058013 C 782.294494 125.8649 784.358453 124.235359 786.049202 122.180795 C 787.739211 120.137635 789.037205 117.782745 789.954587 115.116864 C 790.860566 112.450243 791.314852 109.685595 791.317447 106.822919 Z M 962.488264 129.648388 C 962.492002 137.000415 962.409694 144.266697 962.24134 151.447234 C 962.08439 158.628512 961.832513 165.860884 961.508514 173.145832 L 905.334287 172.16773 C 907.283671 160.659665 908.979961 149.169526 910.400351 137.695832 C 911.832144 126.222879 912.550708 114.62347 912.554563 102.920412 C 912.552321 102.072865 912.514967 100.707726 912.453905 98.825737 C 912.392843 96.943747 912.256098 94.816366 912.067218 92.433671 C 911.866194 90.061639 911.589047 87.627408 911.236519 85.119577 C 910.871847 82.622408 910.391222 80.323838 909.770356 78.245192 C 909.14949 76.166547 908.401568 74.457549 907.525849 73.129603 C 906.650871 71.790254 905.594641 71.126223 904.357899 71.126105 C 902.147434 71.131492 900.273308 71.777084 898.746185 73.075027 C 897.219062 74.372969 895.953336 76.054323 894.950488 78.096281 C 893.935496 80.148903 893.14517 82.445135 892.557444 84.972095 C 891.968978 87.510457 891.529495 90.047039 891.238996 92.58184 C 890.948496 95.116641 890.747443 97.50838 890.658642 99.758537 C 890.559178 101.996551 890.508427 103.836928 890.50713 105.268266 C 890.183681 116.778809 889.92317 128.201825 889.724857 139.548719 C 889.537947 150.896353 889.275216 162.35358 888.947325 173.932542 L 839.200943 176.074197 C 840.507754 153.11885 841.760069 130.297383 842.957889 107.609795 C 844.167852 84.911544 845.122201 62.093638 845.833818 39.134011 L 891.871157 36.797408 L 891.48798 52.403666 C 893.303865 50.185454 895.270515 48.114445 897.378746 46.155688 C 899.497641 44.209075 901.759158 42.535101 904.163297 41.133767 C 906.567436 39.732432 909.12412 38.627284 911.821946 37.817582 C 914.519772 37.007879 917.363481 36.596993 920.352334 36.596326 C 925.883089 36.600335 930.725225 37.51011 934.890146 39.326391 C 939.042923 41.153336 942.627475 43.619028 945.619515 46.744794 C 948.600153 49.86982 951.108974 53.559692 953.123171 57.81293 C 955.136629 62.077571 956.766674 66.603609 957.999685 71.424514 C 959.233436 76.234016 960.178703 81.25382 960.835487 86.483926 C 961.480126 91.724695 961.924687 96.872317 962.144883 101.948119 C 962.376482 107.024661 962.493007 111.933414 962.483054 116.673639 C 962.483765 121.426006 962.489796 125.743567 962.488264 129.648388 Z M 962.488264 129.648388 " stroke="#000000" stroke-width="52.435688" stroke-opacity="1" stroke-miterlimit="4"/><g fill="#ff5757" fill-opacity="1"><g transform="translate(47.571426, 310.585628)"><g><path d="M 39.484375 -49.421875 L 30.234375 -3.640625 L 13.796875 -1.640625 L -4.015625 -44.109375 L 11.671875 -46.609375 L 19.703125 -21.71875 L 24.109375 -49.421875 Z M 39.484375 -49.421875 "/></g></g><g transform="translate(89.425696, 307.868865)"><g><path d="M 37.078125 -29.390625 C 37.203125 -27.460938 37.195312 -25.53125 37.0625 -23.59375 C 33.289062 -23.09375 29.546875 -22.445312 25.828125 -21.65625 C 22.109375 -20.875 18.394531 -20.101562 14.6875 -19.34375 C 15.363281 -17.78125 16.347656 -16.554688 17.640625 -15.671875 C 18.929688 -14.796875 20.429688 -14.410156 22.140625 -14.515625 C 23.035156 -14.578125 24 -14.804688 25.03125 -15.203125 C 26.0625 -15.609375 27.078125 -16.09375 28.078125 -16.65625 C 29.085938 -17.226562 30.050781 -17.832031 30.96875 -18.46875 C 31.882812 -19.113281 32.671875 -19.691406 33.328125 -20.203125 L 32.71875 -5.015625 C 31.894531 -4.273438 30.992188 -3.640625 30.015625 -3.109375 C 29.035156 -2.585938 28.015625 -2.144531 26.953125 -1.78125 C 25.890625 -1.414062 24.800781 -1.128906 23.6875 -0.921875 C 22.582031 -0.722656 21.5 -0.59375 20.4375 -0.53125 C 18.25 -0.382812 16.222656 -0.550781 14.359375 -1.03125 C 12.503906 -1.507812 10.800781 -2.238281 9.25 -3.21875 C 7.707031 -4.195312 6.332031 -5.382812 5.125 -6.78125 C 3.925781 -8.175781 2.90625 -9.710938 2.0625 -11.390625 C 1.226562 -13.078125 0.554688 -14.867188 0.046875 -16.765625 C -0.453125 -18.671875 -0.769531 -20.613281 -0.90625 -22.59375 C -1.039062 -24.65625 -0.984375 -26.726562 -0.734375 -28.8125 C -0.484375 -30.90625 -0.0390625 -32.929688 0.59375 -34.890625 C 1.226562 -36.847656 2.078125 -38.675781 3.140625 -40.375 C 4.203125 -42.082031 5.46875 -43.59375 6.9375 -44.90625 C 8.40625 -46.226562 10.101562 -47.296875 12.03125 -48.109375 C 13.957031 -48.929688 16.101562 -49.421875 18.46875 -49.578125 C 20.445312 -49.703125 22.265625 -49.546875 23.921875 -49.109375 C 25.585938 -48.671875 27.09375 -48.007812 28.4375 -47.125 C 29.78125 -46.25 30.960938 -45.175781 31.984375 -43.90625 C 33.003906 -42.632812 33.875 -41.222656 34.59375 -39.671875 C 35.3125 -38.128906 35.875 -36.484375 36.28125 -34.734375 C 36.695312 -32.992188 36.960938 -31.210938 37.078125 -29.390625 Z M 23.671875 -30.265625 C 23.628906 -30.890625 23.519531 -31.523438 23.34375 -32.171875 C 23.164062 -32.816406 22.90625 -33.394531 22.5625 -33.90625 C 22.226562 -34.425781 21.804688 -34.835938 21.296875 -35.140625 C 20.796875 -35.453125 20.175781 -35.582031 19.4375 -35.53125 C 18.550781 -35.46875 17.785156 -35.179688 17.140625 -34.671875 C 16.503906 -34.160156 15.960938 -33.523438 15.515625 -32.765625 C 15.078125 -32.015625 14.726562 -31.207031 14.46875 -30.34375 C 14.21875 -29.476562 14.035156 -28.679688 13.921875 -27.953125 L 23.71875 -29.53125 Z M 23.671875 -30.265625 "/></g></g><g transform="translate(128.718139, 305.318389)"><g><path d="M 38.625 -34.71875 C 38.738281 -32.988281 38.6875 -31.410156 38.46875 -29.984375 C 38.257812 -28.554688 37.867188 -27.226562 37.296875 -26 C 36.734375 -24.78125 35.972656 -23.640625 35.015625 -22.578125 C 34.054688 -21.515625 32.890625 -20.488281 31.515625 -19.5 L 40.34375 -5.890625 L 25.578125 -1.984375 L 19.515625 -15.828125 L 15.40625 -15.4375 L 15.703125 -1.546875 L 1.40625 -0.625 C 1.175781 -5.695312 0.953125 -10.738281 0.734375 -15.75 C 0.515625 -20.769531 0.300781 -25.816406 0.09375 -30.890625 C -0.0195312 -33.429688 -0.132812 -35.957031 -0.25 -38.46875 C -0.375 -40.976562 -0.453125 -43.515625 -0.484375 -46.078125 C 1.023438 -46.753906 2.523438 -47.332031 4.015625 -47.8125 C 5.503906 -48.289062 7 -48.679688 8.5 -48.984375 C 10 -49.285156 11.523438 -49.523438 13.078125 -49.703125 C 14.640625 -49.878906 16.242188 -50.023438 17.890625 -50.140625 C 20.421875 -50.296875 22.890625 -50.101562 25.296875 -49.5625 C 27.703125 -49.03125 29.859375 -48.117188 31.765625 -46.828125 C 33.671875 -45.546875 35.242188 -43.898438 36.484375 -41.890625 C 37.722656 -39.878906 38.4375 -37.488281 38.625 -34.71875 Z M 23.78125 -32.6875 C 23.71875 -33.613281 23.535156 -34.457031 23.234375 -35.21875 C 22.929688 -35.976562 22.507812 -36.625 21.96875 -37.15625 C 21.4375 -37.6875 20.785156 -38.085938 20.015625 -38.359375 C 19.253906 -38.628906 18.375 -38.734375 17.375 -38.671875 C 16.925781 -38.640625 16.492188 -38.582031 16.078125 -38.5 C 15.660156 -38.425781 15.253906 -38.320312 14.859375 -38.1875 L 15.125 -25.78125 L 15.9375 -25.828125 C 16.875 -25.890625 17.828125 -26.070312 18.796875 -26.375 C 19.773438 -26.6875 20.644531 -27.117188 21.40625 -27.671875 C 22.164062 -28.234375 22.769531 -28.929688 23.21875 -29.765625 C 23.664062 -30.597656 23.851562 -31.570312 23.78125 -32.6875 Z M 23.78125 -32.6875 "/></g></g><g transform="translate(170.006811, 302.638339)"><g><path d="M 34.6875 -19.375 C 34.882812 -16.320312 34.53125 -13.660156 33.625 -11.390625 C 32.71875 -9.117188 31.394531 -7.207031 29.65625 -5.65625 C 27.914062 -4.101562 25.84375 -2.90625 23.4375 -2.0625 C 21.03125 -1.226562 18.421875 -0.722656 15.609375 -0.546875 C 14.515625 -0.472656 13.304688 -0.539062 11.984375 -0.75 C 10.671875 -0.957031 9.332031 -1.234375 7.96875 -1.578125 C 6.613281 -1.921875 5.304688 -2.300781 4.046875 -2.71875 C 2.785156 -3.144531 1.664062 -3.546875 0.6875 -3.921875 L 1.3125 -17.0625 C 3.257812 -16.050781 5.398438 -15.320312 7.734375 -14.875 C 10.066406 -14.4375 12.34375 -14.289062 14.5625 -14.4375 C 14.988281 -14.46875 15.5 -14.515625 16.09375 -14.578125 C 16.695312 -14.648438 17.257812 -14.785156 17.78125 -14.984375 C 18.3125 -15.191406 18.753906 -15.472656 19.109375 -15.828125 C 19.472656 -16.191406 19.632812 -16.6875 19.59375 -17.3125 C 19.5625 -17.738281 19.398438 -18.085938 19.109375 -18.359375 C 18.828125 -18.640625 18.46875 -18.863281 18.03125 -19.03125 C 17.601562 -19.195312 17.117188 -19.3125 16.578125 -19.375 C 16.046875 -19.4375 15.519531 -19.472656 15 -19.484375 C 14.488281 -19.492188 14.007812 -19.484375 13.5625 -19.453125 C 13.125 -19.429688 12.769531 -19.410156 12.5 -19.390625 C 10.601562 -19.265625 8.851562 -19.453125 7.25 -19.953125 C 5.644531 -20.453125 4.242188 -21.210938 3.046875 -22.234375 C 1.859375 -23.265625 0.90625 -24.539062 0.1875 -26.0625 C -0.53125 -27.582031 -0.953125 -29.296875 -1.078125 -31.203125 C -1.253906 -33.816406 -0.890625 -36.191406 0.015625 -38.328125 C 0.929688 -40.472656 2.226562 -42.332031 3.90625 -43.90625 C 5.582031 -45.476562 7.535156 -46.722656 9.765625 -47.640625 C 12.003906 -48.566406 14.34375 -49.113281 16.78125 -49.28125 C 17.875 -49.34375 19 -49.375 20.15625 -49.375 C 21.3125 -49.375 22.460938 -49.3125 23.609375 -49.1875 C 24.765625 -49.0625 25.894531 -48.878906 27 -48.640625 C 28.113281 -48.398438 29.175781 -48.078125 30.1875 -47.671875 L 29.796875 -34.078125 C 28.253906 -34.492188 26.644531 -34.816406 24.96875 -35.046875 C 23.300781 -35.273438 21.679688 -35.34375 20.109375 -35.25 C 19.816406 -35.226562 19.441406 -35.195312 18.984375 -35.15625 C 18.523438 -35.113281 18.046875 -35.046875 17.546875 -34.953125 C 17.046875 -34.867188 16.546875 -34.757812 16.046875 -34.625 C 15.554688 -34.488281 15.113281 -34.3125 14.71875 -34.09375 C 14.332031 -33.882812 14.023438 -33.613281 13.796875 -33.28125 C 13.578125 -32.957031 13.5 -32.582031 13.5625 -32.15625 C 13.613281 -31.664062 13.816406 -31.296875 14.171875 -31.046875 C 14.535156 -30.804688 14.988281 -30.644531 15.53125 -30.5625 C 16.082031 -30.476562 16.679688 -30.457031 17.328125 -30.5 C 17.984375 -30.539062 18.632812 -30.597656 19.28125 -30.671875 C 19.925781 -30.742188 20.523438 -30.8125 21.078125 -30.875 C 21.640625 -30.945312 22.097656 -30.984375 22.453125 -30.984375 C 24.222656 -30.992188 25.84375 -30.722656 27.3125 -30.171875 C 28.78125 -29.617188 30.039062 -28.84375 31.09375 -27.84375 C 32.144531 -26.84375 32.976562 -25.617188 33.59375 -24.171875 C 34.207031 -22.734375 34.570312 -21.132812 34.6875 -19.375 Z M 34.6875 -19.375 "/></g></g><g transform="translate(206.238369, 300.286546)"><g><path d="M 16.015625 -48.078125 L 16.640625 -2.625 L 2.65625 -0.96875 L -1.625 -46.015625 Z M 16.015625 -48.078125 "/></g></g><g transform="translate(226.300472, 298.984314)"><g><path d="M 41.15625 -28.265625 C 41.289062 -26.242188 41.1875 -24.28125 40.84375 -22.375 C 40.5 -20.476562 39.941406 -18.675781 39.171875 -16.96875 C 38.410156 -15.269531 37.445312 -13.695312 36.28125 -12.25 C 35.113281 -10.8125 33.78125 -9.550781 32.28125 -8.46875 C 30.78125 -7.394531 29.125 -6.523438 27.3125 -5.859375 C 25.507812 -5.203125 23.570312 -4.804688 21.5 -4.671875 C 19.5 -4.546875 17.582031 -4.675781 15.75 -5.0625 C 13.914062 -5.445312 12.179688 -6.050781 10.546875 -6.875 C 8.921875 -7.695312 7.421875 -8.710938 6.046875 -9.921875 C 4.679688 -11.140625 3.5 -12.515625 2.5 -14.046875 C 1.507812 -15.578125 0.703125 -17.234375 0.078125 -19.015625 C -0.535156 -20.796875 -0.90625 -22.675781 -1.03125 -24.65625 C -1.15625 -26.582031 -1.039062 -28.488281 -0.6875 -30.375 C -0.34375 -32.257812 0.207031 -34.050781 0.96875 -35.75 C 1.726562 -37.445312 2.6875 -39.019531 3.84375 -40.46875 C 5 -41.925781 6.316406 -43.203125 7.796875 -44.296875 C 9.273438 -45.398438 10.894531 -46.285156 12.65625 -46.953125 C 14.425781 -47.628906 16.304688 -48.035156 18.296875 -48.171875 C 21.503906 -48.378906 24.460938 -48.066406 27.171875 -47.234375 C 29.890625 -46.410156 32.25 -45.132812 34.25 -43.40625 C 36.25 -41.675781 37.847656 -39.53125 39.046875 -36.96875 C 40.242188 -34.40625 40.945312 -31.503906 41.15625 -28.265625 Z M 26.453125 -26.453125 C 26.390625 -27.398438 26.1875 -28.3125 25.84375 -29.1875 C 25.507812 -30.070312 25.054688 -30.84375 24.484375 -31.5 C 23.910156 -32.164062 23.21875 -32.691406 22.40625 -33.078125 C 21.59375 -33.460938 20.671875 -33.617188 19.640625 -33.546875 C 18.597656 -33.484375 17.675781 -33.238281 16.875 -32.8125 C 16.082031 -32.382812 15.410156 -31.820312 14.859375 -31.125 C 14.316406 -30.425781 13.914062 -29.625 13.65625 -28.71875 C 13.40625 -27.820312 13.3125 -26.890625 13.375 -25.921875 C 13.4375 -24.992188 13.632812 -24.070312 13.96875 -23.15625 C 14.300781 -22.238281 14.753906 -21.421875 15.328125 -20.703125 C 15.910156 -19.984375 16.609375 -19.414062 17.421875 -19 C 18.234375 -18.59375 19.164062 -18.425781 20.21875 -18.5 C 21.257812 -18.5625 22.179688 -18.820312 22.984375 -19.28125 C 23.796875 -19.75 24.460938 -20.347656 24.984375 -21.078125 C 25.515625 -21.816406 25.90625 -22.648438 26.15625 -23.578125 C 26.414062 -24.515625 26.515625 -25.472656 26.453125 -26.453125 Z M 26.453125 -26.453125 "/></g></g><g transform="translate(269.751725, 296.16389)"><g><path d="M 41.890625 -19.640625 C 42.054688 -17.128906 42.1875 -14.644531 42.28125 -12.1875 C 42.382812 -9.726562 42.46875 -7.253906 42.53125 -4.765625 L 23.328125 -3.859375 C 23.742188 -7.828125 24.066406 -11.78125 24.296875 -15.71875 C 24.523438 -19.664062 24.507812 -23.632812 24.25 -27.625 C 24.226562 -27.914062 24.1875 -28.382812 24.125 -29.03125 C 24.070312 -29.675781 23.984375 -30.398438 23.859375 -31.203125 C 23.742188 -32.015625 23.597656 -32.84375 23.421875 -33.6875 C 23.253906 -34.53125 23.039062 -35.296875 22.78125 -35.984375 C 22.519531 -36.679688 22.222656 -37.25 21.890625 -37.6875 C 21.566406 -38.125 21.191406 -38.328125 20.765625 -38.296875 C 20.015625 -38.253906 19.390625 -37.992188 18.890625 -37.515625 C 18.398438 -37.035156 18.003906 -36.429688 17.703125 -35.703125 C 17.398438 -34.984375 17.175781 -34.1875 17.03125 -33.3125 C 16.894531 -32.4375 16.804688 -31.5625 16.765625 -30.6875 C 16.722656 -29.8125 16.707031 -28.992188 16.71875 -28.234375 C 16.738281 -27.472656 16.769531 -26.847656 16.8125 -26.359375 C 16.945312 -22.410156 17.109375 -18.5 17.296875 -14.625 C 17.484375 -10.757812 17.648438 -6.847656 17.796875 -2.890625 L 0.875 -1.0625 C 0.800781 -8.914062 0.71875 -16.726562 0.625 -24.5 C 0.539062 -32.269531 0.367188 -40.078125 0.109375 -47.921875 L 15.734375 -49.734375 L 15.953125 -44.40625 C 16.523438 -45.195312 17.148438 -45.945312 17.828125 -46.65625 C 18.515625 -47.375 19.253906 -48 20.046875 -48.53125 C 20.835938 -49.0625 21.679688 -49.492188 22.578125 -49.828125 C 23.472656 -50.160156 24.429688 -50.359375 25.453125 -50.421875 C 27.335938 -50.546875 29.007812 -50.34375 30.46875 -49.8125 C 31.9375 -49.289062 33.210938 -48.53125 34.296875 -47.53125 C 35.390625 -46.53125 36.320312 -45.328125 37.09375 -43.921875 C 37.875 -42.515625 38.53125 -41.003906 39.0625 -39.390625 C 39.59375 -37.773438 40.023438 -36.082031 40.359375 -34.3125 C 40.703125 -32.539062 40.96875 -30.789062 41.15625 -29.0625 C 41.351562 -27.34375 41.503906 -25.671875 41.609375 -24.046875 C 41.710938 -22.429688 41.804688 -20.960938 41.890625 -19.640625 Z M 41.890625 -19.640625 "/></g></g></g></svg>